<?xml version="1.0" standalone="no"?>
<!DOCTYPE svg PUBLIC "-//W3C//DTD SVG 20010904//EN"
 "http://www.w3.org/TR/2001/REC-SVG-20010904/DTD/svg10.dtd">
<svg version="1.0" xmlns="http://www.w3.org/2000/svg"
 width="509.000000pt" height="339.000000pt" viewBox="0 0 509.000000 339.000000"
 preserveAspectRatio="xMidYMid meet">

<g transform="translate(0.000000,339.000000) scale(0.100000,-0.100000)"
fill="#000000" stroke="none">
<path d="M2363 2728 c-4 -7 -10 -148 -14 -313 -3 -183 -9 -310 -16 -326 -6
-14 -34 -52 -62 -85 -75 -86 -94 -133 -101 -237 l-5 -87 33 0 32 0 0 64 c0 69
13 116 43 159 l19 28 23 -21 c13 -12 21 -28 18 -36 -3 -8 0 -14 6 -14 7 0 9
-28 4 -90 l-6 -90 227 0 226 0 0 59 c0 32 -9 89 -21 125 -16 55 -31 79 -85
136 -36 37 -70 83 -76 102 -6 18 -12 159 -15 318 -3 157 -9 293 -14 303 -8 14
-25 17 -109 17 -68 0 -101 -4 -107 -12z m37 -52 c0 -3 -4 -8 -10 -11 -5 -3
-10 -1 -10 4 0 6 5 11 10 11 6 0 10 -2 10 -4z m20 -510 c0 -44 -18 -76 -44
-76 -8 0 -11 13 -9 38 7 68 12 82 33 82 17 0 20 -7 20 -44z"/>
<path d="M2734 730 c-28 -4 -130 -11 -227 -15 -169 -7 -175 -8 -172 -27 3 -12
1 -26 -2 -32 -4 -6 -6 -29 -5 -51 l1 -40 -13 50 -14 50 -1 -40 c-3 -65 -25
-146 -44 -156 -16 -9 -17 0 -17 121 l0 130 -35 0 -35 0 -1 -187 c-1 -342 1
-354 69 -372 118 -32 271 -39 409 -20 150 20 153 28 153 354 0 135 -3 244 -7
244 -5 -1 -31 -5 -59 -9z"/>
</g>
</svg>
