<svg width="304" height="304" viewBox="0 0 304 304" fill="none" xmlns="http://www.w3.org/2000/svg">
<rect x="1" y="1" width="302" height="302" rx="51" fill="url(#paint0_radial_399_236)"/>
<path d="M133.243 283.004L130.839 279.001V281.484H131.542V283H128.704V281.484H129.407V277.52H128.704V276.004H131.846L134.258 280.007V277.52H133.555V276.004H136.394V277.52H135.691V283L133.243 283.004ZM140.468 283.127C139.744 283.127 139.119 282.982 138.591 282.692C138.067 282.399 137.663 281.982 137.378 281.44C137.094 280.898 136.952 280.255 136.952 279.511C136.952 278.761 137.094 278.115 137.378 277.573C137.663 277.028 138.067 276.609 138.591 276.316C139.119 276.023 139.744 275.876 140.468 275.876C141.194 275.876 141.82 276.023 142.344 276.316C142.869 276.609 143.273 277.028 143.557 277.573C143.841 278.115 143.983 278.761 143.983 279.511C143.983 280.255 143.841 280.898 143.557 281.44C143.273 281.982 142.869 282.399 142.344 282.692C141.82 282.982 141.194 283.127 140.468 283.127ZM140.468 281.611C140.796 281.611 141.048 281.433 141.224 281.075C141.399 280.718 141.487 280.192 141.487 279.498C141.487 278.803 141.399 278.277 141.224 277.92C141.048 277.562 140.796 277.384 140.468 277.384C140.14 277.384 139.888 277.562 139.712 277.92C139.536 278.277 139.448 278.803 139.448 279.498C139.448 280.192 139.536 280.718 139.712 281.075C139.888 281.433 140.14 281.611 140.468 281.611ZM146.532 283L144.801 277.52H144.164V276.004H148.114V277.52H147.389L148.51 281.444L149.63 277.52H148.905V276.004H151.828V277.52H151.19L149.463 283H146.532ZM154.17 283V281.748C155.028 281.414 155.689 281.021 156.152 280.57C156.618 280.119 156.851 279.646 156.851 279.15C156.851 278.872 156.792 278.649 156.675 278.482C156.558 278.315 156.382 278.232 156.147 278.232C155.904 278.232 155.718 278.314 155.589 278.478C155.463 278.639 155.4 278.849 155.4 279.106C155.4 279.25 155.418 279.382 155.453 279.502C155.491 279.622 155.55 279.755 155.629 279.902L154.508 280.346C154.365 280.202 154.249 280.012 154.161 279.774C154.073 279.537 154.029 279.287 154.029 279.023C154.029 278.578 154.139 278.203 154.359 277.898C154.582 277.593 154.88 277.363 155.255 277.208C155.633 277.05 156.057 276.971 156.525 276.971C157.009 276.971 157.431 277.048 157.791 277.204C158.154 277.356 158.436 277.58 158.635 277.876C158.837 278.172 158.938 278.531 158.938 278.953C158.938 279.468 158.752 279.946 158.38 280.385C158.011 280.825 157.454 281.191 156.71 281.484H159.083L159.105 283H154.17ZM162.339 283.114C161.78 283.114 161.296 282.991 160.889 282.745C160.482 282.496 160.168 282.143 159.949 281.686C159.729 281.229 159.619 280.684 159.619 280.051C159.619 279.416 159.729 278.868 159.949 278.408C160.168 277.948 160.48 277.593 160.885 277.344C161.292 277.095 161.777 276.971 162.339 276.971C162.902 276.971 163.387 277.095 163.794 277.344C164.201 277.593 164.513 277.948 164.73 278.408C164.95 278.868 165.06 279.416 165.06 280.051C165.06 280.684 164.95 281.229 164.73 281.686C164.51 282.143 164.197 282.496 163.79 282.745C163.385 282.991 162.902 283.114 162.339 283.114ZM162.339 281.708C162.823 281.708 163.064 281.151 163.064 280.038C163.064 278.925 162.823 278.368 162.339 278.368C161.856 278.368 161.614 278.925 161.614 280.038C161.614 281.151 161.856 281.708 162.339 281.708ZM165.807 283V281.748C166.665 281.414 167.326 281.021 167.789 280.57C168.254 280.119 168.487 279.646 168.487 279.15C168.487 278.872 168.429 278.649 168.312 278.482C168.194 278.315 168.019 278.232 167.784 278.232C167.541 278.232 167.355 278.314 167.226 278.478C167.1 278.639 167.037 278.849 167.037 279.106C167.037 279.25 167.055 279.382 167.09 279.502C167.128 279.622 167.187 279.755 167.266 279.902L166.145 280.346C166.001 280.202 165.886 280.012 165.798 279.774C165.71 279.537 165.666 279.287 165.666 279.023C165.666 278.578 165.776 278.203 165.996 277.898C166.218 277.593 166.517 277.363 166.892 277.208C167.27 277.05 167.693 276.971 168.162 276.971C168.646 276.971 169.067 277.048 169.428 277.204C169.791 277.356 170.072 277.58 170.271 277.876C170.474 278.172 170.575 278.531 170.575 278.953C170.575 279.468 170.389 279.946 170.017 280.385C169.647 280.825 169.091 281.191 168.347 281.484H170.72L170.742 283H165.807ZM173.449 283.123C173.191 283.123 172.929 283.103 172.662 283.062C172.396 283.021 172.148 282.963 171.919 282.89C171.691 282.814 171.502 282.728 171.353 282.631V281.312L171.471 281.26C171.659 281.4 171.889 281.518 172.161 281.611C172.434 281.705 172.76 281.752 173.141 281.752C173.434 281.752 173.685 281.705 173.893 281.611C174.101 281.515 174.205 281.351 174.205 281.119C174.205 280.885 174.101 280.719 173.893 280.623C173.688 280.526 173.446 280.478 173.167 280.478C173.065 280.478 172.948 280.485 172.816 280.5C172.684 280.511 172.555 280.533 172.429 280.565L172.311 280.513V279.836L173.972 278.575H171.348V277.059H176.055V278.267L174.459 279.467C175.028 279.543 175.475 279.723 175.8 280.007C176.128 280.289 176.292 280.672 176.292 281.159C176.292 281.759 176.049 282.237 175.562 282.591C175.079 282.946 174.375 283.123 173.449 283.123Z" fill="white"/>
<path d="M85.8701 34.5659C84.8652 34.5659 84.0996 34.2412 83.5732 33.5918C83.0469 32.9355 82.7837 31.9785 82.7837 30.7207C82.7837 28.998 83.2588 27.6445 84.209 26.6602C85.166 25.6689 86.5195 25.1733 88.2695 25.1733V27.5317C87.5723 27.5454 87.0493 27.7026 86.7007 28.0034C86.3589 28.3042 86.1675 28.7759 86.1265 29.4185C86.8784 29.521 87.4697 29.8013 87.9004 30.2593C88.3311 30.7104 88.5464 31.2915 88.5464 32.0024C88.5464 32.7681 88.2969 33.3867 87.7979 33.8584C87.3057 34.3301 86.6631 34.5659 85.8701 34.5659ZM96.3086 42V38.4624H99.2822V29.0083H97.4468L97.0366 32.4639H93.6528V25.6758H110.244V32.4639H106.86L106.45 29.0083H104.614V38.4624H107.588V42H96.3086ZM111.372 42V38.4624H113.012V29.2134H111.372V25.6758H119.605V29.2134H118.221V32.0845H122.528V29.2134H121.144V25.6758H129.377V29.2134H127.737V38.4624H129.377V42H121.144V38.4624H122.528V35.4478H118.221V38.4624H119.605V42H111.372ZM130.69 42V38.4624H132.331V29.2134H130.69V25.6758H145.209V32.1665H141.826L141.467 29.1621H137.54V31.9307H140.308V35.417H137.54V38.5137H141.467L141.826 35.0581H145.209V42H130.69ZM151.444 42V38.4624H153.084V29.2134H151.444V25.6758H160.293C162.48 25.6758 164.131 26.0518 165.246 26.8037C166.367 27.5557 166.927 28.6768 166.927 30.167C166.927 30.9531 166.732 31.6504 166.343 32.2588C165.96 32.8672 165.403 33.332 164.671 33.6533C165.458 33.9678 166.076 34.4429 166.527 35.0786C166.979 35.7075 167.204 36.4629 167.204 37.3447C167.204 38.8418 166.657 39.9937 165.563 40.8003C164.47 41.6001 162.904 42 160.867 42H151.444ZM159.667 29.1108H158.293V32.2485H159.667C160.939 32.2485 161.575 31.7256 161.575 30.6797C161.575 29.6338 160.939 29.1108 159.667 29.1108ZM158.293 38.5649H159.883C161.195 38.5649 161.852 37.9873 161.852 36.832C161.852 35.6768 161.195 35.0991 159.883 35.0991H158.293V38.5649ZM168.486 42V38.4624H170.229V29.2134H168.486V25.6758H177.304V29.2134H175.561V38.4624H177.304V42H168.486ZM180.985 42V38.4624H183.959V29.0083H182.124L181.713 32.4639H178.33V25.6758H194.92V32.4639H191.537L191.126 29.0083H189.291V38.4624H192.265V42H180.985ZM196.048 42V38.4624H197.689V29.2134H196.048V25.6758H210.568V32.1665H207.184L206.825 29.1621H202.898V31.9307H205.667V35.417H202.898V38.5137H206.825L207.184 35.0581H210.568V42H196.048ZM216.73 34.771V32.4126C217.428 32.3989 217.947 32.2417 218.289 31.9409C218.638 31.6401 218.833 31.1685 218.874 30.5259C218.122 30.4233 217.53 30.1465 217.1 29.6953C216.669 29.2373 216.454 28.6528 216.454 27.9419C216.454 27.1763 216.7 26.5576 217.192 26.0859C217.691 25.6143 218.337 25.3784 219.13 25.3784C220.135 25.3784 220.9 25.7065 221.427 26.3628C221.953 27.0122 222.216 27.9658 222.216 29.2236C222.216 30.9463 221.741 32.3032 220.791 33.2944C219.841 34.2788 218.487 34.771 216.73 34.771Z" fill="white"/>
<path d="M128.696 69V66.4731H129.868V59.8667H128.696V57.3398H135.017C136.58 57.3398 137.759 57.6084 138.555 58.1455C139.355 58.6826 139.756 59.4834 139.756 60.5479C139.756 61.1094 139.617 61.6074 139.338 62.042C139.065 62.4766 138.667 62.8086 138.145 63.0381C138.706 63.2627 139.148 63.6021 139.47 64.0562C139.792 64.5054 139.954 65.0449 139.954 65.6748C139.954 66.7441 139.563 67.5669 138.782 68.1431C138 68.7144 136.882 69 135.427 69H128.696ZM134.57 59.7935H133.589V62.0347H134.57C135.479 62.0347 135.933 61.6611 135.933 60.9141C135.933 60.167 135.479 59.7935 134.57 59.7935ZM133.589 66.5464H134.724C135.662 66.5464 136.13 66.1338 136.13 65.3086C136.13 64.4834 135.662 64.0708 134.724 64.0708H133.589V66.5464ZM140.942 69V66.4731H142.114V59.8667H140.942V57.3398H151.313V61.9761H148.896L148.64 59.8301H145.835V61.8076H147.812V64.2979H145.835V66.5098H148.64L148.896 64.0415H151.313V69H140.942ZM152.676 69V66.4731H153.848V59.8667H152.676V57.3398H163.047V61.9761H160.63L160.374 59.8301H157.568V61.8076H159.546V64.2979H157.568V66.5098H160.374L160.63 64.0415H163.047V69H152.676ZM164.409 69V66.4731H165.581V59.8667H164.409V57.3398H171.14C172.595 57.3398 173.713 57.6133 174.495 58.1602C175.276 58.7021 175.667 59.498 175.667 60.5479C175.667 61.2266 175.498 61.7905 175.161 62.2397C174.824 62.689 174.368 63.0088 173.792 63.1992C174.25 63.3506 174.59 63.5874 174.81 63.9097C175.034 64.2319 175.151 64.625 175.161 65.0889L175.176 65.6968C175.186 65.9556 175.242 66.1509 175.344 66.2827C175.452 66.4097 175.632 66.4731 175.886 66.4731H176.663V69H174.114C173.181 69 172.49 68.7852 172.041 68.3555C171.597 67.9209 171.37 67.2861 171.36 66.4512L171.345 65.4771C171.331 64.6958 170.969 64.3052 170.261 64.3052H169.302V66.4731H170.291V69H164.409ZM170.437 59.7935H169.302V62.269H170.437C171.375 62.269 171.843 61.8564 171.843 61.0312C171.843 60.2061 171.375 59.7935 170.437 59.7935Z" fill="black"/>
<path d="M116.527 245L118.605 240.988H117.355L117.258 241.887L116.203 241.883V239.719H120.785V240.832L118.754 245H116.527ZM121.715 245.105C121.384 245.105 121.118 245.016 120.918 244.836C120.717 244.656 120.617 244.414 120.617 244.109C120.617 243.807 120.717 243.569 120.918 243.395C121.118 243.22 121.384 243.133 121.715 243.133C122.048 243.133 122.314 243.22 122.512 243.395C122.712 243.569 122.812 243.807 122.812 244.109C122.812 244.414 122.712 244.656 122.512 244.836C122.311 245.016 122.046 245.105 121.715 245.105ZM125.633 245.109C124.859 245.109 124.258 244.969 123.828 244.688C123.398 244.404 123.184 244.02 123.184 243.535C123.184 243.246 123.255 243.001 123.398 242.801C123.542 242.598 123.746 242.436 124.012 242.316C123.616 242.069 123.418 241.702 123.418 241.215C123.418 240.895 123.508 240.617 123.688 240.383C123.87 240.146 124.126 239.964 124.457 239.836C124.79 239.706 125.182 239.641 125.633 239.641C126.083 239.641 126.474 239.706 126.805 239.836C127.138 239.964 127.395 240.146 127.574 240.383C127.757 240.617 127.848 240.895 127.848 241.215C127.848 241.702 127.65 242.069 127.254 242.316C127.52 242.436 127.724 242.598 127.867 242.801C128.01 243.001 128.082 243.246 128.082 243.535C128.082 244.02 127.867 244.404 127.438 244.688C127.008 244.969 126.406 245.109 125.633 245.109ZM125.633 241.961C125.81 241.961 125.953 241.904 126.062 241.789C126.172 241.674 126.227 241.523 126.227 241.336C126.227 241.148 126.172 240.997 126.062 240.883C125.953 240.768 125.81 240.711 125.633 240.711C125.456 240.711 125.312 240.768 125.203 240.883C125.094 240.997 125.039 241.148 125.039 241.336C125.039 241.523 125.094 241.674 125.203 241.789C125.312 241.904 125.456 241.961 125.633 241.961ZM125.633 244.039C125.872 244.039 126.064 243.983 126.207 243.871C126.35 243.757 126.422 243.604 126.422 243.414C126.422 243.227 126.349 243.076 126.203 242.961C126.06 242.846 125.87 242.789 125.633 242.789C125.396 242.789 125.204 242.846 125.059 242.961C124.915 243.076 124.844 243.227 124.844 243.414C124.844 243.604 124.915 243.757 125.059 243.871C125.204 243.983 125.396 244.039 125.633 244.039ZM131.637 242.625C131.335 242.625 131.072 242.561 130.848 242.434C130.626 242.306 130.454 242.13 130.332 241.906C130.212 241.68 130.152 241.423 130.152 241.137C130.152 240.848 130.212 240.591 130.332 240.367C130.454 240.141 130.626 239.964 130.848 239.836C131.072 239.706 131.335 239.641 131.637 239.641C131.939 239.641 132.201 239.706 132.422 239.836C132.646 239.964 132.818 240.141 132.938 240.367C133.06 240.591 133.121 240.848 133.121 241.137C133.121 241.423 133.06 241.68 132.938 241.906C132.818 242.13 132.646 242.306 132.422 242.434C132.201 242.561 131.939 242.625 131.637 242.625ZM131.375 245L134.555 239.719H135.805L132.625 245H131.375ZM131.637 241.797C131.733 241.797 131.809 241.74 131.863 241.625C131.921 241.508 131.949 241.342 131.949 241.129C131.949 240.915 131.921 240.753 131.863 240.641C131.809 240.526 131.733 240.469 131.637 240.469C131.54 240.469 131.464 240.526 131.406 240.641C131.352 240.753 131.324 240.915 131.324 241.129C131.324 241.342 131.352 241.508 131.406 241.625C131.464 241.74 131.54 241.797 131.637 241.797ZM135.543 245.102C135.241 245.102 134.978 245.038 134.754 244.91C134.533 244.783 134.361 244.607 134.238 244.383C134.118 244.159 134.059 243.902 134.059 243.613C134.059 243.324 134.118 243.068 134.238 242.844C134.361 242.617 134.533 242.44 134.754 242.312C134.978 242.182 135.241 242.117 135.543 242.117C135.845 242.117 136.107 242.182 136.328 242.312C136.552 242.44 136.724 242.617 136.844 242.844C136.966 243.068 137.027 243.324 137.027 243.613C137.027 243.902 136.966 244.159 136.844 244.383C136.724 244.607 136.552 244.783 136.328 244.91C136.107 245.038 135.845 245.102 135.543 245.102ZM135.543 244.273C135.639 244.273 135.715 244.216 135.77 244.102C135.827 243.984 135.855 243.819 135.855 243.605C135.855 243.392 135.827 243.229 135.77 243.117C135.715 243.003 135.639 242.945 135.543 242.945C135.447 242.945 135.37 243.003 135.312 243.117C135.258 243.229 135.23 243.392 135.23 243.605C135.23 243.819 135.258 243.984 135.312 244.102C135.37 244.216 135.447 244.273 135.543 244.273ZM138.898 245V243.652H139.465L140.633 240.129H139.793V238.781H143.652L145.113 243.652H145.68V245H142.176V243.652H142.82L142.641 242.969H141.031L140.828 243.652H141.473V245H138.898ZM141.32 241.992H142.383L141.887 240.094L141.32 241.992ZM146.016 245V243.652H146.641V240.129H146.016V238.781H149.531V240.129H148.672V243.672H149.945L150.102 242.215H151.391V245H146.016ZM155.27 245.113C154.564 245.113 153.952 244.978 153.434 244.707C152.918 244.436 152.52 244.049 152.238 243.547C151.957 243.044 151.816 242.447 151.816 241.754C151.816 241.257 151.889 240.816 152.035 240.434C152.184 240.051 152.387 239.728 152.645 239.465C152.905 239.202 153.203 239.004 153.539 238.871C153.875 238.736 154.232 238.668 154.609 238.668C155.005 238.668 155.348 238.73 155.637 238.855C155.926 238.98 156.164 239.163 156.352 239.402L156.551 238.781H157.625V241.367H156.199C156.178 240.867 156.079 240.522 155.902 240.332C155.728 240.142 155.499 240.047 155.215 240.047C155.007 240.047 154.811 240.105 154.629 240.223C154.449 240.34 154.303 240.52 154.191 240.762C154.082 241.004 154.027 241.314 154.027 241.691C154.027 242.249 154.172 242.676 154.461 242.973C154.753 243.267 155.161 243.414 155.688 243.414C155.997 243.414 156.301 243.362 156.598 243.258C156.895 243.154 157.171 242.993 157.426 242.777L157.531 242.824V244.473C157.229 244.694 156.872 244.857 156.461 244.961C156.052 245.062 155.655 245.113 155.27 245.113ZM159.199 245.105C158.868 245.105 158.603 245.016 158.402 244.836C158.202 244.656 158.102 244.414 158.102 244.109C158.102 243.807 158.202 243.569 158.402 243.395C158.603 243.22 158.868 243.133 159.199 243.133C159.533 243.133 159.798 243.22 159.996 243.395C160.197 243.569 160.297 243.807 160.297 244.109C160.297 244.414 160.197 244.656 159.996 244.836C159.796 245.016 159.53 245.105 159.199 245.105ZM162.141 245L163.473 238.781H165.387L164.055 245H162.141ZM169.277 245L167.738 240.129H167.172V238.781H170.684V240.129H170.039L171.035 243.617L172.031 240.129H171.387V238.781H173.984V240.129H173.418L171.883 245H169.277ZM177.27 245.113C176.626 245.113 176.07 244.984 175.602 244.727C175.135 244.466 174.776 244.095 174.523 243.613C174.271 243.132 174.145 242.56 174.145 241.898C174.145 241.232 174.271 240.658 174.523 240.176C174.776 239.691 175.135 239.319 175.602 239.059C176.07 238.798 176.626 238.668 177.27 238.668C177.915 238.668 178.471 238.798 178.938 239.059C179.404 239.319 179.763 239.691 180.016 240.176C180.268 240.658 180.395 241.232 180.395 241.898C180.395 242.56 180.268 243.132 180.016 243.613C179.763 244.095 179.404 244.466 178.938 244.727C178.471 244.984 177.915 245.113 177.27 245.113ZM177.27 243.766C177.561 243.766 177.785 243.607 177.941 243.289C178.098 242.971 178.176 242.504 178.176 241.887C178.176 241.27 178.098 240.802 177.941 240.484C177.785 240.167 177.561 240.008 177.27 240.008C176.978 240.008 176.754 240.167 176.598 240.484C176.441 240.802 176.363 241.27 176.363 241.887C176.363 242.504 176.441 242.971 176.598 243.289C176.754 243.607 176.978 243.766 177.27 243.766ZM180.93 245V243.652H181.555V240.129H180.93V238.781H184.445V240.129H183.586V243.672H184.859L185.016 242.215H186.305V245H180.93ZM187.777 245.105C187.447 245.105 187.181 245.016 186.98 244.836C186.78 244.656 186.68 244.414 186.68 244.109C186.68 243.807 186.78 243.569 186.98 243.395C187.181 243.22 187.447 243.133 187.777 243.133C188.111 243.133 188.376 243.22 188.574 243.395C188.775 243.569 188.875 243.807 188.875 244.109C188.875 244.414 188.775 244.656 188.574 244.836C188.374 245.016 188.108 245.105 187.777 245.105ZM122.941 258V256.75H123.684V254.445H122.863V253.301L125.539 252.641V256.75H126.145V258H122.941ZM126.73 258V256.887C127.493 256.59 128.081 256.241 128.492 255.84C128.906 255.439 129.113 255.018 129.113 254.578C129.113 254.331 129.061 254.133 128.957 253.984C128.853 253.836 128.697 253.762 128.488 253.762C128.272 253.762 128.107 253.835 127.992 253.98C127.88 254.124 127.824 254.31 127.824 254.539C127.824 254.667 127.84 254.784 127.871 254.891C127.905 254.997 127.957 255.116 128.027 255.246L127.031 255.641C126.904 255.513 126.801 255.344 126.723 255.133C126.645 254.922 126.605 254.699 126.605 254.465C126.605 254.069 126.703 253.736 126.898 253.465C127.096 253.194 127.362 252.99 127.695 252.852C128.031 252.711 128.408 252.641 128.824 252.641C129.254 252.641 129.629 252.71 129.949 252.848C130.272 252.983 130.522 253.182 130.699 253.445C130.879 253.708 130.969 254.027 130.969 254.402C130.969 254.861 130.803 255.285 130.473 255.676C130.145 256.066 129.65 256.392 128.988 256.652H131.098L131.117 258H126.73ZM133.188 258V256.652H133.812V253.129H133.188V251.781H138.641V254.367H137.352L137.215 253.109H135.797V254.164H136.812V255.492H135.797V256.652H136.93V258H133.188ZM139.031 258V256.652H139.656V253.129H139.031V251.781H142.547V253.129H141.688V256.672H142.961L143.117 255.215H144.406V258H139.031ZM145.879 258.105C145.548 258.105 145.283 258.016 145.082 257.836C144.882 257.656 144.781 257.414 144.781 257.109C144.781 256.807 144.882 256.569 145.082 256.395C145.283 256.22 145.548 256.133 145.879 256.133C146.212 256.133 146.478 256.22 146.676 256.395C146.876 256.569 146.977 256.807 146.977 257.109C146.977 257.414 146.876 257.656 146.676 257.836C146.475 258.016 146.21 258.105 145.879 258.105ZM152.152 258.113C151.509 258.113 150.953 257.984 150.484 257.727C150.018 257.466 149.659 257.095 149.406 256.613C149.154 256.132 149.027 255.56 149.027 254.898C149.027 254.232 149.154 253.658 149.406 253.176C149.659 252.691 150.018 252.319 150.484 252.059C150.953 251.798 151.509 251.668 152.152 251.668C152.798 251.668 153.354 251.798 153.82 252.059C154.286 252.319 154.646 252.691 154.898 253.176C155.151 253.658 155.277 254.232 155.277 254.898C155.277 255.56 155.151 256.132 154.898 256.613C154.646 257.095 154.286 257.466 153.82 257.727C153.354 257.984 152.798 258.113 152.152 258.113ZM152.152 256.766C152.444 256.766 152.668 256.607 152.824 256.289C152.98 255.971 153.059 255.504 153.059 254.887C153.059 254.27 152.98 253.802 152.824 253.484C152.668 253.167 152.444 253.008 152.152 253.008C151.861 253.008 151.637 253.167 151.48 253.484C151.324 253.802 151.246 254.27 151.246 254.887C151.246 255.504 151.324 255.971 151.48 256.289C151.637 256.607 151.861 256.766 152.152 256.766ZM159.062 258.113C158.185 258.113 157.504 257.892 157.02 257.449C156.538 257.007 156.297 256.298 156.297 255.324V253.129H155.672V251.781H158.973V253.129H158.328V255.328C158.328 256.151 158.669 256.562 159.352 256.562C159.677 256.562 159.919 256.456 160.078 256.242C160.24 256.029 160.32 255.724 160.32 255.328V253.129H159.676V251.781H162.25V253.129H161.625V255.48C161.625 257.236 160.771 258.113 159.062 258.113ZM166.723 258.004L164.586 254.445V256.652H165.211V258H162.688V256.652H163.312V253.129H162.688V251.781H165.48L167.625 255.34V253.129H167V251.781H169.523V253.129H168.898V258L166.723 258.004ZM173.473 258.113C172.767 258.113 172.155 257.978 171.637 257.707C171.121 257.436 170.723 257.049 170.441 256.547C170.16 256.044 170.02 255.447 170.02 254.754C170.02 254.257 170.092 253.816 170.238 253.434C170.387 253.051 170.59 252.728 170.848 252.465C171.108 252.202 171.406 252.004 171.742 251.871C172.078 251.736 172.435 251.668 172.812 251.668C173.208 251.668 173.551 251.73 173.84 251.855C174.129 251.98 174.367 252.163 174.555 252.402L174.754 251.781H175.828V254.367H174.402C174.382 253.867 174.283 253.522 174.105 253.332C173.931 253.142 173.702 253.047 173.418 253.047C173.21 253.047 173.014 253.105 172.832 253.223C172.652 253.34 172.507 253.52 172.395 253.762C172.285 254.004 172.23 254.314 172.23 254.691C172.23 255.249 172.375 255.676 172.664 255.973C172.956 256.267 173.365 256.414 173.891 256.414C174.201 256.414 174.504 256.362 174.801 256.258C175.098 256.154 175.374 255.993 175.629 255.777L175.734 255.824V257.473C175.432 257.694 175.076 257.857 174.664 257.961C174.255 258.062 173.858 258.113 173.473 258.113ZM176.438 258V256.652H177.062V253.129H176.438V251.781H181.969V254.254H180.68L180.543 253.109H179.047V254.164H180.102V255.492H179.047V256.672H180.543L180.68 255.355H181.969V258H176.438Z" fill="white"/>
<path d="M89 232.476V71L152 106.476L215 71V232.476L152 200.67L89 232.476Z" fill="#D397B1"/>
<g opacity="0.46154" filter="url(#filter0_f_399_236)">
<path d="M152.647 92.0843C122.645 92.0843 98.3049 115.617 98.3049 144.62C98.3049 159.196 104.452 172.384 114.379 181.905L115.286 209.517C115.286 211.321 123.024 213.551 124.828 213.551L119.241 196.898L130.642 201.894L130.583 213.35L139.092 213.267L140.371 202.992C140.371 202.992 145.598 201.8 147.288 201.784C147.788 201.779 149.083 213.169 149.083 213.169L155.717 214.911C155.717 214.911 157.366 203.368 158.787 203.354C160.208 203.342 164.679 204.57 164.679 204.57L167.499 214.796L176.085 214.713L176.979 204.835L186.843 200.045L184.15 214.634L188.024 214.598C189.828 214.598 191.273 213.137 191.273 211.332L190.91 181.907C200.838 172.386 207 159.198 207 144.622C207 115.621 182.644 92.0871 152.642 92.0871L152.647 92.0843Z" fill="black"/>
<path d="M152.647 92.0843C122.645 92.0843 98.3049 115.617 98.3049 144.62C98.3049 159.196 104.452 172.384 114.379 181.905L115.286 209.517C115.286 211.321 123.024 213.551 124.828 213.551L119.241 196.898L130.642 201.894L130.583 213.35L139.092 213.267L140.371 202.992C140.371 202.992 145.598 201.8 147.288 201.784C147.788 201.779 149.083 213.169 149.083 213.169L155.717 214.911C155.717 214.911 157.366 203.368 158.787 203.354C160.208 203.342 164.679 204.57 164.679 204.57L167.499 214.796L176.085 214.713L176.979 204.835L186.843 200.045L184.15 214.634L188.024 214.598C189.828 214.598 191.273 213.137 191.273 211.332L190.91 181.907C200.838 172.386 207 159.198 207 144.622C207 115.621 182.644 92.0871 152.642 92.0871L152.647 92.0843Z" stroke="black" stroke-width="4.74322"/>
</g>
<path d="M151.342 89C121.341 89 97 112.533 97 141.535C97 156.111 103.147 169.299 113.074 178.82L113.981 206.433C113.981 208.237 121.719 210.467 123.524 210.467L117.936 193.814L129.337 198.81L129.278 210.266L137.787 210.183L139.066 199.908C139.066 199.908 144.293 198.716 145.983 198.7C146.483 198.695 147.778 210.085 147.778 210.085L154.412 211.827C154.412 211.827 156.061 200.283 157.482 200.269C158.904 200.257 163.374 201.485 163.374 201.485L166.194 211.711L174.78 211.628L175.674 201.75L185.538 196.96L182.845 211.549L186.719 211.514C188.523 211.514 189.968 210.052 189.968 208.248L189.605 178.823C199.533 169.302 205.695 156.114 205.695 141.538C205.695 112.536 181.339 89.0027 151.337 89.0027L151.342 89Z" fill="#CECECE" stroke="black" stroke-width="4.74322"/>
<g filter="url(#filter1_f_399_236)">
<path d="M109.347 161.008C123.312 167.011 137.312 171.518 151.816 154.275L136.695 185.137L163.112 190.001L154.206 156.444C171.443 165.531 185.032 160.026 197.912 151.685C195.633 159.371 193.076 166.699 187.01 169.515L185.252 178.934L171.298 186.9L187.55 189.493L187.76 209.069L184.964 208.656L186.92 195.191L184.766 193.833L172.016 198.298V207.621L167.872 207.102L165.794 197.78L155.96 197.261L153.059 208.341L149.952 207.508L148.706 195.704L136.272 197.156L136.279 207.102L130.582 207.62L131.618 195.19L116.609 192.496L118.992 206.178L115.664 206.072L114.634 191.461L128.618 191.045L117.641 185.452L119.705 174.475L109.347 161.008Z" fill="white"/>
</g>
<path d="M193.76 134.797C193.76 146.604 184.838 156.175 173.832 156.175C162.825 156.175 153.903 146.604 153.903 134.797C153.903 122.991 162.825 113.419 173.832 113.419C184.838 113.419 193.76 122.991 193.76 134.797Z" fill="black" stroke="black" stroke-width="4.74305"/>
<path fill-rule="evenodd" clip-rule="evenodd" d="M151.817 165.872L142.081 182.27L160.271 185.729L151.816 165.873L151.817 165.872Z" fill="black" stroke="black" stroke-width="1.18576"/>
<path fill-rule="evenodd" clip-rule="evenodd" d="M110.533 174.651L112.199 190.536L126.035 191.049L113.48 186.821L110.534 174.651L110.533 174.651Z" fill="black" stroke="black" stroke-width="1.18576"/>
<path fill-rule="evenodd" clip-rule="evenodd" d="M188.473 170.499L186.808 186.384L172.972 186.897L185.527 182.669L188.473 170.499V170.499Z" fill="black" stroke="black" stroke-width="1.18576"/>
<path opacity="0.61154" d="M124.769 119.251C114.213 119.251 105.65 129.15 105.65 141.349C105.65 153.547 114.213 163.447 124.769 163.447C125.099 163.447 125.426 163.435 125.752 163.412C115.683 162.783 107.68 153.14 107.68 141.348C107.68 129.555 115.683 119.912 125.752 119.284C125.426 119.26 125.1 119.248 124.769 119.248V119.251Z" fill="black" fill-opacity="0.5339"/>
<path opacity="0.71538" d="M170.204 112.489C159.648 112.489 151.086 122.389 151.086 134.587C151.086 146.785 159.648 156.685 170.204 156.685C170.534 156.685 170.861 156.674 171.186 156.65C161.117 156.021 153.114 146.378 153.114 134.586C153.114 122.793 161.117 113.151 171.186 112.522C170.86 112.498 170.534 112.486 170.204 112.486V112.489Z" fill="black" fill-opacity="0.53333"/>
<g filter="url(#filter2_f_399_236)">
<path fill-rule="evenodd" clip-rule="evenodd" d="M150.867 165.16L140.141 182.921L159.646 186.484L159.61 185.683L141.547 182.322L151.282 166.135L150.864 165.161L150.867 165.16Z" fill="black" fill-opacity="0.53333"/>
</g>
<path d="M148.207 141.678C148.207 153.485 139.284 163.056 128.278 163.056C117.272 163.056 108.349 153.485 108.349 141.678C108.349 129.871 117.272 120.3 128.278 120.3C139.284 120.3 148.207 129.871 148.207 141.678Z" fill="black" stroke="black" stroke-width="4.74305"/>
<g filter="url(#filter3_f_399_236)">
<path d="M111.957 142.027C118.793 157.547 129.226 163.045 145.201 153.108C130.306 167.401 114.964 162.692 111.957 142.027Z" fill="white" fill-opacity="0.41525"/>
</g>
<g opacity="0.66538" filter="url(#filter4_f_399_236)">
<path d="M189.422 188.53L173.058 187.173C178.653 186.843 185.971 185.901 185.971 185.901C185.971 185.901 187.829 177.888 187.9 175.138C196.864 163.429 205.655 158.741 203.732 131.078C206.558 143.658 205.8 163.45 189.509 178.796L189.422 188.53Z" fill="black"/>
</g>
<g filter="url(#filter5_f_399_236)">
<path d="M157.629 135.384C164.465 150.903 174.898 156.402 190.873 146.465C175.978 160.758 160.637 156.049 157.629 135.384Z" fill="white" fill-opacity="0.41525"/>
</g>
<g opacity="0.71923" filter="url(#filter6_f_399_236)">
<path d="M97.84 144.875C101.521 157.525 108.811 169.897 115.215 178.833C108.353 176.151 97.1164 160.289 97.84 144.875Z" fill="black"/>
</g>
<g opacity="0.32308" filter="url(#filter7_f_399_236)">
<path d="M146.597 90.4236C117.435 98.51 107.894 115.64 99.8971 127.199C104.997 104.454 128.93 88.1293 146.597 90.4236Z" fill="white"/>
</g>
<g opacity="0.6" filter="url(#filter8_f_399_236)">
<path d="M123.345 210.24L118.465 193.8L117.074 194.089L120.308 207.714C118.984 206.948 117.589 205.891 115.718 205.632L115.1 190.72L113.287 190.575C113.429 195.776 114.239 201.68 114.424 206.88C115.88 208.826 121.964 209.758 123.346 210.237L123.345 210.24Z" fill="black"/>
</g>
<g opacity="0.6" filter="url(#filter9_f_399_236)">
<path d="M129.514 198.377H130.84L130.935 208.224C133.035 207.683 134.35 207.773 135.998 208.141L137.278 199.137L139.172 199.42L137.562 210.025L129.23 209.835L129.514 198.377Z" fill="black"/>
</g>
<g opacity="0.6" filter="url(#filter10_f_399_236)">
<path d="M145.885 198.021L147.681 209.657L154.013 211.539L157.521 200.16L156.666 198.876C152.815 202.543 153.574 205.507 152.73 208.716C151.84 208.087 150.546 207.936 149.307 207.86L147.596 196.823L145.885 198.021Z" fill="black"/>
</g>
<g opacity="0.6" filter="url(#filter11_f_399_236)">
<path d="M163.442 200.868L166.266 211.648L174.736 211.392L175.934 201.553L173.453 200.783L172.854 209.339L167.72 209.595L164.897 200.354L163.442 200.868Z" fill="black"/>
</g>
<g opacity="0.6" filter="url(#filter12_f_399_236)">
<path d="M185.982 195.767L187.351 195.168L184.784 209.371L188.121 209.2L188.377 187.639L189.661 187.556L189.404 210.658L183.329 211.514L185.982 195.767Z" fill="black"/>
</g>
<g filter="url(#filter13_f_399_236)">
<path d="M130.107 113.912C137.351 116.232 143.764 117.49 149.788 126.342C160.637 98.9625 186.918 110.375 200.027 126.342C185.048 97.4191 168.702 94.4736 152.378 91.1235C143.245 93.1391 133.871 99.9134 130.107 113.912Z" fill="white"/>
</g>
<rect x="1" y="1" width="302" height="302" rx="51" stroke="black" stroke-width="2"/>
<defs>
<filter id="filter0_f_399_236" x="92.8584" y="86.6378" width="119.588" height="134.317" filterUnits="userSpaceOnUse" color-interpolation-filters="sRGB">
<feFlood flood-opacity="0" result="BackgroundImageFix"/>
<feBlend mode="normal" in="SourceGraphic" in2="BackgroundImageFix" result="shape"/>
<feGaussianBlur stdDeviation="1.53746" result="effect1_foregroundBlur_399_236"/>
</filter>
<filter id="filter1_f_399_236" x="93.1935" y="135.532" width="120.872" height="89.6908" filterUnits="userSpaceOnUse" color-interpolation-filters="sRGB">
<feFlood flood-opacity="0" result="BackgroundImageFix"/>
<feBlend mode="normal" in="SourceGraphic" in2="BackgroundImageFix" result="shape"/>
<feGaussianBlur stdDeviation="8.0767" result="effect1_foregroundBlur_399_236"/>
</filter>
<filter id="filter2_f_399_236" x="137.61" y="162.63" width="24.5662" height="26.3847" filterUnits="userSpaceOnUse" color-interpolation-filters="sRGB">
<feFlood flood-opacity="0" result="BackgroundImageFix"/>
<feBlend mode="normal" in="SourceGraphic" in2="BackgroundImageFix" result="shape"/>
<feGaussianBlur stdDeviation="1.2653" result="effect1_foregroundBlur_399_236"/>
</filter>
<filter id="filter3_f_399_236" x="110.328" y="140.399" width="36.5011" height="22.5711" filterUnits="userSpaceOnUse" color-interpolation-filters="sRGB">
<feFlood flood-opacity="0" result="BackgroundImageFix"/>
<feBlend mode="normal" in="SourceGraphic" in2="BackgroundImageFix" result="shape"/>
<feGaussianBlur stdDeviation="0.814364" result="effect1_foregroundBlur_399_236"/>
</filter>
<filter id="filter4_f_399_236" x="169.489" y="127.508" width="39.0821" height="64.591" filterUnits="userSpaceOnUse" color-interpolation-filters="sRGB">
<feFlood flood-opacity="0" result="BackgroundImageFix"/>
<feBlend mode="normal" in="SourceGraphic" in2="BackgroundImageFix" result="shape"/>
<feGaussianBlur stdDeviation="1.78457" result="effect1_foregroundBlur_399_236"/>
</filter>
<filter id="filter5_f_399_236" x="155.971" y="133.726" width="36.5605" height="22.6307" filterUnits="userSpaceOnUse" color-interpolation-filters="sRGB">
<feFlood flood-opacity="0" result="BackgroundImageFix"/>
<feBlend mode="normal" in="SourceGraphic" in2="BackgroundImageFix" result="shape"/>
<feGaussianBlur stdDeviation="0.829255" result="effect1_foregroundBlur_399_236"/>
</filter>
<filter id="filter6_f_399_236" x="93.6053" y="140.673" width="25.8108" height="42.3618" filterUnits="userSpaceOnUse" color-interpolation-filters="sRGB">
<feFlood flood-opacity="0" result="BackgroundImageFix"/>
<feBlend mode="normal" in="SourceGraphic" in2="BackgroundImageFix" result="shape"/>
<feGaussianBlur stdDeviation="2.10074" result="effect1_foregroundBlur_399_236"/>
</filter>
<filter id="filter7_f_399_236" x="92.8574" y="83.169" width="60.779" height="51.0694" filterUnits="userSpaceOnUse" color-interpolation-filters="sRGB">
<feFlood flood-opacity="0" result="BackgroundImageFix"/>
<feBlend mode="normal" in="SourceGraphic" in2="BackgroundImageFix" result="shape"/>
<feGaussianBlur stdDeviation="3.51981" result="effect1_foregroundBlur_399_236"/>
</filter>
<filter id="filter8_f_399_236" x="107.059" y="184.347" width="22.5146" height="32.1205" filterUnits="userSpaceOnUse" color-interpolation-filters="sRGB">
<feFlood flood-opacity="0" result="BackgroundImageFix"/>
<feBlend mode="normal" in="SourceGraphic" in2="BackgroundImageFix" result="shape"/>
<feGaussianBlur stdDeviation="3.11399" result="effect1_foregroundBlur_399_236"/>
</filter>
<filter id="filter9_f_399_236" x="123.002" y="192.149" width="22.3976" height="24.1039" filterUnits="userSpaceOnUse" color-interpolation-filters="sRGB">
<feFlood flood-opacity="0" result="BackgroundImageFix"/>
<feBlend mode="normal" in="SourceGraphic" in2="BackgroundImageFix" result="shape"/>
<feGaussianBlur stdDeviation="3.11399" result="effect1_foregroundBlur_399_236"/>
</filter>
<filter id="filter10_f_399_236" x="139.657" y="190.595" width="24.0918" height="27.1721" filterUnits="userSpaceOnUse" color-interpolation-filters="sRGB">
<feFlood flood-opacity="0" result="BackgroundImageFix"/>
<feBlend mode="normal" in="SourceGraphic" in2="BackgroundImageFix" result="shape"/>
<feGaussianBlur stdDeviation="3.11399" result="effect1_foregroundBlur_399_236"/>
</filter>
<filter id="filter11_f_399_236" x="157.214" y="194.126" width="24.9478" height="23.7498" filterUnits="userSpaceOnUse" color-interpolation-filters="sRGB">
<feFlood flood-opacity="0" result="BackgroundImageFix"/>
<feBlend mode="normal" in="SourceGraphic" in2="BackgroundImageFix" result="shape"/>
<feGaussianBlur stdDeviation="3.11399" result="effect1_foregroundBlur_399_236"/>
</filter>
<filter id="filter12_f_399_236" x="177.101" y="181.328" width="18.7871" height="36.4131" filterUnits="userSpaceOnUse" color-interpolation-filters="sRGB">
<feFlood flood-opacity="0" result="BackgroundImageFix"/>
<feBlend mode="normal" in="SourceGraphic" in2="BackgroundImageFix" result="shape"/>
<feGaussianBlur stdDeviation="3.11399" result="effect1_foregroundBlur_399_236"/>
</filter>
<filter id="filter13_f_399_236" x="116.143" y="77.1596" width="97.8469" height="63.1464" filterUnits="userSpaceOnUse" color-interpolation-filters="sRGB">
<feFlood flood-opacity="0" result="BackgroundImageFix"/>
<feBlend mode="normal" in="SourceGraphic" in2="BackgroundImageFix" result="shape"/>
<feGaussianBlur stdDeviation="6.98192" result="effect1_foregroundBlur_399_236"/>
</filter>
<radialGradient id="paint0_radial_399_236" cx="0" cy="0" r="1" gradientUnits="userSpaceOnUse" gradientTransform="translate(152 152) rotate(90) scale(150)">
<stop stop-color="#2978BF" stop-opacity="0"/>
<stop offset="1" stop-color="#2978BF"/>
</radialGradient>
</defs>
</svg>
