<svg width="300" height="300" viewBox="0 0 300 300" fill="none" xmlns="http://www.w3.org/2000/svg">
<path fill-rule="evenodd" clip-rule="evenodd" d="M150 0C78.203 0 20 58.203 20 130V170C20 241.797 78.203 300 150 300C221.797 300 280 241.797 280 170V130C280 58.203 221.797 0 150 0ZM150 221C187.003 221 217 183.84 217 138C217 92.1604 187.003 55 150 55C112.997 55 83 92.1604 83 138C83 183.84 112.997 221 150 221Z" fill="#E38F58"/>
<path fill-rule="evenodd" clip-rule="evenodd" d="M93 0C87.4772 0 83 4.47717 83 10V138V290C83 295.523 87.4772 300 93 300H207C212.523 300 217 295.523 217 290V138V10C217 4.47714 212.523 0 207 0H93ZM217 138C217 92.1604 187.003 55 150 55C112.997 55 83 92.1604 83 138C83 183.84 112.997 221 150 221C187.003 221 217 183.84 217 138Z" fill="white"/>
<path d="M110.327 24L107.558 14.8667H106.496V12.3398H113.044V14.8667H111.835L113.315 20.4038L115.644 12.3398H118.522L120.764 20.4844L122.302 14.8667H121.086V12.3398H125.935V14.8667H124.873L122.104 24H117.9L116.267 18.5142L114.604 24H110.327ZM126.469 24V21.4731H127.714V14.8667H126.469V12.3398H132.768V14.8667H131.523V21.4731H132.768V24H126.469ZM135.397 24V21.4731H137.521V14.7202H136.21L135.917 17.1885H133.5V12.3398H145.351V17.1885H142.934L142.641 14.7202H141.33V21.4731H143.454V24H135.397ZM152.58 24.2124C151.257 24.2124 150.109 23.9585 149.138 23.4507C148.171 22.9429 147.424 22.2178 146.896 21.2754C146.369 20.333 146.105 19.2124 146.105 17.9136C146.105 16.981 146.242 16.1558 146.516 15.438C146.794 14.7202 147.175 14.1147 147.658 13.6216C148.146 13.1284 148.706 12.7573 149.335 12.5083C149.965 12.2544 150.634 12.1274 151.342 12.1274C152.084 12.1274 152.727 12.2446 153.269 12.479C153.811 12.7134 154.257 13.0552 154.609 13.5044L154.982 12.3398H156.997V17.1885H154.323C154.284 16.251 154.099 15.604 153.767 15.2476C153.439 14.8911 153.01 14.7129 152.478 14.7129C152.087 14.7129 151.721 14.8228 151.379 15.0425C151.042 15.2622 150.769 15.5991 150.559 16.0532C150.354 16.5073 150.251 17.0884 150.251 17.7964C150.251 18.8413 150.522 19.6421 151.064 20.1987C151.611 20.7505 152.377 21.0264 153.364 21.0264C153.945 21.0264 154.514 20.9287 155.07 20.7334C155.627 20.5381 156.145 20.2378 156.623 19.8325L156.821 19.9204V23.0112C156.254 23.4263 155.585 23.7314 154.814 23.9268C154.047 24.1172 153.303 24.2124 152.58 24.2124ZM158.139 24V21.4731H159.311V14.8667H158.139V12.3398H164.021V14.8667H163.032V16.9175H166.108V14.8667H165.119V12.3398H171V14.8667H169.829V21.4731H171V24H165.119V21.4731H166.108V19.3198H163.032V21.4731H164.021V24H158.139ZM171.938 24V21.4731H173.11V14.8667H171.938V12.3398H182.309V16.9761H179.892L179.636 14.8301H176.831V16.8076H178.808V19.2979H176.831V21.5098H179.636L179.892 19.0415H182.309V24H171.938ZM189.831 24.2124C188.903 24.2124 188.137 24.0903 187.531 23.8462C186.926 23.5972 186.442 23.2651 186.081 22.8501L185.708 24H183.693V20.0742H186.425C186.518 20.6406 186.801 21.1069 187.275 21.4731C187.749 21.8345 188.347 22.0151 189.069 22.0151C189.465 22.0151 189.77 21.937 189.985 21.7808C190.2 21.6196 190.307 21.3999 190.307 21.1216C190.307 20.8188 190.188 20.5894 189.948 20.4331C189.709 20.2769 189.392 20.1548 188.996 20.0669C188.601 19.979 188.166 19.8936 187.692 19.8105C187.219 19.7275 186.745 19.6128 186.271 19.4663C185.798 19.3198 185.363 19.105 184.968 18.8218C184.572 18.5386 184.255 18.1553 184.016 17.6719C183.776 17.1836 183.657 16.5586 183.657 15.7969C183.657 15.0596 183.833 14.415 184.184 13.8633C184.541 13.3115 185.051 12.8818 185.715 12.5742C186.379 12.2666 187.175 12.1128 188.103 12.1128C188.933 12.1128 189.626 12.2324 190.183 12.4717C190.739 12.7109 191.193 13.0503 191.545 13.4897L191.918 12.3398H193.933V16.1191H191.142C191 15.5381 190.717 15.0913 190.292 14.7788C189.873 14.4663 189.384 14.3101 188.828 14.3101C188.432 14.3101 188.117 14.3857 187.883 14.5371C187.648 14.6836 187.531 14.9009 187.531 15.189C187.531 15.4575 187.651 15.6626 187.89 15.8042C188.129 15.9458 188.447 16.0605 188.842 16.1484C189.238 16.2363 189.672 16.3267 190.146 16.4194C190.62 16.5122 191.093 16.6392 191.567 16.8003C192.041 16.9614 192.475 17.1885 192.871 17.4814C193.266 17.7695 193.583 18.1553 193.823 18.6387C194.062 19.1221 194.182 19.7349 194.182 20.4771C194.182 21.6392 193.796 22.5522 193.024 23.2163C192.253 23.8804 191.188 24.2124 189.831 24.2124ZM122.705 48V45.4731H123.876V38.8667H122.705V36.3398H129.025C130.588 36.3398 131.767 36.6084 132.563 37.1455C133.364 37.6826 133.764 38.4834 133.764 39.5479C133.764 40.1094 133.625 40.6074 133.347 41.042C133.073 41.4766 132.675 41.8086 132.153 42.0381C132.714 42.2627 133.156 42.6021 133.479 43.0562C133.801 43.5054 133.962 44.0449 133.962 44.6748C133.962 45.7441 133.571 46.5669 132.79 47.1431C132.009 47.7144 130.891 48 129.436 48H122.705ZM128.579 38.7935H127.597V41.0347H128.579C129.487 41.0347 129.941 40.6611 129.941 39.9141C129.941 39.167 129.487 38.7935 128.579 38.7935ZM127.597 45.5464H128.732C129.67 45.5464 130.139 45.1338 130.139 44.3086C130.139 43.4834 129.67 43.0708 128.732 43.0708H127.597V45.5464ZM134.951 48V45.4731H136.123V38.8667H134.951V36.3398H141.682C143.137 36.3398 144.255 36.6133 145.036 37.1602C145.817 37.7021 146.208 38.498 146.208 39.5479C146.208 40.2266 146.04 40.7905 145.703 41.2397C145.366 41.689 144.909 42.0088 144.333 42.1992C144.792 42.3506 145.131 42.5874 145.351 42.9097C145.576 43.2319 145.693 43.625 145.703 44.0889L145.717 44.6968C145.727 44.9556 145.783 45.1509 145.886 45.2827C145.993 45.4097 146.174 45.4731 146.428 45.4731H147.204V48H144.655C143.723 48 143.032 47.7852 142.583 47.3555C142.138 46.9209 141.911 46.2861 141.901 45.4512L141.887 44.4771C141.872 43.6958 141.511 43.3052 140.803 43.3052H139.843V45.4731H140.832V48H134.951ZM140.979 38.7935H139.843V41.269H140.979C141.916 41.269 142.385 40.8564 142.385 40.0312C142.385 39.2061 141.916 38.7935 140.979 38.7935ZM147.783 48V45.4731H148.955V38.8667H147.783V36.3398H158.154V40.9761H155.737L155.48 38.8301H152.675V40.8076H154.653V43.2979H152.675V45.5098H155.48L155.737 43.0415H158.154V48H147.783ZM163.017 48L160.249 38.8667H159.187V36.3398H165.734V38.8667H164.526L166.005 44.4038L168.334 36.3398H171.213L173.454 44.4844L174.992 38.8667H173.776V36.3398H178.625V38.8667H177.563L174.794 48H170.59L168.957 42.5142L167.294 48H163.017Z" fill="#A60E0E"/>
<path d="M137.662 289.926L136.06 287.257V288.912H136.528V289.923H134.636V288.912H135.104V286.27H134.636V285.259H136.73L138.339 287.928V286.27H137.87V285.259H139.763V286.27H139.294V289.923L137.662 289.926ZM142.479 290.008C141.996 290.008 141.579 289.911 141.228 289.718C140.878 289.523 140.608 289.244 140.419 288.883C140.229 288.522 140.135 288.093 140.135 287.597C140.135 287.097 140.229 286.666 140.419 286.305C140.608 285.942 140.878 285.662 141.228 285.467C141.579 285.272 141.996 285.174 142.479 285.174C142.963 285.174 143.38 285.272 143.729 285.467C144.079 285.662 144.349 285.942 144.538 286.305C144.728 286.666 144.822 287.097 144.822 287.597C144.822 288.093 144.728 288.522 144.538 288.883C144.349 289.244 144.079 289.523 143.729 289.718C143.38 289.911 142.963 290.008 142.479 290.008ZM142.479 288.997C142.697 288.997 142.865 288.878 142.982 288.64C143.1 288.402 143.158 288.051 143.158 287.588C143.158 287.125 143.1 286.775 142.982 286.536C142.865 286.298 142.697 286.179 142.479 286.179C142.26 286.179 142.092 286.298 141.975 286.536C141.857 286.775 141.799 287.125 141.799 287.588C141.799 288.051 141.857 288.402 141.975 288.64C142.092 288.878 142.26 288.997 142.479 288.997ZM146.521 289.923L145.367 286.27H144.942V285.259H147.576V286.27H147.093L147.84 288.886L148.587 286.27H148.104V285.259H150.052V286.27H149.627L148.476 289.923H146.521ZM151.613 289.923V289.088C152.186 288.865 152.626 288.604 152.935 288.303C153.245 288.002 153.4 287.687 153.4 287.357C153.4 287.171 153.361 287.023 153.283 286.911C153.205 286.8 153.088 286.744 152.932 286.744C152.77 286.744 152.646 286.799 152.56 286.908C152.476 287.016 152.434 287.156 152.434 287.327C152.434 287.423 152.445 287.511 152.469 287.591C152.494 287.671 152.533 287.76 152.586 287.858L151.839 288.154C151.743 288.058 151.666 287.931 151.607 287.773C151.549 287.615 151.52 287.448 151.52 287.272C151.52 286.975 151.593 286.725 151.739 286.522C151.888 286.319 152.087 286.165 152.337 286.062C152.589 285.956 152.871 285.904 153.184 285.904C153.506 285.904 153.787 285.955 154.027 286.059C154.27 286.16 154.457 286.31 154.59 286.507C154.725 286.704 154.792 286.944 154.792 287.225C154.792 287.569 154.668 287.887 154.42 288.18C154.174 288.473 153.803 288.717 153.307 288.912H154.889L154.903 289.923H151.613ZM157.06 289.999C156.687 289.999 156.364 289.917 156.093 289.753C155.821 289.587 155.612 289.352 155.466 289.047C155.319 288.742 155.246 288.379 155.246 287.957C155.246 287.533 155.319 287.168 155.466 286.862C155.612 286.555 155.82 286.319 156.09 286.153C156.361 285.987 156.685 285.904 157.06 285.904C157.435 285.904 157.758 285.987 158.029 286.153C158.301 286.319 158.509 286.555 158.653 286.862C158.8 287.168 158.873 287.533 158.873 287.957C158.873 288.379 158.8 288.742 158.653 289.047C158.507 289.352 158.298 289.587 158.026 289.753C157.757 289.917 157.435 289.999 157.06 289.999ZM157.06 289.062C157.382 289.062 157.543 288.691 157.543 287.948C157.543 287.206 157.382 286.835 157.06 286.835C156.737 286.835 156.576 287.206 156.576 287.948C156.576 288.691 156.737 289.062 157.06 289.062ZM159.371 289.923V289.088C159.943 288.865 160.384 288.604 160.692 288.303C161.003 288.002 161.158 287.687 161.158 287.357C161.158 287.171 161.119 287.023 161.041 286.911C160.963 286.8 160.846 286.744 160.689 286.744C160.527 286.744 160.403 286.799 160.317 286.908C160.233 287.016 160.191 287.156 160.191 287.327C160.191 287.423 160.203 287.511 160.227 287.591C160.252 287.671 160.291 287.76 160.344 287.858L159.597 288.154C159.501 288.058 159.424 287.931 159.365 287.773C159.307 287.615 159.277 287.448 159.277 287.272C159.277 286.975 159.351 286.725 159.497 286.522C159.646 286.319 159.845 286.165 160.095 286.062C160.347 285.956 160.629 285.904 160.941 285.904C161.264 285.904 161.545 285.955 161.785 286.059C162.027 286.16 162.215 286.31 162.348 286.507C162.482 286.704 162.55 286.944 162.55 287.225C162.55 287.569 162.426 287.887 162.178 288.18C161.932 288.473 161.561 288.717 161.064 288.912H162.646L162.661 289.923H159.371ZM164.466 290.005C164.294 290.005 164.119 289.991 163.941 289.964C163.764 289.937 163.599 289.899 163.446 289.85C163.294 289.799 163.168 289.741 163.068 289.677V288.798L163.147 288.763C163.272 288.857 163.426 288.935 163.607 288.997C163.789 289.06 164.007 289.091 164.261 289.091C164.456 289.091 164.623 289.06 164.762 288.997C164.9 288.933 164.97 288.823 164.97 288.669C164.97 288.513 164.9 288.403 164.762 288.338C164.625 288.274 164.464 288.241 164.278 288.241C164.21 288.241 164.132 288.246 164.044 288.256C163.956 288.264 163.87 288.279 163.786 288.3L163.707 288.265V287.814L164.814 286.973H163.065V285.962H166.203V286.768L165.14 287.568C165.519 287.618 165.816 287.739 166.033 287.928C166.252 288.115 166.361 288.371 166.361 288.696C166.361 289.096 166.199 289.414 165.875 289.651C165.553 289.887 165.083 290.005 164.466 290.005Z" fill="#A60E0E"/>
<path d="M123.213 259.538L124.771 256.53H123.834L123.761 257.203L122.97 257.201V255.578H126.406V256.412L124.883 259.538H123.213ZM127.103 259.618C126.855 259.618 126.656 259.55 126.506 259.415C126.355 259.281 126.28 259.099 126.28 258.87C126.28 258.644 126.355 258.465 126.506 258.334C126.656 258.203 126.855 258.138 127.103 258.138C127.353 258.138 127.553 258.203 127.701 258.334C127.852 258.465 127.927 258.644 127.927 258.87C127.927 259.099 127.852 259.281 127.701 259.415C127.551 259.55 127.352 259.618 127.103 259.618ZM130.042 259.62C129.462 259.62 129.011 259.515 128.688 259.304C128.366 259.091 128.205 258.803 128.205 258.44C128.205 258.223 128.259 258.039 128.366 257.889C128.474 257.737 128.627 257.616 128.826 257.526C128.529 257.34 128.381 257.065 128.381 256.7C128.381 256.459 128.448 256.251 128.583 256.076C128.72 255.898 128.912 255.761 129.16 255.665C129.41 255.568 129.704 255.519 130.042 255.519C130.38 255.519 130.673 255.568 130.921 255.665C131.171 255.761 131.363 255.898 131.498 256.076C131.635 256.251 131.703 256.459 131.703 256.7C131.703 257.065 131.555 257.34 131.258 257.526C131.457 257.616 131.61 257.737 131.718 257.889C131.825 258.039 131.879 258.223 131.879 258.44C131.879 258.803 131.718 259.091 131.395 259.304C131.073 259.515 130.622 259.62 130.042 259.62ZM130.042 257.259C130.175 257.259 130.282 257.216 130.364 257.13C130.446 257.044 130.487 256.931 130.487 256.79C130.487 256.65 130.446 256.536 130.364 256.451C130.282 256.365 130.175 256.322 130.042 256.322C129.909 256.322 129.802 256.365 129.72 256.451C129.638 256.536 129.597 256.65 129.597 256.79C129.597 256.931 129.638 257.044 129.72 257.13C129.802 257.216 129.909 257.259 130.042 257.259ZM130.042 258.818C130.222 258.818 130.365 258.776 130.473 258.692C130.58 258.606 130.634 258.492 130.634 258.349C130.634 258.208 130.579 258.095 130.47 258.009C130.362 257.923 130.22 257.88 130.042 257.88C129.864 257.88 129.721 257.923 129.611 258.009C129.504 258.095 129.45 258.208 129.45 258.349C129.45 258.492 129.504 258.606 129.611 258.692C129.721 258.776 129.864 258.818 130.042 258.818ZM134.545 257.757C134.318 257.757 134.121 257.709 133.953 257.614C133.787 257.518 133.658 257.386 133.566 257.218C133.477 257.048 133.432 256.856 133.432 256.641C133.432 256.424 133.477 256.232 133.566 256.064C133.658 255.894 133.787 255.761 133.953 255.665C134.121 255.568 134.318 255.519 134.545 255.519C134.771 255.519 134.968 255.568 135.134 255.665C135.302 255.761 135.431 255.894 135.52 256.064C135.612 256.232 135.658 256.424 135.658 256.641C135.658 256.856 135.612 257.048 135.52 257.218C135.431 257.386 135.302 257.518 135.134 257.614C134.968 257.709 134.771 257.757 134.545 257.757ZM134.349 259.538L136.733 255.578H137.671L135.286 259.538H134.349ZM134.545 257.136C134.617 257.136 134.674 257.093 134.715 257.007C134.758 256.919 134.779 256.795 134.779 256.635C134.779 256.475 134.758 256.353 134.715 256.269C134.674 256.183 134.617 256.14 134.545 256.14C134.473 256.14 134.415 256.183 134.372 256.269C134.331 256.353 134.31 256.475 134.31 256.635C134.31 256.795 134.331 256.919 134.372 257.007C134.415 257.093 134.473 257.136 134.545 257.136ZM137.475 259.615C137.248 259.615 137.051 259.567 136.883 259.471C136.717 259.375 136.588 259.244 136.496 259.076C136.406 258.908 136.361 258.715 136.361 258.498C136.361 258.282 136.406 258.089 136.496 257.921C136.588 257.751 136.717 257.619 136.883 257.523C137.051 257.425 137.248 257.376 137.475 257.376C137.701 257.376 137.897 257.425 138.063 257.523C138.231 257.619 138.36 257.751 138.45 257.921C138.542 258.089 138.588 258.282 138.588 258.498C138.588 258.715 138.542 258.908 138.45 259.076C138.36 259.244 138.231 259.375 138.063 259.471C137.897 259.567 137.701 259.615 137.475 259.615ZM137.475 258.994C137.547 258.994 137.603 258.951 137.644 258.865C137.687 258.777 137.709 258.653 137.709 258.493C137.709 258.332 137.687 258.21 137.644 258.126C137.603 258.04 137.547 257.997 137.475 257.997C137.402 257.997 137.345 258.04 137.302 258.126C137.261 258.21 137.24 258.332 137.24 258.493C137.24 258.653 137.261 258.777 137.302 258.865C137.345 258.951 137.402 258.994 137.475 258.994ZM139.991 259.538V258.528H140.416L141.292 255.885H140.662V254.874H143.557L144.652 258.528H145.077V259.538H142.449V258.528H142.933L142.798 258.015H141.591L141.438 258.528H141.922V259.538H139.991ZM141.808 257.283H142.604L142.232 255.859L141.808 257.283ZM145.329 259.538V258.528H145.798V255.885H145.329V254.874H147.966V255.885H147.321V258.542H148.276L148.393 257.45H149.36V259.538H145.329ZM152.269 259.623C151.74 259.623 151.281 259.522 150.893 259.319C150.506 259.116 150.207 258.826 149.996 258.449C149.785 258.072 149.68 257.623 149.68 257.104C149.68 256.731 149.734 256.401 149.844 256.114C149.955 255.827 150.107 255.584 150.301 255.387C150.496 255.19 150.72 255.041 150.972 254.942C151.224 254.84 151.491 254.789 151.774 254.789C152.071 254.789 152.328 254.836 152.545 254.93C152.762 255.024 152.94 255.161 153.081 255.34L153.23 254.874H154.036V256.814H152.967C152.951 256.439 152.877 256.18 152.744 256.037C152.613 255.895 152.441 255.824 152.228 255.824C152.072 255.824 151.926 255.868 151.789 255.955C151.654 256.043 151.545 256.178 151.461 256.36C151.379 256.541 151.338 256.774 151.338 257.057C151.338 257.475 151.446 257.795 151.663 258.018C151.882 258.239 152.188 258.349 152.583 258.349C152.815 258.349 153.043 258.31 153.266 258.232C153.488 258.154 153.695 258.034 153.887 257.871L153.966 257.907V259.143C153.739 259.309 153.472 259.431 153.163 259.509C152.856 259.585 152.559 259.623 152.269 259.623ZM155.217 259.618C154.969 259.618 154.769 259.55 154.619 259.415C154.469 259.281 154.393 259.099 154.393 258.87C154.393 258.644 154.469 258.465 154.619 258.334C154.769 258.203 154.969 258.138 155.217 258.138C155.467 258.138 155.666 258.203 155.814 258.334C155.965 258.465 156.04 258.644 156.04 258.87C156.04 259.099 155.965 259.281 155.814 259.415C155.664 259.55 155.465 259.618 155.217 259.618ZM157.423 259.538L158.422 254.874H159.857L158.858 259.538H157.423ZM162.775 259.538L161.621 255.885H161.196V254.874H163.83V255.885H163.347L164.094 258.501L164.841 255.885H164.357V254.874H166.306V255.885H165.881L164.729 259.538H162.775ZM168.769 259.623C168.287 259.623 167.87 259.527 167.518 259.333C167.169 259.138 166.899 258.86 166.71 258.498C166.52 258.137 166.426 257.708 166.426 257.212C166.426 256.712 166.52 256.282 166.71 255.92C166.899 255.557 167.169 255.278 167.518 255.082C167.87 254.887 168.287 254.789 168.769 254.789C169.254 254.789 169.671 254.887 170.02 255.082C170.37 255.278 170.64 255.557 170.829 255.92C171.018 256.282 171.113 256.712 171.113 257.212C171.113 257.708 171.018 258.137 170.829 258.498C170.64 258.86 170.37 259.138 170.02 259.333C169.671 259.527 169.254 259.623 168.769 259.623ZM168.769 258.613C168.988 258.613 169.156 258.494 169.273 258.255C169.391 258.017 169.449 257.666 169.449 257.203C169.449 256.741 169.391 256.39 169.273 256.152C169.156 255.913 168.988 255.794 168.769 255.794C168.551 255.794 168.383 255.913 168.266 256.152C168.148 256.39 168.09 256.741 168.09 257.203C168.09 257.666 168.148 258.017 168.266 258.255C168.383 258.494 168.551 258.613 168.769 258.613ZM171.515 259.538V258.528H171.983V255.885H171.515V254.874H174.151V255.885H173.507V258.542H174.462L174.579 257.45H175.546V259.538H171.515ZM176.65 259.618C176.402 259.618 176.203 259.55 176.053 259.415C175.902 259.281 175.827 259.099 175.827 258.87C175.827 258.644 175.902 258.465 176.053 258.334C176.203 258.203 176.402 258.138 176.65 258.138C176.9 258.138 177.1 258.203 177.248 258.334C177.398 258.465 177.474 258.644 177.474 258.87C177.474 259.099 177.398 259.281 177.248 259.415C177.098 259.55 176.898 259.618 176.65 259.618ZM128.023 269.538V268.601H128.58V266.872H127.965V266.014L129.972 265.519V268.601H130.426V269.538H128.023ZM130.865 269.538V268.703C131.437 268.481 131.878 268.219 132.186 267.918C132.497 267.618 132.652 267.302 132.652 266.972C132.652 266.786 132.613 266.638 132.535 266.527C132.457 266.415 132.34 266.36 132.184 266.36C132.021 266.36 131.897 266.414 131.811 266.524C131.727 266.631 131.685 266.771 131.685 266.943C131.685 267.038 131.697 267.126 131.721 267.206C131.746 267.286 131.785 267.375 131.838 267.473L131.091 267.769C130.995 267.673 130.918 267.546 130.859 267.388C130.801 267.23 130.771 267.063 130.771 266.887C130.771 266.59 130.845 266.34 130.991 266.137C131.14 265.934 131.339 265.781 131.589 265.677C131.841 265.572 132.123 265.519 132.435 265.519C132.758 265.519 133.039 265.571 133.279 265.674C133.521 265.776 133.709 265.925 133.842 266.122C133.977 266.32 134.044 266.559 134.044 266.84C134.044 267.184 133.92 267.502 133.672 267.795C133.426 268.088 133.055 268.332 132.559 268.528H134.141L134.155 269.538H130.865ZM135.708 269.538V268.528H136.177V265.885H135.708V264.874H139.798V266.814H138.831L138.728 265.87H137.665V266.661H138.427V267.658H137.665V268.528H138.515V269.538H135.708ZM140.091 269.538V268.528H140.56V265.885H140.091V264.874H142.727V265.885H142.083V268.542H143.038L143.155 267.45H144.122V269.538H140.091ZM145.227 269.618C144.978 269.618 144.779 269.55 144.629 269.415C144.478 269.281 144.403 269.099 144.403 268.87C144.403 268.644 144.478 268.465 144.629 268.334C144.779 268.203 144.978 268.138 145.227 268.138C145.477 268.138 145.676 268.203 145.824 268.334C145.975 268.465 146.05 268.644 146.05 268.87C146.05 269.099 145.975 269.281 145.824 269.415C145.674 269.55 145.475 269.618 145.227 269.618ZM149.932 269.623C149.449 269.623 149.032 269.527 148.681 269.333C148.331 269.138 148.061 268.86 147.872 268.498C147.683 268.137 147.588 267.708 147.588 267.212C147.588 266.712 147.683 266.282 147.872 265.92C148.061 265.557 148.331 265.278 148.681 265.082C149.032 264.887 149.449 264.789 149.932 264.789C150.416 264.789 150.833 264.887 151.183 265.082C151.532 265.278 151.802 265.557 151.991 265.92C152.181 266.282 152.275 266.712 152.275 267.212C152.275 267.708 152.181 268.137 151.991 268.498C151.802 268.86 151.532 269.138 151.183 269.333C150.833 269.527 150.416 269.623 149.932 269.623ZM149.932 268.613C150.15 268.613 150.318 268.494 150.435 268.255C150.553 268.017 150.611 267.666 150.611 267.203C150.611 266.741 150.553 266.39 150.435 266.152C150.318 265.913 150.15 265.794 149.932 265.794C149.713 265.794 149.545 265.913 149.428 266.152C149.31 266.39 149.252 266.741 149.252 267.203C149.252 267.666 149.31 268.017 149.428 268.255C149.545 268.494 149.713 268.613 149.932 268.613ZM155.114 269.623C154.456 269.623 153.945 269.457 153.582 269.125C153.221 268.793 153.04 268.262 153.04 267.532V265.885H152.571V264.874H155.047V265.885H154.563V267.535C154.563 268.152 154.819 268.46 155.331 268.46C155.575 268.46 155.757 268.38 155.876 268.22C155.997 268.06 156.058 267.831 156.058 267.535V265.885H155.574V264.874H157.505V265.885H157.036V267.649C157.036 268.965 156.395 269.623 155.114 269.623ZM160.859 269.541L159.257 266.872V268.528H159.726V269.538H157.833V268.528H158.302V265.885H157.833V264.874H159.928L161.536 267.543V265.885H161.067V264.874H162.96V265.885H162.491V269.538L160.859 269.541ZM165.922 269.623C165.393 269.623 164.934 269.522 164.545 269.319C164.158 269.116 163.859 268.826 163.648 268.449C163.437 268.072 163.332 267.623 163.332 267.104C163.332 266.731 163.387 266.401 163.496 266.114C163.607 265.827 163.76 265.584 163.953 265.387C164.148 265.19 164.372 265.041 164.624 264.942C164.876 264.84 165.143 264.789 165.427 264.789C165.724 264.789 165.98 264.836 166.197 264.93C166.414 265.024 166.593 265.161 166.733 265.34L166.883 264.874H167.688V266.814H166.619C166.603 266.439 166.529 266.18 166.396 266.037C166.266 265.895 166.094 265.824 165.881 265.824C165.725 265.824 165.578 265.868 165.441 265.955C165.307 266.043 165.197 266.178 165.113 266.36C165.031 266.541 164.99 266.774 164.99 267.057C164.99 267.475 165.099 267.795 165.315 268.018C165.534 268.239 165.841 268.349 166.235 268.349C166.468 268.349 166.695 268.31 166.918 268.232C167.141 268.154 167.348 268.034 167.539 267.871L167.618 267.907V269.143C167.392 269.309 167.124 269.431 166.815 269.509C166.509 269.585 166.211 269.623 165.922 269.623ZM168.145 269.538V268.528H168.614V265.885H168.145V264.874H172.294V266.729H171.327L171.225 265.87H170.102V266.661H170.893V267.658H170.102V268.542H171.225L171.327 267.555H172.294V269.538H168.145Z" fill="#A60E0E"/>
<line x1="100" y1="245.5" x2="200" y2="245.5" stroke="#B12C2C"/>
<path d="M112.641 239V237.652H113.266V234.129H112.641V232.781H115.777V234.129H115.25V235.223H116.891V234.129H116.363V232.781H119.5V234.129H118.875V237.652H119.5V239H116.363V237.652H116.891V236.504H115.25V237.652H115.777V239H112.641ZM121.395 239.07C121.126 239.07 120.887 239.017 120.676 238.91C120.467 238.801 120.303 238.651 120.184 238.461C120.066 238.271 120.008 238.052 120.008 237.805C120.008 237.419 120.156 237.112 120.453 236.883C120.75 236.654 121.146 236.539 121.641 236.539C121.812 236.539 121.977 236.549 122.133 236.57C122.289 236.591 122.448 236.626 122.609 236.676V236.59C122.609 236.353 122.536 236.181 122.391 236.074C122.247 235.967 122.017 235.914 121.699 235.914C121.47 235.914 121.238 235.944 121.004 236.004C120.77 236.064 120.556 236.147 120.363 236.254L120.258 236.207V235.066C120.531 234.96 120.841 234.879 121.188 234.824C121.536 234.77 121.887 234.742 122.238 234.742C123.017 234.742 123.586 234.872 123.945 235.133C124.305 235.393 124.484 235.811 124.484 236.387V237.828H124.992V239H122.859L122.668 238.387C122.546 238.6 122.371 238.768 122.145 238.891C121.921 239.01 121.671 239.07 121.395 239.07ZM122.211 238.07C122.281 238.07 122.354 238.059 122.43 238.035C122.508 238.009 122.568 237.975 122.609 237.934V237.281C122.544 237.253 122.478 237.233 122.41 237.223C122.345 237.212 122.284 237.207 122.227 237.207C122.094 237.207 121.982 237.246 121.891 237.324C121.802 237.402 121.758 237.507 121.758 237.637C121.758 237.77 121.799 237.875 121.883 237.953C121.966 238.031 122.076 238.07 122.211 238.07ZM125.512 239V237.828H126.078V236.035H125.512V234.969L127.914 234.738V235.27C128.076 235.1 128.277 234.97 128.52 234.879C128.762 234.785 129.022 234.738 129.301 234.738C129.772 234.738 130.117 234.872 130.336 235.141C130.557 235.406 130.668 235.807 130.668 236.344V237.828H131.215V239H128.793V236.344C128.793 236.193 128.76 236.083 128.695 236.016C128.63 235.945 128.544 235.91 128.438 235.91C128.349 235.91 128.26 235.936 128.172 235.988C128.086 236.04 128.013 236.112 127.953 236.203V237.828H128.305V239H125.512ZM133.449 239.07C133.072 239.07 132.746 238.98 132.473 238.801C132.199 238.621 131.99 238.368 131.844 238.043C131.698 237.715 131.625 237.333 131.625 236.898C131.625 236.461 131.697 236.081 131.84 235.758C131.983 235.435 132.184 235.185 132.441 235.008C132.702 234.831 133.005 234.742 133.352 234.742C133.799 234.742 134.224 234.905 134.625 235.23V234.227H133.941V233.16L136.5 232.906V237.828H137.047V239H134.664V238.562C134.503 238.716 134.315 238.84 134.102 238.934C133.888 239.025 133.671 239.07 133.449 239.07ZM134.055 237.902C134.154 237.902 134.255 237.887 134.359 237.855C134.466 237.824 134.555 237.784 134.625 237.734V236.09C134.555 236.038 134.466 235.995 134.359 235.961C134.255 235.927 134.154 235.91 134.055 235.91C133.872 235.91 133.729 235.997 133.625 236.172C133.523 236.346 133.473 236.59 133.473 236.902C133.473 237.215 133.523 237.46 133.625 237.637C133.729 237.814 133.872 237.902 134.055 237.902ZM139.828 239.07C139.089 239.07 138.505 238.876 138.078 238.488C137.654 238.098 137.441 237.557 137.441 236.867C137.441 236.435 137.531 236.06 137.711 235.742C137.893 235.424 138.135 235.178 138.438 235.004C138.742 234.829 139.077 234.742 139.441 234.742C139.707 234.742 139.94 234.789 140.141 234.883C140.341 234.974 140.512 235.1 140.652 235.262L140.809 234.812H141.672V236.547H140.547C140.526 236.323 140.465 236.156 140.363 236.047C140.262 235.935 140.134 235.879 139.98 235.879C139.806 235.879 139.65 235.954 139.512 236.105C139.376 236.254 139.309 236.503 139.309 236.852C139.309 237.214 139.404 237.473 139.594 237.629C139.784 237.783 140.025 237.859 140.316 237.859C140.535 237.859 140.746 237.816 140.949 237.73C141.155 237.645 141.332 237.539 141.48 237.414L141.586 237.461V238.621C141.464 238.707 141.306 238.784 141.113 238.852C140.921 238.919 140.712 238.973 140.488 239.012C140.264 239.051 140.044 239.07 139.828 239.07ZM143.559 239.07C143.29 239.07 143.051 239.017 142.84 238.91C142.632 238.801 142.467 238.651 142.348 238.461C142.23 238.271 142.172 238.052 142.172 237.805C142.172 237.419 142.32 237.112 142.617 236.883C142.914 236.654 143.31 236.539 143.805 236.539C143.977 236.539 144.141 236.549 144.297 236.57C144.453 236.591 144.612 236.626 144.773 236.676V236.59C144.773 236.353 144.701 236.181 144.555 236.074C144.411 235.967 144.181 235.914 143.863 235.914C143.634 235.914 143.402 235.944 143.168 236.004C142.934 236.064 142.72 236.147 142.527 236.254L142.422 236.207V235.066C142.695 234.96 143.005 234.879 143.352 234.824C143.701 234.77 144.051 234.742 144.402 234.742C145.181 234.742 145.75 234.872 146.109 235.133C146.469 235.393 146.648 235.811 146.648 236.387V237.828H147.156V239H145.023L144.832 238.387C144.71 238.6 144.535 238.768 144.309 238.891C144.085 239.01 143.835 239.07 143.559 239.07ZM144.375 238.07C144.445 238.07 144.518 238.059 144.594 238.035C144.672 238.009 144.732 237.975 144.773 237.934V237.281C144.708 237.253 144.642 237.233 144.574 237.223C144.509 237.212 144.448 237.207 144.391 237.207C144.258 237.207 144.146 237.246 144.055 237.324C143.966 237.402 143.922 237.507 143.922 237.637C143.922 237.77 143.964 237.875 144.047 237.953C144.13 238.031 144.24 238.07 144.375 238.07ZM147.637 239V237.828H148.242V235.984H147.598V234.918L148.242 234.855V234.566C148.242 234.04 148.411 233.634 148.75 233.348C149.091 233.059 149.579 232.914 150.215 232.914C150.395 232.914 150.56 232.923 150.711 232.941C150.862 232.96 151.012 232.987 151.16 233.023V234.141L151.055 234.188C150.997 234.169 150.935 234.152 150.867 234.137C150.802 234.118 150.72 234.109 150.621 234.109C150.447 234.109 150.319 234.154 150.238 234.242C150.158 234.328 150.117 234.449 150.117 234.605V234.812H151.062V235.984H150.117V237.828H151.062V239H147.637ZM153.766 239.07C153.148 239.07 152.672 238.93 152.336 238.648C152 238.365 151.832 237.954 151.832 237.418V235.984H151.188V234.918L151.832 234.855V233.918L153.707 233.508V234.812H154.652V235.984H153.707V237.379C153.707 237.535 153.745 237.658 153.82 237.746C153.898 237.832 154.016 237.875 154.172 237.875C154.263 237.875 154.34 237.867 154.402 237.852C154.467 237.833 154.529 237.815 154.586 237.797L154.691 237.844V238.961C154.543 238.995 154.393 239.021 154.242 239.039C154.094 239.06 153.935 239.07 153.766 239.07ZM157.527 239.07C156.754 239.07 156.147 238.876 155.707 238.488C155.27 238.098 155.051 237.557 155.051 236.867C155.051 236.432 155.146 236.056 155.336 235.738C155.529 235.421 155.797 235.176 156.141 235.004C156.484 234.829 156.884 234.742 157.34 234.742C157.785 234.742 158.167 234.824 158.484 234.988C158.802 235.15 159.044 235.376 159.211 235.668C159.38 235.957 159.465 236.292 159.465 236.672C159.465 236.76 159.461 236.846 159.453 236.93C159.445 237.01 159.436 237.085 159.426 237.152H156.914C156.958 237.418 157.078 237.609 157.273 237.727C157.471 237.841 157.712 237.898 157.996 237.898C158.236 237.898 158.464 237.857 158.68 237.773C158.898 237.688 159.083 237.581 159.234 237.453L159.34 237.5V238.621C159.215 238.707 159.053 238.784 158.855 238.852C158.658 238.919 158.443 238.973 158.211 239.012C157.982 239.051 157.754 239.07 157.527 239.07ZM157.441 235.703C157.267 235.703 157.135 235.771 157.047 235.906C156.958 236.042 156.909 236.23 156.898 236.473H157.984C157.974 236.23 157.924 236.042 157.836 235.906C157.75 235.771 157.618 235.703 157.441 235.703ZM161.723 239.07C161.345 239.07 161.02 238.98 160.746 238.801C160.473 238.621 160.263 238.368 160.117 238.043C159.971 237.715 159.898 237.333 159.898 236.898C159.898 236.461 159.97 236.081 160.113 235.758C160.257 235.435 160.457 235.185 160.715 235.008C160.975 234.831 161.279 234.742 161.625 234.742C162.073 234.742 162.497 234.905 162.898 235.23V234.227H162.215V233.16L164.773 232.906V237.828H165.32V239H162.938V238.562C162.776 238.716 162.589 238.84 162.375 238.934C162.161 239.025 161.944 239.07 161.723 239.07ZM162.328 237.902C162.427 237.902 162.529 237.887 162.633 237.855C162.74 237.824 162.828 237.784 162.898 237.734V236.09C162.828 236.038 162.74 235.995 162.633 235.961C162.529 235.927 162.427 235.91 162.328 235.91C162.146 235.91 162.003 235.997 161.898 236.172C161.797 236.346 161.746 236.59 161.746 236.902C161.746 237.215 161.797 237.46 161.898 237.637C162.003 237.814 162.146 237.902 162.328 237.902ZM167.406 239V237.652H168.031V234.129H167.406V232.781H170.777C171.611 232.781 172.24 232.924 172.664 233.211C173.091 233.497 173.305 233.924 173.305 234.492C173.305 234.792 173.23 235.057 173.082 235.289C172.936 235.521 172.724 235.698 172.445 235.82C172.745 235.94 172.98 236.121 173.152 236.363C173.324 236.603 173.41 236.891 173.41 237.227C173.41 237.797 173.202 238.236 172.785 238.543C172.368 238.848 171.772 239 170.996 239H167.406ZM170.539 234.09H170.016V235.285H170.539C171.023 235.285 171.266 235.086 171.266 234.688C171.266 234.289 171.023 234.09 170.539 234.09ZM170.016 237.691H170.621C171.121 237.691 171.371 237.471 171.371 237.031C171.371 236.591 171.121 236.371 170.621 236.371H170.016V237.691ZM176.371 239.07C175.598 239.07 174.991 238.876 174.551 238.488C174.113 238.098 173.895 237.557 173.895 236.867C173.895 236.432 173.99 236.056 174.18 235.738C174.372 235.421 174.641 235.176 174.984 235.004C175.328 234.829 175.728 234.742 176.184 234.742C176.629 234.742 177.01 234.824 177.328 234.988C177.646 235.15 177.888 235.376 178.055 235.668C178.224 235.957 178.309 236.292 178.309 236.672C178.309 236.76 178.305 236.846 178.297 236.93C178.289 237.01 178.28 237.085 178.27 237.152H175.758C175.802 237.418 175.922 237.609 176.117 237.727C176.315 237.841 176.556 237.898 176.84 237.898C177.079 237.898 177.307 237.857 177.523 237.773C177.742 237.688 177.927 237.581 178.078 237.453L178.184 237.5V238.621C178.059 238.707 177.897 238.784 177.699 238.852C177.501 238.919 177.286 238.973 177.055 239.012C176.826 239.051 176.598 239.07 176.371 239.07ZM176.285 235.703C176.111 235.703 175.979 235.771 175.891 235.906C175.802 236.042 175.753 236.23 175.742 236.473H176.828C176.818 236.23 176.768 236.042 176.68 235.906C176.594 235.771 176.462 235.703 176.285 235.703ZM181.199 239.07C180.426 239.07 179.819 238.876 179.379 238.488C178.941 238.098 178.723 237.557 178.723 236.867C178.723 236.432 178.818 236.056 179.008 235.738C179.201 235.421 179.469 235.176 179.812 235.004C180.156 234.829 180.556 234.742 181.012 234.742C181.457 234.742 181.839 234.824 182.156 234.988C182.474 235.15 182.716 235.376 182.883 235.668C183.052 235.957 183.137 236.292 183.137 236.672C183.137 236.76 183.133 236.846 183.125 236.93C183.117 237.01 183.108 237.085 183.098 237.152H180.586C180.63 237.418 180.75 237.609 180.945 237.727C181.143 237.841 181.384 237.898 181.668 237.898C181.908 237.898 182.135 237.857 182.352 237.773C182.57 237.688 182.755 237.581 182.906 237.453L183.012 237.5V238.621C182.887 238.707 182.725 238.784 182.527 238.852C182.329 238.919 182.115 238.973 181.883 239.012C181.654 239.051 181.426 239.07 181.199 239.07ZM181.113 235.703C180.939 235.703 180.807 235.771 180.719 235.906C180.63 236.042 180.581 236.23 180.57 236.473H181.656C181.646 236.23 181.596 236.042 181.508 235.906C181.422 235.771 181.29 235.703 181.113 235.703ZM183.637 239V237.828H184.203V236.035H183.637V234.969L186.039 234.738V235.539C186.193 235.255 186.405 235.048 186.676 234.918C186.947 234.788 187.206 234.723 187.453 234.723V236.402C187.219 236.322 187.004 236.281 186.809 236.281C186.678 236.281 186.542 236.305 186.398 236.352C186.255 236.396 186.148 236.457 186.078 236.535V237.828H186.977V239H183.637Z" fill="#B12C2C"/>
</svg>
