<svg width="302" height="302" viewBox="0 0 302 302" fill="none" xmlns="http://www.w3.org/2000/svg">
<rect x="1" y="1" width="300" height="300" rx="40" fill="#F8F8F8"/>
<path d="M100.625 33V30.1362H101.953V22.6489H100.625V19.7852H106.651C109.102 19.7852 110.967 20.3496 112.246 21.4785C113.524 22.6019 114.163 24.2454 114.163 26.4092C114.163 28.5674 113.527 30.2054 112.254 31.3232C110.981 32.4411 109.111 33 106.643 33H100.625ZM106.269 30.2192H106.726C107.7 30.2192 108.397 29.9259 108.817 29.3394C109.238 28.7472 109.448 27.7622 109.448 26.3843C109.448 25.0119 109.238 24.0324 108.817 23.4458C108.397 22.8592 107.7 22.5659 106.726 22.5659H106.269V30.2192ZM121.933 33.2407C120.566 33.2407 119.384 32.9668 118.388 32.4189C117.398 31.8656 116.634 31.077 116.097 30.0532C115.56 29.0295 115.292 27.8148 115.292 26.4092C115.292 24.9925 115.56 23.7723 116.097 22.7485C116.634 21.7192 117.398 20.9279 118.388 20.3745C119.384 19.8211 120.566 19.5444 121.933 19.5444C123.305 19.5444 124.486 19.8211 125.477 20.3745C126.468 20.9279 127.231 21.7192 127.768 22.7485C128.305 23.7723 128.573 24.9925 128.573 26.4092C128.573 27.8148 128.305 29.0295 127.768 30.0532C127.231 31.077 126.468 31.8656 125.477 32.4189C124.486 32.9668 123.305 33.2407 121.933 33.2407ZM121.933 30.377C122.552 30.377 123.028 30.0394 123.36 29.3643C123.692 28.6891 123.858 27.6958 123.858 26.3843C123.858 25.0728 123.692 24.0794 123.36 23.4043C123.028 22.7292 122.552 22.3916 121.933 22.3916C121.313 22.3916 120.837 22.7292 120.505 23.4043C120.173 24.0794 120.007 25.0728 120.007 26.3843C120.007 27.6958 120.173 28.6891 120.505 29.3643C120.837 30.0394 121.313 30.377 121.933 30.377ZM129.71 33V30.1362H131.039V22.6489H129.71V19.7852H137.339C138.988 19.7852 140.255 20.0951 141.141 20.7148C142.026 21.3291 142.469 22.2311 142.469 23.4209C142.469 24.1901 142.278 24.8293 141.896 25.3384C141.514 25.8475 140.997 26.21 140.344 26.4258C140.864 26.5973 141.249 26.8657 141.498 27.231C141.752 27.5962 141.885 28.0417 141.896 28.5674L141.913 29.2563C141.924 29.5496 141.987 29.771 142.104 29.9204C142.225 30.0643 142.43 30.1362 142.718 30.1362H143.598V33H140.709C139.652 33 138.869 32.7565 138.36 32.2695C137.856 31.777 137.599 31.0576 137.588 30.1113L137.571 29.0073C137.555 28.1219 137.145 27.6792 136.343 27.6792H135.255V30.1362H136.376V33H129.71ZM136.542 22.5659H135.255V25.3716H136.542C137.604 25.3716 138.136 24.904 138.136 23.9688C138.136 23.0335 137.604 22.5659 136.542 22.5659ZM143.838 33V30.1362H145.042L147.524 22.6489H145.739V19.7852H153.94L157.045 30.1362H158.249V33H150.803V30.1362H152.172L151.791 28.6836H148.371L147.939 30.1362H149.309V33H143.838ZM148.985 26.6084H151.243L150.188 22.5742L148.985 26.6084ZM166.624 33.2407C165.014 33.2407 163.622 32.9502 162.449 32.3691C161.281 31.7881 160.379 30.9635 159.743 29.8955C159.106 28.8275 158.788 27.563 158.788 26.1021C158.788 24.7905 159.043 23.645 159.552 22.6655C160.066 21.6805 160.783 20.9141 161.702 20.3662C162.626 19.8184 163.702 19.5444 164.931 19.5444C165.855 19.5444 166.635 19.6745 167.271 19.9346C167.913 20.1947 168.436 20.5793 168.84 21.0884L169.264 19.7852H171.546V24.5913H168.475C168.37 23.8498 168.143 23.313 167.794 22.981C167.446 22.6434 166.948 22.4746 166.3 22.4746C165.786 22.4746 165.315 22.6047 164.889 22.8647C164.463 23.1193 164.123 23.515 163.868 24.0518C163.614 24.583 163.486 25.2637 163.486 26.0938C163.486 27.3278 163.78 28.2713 164.366 28.9243C164.958 29.5773 165.799 29.9038 166.89 29.9038C167.343 29.9038 167.745 29.8457 168.093 29.7295V28.3848H166.516V25.8945H171.829V32.0703C171.408 32.2972 170.91 32.4992 170.334 32.6763C169.759 32.8534 169.153 32.9917 168.517 33.0913C167.88 33.1909 167.249 33.2407 166.624 33.2407ZM179.988 33.2407C178.621 33.2407 177.44 32.9668 176.444 32.4189C175.453 31.8656 174.69 31.077 174.153 30.0532C173.616 29.0295 173.348 27.8148 173.348 26.4092C173.348 24.9925 173.616 23.7723 174.153 22.7485C174.69 21.7192 175.453 20.9279 176.444 20.3745C177.44 19.8211 178.621 19.5444 179.988 19.5444C181.361 19.5444 182.542 19.8211 183.533 20.3745C184.523 20.9279 185.287 21.7192 185.824 22.7485C186.361 23.7723 186.629 24.9925 186.629 26.4092C186.629 27.8148 186.361 29.0295 185.824 30.0532C185.287 31.077 184.523 31.8656 183.533 32.4189C182.542 32.9668 181.361 33.2407 179.988 33.2407ZM179.988 30.377C180.608 30.377 181.084 30.0394 181.416 29.3643C181.748 28.6891 181.914 27.6958 181.914 26.3843C181.914 25.0728 181.748 24.0794 181.416 23.4043C181.084 22.7292 180.608 22.3916 179.988 22.3916C179.368 22.3916 178.893 22.7292 178.561 23.4043C178.229 24.0794 178.062 25.0728 178.062 26.3843C178.062 27.6958 178.229 28.6891 178.561 29.3643C178.893 30.0394 179.368 30.377 179.988 30.377ZM196.341 33.0083L191.8 25.4463V30.1362H193.128V33H187.766V30.1362H189.094V22.6489H187.766V19.7852H193.701L198.258 27.3472V22.6489H196.93V19.7852H202.292V22.6489H200.964V33L196.341 33.0083Z" fill="#EB696F"/>
<path d="M61.6807 70V67.6416H62.7744V61.4756H61.6807V59.1172H67.1699V61.4756H66.2471V63.3896H69.1182V61.4756H68.1953V59.1172H73.6846V61.4756H72.5908V67.6416H73.6846V70H68.1953V67.6416H69.1182V65.6318H66.2471V67.6416H67.1699V70H61.6807ZM74.2178 70V67.6416H75.209L77.2529 61.4756H75.7832V59.1172H82.5371L85.0938 67.6416H86.085V70H79.9531V67.6416H81.0811L80.7666 66.4453H77.9502L77.5947 67.6416H78.7227V70H74.2178ZM78.4561 64.7363H80.3154L79.4473 61.4141L78.4561 64.7363ZM93.7344 70.0068L89.9951 63.7793V67.6416H91.0889V70H86.6729V67.6416H87.7666V61.4756H86.6729V59.1172H91.5605L95.3135 65.3447V61.4756H94.2197V59.1172H98.6357V61.4756H97.542V70L93.7344 70.0068ZM99.4424 70V67.6416H100.536V61.4756H99.4424V59.1172H104.405C106.424 59.1172 107.96 59.582 109.013 60.5117C110.065 61.4368 110.592 62.7904 110.592 64.5723C110.592 66.3496 110.068 67.6986 109.02 68.6191C107.971 69.5397 106.431 70 104.398 70H99.4424ZM104.091 67.71H104.467C105.269 67.71 105.843 67.4684 106.189 66.9854C106.536 66.4977 106.709 65.6865 106.709 64.5518C106.709 63.4215 106.536 62.6149 106.189 62.1318C105.843 61.6488 105.269 61.4072 104.467 61.4072H104.091V67.71ZM117.564 70.1982C116.329 70.1982 115.258 69.9613 114.352 69.4873C113.449 69.0133 112.752 68.3366 112.26 67.457C111.768 66.5775 111.521 65.5316 111.521 64.3193C111.521 63.4489 111.649 62.6787 111.904 62.0088C112.164 61.3389 112.52 60.7738 112.971 60.3135C113.426 59.8532 113.948 59.5068 114.536 59.2744C115.124 59.0374 115.748 58.9189 116.409 58.9189C117.102 58.9189 117.701 59.0283 118.207 59.2471C118.713 59.4658 119.13 59.7848 119.458 60.2041L119.807 59.1172H121.687V63.6426H119.191C119.155 62.7676 118.982 62.1637 118.672 61.8311C118.367 61.4984 117.965 61.332 117.469 61.332C117.104 61.332 116.762 61.4346 116.443 61.6396C116.129 61.8447 115.874 62.1592 115.678 62.583C115.486 63.0068 115.391 63.5492 115.391 64.21C115.391 65.1852 115.644 65.9326 116.149 66.4521C116.66 66.9671 117.375 67.2246 118.296 67.2246C118.838 67.2246 119.369 67.1335 119.889 66.9512C120.408 66.7689 120.891 66.4886 121.338 66.1104L121.522 66.1924V69.0771C120.994 69.4645 120.369 69.7493 119.649 69.9316C118.934 70.1094 118.239 70.1982 117.564 70.1982ZM122.753 70V67.6416H123.847V61.4756H122.753V59.1172H129.035C130.393 59.1172 131.437 59.3724 132.166 59.8828C132.895 60.3887 133.26 61.1315 133.26 62.1113C133.26 62.7448 133.103 63.2712 132.788 63.6904C132.474 64.1097 132.048 64.4082 131.51 64.5859C131.938 64.7272 132.255 64.9482 132.46 65.249C132.67 65.5498 132.779 65.9167 132.788 66.3496L132.802 66.917C132.811 67.1585 132.863 67.3408 132.959 67.4639C133.059 67.5824 133.228 67.6416 133.465 67.6416H134.189V70H131.811C130.94 70 130.295 69.7995 129.876 69.3984C129.461 68.9928 129.249 68.4004 129.24 67.6211L129.227 66.7119C129.213 65.9827 128.876 65.6182 128.215 65.6182H127.319V67.6416H128.242V70H122.753ZM128.379 61.4072H127.319V63.7178H128.379C129.254 63.7178 129.691 63.3327 129.691 62.5625C129.691 61.7923 129.254 61.4072 128.379 61.4072ZM134.388 70V67.6416H135.379L137.423 61.4756H135.953V59.1172H142.707L145.264 67.6416H146.255V70H140.123V67.6416H141.251L140.937 66.4453H138.12L137.765 67.6416H138.893V70H134.388ZM138.626 64.7363H140.485L139.617 61.4141L138.626 64.7363ZM146.843 70V67.6416H147.937V61.4756H146.843V59.1172H156.386V63.6426H154.13L153.891 61.4414H151.409V63.2871H153.187V65.6113H151.409V67.6416H153.392V70H146.843ZM158.99 70V67.6416H160.973V61.3389H159.749L159.476 63.6426H157.22V59.1172H168.28V63.6426H166.024L165.751 61.3389H164.527V67.6416H166.51V70H158.99ZM169.032 70V67.6416H170.126V61.4756H169.032V59.1172H178.712V63.4443H176.456L176.217 61.4414H173.599V63.2871H175.444V65.6113H173.599V67.6758H176.217L176.456 65.3721H178.712V70H169.032ZM179.915 70V67.6416H181.009V61.4756H179.915V59.1172H184.878C186.897 59.1172 188.433 59.582 189.485 60.5117C190.538 61.4368 191.064 62.7904 191.064 64.5723C191.064 66.3496 190.54 67.6986 189.492 68.6191C188.444 69.5397 186.904 70 184.871 70H179.915ZM184.563 67.71H184.939C185.742 67.71 186.316 67.4684 186.662 66.9854C187.008 66.4977 187.182 65.6865 187.182 64.5518C187.182 63.4215 187.008 62.6149 186.662 62.1318C186.316 61.6488 185.742 61.4072 184.939 61.4072H184.563V67.71ZM194.886 70V67.6416H195.979V61.4756H194.886V59.1172H200.785C202.243 59.1172 203.344 59.3678 204.087 59.8691C204.834 60.3704 205.208 61.1178 205.208 62.1113C205.208 62.6354 205.078 63.1003 204.818 63.5059C204.563 63.9115 204.192 64.2214 203.704 64.4355C204.228 64.6452 204.641 64.9619 204.941 65.3857C205.242 65.805 205.393 66.3086 205.393 66.8965C205.393 67.8945 205.028 68.6624 204.299 69.2002C203.57 69.7334 202.526 70 201.168 70H194.886ZM200.368 61.4072H199.452V63.499H200.368C201.216 63.499 201.64 63.1504 201.64 62.4531C201.64 61.7559 201.216 61.4072 200.368 61.4072ZM199.452 67.71H200.512C201.387 67.71 201.824 67.3249 201.824 66.5547C201.824 65.7845 201.387 65.3994 200.512 65.3994H199.452V67.71ZM206.315 70V67.6416H207.409V61.4756H206.315V59.1172H215.995V63.4443H213.739L213.5 61.4414H210.882V63.2871H212.728V65.6113H210.882V67.6758H213.5L213.739 65.3721H215.995V70H206.315ZM217.267 70V67.6416H218.36V61.4756H217.267V59.1172H226.946V63.4443H224.69L224.451 61.4414H221.833V63.2871H223.679V65.6113H221.833V67.6758H224.451L224.69 65.3721H226.946V70H217.267ZM228.218 70V67.6416H229.312V61.4756H228.218V59.1172H234.5C235.858 59.1172 236.902 59.3724 237.631 59.8828C238.36 60.3887 238.725 61.1315 238.725 62.1113C238.725 62.7448 238.567 63.2712 238.253 63.6904C237.938 64.1097 237.512 64.4082 236.975 64.5859C237.403 64.7272 237.72 64.9482 237.925 65.249C238.134 65.5498 238.244 65.9167 238.253 66.3496L238.267 66.917C238.276 67.1585 238.328 67.3408 238.424 67.4639C238.524 67.5824 238.693 67.6416 238.93 67.6416H239.654V70H237.275C236.405 70 235.76 69.7995 235.341 69.3984C234.926 68.9928 234.714 68.4004 234.705 67.6211L234.691 66.7119C234.678 65.9827 234.34 65.6182 233.68 65.6182H232.784V67.6416H233.707V70H228.218ZM233.844 61.4072H232.784V63.7178H233.844C234.719 63.7178 235.156 63.3327 235.156 62.5625C235.156 61.7923 234.719 61.4072 233.844 61.4072Z" fill="#5A5A5A"/>
<path d="M132.243 285.927L129.839 281.924V284.407H130.542V285.923H127.704V284.407H128.407V280.443H127.704V278.927H130.846L133.258 282.93V280.443H132.555V278.927H135.394V280.443H134.691V285.923L132.243 285.927ZM139.468 286.051C138.744 286.051 138.119 285.906 137.591 285.615C137.067 285.323 136.663 284.905 136.378 284.363C136.094 283.821 135.952 283.178 135.952 282.434C135.952 281.684 136.094 281.038 136.378 280.496C136.663 279.951 137.067 279.532 137.591 279.239C138.119 278.946 138.744 278.8 139.468 278.8C140.194 278.8 140.82 278.946 141.344 279.239C141.869 279.532 142.273 279.951 142.557 280.496C142.841 281.038 142.983 281.684 142.983 282.434C142.983 283.178 142.841 283.821 142.557 284.363C142.273 284.905 141.869 285.323 141.344 285.615C140.82 285.906 140.194 286.051 139.468 286.051ZM139.468 284.534C139.796 284.534 140.048 284.356 140.224 283.998C140.399 283.641 140.487 283.115 140.487 282.421C140.487 281.726 140.399 281.2 140.224 280.843C140.048 280.486 139.796 280.307 139.468 280.307C139.14 280.307 138.888 280.486 138.712 280.843C138.536 281.2 138.448 281.726 138.448 282.421C138.448 283.115 138.536 283.641 138.712 283.998C138.888 284.356 139.14 284.534 139.468 284.534ZM145.532 285.923L143.801 280.443H143.164V278.927H147.114V280.443H146.389L147.51 284.367L148.63 280.443H147.905V278.927H150.828V280.443H150.19L148.463 285.923H145.532ZM153.17 285.923V284.671C154.028 284.337 154.689 283.944 155.152 283.493C155.618 283.042 155.851 282.569 155.851 282.073C155.851 281.795 155.792 281.573 155.675 281.406C155.558 281.239 155.382 281.155 155.147 281.155C154.904 281.155 154.718 281.237 154.589 281.401C154.463 281.562 154.4 281.772 154.4 282.03C154.4 282.173 154.418 282.305 154.453 282.425C154.491 282.545 154.55 282.678 154.629 282.825L153.508 283.269C153.365 283.125 153.249 282.935 153.161 282.698C153.073 282.46 153.029 282.21 153.029 281.946C153.029 281.501 153.139 281.126 153.359 280.821C153.582 280.516 153.88 280.286 154.255 280.131C154.633 279.973 155.057 279.894 155.525 279.894C156.009 279.894 156.431 279.971 156.791 280.127C157.154 280.279 157.436 280.503 157.635 280.799C157.837 281.095 157.938 281.454 157.938 281.876C157.938 282.391 157.752 282.869 157.38 283.308C157.011 283.748 156.454 284.114 155.71 284.407H158.083L158.105 285.923H153.17ZM161.339 286.037C160.78 286.037 160.296 285.914 159.889 285.668C159.482 285.419 159.168 285.066 158.949 284.609C158.729 284.152 158.619 283.607 158.619 282.974C158.619 282.339 158.729 281.791 158.949 281.331C159.168 280.871 159.48 280.516 159.885 280.267C160.292 280.018 160.777 279.894 161.339 279.894C161.902 279.894 162.387 280.018 162.794 280.267C163.201 280.516 163.513 280.871 163.73 281.331C163.95 281.791 164.06 282.339 164.06 282.974C164.06 283.607 163.95 284.152 163.73 284.609C163.51 285.066 163.197 285.419 162.79 285.668C162.385 285.914 161.902 286.037 161.339 286.037ZM161.339 284.631C161.823 284.631 162.064 284.074 162.064 282.961C162.064 281.848 161.823 281.291 161.339 281.291C160.856 281.291 160.614 281.848 160.614 282.961C160.614 284.074 160.856 284.631 161.339 284.631ZM164.807 285.923V284.671C165.665 284.337 166.326 283.944 166.789 283.493C167.254 283.042 167.487 282.569 167.487 282.073C167.487 281.795 167.429 281.573 167.312 281.406C167.194 281.239 167.019 281.155 166.784 281.155C166.541 281.155 166.355 281.237 166.226 281.401C166.1 281.562 166.037 281.772 166.037 282.03C166.037 282.173 166.055 282.305 166.09 282.425C166.128 282.545 166.187 282.678 166.266 282.825L165.145 283.269C165.001 283.125 164.886 282.935 164.798 282.698C164.71 282.46 164.666 282.21 164.666 281.946C164.666 281.501 164.776 281.126 164.996 280.821C165.218 280.516 165.517 280.286 165.892 280.131C166.27 279.973 166.693 279.894 167.162 279.894C167.646 279.894 168.067 279.971 168.428 280.127C168.791 280.279 169.072 280.503 169.271 280.799C169.474 281.095 169.575 281.454 169.575 281.876C169.575 282.391 169.389 282.869 169.017 283.308C168.647 283.748 168.091 284.114 167.347 284.407H169.72L169.742 285.923H164.807ZM172.449 286.046C172.191 286.046 171.929 286.026 171.662 285.985C171.396 285.944 171.148 285.886 170.919 285.813C170.691 285.737 170.502 285.651 170.353 285.554V284.236L170.471 284.183C170.659 284.323 170.889 284.441 171.161 284.534C171.434 284.628 171.76 284.675 172.141 284.675C172.434 284.675 172.685 284.628 172.893 284.534C173.101 284.438 173.205 284.274 173.205 284.042C173.205 283.808 173.101 283.642 172.893 283.546C172.688 283.449 172.446 283.401 172.167 283.401C172.065 283.401 171.948 283.408 171.816 283.423C171.684 283.434 171.555 283.456 171.429 283.489L171.311 283.436V282.759L172.972 281.498H170.348V279.982H175.055V281.19L173.459 282.39C174.028 282.466 174.475 282.646 174.8 282.93C175.128 283.212 175.292 283.595 175.292 284.082C175.292 284.682 175.049 285.16 174.562 285.514C174.079 285.869 173.375 286.046 172.449 286.046Z" fill="#5A5A5A"/>
<path d="M124.521 253.231L126.079 250.222H125.142L125.068 250.896L124.277 250.893V249.27H127.714V250.105L126.19 253.231H124.521ZM128.411 253.31C128.163 253.31 127.964 253.242 127.814 253.108C127.663 252.973 127.588 252.791 127.588 252.563C127.588 252.336 127.663 252.157 127.814 252.027C127.964 251.896 128.163 251.83 128.411 251.83C128.661 251.83 128.86 251.896 129.009 252.027C129.159 252.157 129.234 252.336 129.234 252.563C129.234 252.791 129.159 252.973 129.009 253.108C128.858 253.242 128.659 253.31 128.411 253.31ZM131.35 253.313C130.77 253.313 130.318 253.207 129.996 252.996C129.674 252.783 129.513 252.495 129.513 252.132C129.513 251.915 129.566 251.732 129.674 251.581C129.781 251.429 129.935 251.308 130.134 251.218C129.837 251.032 129.689 250.757 129.689 250.392C129.689 250.152 129.756 249.944 129.891 249.768C130.027 249.59 130.22 249.453 130.468 249.358C130.718 249.26 131.012 249.211 131.35 249.211C131.688 249.211 131.981 249.26 132.229 249.358C132.479 249.453 132.671 249.59 132.806 249.768C132.942 249.944 133.011 250.152 133.011 250.392C133.011 250.757 132.862 251.032 132.565 251.218C132.765 251.308 132.918 251.429 133.025 251.581C133.133 251.732 133.187 251.915 133.187 252.132C133.187 252.495 133.025 252.783 132.703 252.996C132.381 253.207 131.93 253.313 131.35 253.313ZM131.35 250.951C131.482 250.951 131.59 250.908 131.672 250.823C131.754 250.737 131.795 250.623 131.795 250.483C131.795 250.342 131.754 250.229 131.672 250.143C131.59 250.057 131.482 250.014 131.35 250.014C131.217 250.014 131.109 250.057 131.027 250.143C130.945 250.229 130.904 250.342 130.904 250.483C130.904 250.623 130.945 250.737 131.027 250.823C131.109 250.908 131.217 250.951 131.35 250.951ZM131.35 252.51C131.529 252.51 131.673 252.468 131.78 252.384C131.888 252.298 131.941 252.184 131.941 252.041C131.941 251.901 131.887 251.787 131.777 251.701C131.67 251.615 131.527 251.573 131.35 251.573C131.172 251.573 131.028 251.615 130.919 251.701C130.812 251.787 130.758 251.901 130.758 252.041C130.758 252.184 130.812 252.298 130.919 252.384C131.028 252.468 131.172 252.51 131.35 252.51ZM135.853 251.449C135.626 251.449 135.429 251.402 135.261 251.306C135.095 251.21 134.966 251.078 134.874 250.91C134.784 250.74 134.739 250.548 134.739 250.333C134.739 250.116 134.784 249.924 134.874 249.756C134.966 249.586 135.095 249.453 135.261 249.358C135.429 249.26 135.626 249.211 135.853 249.211C136.079 249.211 136.275 249.26 136.441 249.358C136.609 249.453 136.738 249.586 136.828 249.756C136.92 249.924 136.966 250.116 136.966 250.333C136.966 250.548 136.92 250.74 136.828 250.91C136.738 251.078 136.609 251.21 136.441 251.306C136.275 251.402 136.079 251.449 135.853 251.449ZM135.656 253.231L138.041 249.27H138.979L136.594 253.231H135.656ZM135.853 250.828C135.925 250.828 135.982 250.785 136.023 250.699C136.065 250.612 136.087 250.488 136.087 250.327C136.087 250.167 136.065 250.045 136.023 249.961C135.982 249.875 135.925 249.832 135.853 249.832C135.78 249.832 135.723 249.875 135.68 249.961C135.639 250.045 135.618 250.167 135.618 250.327C135.618 250.488 135.639 250.612 135.68 250.699C135.723 250.785 135.78 250.828 135.853 250.828ZM138.782 253.307C138.556 253.307 138.358 253.259 138.19 253.163C138.024 253.068 137.896 252.936 137.804 252.768C137.714 252.6 137.669 252.407 137.669 252.191C137.669 251.974 137.714 251.781 137.804 251.614C137.896 251.444 138.024 251.311 138.19 251.215C138.358 251.117 138.556 251.069 138.782 251.069C139.009 251.069 139.205 251.117 139.371 251.215C139.539 251.311 139.668 251.444 139.758 251.614C139.85 251.781 139.896 251.974 139.896 252.191C139.896 252.407 139.85 252.6 139.758 252.768C139.668 252.936 139.539 253.068 139.371 253.163C139.205 253.259 139.009 253.307 138.782 253.307ZM138.782 252.686C138.855 252.686 138.911 252.643 138.952 252.557C138.995 252.469 139.017 252.345 139.017 252.185C139.017 252.025 138.995 251.903 138.952 251.819C138.911 251.733 138.855 251.69 138.782 251.69C138.71 251.69 138.652 251.733 138.609 251.819C138.568 251.903 138.548 252.025 138.548 252.185C138.548 252.345 138.568 252.469 138.609 252.557C138.652 252.643 138.71 252.686 138.782 252.686ZM141.299 253.231V252.22H141.724L142.6 249.577H141.97V248.567H144.864L145.96 252.22H146.385V253.231H143.757V252.22H144.24L144.106 251.707H142.898L142.746 252.22H143.23V253.231H141.299ZM143.115 250.975H143.912L143.54 249.551L143.115 250.975ZM146.637 253.231V252.22H147.106V249.577H146.637V248.567H149.273V249.577H148.629V252.235H149.584L149.701 251.142H150.668V253.231H146.637ZM153.577 253.316C153.048 253.316 152.589 253.214 152.2 253.011C151.814 252.808 151.515 252.518 151.304 252.141C151.093 251.764 150.987 251.316 150.987 250.796C150.987 250.423 151.042 250.093 151.151 249.806C151.263 249.519 151.415 249.277 151.608 249.079C151.804 248.882 152.027 248.734 152.279 248.634C152.531 248.532 152.799 248.482 153.082 248.482C153.379 248.482 153.636 248.529 153.853 248.622C154.069 248.716 154.248 248.853 154.389 249.032L154.538 248.567H155.344V250.506H154.274C154.259 250.131 154.185 249.872 154.052 249.73C153.921 249.587 153.749 249.516 153.536 249.516C153.38 249.516 153.233 249.56 153.097 249.648C152.962 249.736 152.853 249.87 152.769 250.052C152.687 250.234 152.646 250.466 152.646 250.749C152.646 251.167 152.754 251.488 152.971 251.71C153.19 251.931 153.496 252.041 153.891 252.041C154.123 252.041 154.351 252.002 154.573 251.924C154.796 251.846 155.003 251.726 155.194 251.564L155.273 251.599V252.835C155.047 253.001 154.779 253.123 154.471 253.201C154.164 253.278 153.866 253.316 153.577 253.316ZM156.524 253.31C156.276 253.31 156.077 253.242 155.927 253.108C155.776 252.973 155.701 252.791 155.701 252.563C155.701 252.336 155.776 252.157 155.927 252.027C156.077 251.896 156.276 251.83 156.524 251.83C156.774 251.83 156.974 251.896 157.122 252.027C157.273 252.157 157.348 252.336 157.348 252.563C157.348 252.791 157.273 252.973 157.122 253.108C156.972 253.242 156.773 253.31 156.524 253.31ZM158.731 253.231L159.73 248.567H161.165L160.166 253.231H158.731ZM164.083 253.231L162.929 249.577H162.504V248.567H165.138V249.577H164.654L165.401 252.194L166.148 249.577H165.665V248.567H167.613V249.577H167.189L166.037 253.231H164.083ZM170.077 253.316C169.595 253.316 169.178 253.219 168.826 253.026C168.477 252.83 168.207 252.552 168.018 252.191C167.828 251.829 167.733 251.401 167.733 250.905C167.733 250.405 167.828 249.974 168.018 249.613C168.207 249.249 168.477 248.97 168.826 248.775C169.178 248.579 169.595 248.482 170.077 248.482C170.562 248.482 170.979 248.579 171.328 248.775C171.678 248.97 171.947 249.249 172.137 249.613C172.326 249.974 172.421 250.405 172.421 250.905C172.421 251.401 172.326 251.829 172.137 252.191C171.947 252.552 171.678 252.83 171.328 253.026C170.979 253.219 170.562 253.316 170.077 253.316ZM170.077 252.305C170.296 252.305 170.464 252.186 170.581 251.948C170.698 251.709 170.757 251.359 170.757 250.896C170.757 250.433 170.698 250.082 170.581 249.844C170.464 249.606 170.296 249.487 170.077 249.487C169.858 249.487 169.69 249.606 169.573 249.844C169.456 250.082 169.398 250.433 169.398 250.896C169.398 251.359 169.456 251.709 169.573 251.948C169.69 252.186 169.858 252.305 170.077 252.305ZM172.822 253.231V252.22H173.291V249.577H172.822V248.567H175.459V249.577H174.815V252.235H175.77L175.887 251.142H176.854V253.231H172.822ZM177.958 253.31C177.71 253.31 177.511 253.242 177.36 253.108C177.21 252.973 177.135 252.791 177.135 252.563C177.135 252.336 177.21 252.157 177.36 252.027C177.511 251.896 177.71 251.83 177.958 251.83C178.208 251.83 178.407 251.896 178.556 252.027C178.706 252.157 178.781 252.336 178.781 252.563C178.781 252.791 178.706 252.973 178.556 253.108C178.405 253.242 178.206 253.31 177.958 253.31ZM129.331 263.231V262.293H129.888V260.565H129.273V259.706L131.279 259.211V262.293H131.733V263.231H129.331ZM132.173 263.231V262.396C132.745 262.173 133.186 261.911 133.494 261.611C133.805 261.31 133.96 260.994 133.96 260.664C133.96 260.479 133.921 260.33 133.843 260.219C133.765 260.108 133.648 260.052 133.491 260.052C133.329 260.052 133.205 260.107 133.119 260.216C133.035 260.323 132.993 260.463 132.993 260.635C132.993 260.731 133.005 260.819 133.028 260.899C133.054 260.979 133.093 261.068 133.146 261.165L132.398 261.461C132.303 261.365 132.226 261.239 132.167 261.08C132.108 260.922 132.079 260.755 132.079 260.579C132.079 260.282 132.152 260.032 132.299 259.829C132.447 259.626 132.647 259.473 132.897 259.369C133.148 259.264 133.431 259.211 133.743 259.211C134.065 259.211 134.347 259.263 134.587 259.366C134.829 259.468 135.017 259.617 135.149 259.815C135.284 260.012 135.352 260.251 135.352 260.532C135.352 260.876 135.228 261.195 134.98 261.488C134.733 261.781 134.362 262.025 133.866 262.22H135.448L135.463 263.231H132.173ZM137.016 263.231V262.22H137.484V259.577H137.016V258.567H141.106V260.506H140.139L140.036 259.563H138.973V260.354H139.734V261.35H138.973V262.22H139.822V263.231H137.016ZM141.398 263.231V262.22H141.867V259.577H141.398V258.567H144.035V259.577H143.391V262.235H144.346L144.463 261.142H145.43V263.231H141.398ZM146.534 263.31C146.286 263.31 146.087 263.242 145.937 263.108C145.786 262.973 145.711 262.791 145.711 262.563C145.711 262.336 145.786 262.157 145.937 262.027C146.087 261.896 146.286 261.83 146.534 261.83C146.784 261.83 146.983 261.896 147.132 262.027C147.282 262.157 147.357 262.336 147.357 262.563C147.357 262.791 147.282 262.973 147.132 263.108C146.982 263.242 146.782 263.31 146.534 263.31ZM151.239 263.316C150.757 263.316 150.34 263.219 149.988 263.026C149.639 262.83 149.369 262.552 149.18 262.191C148.99 261.829 148.896 261.401 148.896 260.905C148.896 260.405 148.99 259.974 149.18 259.613C149.369 259.249 149.639 258.97 149.988 258.775C150.34 258.579 150.757 258.482 151.239 258.482C151.724 258.482 152.141 258.579 152.49 258.775C152.84 258.97 153.109 259.249 153.299 259.613C153.488 259.974 153.583 260.405 153.583 260.905C153.583 261.401 153.488 261.829 153.299 262.191C153.109 262.552 152.84 262.83 152.49 263.026C152.141 263.219 151.724 263.316 151.239 263.316ZM151.239 262.305C151.458 262.305 151.626 262.186 151.743 261.948C151.86 261.709 151.919 261.359 151.919 260.896C151.919 260.433 151.86 260.082 151.743 259.844C151.626 259.606 151.458 259.487 151.239 259.487C151.021 259.487 150.853 259.606 150.735 259.844C150.618 260.082 150.56 260.433 150.56 260.896C150.56 261.359 150.618 261.709 150.735 261.948C150.853 262.186 151.021 262.305 151.239 262.305ZM156.422 263.316C155.764 263.316 155.253 263.15 154.89 262.818C154.528 262.486 154.348 261.954 154.348 261.224V259.577H153.879V258.567H156.355V259.577H155.871V261.227C155.871 261.844 156.127 262.153 156.639 262.153C156.883 262.153 157.065 262.073 157.184 261.912C157.305 261.752 157.365 261.524 157.365 261.227V259.577H156.882V258.567H158.813V259.577H158.344V261.341C158.344 262.657 157.703 263.316 156.422 263.316ZM162.167 263.234L160.565 260.565V262.22H161.033V263.231H159.141V262.22H159.609V259.577H159.141V258.567H161.235L162.844 261.236V259.577H162.375V258.567H164.268V259.577H163.799V263.231L162.167 263.234ZM167.23 263.316C166.7 263.316 166.241 263.214 165.853 263.011C165.466 262.808 165.167 262.518 164.956 262.141C164.745 261.764 164.64 261.316 164.64 260.796C164.64 260.423 164.694 260.093 164.804 259.806C164.915 259.519 165.067 259.277 165.261 259.079C165.456 258.882 165.68 258.734 165.932 258.634C166.184 258.532 166.451 258.482 166.734 258.482C167.031 258.482 167.288 258.529 167.505 258.622C167.722 258.716 167.9 258.853 168.041 259.032L168.19 258.567H168.996V260.506H167.927C167.911 260.131 167.837 259.872 167.704 259.73C167.573 259.587 167.401 259.516 167.189 259.516C167.032 259.516 166.886 259.56 166.749 259.648C166.614 259.736 166.505 259.87 166.421 260.052C166.339 260.234 166.298 260.466 166.298 260.749C166.298 261.167 166.406 261.488 166.623 261.71C166.842 261.931 167.148 262.041 167.543 262.041C167.775 262.041 168.003 262.002 168.226 261.924C168.448 261.846 168.655 261.726 168.847 261.564L168.926 261.599V262.835C168.699 263.001 168.432 263.123 168.123 263.201C167.816 263.278 167.519 263.316 167.23 263.316ZM169.453 263.231V262.22H169.922V259.577H169.453V258.567H173.602V260.421H172.635L172.532 259.563H171.41V260.354H172.201V261.35H171.41V262.235H172.532L172.635 261.247H173.602V263.231H169.453Z" fill="#5A5A5A"/>
<rect x="61" y="89" width="180" height="140.782" rx="10" fill="#C9A434" fill-opacity="0.4"/>
<path d="M126.076 163V160.642H127.238V154.476H126.076V152.117H131.955V154.476H130.793V160.642H131.955V163H126.076ZM129.016 151.447C128.41 151.447 127.936 151.315 127.594 151.051C127.252 150.782 127.081 150.413 127.081 149.943C127.081 149.469 127.252 149.1 127.594 148.836C127.936 148.572 128.41 148.439 129.016 148.439C129.626 148.439 130.1 148.572 130.438 148.836C130.779 149.1 130.95 149.469 130.95 149.943C130.95 150.413 130.779 150.782 130.438 151.051C130.1 151.315 129.626 151.447 129.016 151.447ZM132.762 163V160.642H133.855V154.476H132.762V152.117H138.306L140.609 158.064L142.988 152.117H147.999V154.476H146.905V160.642H147.999V163H142.51V160.642H143.467V156.116L140.746 163H138.805L136.084 156.116V160.642H137.041V163H132.762ZM148.539 163V160.642H149.53L151.574 154.476H150.104V152.117H156.858L159.415 160.642H160.406V163H154.274V160.642H155.402L155.088 159.445H152.271L151.916 160.642H153.044V163H148.539ZM152.777 157.736H154.637L153.769 154.414L152.777 157.736ZM167.304 163.198C165.978 163.198 164.831 162.959 163.865 162.48C162.904 162.002 162.161 161.323 161.637 160.443C161.113 159.564 160.851 158.522 160.851 157.319C160.851 156.239 161.06 155.296 161.479 154.489C161.903 153.678 162.493 153.047 163.25 152.596C164.011 152.145 164.897 151.919 165.909 151.919C166.67 151.919 167.313 152.026 167.837 152.24C168.366 152.454 168.796 152.771 169.129 153.19L169.478 152.117H171.357V156.075H168.828C168.742 155.465 168.555 155.022 168.268 154.749C167.98 154.471 167.57 154.332 167.037 154.332C166.613 154.332 166.226 154.439 165.875 154.653C165.524 154.863 165.244 155.189 165.034 155.631C164.825 156.068 164.72 156.629 164.72 157.312C164.72 158.329 164.961 159.106 165.444 159.644C165.932 160.181 166.625 160.45 167.522 160.45C167.896 160.45 168.227 160.402 168.514 160.307V159.199H167.215V157.148H171.59V162.234C171.243 162.421 170.833 162.588 170.359 162.733C169.885 162.879 169.386 162.993 168.862 163.075C168.338 163.157 167.819 163.198 167.304 163.198ZM172.779 163V160.642H173.873V154.476H172.779V152.117H182.459V156.444H180.203L179.964 154.441H177.346V156.287H179.191V158.611H177.346V160.676H179.964L180.203 158.372H182.459V163H172.779Z" fill="black"/>
<rect x="1" y="1" width="300" height="300" rx="40" stroke="black" stroke-width="2"/>
</svg>
