<svg width="300" height="304" viewBox="0 0 300 304" fill="none" xmlns="http://www.w3.org/2000/svg">
<rect x="45" y="1" width="217" height="302" rx="39" fill="#FFFCF4" stroke="black" stroke-width="2"/>
<path d="M46 40C46 19.0132 63.0132 2 84 2H223C243.987 2 261 19.0132 261 40V160H46V40Z" fill="url(#paint0_radial_367_1839)"/>
<path d="M205.022 147.003L203.153 143.89V145.821H203.7V147H201.492V145.821H202.039V142.738H201.492V141.559H203.936L205.812 144.672V142.738H205.265V141.559H207.473V142.738H206.926V147L205.022 147.003ZM210.642 147.099C210.079 147.099 209.592 146.986 209.182 146.761C208.774 146.533 208.46 146.208 208.239 145.787C208.018 145.365 207.907 144.865 207.907 144.286C207.907 143.703 208.018 143.2 208.239 142.779C208.46 142.355 208.774 142.029 209.182 141.801C209.592 141.573 210.079 141.459 210.642 141.459C211.207 141.459 211.693 141.573 212.101 141.801C212.509 142.029 212.823 142.355 213.044 142.779C213.265 143.2 213.376 143.703 213.376 144.286C213.376 144.865 213.265 145.365 213.044 145.787C212.823 146.208 212.509 146.533 212.101 146.761C211.693 146.986 211.207 147.099 210.642 147.099ZM210.642 145.92C210.897 145.92 211.093 145.781 211.229 145.503C211.366 145.225 211.435 144.816 211.435 144.276C211.435 143.736 211.366 143.327 211.229 143.049C211.093 142.771 210.897 142.632 210.642 142.632C210.386 142.632 210.19 142.771 210.054 143.049C209.917 143.327 209.849 143.736 209.849 144.276C209.849 144.816 209.917 145.225 210.054 145.503C210.19 145.781 210.386 145.92 210.642 145.92ZM215.358 147L214.012 142.738H213.516V141.559H216.589V142.738H216.025L216.896 145.79L217.768 142.738H217.204V141.559H219.477V142.738H218.981L217.638 147H215.358ZM221.299 147V146.026C221.966 145.766 222.48 145.461 222.84 145.11C223.203 144.759 223.384 144.391 223.384 144.006C223.384 143.789 223.338 143.616 223.247 143.486C223.156 143.356 223.019 143.292 222.837 143.292C222.648 143.292 222.503 143.355 222.403 143.483C222.305 143.608 222.256 143.771 222.256 143.972C222.256 144.083 222.27 144.186 222.297 144.279C222.326 144.373 222.372 144.476 222.434 144.59L221.562 144.936C221.45 144.824 221.36 144.676 221.292 144.491C221.224 144.307 221.189 144.112 221.189 143.907C221.189 143.56 221.275 143.269 221.446 143.032C221.619 142.795 221.851 142.616 222.143 142.495C222.437 142.372 222.766 142.311 223.131 142.311C223.507 142.311 223.835 142.371 224.115 142.492C224.398 142.61 224.617 142.785 224.771 143.015C224.929 143.245 225.007 143.524 225.007 143.852C225.007 144.253 224.863 144.625 224.573 144.966C224.286 145.308 223.853 145.593 223.274 145.821H225.12L225.137 147H221.299ZM227.653 147.089C227.218 147.089 226.842 146.993 226.525 146.802C226.208 146.608 225.964 146.333 225.793 145.978C225.623 145.623 225.537 145.199 225.537 144.707C225.537 144.212 225.623 143.786 225.793 143.428C225.964 143.07 226.207 142.795 226.521 142.601C226.838 142.407 227.215 142.311 227.653 142.311C228.09 142.311 228.467 142.407 228.784 142.601C229.101 142.795 229.344 143.07 229.512 143.428C229.683 143.786 229.769 144.212 229.769 144.707C229.769 145.199 229.683 145.623 229.512 145.978C229.341 146.333 229.097 146.608 228.781 146.802C228.466 146.993 228.09 147.089 227.653 147.089ZM227.653 145.995C228.029 145.995 228.217 145.562 228.217 144.696C228.217 143.83 228.029 143.397 227.653 143.397C227.277 143.397 227.089 143.83 227.089 144.696C227.089 145.562 227.277 145.995 227.653 145.995ZM230.35 147V146.026C231.017 145.766 231.531 145.461 231.891 145.11C232.253 144.759 232.435 144.391 232.435 144.006C232.435 143.789 232.389 143.616 232.298 143.486C232.207 143.356 232.07 143.292 231.888 143.292C231.699 143.292 231.554 143.355 231.454 143.483C231.356 143.608 231.307 143.771 231.307 143.972C231.307 144.083 231.32 144.186 231.348 144.279C231.377 144.373 231.423 144.476 231.484 144.59L230.613 144.936C230.501 144.824 230.411 144.676 230.343 144.491C230.274 144.307 230.24 144.112 230.24 143.907C230.24 143.56 230.326 143.269 230.497 143.032C230.67 142.795 230.902 142.616 231.194 142.495C231.488 142.372 231.817 142.311 232.182 142.311C232.558 142.311 232.886 142.371 233.166 142.492C233.449 142.61 233.667 142.785 233.822 143.015C233.979 143.245 234.058 143.524 234.058 143.852C234.058 144.253 233.913 144.625 233.624 144.966C233.337 145.308 232.904 145.593 232.325 145.821H234.171L234.188 147H230.35ZM236.293 147.096C236.093 147.096 235.889 147.08 235.682 147.048C235.474 147.016 235.282 146.972 235.104 146.915C234.926 146.855 234.779 146.788 234.663 146.713V145.688L234.755 145.646C234.901 145.756 235.08 145.847 235.292 145.92C235.504 145.993 235.758 146.029 236.054 146.029C236.282 146.029 236.477 145.993 236.639 145.92C236.8 145.845 236.881 145.717 236.881 145.537C236.881 145.355 236.8 145.226 236.639 145.151C236.479 145.076 236.291 145.038 236.075 145.038C235.995 145.038 235.904 145.044 235.801 145.055C235.699 145.064 235.598 145.081 235.5 145.106L235.408 145.065V144.539L236.7 143.558H234.66V142.379H238.32V143.319L237.08 144.252C237.522 144.311 237.869 144.451 238.122 144.672C238.377 144.891 238.505 145.19 238.505 145.568C238.505 146.035 238.316 146.406 237.938 146.682C237.562 146.958 237.014 147.096 236.293 147.096Z" fill="white"/>
<path d="M69.5171 140L70.8159 137.493H70.0347L69.9736 138.054L69.3145 138.052V136.699H72.1782V137.395L70.9087 140H69.5171ZM72.7593 140.066C72.5526 140.066 72.3866 140.01 72.2612 139.897C72.1359 139.785 72.0732 139.634 72.0732 139.443C72.0732 139.255 72.1359 139.106 72.2612 138.997C72.3866 138.888 72.5526 138.833 72.7593 138.833C72.9676 138.833 73.1336 138.888 73.2573 138.997C73.3826 139.106 73.4453 139.255 73.4453 139.443C73.4453 139.634 73.3826 139.785 73.2573 139.897C73.132 140.01 72.966 140.066 72.7593 140.066ZM75.208 140.068C74.7246 140.068 74.3486 139.98 74.0801 139.805C73.8115 139.627 73.6772 139.387 73.6772 139.084C73.6772 138.904 73.722 138.751 73.8115 138.625C73.901 138.499 74.0288 138.398 74.1948 138.323C73.9474 138.168 73.8237 137.939 73.8237 137.634C73.8237 137.434 73.8799 137.261 73.9922 137.114C74.1061 136.966 74.2664 136.852 74.4731 136.772C74.6815 136.691 74.9264 136.65 75.208 136.65C75.4896 136.65 75.7337 136.691 75.9404 136.772C76.1488 136.852 76.3091 136.966 76.4214 137.114C76.5353 137.261 76.5923 137.434 76.5923 137.634C76.5923 137.939 76.4686 138.168 76.2212 138.323C76.3872 138.398 76.515 138.499 76.6045 138.625C76.694 138.751 76.7388 138.904 76.7388 139.084C76.7388 139.387 76.6045 139.627 76.3359 139.805C76.0674 139.98 75.6914 140.068 75.208 140.068ZM75.208 138.101C75.3187 138.101 75.4082 138.065 75.4766 137.993C75.5449 137.922 75.5791 137.827 75.5791 137.71C75.5791 137.593 75.5449 137.498 75.4766 137.427C75.4082 137.355 75.3187 137.319 75.208 137.319C75.0973 137.319 75.0078 137.355 74.9395 137.427C74.8711 137.498 74.8369 137.593 74.8369 137.71C74.8369 137.827 74.8711 137.922 74.9395 137.993C75.0078 138.065 75.0973 138.101 75.208 138.101ZM75.208 139.399C75.3577 139.399 75.4774 139.364 75.5669 139.294C75.6564 139.223 75.7012 139.128 75.7012 139.009C75.7012 138.892 75.6556 138.797 75.5645 138.726C75.4749 138.654 75.3561 138.618 75.208 138.618C75.0599 138.618 74.9403 138.654 74.8491 138.726C74.7596 138.797 74.7148 138.892 74.7148 139.009C74.7148 139.128 74.7596 139.223 74.8491 139.294C74.9403 139.364 75.0599 139.399 75.208 139.399ZM78.9604 138.516C78.7716 138.516 78.6073 138.476 78.4673 138.396C78.3289 138.316 78.2215 138.206 78.145 138.066C78.0701 137.925 78.0327 137.764 78.0327 137.585C78.0327 137.405 78.0701 137.244 78.145 137.104C78.2215 136.963 78.3289 136.852 78.4673 136.772C78.6073 136.691 78.7716 136.65 78.9604 136.65C79.1493 136.65 79.3128 136.691 79.4512 136.772C79.5911 136.852 79.6986 136.963 79.7734 137.104C79.8499 137.244 79.8882 137.405 79.8882 137.585C79.8882 137.764 79.8499 137.925 79.7734 138.066C79.6986 138.206 79.5911 138.316 79.4512 138.396C79.3128 138.476 79.1493 138.516 78.9604 138.516ZM78.7969 140L80.7842 136.699H81.5654L79.5781 140H78.7969ZM78.9604 137.998C79.0207 137.998 79.0679 137.962 79.1021 137.891C79.1379 137.817 79.1558 137.714 79.1558 137.581C79.1558 137.447 79.1379 137.345 79.1021 137.275C79.0679 137.204 79.0207 137.168 78.9604 137.168C78.9002 137.168 78.8522 137.204 78.8164 137.275C78.7822 137.345 78.7651 137.447 78.7651 137.581C78.7651 137.714 78.7822 137.817 78.8164 137.891C78.8522 137.962 78.9002 137.998 78.9604 137.998ZM81.4019 140.063C81.2131 140.063 81.0487 140.024 80.9087 139.944C80.7703 139.864 80.6629 139.754 80.5864 139.614C80.5116 139.474 80.4741 139.314 80.4741 139.133C80.4741 138.953 80.5116 138.792 80.5864 138.652C80.6629 138.511 80.7703 138.4 80.9087 138.32C81.0487 138.239 81.2131 138.198 81.4019 138.198C81.5907 138.198 81.7542 138.239 81.8926 138.32C82.0326 138.4 82.14 138.511 82.2148 138.652C82.2913 138.792 82.3296 138.953 82.3296 139.133C82.3296 139.314 82.2913 139.474 82.2148 139.614C82.14 139.754 82.0326 139.864 81.8926 139.944C81.7542 140.024 81.5907 140.063 81.4019 140.063ZM81.4019 139.546C81.4621 139.546 81.5093 139.51 81.5435 139.438C81.5793 139.365 81.5972 139.262 81.5972 139.128C81.5972 138.995 81.5793 138.893 81.5435 138.823C81.5093 138.752 81.4621 138.716 81.4019 138.716C81.3416 138.716 81.2936 138.752 81.2578 138.823C81.2236 138.893 81.2065 138.995 81.2065 139.128C81.2065 139.262 81.2236 139.365 81.2578 139.438C81.2936 139.51 81.3416 139.546 81.4019 139.546ZM83.499 140V139.158H83.853L84.583 136.956H84.0581V136.113H86.4702L87.3833 139.158H87.7373V140H85.5474V139.158H85.9502L85.8379 138.73H84.832L84.7051 139.158H85.1079V140H83.499ZM85.0127 138.12H85.6768L85.3667 136.934L85.0127 138.12ZM87.9473 140V139.158H88.3379V136.956H87.9473V136.113H90.1445V136.956H89.6074V139.17H90.4033L90.501 138.259H91.3066V140H87.9473ZM93.731 140.071C93.2899 140.071 92.9074 139.986 92.5835 139.817C92.2612 139.648 92.0122 139.406 91.8364 139.092C91.6606 138.778 91.5728 138.404 91.5728 137.971C91.5728 137.66 91.6183 137.385 91.7095 137.146C91.8022 136.907 91.9292 136.705 92.0903 136.541C92.2531 136.376 92.4395 136.252 92.6494 136.169C92.8594 136.085 93.0824 136.042 93.3184 136.042C93.5658 136.042 93.7798 136.082 93.9604 136.16C94.1411 136.238 94.29 136.352 94.4072 136.501L94.5317 136.113H95.2031V137.729H94.312C94.299 137.417 94.2371 137.201 94.1265 137.083C94.0174 136.964 93.8742 136.904 93.6968 136.904C93.5666 136.904 93.4445 136.941 93.3306 137.014C93.2183 137.087 93.1271 137.2 93.0571 137.351C92.9888 137.502 92.9546 137.696 92.9546 137.932C92.9546 138.28 93.0449 138.547 93.2256 138.733C93.4079 138.917 93.6634 139.009 93.9922 139.009C94.1859 139.009 94.3755 138.976 94.561 138.911C94.7466 138.846 94.9191 138.746 95.0786 138.611L95.1445 138.64V139.67C94.9557 139.809 94.7327 139.91 94.4756 139.976C94.2201 140.039 93.9718 140.071 93.731 140.071ZM96.187 140.066C95.9803 140.066 95.8143 140.01 95.689 139.897C95.5636 139.785 95.501 139.634 95.501 139.443C95.501 139.255 95.5636 139.106 95.689 138.997C95.8143 138.888 95.9803 138.833 96.187 138.833C96.3953 138.833 96.5614 138.888 96.6851 138.997C96.8104 139.106 96.873 139.255 96.873 139.443C96.873 139.634 96.8104 139.785 96.6851 139.897C96.5597 140.01 96.3937 140.066 96.187 140.066ZM98.0254 140L98.8579 136.113H100.054L99.2217 140H98.0254ZM102.486 140L101.524 136.956H101.17V136.113H103.365V136.956H102.962L103.584 139.136L104.207 136.956H103.804V136.113H105.428V136.956H105.074L104.114 140H102.486ZM107.481 140.071C107.079 140.071 106.731 139.99 106.438 139.829C106.147 139.666 105.923 139.434 105.765 139.133C105.607 138.832 105.528 138.475 105.528 138.062C105.528 137.645 105.607 137.286 105.765 136.985C105.923 136.682 106.147 136.449 106.438 136.287C106.731 136.124 107.079 136.042 107.481 136.042C107.885 136.042 108.232 136.124 108.523 136.287C108.815 136.449 109.039 136.682 109.197 136.985C109.355 137.286 109.434 137.645 109.434 138.062C109.434 138.475 109.355 138.832 109.197 139.133C109.039 139.434 108.815 139.666 108.523 139.829C108.232 139.99 107.885 140.071 107.481 140.071ZM107.481 139.229C107.663 139.229 107.803 139.129 107.901 138.931C107.999 138.732 108.047 138.44 108.047 138.054C108.047 137.668 107.999 137.376 107.901 137.178C107.803 136.979 107.663 136.88 107.481 136.88C107.299 136.88 107.159 136.979 107.061 137.178C106.963 137.376 106.915 137.668 106.915 138.054C106.915 138.44 106.963 138.732 107.061 138.931C107.159 139.129 107.299 139.229 107.481 139.229ZM109.769 140V139.158H110.159V136.956H109.769V136.113H111.966V136.956H111.429V139.17H112.225L112.322 138.259H113.128V140H109.769ZM114.048 140.066C113.842 140.066 113.676 140.01 113.55 139.897C113.425 139.785 113.362 139.634 113.362 139.443C113.362 139.255 113.425 139.106 113.55 138.997C113.676 138.888 113.842 138.833 114.048 138.833C114.257 138.833 114.423 138.888 114.546 138.997C114.672 139.106 114.734 139.255 114.734 139.443C114.734 139.634 114.672 139.785 114.546 139.897C114.421 140.01 114.255 140.066 114.048 140.066ZM73.5259 148V147.219H73.9897V145.778H73.4771V145.063L75.1494 144.65V147.219H75.5278V148H73.5259ZM75.894 148V147.304C76.3709 147.119 76.738 146.901 76.9951 146.65C77.2539 146.399 77.3833 146.136 77.3833 145.861C77.3833 145.707 77.3507 145.583 77.2856 145.49C77.2205 145.397 77.1229 145.351 76.9927 145.351C76.8576 145.351 76.7542 145.397 76.6826 145.488C76.6126 145.577 76.5776 145.694 76.5776 145.837C76.5776 145.917 76.5874 145.99 76.6069 146.057C76.6281 146.123 76.6606 146.197 76.7046 146.279L76.082 146.525C76.0023 146.446 75.938 146.34 75.8892 146.208C75.8403 146.076 75.8159 145.937 75.8159 145.791C75.8159 145.543 75.877 145.335 75.999 145.166C76.1227 144.996 76.2887 144.868 76.4971 144.782C76.707 144.694 76.9422 144.65 77.2026 144.65C77.4712 144.65 77.7056 144.694 77.9058 144.78C78.1076 144.864 78.2638 144.989 78.3745 145.153C78.4868 145.318 78.543 145.517 78.543 145.751C78.543 146.038 78.4396 146.303 78.2329 146.547C78.0278 146.792 77.7186 146.995 77.3052 147.158H78.6235L78.6357 148H75.894ZM79.9297 148V147.158H80.3203V144.956H79.9297V144.113H83.3379V145.729H82.5322L82.4468 144.943H81.5605V145.603H82.1953V146.433H81.5605V147.158H82.2686V148H79.9297ZM83.582 148V147.158H83.9727V144.956H83.582V144.113H85.7793V144.956H85.2422V147.17H86.0381L86.1357 146.259H86.9414V148H83.582ZM87.8618 148.066C87.6551 148.066 87.4891 148.01 87.3638 147.897C87.2384 147.785 87.1758 147.634 87.1758 147.443C87.1758 147.255 87.2384 147.106 87.3638 146.997C87.4891 146.888 87.6551 146.833 87.8618 146.833C88.0701 146.833 88.2362 146.888 88.3599 146.997C88.4852 147.106 88.5479 147.255 88.5479 147.443C88.5479 147.634 88.4852 147.785 88.3599 147.897C88.2345 148.01 88.0685 148.066 87.8618 148.066ZM91.7827 148.071C91.3807 148.071 91.0332 147.99 90.7402 147.829C90.4489 147.666 90.2243 147.434 90.0664 147.133C89.9085 146.832 89.8296 146.475 89.8296 146.062C89.8296 145.645 89.9085 145.286 90.0664 144.985C90.2243 144.682 90.4489 144.449 90.7402 144.287C91.0332 144.124 91.3807 144.042 91.7827 144.042C92.1864 144.042 92.5339 144.124 92.8252 144.287C93.1165 144.449 93.3411 144.682 93.499 144.985C93.6569 145.286 93.7358 145.645 93.7358 146.062C93.7358 146.475 93.6569 146.832 93.499 147.133C93.3411 147.434 93.1165 147.666 92.8252 147.829C92.5339 147.99 92.1864 148.071 91.7827 148.071ZM91.7827 147.229C91.965 147.229 92.105 147.129 92.2026 146.931C92.3003 146.732 92.3491 146.44 92.3491 146.054C92.3491 145.668 92.3003 145.376 92.2026 145.178C92.105 144.979 91.965 144.88 91.7827 144.88C91.6004 144.88 91.4604 144.979 91.3628 145.178C91.2651 145.376 91.2163 145.668 91.2163 146.054C91.2163 146.44 91.2651 146.732 91.3628 146.931C91.4604 147.129 91.6004 147.229 91.7827 147.229ZM96.1016 148.071C95.5531 148.071 95.1274 147.932 94.8247 147.656C94.5236 147.379 94.373 146.936 94.373 146.328V144.956H93.9824V144.113H96.0454V144.956H95.6426V146.33C95.6426 146.844 95.8558 147.102 96.2822 147.102C96.4857 147.102 96.637 147.035 96.7363 146.901C96.8372 146.768 96.8877 146.577 96.8877 146.33V144.956H96.4849V144.113H98.0938V144.956H97.7031V146.425C97.7031 147.522 97.1693 148.071 96.1016 148.071ZM100.889 148.002L99.5537 145.778V147.158H99.9443V148H98.3672V147.158H98.7578V144.956H98.3672V144.113H100.113L101.453 146.337V144.956H101.062V144.113H102.64V144.956H102.249V148L100.889 148.002ZM105.108 148.071C104.667 148.071 104.284 147.986 103.96 147.817C103.638 147.648 103.389 147.406 103.213 147.092C103.038 146.778 102.95 146.404 102.95 145.971C102.95 145.66 102.995 145.385 103.086 145.146C103.179 144.907 103.306 144.705 103.467 144.541C103.63 144.376 103.816 144.252 104.026 144.169C104.236 144.085 104.459 144.042 104.695 144.042C104.943 144.042 105.157 144.082 105.337 144.16C105.518 144.238 105.667 144.352 105.784 144.501L105.909 144.113H106.58V145.729H105.689C105.676 145.417 105.614 145.201 105.503 145.083C105.394 144.964 105.251 144.904 105.074 144.904C104.944 144.904 104.821 144.941 104.708 145.014C104.595 145.087 104.504 145.2 104.434 145.351C104.366 145.502 104.332 145.696 104.332 145.932C104.332 146.28 104.422 146.547 104.603 146.733C104.785 146.917 105.04 147.009 105.369 147.009C105.563 147.009 105.752 146.976 105.938 146.911C106.124 146.846 106.296 146.746 106.456 146.611L106.521 146.64V147.67C106.333 147.809 106.11 147.91 105.853 147.976C105.597 148.039 105.349 148.071 105.108 148.071ZM106.961 148V147.158H107.352V144.956H106.961V144.113H110.418V145.659H109.612L109.527 144.943H108.592V145.603H109.251V146.433H108.592V147.17H109.527L109.612 146.347H110.418V148H106.961Z" fill="white"/>
<path d="M87.605 214.496C85.4403 214.496 83.6515 214.211 82.2388 213.641C80.826 213.06 79.6981 212.285 78.855 211.317L77.9834 214H73.2837V204.84H79.6582C79.8747 206.161 80.5355 207.25 81.6406 208.104C82.7458 208.947 84.1414 209.369 85.8276 209.369C86.7505 209.369 87.4626 209.186 87.9639 208.822C88.4652 208.446 88.7158 207.933 88.7158 207.284C88.7158 206.577 88.4367 206.042 87.8784 205.677C87.3201 205.313 86.5796 205.028 85.6567 204.823C84.7339 204.618 83.7199 204.418 82.6147 204.225C81.5096 204.031 80.4045 203.763 79.2993 203.421C78.1942 203.08 77.1802 202.578 76.2573 201.917C75.3345 201.257 74.5939 200.362 74.0356 199.234C73.4774 198.095 73.1982 196.637 73.1982 194.859C73.1982 193.139 73.6084 191.635 74.4287 190.348C75.2604 189.06 76.451 188.058 78.0005 187.34C79.55 186.622 81.4071 186.263 83.5718 186.263C85.5086 186.263 87.1265 186.542 88.4253 187.101C89.7241 187.659 90.7837 188.451 91.604 189.476L92.4756 186.793H97.1753V195.611H90.6641C90.3337 194.256 89.6729 193.213 88.6816 192.484C87.7018 191.755 86.5625 191.39 85.2637 191.39C84.3408 191.39 83.606 191.567 83.0591 191.92C82.5122 192.262 82.2388 192.769 82.2388 193.441C82.2388 194.068 82.5179 194.546 83.0762 194.876C83.6344 195.207 84.375 195.475 85.2979 195.68C86.2207 195.885 87.2347 196.096 88.3398 196.312C89.445 196.528 90.5501 196.825 91.6553 197.201C92.7604 197.577 93.7744 198.106 94.6973 198.79C95.6201 199.462 96.3607 200.362 96.9189 201.49C97.4772 202.618 97.7563 204.048 97.7563 205.78C97.7563 208.491 96.8563 210.622 95.0562 212.171C93.256 213.721 90.7723 214.496 87.605 214.496ZM104.045 214V208.104H109.001V192.347H105.942L105.259 198.106H99.6191V186.793H127.271V198.106H121.631L120.947 192.347H117.888V208.104H122.844V214H104.045ZM142.703 214.496C139.889 214.496 137.456 213.932 135.405 212.804C133.366 211.664 131.794 210.041 130.688 207.933C129.583 205.825 129.031 203.325 129.031 200.431C129.031 197.514 129.583 195.002 130.688 192.894C131.794 190.775 133.366 189.146 135.405 188.006C137.456 186.867 139.889 186.297 142.703 186.297C145.528 186.297 147.961 186.867 150 188.006C152.039 189.146 153.612 190.775 154.717 192.894C155.822 195.002 156.375 197.514 156.375 200.431C156.375 203.325 155.822 205.825 154.717 207.933C153.612 210.041 152.039 211.664 150 212.804C147.961 213.932 145.528 214.496 142.703 214.496ZM142.703 208.6C143.979 208.6 144.958 207.905 145.642 206.515C146.326 205.125 146.667 203.08 146.667 200.379C146.667 197.679 146.326 195.634 145.642 194.244C144.958 192.854 143.979 192.159 142.703 192.159C141.427 192.159 140.447 192.854 139.763 194.244C139.08 195.634 138.738 197.679 138.738 200.379C138.738 203.08 139.08 205.125 139.763 206.515C140.447 207.905 141.427 208.6 142.703 208.6ZM158.716 214V208.104H161.45V192.689H158.716V186.793H174.421C177.817 186.793 180.426 187.431 182.249 188.707C184.071 189.972 184.983 191.829 184.983 194.278C184.983 195.862 184.59 197.178 183.804 198.226C183.018 199.274 181.952 200.021 180.608 200.465C181.679 200.818 182.471 201.371 182.983 202.123C183.507 202.875 183.781 203.792 183.804 204.874L183.838 206.292C183.861 206.896 183.992 207.352 184.231 207.66C184.482 207.956 184.903 208.104 185.496 208.104H187.307V214H181.36C179.184 214 177.572 213.499 176.523 212.496C175.487 211.482 174.957 210.001 174.934 208.053L174.9 205.78C174.866 203.957 174.023 203.045 172.371 203.045H170.132V208.104H172.439V214H158.716ZM172.781 192.518H170.132V198.294H172.781C174.968 198.294 176.062 197.332 176.062 195.406C176.062 193.481 174.968 192.518 172.781 192.518ZM188.657 214V208.104H191.392V192.689H188.657V186.793H202.517L208.276 201.661L214.224 186.793H226.75V192.689H224.016V208.104H226.75V214H213.027V208.104H215.42V196.791L208.618 214H203.765L196.963 196.791V208.104H199.355V214H188.657Z" fill="url(#paint1_linear_367_1839)"/>
<path d="M96.5918 261V258.473H97.7637V251.867H96.5918V249.34H101.909C104.072 249.34 105.718 249.838 106.846 250.834C107.974 251.825 108.538 253.275 108.538 255.185C108.538 257.089 107.976 258.534 106.853 259.521C105.73 260.507 104.08 261 101.902 261H96.5918ZM101.572 258.546H101.975C102.834 258.546 103.45 258.288 103.821 257.77C104.192 257.248 104.377 256.378 104.377 255.163C104.377 253.952 104.192 253.087 103.821 252.57C103.45 252.052 102.834 251.793 101.975 251.793H101.572V258.546ZM115.393 261.212C114.187 261.212 113.145 260.971 112.266 260.487C111.392 259.999 110.718 259.303 110.244 258.4C109.771 257.497 109.534 256.425 109.534 255.185C109.534 253.935 109.771 252.858 110.244 251.955C110.718 251.046 111.392 250.348 112.266 249.86C113.145 249.372 114.187 249.127 115.393 249.127C116.604 249.127 117.646 249.372 118.521 249.86C119.395 250.348 120.068 251.046 120.542 251.955C121.016 252.858 121.252 253.935 121.252 255.185C121.252 256.425 121.016 257.497 120.542 258.4C120.068 259.303 119.395 259.999 118.521 260.487C117.646 260.971 116.604 261.212 115.393 261.212ZM115.393 258.686C115.94 258.686 116.36 258.388 116.653 257.792C116.946 257.196 117.092 256.32 117.092 255.163C117.092 254.005 116.946 253.129 116.653 252.533C116.36 251.938 115.94 251.64 115.393 251.64C114.846 251.64 114.426 251.938 114.133 252.533C113.84 253.129 113.694 254.005 113.694 255.163C113.694 256.32 113.84 257.196 114.133 257.792C114.426 258.388 114.846 258.686 115.393 258.686ZM128.35 261.212C126.704 261.212 125.427 260.797 124.519 259.967C123.616 259.137 123.164 257.809 123.164 255.983V251.867H121.992V249.34H128.181V251.867H126.973V255.99C126.973 257.533 127.612 258.305 128.892 258.305C129.502 258.305 129.956 258.104 130.254 257.704C130.557 257.304 130.708 256.732 130.708 255.99V251.867H129.5V249.34H134.326V251.867H133.154V256.276C133.154 259.567 131.553 261.212 128.35 261.212ZM135.146 261V258.473H136.318V251.867H135.146V249.34H141.467C143.03 249.34 144.209 249.608 145.005 250.146C145.806 250.683 146.206 251.483 146.206 252.548C146.206 253.109 146.067 253.607 145.789 254.042C145.515 254.477 145.117 254.809 144.595 255.038C145.156 255.263 145.598 255.602 145.92 256.056C146.243 256.505 146.404 257.045 146.404 257.675C146.404 258.744 146.013 259.567 145.232 260.143C144.451 260.714 143.333 261 141.877 261H135.146ZM141.021 251.793H140.039V254.035H141.021C141.929 254.035 142.383 253.661 142.383 252.914C142.383 252.167 141.929 251.793 141.021 251.793ZM140.039 258.546H141.174C142.112 258.546 142.581 258.134 142.581 257.309C142.581 256.483 142.112 256.071 141.174 256.071H140.039V258.546ZM147.393 261V258.473H148.564V251.867H147.393V249.34H153.984V251.867H152.373V258.51H154.761L155.054 255.778H157.471V261H147.393ZM158.276 261V258.473H159.448V251.867H158.276V249.34H168.647V253.976H166.23L165.974 251.83H163.169V253.808H165.146V256.298H163.169V258.51H165.974L166.23 256.042H168.647V261H158.276ZM173.027 261V258.473H174.272V251.867H173.027V249.34H179.326V251.867H178.081V258.473H179.326V261H173.027ZM180.19 261V258.473H181.362V251.867H180.19V249.34H186.482C188.074 249.34 189.275 249.65 190.085 250.27C190.896 250.885 191.301 251.808 191.301 253.039C191.301 254.23 190.898 255.133 190.093 255.749C189.287 256.359 188.108 256.664 186.555 256.664H185.083V258.473H187.207V261H180.19ZM186.057 251.793H185.083V254.43H185.984C186.482 254.43 186.855 254.325 187.104 254.115C187.354 253.905 187.478 253.571 187.478 253.112C187.478 252.648 187.356 252.313 187.112 252.108C186.873 251.898 186.521 251.793 186.057 251.793ZM190.928 261V258.473H191.99L194.18 251.867H192.605V249.34H199.841L202.581 258.473H203.643V261H197.073V258.473H198.281L197.944 257.191H194.927L194.546 258.473H195.754V261H190.928ZM195.469 255.36H197.461L196.531 251.801L195.469 255.36Z" fill="url(#paint2_linear_367_1839)"/>
<path d="M113.455 81V77.9678H114.949V70.04H113.455V67.0078H121.014V70.04H119.52V77.9678H121.014V81H113.455ZM122.051 81V77.9678H123.457V70.04H122.051V67.0078H129.179L132.141 74.6543L135.199 67.0078H141.642V70.04H140.235V77.9678H141.642V81H134.584V77.9678H135.814V72.1494L132.316 81H129.82L126.322 72.1494V77.9678H127.553V81H122.051ZM142.336 81V77.9678H143.61L146.238 70.04H144.349V67.0078H153.032L156.319 77.9678H157.594V81H149.71V77.9678H151.16L150.756 76.4297H147.135L146.678 77.9678H148.128V81H142.336ZM147.785 74.2324H150.176L149.06 69.9609L147.785 74.2324ZM166.462 81.2549C164.757 81.2549 163.283 80.9473 162.041 80.332C160.805 79.7168 159.85 78.8438 159.176 77.7129C158.502 76.582 158.165 75.2432 158.165 73.6963C158.165 72.3076 158.435 71.0947 158.974 70.0576C159.519 69.0146 160.277 68.2031 161.25 67.623C162.229 67.043 163.368 66.7529 164.669 66.7529C165.647 66.7529 166.474 66.8906 167.147 67.166C167.827 67.4414 168.381 67.8486 168.809 68.3877L169.257 67.0078H171.674V72.0967H168.422C168.311 71.3115 168.07 70.7432 167.701 70.3916C167.332 70.0342 166.805 69.8555 166.119 69.8555C165.574 69.8555 165.076 69.9932 164.625 70.2686C164.174 70.5381 163.813 70.957 163.544 71.5254C163.274 72.0879 163.14 72.8086 163.14 73.6875C163.14 74.9941 163.45 75.9932 164.071 76.6846C164.698 77.376 165.589 77.7217 166.743 77.7217C167.224 77.7217 167.648 77.6602 168.018 77.5371V76.1133H166.348V73.4766H171.973V80.0156C171.527 80.2559 171 80.4697 170.391 80.6572C169.781 80.8447 169.14 80.9912 168.466 81.0967C167.792 81.2021 167.124 81.2549 166.462 81.2549ZM173.502 81V77.9678H174.908V70.04H173.502V67.0078H185.947V72.5713H183.047L182.739 69.9961H179.373V72.3691H181.746V75.3574H179.373V78.0117H182.739L183.047 75.0498H185.947V81H173.502Z" fill="white"/>
<defs>
<radialGradient id="paint0_radial_367_1839" cx="0" cy="0" r="1" gradientUnits="userSpaceOnUse" gradientTransform="translate(153.5 81) rotate(180) scale(124 168.734)">
<stop stop-color="#564B4B"/>
<stop offset="1"/>
</radialGradient>
<linearGradient id="paint1_linear_367_1839" x1="150" y1="174" x2="150" y2="230" gradientUnits="userSpaceOnUse">
<stop stop-color="#3A2F2F"/>
<stop offset="0.0001" stop-color="#FE0D0D"/>
<stop offset="1" stop-color="#BFBFBF"/>
</linearGradient>
<linearGradient id="paint2_linear_367_1839" x1="150" y1="244" x2="150" y2="268" gradientUnits="userSpaceOnUse">
<stop stop-color="#100E0E"/>
<stop offset="1" stop-color="#8A8888"/>
</linearGradient>
</defs>
</svg>
