<svg width="300" height="300" viewBox="0 0 300 300" fill="none" xmlns="http://www.w3.org/2000/svg">
<rect x="68" y="36" width="163" height="228" fill="#E8B545"/>
<path d="M127.604 251.005L124.933 246.557V249.315H125.714V251H122.56V249.315H123.341V244.911H122.56V243.227H126.051L128.731 247.675V244.911H127.95V243.227H131.104V244.911H130.323V251L127.604 251.005ZM135.631 251.142C134.827 251.142 134.132 250.98 133.546 250.658C132.963 250.333 132.514 249.869 132.198 249.267C131.882 248.664 131.725 247.95 131.725 247.123C131.725 246.29 131.882 245.572 132.198 244.97C132.514 244.364 132.963 243.899 133.546 243.573C134.132 243.248 134.827 243.085 135.631 243.085C136.438 243.085 137.133 243.248 137.716 243.573C138.299 243.899 138.748 244.364 139.063 244.97C139.379 245.572 139.537 246.29 139.537 247.123C139.537 247.95 139.379 248.664 139.063 249.267C138.748 249.869 138.299 250.333 137.716 250.658C137.133 250.98 136.438 251.142 135.631 251.142ZM135.631 249.457C135.995 249.457 136.275 249.258 136.471 248.861C136.666 248.464 136.764 247.88 136.764 247.108C136.764 246.337 136.666 245.753 136.471 245.355C136.275 244.958 135.995 244.76 135.631 244.76C135.266 244.76 134.986 244.958 134.791 245.355C134.596 245.753 134.498 246.337 134.498 247.108C134.498 247.88 134.596 248.464 134.791 248.861C134.986 249.258 135.266 249.457 135.631 249.457ZM142.369 251L140.445 244.911H139.737V243.227H144.127V244.911H143.321L144.566 249.271L145.812 244.911H145.006V243.227H148.253V244.911H147.545L145.626 251H142.369ZM150.855 251V249.608C151.809 249.237 152.543 248.801 153.058 248.3C153.575 247.799 153.834 247.273 153.834 246.723C153.834 246.413 153.769 246.166 153.639 245.98C153.508 245.795 153.313 245.702 153.053 245.702C152.783 245.702 152.576 245.793 152.433 245.976C152.293 246.155 152.223 246.387 152.223 246.674C152.223 246.833 152.242 246.98 152.281 247.113C152.324 247.247 152.389 247.395 152.477 247.558L151.231 248.051C151.072 247.891 150.943 247.68 150.846 247.416C150.748 247.152 150.699 246.874 150.699 246.581C150.699 246.086 150.821 245.67 151.065 245.331C151.313 244.993 151.645 244.737 152.062 244.564C152.481 244.389 152.952 244.301 153.473 244.301C154.01 244.301 154.479 244.387 154.879 244.56C155.283 244.729 155.595 244.978 155.816 245.307C156.041 245.635 156.153 246.034 156.153 246.503C156.153 247.076 155.947 247.606 155.533 248.095C155.123 248.583 154.505 248.99 153.678 249.315H156.314L156.339 251H150.855ZM159.933 251.127C159.311 251.127 158.774 250.99 158.321 250.717C157.869 250.44 157.521 250.048 157.276 249.54C157.032 249.032 156.91 248.427 156.91 247.724C156.91 247.017 157.032 246.409 157.276 245.897C157.521 245.386 157.867 244.993 158.316 244.716C158.769 244.439 159.308 244.301 159.933 244.301C160.558 244.301 161.096 244.439 161.549 244.716C162.001 244.993 162.348 245.386 162.589 245.897C162.833 246.409 162.955 247.017 162.955 247.724C162.955 248.427 162.833 249.032 162.589 249.54C162.345 250.048 161.996 250.44 161.544 250.717C161.095 250.99 160.558 251.127 159.933 251.127ZM159.933 249.564C160.47 249.564 160.738 248.946 160.738 247.709C160.738 246.472 160.47 245.854 159.933 245.854C159.396 245.854 159.127 246.472 159.127 247.709C159.127 248.946 159.396 249.564 159.933 249.564ZM163.785 251V249.608C164.739 249.237 165.473 248.801 165.987 248.3C166.505 247.799 166.764 247.273 166.764 246.723C166.764 246.413 166.699 246.166 166.568 245.98C166.438 245.795 166.243 245.702 165.982 245.702C165.712 245.702 165.506 245.793 165.362 245.976C165.222 246.155 165.152 246.387 165.152 246.674C165.152 246.833 165.172 246.98 165.211 247.113C165.253 247.247 165.318 247.395 165.406 247.558L164.161 248.051C164.002 247.891 163.873 247.68 163.775 247.416C163.678 247.152 163.629 246.874 163.629 246.581C163.629 246.086 163.751 245.67 163.995 245.331C164.243 244.993 164.575 244.737 164.991 244.564C165.411 244.389 165.882 244.301 166.402 244.301C166.939 244.301 167.408 244.387 167.809 244.56C168.212 244.729 168.525 244.978 168.746 245.307C168.971 245.635 169.083 246.034 169.083 246.503C169.083 247.076 168.876 247.606 168.463 248.095C168.053 248.583 167.434 248.99 166.607 249.315H169.244L169.269 251H163.785ZM172.276 251.137C171.99 251.137 171.699 251.114 171.402 251.068C171.106 251.023 170.831 250.959 170.577 250.878C170.323 250.793 170.113 250.697 169.947 250.59V249.125L170.079 249.066C170.287 249.223 170.543 249.353 170.846 249.457C171.148 249.561 171.511 249.613 171.935 249.613C172.26 249.613 172.538 249.561 172.77 249.457C173.001 249.35 173.116 249.167 173.116 248.91C173.116 248.65 173.001 248.466 172.77 248.358C172.542 248.251 172.273 248.197 171.964 248.197C171.85 248.197 171.72 248.205 171.573 248.222C171.427 248.235 171.284 248.259 171.144 248.295L171.012 248.236V247.484L172.857 246.083H169.942V244.398H175.172V245.741L173.399 247.074C174.031 247.159 174.527 247.359 174.889 247.675C175.253 247.987 175.436 248.414 175.436 248.954C175.436 249.621 175.165 250.152 174.625 250.546C174.088 250.94 173.305 251.137 172.276 251.137Z" fill="#6F4B27"/>
<path d="M114.527 216L116.605 211.988H115.355L115.258 212.887L114.203 212.883V210.719H118.785V211.832L116.754 216H114.527ZM119.715 216.105C119.384 216.105 119.118 216.016 118.918 215.836C118.717 215.656 118.617 215.414 118.617 215.109C118.617 214.807 118.717 214.569 118.918 214.395C119.118 214.22 119.384 214.133 119.715 214.133C120.048 214.133 120.314 214.22 120.512 214.395C120.712 214.569 120.812 214.807 120.812 215.109C120.812 215.414 120.712 215.656 120.512 215.836C120.311 216.016 120.046 216.105 119.715 216.105ZM123.633 216.109C122.859 216.109 122.258 215.969 121.828 215.688C121.398 215.404 121.184 215.02 121.184 214.535C121.184 214.246 121.255 214.001 121.398 213.801C121.542 213.598 121.746 213.436 122.012 213.316C121.616 213.069 121.418 212.702 121.418 212.215C121.418 211.895 121.508 211.617 121.688 211.383C121.87 211.146 122.126 210.964 122.457 210.836C122.79 210.706 123.182 210.641 123.633 210.641C124.083 210.641 124.474 210.706 124.805 210.836C125.138 210.964 125.395 211.146 125.574 211.383C125.757 211.617 125.848 211.895 125.848 212.215C125.848 212.702 125.65 213.069 125.254 213.316C125.52 213.436 125.724 213.598 125.867 213.801C126.01 214.001 126.082 214.246 126.082 214.535C126.082 215.02 125.867 215.404 125.438 215.688C125.008 215.969 124.406 216.109 123.633 216.109ZM123.633 212.961C123.81 212.961 123.953 212.904 124.062 212.789C124.172 212.674 124.227 212.523 124.227 212.336C124.227 212.148 124.172 211.997 124.062 211.883C123.953 211.768 123.81 211.711 123.633 211.711C123.456 211.711 123.312 211.768 123.203 211.883C123.094 211.997 123.039 212.148 123.039 212.336C123.039 212.523 123.094 212.674 123.203 212.789C123.312 212.904 123.456 212.961 123.633 212.961ZM123.633 215.039C123.872 215.039 124.064 214.983 124.207 214.871C124.35 214.757 124.422 214.604 124.422 214.414C124.422 214.227 124.349 214.076 124.203 213.961C124.06 213.846 123.87 213.789 123.633 213.789C123.396 213.789 123.204 213.846 123.059 213.961C122.915 214.076 122.844 214.227 122.844 214.414C122.844 214.604 122.915 214.757 123.059 214.871C123.204 214.983 123.396 215.039 123.633 215.039ZM129.637 213.625C129.335 213.625 129.072 213.561 128.848 213.434C128.626 213.306 128.454 213.13 128.332 212.906C128.212 212.68 128.152 212.423 128.152 212.137C128.152 211.848 128.212 211.591 128.332 211.367C128.454 211.141 128.626 210.964 128.848 210.836C129.072 210.706 129.335 210.641 129.637 210.641C129.939 210.641 130.201 210.706 130.422 210.836C130.646 210.964 130.818 211.141 130.938 211.367C131.06 211.591 131.121 211.848 131.121 212.137C131.121 212.423 131.06 212.68 130.938 212.906C130.818 213.13 130.646 213.306 130.422 213.434C130.201 213.561 129.939 213.625 129.637 213.625ZM129.375 216L132.555 210.719H133.805L130.625 216H129.375ZM129.637 212.797C129.733 212.797 129.809 212.74 129.863 212.625C129.921 212.508 129.949 212.342 129.949 212.129C129.949 211.915 129.921 211.753 129.863 211.641C129.809 211.526 129.733 211.469 129.637 211.469C129.54 211.469 129.464 211.526 129.406 211.641C129.352 211.753 129.324 211.915 129.324 212.129C129.324 212.342 129.352 212.508 129.406 212.625C129.464 212.74 129.54 212.797 129.637 212.797ZM133.543 216.102C133.241 216.102 132.978 216.038 132.754 215.91C132.533 215.783 132.361 215.607 132.238 215.383C132.118 215.159 132.059 214.902 132.059 214.613C132.059 214.324 132.118 214.068 132.238 213.844C132.361 213.617 132.533 213.44 132.754 213.312C132.978 213.182 133.241 213.117 133.543 213.117C133.845 213.117 134.107 213.182 134.328 213.312C134.552 213.44 134.724 213.617 134.844 213.844C134.966 214.068 135.027 214.324 135.027 214.613C135.027 214.902 134.966 215.159 134.844 215.383C134.724 215.607 134.552 215.783 134.328 215.91C134.107 216.038 133.845 216.102 133.543 216.102ZM133.543 215.273C133.639 215.273 133.715 215.216 133.77 215.102C133.827 214.984 133.855 214.819 133.855 214.605C133.855 214.392 133.827 214.229 133.77 214.117C133.715 214.003 133.639 213.945 133.543 213.945C133.447 213.945 133.37 214.003 133.312 214.117C133.258 214.229 133.23 214.392 133.23 214.605C133.23 214.819 133.258 214.984 133.312 215.102C133.37 215.216 133.447 215.273 133.543 215.273ZM136.898 216V214.652H137.465L138.633 211.129H137.793V209.781H141.652L143.113 214.652H143.68V216H140.176V214.652H140.82L140.641 213.969H139.031L138.828 214.652H139.473V216H136.898ZM139.32 212.992H140.383L139.887 211.094L139.32 212.992ZM144.016 216V214.652H144.641V211.129H144.016V209.781H147.531V211.129H146.672V214.672H147.945L148.102 213.215H149.391V216H144.016ZM153.27 216.113C152.564 216.113 151.952 215.978 151.434 215.707C150.918 215.436 150.52 215.049 150.238 214.547C149.957 214.044 149.816 213.447 149.816 212.754C149.816 212.257 149.889 211.816 150.035 211.434C150.184 211.051 150.387 210.728 150.645 210.465C150.905 210.202 151.203 210.004 151.539 209.871C151.875 209.736 152.232 209.668 152.609 209.668C153.005 209.668 153.348 209.73 153.637 209.855C153.926 209.98 154.164 210.163 154.352 210.402L154.551 209.781H155.625V212.367H154.199C154.178 211.867 154.079 211.522 153.902 211.332C153.728 211.142 153.499 211.047 153.215 211.047C153.007 211.047 152.811 211.105 152.629 211.223C152.449 211.34 152.303 211.52 152.191 211.762C152.082 212.004 152.027 212.314 152.027 212.691C152.027 213.249 152.172 213.676 152.461 213.973C152.753 214.267 153.161 214.414 153.688 214.414C153.997 214.414 154.301 214.362 154.598 214.258C154.895 214.154 155.171 213.993 155.426 213.777L155.531 213.824V215.473C155.229 215.694 154.872 215.857 154.461 215.961C154.052 216.062 153.655 216.113 153.27 216.113ZM157.199 216.105C156.868 216.105 156.603 216.016 156.402 215.836C156.202 215.656 156.102 215.414 156.102 215.109C156.102 214.807 156.202 214.569 156.402 214.395C156.603 214.22 156.868 214.133 157.199 214.133C157.533 214.133 157.798 214.22 157.996 214.395C158.197 214.569 158.297 214.807 158.297 215.109C158.297 215.414 158.197 215.656 157.996 215.836C157.796 216.016 157.53 216.105 157.199 216.105ZM160.141 216L161.473 209.781H163.387L162.055 216H160.141ZM167.277 216L165.738 211.129H165.172V209.781H168.684V211.129H168.039L169.035 214.617L170.031 211.129H169.387V209.781H171.984V211.129H171.418L169.883 216H167.277ZM175.27 216.113C174.626 216.113 174.07 215.984 173.602 215.727C173.135 215.466 172.776 215.095 172.523 214.613C172.271 214.132 172.145 213.56 172.145 212.898C172.145 212.232 172.271 211.658 172.523 211.176C172.776 210.691 173.135 210.319 173.602 210.059C174.07 209.798 174.626 209.668 175.27 209.668C175.915 209.668 176.471 209.798 176.938 210.059C177.404 210.319 177.763 210.691 178.016 211.176C178.268 211.658 178.395 212.232 178.395 212.898C178.395 213.56 178.268 214.132 178.016 214.613C177.763 215.095 177.404 215.466 176.938 215.727C176.471 215.984 175.915 216.113 175.27 216.113ZM175.27 214.766C175.561 214.766 175.785 214.607 175.941 214.289C176.098 213.971 176.176 213.504 176.176 212.887C176.176 212.27 176.098 211.802 175.941 211.484C175.785 211.167 175.561 211.008 175.27 211.008C174.978 211.008 174.754 211.167 174.598 211.484C174.441 211.802 174.363 212.27 174.363 212.887C174.363 213.504 174.441 213.971 174.598 214.289C174.754 214.607 174.978 214.766 175.27 214.766ZM178.93 216V214.652H179.555V211.129H178.93V209.781H182.445V211.129H181.586V214.672H182.859L183.016 213.215H184.305V216H178.93ZM185.777 216.105C185.447 216.105 185.181 216.016 184.98 215.836C184.78 215.656 184.68 215.414 184.68 215.109C184.68 214.807 184.78 214.569 184.98 214.395C185.181 214.22 185.447 214.133 185.777 214.133C186.111 214.133 186.376 214.22 186.574 214.395C186.775 214.569 186.875 214.807 186.875 215.109C186.875 215.414 186.775 215.656 186.574 215.836C186.374 216.016 186.108 216.105 185.777 216.105ZM120.941 229V227.75H121.684V225.445H120.863V224.301L123.539 223.641V227.75H124.145V229H120.941ZM124.73 229V227.887C125.493 227.59 126.081 227.241 126.492 226.84C126.906 226.439 127.113 226.018 127.113 225.578C127.113 225.331 127.061 225.133 126.957 224.984C126.853 224.836 126.697 224.762 126.488 224.762C126.272 224.762 126.107 224.835 125.992 224.98C125.88 225.124 125.824 225.31 125.824 225.539C125.824 225.667 125.84 225.784 125.871 225.891C125.905 225.997 125.957 226.116 126.027 226.246L125.031 226.641C124.904 226.513 124.801 226.344 124.723 226.133C124.645 225.922 124.605 225.699 124.605 225.465C124.605 225.069 124.703 224.736 124.898 224.465C125.096 224.194 125.362 223.99 125.695 223.852C126.031 223.711 126.408 223.641 126.824 223.641C127.254 223.641 127.629 223.71 127.949 223.848C128.272 223.983 128.522 224.182 128.699 224.445C128.879 224.708 128.969 225.027 128.969 225.402C128.969 225.861 128.803 226.285 128.473 226.676C128.145 227.066 127.65 227.392 126.988 227.652H129.098L129.117 229H124.73ZM131.188 229V227.652H131.812V224.129H131.188V222.781H136.641V225.367H135.352L135.215 224.109H133.797V225.164H134.812V226.492H133.797V227.652H134.93V229H131.188ZM137.031 229V227.652H137.656V224.129H137.031V222.781H140.547V224.129H139.688V227.672H140.961L141.117 226.215H142.406V229H137.031ZM143.879 229.105C143.548 229.105 143.283 229.016 143.082 228.836C142.882 228.656 142.781 228.414 142.781 228.109C142.781 227.807 142.882 227.569 143.082 227.395C143.283 227.22 143.548 227.133 143.879 227.133C144.212 227.133 144.478 227.22 144.676 227.395C144.876 227.569 144.977 227.807 144.977 228.109C144.977 228.414 144.876 228.656 144.676 228.836C144.475 229.016 144.21 229.105 143.879 229.105ZM150.152 229.113C149.509 229.113 148.953 228.984 148.484 228.727C148.018 228.466 147.659 228.095 147.406 227.613C147.154 227.132 147.027 226.56 147.027 225.898C147.027 225.232 147.154 224.658 147.406 224.176C147.659 223.691 148.018 223.319 148.484 223.059C148.953 222.798 149.509 222.668 150.152 222.668C150.798 222.668 151.354 222.798 151.82 223.059C152.286 223.319 152.646 223.691 152.898 224.176C153.151 224.658 153.277 225.232 153.277 225.898C153.277 226.56 153.151 227.132 152.898 227.613C152.646 228.095 152.286 228.466 151.82 228.727C151.354 228.984 150.798 229.113 150.152 229.113ZM150.152 227.766C150.444 227.766 150.668 227.607 150.824 227.289C150.98 226.971 151.059 226.504 151.059 225.887C151.059 225.27 150.98 224.802 150.824 224.484C150.668 224.167 150.444 224.008 150.152 224.008C149.861 224.008 149.637 224.167 149.48 224.484C149.324 224.802 149.246 225.27 149.246 225.887C149.246 226.504 149.324 226.971 149.48 227.289C149.637 227.607 149.861 227.766 150.152 227.766ZM157.062 229.113C156.185 229.113 155.504 228.892 155.02 228.449C154.538 228.007 154.297 227.298 154.297 226.324V224.129H153.672V222.781H156.973V224.129H156.328V226.328C156.328 227.151 156.669 227.562 157.352 227.562C157.677 227.562 157.919 227.456 158.078 227.242C158.24 227.029 158.32 226.724 158.32 226.328V224.129H157.676V222.781H160.25V224.129H159.625V226.48C159.625 228.236 158.771 229.113 157.062 229.113ZM164.723 229.004L162.586 225.445V227.652H163.211V229H160.688V227.652H161.312V224.129H160.688V222.781H163.48L165.625 226.34V224.129H165V222.781H167.523V224.129H166.898V229L164.723 229.004ZM171.473 229.113C170.767 229.113 170.155 228.978 169.637 228.707C169.121 228.436 168.723 228.049 168.441 227.547C168.16 227.044 168.02 226.447 168.02 225.754C168.02 225.257 168.092 224.816 168.238 224.434C168.387 224.051 168.59 223.728 168.848 223.465C169.108 223.202 169.406 223.004 169.742 222.871C170.078 222.736 170.435 222.668 170.812 222.668C171.208 222.668 171.551 222.73 171.84 222.855C172.129 222.98 172.367 223.163 172.555 223.402L172.754 222.781H173.828V225.367H172.402C172.382 224.867 172.283 224.522 172.105 224.332C171.931 224.142 171.702 224.047 171.418 224.047C171.21 224.047 171.014 224.105 170.832 224.223C170.652 224.34 170.507 224.52 170.395 224.762C170.285 225.004 170.23 225.314 170.23 225.691C170.23 226.249 170.375 226.676 170.664 226.973C170.956 227.267 171.365 227.414 171.891 227.414C172.201 227.414 172.504 227.362 172.801 227.258C173.098 227.154 173.374 226.993 173.629 226.777L173.734 226.824V228.473C173.432 228.694 173.076 228.857 172.664 228.961C172.255 229.062 171.858 229.113 171.473 229.113ZM174.438 229V227.652H175.062V224.129H174.438V222.781H179.969V225.254H178.68L178.543 224.109H177.047V225.164H178.102V226.492H177.047V227.672H178.543L178.68 226.355H179.969V229H174.438Z" fill="#6F4B27"/>
<path d="M110.01 159.283C108.115 159.283 106.478 158.941 105.098 158.258C103.724 157.574 102.663 156.604 101.914 155.348C101.165 154.091 100.791 152.604 100.791 150.885C100.791 149.342 101.09 147.994 101.689 146.842C102.295 145.683 103.138 144.781 104.219 144.137C105.306 143.492 106.572 143.17 108.018 143.17C109.105 143.17 110.023 143.323 110.771 143.629C111.527 143.935 112.142 144.387 112.617 144.986L113.115 143.453H115.801V149.107H112.188C112.064 148.235 111.797 147.604 111.387 147.213C110.977 146.816 110.391 146.617 109.629 146.617C109.023 146.617 108.47 146.77 107.969 147.076C107.467 147.376 107.067 147.841 106.768 148.473C106.468 149.098 106.318 149.898 106.318 150.875C106.318 152.327 106.663 153.437 107.354 154.205C108.05 154.973 109.04 155.357 110.322 155.357C110.856 155.357 111.328 155.289 111.738 155.152V153.57H109.883V150.641H116.133V157.906C115.638 158.173 115.052 158.411 114.375 158.619C113.698 158.827 112.985 158.99 112.236 159.107C111.488 159.225 110.745 159.283 110.01 159.283ZM125.732 159.283C124.124 159.283 122.734 158.961 121.562 158.316C120.397 157.665 119.499 156.738 118.867 155.533C118.236 154.329 117.92 152.9 117.92 151.246C117.92 149.579 118.236 148.144 118.867 146.939C119.499 145.729 120.397 144.798 121.562 144.146C122.734 143.495 124.124 143.17 125.732 143.17C127.347 143.17 128.737 143.495 129.902 144.146C131.068 144.798 131.966 145.729 132.598 146.939C133.229 148.144 133.545 149.579 133.545 151.246C133.545 152.9 133.229 154.329 132.598 155.533C131.966 156.738 131.068 157.665 129.902 158.316C128.737 158.961 127.347 159.283 125.732 159.283ZM125.732 155.914C126.462 155.914 127.021 155.517 127.412 154.723C127.803 153.928 127.998 152.76 127.998 151.217C127.998 149.674 127.803 148.505 127.412 147.711C127.021 146.917 126.462 146.52 125.732 146.52C125.003 146.52 124.443 146.917 124.053 147.711C123.662 148.505 123.467 149.674 123.467 151.217C123.467 152.76 123.662 153.928 124.053 154.723C124.443 155.517 125.003 155.914 125.732 155.914ZM134.883 159V155.631H136.445V146.822H134.883V143.453H143.672V146.822H141.523V155.68H144.707L145.098 152.037H148.32V159H134.883ZM149.297 159V155.631H150.859V146.822H149.297V143.453H156.387C159.271 143.453 161.465 144.117 162.969 145.445C164.473 146.767 165.225 148.701 165.225 151.246C165.225 153.785 164.476 155.712 162.979 157.027C161.481 158.342 159.281 159 156.377 159H149.297ZM155.938 155.729H156.475C157.62 155.729 158.441 155.383 158.936 154.693C159.43 153.997 159.678 152.838 159.678 151.217C159.678 149.602 159.43 148.45 158.936 147.76C158.441 147.07 157.62 146.725 156.475 146.725H155.938V155.729ZM166.562 159V155.631H168.125V146.822H166.562V143.453H180.391V149.635H177.168L176.826 146.773H173.086V149.41H175.723V152.73H173.086V155.68H176.826L177.168 152.389H180.391V159H166.562ZM192.295 159.01L186.953 150.113V155.631H188.516V159H182.207V155.631H183.77V146.822H182.207V143.453H189.189L194.551 152.35V146.822H192.988V143.453H199.297V146.822H197.734V159L192.295 159.01Z" fill="#6F4B27"/>
<path d="M109.508 188V185.979H110.445V180.693H109.508V178.672H114.213V180.693H113.422V182.334H115.883V180.693H115.092V178.672H119.797V180.693H118.859V185.979H119.797V188H115.092V185.979H115.883V184.256H113.422V185.979H114.213V188H109.508ZM125.287 188.17C124.322 188.17 123.488 187.977 122.785 187.59C122.086 187.199 121.547 186.643 121.168 185.92C120.789 185.197 120.6 184.34 120.6 183.348C120.6 182.348 120.789 181.486 121.168 180.764C121.547 180.037 122.086 179.479 122.785 179.088C123.488 178.697 124.322 178.502 125.287 178.502C126.256 178.502 127.09 178.697 127.789 179.088C128.488 179.479 129.027 180.037 129.406 180.764C129.785 181.486 129.975 182.348 129.975 183.348C129.975 184.34 129.785 185.197 129.406 185.92C129.027 186.643 128.488 187.199 127.789 187.59C127.09 187.977 126.256 188.17 125.287 188.17ZM125.287 186.148C125.725 186.148 126.061 185.91 126.295 185.434C126.529 184.957 126.646 184.256 126.646 183.33C126.646 182.404 126.529 181.703 126.295 181.227C126.061 180.75 125.725 180.512 125.287 180.512C124.85 180.512 124.514 180.75 124.279 181.227C124.045 181.703 123.928 182.404 123.928 183.33C123.928 184.256 124.045 184.957 124.279 185.434C124.514 185.91 124.85 186.148 125.287 186.148ZM136.83 188.006L133.625 182.668V185.979H134.562V188H130.777V185.979H131.715V180.693H130.777V178.672H134.967L138.184 184.01V180.693H137.246V178.672H141.031V180.693H140.094V188L136.83 188.006ZM141.781 188V185.979H142.719V180.693H141.781V178.672H150.078V182.381H148.145L147.939 180.664H145.695V182.246H147.277V184.238H145.695V186.008H147.939L148.145 184.033H150.078V188H141.781ZM152.668 188V185.979H154.367V183.869L151.648 180.688H150.799V178.666H156.096V180.688H155.451L156.6 182.076L157.584 180.688H156.939V178.666H160.654V180.688H159.805L157.344 183.992V185.979H159.043V188H152.668ZM163.473 188V185.979H164.322L166.074 180.693H164.814V178.672H170.604L172.795 185.979H173.645V188H168.389V185.979H169.355L169.086 184.953H166.672L166.367 185.979H167.334V188H163.473ZM167.105 183.488H168.699L167.955 180.641L167.105 183.488ZM174.148 188V185.979H175.086V180.693H174.148V178.672H179.422V180.693H178.133V186.008H180.043L180.277 183.822H182.211V188H174.148ZM182.855 188V185.979H183.793V180.693H182.855V178.672H191.152V182.381H189.219L189.014 180.664H186.77V182.246H188.352V184.238H186.77V186.008H189.014L189.219 184.033H191.152V188H182.855Z" fill="white"/>
<path d="M32 0V300H267.135V0H32V0ZM36.0541 4.05405H263.081V295.946H36.0541V4.05405V4.05405ZM64.4324 32.4324V267.568H234.703V32.4324H64.4324V32.4324ZM68.4865 36.4865H230.649V263.514H68.4865V36.4865V36.4865Z" fill="black"/>
<path fill-rule="evenodd" clip-rule="evenodd" d="M40.1081 8.10815V20.2703L52.2703 8.10815H40.1081ZM52.2703 8.10815L60.3784 16.2163L68.4865 8.10815H52.2703ZM68.4865 8.10815L76.5946 16.2163L84.7027 8.10815H68.4865ZM84.7027 8.10815L92.8108 16.2163L100.919 8.10815H84.7027ZM100.919 8.10815L109.027 16.2163L117.135 8.10815H100.919ZM117.135 8.10815L125.243 16.2163L133.351 8.10815H117.135ZM133.351 8.10815L141.459 16.2163L149.568 8.10815H133.351ZM149.568 8.10815L157.676 16.2163L165.784 8.10815H149.568ZM165.784 8.10815L173.892 16.2163L182 8.10815H165.784ZM182 8.10815L190.108 16.2163L198.216 8.10815H182ZM198.216 8.10815L206.324 16.2163L214.432 8.10815H198.216ZM214.432 8.10815L222.541 16.2163L230.649 8.10815H214.432ZM230.649 8.10815L238.757 16.2163L246.865 8.10815H230.649ZM246.865 8.10815L259.027 20.2703V8.10815H246.865ZM259.027 20.2703L250.919 28.3784L259.027 36.4865V20.2703ZM259.027 36.4865L250.919 44.5946L259.027 52.7027V36.4865ZM259.027 52.7027L250.919 60.8109L259.027 68.919V52.7027ZM259.027 68.919L250.919 77.0271L259.027 85.1352V68.919ZM259.027 85.1352L250.919 93.2433L259.027 101.351V85.1352ZM259.027 101.351L250.919 109.46L259.027 117.568V101.351ZM259.027 117.568L250.919 125.676L259.027 133.784V117.568ZM259.027 133.784L250.919 141.892L259.027 150V133.784ZM259.027 150L250.919 158.108L259.027 166.216V150ZM259.027 166.216L250.919 174.324L259.027 182.432V166.216ZM259.027 182.432L250.919 190.541L259.027 198.649V182.432ZM259.027 198.649L250.919 206.757L259.027 214.865V198.649ZM259.027 214.865L250.919 222.973L259.027 231.081V214.865ZM259.027 231.081L250.919 239.189L259.027 247.297V231.081V231.081ZM259.027 247.297L250.919 255.405L259.027 263.514V247.297ZM259.027 263.514L250.919 271.622L259.027 279.73V263.514ZM259.027 279.73L246.865 291.892H259.027V279.73ZM246.865 291.892L238.757 283.784L230.649 291.892H246.865ZM230.649 291.892L222.541 283.784L214.432 291.892H230.649ZM214.432 291.892L206.324 283.784L198.216 291.892H214.432ZM198.216 291.892L190.108 283.784L182 291.892H198.216ZM182 291.892L173.892 283.784L165.784 291.892H182ZM165.784 291.892L157.676 283.784L149.568 291.892H165.784ZM149.568 291.892L141.459 283.784L133.351 291.892H149.568ZM133.351 291.892L125.243 283.784L117.135 291.892H133.351ZM117.135 291.892L109.027 283.784L100.919 291.892H117.135ZM100.919 291.892L92.8108 283.784L84.7027 291.892H100.919ZM84.7027 291.892L76.5946 283.784L68.4865 291.892H84.7027ZM68.4865 291.892L60.3784 283.784L52.2703 291.892H68.4865ZM52.2703 291.892L40.1081 279.73V291.892H52.2703ZM40.1081 279.73L48.2162 271.622L40.1081 263.514V279.73ZM40.1081 263.514L48.2162 255.405L40.1081 247.297V263.514ZM40.1081 247.297L48.2162 239.189L40.1081 231.081V247.297ZM40.1081 231.081L48.2162 222.973L40.1081 214.865V231.081ZM40.1081 214.865L48.2162 206.757L40.1081 198.649V214.865ZM40.1081 198.649L48.2162 190.541L40.1081 182.432V198.649ZM40.1081 182.432L48.2162 174.324L40.1081 166.216V182.432ZM40.1081 166.216L48.2162 158.108L40.1081 150V166.216ZM40.1081 150L48.2162 141.892L40.1081 133.784V150ZM40.1081 133.784L48.2162 125.676L40.1081 117.568V133.784ZM40.1081 117.568L48.2162 109.46L40.1081 101.351V117.568ZM40.1081 101.351L48.2162 93.2433L40.1081 85.1352V101.351ZM40.1081 85.1352L48.2162 77.0271L40.1081 68.919V85.1352ZM40.1081 68.919L48.2162 60.8109L40.1081 52.7027V68.919ZM40.1081 52.7027L48.2162 44.5946L40.1081 36.4865V52.7027ZM40.1081 36.4865L48.2162 28.3784L40.1081 20.2703V36.4865ZM60.3784 20.2703L52.2703 28.3784L60.3784 36.4865V28.3784H68.4865L60.3784 20.2703ZM68.4865 28.3784H84.7027L76.5946 20.2703L68.4865 28.3784ZM84.7027 28.3784H100.919L92.8108 20.2703L84.7027 28.3784ZM100.919 28.3784H117.135L109.027 20.2703L100.919 28.3784ZM117.135 28.3784H133.351L125.243 20.2703L117.135 28.3784ZM133.351 28.3784H149.568L141.459 20.2703L133.351 28.3784ZM149.568 28.3784H165.784L157.676 20.2703L149.568 28.3784ZM165.784 28.3784H182L173.892 20.2703L165.784 28.3784ZM182 28.3784H198.216L190.108 20.2703L182 28.3784ZM198.216 28.3784H214.432L206.324 20.2703L198.216 28.3784ZM214.432 28.3784H230.649L222.541 20.2703L214.432 28.3784ZM230.649 28.3784H238.757V36.4865L246.865 28.3784L238.757 20.2703L230.649 28.3784ZM238.757 36.4865V52.7027L246.865 44.5946L238.757 36.4865ZM238.757 52.7027V68.919L246.865 60.8109L238.757 52.7027ZM238.757 68.919V85.1352L246.865 77.0271L238.757 68.919ZM238.757 85.1352V101.351L246.865 93.2433L238.757 85.1352ZM238.757 101.351V117.568L246.865 109.46L238.757 101.351ZM238.757 117.568V133.784L246.865 125.676L238.757 117.568ZM238.757 133.784V150L246.865 141.892L238.757 133.784ZM238.757 150V166.216L246.865 158.108L238.757 150ZM238.757 166.216V182.432L246.865 174.324L238.757 166.216ZM238.757 182.432V198.649L246.865 190.541L238.757 182.432ZM238.757 198.649V214.865L246.865 206.757L238.757 198.649ZM238.757 214.865V231.081L246.865 222.973L238.757 214.865ZM238.757 231.081V247.297L246.865 239.189L238.757 231.081ZM238.757 247.297V263.514L246.865 255.405L238.757 247.297ZM238.757 263.514V271.622H230.649L238.757 279.73L246.865 271.622L238.757 263.514ZM230.649 271.622H214.432L222.541 279.73L230.649 271.622ZM214.432 271.622H198.216L206.324 279.73L214.432 271.622ZM198.216 271.622H182L190.108 279.73L198.216 271.622ZM182 271.622H165.784L173.892 279.73L182 271.622ZM165.784 271.622H149.568L157.676 279.73L165.784 271.622ZM149.568 271.622H133.351L141.459 279.73L149.568 271.622ZM133.351 271.622H117.135L125.243 279.73L133.351 271.622ZM117.135 271.622H100.919L109.027 279.73L117.135 271.622ZM100.919 271.622H84.7027L92.8108 279.73L100.919 271.622ZM84.7027 271.622H68.4865L76.5946 279.73L84.7027 271.622ZM68.4865 271.622H60.3784V263.514L52.2703 271.622L60.3784 279.73L68.4865 271.622ZM60.3784 263.514V247.297L52.2703 255.405L60.3784 263.514ZM60.3784 247.297V231.081L52.2703 239.189L60.3784 247.297ZM60.3784 231.081V214.865L52.2703 222.973L60.3784 231.081ZM60.3784 214.865V198.649L52.2703 206.757L60.3784 214.865ZM60.3784 198.649V182.432L52.2703 190.541L60.3784 198.649ZM60.3784 182.432V166.216L52.2703 174.324L60.3784 182.432ZM60.3784 166.216V150L52.2703 158.108L60.3784 166.216ZM60.3784 150V133.784L52.2703 141.892L60.3784 150ZM60.3784 133.784V117.568L52.2703 125.676L60.3784 133.784ZM60.3784 117.568V101.351L52.2703 109.46L60.3784 117.568ZM60.3784 101.351V85.1352L52.2703 93.2433L60.3784 101.351ZM60.3784 85.1352V68.919L52.2703 77.0271L60.3784 85.1352ZM60.3784 68.919V52.7027L52.2703 60.8109L60.3784 68.919ZM60.3784 52.7027V36.4865L52.2703 44.5946L60.3784 52.7027Z" fill="black"/>
<path d="M68.4865 15.2026C67.6801 15.2026 66.9067 15.523 66.3365 16.0932C65.7663 16.6634 65.4459 17.4368 65.4459 18.2432C65.4459 19.0496 65.7663 19.823 66.3365 20.3932C66.9067 20.9634 67.6801 21.2837 68.4865 21.2837C69.2929 21.2837 70.0663 20.9634 70.6365 20.3932C71.2067 19.823 71.527 19.0496 71.527 18.2432C71.527 17.4368 71.2067 16.6634 70.6365 16.0932C70.0663 15.523 69.2929 15.2026 68.4865 15.2026ZM84.7027 15.2026C83.8963 15.2026 83.1229 15.523 82.5527 16.0932C81.9825 16.6634 81.6622 17.4368 81.6622 18.2432C81.6622 19.0496 81.9825 19.823 82.5527 20.3932C83.1229 20.9634 83.8963 21.2837 84.7027 21.2837C85.5091 21.2837 86.2825 20.9634 86.8527 20.3932C87.4229 19.823 87.7432 19.0496 87.7432 18.2432C87.7432 17.4368 87.4229 16.6634 86.8527 16.0932C86.2825 15.523 85.5091 15.2026 84.7027 15.2026ZM100.919 15.2026C100.113 15.2026 99.3391 15.523 98.7689 16.0932C98.1987 16.6634 97.8784 17.4368 97.8784 18.2432C97.8784 19.0496 98.1987 19.823 98.7689 20.3932C99.3391 20.9634 100.113 21.2837 100.919 21.2837C101.725 21.2837 102.499 20.9634 103.069 20.3932C103.639 19.823 103.959 19.0496 103.959 18.2432C103.959 17.4368 103.639 16.6634 103.069 16.0932C102.499 15.523 101.725 15.2026 100.919 15.2026ZM117.135 15.2026C116.329 15.2026 115.555 15.523 114.985 16.0932C114.415 16.6634 114.095 17.4368 114.095 18.2432C114.095 19.0496 114.415 19.823 114.985 20.3932C115.555 20.9634 116.329 21.2837 117.135 21.2837C117.942 21.2837 118.715 20.9634 119.285 20.3932C119.855 19.823 120.176 19.0496 120.176 18.2432C120.176 17.4368 119.855 16.6634 119.285 16.0932C118.715 15.523 117.942 15.2026 117.135 15.2026ZM133.351 15.2026C132.545 15.2026 131.772 15.523 131.201 16.0932C130.631 16.6634 130.311 17.4368 130.311 18.2432C130.311 19.0496 130.631 19.823 131.201 20.3932C131.772 20.9634 132.545 21.2837 133.351 21.2837C134.158 21.2837 134.931 20.9634 135.501 20.3932C136.072 19.823 136.392 19.0496 136.392 18.2432C136.392 17.4368 136.072 16.6634 135.501 16.0932C134.931 15.523 134.158 15.2026 133.351 15.2026ZM149.568 15.2026C148.761 15.2026 147.988 15.523 147.418 16.0932C146.847 16.6634 146.527 17.4368 146.527 18.2432C146.527 19.0496 146.847 19.823 147.418 20.3932C147.988 20.9634 148.761 21.2837 149.568 21.2837C150.374 21.2837 151.147 20.9634 151.718 20.3932C152.288 19.823 152.608 19.0496 152.608 18.2432C152.608 17.4368 152.288 16.6634 151.718 16.0932C151.147 15.523 150.374 15.2026 149.568 15.2026ZM165.784 15.2026C164.977 15.2026 164.204 15.523 163.634 16.0932C163.064 16.6634 162.743 17.4368 162.743 18.2432C162.743 19.0496 163.064 19.823 163.634 20.3932C164.204 20.9634 164.977 21.2837 165.784 21.2837C166.59 21.2837 167.364 20.9634 167.934 20.3932C168.504 19.823 168.824 19.0496 168.824 18.2432C168.824 17.4368 168.504 16.6634 167.934 16.0932C167.364 15.523 166.59 15.2026 165.784 15.2026ZM182 15.2026C181.194 15.2026 180.42 15.523 179.85 16.0932C179.28 16.6634 178.959 17.4368 178.959 18.2432C178.959 19.0496 179.28 19.823 179.85 20.3932C180.42 20.9634 181.194 21.2837 182 21.2837C182.806 21.2837 183.58 20.9634 184.15 20.3932C184.72 19.823 185.041 19.0496 185.041 18.2432C185.041 17.4368 184.72 16.6634 184.15 16.0932C183.58 15.523 182.806 15.2026 182 15.2026ZM198.216 15.2026C197.41 15.2026 196.636 15.523 196.066 16.0932C195.496 16.6634 195.176 17.4368 195.176 18.2432C195.176 19.0496 195.496 19.823 196.066 20.3932C196.636 20.9634 197.41 21.2837 198.216 21.2837C199.023 21.2837 199.796 20.9634 200.366 20.3932C200.936 19.823 201.257 19.0496 201.257 18.2432C201.257 17.8439 201.178 17.4485 201.025 17.0796C200.873 16.7107 200.649 16.3755 200.366 16.0932C200.084 15.8109 199.749 15.5869 199.38 15.4341C199.011 15.2813 198.616 15.2026 198.216 15.2026V15.2026ZM214.432 15.2026C213.626 15.2026 212.853 15.523 212.282 16.0932C211.712 16.6634 211.392 17.4368 211.392 18.2432C211.392 19.0496 211.712 19.823 212.282 20.3932C212.853 20.9634 213.626 21.2837 214.432 21.2837C215.239 21.2837 216.012 20.9634 216.582 20.3932C217.153 19.823 217.473 19.0496 217.473 18.2432C217.473 17.4368 217.153 16.6634 216.582 16.0932C216.012 15.523 215.239 15.2026 214.432 15.2026ZM230.649 15.2026C229.842 15.2026 229.069 15.523 228.499 16.0932C227.928 16.6634 227.608 17.4368 227.608 18.2432C227.608 19.0496 227.928 19.823 228.499 20.3932C229.069 20.9634 229.842 21.2837 230.649 21.2837C231.455 21.2837 232.228 20.9634 232.799 20.3932C233.369 19.823 233.689 19.0496 233.689 18.2432C233.689 17.4368 233.369 16.6634 232.799 16.0932C232.228 15.523 231.455 15.2026 230.649 15.2026ZM51.2568 16.2162C50.4504 16.2162 49.677 16.5365 49.1068 17.1067C48.5365 17.6769 48.2162 18.4503 48.2162 19.2567C48.2162 19.656 48.2949 20.0514 48.4477 20.4203C48.6005 20.7892 48.8244 21.1243 49.1068 21.4067C49.3891 21.689 49.7243 21.913 50.0932 22.0658C50.4621 22.2186 50.8575 22.2972 51.2568 22.2972C51.656 22.2972 52.0514 22.2186 52.4203 22.0658C52.7892 21.913 53.1244 21.689 53.4067 21.4067C53.6891 21.1243 53.913 20.7892 54.0658 20.4203C54.2187 20.0514 54.2973 19.656 54.2973 19.2567C54.2973 18.4503 53.977 17.6769 53.4067 17.1067C52.8365 16.5365 52.0632 16.2162 51.2568 16.2162ZM247.878 16.2162C247.072 16.2162 246.299 16.5365 245.728 17.1067C245.158 17.6769 244.838 18.4503 244.838 19.2567C244.838 19.656 244.916 20.0514 245.069 20.4203C245.222 20.7892 245.446 21.1243 245.728 21.4067C246.011 21.689 246.346 21.913 246.715 22.0658C247.084 22.2186 247.479 22.2972 247.878 22.2972C248.278 22.2972 248.673 22.2186 249.042 22.0658C249.411 21.913 249.746 21.689 250.028 21.4067C250.311 21.1243 250.535 20.7892 250.687 20.4203C250.84 20.0514 250.919 19.656 250.919 19.2567C250.919 18.4503 250.599 17.6769 250.028 17.1067C249.458 16.5365 248.685 16.2162 247.878 16.2162ZM50.2432 33.4459C49.4368 33.4459 48.6635 33.7662 48.0932 34.3364C47.523 34.9067 47.2027 35.68 47.2027 36.4864C47.2027 37.2928 47.523 38.0662 48.0932 38.6364C48.6635 39.2066 49.4368 39.527 50.2432 39.527C51.0496 39.527 51.823 39.2066 52.3932 38.6364C52.9634 38.0662 53.2838 37.2928 53.2838 36.4864C53.2838 35.68 52.9634 34.9067 52.3932 34.3364C51.823 33.7662 51.0496 33.4459 50.2432 33.4459ZM248.892 33.4459C248.085 33.4459 247.312 33.7662 246.742 34.3364C246.172 34.9067 245.851 35.68 245.851 36.4864C245.851 37.2928 246.172 38.0662 246.742 38.6364C247.312 39.2066 248.085 39.527 248.892 39.527C249.698 39.527 250.472 39.2066 251.042 38.6364C251.612 38.0662 251.932 37.2928 251.932 36.4864C251.932 35.68 251.612 34.9067 251.042 34.3364C250.472 33.7662 249.698 33.4459 248.892 33.4459ZM50.2432 49.6621C49.4368 49.6621 48.6635 49.9824 48.0932 50.5527C47.523 51.1229 47.2027 51.8962 47.2027 52.7026C47.2027 53.509 47.523 54.2824 48.0932 54.8526C48.6635 55.4229 49.4368 55.7432 50.2432 55.7432C51.0496 55.7432 51.823 55.4229 52.3932 54.8526C52.9634 54.2824 53.2838 53.509 53.2838 52.7026C53.2838 51.8962 52.9634 51.1229 52.3932 50.5527C51.823 49.9824 51.0496 49.6621 50.2432 49.6621ZM248.892 49.6621C248.085 49.6621 247.312 49.9824 246.742 50.5527C246.172 51.1229 245.851 51.8962 245.851 52.7026C245.851 53.509 246.172 54.2824 246.742 54.8526C247.312 55.4229 248.085 55.7432 248.892 55.7432C249.698 55.7432 250.472 55.4229 251.042 54.8526C251.612 54.2824 251.932 53.509 251.932 52.7026C251.932 51.8962 251.612 51.1229 251.042 50.5527C250.472 49.9824 249.698 49.6621 248.892 49.6621ZM50.2432 65.8783C49.4368 65.8783 48.6635 66.1987 48.0932 66.7689C47.523 67.3391 47.2027 68.1124 47.2027 68.9188C47.2027 69.7252 47.523 70.4986 48.0932 71.0689C48.6635 71.6391 49.4368 71.9594 50.2432 71.9594C51.0496 71.9594 51.823 71.6391 52.3932 71.0689C52.9634 70.4986 53.2838 69.7252 53.2838 68.9188C53.2838 68.1124 52.9634 67.3391 52.3932 66.7689C51.823 66.1987 51.0496 65.8783 50.2432 65.8783ZM248.892 65.8783C248.085 65.8783 247.312 66.1987 246.742 66.7689C246.172 67.3391 245.851 68.1124 245.851 68.9188C245.851 69.7252 246.172 70.4986 246.742 71.0689C247.312 71.6391 248.085 71.9594 248.892 71.9594C249.698 71.9594 250.472 71.6391 251.042 71.0689C251.612 70.4986 251.932 69.7252 251.932 68.9188C251.932 68.1124 251.612 67.3391 251.042 66.7689C250.472 66.1987 249.698 65.8783 248.892 65.8783ZM50.2432 82.0945C49.4368 82.0945 48.6635 82.4149 48.0932 82.9851C47.523 83.5553 47.2027 84.3287 47.2027 85.1351C47.2027 85.9415 47.523 86.7149 48.0932 87.2851C48.6635 87.8553 49.4368 88.1756 50.2432 88.1756C51.0496 88.1756 51.823 87.8553 52.3932 87.2851C52.9634 86.7149 53.2838 85.9415 53.2838 85.1351C53.2838 84.3287 52.9634 83.5553 52.3932 82.9851C51.823 82.4149 51.0496 82.0945 50.2432 82.0945ZM248.892 82.0945C248.085 82.0945 247.312 82.4149 246.742 82.9851C246.172 83.5553 245.851 84.3287 245.851 85.1351C245.851 85.9415 246.172 86.7149 246.742 87.2851C247.312 87.8553 248.085 88.1756 248.892 88.1756C249.698 88.1756 250.472 87.8553 251.042 87.2851C251.612 86.7149 251.932 85.9415 251.932 85.1351C251.932 84.3287 251.612 83.5553 251.042 82.9851C250.472 82.4149 249.698 82.0945 248.892 82.0945ZM50.2432 98.3107C49.4368 98.3107 48.6635 98.6311 48.0932 99.2013C47.523 99.7715 47.2027 100.545 47.2027 101.351C47.2027 102.158 47.523 102.931 48.0932 103.501C48.6635 104.071 49.4368 104.392 50.2432 104.392C51.0496 104.392 51.823 104.071 52.3932 103.501C52.9634 102.931 53.2838 102.158 53.2838 101.351C53.2838 100.545 52.9634 99.7715 52.3932 99.2013C51.823 98.6311 51.0496 98.3107 50.2432 98.3107ZM248.892 98.3107C248.085 98.3107 247.312 98.6311 246.742 99.2013C246.172 99.7715 245.851 100.545 245.851 101.351C245.851 102.158 246.172 102.931 246.742 103.501C247.312 104.071 248.085 104.392 248.892 104.392C249.698 104.392 250.472 104.071 251.042 103.501C251.612 102.931 251.932 102.158 251.932 101.351C251.932 100.545 251.612 99.7715 251.042 99.2013C250.472 98.6311 249.698 98.3107 248.892 98.3107ZM50.2432 114.527C49.4368 114.527 48.6635 114.847 48.0932 115.418C47.523 115.988 47.2027 116.761 47.2027 117.567C47.2027 118.374 47.523 119.147 48.0932 119.717C48.6635 120.288 49.4368 120.608 50.2432 120.608C51.0496 120.608 51.823 120.288 52.3932 119.717C52.9634 119.147 53.2838 118.374 53.2838 117.567C53.2838 116.761 52.9634 115.988 52.3932 115.418C51.823 114.847 51.0496 114.527 50.2432 114.527ZM248.892 114.527C248.085 114.527 247.312 114.847 246.742 115.418C246.172 115.988 245.851 116.761 245.851 117.567C245.851 118.374 246.172 119.147 246.742 119.717C247.312 120.288 248.085 120.608 248.892 120.608C249.698 120.608 250.472 120.288 251.042 119.717C251.612 119.147 251.932 118.374 251.932 117.567C251.932 116.761 251.612 115.988 251.042 115.418C250.472 114.847 249.698 114.527 248.892 114.527ZM50.2432 130.743C49.4368 130.743 48.6635 131.064 48.0932 131.634C47.523 132.204 47.2027 132.977 47.2027 133.784C47.2027 134.59 47.523 135.364 48.0932 135.934C48.6635 136.504 49.4368 136.824 50.2432 136.824C51.0496 136.824 51.823 136.504 52.3932 135.934C52.9634 135.364 53.2838 134.59 53.2838 133.784C53.2838 132.977 52.9634 132.204 52.3932 131.634C51.823 131.064 51.0496 130.743 50.2432 130.743ZM248.892 130.743C248.085 130.743 247.312 131.064 246.742 131.634C246.172 132.204 245.851 132.977 245.851 133.784C245.851 134.59 246.172 135.364 246.742 135.934C247.312 136.504 248.085 136.824 248.892 136.824C249.698 136.824 250.472 136.504 251.042 135.934C251.612 135.364 251.932 134.59 251.932 133.784C251.932 132.977 251.612 132.204 251.042 131.634C250.472 131.064 249.698 130.743 248.892 130.743ZM50.2432 146.959C49.4368 146.959 48.6635 147.28 48.0932 147.85C47.523 148.42 47.2027 149.194 47.2027 150C47.2027 150.806 47.523 151.58 48.0932 152.15C48.6635 152.72 49.4368 153.04 50.2432 153.04C51.0496 153.04 51.823 152.72 52.3932 152.15C52.9634 151.58 53.2838 150.806 53.2838 150C53.2838 149.194 52.9634 148.42 52.3932 147.85C51.823 147.28 51.0496 146.959 50.2432 146.959ZM248.892 146.959C248.085 146.959 247.312 147.28 246.742 147.85C246.172 148.42 245.851 149.194 245.851 150C245.851 150.806 246.172 151.58 246.742 152.15C247.312 152.72 248.085 153.04 248.892 153.04C249.698 153.04 250.472 152.72 251.042 152.15C251.612 151.58 251.932 150.806 251.932 150C251.932 149.194 251.612 148.42 251.042 147.85C250.472 147.28 249.698 146.959 248.892 146.959ZM50.2432 163.176C49.4368 163.176 48.6635 163.496 48.0932 164.066C47.523 164.636 47.2027 165.41 47.2027 166.216C47.2027 167.023 47.523 167.796 48.0932 168.366C48.6635 168.936 49.4368 169.257 50.2432 169.257C51.0496 169.257 51.823 168.936 52.3932 168.366C52.9634 167.796 53.2838 167.023 53.2838 166.216C53.2838 165.41 52.9634 164.636 52.3932 164.066C51.823 163.496 51.0496 163.176 50.2432 163.176ZM248.892 163.176C248.085 163.176 247.312 163.496 246.742 164.066C246.172 164.636 245.851 165.41 245.851 166.216C245.851 167.023 246.172 167.796 246.742 168.366C247.312 168.936 248.085 169.257 248.892 169.257C249.698 169.257 250.472 168.936 251.042 168.366C251.612 167.796 251.932 167.023 251.932 166.216C251.932 165.41 251.612 164.636 251.042 164.066C250.472 163.496 249.698 163.176 248.892 163.176ZM50.2432 179.392C49.4368 179.392 48.6635 179.712 48.0932 180.282C47.523 180.853 47.2027 181.626 47.2027 182.432C47.2027 183.239 47.523 184.012 48.0932 184.582C48.6635 185.153 49.4368 185.473 50.2432 185.473C51.0496 185.473 51.823 185.153 52.3932 184.582C52.9634 184.012 53.2838 183.239 53.2838 182.432C53.2838 181.626 52.9634 180.853 52.3932 180.282C51.823 179.712 51.0496 179.392 50.2432 179.392ZM248.892 179.392C248.085 179.392 247.312 179.712 246.742 180.282C246.172 180.853 245.851 181.626 245.851 182.432C245.851 183.239 246.172 184.012 246.742 184.582C247.312 185.153 248.085 185.473 248.892 185.473C249.698 185.473 250.472 185.153 251.042 184.582C251.612 184.012 251.932 183.239 251.932 182.432C251.932 181.626 251.612 180.853 251.042 180.282C250.472 179.712 249.698 179.392 248.892 179.392ZM50.2432 195.608C49.4368 195.608 48.6635 195.928 48.0932 196.499C47.523 197.069 47.2027 197.842 47.2027 198.649C47.2027 199.455 47.523 200.228 48.0932 200.799C48.6635 201.369 49.4368 201.689 50.2432 201.689C51.0496 201.689 51.823 201.369 52.3932 200.799C52.9634 200.228 53.2838 199.455 53.2838 198.649C53.2838 197.842 52.9634 197.069 52.3932 196.499C51.823 195.928 51.0496 195.608 50.2432 195.608ZM248.892 195.608C248.085 195.608 247.312 195.928 246.742 196.499C246.172 197.069 245.851 197.842 245.851 198.649C245.851 199.455 246.172 200.228 246.742 200.799C247.312 201.369 248.085 201.689 248.892 201.689C249.698 201.689 250.472 201.369 251.042 200.799C251.612 200.228 251.932 199.455 251.932 198.649C251.932 197.842 251.612 197.069 251.042 196.499C250.472 195.928 249.698 195.608 248.892 195.608ZM50.2432 211.824C49.4368 211.824 48.6635 212.145 48.0932 212.715C47.523 213.285 47.2027 214.058 47.2027 214.865C47.2027 215.671 47.523 216.445 48.0932 217.015C48.6635 217.585 49.4368 217.905 50.2432 217.905C51.0496 217.905 51.823 217.585 52.3932 217.015C52.9634 216.445 53.2838 215.671 53.2838 214.865C53.2838 214.058 52.9634 213.285 52.3932 212.715C51.823 212.145 51.0496 211.824 50.2432 211.824V211.824ZM248.892 211.824C248.085 211.824 247.312 212.145 246.742 212.715C246.172 213.285 245.851 214.058 245.851 214.865C245.851 215.671 246.172 216.445 246.742 217.015C247.312 217.585 248.085 217.905 248.892 217.905C249.698 217.905 250.472 217.585 251.042 217.015C251.612 216.445 251.932 215.671 251.932 214.865C251.932 214.058 251.612 213.285 251.042 212.715C250.472 212.145 249.698 211.824 248.892 211.824V211.824ZM50.2432 228.04C49.4368 228.04 48.6635 228.361 48.0932 228.931C47.523 229.501 47.2027 230.275 47.2027 231.081C47.2027 231.887 47.523 232.661 48.0932 233.231C48.6635 233.801 49.4368 234.122 50.2432 234.122C51.0496 234.122 51.823 233.801 52.3932 233.231C52.9634 232.661 53.2838 231.887 53.2838 231.081C53.2838 230.275 52.9634 229.501 52.3932 228.931C51.823 228.361 51.0496 228.04 50.2432 228.04ZM248.892 228.04C248.085 228.04 247.312 228.361 246.742 228.931C246.172 229.501 245.851 230.275 245.851 231.081C245.851 231.887 246.172 232.661 246.742 233.231C247.312 233.801 248.085 234.122 248.892 234.122C249.698 234.122 250.472 233.801 251.042 233.231C251.612 232.661 251.932 231.887 251.932 231.081C251.932 230.275 251.612 229.501 251.042 228.931C250.472 228.361 249.698 228.04 248.892 228.04ZM50.2432 244.257C49.4368 244.257 48.6635 244.577 48.0932 245.147C47.523 245.717 47.2027 246.491 47.2027 247.297C47.2027 248.104 47.523 248.877 48.0932 249.447C48.6635 250.017 49.4368 250.338 50.2432 250.338C51.0496 250.338 51.823 250.017 52.3932 249.447C52.9634 248.877 53.2838 248.104 53.2838 247.297C53.2838 246.491 52.9634 245.717 52.3932 245.147C51.823 244.577 51.0496 244.257 50.2432 244.257ZM248.892 244.257C248.085 244.257 247.312 244.577 246.742 245.147C246.172 245.717 245.851 246.491 245.851 247.297C245.851 248.104 246.172 248.877 246.742 249.447C247.312 250.017 248.085 250.338 248.892 250.338C249.698 250.338 250.472 250.017 251.042 249.447C251.612 248.877 251.932 248.104 251.932 247.297C251.932 246.491 251.612 245.717 251.042 245.147C250.472 244.577 249.698 244.257 248.892 244.257ZM50.2432 260.473C49.4368 260.473 48.6635 260.793 48.0932 261.363C47.523 261.934 47.2027 262.707 47.2027 263.513C47.2027 264.32 47.523 265.093 48.0932 265.663C48.6635 266.234 49.4368 266.554 50.2432 266.554C51.0496 266.554 51.823 266.234 52.3932 265.663C52.9634 265.093 53.2838 264.32 53.2838 263.513C53.2838 262.707 52.9634 261.934 52.3932 261.363C51.823 260.793 51.0496 260.473 50.2432 260.473ZM248.892 260.473C248.085 260.473 247.312 260.793 246.742 261.363C246.172 261.934 245.851 262.707 245.851 263.513C245.851 264.32 246.172 265.093 246.742 265.663C247.312 266.234 248.085 266.554 248.892 266.554C249.698 266.554 250.472 266.234 251.042 265.663C251.612 265.093 251.932 264.32 251.932 263.513C251.932 262.707 251.612 261.934 251.042 261.363C250.472 260.793 249.698 260.473 248.892 260.473ZM51.2568 277.703C50.4504 277.703 49.677 278.023 49.1068 278.593C48.5365 279.163 48.2162 279.937 48.2162 280.743C48.2162 281.55 48.5365 282.323 49.1068 282.893C49.677 283.463 50.4504 283.784 51.2568 283.784C52.0632 283.784 52.8365 283.463 53.4067 282.893C53.977 282.323 54.2973 281.55 54.2973 280.743C54.2973 279.937 53.977 279.163 53.4067 278.593C52.8365 278.023 52.0632 277.703 51.2568 277.703ZM247.878 277.703C247.072 277.703 246.299 278.023 245.728 278.593C245.158 279.163 244.838 279.937 244.838 280.743C244.838 281.55 245.158 282.323 245.728 282.893C246.299 283.463 247.072 283.784 247.878 283.784C248.685 283.784 249.458 283.463 250.028 282.893C250.599 282.323 250.919 281.55 250.919 280.743C250.919 279.937 250.599 279.163 250.028 278.593C249.458 278.023 248.685 277.703 247.878 277.703ZM68.4865 278.716C67.6801 278.716 66.9067 279.036 66.3365 279.607C65.7663 280.177 65.4459 280.95 65.4459 281.757C65.4459 282.563 65.7663 283.336 66.3365 283.907C66.9067 284.477 67.6801 284.797 68.4865 284.797C69.2929 284.797 70.0663 284.477 70.6365 283.907C71.2067 283.336 71.527 282.563 71.527 281.757C71.527 280.95 71.2067 280.177 70.6365 279.607C70.0663 279.036 69.2929 278.716 68.4865 278.716ZM84.7027 278.716C83.8963 278.716 83.1229 279.036 82.5527 279.607C81.9825 280.177 81.6622 280.95 81.6622 281.757C81.6622 282.563 81.9825 283.336 82.5527 283.907C83.1229 284.477 83.8963 284.797 84.7027 284.797C85.5091 284.797 86.2825 284.477 86.8527 283.907C87.4229 283.336 87.7432 282.563 87.7432 281.757C87.7432 280.95 87.4229 280.177 86.8527 279.607C86.2825 279.036 85.5091 278.716 84.7027 278.716ZM100.919 278.716C100.113 278.716 99.3391 279.036 98.7689 279.607C98.1987 280.177 97.8784 280.95 97.8784 281.757C97.8784 282.563 98.1987 283.336 98.7689 283.907C99.3391 284.477 100.113 284.797 100.919 284.797C101.725 284.797 102.499 284.477 103.069 283.907C103.639 283.336 103.959 282.563 103.959 281.757C103.959 280.95 103.639 280.177 103.069 279.607C102.499 279.036 101.725 278.716 100.919 278.716ZM117.135 278.716C116.329 278.716 115.555 279.036 114.985 279.607C114.415 280.177 114.095 280.95 114.095 281.757C114.095 282.563 114.415 283.336 114.985 283.907C115.555 284.477 116.329 284.797 117.135 284.797C117.942 284.797 118.715 284.477 119.285 283.907C119.855 283.336 120.176 282.563 120.176 281.757C120.176 280.95 119.855 280.177 119.285 279.607C118.715 279.036 117.942 278.716 117.135 278.716ZM133.351 278.716C132.545 278.716 131.772 279.036 131.201 279.607C130.631 280.177 130.311 280.95 130.311 281.757C130.311 282.563 130.631 283.336 131.201 283.907C131.772 284.477 132.545 284.797 133.351 284.797C134.158 284.797 134.931 284.477 135.501 283.907C136.072 283.336 136.392 282.563 136.392 281.757C136.392 280.95 136.072 280.177 135.501 279.607C134.931 279.036 134.158 278.716 133.351 278.716ZM149.568 278.716C148.761 278.716 147.988 279.036 147.418 279.607C146.847 280.177 146.527 280.95 146.527 281.757C146.527 282.563 146.847 283.336 147.418 283.907C147.988 284.477 148.761 284.797 149.568 284.797C150.374 284.797 151.147 284.477 151.718 283.907C152.288 283.336 152.608 282.563 152.608 281.757C152.608 280.95 152.288 280.177 151.718 279.607C151.147 279.036 150.374 278.716 149.568 278.716ZM165.784 278.716C164.977 278.716 164.204 279.036 163.634 279.607C163.064 280.177 162.743 280.95 162.743 281.757C162.743 282.563 163.064 283.336 163.634 283.907C164.204 284.477 164.977 284.797 165.784 284.797C166.59 284.797 167.364 284.477 167.934 283.907C168.504 283.336 168.824 282.563 168.824 281.757C168.824 280.95 168.504 280.177 167.934 279.607C167.364 279.036 166.59 278.716 165.784 278.716ZM182 278.716C181.194 278.716 180.42 279.036 179.85 279.607C179.28 280.177 178.959 280.95 178.959 281.757C178.959 282.563 179.28 283.336 179.85 283.907C180.42 284.477 181.194 284.797 182 284.797C182.806 284.797 183.58 284.477 184.15 283.907C184.72 283.336 185.041 282.563 185.041 281.757C185.041 280.95 184.72 280.177 184.15 279.607C183.58 279.036 182.806 278.716 182 278.716ZM198.216 278.716C197.41 278.716 196.636 279.036 196.066 279.607C195.496 280.177 195.176 280.95 195.176 281.757C195.176 282.563 195.496 283.336 196.066 283.907C196.636 284.477 197.41 284.797 198.216 284.797C198.616 284.797 199.011 284.719 199.38 284.566C199.749 284.413 200.084 284.189 200.366 283.907C200.649 283.624 200.873 283.289 201.025 282.92C201.178 282.551 201.257 282.156 201.257 281.757C201.257 281.357 201.178 280.962 201.025 280.593C200.873 280.224 200.649 279.889 200.366 279.607C200.084 279.324 199.749 279.1 199.38 278.948C199.011 278.795 198.616 278.716 198.216 278.716V278.716ZM214.432 278.716C213.626 278.716 212.853 279.036 212.282 279.607C211.712 280.177 211.392 280.95 211.392 281.757C211.392 282.563 211.712 283.336 212.282 283.907C212.853 284.477 213.626 284.797 214.432 284.797C215.239 284.797 216.012 284.477 216.582 283.907C217.153 283.336 217.473 282.563 217.473 281.757C217.473 280.95 217.153 280.177 216.582 279.607C216.012 279.036 215.239 278.716 214.432 278.716ZM230.649 278.716C229.842 278.716 229.069 279.036 228.499 279.607C227.928 280.177 227.608 280.95 227.608 281.757C227.608 282.563 227.928 283.336 228.499 283.907C229.069 284.477 229.842 284.797 230.649 284.797C231.455 284.797 232.228 284.477 232.799 283.907C233.369 283.336 233.689 282.563 233.689 281.757C233.689 280.95 233.369 280.177 232.799 279.607C232.228 279.036 231.455 278.716 230.649 278.716Z" fill="black"/>
<path d="M191.528 75.9109C190.34 75.5664 189.031 75.3738 187.629 75.2888L188.02 71.3234L194.826 72.4C193.796 73.7996 192.667 74.9552 191.528 75.9109M184.277 80.0454C184.076 80.1256 183.899 80.1962 183.749 80.2586L183.345 80.4273C181.666 79.5656 179.166 77.754 177.678 76.6152C178.206 76.567 178.73 76.5199 179.251 76.4744L179.276 76.4955C179.282 76.4885 179.288 76.4783 179.294 76.4708C183.557 76.0983 187.544 75.8607 190.668 76.5981C188.135 78.5092 185.671 79.4909 184.277 80.0454M182.329 84.1101C181.146 85.0298 179.2 85.7885 176.835 86.2214C175.435 85.0471 174.146 82.5045 173.568 81.2561C177.023 81.7411 180.53 82.0466 183.504 82.0511C183.577 82.5395 183.424 83.2583 182.329 84.1101ZM166.837 86.0191C166.276 84.7056 165.489 81.8046 164.966 79.6335C167.233 80.1891 169.845 80.6979 172.53 81.1043C172.889 81.9324 174.165 84.7269 175.74 86.3934C173.062 86.7499 169.954 86.6947 166.837 86.0191M161.8 86.4347C161.702 86.526 161.499 86.658 161.225 86.7589C160.955 86.6112 160.361 86.0168 159.631 85.2054C160.177 85.5124 160.733 85.7897 161.294 86.0479C161.474 86.1908 161.645 86.3223 161.8 86.4347ZM157.571 90.2857C153.603 89.2067 148.366 89.2016 143.993 90.1848C144.745 87.6177 145.798 85.4583 147.071 83.9672C148.052 84.3399 149.111 84.5535 150.22 84.5535C151.636 84.5535 152.971 84.2125 154.161 83.6218C155.579 85.1191 156.754 87.4597 157.571 90.2857M161.356 90.4463C160.877 91.0523 160.333 91.3573 160.209 91.3192C160.208 91.3186 160.174 91.2909 160.142 91.1782C159.933 90.4424 159.579 89.7792 159.093 89.188C158.982 88.8327 158.864 88.4865 158.741 88.1466C160.112 89.1208 161.166 90.0346 161.356 90.4463M164.948 99.7959C164.574 100.408 163.386 100.938 162.675 100.812C162.356 100.753 162.282 100.586 162.252 100.431C162.136 99.8234 162.089 98.6244 162.04 97.3555C161.951 95.0964 161.862 93.4008 161.589 92.3496C162.436 94.346 164.117 98.1929 164.953 99.2811C165.038 99.3921 165.104 99.54 164.948 99.7959M164.565 101.629C164.688 105.002 164.932 108.686 166.272 109.702C166.373 109.778 166.392 109.825 166.395 109.825C166.356 110.021 165.549 110.451 164.624 110.391C164.609 110.39 164.594 110.387 164.579 110.387L164.565 110.381C164.565 110.381 164.564 110.384 164.564 110.385C164.019 110.336 163.389 110.102 163.345 109.281C163.288 108.223 163.465 106.904 163.636 105.628C163.858 103.975 164.047 102.511 163.755 101.584C164.028 101.507 164.298 101.398 164.55 101.263C164.556 101.378 164.56 101.5 164.565 101.629M150.772 118.411C149.998 117.467 148.635 115.705 147.248 113.43C148.229 113.614 149.496 113.77 150.993 113.77C152.185 113.77 153.209 113.622 154.388 113.278C152.97 115.626 151.564 117.446 150.772 118.411M158.615 95.6599C150.862 98.5309 144.421 96.691 142.876 96.1621C142.944 95.4511 143.033 94.7533 143.14 94.0696C147.575 92.6742 154.589 92.7589 158.429 94.2459C158.499 94.7116 158.562 95.1818 158.615 95.6599ZM157.861 105.722C157.524 106.822 157.115 107.89 156.666 108.915C151.784 110.794 146.008 109.421 144.972 109.125C144.527 108.13 144.122 107.091 143.78 106.021C145.136 106.473 147.261 106.963 150.115 106.963C152.352 106.963 154.965 106.633 157.861 105.722M158.836 99.6711C158.836 100.359 158.79 101.046 158.711 101.729C150.577 104.825 144.043 102.376 142.848 101.858C142.765 101.181 142.718 100.5 142.713 99.8172C144.218 100.248 146.725 100.785 149.887 100.785C152.491 100.785 155.538 100.419 158.829 99.3315C158.831 99.445 158.836 99.5571 158.836 99.6711ZM140.793 91.1782C140.763 91.2881 140.729 91.3174 140.73 91.3174C140.6 91.3582 140.058 91.0515 139.579 90.4463C139.79 89.9901 141.246 88.8783 142.934 87.7686C142.865 87.9489 142.794 88.1254 142.729 88.31C141.767 89.0915 141.115 90.0513 140.793 91.1782ZM138.896 97.3555C138.846 98.6244 138.8 99.8234 138.683 100.431C138.653 100.586 138.58 100.753 138.26 100.812C137.547 100.938 136.361 100.408 135.988 99.7959C135.832 99.54 135.898 99.3921 135.983 99.2811C136.819 98.1929 138.5 94.346 139.347 92.3496C139.074 93.4008 138.984 95.0964 138.896 97.3555ZM137.59 109.281C137.546 110.102 136.918 110.336 136.372 110.385C136.372 110.384 136.371 110.381 136.371 110.381L136.356 110.387C136.342 110.387 136.326 110.39 136.312 110.391C135.381 110.451 134.578 110.02 134.541 109.833C134.541 109.832 134.556 109.783 134.663 109.702C136.003 108.686 136.248 105.002 136.371 101.629C136.376 101.5 136.38 101.378 136.385 101.263C136.638 101.398 136.908 101.507 137.181 101.584C136.889 102.511 137.078 103.975 137.299 105.628C137.471 106.904 137.648 108.223 137.59 109.281M139.71 86.7589C139.435 86.6574 139.232 86.5244 139.134 86.4328C140.006 85.8116 141.419 84.5323 142.112 83.8699C142.401 83.6781 142.685 83.4803 142.964 83.2745C141.551 84.9823 140.169 86.5083 139.71 86.7589M124.437 86.2014C125.93 84.5199 127.125 81.9017 127.47 81.1043C130.155 80.6979 132.767 80.1891 135.034 79.6332C134.553 81.6334 133.847 84.2515 133.3 85.6799C130.216 86.3724 127.124 86.4928 124.437 86.2014M116.499 82.0511C119.473 82.0466 122.979 81.7411 126.433 81.2561C125.88 82.4488 124.678 84.8231 123.352 86.0571C120.873 85.6697 118.824 84.9241 117.59 83.9647C116.588 83.1845 116.436 82.5146 116.499 82.0511M109.332 76.5977C112.456 75.86 116.443 76.0978 120.706 76.4708C120.712 76.4783 120.718 76.4885 120.724 76.4955L120.749 76.4744C121.271 76.5199 121.794 76.567 122.322 76.6152C120.834 77.754 118.335 79.5656 116.655 80.4273L116.252 80.2586C116.101 80.1962 115.924 80.1256 115.723 80.0454C114.329 79.4906 111.865 78.5092 109.332 76.5977M105.174 72.4L111.979 71.3234L112.372 75.2888C110.97 75.3738 109.661 75.5664 108.472 75.9109C107.334 74.9552 106.205 73.7996 105.174 72.4M107.339 63.6386C110.823 63.3642 115.185 64.0445 119.641 65.2179C119.636 65.666 119.631 66.2638 119.634 66.9564L102.732 65.0699C103.784 64.2785 105.322 63.7962 107.339 63.6386ZM145.875 65.8771C145.984 65.3994 146.045 64.8318 146.045 64.2309C146.045 63.3208 145.912 62.3762 145.586 61.7609C146.414 60.9131 147.799 60.0582 149.633 59.2956C150.991 59.8053 152.744 60.7424 153.736 61.8297C153.678 61.9481 153.623 62.0771 153.574 62.2335C153.406 62.7668 153.313 63.4759 153.313 64.2309C153.313 64.7566 153.359 65.2938 153.459 65.7738C152.977 66.2415 152.354 66.6188 151.638 66.8691C151.176 66.7944 150.704 66.7452 150.22 66.7452C149.48 66.7452 148.764 66.846 148.076 67.017C147.211 66.7974 146.452 66.3989 145.875 65.8771M141.485 77.3621C141.65 78.2012 141.935 78.9961 142.317 79.7336C140.045 80.84 136.737 81.8847 135.263 82.3279C135.589 81.1128 135.86 79.9923 136.001 79.3875C138.49 78.7338 140.459 78.0299 141.485 77.3621ZM119.667 69.2131L115.638 69.85L115.918 67.431L119.64 67.8463C119.645 68.283 119.654 68.7426 119.667 69.2131ZM124.631 69.2059L120.555 69.157C120.52 67.8784 120.511 66.5897 120.522 65.4551C120.894 65.558 121.266 65.6655 121.639 65.7746C122.542 66.8027 123.578 67.9908 124.631 69.2059M128.678 72.5549C127.402 71.0453 125.65 69.0121 123.242 66.2625C130.682 68.6127 137.804 71.9992 140.957 74.2749L128.678 72.5549ZM120.585 70.0411L125.403 70.099C126.112 70.9204 126.813 71.7378 127.472 72.5104L120.739 72.6703C120.67 71.8626 120.62 70.9654 120.585 70.0411M131.725 76.3249C131.386 75.8491 130.743 75.0241 129.527 73.5663L141.337 75.2208C141.337 75.2533 141.335 75.2851 141.333 75.3177C138.247 76.12 134.98 76.3586 131.725 76.3249M111.624 66.9517L115.04 67.3329L114.733 69.993L109.036 70.8948L111.636 66.9589L111.624 66.9517ZM110.654 66.8435L107.88 71.0405L107.925 71.0702L104.61 71.5942C103.548 69.9947 102.619 68.1073 101.935 65.8695L110.654 66.8435ZM113.256 75.2491L112.854 71.1856L119.696 70.1031C119.775 72.1649 119.948 74.2874 120.302 75.5493C117.823 75.338 115.441 75.1838 113.256 75.2491ZM121.237 75.6299C121.066 75.2062 120.931 74.4713 120.826 73.5519L128.177 73.3777L128.213 73.3821C129.227 74.5806 130.085 75.6142 130.629 76.3048C127.855 76.2271 125.106 75.9793 122.505 75.7441C122.081 75.7056 121.658 75.6677 121.237 75.6299M117.147 81.1659C119.569 79.9092 123.068 77.1614 123.548 76.7818L123.5 76.7213C126.336 76.9745 129.322 77.2149 132.32 77.2149C135.368 77.2149 138.424 76.9599 141.346 76.2261C141.349 76.282 141.35 76.339 141.355 76.395C140.46 77.8038 127.083 81.0299 117.147 81.1659M134.33 85.4276C134.552 84.7963 134.775 84.068 134.985 83.3326C136.023 83.0322 140.062 81.8272 142.763 80.4992C142.86 80.6481 142.965 80.7907 143.07 80.933C140.501 83.1527 137.445 84.5947 134.33 85.4276M156.429 75.6492C156.429 78.6908 154.229 81.2236 151.338 81.7527L149.824 81.8381C146.585 81.6324 144.011 78.9393 144.011 75.6492C144.011 72.2254 146.797 69.4402 150.22 69.4402C153.644 69.4402 156.429 72.2254 156.429 75.6492M192.661 63.6386C194.678 63.7962 196.217 64.2785 197.269 65.0699L180.367 66.9564C180.369 66.265 180.365 65.6673 180.359 65.2195C184.816 64.0463 189.178 63.3656 192.661 63.6386ZM189.346 66.8435L198.065 65.8695C197.382 68.1073 196.452 69.9947 195.39 71.5942L192.076 71.0702L192.12 71.0405L189.346 66.8435ZM185.267 69.993L184.96 67.3329L188.376 66.9517L188.364 66.9589L190.965 70.8948L185.267 69.993ZM158.04 79.9028C158.431 79.187 158.721 78.41 158.904 77.5931C160 78.1908 161.795 78.8088 163.998 79.3882C164.141 79.9923 164.411 81.1131 164.738 82.3279C163.338 81.9077 160.29 80.9458 158.04 79.9028ZM157.115 81.2746C157.277 81.0764 157.429 80.8721 157.574 80.6607C160.263 81.9234 164.019 83.0444 165.016 83.3326C165.265 84.2058 165.533 85.0677 165.794 85.7706C162.727 84.9661 159.701 83.5325 157.115 81.2746ZM171.323 72.5549L159.043 74.2749C162.196 71.9997 169.316 68.615 176.756 66.265C174.35 69.0135 172.599 71.0458 171.323 72.5549ZM179.445 69.157L175.37 69.2059C176.421 67.9922 177.457 66.805 178.359 65.7772C178.732 65.6673 179.105 65.5603 179.478 65.4574C179.489 66.591 179.48 67.8789 179.445 69.157M159.113 75.4294C159.111 75.3389 159.104 75.2496 159.1 75.1594L170.473 73.5663C169.257 75.0244 168.614 75.8491 168.276 76.3249C165.176 76.3572 162.067 76.1421 159.113 75.4294M179.261 72.6703L172.528 72.5104C173.187 71.7378 173.889 70.9204 174.598 70.099L179.416 70.0411C179.381 70.9654 179.33 71.8626 179.261 72.6703M184.082 67.431L184.361 69.85L180.334 69.2131C180.346 68.7426 180.355 68.283 180.36 67.8463L184.082 67.431ZM159.05 76.7407C159.067 76.6066 159.079 76.4717 159.089 76.3357C161.879 76.9881 164.784 77.2149 167.68 77.2149C170.677 77.2149 173.664 76.9745 176.501 76.7209L176.453 76.7818C176.932 77.1618 180.433 79.9108 182.855 81.1668C173.663 81.0438 161.529 78.2718 159.05 76.7407M177.495 75.7441C174.894 75.98 172.145 76.2271 169.371 76.3048C169.915 75.6142 170.773 74.5806 171.788 73.3821L171.823 73.3777L179.174 73.5519C179.07 74.4713 178.935 75.2062 178.764 75.6299C178.342 75.6677 177.92 75.7056 177.495 75.7441M179.698 75.5487C180.053 74.2874 180.225 72.1649 180.305 70.1031L187.146 71.1856L186.744 75.2487C184.559 75.1838 182.177 75.3377 179.698 75.5487M164.754 89.5812C165.438 90.0169 166.085 90.4287 166.376 90.6826C166.416 90.7174 166.45 90.7474 166.406 90.8691C166.27 91.2422 165.643 91.6928 165.248 91.7005C165.142 91.7037 165.124 91.6723 165.109 91.634C164.848 90.9955 163.872 89.5904 163.044 88.4528C163.499 88.7752 164.067 89.1446 164.754 89.5812M168.313 93.7202C168.958 94.2292 169.625 94.7556 170.063 95.26C170.191 95.4072 170.312 95.6172 170.115 95.9472C169.883 96.3335 169.418 96.5785 169.18 96.6245C169.291 95.5076 167.884 93.816 166.4 92.1617C166.445 92.1312 166.486 92.098 166.528 92.065C166.876 92.5792 167.535 93.1053 168.313 93.7202M135.827 91.634C135.811 91.6723 135.793 91.7044 135.687 91.7005C135.293 91.6928 134.665 91.2422 134.53 90.8691C134.486 90.7474 134.52 90.7174 134.56 90.6826C134.851 90.4287 135.498 90.0169 136.182 89.5812C136.868 89.1446 137.436 88.7752 137.892 88.4528C137.064 89.5904 136.088 90.995 135.827 91.634M131.756 96.6245C131.518 96.5785 131.053 96.3335 130.821 95.9472C130.624 95.6172 130.745 95.4072 130.873 95.26C131.311 94.7556 131.977 94.2292 132.623 93.7202C133.401 93.1053 134.06 92.5792 134.408 92.065C134.45 92.098 134.491 92.1312 134.536 92.1617C133.052 93.816 131.645 95.5079 131.756 96.6245M141.199 68.9782C141.336 68.756 141.483 68.5991 141.581 68.5253C141.827 69.0234 142.172 69.4487 142.613 69.7972C141.944 69.4739 141.409 69.1725 141.199 68.9782ZM136.323 65.4954C136.283 65.483 136.251 65.4738 136.243 65.3628C136.214 64.9691 136.604 64.3025 136.963 64.1328C137.009 64.1109 137.042 64.1024 137.067 64.1024C137.107 64.1024 137.128 64.1227 137.152 64.1449C137.432 64.4118 137.901 65.0164 138.399 65.6567C138.898 66.2999 139.319 66.8311 139.682 67.2549C138.473 66.537 136.983 65.6958 136.323 65.4954M135.387 64.4797C133.552 63.8546 131.515 63.2382 130.496 63.7922C130.447 63.5543 130.495 63.031 130.763 62.6682C130.991 62.3609 131.232 62.3907 131.417 62.4527C132.05 62.6639 132.792 63.0771 133.51 63.4771C134.305 63.9203 134.995 64.3052 135.574 64.4612C135.563 64.485 135.55 64.5076 135.54 64.5318C135.489 64.5141 135.442 64.4986 135.387 64.4797M159.357 68.5262C159.454 68.6009 159.601 68.7572 159.736 68.9782C159.527 69.173 158.99 69.4743 158.32 69.7987C158.755 69.4538 159.101 69.0306 159.357 68.5262ZM162.537 65.6567C163.034 65.0164 163.504 64.4118 163.784 64.1449C163.807 64.1227 163.829 64.1024 163.868 64.1024C163.894 64.1024 163.927 64.1109 163.973 64.1328C164.331 64.3025 164.722 64.9691 164.693 65.3628C164.685 65.4738 164.653 65.483 164.614 65.4954C163.953 65.6958 162.463 66.537 161.254 67.2549C161.617 66.8311 162.038 66.2999 162.537 65.6567M167.426 63.4771C168.144 63.0771 168.886 62.6639 169.519 62.4527C169.704 62.3913 169.945 62.3609 170.173 62.6682C170.441 63.031 170.489 63.5543 170.44 63.7922C169.421 63.2377 167.384 63.8548 165.549 64.4797C165.494 64.4986 165.447 64.5141 165.396 64.5318C165.386 64.5076 165.373 64.4847 165.362 64.4607C165.941 64.3043 166.631 63.9203 167.426 63.4771M199.788 65.2123C198.555 63.2655 196.204 62.1433 192.799 61.8761C182.803 61.0954 165.22 67.9244 158.529 72.4773C158.333 71.9639 158.091 71.4752 157.807 71.0128C159.078 70.4601 160.425 69.7637 160.631 69.2216C160.695 69.0536 160.686 68.8774 160.608 68.7262C160.604 68.7179 160.594 68.7008 160.588 68.6891C161.91 67.8798 164.14 66.5627 164.87 66.3409C165.284 66.2156 165.54 65.8824 165.574 65.4278C165.574 65.4202 165.573 65.4119 165.573 65.4043C165.655 65.3768 165.739 65.3485 165.834 65.3166C166.873 64.962 169.304 64.134 170.035 64.5787C170.399 64.8009 170.773 64.7743 171.036 64.5097C171.194 64.3498 171.281 64.1151 171.316 63.852C171.335 63.8303 171.354 63.8089 171.383 63.777C171.4 63.7591 171.394 63.7373 171.477 63.6787C171.541 63.6252 171.617 63.5656 171.711 63.5033C172.078 63.2497 172.639 62.9413 173.231 62.7386C173.38 62.683 173.529 62.6413 173.679 62.6037C173.83 62.5577 173.974 62.5473 174.122 62.5176C174.262 62.5109 174.408 62.4894 174.538 62.5003C174.668 62.5123 174.8 62.5146 174.907 62.5534C174.964 62.5688 175.019 62.5834 175.071 62.5972C175.12 62.6179 175.162 62.6445 175.206 62.666C175.293 62.7098 175.371 62.7504 175.418 62.8042C175.526 62.9038 175.587 62.9608 175.587 62.9608C175.587 62.9608 175.547 62.8856 175.475 62.755C175.444 62.6819 175.382 62.6143 175.305 62.5372C175.267 62.4982 175.228 62.4527 175.182 62.411C175.131 62.3768 175.078 62.3401 175.022 62.302C174.91 62.2158 174.774 62.1652 174.628 62.1006C174.481 62.0374 174.321 62.006 174.153 61.9591C173.988 61.9358 173.809 61.8929 173.633 61.8863C173.455 61.8713 173.272 61.8608 173.092 61.8655C172.729 61.8634 172.371 61.9017 172.031 61.9469C171.695 62.0007 171.38 62.0612 171.106 62.1408C171.039 62.1579 170.981 62.18 170.918 62.2003C170.516 61.6167 169.897 61.3959 169.24 61.6146C168.528 61.8512 167.749 62.2857 166.996 62.7054C166.242 63.1261 165.11 63.7592 164.779 63.6407C164.644 63.513 164.5 63.4048 164.351 63.3342C163.927 63.1335 163.499 63.1967 163.175 63.505C162.847 63.817 162.38 64.4181 161.839 65.1145C161.179 65.9646 159.95 67.5471 159.58 67.6431L159.58 67.6535C159.489 67.62 159.394 67.5976 159.295 67.5976H159.283C158.985 67.6018 158.73 67.7836 158.582 68.0937C158.114 69.079 157.259 69.4517 156.979 69.5738C156.908 69.6051 156.853 69.6338 156.802 69.673C156.017 68.8104 155.069 68.1034 154.002 67.5997C154.129 67.5078 154.253 67.4151 154.371 67.3152C154.476 67.3599 154.592 67.3846 154.716 67.3846C156.239 67.3846 157.477 65.9699 157.477 64.2309C157.477 62.8074 156.647 61.6026 155.512 61.2117C155.017 60.508 154.333 59.8988 153.611 59.3897C153.879 58.9081 154.278 58.2246 154.794 57.4272C155.826 55.8317 157.351 53.7849 159.163 52.0008C159.616 51.5564 160.084 51.1251 160.562 50.7226C161.041 50.3216 161.526 49.9397 162.015 49.6C162.258 49.4274 162.499 49.261 162.744 49.1113C162.985 48.9546 163.224 48.8069 163.464 48.6763C163.936 48.3992 164.402 48.1715 164.837 47.9748C165.271 47.7745 165.682 47.6211 166.049 47.4916C166.416 47.3617 166.746 47.2793 167.013 47.1953C167.559 47.0712 167.871 47.0001 167.871 47.0001C167.871 47.0001 167.556 47.0574 167.004 47.1582C166.733 47.2305 166.398 47.2996 166.024 47.4139C165.65 47.5284 165.23 47.6649 164.783 47.8473C164.336 48.0272 163.855 48.237 163.366 48.4961C163.118 48.6184 162.869 48.7571 162.619 48.9046C162.364 49.0455 162.113 49.2036 161.859 49.3681C161.347 49.6905 160.841 50.0569 160.336 50.443C159.833 50.8309 159.34 51.2479 158.86 51.6796C156.941 53.4125 155.3 55.4272 154.178 57.0077C153.628 57.7809 153.2 58.4473 152.903 58.9287C151.686 58.1901 150.502 57.7294 150.042 57.5638C150.12 57.3344 150.198 57.0679 150.262 56.764C150.357 56.2926 150.438 55.7434 150.411 55.1593C150.376 54.5757 150.202 53.9585 150.126 53.3375C150.041 52.717 149.964 52.0959 149.867 51.5143C149.781 50.9329 149.683 50.3908 149.602 49.9266C149.444 48.9962 149.314 48.3777 149.315 48.3777L149.138 48.384C149.138 48.384 149.057 49.0111 148.972 49.9505C148.926 50.4206 148.871 50.9682 148.829 51.555C148.778 52.1418 148.75 52.7669 148.713 53.392C148.685 54.0171 148.56 54.6461 148.57 55.2304C148.589 55.8151 148.712 56.356 148.843 56.8187C148.93 57.1149 149.027 57.3741 149.123 57.5954C148.211 57.9676 147.254 58.419 146.37 58.9511C146.072 58.4681 145.638 57.7918 145.081 57.0077C143.959 55.4272 142.318 53.4125 140.399 51.6796C139.919 51.2479 139.425 50.8309 138.922 50.443C138.418 50.0569 137.911 49.6905 137.399 49.3681C137.146 49.2036 136.894 49.0455 136.64 48.9046C136.389 48.7571 136.141 48.6184 135.893 48.4961C135.403 48.237 134.923 48.0272 134.476 47.8473C134.029 47.6649 133.609 47.5284 133.235 47.4139C132.86 47.2996 132.525 47.2305 132.255 47.1582C131.703 47.0574 131.388 47.0001 131.388 47.0001C131.388 47.0001 131.7 47.0712 132.246 47.1953C132.513 47.2793 132.843 47.3617 133.209 47.4916C133.577 47.6211 133.987 47.7745 134.422 47.9748C134.857 48.1715 135.323 48.3992 135.795 48.6763C136.035 48.8069 136.274 48.9546 136.514 49.1113C136.759 49.261 137.001 49.4274 137.243 49.6C137.733 49.9397 138.217 50.3216 138.697 50.7226C139.175 51.1251 139.643 51.5564 140.095 52.0008C141.908 53.7849 143.434 55.8317 144.465 57.4272C144.982 58.2249 145.38 58.9089 145.649 59.3906C145.652 59.3976 145.655 59.4038 145.66 59.4103C144.869 59.9578 144.183 60.5781 143.696 61.2711C142.639 61.7141 141.881 62.8715 141.881 64.2309C141.881 65.9699 143.12 67.3846 144.642 67.3846C144.72 67.3846 144.804 67.3722 144.89 67.3475C145.158 67.5706 145.451 67.7711 145.762 67.9536C145.035 68.3764 144.374 68.8968 143.796 69.5006C143.431 69.3264 142.754 68.9336 142.353 68.0937C142.206 67.7836 141.951 67.6018 141.653 67.5976H141.641C141.55 67.5976 141.463 67.6149 141.378 67.6431C140.975 67.5335 139.754 65.9611 139.097 65.1145C138.556 64.4181 138.089 63.817 137.761 63.5047C137.436 63.1967 137.008 63.1341 136.585 63.3342C136.435 63.4048 136.292 63.513 136.157 63.6407C135.828 63.7595 134.693 63.1261 133.94 62.7054C133.187 62.2857 132.408 61.8512 131.696 61.6146C131.039 61.3954 130.42 61.6167 130.017 62.2003C129.955 62.18 129.897 62.1579 129.83 62.1408C129.555 62.0612 129.24 62.0007 128.904 61.9469C128.565 61.9017 128.207 61.8634 127.843 61.8655C127.663 61.8608 127.481 61.8713 127.303 61.8863C127.127 61.8929 126.948 61.9358 126.783 61.9591C126.615 62.006 126.455 62.0374 126.308 62.1006C126.162 62.1652 126.026 62.2158 125.914 62.302C125.858 62.3401 125.804 62.3768 125.754 62.411C125.708 62.4527 125.669 62.4982 125.631 62.5372C125.554 62.6143 125.491 62.6819 125.46 62.755C125.389 62.8856 125.348 62.9608 125.348 62.9608C125.348 62.9608 125.41 62.9038 125.518 62.8042C125.564 62.7504 125.643 62.7098 125.729 62.666C125.773 62.6445 125.816 62.6179 125.865 62.5972C125.917 62.5834 125.972 62.5688 126.029 62.5534C126.136 62.5146 126.268 62.5123 126.398 62.5003C126.527 62.4894 126.674 62.5109 126.814 62.5176C126.961 62.5473 127.106 62.5577 127.257 62.6037C127.406 62.6413 127.556 62.683 127.704 62.7386C128.297 62.9413 128.858 63.2497 129.224 63.5033C129.318 63.5656 129.395 63.6252 129.458 63.6787C129.542 63.7373 129.536 63.7591 129.554 63.777C129.582 63.8089 129.601 63.8303 129.62 63.852C129.655 64.1151 129.742 64.3498 129.9 64.5097C130.163 64.7739 130.536 64.8004 130.901 64.5787C131.629 64.1347 134.063 64.962 135.102 65.3166C135.196 65.3485 135.281 65.3768 135.363 65.4043C135.363 65.4119 135.361 65.4202 135.362 65.4278C135.396 65.8824 135.652 66.2156 136.066 66.3409C136.796 66.5627 139.026 67.8798 140.348 68.6891C140.342 68.7008 140.332 68.7179 140.327 68.7258C140.249 68.8774 140.241 69.0536 140.305 69.2216C140.49 69.7085 141.595 70.3193 142.739 70.8395C142.362 71.423 142.055 72.0544 141.821 72.7206C135.416 68.1727 117.371 61.0812 107.201 61.8761C103.796 62.1433 101.445 63.2655 100.212 65.2118L100 65.5465L100.109 65.9274C103.175 76.6563 111.624 80.3061 114.791 81.5764C114.497 82.9192 115.091 84.2594 116.505 85.3594C118.732 87.0912 122.694 88.1378 127.167 88.1374C130.81 88.1374 134.792 87.4424 138.449 85.858C138.262 86.0433 138.171 86.2741 138.208 86.5157C138.228 86.658 138.295 86.7826 138.379 86.8975C138.047 87.3459 136.546 88.3024 135.707 88.8359C134.963 89.3098 134.321 89.7188 133.979 90.0166C133.642 90.3108 133.54 90.7317 133.699 91.1711C133.721 91.2308 133.754 91.2899 133.785 91.3488C133.754 91.6991 132.747 92.4959 132.075 93.0263C131.398 93.5608 130.698 94.1136 130.206 94.6804C129.751 95.2033 129.719 95.8605 130.102 96.4554C130.059 96.5061 130.017 96.5507 129.976 96.6062C129.796 96.8287 129.62 97.0957 129.441 97.3857C129.269 97.6816 129.096 97.9979 128.959 98.3344C128.885 98.4984 128.825 98.671 128.771 98.8415C128.709 99.0063 128.68 99.1882 128.638 99.3492C128.617 99.5232 128.585 99.6822 128.587 99.8419C128.59 100.002 128.585 100.147 128.622 100.283C128.635 100.35 128.648 100.413 128.661 100.474C128.681 100.532 128.708 100.586 128.729 100.635C128.772 100.736 128.81 100.819 128.865 100.876C128.959 100.992 129.012 101.059 129.012 101.059C129.012 101.059 128.983 100.98 128.933 100.842C128.901 100.779 128.894 100.691 128.887 100.593C128.884 100.545 128.875 100.495 128.875 100.442C128.882 100.389 128.89 100.333 128.897 100.274C128.903 100.16 128.951 100.037 128.991 99.913C129.03 99.7888 129.106 99.6621 129.166 99.5347C129.25 99.4104 129.315 99.2811 129.416 99.1589C129.507 99.0356 129.603 98.9136 129.711 98.7977C130.127 98.3283 130.626 97.9285 131.001 97.6882C131.095 97.6246 131.179 97.5768 131.253 97.5389C131.34 97.4849 131.357 97.4986 131.38 97.4891C131.42 97.4753 131.446 97.4663 131.473 97.4573C131.599 97.4909 131.724 97.5138 131.842 97.5138C131.966 97.5138 132.083 97.4937 132.19 97.4501C132.535 97.3093 132.702 96.9741 132.637 96.5529C132.511 95.7331 134.526 93.4927 135.284 92.6497C135.319 92.6117 135.344 92.5828 135.376 92.5473C135.476 92.5694 135.575 92.5819 135.67 92.584C135.679 92.584 135.687 92.5844 135.696 92.5844C136.139 92.5844 136.484 92.3611 136.645 91.9684C136.957 91.2066 138.7 88.8257 139.589 87.6487C139.622 87.6574 139.658 87.6648 139.702 87.6648C140.093 87.6648 141.064 87.1313 144.658 82.5908C144.911 82.7939 145.177 82.9803 145.451 83.1554C144.736 84.0575 144.09 85.126 143.528 86.3393C141.836 87.3851 138.89 89.3318 138.691 90.3342C138.65 90.5395 138.692 90.738 138.808 90.8935C138.827 90.9182 138.87 90.975 138.933 91.0507C138.431 92.2579 136.214 97.5293 135.282 98.743C134.938 99.1911 134.92 99.7424 135.234 100.256C135.313 100.386 135.416 100.508 135.529 100.626C135.515 100.881 135.502 101.211 135.488 101.597C135.416 103.558 135.248 108.15 134.129 108.998C133.698 109.325 133.551 109.771 133.735 110.189C133.89 110.542 134.261 110.817 134.717 111.003C134.719 111.007 134.732 111.033 134.757 111.084C134.779 111.14 134.776 111.094 134.812 111.201C134.869 111.358 134.94 111.64 134.995 111.995C135.107 112.707 135.168 113.712 135.063 114.7C134.967 115.686 134.674 116.661 134.194 117.234C134.077 117.378 133.951 117.493 133.831 117.589C133.708 117.676 133.594 117.75 133.491 117.794C133.392 117.849 133.306 117.869 133.249 117.891C133.191 117.911 133.161 117.921 133.161 117.921C133.161 117.921 133.193 117.917 133.253 117.911C133.313 117.901 133.406 117.9 133.516 117.866C133.631 117.843 133.763 117.794 133.916 117.729C134.063 117.655 134.226 117.561 134.386 117.431C134.709 117.176 135.022 116.799 135.282 116.356C135.54 115.912 135.758 115.407 135.927 114.889C136.266 113.852 136.436 112.773 136.485 111.934C136.499 111.687 136.502 111.463 136.496 111.26C136.576 111.252 136.655 111.243 136.731 111.229C137.783 111.037 138.418 110.345 138.473 109.328C138.534 108.188 138.352 106.826 138.175 105.51C137.975 104.014 137.75 102.337 138.062 101.711C138.185 101.71 138.304 101.701 138.418 101.681C139.028 101.57 139.441 101.175 139.551 100.597C139.68 99.924 139.726 98.7495 139.779 97.3899C139.842 95.7776 139.955 92.908 140.334 92.137C140.459 92.1776 140.585 92.2026 140.711 92.2026C140.77 92.2026 140.83 92.1975 140.889 92.1868C141.1 92.1474 141.479 91.9958 141.643 91.4199C141.76 91.011 141.923 90.6554 142.106 90.3425C142.072 90.4682 142.037 90.5928 142.005 90.7198C142 90.7214 141.995 90.7227 141.991 90.7241L141.998 90.7491C141.317 93.4496 140.942 96.4902 140.942 99.6711C140.942 110.202 149.745 119.959 150.12 120.369L150.772 121.083L151.425 120.369C151.8 119.959 160.603 110.202 160.603 99.6711C160.603 97.0246 160.334 94.4702 159.848 92.1241C159.922 92.1569 159.991 92.1763 160.047 92.1868C160.106 92.1975 160.165 92.2026 160.225 92.2026C160.351 92.2026 160.477 92.1776 160.601 92.137C160.981 92.9089 161.094 95.7781 161.157 97.3899C161.21 98.7495 161.256 99.924 161.385 100.597C161.495 101.175 161.908 101.57 162.518 101.681C162.631 101.701 162.751 101.71 162.873 101.711C163.185 102.337 162.961 104.014 162.76 105.51C162.584 106.826 162.401 108.188 162.462 109.328C162.518 110.345 163.153 111.037 164.204 111.229C164.28 111.243 164.36 111.252 164.44 111.26C164.434 111.463 164.437 111.687 164.451 111.934C164.5 112.773 164.669 113.852 165.009 114.889C165.179 115.407 165.395 115.912 165.654 116.356C165.914 116.799 166.228 117.176 166.549 117.431C166.711 117.561 166.873 117.655 167.02 117.729C167.172 117.794 167.305 117.843 167.42 117.866C167.53 117.9 167.623 117.901 167.683 117.911C167.743 117.917 167.776 117.921 167.776 117.921C167.776 117.921 167.745 117.911 167.687 117.891C167.63 117.869 167.544 117.849 167.445 117.794C167.342 117.75 167.228 117.676 167.104 117.589C166.985 117.493 166.859 117.378 166.742 117.234C166.262 116.661 165.969 115.686 165.872 114.7C165.769 113.712 165.829 112.707 165.941 111.995C165.995 111.64 166.067 111.358 166.124 111.201C166.16 111.094 166.156 111.14 166.178 111.084C166.204 111.033 166.216 111.007 166.219 111.003C166.675 110.817 167.046 110.542 167.2 110.189C167.385 109.771 167.238 109.325 166.807 108.998C165.688 108.15 165.52 103.558 165.448 101.597C165.434 101.211 165.421 100.881 165.407 100.626C165.52 100.508 165.623 100.386 165.702 100.256C166.015 99.7424 165.998 99.1911 165.653 98.743C164.722 97.5293 162.505 92.2579 162.002 91.0507C162.065 90.975 162.109 90.9182 162.127 90.8935C162.244 90.738 162.285 90.5395 162.245 90.3342C162.075 89.4822 159.921 87.9482 158.239 86.8641C157.522 85.1946 156.659 83.7723 155.681 82.6669C155.741 82.6199 155.806 82.5778 155.865 82.5292C156.214 82.8381 156.571 83.1305 156.934 83.4116C159.993 87.1973 160.868 87.6648 161.233 87.6648C161.278 87.6648 161.314 87.6574 161.346 87.6487C162.235 88.8253 163.979 91.2059 164.291 91.9684C164.451 92.3611 164.796 92.5844 165.239 92.5844C165.248 92.5844 165.257 92.584 165.266 92.584C165.361 92.5819 165.459 92.5694 165.56 92.5473C165.592 92.5828 165.617 92.6117 165.651 92.6497C166.41 93.4927 168.425 95.7331 168.299 96.5529C168.234 96.9741 168.401 97.3093 168.746 97.4501C168.852 97.4937 168.97 97.5138 169.093 97.5138C169.212 97.5138 169.337 97.4909 169.463 97.4573C169.49 97.4663 169.516 97.4753 169.555 97.4891C169.579 97.4986 169.596 97.4849 169.683 97.5389C169.756 97.5768 169.841 97.6246 169.934 97.6882C170.31 97.9285 170.809 98.3283 171.225 98.7977C171.333 98.9136 171.428 99.0356 171.52 99.1589C171.621 99.2811 171.686 99.4104 171.77 99.5347C171.83 99.6621 171.906 99.7888 171.945 99.913C171.984 100.037 172.033 100.16 172.038 100.274C172.046 100.333 172.053 100.389 172.061 100.442C172.06 100.495 172.052 100.545 172.049 100.593C172.042 100.691 172.035 100.779 172.002 100.842C171.953 100.98 171.924 101.059 171.924 101.059C171.924 101.059 171.977 100.992 172.07 100.876C172.126 100.819 172.164 100.736 172.207 100.635C172.228 100.586 172.255 100.532 172.275 100.474C172.288 100.413 172.3 100.35 172.314 100.283C172.351 100.147 172.346 100.002 172.349 99.8419C172.351 99.6822 172.319 99.5232 172.298 99.3492C172.255 99.1882 172.227 99.0063 172.165 98.8415C172.111 98.671 172.05 98.4984 171.977 98.3344C171.839 97.9979 171.666 97.6816 171.495 97.3857C171.316 97.0957 171.139 96.8287 170.961 96.6062C170.919 96.5507 170.876 96.5061 170.834 96.4554C171.218 95.8605 171.184 95.2033 170.73 94.6804C170.238 94.1136 169.538 93.5608 168.861 93.0263C168.188 92.4959 167.181 91.6991 167.151 91.3488C167.182 91.2899 167.215 91.2308 167.236 91.1711C167.396 90.7317 167.294 90.3108 166.957 90.0166C166.615 89.7188 165.973 89.3098 165.228 88.8359C164.382 88.2975 162.859 87.3272 162.55 86.907C162.611 86.8258 162.656 86.7376 162.688 86.6421C165.888 87.8757 169.229 88.3873 172.322 88.3873C177.097 88.3868 181.277 87.1671 183.414 85.5047C184.893 84.3539 185.518 82.9614 185.21 81.5759C188.379 80.3056 196.826 76.656 199.891 65.9274L200 65.5465L199.788 65.2123Z" fill="#FBDE99"/>
<line x1="100" y1="200.5" x2="200" y2="200.5" stroke="black"/>
</svg>
