<svg width="300" height="300" viewBox="0 0 300 300" fill="none" xmlns="http://www.w3.org/2000/svg">
<rect width="300" height="300" rx="50" fill="white"/>
<path d="M124.824 246.929L121.619 241.591V244.902H122.557V246.923H118.771V244.902H119.709V239.616H118.771V237.595H122.961L126.178 242.933V239.616H125.24V237.595H129.025V239.616H128.088V246.923L124.824 246.929ZM134.457 247.093C133.492 247.093 132.658 246.9 131.955 246.513C131.256 246.122 130.717 245.566 130.338 244.843C129.959 244.12 129.77 243.263 129.77 242.271C129.77 241.271 129.959 240.409 130.338 239.687C130.717 238.96 131.256 238.402 131.955 238.011C132.658 237.62 133.492 237.425 134.457 237.425C135.426 237.425 136.26 237.62 136.959 238.011C137.658 238.402 138.197 238.96 138.576 239.687C138.955 240.409 139.145 241.271 139.145 242.271C139.145 243.263 138.955 244.12 138.576 244.843C138.197 245.566 137.658 246.122 136.959 246.513C136.26 246.9 135.426 247.093 134.457 247.093ZM134.457 245.072C134.895 245.072 135.23 244.833 135.465 244.357C135.699 243.88 135.816 243.179 135.816 242.253C135.816 241.327 135.699 240.626 135.465 240.15C135.23 239.673 134.895 239.435 134.457 239.435C134.02 239.435 133.684 239.673 133.449 240.15C133.215 240.626 133.098 241.327 133.098 242.253C133.098 243.179 133.215 243.88 133.449 244.357C133.684 244.833 134.02 245.072 134.457 245.072ZM142.543 246.923L140.234 239.616H139.385V237.595H144.652V239.616H143.686L145.18 244.849L146.674 239.616H145.707V237.595H149.604V239.616H148.754L146.451 246.923H142.543ZM152.727 246.923V245.253C153.871 244.808 154.752 244.284 155.369 243.683C155.99 243.081 156.301 242.45 156.301 241.79C156.301 241.419 156.223 241.122 156.066 240.9C155.91 240.677 155.676 240.566 155.363 240.566C155.039 240.566 154.791 240.675 154.619 240.894C154.451 241.109 154.367 241.388 154.367 241.732C154.367 241.923 154.391 242.099 154.438 242.259C154.488 242.419 154.566 242.597 154.672 242.792L153.178 243.384C152.986 243.193 152.832 242.939 152.715 242.622C152.598 242.306 152.539 241.972 152.539 241.62C152.539 241.027 152.686 240.527 152.979 240.12C153.275 239.714 153.674 239.407 154.174 239.2C154.678 238.99 155.242 238.884 155.867 238.884C156.512 238.884 157.074 238.988 157.555 239.195C158.039 239.398 158.414 239.697 158.68 240.091C158.949 240.486 159.084 240.964 159.084 241.527C159.084 242.214 158.836 242.851 158.34 243.437C157.848 244.023 157.105 244.511 156.113 244.902H159.277L159.307 246.923H152.727ZM163.619 247.075C162.873 247.075 162.229 246.911 161.686 246.583C161.143 246.251 160.725 245.781 160.432 245.171C160.139 244.562 159.992 243.835 159.992 242.991C159.992 242.144 160.139 241.413 160.432 240.8C160.725 240.187 161.141 239.714 161.68 239.382C162.223 239.05 162.869 238.884 163.619 238.884C164.369 238.884 165.016 239.05 165.559 239.382C166.102 239.714 166.518 240.187 166.807 240.8C167.1 241.413 167.246 242.144 167.246 242.991C167.246 243.835 167.1 244.562 166.807 245.171C166.514 245.781 166.096 246.251 165.553 246.583C165.014 246.911 164.369 247.075 163.619 247.075ZM163.619 245.2C164.264 245.2 164.586 244.458 164.586 242.974C164.586 241.49 164.264 240.747 163.619 240.747C162.975 240.747 162.652 241.49 162.652 242.974C162.652 244.458 162.975 245.2 163.619 245.2ZM168.242 246.923V245.253C169.387 244.808 170.268 244.284 170.885 243.683C171.506 243.081 171.816 242.45 171.816 241.79C171.816 241.419 171.738 241.122 171.582 240.9C171.426 240.677 171.191 240.566 170.879 240.566C170.555 240.566 170.307 240.675 170.135 240.894C169.967 241.109 169.883 241.388 169.883 241.732C169.883 241.923 169.906 242.099 169.953 242.259C170.004 242.419 170.082 242.597 170.188 242.792L168.693 243.384C168.502 243.193 168.348 242.939 168.23 242.622C168.113 242.306 168.055 241.972 168.055 241.62C168.055 241.027 168.201 240.527 168.494 240.12C168.791 239.714 169.189 239.407 169.689 239.2C170.193 238.99 170.758 238.884 171.383 238.884C172.027 238.884 172.59 238.988 173.07 239.195C173.555 239.398 173.93 239.697 174.195 240.091C174.465 240.486 174.6 240.964 174.6 241.527C174.6 242.214 174.352 242.851 173.855 243.437C173.363 244.023 172.621 244.511 171.629 244.902H174.793L174.822 246.923H168.242ZM178.432 247.087C178.088 247.087 177.738 247.06 177.383 247.005C177.027 246.95 176.697 246.874 176.393 246.777C176.088 246.675 175.836 246.56 175.637 246.431V244.673L175.795 244.603C176.045 244.79 176.352 244.947 176.715 245.072C177.078 245.197 177.514 245.259 178.021 245.259C178.412 245.259 178.746 245.197 179.023 245.072C179.301 244.943 179.439 244.724 179.439 244.415C179.439 244.103 179.301 243.882 179.023 243.753C178.75 243.624 178.428 243.56 178.057 243.56C177.92 243.56 177.764 243.57 177.588 243.589C177.412 243.605 177.24 243.634 177.072 243.677L176.914 243.607V242.704L179.129 241.023H175.631V239.001H181.906V240.613L179.779 242.212C180.537 242.314 181.133 242.554 181.566 242.933C182.004 243.308 182.223 243.82 182.223 244.468C182.223 245.269 181.898 245.906 181.25 246.378C180.605 246.851 179.666 247.087 178.432 247.087Z" fill="#5B3E22"/>
<path d="M104.034 200L106.632 194.985H105.069L104.947 196.108L103.629 196.104V193.398H109.356V194.79L106.817 200H104.034ZM110.519 200.132C110.105 200.132 109.773 200.02 109.522 199.795C109.272 199.57 109.146 199.268 109.146 198.887C109.146 198.509 109.272 198.211 109.522 197.993C109.773 197.775 110.105 197.666 110.519 197.666C110.935 197.666 111.267 197.775 111.515 197.993C111.765 198.211 111.891 198.509 111.891 198.887C111.891 199.268 111.765 199.57 111.515 199.795C111.264 200.02 110.932 200.132 110.519 200.132ZM115.416 200.137C114.449 200.137 113.697 199.961 113.16 199.609C112.623 199.255 112.354 198.774 112.354 198.169C112.354 197.808 112.444 197.502 112.623 197.251C112.802 196.997 113.058 196.795 113.39 196.646C112.895 196.336 112.647 195.877 112.647 195.269C112.647 194.868 112.76 194.521 112.984 194.229C113.212 193.932 113.533 193.704 113.946 193.545C114.363 193.382 114.853 193.301 115.416 193.301C115.979 193.301 116.467 193.382 116.881 193.545C117.298 193.704 117.618 193.932 117.843 194.229C118.071 194.521 118.185 194.868 118.185 195.269C118.185 195.877 117.937 196.336 117.442 196.646C117.774 196.795 118.03 196.997 118.209 197.251C118.388 197.502 118.478 197.808 118.478 198.169C118.478 198.774 118.209 199.255 117.672 199.609C117.135 199.961 116.383 200.137 115.416 200.137ZM115.416 196.201C115.637 196.201 115.816 196.13 115.953 195.986C116.09 195.843 116.158 195.654 116.158 195.42C116.158 195.186 116.09 194.997 115.953 194.854C115.816 194.71 115.637 194.639 115.416 194.639C115.195 194.639 115.016 194.71 114.879 194.854C114.742 194.997 114.674 195.186 114.674 195.42C114.674 195.654 114.742 195.843 114.879 195.986C115.016 196.13 115.195 196.201 115.416 196.201ZM115.416 198.799C115.715 198.799 115.955 198.729 116.134 198.589C116.313 198.446 116.402 198.255 116.402 198.018C116.402 197.783 116.311 197.594 116.129 197.451C115.95 197.308 115.712 197.236 115.416 197.236C115.12 197.236 114.881 197.308 114.698 197.451C114.519 197.594 114.43 197.783 114.43 198.018C114.43 198.255 114.519 198.446 114.698 198.589C114.881 198.729 115.12 198.799 115.416 198.799ZM122.921 197.031C122.543 197.031 122.215 196.951 121.935 196.792C121.658 196.632 121.443 196.413 121.29 196.133C121.14 195.85 121.065 195.529 121.065 195.171C121.065 194.81 121.14 194.489 121.29 194.209C121.443 193.926 121.658 193.704 121.935 193.545C122.215 193.382 122.543 193.301 122.921 193.301C123.299 193.301 123.626 193.382 123.902 193.545C124.182 193.704 124.397 193.926 124.547 194.209C124.7 194.489 124.776 194.81 124.776 195.171C124.776 195.529 124.7 195.85 124.547 196.133C124.397 196.413 124.182 196.632 123.902 196.792C123.626 196.951 123.299 197.031 122.921 197.031ZM122.594 200L126.568 193.398H128.131L124.156 200H122.594ZM122.921 195.996C123.041 195.996 123.136 195.924 123.204 195.781C123.276 195.635 123.312 195.428 123.312 195.161C123.312 194.894 123.276 194.691 123.204 194.551C123.136 194.408 123.041 194.336 122.921 194.336C122.8 194.336 122.704 194.408 122.633 194.551C122.564 194.691 122.53 194.894 122.53 195.161C122.53 195.428 122.564 195.635 122.633 195.781C122.704 195.924 122.8 195.996 122.921 195.996ZM127.804 200.127C127.426 200.127 127.097 200.047 126.817 199.888C126.541 199.728 126.326 199.508 126.173 199.229C126.023 198.949 125.948 198.628 125.948 198.267C125.948 197.905 126.023 197.585 126.173 197.305C126.326 197.021 126.541 196.8 126.817 196.641C127.097 196.478 127.426 196.396 127.804 196.396C128.181 196.396 128.508 196.478 128.785 196.641C129.065 196.8 129.28 197.021 129.43 197.305C129.583 197.585 129.659 197.905 129.659 198.267C129.659 198.628 129.583 198.949 129.43 199.229C129.28 199.508 129.065 199.728 128.785 199.888C128.508 200.047 128.181 200.127 127.804 200.127ZM127.804 199.092C127.924 199.092 128.019 199.02 128.087 198.877C128.159 198.73 128.194 198.524 128.194 198.257C128.194 197.99 128.159 197.786 128.087 197.646C128.019 197.503 127.924 197.432 127.804 197.432C127.683 197.432 127.587 197.503 127.516 197.646C127.447 197.786 127.413 197.99 127.413 198.257C127.413 198.524 127.447 198.73 127.516 198.877C127.587 199.02 127.683 199.092 127.804 199.092ZM131.998 200V198.315H132.706L134.166 193.911H133.116V192.227H137.94L139.767 198.315H140.475V200H136.095V198.315H136.9L136.676 197.461H134.664L134.41 198.315H135.216V200H131.998ZM135.025 196.24H136.354L135.733 193.867L135.025 196.24ZM140.895 200V198.315H141.676V193.911H140.895V192.227H145.289V193.911H144.215V198.34H145.807L146.002 196.519H147.613V200H140.895ZM152.462 200.142C151.58 200.142 150.815 199.972 150.167 199.634C149.522 199.295 149.024 198.812 148.673 198.184C148.321 197.555 148.146 196.808 148.146 195.942C148.146 195.321 148.237 194.771 148.419 194.292C148.604 193.813 148.858 193.41 149.181 193.081C149.506 192.752 149.879 192.505 150.299 192.339C150.719 192.17 151.165 192.085 151.637 192.085C152.132 192.085 152.56 192.163 152.921 192.319C153.282 192.476 153.58 192.703 153.814 193.003L154.063 192.227H155.406V195.459H153.624C153.598 194.834 153.474 194.403 153.253 194.165C153.035 193.927 152.748 193.809 152.394 193.809C152.133 193.809 151.889 193.882 151.661 194.028C151.437 194.175 151.254 194.399 151.114 194.702C150.978 195.005 150.909 195.392 150.909 195.864C150.909 196.561 151.09 197.095 151.451 197.466C151.816 197.834 152.327 198.018 152.984 198.018C153.372 198.018 153.751 197.952 154.122 197.822C154.493 197.692 154.838 197.492 155.157 197.222L155.289 197.28V199.341C154.911 199.618 154.465 199.821 153.951 199.951C153.44 200.078 152.944 200.142 152.462 200.142ZM157.374 200.132C156.961 200.132 156.629 200.02 156.378 199.795C156.127 199.57 156.002 199.268 156.002 198.887C156.002 198.509 156.127 198.211 156.378 197.993C156.629 197.775 156.961 197.666 157.374 197.666C157.791 197.666 158.123 197.775 158.37 197.993C158.621 198.211 158.746 198.509 158.746 198.887C158.746 199.268 158.621 199.57 158.37 199.795C158.119 200.02 157.787 200.132 157.374 200.132ZM161.051 200L162.716 192.227H165.108L163.443 200H161.051ZM169.972 200L168.048 193.911H167.34V192.227H171.729V193.911H170.924L172.169 198.271L173.414 193.911H172.608V192.227H175.855V193.911H175.147L173.229 200H169.972ZM179.962 200.142C179.158 200.142 178.463 199.98 177.877 199.658C177.294 199.333 176.845 198.869 176.529 198.267C176.214 197.664 176.056 196.95 176.056 196.123C176.056 195.29 176.214 194.572 176.529 193.97C176.845 193.364 177.294 192.899 177.877 192.573C178.463 192.248 179.158 192.085 179.962 192.085C180.769 192.085 181.464 192.248 182.047 192.573C182.63 192.899 183.079 193.364 183.395 193.97C183.71 194.572 183.868 195.29 183.868 196.123C183.868 196.95 183.71 197.664 183.395 198.267C183.079 198.869 182.63 199.333 182.047 199.658C181.464 199.98 180.769 200.142 179.962 200.142ZM179.962 198.457C180.326 198.457 180.606 198.258 180.802 197.861C180.997 197.464 181.095 196.88 181.095 196.108C181.095 195.337 180.997 194.753 180.802 194.355C180.606 193.958 180.326 193.76 179.962 193.76C179.597 193.76 179.317 193.958 179.122 194.355C178.927 194.753 178.829 195.337 178.829 196.108C178.829 196.88 178.927 197.464 179.122 197.861C179.317 198.258 179.597 198.457 179.962 198.457ZM184.537 200V198.315H185.318V193.911H184.537V192.227H188.932V193.911H187.857V198.34H189.449L189.645 196.519H191.256V200H184.537ZM193.097 200.132C192.683 200.132 192.351 200.02 192.101 199.795C191.85 199.57 191.725 199.268 191.725 198.887C191.725 198.509 191.85 198.211 192.101 197.993C192.351 197.775 192.683 197.666 193.097 197.666C193.513 197.666 193.845 197.775 194.093 197.993C194.343 198.211 194.469 198.509 194.469 198.887C194.469 199.268 194.343 199.57 194.093 199.795C193.842 200.02 193.51 200.132 193.097 200.132ZM112.052 216V214.438H112.979V211.557H111.954V210.126L115.299 209.301V214.438H116.056V216H112.052ZM116.788 216V214.608C117.742 214.237 118.476 213.801 118.99 213.3C119.508 212.799 119.767 212.273 119.767 211.723C119.767 211.413 119.701 211.166 119.571 210.98C119.441 210.795 119.246 210.702 118.985 210.702C118.715 210.702 118.508 210.793 118.365 210.976C118.225 211.155 118.155 211.387 118.155 211.674C118.155 211.833 118.175 211.98 118.214 212.113C118.256 212.247 118.321 212.395 118.409 212.558L117.164 213.051C117.005 212.891 116.876 212.68 116.778 212.416C116.681 212.152 116.632 211.874 116.632 211.581C116.632 211.086 116.754 210.67 116.998 210.331C117.245 209.993 117.577 209.737 117.994 209.564C118.414 209.389 118.884 209.301 119.405 209.301C119.942 209.301 120.411 209.387 120.812 209.56C121.215 209.729 121.528 209.978 121.749 210.307C121.974 210.635 122.086 211.034 122.086 211.503C122.086 212.076 121.879 212.606 121.466 213.095C121.056 213.583 120.437 213.99 119.61 214.315H122.247L122.271 216H116.788ZM124.859 216V214.315H125.641V209.911H124.859V208.227H131.676V211.459H130.064L129.894 209.887H128.121V211.205H129.391V212.865H128.121V214.315H129.537V216H124.859ZM132.164 216V214.315H132.945V209.911H132.164V208.227H136.559V209.911H135.484V214.34H137.076L137.271 212.519H138.883V216H132.164ZM140.724 216.132C140.31 216.132 139.978 216.02 139.728 215.795C139.477 215.57 139.352 215.268 139.352 214.887C139.352 214.509 139.477 214.211 139.728 213.993C139.978 213.775 140.31 213.666 140.724 213.666C141.14 213.666 141.472 213.775 141.72 213.993C141.97 214.211 142.096 214.509 142.096 214.887C142.096 215.268 141.97 215.57 141.72 215.795C141.469 216.02 141.137 216.132 140.724 216.132ZM148.565 216.142C147.761 216.142 147.066 215.98 146.48 215.658C145.898 215.333 145.449 214.869 145.133 214.267C144.817 213.664 144.659 212.95 144.659 212.123C144.659 211.29 144.817 210.572 145.133 209.97C145.449 209.364 145.898 208.899 146.48 208.573C147.066 208.248 147.761 208.085 148.565 208.085C149.373 208.085 150.068 208.248 150.65 208.573C151.233 208.899 151.682 209.364 151.998 209.97C152.314 210.572 152.472 211.29 152.472 212.123C152.472 212.95 152.314 213.664 151.998 214.267C151.682 214.869 151.233 215.333 150.65 215.658C150.068 215.98 149.373 216.142 148.565 216.142ZM148.565 214.457C148.93 214.457 149.21 214.258 149.405 213.861C149.601 213.464 149.698 212.88 149.698 212.108C149.698 211.337 149.601 210.753 149.405 210.355C149.21 209.958 148.93 209.76 148.565 209.76C148.201 209.76 147.921 209.958 147.726 210.355C147.53 210.753 147.433 211.337 147.433 212.108C147.433 212.88 147.53 213.464 147.726 213.861C147.921 214.258 148.201 214.457 148.565 214.457ZM157.203 216.142C156.106 216.142 155.255 215.865 154.649 215.312C154.047 214.758 153.746 213.873 153.746 212.655V209.911H152.965V208.227H157.091V209.911H156.285V212.66C156.285 213.689 156.712 214.203 157.564 214.203C157.971 214.203 158.274 214.07 158.473 213.803C158.674 213.536 158.775 213.155 158.775 212.66V209.911H157.97V208.227H161.188V209.911H160.406V212.851C160.406 215.045 159.339 216.142 157.203 216.142ZM166.778 216.005L164.107 211.557V214.315H164.889V216H161.734V214.315H162.516V209.911H161.734V208.227H165.226L167.906 212.675V209.911H167.125V208.227H170.279V209.911H169.498V216L166.778 216.005ZM175.216 216.142C174.334 216.142 173.569 215.972 172.921 215.634C172.276 215.295 171.778 214.812 171.427 214.184C171.075 213.555 170.899 212.808 170.899 211.942C170.899 211.321 170.991 210.771 171.173 210.292C171.358 209.813 171.612 209.41 171.935 209.081C172.26 208.752 172.633 208.505 173.053 208.339C173.473 208.17 173.919 208.085 174.391 208.085C174.885 208.085 175.313 208.163 175.675 208.319C176.036 208.476 176.334 208.703 176.568 209.003L176.817 208.227H178.16V211.459H176.378C176.352 210.834 176.228 210.403 176.007 210.165C175.789 209.927 175.502 209.809 175.147 209.809C174.887 209.809 174.643 209.882 174.415 210.028C174.19 210.175 174.008 210.399 173.868 210.702C173.731 211.005 173.663 211.392 173.663 211.864C173.663 212.561 173.844 213.095 174.205 213.466C174.57 213.834 175.081 214.018 175.738 214.018C176.126 214.018 176.505 213.952 176.876 213.822C177.247 213.692 177.592 213.492 177.911 213.222L178.043 213.28V215.341C177.665 215.618 177.219 215.821 176.705 215.951C176.194 216.078 175.698 216.142 175.216 216.142ZM178.922 216V214.315H179.703V209.911H178.922V208.227H185.836V211.317H184.225L184.054 209.887H182.184V211.205H183.502V212.865H182.184V214.34H184.054L184.225 212.694H185.836V216H178.922Z" fill="#5B3E22"/>
<path d="M107.844 91V86.4517H109.953V74.5601H107.844V70.0117H119.221C122.034 70.0117 124.156 70.4951 125.589 71.4619C127.03 72.4287 127.751 73.8701 127.751 75.7861C127.751 76.7969 127.5 77.6934 127 78.4756C126.507 79.2578 125.791 79.8555 124.851 80.2686C125.861 80.6729 126.657 81.2837 127.237 82.1011C127.817 82.9097 128.107 83.8809 128.107 85.0146C128.107 86.9395 127.404 88.4204 125.998 89.4575C124.591 90.4858 122.579 91 119.959 91H107.844ZM118.417 74.4282H116.65V78.4624H118.417C120.052 78.4624 120.869 77.79 120.869 76.4453C120.869 75.1006 120.052 74.4282 118.417 74.4282ZM116.65 86.5835H118.694C120.381 86.5835 121.225 85.8408 121.225 84.3555C121.225 82.8701 120.381 82.1274 118.694 82.1274H116.65V86.5835ZM129.887 91V86.4517H131.996V74.5601H129.887V70.0117H148.555V78.3569H144.204L143.743 74.4941H138.693V78.0537H142.253V82.5361H138.693V86.5176H143.743L144.204 82.0747H148.555V91H129.887ZM162.094 91.3823C160.424 91.3823 159.044 91.1626 157.955 90.7231C156.865 90.2749 155.995 89.6772 155.344 88.9302L154.672 91H151.046V83.9336H155.964C156.131 84.9531 156.641 85.7925 157.493 86.4517C158.346 87.1021 159.422 87.4272 160.723 87.4272C161.435 87.4272 161.984 87.2866 162.371 87.0054C162.758 86.7153 162.951 86.3198 162.951 85.8188C162.951 85.2739 162.736 84.8608 162.305 84.5796C161.875 84.2983 161.303 84.0786 160.591 83.9204C159.879 83.7622 159.097 83.6084 158.245 83.459C157.392 83.3096 156.54 83.103 155.687 82.8394C154.834 82.5757 154.052 82.189 153.34 81.6792C152.628 81.1694 152.057 80.4795 151.626 79.6094C151.196 78.7305 150.98 77.6055 150.98 76.2344C150.98 74.9072 151.297 73.7471 151.93 72.7539C152.571 71.7607 153.49 70.9873 154.685 70.4336C155.88 69.8799 157.313 69.603 158.983 69.603C160.477 69.603 161.725 69.8184 162.727 70.249C163.729 70.6797 164.546 71.2905 165.179 72.0815L165.852 70.0117H169.477V76.8145H164.454C164.199 75.7686 163.689 74.9644 162.925 74.4019C162.169 73.8394 161.29 73.5581 160.288 73.5581C159.576 73.5581 159.009 73.6943 158.587 73.9668C158.166 74.2305 157.955 74.6216 157.955 75.1401C157.955 75.6235 158.17 75.9927 158.601 76.2476C159.031 76.5024 159.603 76.709 160.314 76.8672C161.026 77.0254 161.809 77.188 162.661 77.355C163.514 77.522 164.366 77.7505 165.219 78.0405C166.071 78.3306 166.854 78.7393 167.565 79.2666C168.277 79.7852 168.849 80.4795 169.279 81.3496C169.71 82.2197 169.925 83.3228 169.925 84.6587C169.925 86.7505 169.231 88.394 167.842 89.5894C166.454 90.7847 164.538 91.3823 162.094 91.3823ZM174.777 91V86.4517H178.6V74.2964H176.24L175.713 78.7393H171.362V70.0117H192.693V78.7393H188.343L187.815 74.2964H185.456V86.4517H189.279V91H174.777Z" fill="#5B3E22"/>
<path d="M103.97 132L100.833 121.649H99.6289V118.785H107.05V121.649H105.68L107.357 127.924L109.997 118.785H113.259L115.799 128.016L117.542 121.649H116.164V118.785H121.659V121.649H120.456L117.318 132H112.553L110.702 125.783L108.818 132H103.97ZM122.265 132V129.136H123.676V121.649H122.265V118.785H129.404V121.649H127.993V129.136H129.404V132H122.265ZM132.384 132V129.136H134.791V121.483H133.305L132.973 124.28H130.234V118.785H143.665V124.28H140.925L140.593 121.483H139.107V129.136H141.515V132H132.384ZM151.857 132.241C150.358 132.241 149.057 131.953 147.956 131.377C146.86 130.802 146.014 129.98 145.416 128.912C144.818 127.844 144.52 126.574 144.52 125.102C144.52 124.045 144.674 123.11 144.984 122.296C145.3 121.483 145.731 120.797 146.279 120.238C146.833 119.679 147.466 119.258 148.18 118.976C148.894 118.688 149.652 118.544 150.455 118.544C151.296 118.544 152.023 118.677 152.638 118.943C153.252 119.208 153.758 119.596 154.157 120.105L154.58 118.785H156.863V124.28H153.833C153.789 123.218 153.578 122.485 153.202 122.081C152.831 121.677 152.344 121.475 151.741 121.475C151.299 121.475 150.883 121.599 150.496 121.848C150.114 122.097 149.804 122.479 149.566 122.994C149.334 123.508 149.218 124.167 149.218 124.969C149.218 126.153 149.525 127.061 150.139 127.692C150.759 128.317 151.628 128.63 152.746 128.63C153.404 128.63 154.049 128.519 154.68 128.298C155.311 128.076 155.897 127.736 156.439 127.277L156.664 127.376V130.879C156.022 131.35 155.264 131.696 154.389 131.917C153.52 132.133 152.676 132.241 151.857 132.241ZM158.158 132V129.136H159.486V121.649H158.158V118.785H164.823V121.649H163.703V123.973H167.189V121.649H166.068V118.785H172.734V121.649H171.406V129.136H172.734V132H166.068V129.136H167.189V126.696H163.703V129.136H164.823V132H158.158ZM173.796 132V129.136H175.125V121.649H173.796V118.785H185.55V124.04H182.811L182.521 121.607H179.341V123.849H181.583V126.671H179.341V129.178H182.521L182.811 126.38H185.55V132H173.796ZM194.075 132.241C193.024 132.241 192.155 132.102 191.469 131.826C190.783 131.543 190.235 131.167 189.825 130.697L189.402 132H187.119V127.551H190.215C190.32 128.193 190.641 128.721 191.178 129.136C191.715 129.546 192.393 129.75 193.212 129.75C193.66 129.75 194.006 129.662 194.25 129.485C194.493 129.302 194.615 129.053 194.615 128.738C194.615 128.395 194.479 128.135 194.208 127.958C193.937 127.78 193.577 127.642 193.129 127.542C192.681 127.443 192.188 127.346 191.651 127.252C191.115 127.158 190.578 127.028 190.041 126.862C189.504 126.696 189.012 126.452 188.563 126.131C188.115 125.81 187.756 125.376 187.484 124.828C187.213 124.275 187.078 123.566 187.078 122.703C187.078 121.868 187.277 121.137 187.675 120.512C188.079 119.886 188.658 119.399 189.41 119.051C190.163 118.702 191.065 118.528 192.116 118.528C193.057 118.528 193.843 118.663 194.474 118.935C195.104 119.206 195.619 119.59 196.018 120.088L196.441 118.785H198.724V123.068H195.561C195.401 122.41 195.08 121.903 194.598 121.549C194.122 121.195 193.569 121.018 192.938 121.018C192.49 121.018 192.133 121.104 191.867 121.275C191.602 121.441 191.469 121.688 191.469 122.014C191.469 122.319 191.604 122.551 191.875 122.711C192.147 122.872 192.506 123.002 192.955 123.102C193.403 123.201 193.895 123.304 194.432 123.409C194.969 123.514 195.506 123.658 196.042 123.84C196.579 124.023 197.072 124.28 197.52 124.612C197.968 124.939 198.328 125.376 198.599 125.924C198.87 126.472 199.006 127.166 199.006 128.007C199.006 129.324 198.569 130.359 197.694 131.112C196.82 131.864 195.614 132.241 194.075 132.241ZM117.999 159V156.136H119.327V148.649H117.999V145.785H125.162C126.933 145.785 128.269 146.09 129.171 146.698C130.079 147.307 130.533 148.215 130.533 149.421C130.533 150.057 130.375 150.622 130.06 151.114C129.75 151.607 129.299 151.983 128.707 152.243C129.343 152.498 129.844 152.882 130.209 153.397C130.574 153.906 130.757 154.518 130.757 155.231C130.757 156.443 130.314 157.376 129.429 158.029C128.543 158.676 127.276 159 125.627 159H117.999ZM124.656 148.566H123.543V151.106H124.656C125.685 151.106 126.2 150.683 126.2 149.836C126.2 148.989 125.685 148.566 124.656 148.566ZM123.543 156.219H124.83C125.893 156.219 126.424 155.752 126.424 154.816C126.424 153.881 125.893 153.414 124.83 153.414H123.543V156.219ZM131.877 159V156.136H133.206V148.649H131.877V145.785H139.506C141.155 145.785 142.422 146.095 143.308 146.715C144.193 147.329 144.636 148.231 144.636 149.421C144.636 150.19 144.445 150.829 144.063 151.338C143.681 151.847 143.164 152.21 142.511 152.426C143.031 152.597 143.416 152.866 143.665 153.231C143.919 153.596 144.052 154.042 144.063 154.567L144.08 155.256C144.091 155.55 144.154 155.771 144.271 155.92C144.392 156.064 144.597 156.136 144.885 156.136H145.765V159H142.876C141.819 159 141.036 158.757 140.527 158.27C140.023 157.777 139.766 157.058 139.755 156.111L139.738 155.007C139.722 154.122 139.312 153.679 138.51 153.679H137.422V156.136H138.543V159H131.877ZM138.709 148.566H137.422V151.372H138.709C139.771 151.372 140.303 150.904 140.303 149.969C140.303 149.034 139.771 148.566 138.709 148.566ZM146.42 159V156.136H147.749V148.649H146.42V145.785H158.174V151.04H155.435L155.145 148.607H151.965V150.849H154.207V153.671H151.965V156.178H155.145L155.435 153.38H158.174V159H146.42ZM163.686 159L160.548 148.649H159.345V145.785H166.766V148.649H165.396L167.073 154.924L169.712 145.785H172.975L175.515 155.016L177.258 148.649H175.88V145.785H181.375V148.649H180.171L177.034 159H172.269L170.418 152.783L168.534 159H163.686Z" fill="#5B3E22"/>
<path d="M150 3.8554C223.123 4.25965 223.796 3.1789 230.696 5.47634C234.258 6.69884 237.706 8.52303 240.347 11.2478C242.539 13.4241 245.326 18.5503 245.575 22.1119C246.039 25.1517 245.705 28.3056 244.52 31.147C244.047 32.766 243.039 34.1213 242.22 35.5701C242.883 36.4332 243.597 37.2777 244.499 37.9005C248.649 33.2104 251.187 23.2592 246.417 13.7905C244.464 9.43015 240.581 6.29703 236.323 4.08584C233.417 2.85134 228.96 0.406714 217.907 0.537589C216.526 0.617839 179.886 0.526339 150 0.467651C120.114 0.526151 83.4741 0.617839 82.0928 0.537589C71.0404 0.406714 66.5826 2.85134 63.6772 4.08584C59.4187 6.29703 55.5358 9.43015 53.583 13.7905C48.8126 23.2592 51.3514 33.2102 55.5006 37.9005C56.4034 37.2777 57.1172 36.4332 57.7798 35.5701C56.961 34.1215 55.9532 32.766 55.4796 31.147C54.2946 28.3056 53.9608 25.1515 54.4252 22.1119C54.6739 18.5505 57.4607 13.4243 59.6531 11.2478C62.2939 8.52303 65.7418 6.69865 69.3041 5.47634C76.2038 3.1789 76.8767 4.25965 150 3.8554Z" fill="#423A32"/>
<path d="M296.145 150C295.74 223.123 296.821 223.796 294.524 230.696C293.301 234.258 291.477 237.706 288.752 240.347C286.576 242.539 281.45 245.326 277.888 245.575C274.848 246.039 271.694 245.705 268.853 244.52C267.234 244.047 265.879 243.039 264.43 242.22C263.567 242.883 262.722 243.597 262.099 244.499C266.79 248.649 276.741 251.187 286.21 246.417C290.57 244.464 293.703 240.581 295.914 236.323C297.149 233.417 299.593 228.96 299.462 217.907C299.382 216.526 299.474 179.886 299.532 150C299.474 120.114 299.382 83.4741 299.462 82.0928C299.593 71.0404 297.149 66.5826 295.914 63.6772C293.703 59.4187 290.57 55.5358 286.21 53.583C276.741 48.8126 266.79 51.3514 262.099 55.5006C262.722 56.4034 263.567 57.1172 264.43 57.7798C265.879 56.961 267.234 55.9532 268.853 55.4796C271.694 54.2946 274.849 53.9608 277.888 54.4252C281.45 54.6739 286.576 57.4607 288.752 59.6531C291.477 62.2939 293.301 65.7418 294.524 69.3041C296.821 76.2038 295.74 76.8767 296.145 150Z" fill="#423A32"/>
<path d="M150 296.145C76.8767 295.74 76.2038 296.821 69.3041 294.524C65.7418 293.302 62.2941 291.477 59.6531 288.752C57.4607 286.576 54.6739 281.45 54.4252 277.888C53.961 274.848 54.2946 271.695 55.4796 268.853C55.9532 267.234 56.961 265.879 57.7798 264.43C57.1172 263.567 56.4034 262.722 55.5006 262.1C51.3514 266.79 48.8126 276.741 53.583 286.21C55.5358 290.57 59.4187 293.703 63.6772 295.914C66.5826 297.149 71.0404 299.593 82.0928 299.463C83.4741 299.382 120.114 299.474 150 299.532C179.886 299.474 216.526 299.382 217.907 299.463C228.96 299.593 233.417 297.149 236.323 295.914C240.581 293.703 244.464 290.57 246.417 286.21C251.187 276.741 248.649 266.79 244.499 262.1C243.597 262.722 242.883 263.567 242.22 264.43C243.039 265.879 244.047 267.234 244.52 268.853C245.705 271.695 246.039 274.849 245.575 277.888C245.326 281.45 242.539 286.576 240.347 288.752C237.706 291.477 234.258 293.302 230.696 294.524C223.796 296.821 223.123 295.74 150 296.145Z" fill="#423A32"/>
<path d="M3.85528 150C4.25953 76.8767 3.17878 76.2038 5.47622 69.3041C6.69872 65.7418 8.52291 62.2941 11.2477 59.6531C13.424 57.4607 18.5502 54.6739 22.1118 54.4252C25.1515 53.961 28.3055 54.2946 31.1468 55.4796C32.7659 55.9532 34.1212 56.961 35.57 57.7798C36.433 57.1172 37.2775 56.4034 37.9004 55.5006C33.2103 51.3514 23.2591 48.8126 13.7903 53.583C9.43003 55.5358 6.29709 59.4189 4.08572 63.6772C2.85122 66.5826 0.406592 71.0404 0.537467 82.0928C0.617717 83.4741 0.526217 120.114 0.467529 150C0.526029 179.886 0.617717 216.526 0.537467 217.907C0.406592 228.96 2.85122 233.417 4.08572 236.323C6.29691 240.581 9.43003 244.464 13.7903 246.417C23.2591 251.187 33.2101 248.649 37.9004 244.499C37.2775 243.597 36.433 242.883 35.57 242.22C34.1213 243.039 32.7659 244.047 31.1468 244.52C28.3055 245.705 25.1513 246.039 22.1118 245.575C18.5504 245.326 13.4242 242.539 11.2477 240.347C8.52291 237.706 6.69853 234.258 5.47622 230.696C3.17878 223.796 4.25953 223.123 3.85528 150Z" fill="#423A32"/>
<path d="M260.047 39.953C256.464 40.6199 253.234 42.0622 250.973 44.0311C251.433 44.9829 252.254 45.6734 253.119 46.2449C253.635 45.9716 254.134 45.6661 254.635 45.365C254.334 45.8658 254.028 46.3646 253.755 46.8808C254.327 47.7463 255.017 48.5673 255.969 49.0269C257.938 46.7664 259.38 43.5359 260.047 39.953Z" fill="#423A32"/>
<path d="M260.047 260.047C259.38 256.464 257.938 253.234 255.969 250.973C255.017 251.433 254.327 252.254 253.755 253.119C254.028 253.635 254.334 254.134 254.635 254.635C254.134 254.334 253.635 254.028 253.119 253.755C252.254 254.327 251.433 255.017 250.973 255.969C253.234 257.938 256.464 259.38 260.047 260.047Z" fill="#423A32"/>
<path d="M39.9531 260.047C43.5361 259.38 46.7665 257.938 49.027 255.969C48.5674 255.017 47.7462 254.327 46.8809 253.755C46.3649 254.028 45.8659 254.334 45.3651 254.635C45.6664 254.134 45.9719 253.635 46.2451 253.119C45.6736 252.254 44.983 251.433 44.0313 250.973C42.0623 253.234 40.6203 256.464 39.9531 260.047Z" fill="#423A32"/>
<path d="M39.9531 39.953C40.6201 43.5359 42.0623 46.7664 44.0313 49.0269C44.983 48.5673 45.6736 47.7461 46.2451 46.8808C45.9717 46.3648 45.6663 45.8658 45.3651 45.365C45.8659 45.6663 46.3647 45.9718 46.8809 46.2449C47.7464 45.6734 48.5674 44.9829 49.027 44.0311C46.7665 42.0622 43.5361 40.6201 39.9531 39.953Z" fill="#423A32"/>
<path d="M282.276 282.276C281.121 280.271 280.507 277.205 279.682 274.973C278.362 270.72 275.59 267.172 273.019 263.615C272.725 263.629 272.434 263.643 272.145 263.659C272.427 264.597 273.038 265.371 273.528 266.204C275.8 270.001 276.296 273.425 276.58 276.58C273.425 276.296 270.001 275.8 266.204 273.528C265.371 273.038 264.596 272.427 263.659 272.145C263.642 272.434 263.628 272.726 263.615 273.02C267.172 275.591 270.72 278.362 274.973 279.682C277.205 280.507 280.271 281.121 282.276 282.276Z" fill="#423A32"/>
<path d="M17.7238 282.276C19.7287 281.121 22.7949 280.507 25.0265 279.682C29.2792 278.362 32.8274 275.59 36.3851 273.019C36.371 272.725 36.3571 272.434 36.3408 272.145C35.4029 272.427 34.6286 273.038 33.7957 273.528C29.9984 275.8 26.5743 276.296 23.4198 276.58C23.7039 273.425 24.1996 270.001 26.4718 266.204C26.9617 265.371 27.5729 264.596 27.8551 263.659C27.5658 263.642 27.2743 263.628 26.9803 263.615C24.4094 267.172 21.638 270.72 20.3176 274.973C19.4928 277.205 18.8788 280.271 17.7238 282.276Z" fill="#423A32"/>
<path d="M17.7238 17.7238C18.8786 19.7287 19.4928 22.7949 20.3176 25.0265C21.638 29.2792 24.4094 32.8274 26.9803 36.3851C27.2743 36.371 27.5658 36.3571 27.8551 36.3408C27.5728 35.4029 26.9617 34.6286 26.4718 33.7957C24.1996 29.9984 23.7039 26.5743 23.4198 23.4198C26.5743 23.7039 29.9986 24.1996 33.7957 26.4718C34.6286 26.9617 35.4031 27.5729 36.3408 27.8551C36.3571 27.5658 36.3712 27.2743 36.3851 26.9803C32.8274 24.4094 29.2792 21.638 25.0265 20.3176C22.7949 19.4928 19.7289 18.8788 17.7238 17.7238Z" fill="#423A32"/>
<path d="M282.276 17.7238C280.271 18.8786 277.205 19.4928 274.973 20.3176C270.72 21.638 267.172 24.4094 263.615 26.9803C263.629 27.2743 263.643 27.5658 263.659 27.8551C264.597 27.5728 265.371 26.9617 266.204 26.4718C270.001 24.1996 273.425 23.7039 276.58 23.4198C276.296 26.5743 275.8 29.9986 273.528 33.7957C273.038 34.6286 272.427 35.4031 272.145 36.3408C272.434 36.3571 272.726 36.3712 273.02 36.3851C275.591 32.8274 278.362 29.2792 279.682 25.0265C280.507 22.7949 281.121 19.7289 282.276 17.7238Z" fill="#423A32"/>
<path d="M273.622 26.3776C271.912 26.1369 270.016 26.2051 267.863 26.9501C266.522 27.4119 265.201 27.9811 264.025 28.7836C264.053 28.9586 264.109 29.3109 264.137 29.4858C266.007 29.2314 267.902 27.7503 271.434 28.5665C272.25 32.0984 270.769 33.9933 270.514 35.8627C270.689 35.8906 271.041 35.9467 271.216 35.9746C272.019 34.7988 272.588 33.4784 273.05 32.1371C273.795 29.9836 273.863 28.0878 273.622 26.3776Z" fill="#423A32"/>
<path d="M273.622 273.622C273.863 271.912 273.795 270.016 273.05 267.863C272.588 266.522 272.019 265.201 271.216 264.025C271.041 264.053 270.689 264.109 270.514 264.137C270.769 266.007 272.25 267.902 271.434 271.434C267.902 272.25 266.007 270.769 264.137 270.514C264.109 270.689 264.053 271.041 264.025 271.216C265.201 272.019 266.522 272.588 267.863 273.05C270.016 273.795 271.912 273.863 273.622 273.622Z" fill="#423A32"/>
<path d="M26.3777 273.622C28.0879 273.863 29.9837 273.795 32.1371 273.05C33.4785 272.588 34.7989 272.019 35.9747 271.216C35.9468 271.041 35.8907 270.689 35.8628 270.514C33.9932 270.769 32.0985 272.25 28.5666 271.434C27.7504 267.902 29.2314 266.007 29.4859 264.137C29.3109 264.109 28.9586 264.053 28.7837 264.025C27.9812 265.201 27.4119 266.522 26.9501 267.863C26.2054 270.016 26.1369 271.912 26.3777 273.622Z" fill="#423A32"/>
<path d="M26.3777 26.3777C26.137 28.0879 26.2052 29.9837 26.9502 32.1371C27.412 33.4785 27.9812 34.7989 28.7837 35.9747C28.9587 35.9468 29.311 35.8907 29.4859 35.8628C29.2315 33.9932 27.7504 32.0985 28.5666 28.5666C32.0986 27.7504 33.9934 29.2314 35.8628 29.4859C35.8907 29.3109 35.9468 28.9586 35.9747 28.7837C34.7989 27.9812 33.4786 27.4119 32.1372 26.9501C29.9837 26.2054 28.0879 26.1369 26.3777 26.3777Z" fill="#423A32"/>
<path d="M266.673 20.6398C265.339 22.2681 263.757 23.6772 262.43 25.3103C262.665 25.5507 262.905 25.7861 263.148 26.0125C265.392 24.3025 267.308 22.1843 269.592 20.5138C271.623 19.0581 273.562 17.4694 275.643 16.0791C279.385 13.6226 282.856 10.6202 285.336 6.86196C286.654 4.93971 288.103 2.81908 288.049 0.393021C286.036 0.170646 278.718 3.71477 273.578 11.2174C271.444 14.4763 269.111 17.6001 266.673 20.6398Z" fill="#423A32"/>
<path d="M20.6398 33.327C22.2681 34.6614 23.6772 36.243 25.3103 37.5705C25.5507 37.3348 25.7861 37.0946 26.0125 36.852C24.3025 34.6078 22.1843 32.6925 20.5138 30.4085C19.0581 28.3766 17.4694 26.438 16.0791 24.3572C13.6226 20.6152 10.6202 17.144 6.86196 14.6642C4.93971 13.346 2.81908 11.8974 0.393021 11.951C0.170646 13.964 3.71477 21.2818 11.2174 26.4217C14.4763 28.5562 17.6001 30.8891 20.6398 33.327Z" fill="#423A32"/>
<path d="M33.327 279.36C34.6614 277.732 36.243 276.323 37.5705 274.69C37.3348 274.45 37.0946 274.214 36.852 273.988C34.6078 275.698 32.6925 277.816 30.4085 279.486C28.3766 280.942 26.438 282.53 24.3572 283.921C20.6152 286.377 17.144 289.38 14.6642 293.138C13.346 295.06 11.8974 297.181 11.951 299.607C13.964 299.829 21.2818 296.285 26.4217 288.783C28.5562 285.523 30.8891 282.4 33.327 279.36Z" fill="#423A32"/>
<path d="M279.36 266.673C277.732 265.339 276.323 263.757 274.69 262.43C274.45 262.665 274.214 262.905 273.988 263.148C275.698 265.392 277.816 267.308 279.486 269.592C280.942 271.623 282.531 273.562 283.921 275.643C286.377 279.385 289.38 282.856 293.138 285.336C295.06 286.654 297.181 288.103 299.607 288.049C299.829 286.036 296.285 278.718 288.783 273.578C285.524 271.444 282.4 269.111 279.36 266.673Z" fill="#423A32"/>
<path d="M279.36 33.327C277.732 34.6614 276.323 36.243 274.69 37.5705C274.45 37.3348 274.214 37.0946 273.988 36.852C275.698 34.6078 277.816 32.6925 279.486 30.4085C280.942 28.3766 282.531 26.438 283.921 24.3572C286.377 20.6152 289.38 17.144 293.138 14.6642C295.06 13.346 297.181 11.8974 299.607 11.951C299.829 13.964 296.285 21.2818 288.783 26.4217C285.524 28.5562 282.4 30.8891 279.36 33.327Z" fill="#423A32"/>
<path d="M33.327 20.6398C34.6614 22.2681 36.243 23.6772 37.5705 25.3103C37.3348 25.5507 37.0946 25.7861 36.852 26.0125C34.6078 24.3025 32.6925 22.1843 30.4085 20.5138C28.3766 19.0581 26.438 17.4694 24.3572 16.0791C20.6152 13.6226 17.144 10.6202 14.6642 6.86196C13.346 4.93971 11.8974 2.81908 11.951 0.393021C13.964 0.170646 21.2818 3.71477 26.4217 11.2174C28.5562 14.4763 30.8891 17.6001 33.327 20.6398Z" fill="#423A32"/>
<path d="M20.6398 266.673C22.2681 265.339 23.6772 263.757 25.3103 262.43C25.5507 262.665 25.7861 262.905 26.0125 263.148C24.3025 265.392 22.1843 267.308 20.5138 269.592C19.0581 271.623 17.4694 273.562 16.0791 275.643C13.6226 279.385 10.6202 282.856 6.86196 285.336C4.93971 286.654 2.81908 288.103 0.393021 288.049C0.170646 286.036 3.71477 278.718 11.2174 273.578C14.4763 271.444 17.6001 269.111 20.6398 266.673Z" fill="#423A32"/>
<path d="M266.673 279.36C265.339 277.732 263.757 276.323 262.43 274.69C262.665 274.45 262.905 274.214 263.148 273.988C265.392 275.698 267.308 277.816 269.592 279.486C271.623 280.942 273.562 282.53 275.643 283.921C279.385 286.377 282.856 289.38 285.336 293.138C286.654 295.06 288.103 297.181 288.049 299.607C286.036 299.829 278.718 296.285 273.578 288.783C271.444 285.523 269.111 282.4 266.673 279.36Z" fill="#423A32"/>
<path d="M247.403 52.5967C247.345 52.5145 247.287 52.4317 247.231 52.3482C247.685 51.6721 248.228 51.0507 248.617 50.3322C247.931 49.6301 247.273 48.8765 246.417 48.3702C245.404 49.5472 244.526 50.888 243.814 52.3482C244.23 53.2008 244.702 54.0127 245.225 54.7751C245.987 55.2976 246.799 55.7699 247.652 56.1858C249.112 55.4737 250.453 54.5958 251.63 53.5833C251.123 52.7272 250.37 52.0692 249.668 51.3834C248.949 51.7719 248.328 52.3147 247.652 52.769C247.568 52.7126 247.485 52.655 247.403 52.5967Z" fill="#423A32"/>
<path d="M247.403 247.403C247.485 247.345 247.568 247.287 247.652 247.231C248.328 247.685 248.949 248.228 249.668 248.617C250.37 247.931 251.124 247.273 251.63 246.417C250.453 245.404 249.112 244.526 247.652 243.814C246.799 244.23 245.988 244.702 245.225 245.225C244.703 245.987 244.23 246.799 243.814 247.652C244.527 249.112 245.404 250.453 246.417 251.63C247.273 251.123 247.931 250.37 248.617 249.668C248.228 248.949 247.686 248.328 247.231 247.652C247.287 247.568 247.345 247.485 247.403 247.403Z" fill="#423A32"/>
<path d="M52.5967 247.403C52.6552 247.485 52.7126 247.568 52.7689 247.652C52.3146 248.328 51.7717 248.949 51.3832 249.668C52.0691 250.37 52.7269 251.124 53.5832 251.63C54.5957 250.453 55.4737 249.112 56.1857 247.652C55.77 246.8 55.2977 245.988 54.7749 245.225C54.0126 244.703 53.2007 244.23 52.3481 243.815C50.8881 244.527 49.5472 245.405 48.3701 246.417C48.8764 247.273 49.6297 247.931 50.3321 248.617C51.0506 248.229 51.672 247.686 52.3481 247.231C52.4317 247.287 52.5146 247.345 52.5967 247.403Z" fill="#423A32"/>
<path d="M52.5968 52.5967C52.5147 52.6552 52.4318 52.7126 52.3484 52.7689C51.6722 52.3146 51.0509 51.7717 50.3324 51.3832C49.6302 52.0691 48.8766 52.7269 48.3704 53.5832C49.5473 54.5957 50.8881 55.4737 52.3484 56.1857C53.2009 55.77 54.0128 55.2977 54.7752 54.7749C55.2977 54.0126 55.77 53.2007 56.1859 52.3481C55.4738 50.8881 54.5959 49.5472 53.5834 48.3701C52.7273 48.8764 52.0694 49.6297 51.3835 50.3321C51.772 51.0506 52.3148 51.672 52.7691 52.3481C52.7127 52.4317 52.6551 52.5146 52.5968 52.5967Z" fill="#423A32"/>
<path d="M260.57 24.8016C260.946 24.9859 261.483 25.3778 261.758 24.832C263.577 22.3894 265.273 19.8467 266.717 17.164C269.323 12.1238 269.42 7.14921 271.773 4.97009C272.498 4.4149 273.562 4.02996 274.439 4.44284C274.943 4.82309 275.305 5.35502 275.748 5.79584C276.889 3.59833 275.099 0.95046 272.883 0.390585C271.14 -0.00372784 269.081 0.367335 267.9 1.80658C263.494 6.85521 266.633 14.1988 262.63 21.2485C262.038 22.4875 261.203 23.5862 260.57 24.8016Z" fill="#423A32"/>
<path d="M24.8016 39.4296C24.9859 39.054 25.3778 38.5174 24.832 38.2422C22.3894 36.4225 19.8467 34.7265 17.164 33.2826C12.1238 30.6767 7.14921 30.5794 4.97009 28.2272C4.4149 27.5018 4.02996 26.4379 4.44284 25.5608C4.82309 25.057 5.35502 24.6953 5.79584 24.252C3.59833 23.1113 0.95046 24.9006 0.390585 27.1169C-0.00372784 28.8595 0.367335 30.9194 1.80658 32.0999C6.85521 36.5059 14.1988 33.3674 21.2485 37.3697C22.4875 37.9624 23.5862 38.7975 24.8016 39.4296Z" fill="#423A32"/>
<path d="M39.4296 275.198C39.054 275.014 38.5174 274.622 38.2422 275.168C36.4225 277.611 34.7265 280.153 33.2826 282.836C30.6767 287.876 30.5794 292.851 28.2272 295.03C27.5018 295.585 26.4379 295.97 25.5608 295.557C25.057 295.177 24.6953 294.645 24.252 294.204C23.1113 296.402 24.9006 299.05 27.1169 299.609C28.8595 300.004 30.9194 299.633 32.0999 298.193C36.5059 293.145 33.3674 285.801 37.3697 278.752C37.9624 277.513 38.7975 276.414 39.4296 275.198Z" fill="#423A32"/>
<path d="M275.199 260.57C275.014 260.946 274.622 261.483 275.168 261.758C277.611 263.577 280.153 265.273 282.836 266.717C287.876 269.323 292.851 269.42 295.03 271.773C295.585 272.498 295.97 273.562 295.557 274.439C295.177 274.943 294.645 275.305 294.204 275.748C296.402 276.889 299.05 275.099 299.61 272.883C300.004 271.14 299.633 269.081 298.194 267.9C293.145 263.494 285.801 266.633 278.752 262.63C277.513 262.038 276.414 261.203 275.199 260.57Z" fill="#423A32"/>
<path d="M275.199 39.4296C275.014 39.054 274.622 38.5174 275.168 38.2422C277.611 36.4225 280.153 34.7265 282.836 33.2826C287.876 30.6767 292.851 30.5794 295.03 28.2272C295.585 27.5018 295.97 26.4379 295.557 25.5608C295.177 25.057 294.645 24.6953 294.204 24.252C296.402 23.1113 299.05 24.9006 299.61 27.1169C300.004 28.8595 299.633 30.9194 298.194 32.0999C293.145 36.5059 285.801 33.3674 278.752 37.3697C277.513 37.9624 276.414 38.7975 275.199 39.4296Z" fill="#423A32"/>
<path d="M39.4296 24.8016C39.054 24.9859 38.5174 25.3778 38.2422 24.832C36.4225 22.3894 34.7265 19.8467 33.2826 17.164C30.6767 12.1238 30.5794 7.14921 28.2272 4.97009C27.5018 4.4149 26.4379 4.02996 25.5608 4.44284C25.057 4.82309 24.6953 5.35502 24.252 5.79584C23.1113 3.59833 24.9006 0.95046 27.1169 0.390585C28.8595 -0.00372784 30.9194 0.367335 32.0999 1.80658C36.5059 6.85521 33.3674 14.1988 37.3697 21.2485C37.9624 22.4875 38.7975 23.5862 39.4296 24.8016Z" fill="#423A32"/>
<path d="M24.8016 260.57C24.9859 260.946 25.3778 261.483 24.832 261.758C22.3894 263.577 19.8467 265.273 17.164 266.717C12.1238 269.323 7.14921 269.42 4.97009 271.773C4.4149 272.498 4.02996 273.562 4.44284 274.439C4.82309 274.943 5.35502 275.305 5.79584 275.748C3.59833 276.889 0.95046 275.099 0.390585 272.883C-0.00372784 271.14 0.367335 269.081 1.80658 267.9C6.85521 263.494 14.1988 266.633 21.2485 262.63C22.4875 262.038 23.5862 261.203 24.8016 260.57Z" fill="#423A32"/>
<path d="M260.57 275.198C260.946 275.014 261.483 274.622 261.758 275.168C263.577 277.611 265.273 280.153 266.717 282.836C269.323 287.876 269.42 292.851 271.773 295.03C272.498 295.585 273.562 295.97 274.439 295.557C274.943 295.177 275.305 294.645 275.748 294.204C276.889 296.402 275.099 299.05 272.883 299.609C271.14 300.004 269.081 299.633 267.9 298.193C263.494 293.145 266.633 285.801 262.63 278.752C262.038 277.513 261.203 276.414 260.57 275.198Z" fill="#423A32"/>
<path d="M269.874 30.1266C269.691 29.9241 269.28 29.9685 269.004 29.9175C267.023 29.7777 265.127 30.4332 263.281 31.056C262.931 29.8382 262.754 28.5366 262.052 27.4517C258.884 30.3741 254.598 37.2928 253.187 35.9805C252.506 35.5442 252.268 34.5366 252.935 33.972C255.51 31.231 258.681 29.1313 261.329 26.4649C260.16 25.8351 258.828 25.674 257.577 25.2705C258.139 23.0847 259.005 20.7822 258.31 18.5192C257.699 18.8481 257.083 19.1678 256.446 19.4408C255.856 18.3934 255.536 17.1662 254.629 16.3217C253.824 15.5728 252.842 14.9104 251.727 14.7728C250.644 14.7471 249.51 15.1041 248.743 15.8925C250.852 16.5715 252.851 18.1577 253.283 20.4323C253.857 23.7752 253.171 27.2022 252.153 30.3912C250.98 33.1253 249.793 35.9269 247.88 38.2388C247.471 38.808 246.716 39.2187 246.622 39.951C247.236 40.7511 248.04 41.3787 248.766 42.0717C250.527 41.0383 249.794 40.5559 255.76 37.4736C258.501 36.1043 261.52 35.395 264.555 35.0777C264.692 35.0637 264.827 35.0515 264.959 35.0412C264.948 35.1733 264.936 35.308 264.922 35.445C264.605 38.4801 263.896 41.4988 262.526 44.2399C259.444 50.2063 258.962 49.4728 257.928 51.2338C258.621 51.9595 259.249 52.7642 260.049 53.3777C260.781 53.2843 261.192 52.5285 261.761 52.1203C264.073 50.2075 266.875 49.02 269.609 47.8465C272.798 46.8295 276.225 46.1436 279.568 46.7173C281.842 47.149 283.428 49.1481 284.107 51.2571C284.896 50.4897 285.253 49.3558 285.227 48.2734C285.09 47.1583 284.427 46.1762 283.678 45.3713C282.834 44.4638 281.607 44.1443 280.559 43.554C280.832 42.9171 281.152 42.3013 281.481 41.6901C279.218 40.9948 276.915 41.8603 274.729 42.4227C274.326 41.1722 274.165 39.8402 273.535 38.6713C270.869 41.3192 268.769 44.4895 266.028 47.065C265.463 47.7323 264.456 47.4942 264.019 46.813C262.707 45.4018 269.626 41.1156 272.548 37.9482C271.463 37.246 270.162 37.0686 268.944 36.7187C269.567 34.8735 270.222 32.9768 270.082 30.9962C270.032 30.7206 270.076 30.3096 269.874 30.1266Z" fill="#423A32"/>
<path d="M269.873 269.874C270.076 269.691 270.032 269.28 270.083 269.004C270.222 267.023 269.567 265.127 268.944 263.281C270.162 262.931 271.463 262.754 272.548 262.052C269.626 258.884 262.707 254.598 264.019 253.187C264.456 252.506 265.463 252.268 266.028 252.935C268.769 255.51 270.869 258.681 273.535 261.329C274.165 260.16 274.326 258.828 274.729 257.577C276.915 258.139 279.218 259.005 281.481 258.31C281.152 257.699 280.832 257.083 280.559 256.446C281.607 255.856 282.834 255.536 283.678 254.629C284.427 253.824 285.09 252.842 285.227 251.727C285.253 250.644 284.896 249.51 284.107 248.743C283.429 250.852 281.842 252.851 279.568 253.283C276.225 253.857 272.798 253.171 269.609 252.153C266.875 250.98 264.073 249.793 261.761 247.88C261.192 247.471 260.782 246.716 260.049 246.622C259.249 247.236 258.621 248.04 257.928 248.766C258.962 250.527 259.444 249.794 262.526 255.76C263.896 258.501 264.605 261.52 264.922 264.555C264.936 264.692 264.949 264.827 264.959 264.959C264.827 264.948 264.692 264.936 264.555 264.922C261.52 264.605 258.501 263.896 255.76 262.526C249.794 259.444 250.527 258.962 248.766 257.928C248.041 258.621 247.236 259.249 246.622 260.049C246.716 260.781 247.471 261.192 247.88 261.761C249.793 264.073 250.98 266.875 252.154 269.609C253.171 272.798 253.856 276.225 253.283 279.568C252.851 281.842 250.852 283.428 248.743 284.107C249.511 284.896 250.644 285.253 251.727 285.227C252.842 285.09 253.824 284.427 254.629 283.678C255.536 282.834 255.856 281.607 256.446 280.559C257.083 280.832 257.699 281.152 258.31 281.481C259.005 279.218 258.14 276.915 257.577 274.729C258.828 274.326 260.16 274.165 261.329 273.535C258.681 270.869 255.511 268.769 252.935 266.028C252.268 265.463 252.506 264.456 253.187 264.019C254.598 262.707 258.884 269.626 262.052 272.548C262.754 271.463 262.931 270.162 263.281 268.944C265.126 269.567 267.023 270.222 269.004 270.082C269.279 270.032 269.69 270.076 269.873 269.874Z" fill="#423A32"/>
<path d="M30.1266 269.873C30.3096 270.076 30.7207 270.032 30.9965 270.083C32.977 270.222 34.8736 269.567 36.719 268.944C37.0688 270.162 37.2462 271.463 37.9484 272.548C41.1158 269.626 45.4021 262.707 46.8132 264.019C47.4944 264.456 47.7323 265.463 47.0652 266.028C44.4897 268.769 41.3195 270.869 38.6716 273.535C39.8405 274.165 41.1725 274.326 42.4229 274.729C41.8608 276.915 40.9953 279.218 41.6903 281.481C42.3016 281.152 42.9173 280.832 43.5543 280.559C44.1445 281.607 44.464 282.834 45.3715 283.678C46.1763 284.427 47.1584 285.09 48.2737 285.227C49.3561 285.253 50.4899 284.896 51.2573 284.107C49.1485 283.429 47.1492 281.842 46.7176 279.568C46.1437 276.225 46.8295 272.798 47.8467 269.609C49.0201 266.875 50.2075 264.073 52.1206 261.761C52.5288 261.192 53.2846 260.782 53.378 260.049C52.7645 259.249 51.9597 258.621 51.2341 257.928C49.4733 258.962 50.2066 259.444 44.2402 262.526C41.4991 263.896 38.4803 264.605 35.4453 264.922C35.3082 264.936 35.1736 264.949 35.0414 264.959C35.0517 264.827 35.0639 264.692 35.078 264.555C35.3952 261.52 36.1043 258.501 37.4738 255.76C40.5562 249.794 41.0386 250.527 42.0719 248.766C41.3791 248.041 40.7515 247.236 39.9513 246.622C39.2187 246.716 38.8083 247.471 38.239 247.88C35.9272 249.793 33.1253 250.98 30.3914 252.154C27.2024 253.171 23.7755 253.856 20.4325 253.283C18.158 252.851 16.5717 250.852 15.8928 248.743C15.1043 249.511 14.7473 250.644 14.773 251.727C14.9106 252.842 15.5731 253.824 16.322 254.629C17.1665 255.536 18.3936 255.856 19.441 256.446C19.168 257.083 18.8485 257.699 18.5195 258.31C20.7824 259.005 23.0849 258.14 25.2708 257.577C25.6743 258.828 25.8353 260.16 26.4651 261.329C29.1316 258.681 31.2312 255.511 33.9723 252.935C34.5368 252.268 35.5447 252.506 35.9808 253.187C37.2929 254.598 30.3743 258.884 27.452 262.052C28.5366 262.754 29.8385 262.931 31.0563 263.281C30.4334 265.126 29.7779 267.023 29.9178 269.004C29.9686 269.279 29.9241 269.69 30.1266 269.873Z" fill="#423A32"/>
<path d="M30.1265 30.1265C29.924 30.3095 29.9684 30.7205 29.9174 30.9963C29.7775 32.9769 30.433 34.8735 31.0559 36.7188C29.8381 37.0687 28.5365 37.2461 27.4516 37.9483C30.374 41.1157 37.2927 45.402 35.9804 46.8131C35.5441 47.4943 34.5365 47.7322 33.9719 47.0651C31.2308 44.4896 29.1312 41.3193 26.4648 38.6715C25.835 39.8403 25.6739 41.1723 25.2704 42.4228C23.0845 41.8607 20.782 40.9952 18.5191 41.6902C18.848 42.3015 19.1677 42.9172 19.4407 43.5542C18.3933 44.1444 17.1661 44.4639 16.3216 45.3714C15.5727 46.1762 14.9103 47.1583 14.7727 48.2735C14.747 49.356 15.104 50.4898 15.8924 51.2572C16.5713 49.1484 18.1576 47.1491 20.4322 46.7175C23.7751 46.1435 27.202 46.8294 30.391 47.8466C33.1252 49.02 35.9268 50.2074 38.2387 52.1205C38.8079 52.5287 39.2185 53.2845 39.9509 53.3778C40.751 52.7643 41.3785 51.9596 42.0715 51.234C41.0382 49.4732 40.5558 50.2065 37.4735 44.24C36.1042 41.499 35.3948 38.4802 35.0776 35.4452C35.0635 35.3081 35.0513 35.1735 35.041 35.0413C35.1732 35.0516 35.3078 35.0638 35.4449 35.0778C38.48 35.3951 41.4987 36.1042 44.2398 37.4737C50.2062 40.556 49.4727 41.0385 51.2337 42.0718C51.9594 41.379 52.7641 40.7514 53.3776 39.9512C53.2842 39.2186 52.5284 38.8082 52.1202 38.2389C50.2074 35.927 49.0199 33.1252 47.8463 30.3913C46.8293 27.2023 46.1435 23.7753 46.7172 20.4324C47.1488 18.1578 49.148 16.5716 51.257 15.8926C50.4895 15.1042 49.3557 14.7472 48.2733 14.7729C47.1582 14.9105 46.1761 15.573 45.3712 16.3218C44.4637 17.1663 44.1442 18.3935 43.5539 19.4409C42.917 19.1679 42.3012 18.8484 41.69 18.5193C40.9947 20.7823 41.8602 23.0848 42.4225 25.2707C41.1721 25.6742 39.8401 25.8352 38.6712 26.465C41.3191 29.1315 44.4893 31.2311 47.0648 33.9722C47.7322 34.5367 47.494 35.5445 46.8129 35.9807C45.4017 37.2928 41.1155 30.3742 37.948 27.4518C37.2458 28.5365 37.0685 29.8383 36.7186 31.0562C34.8734 30.4333 32.9767 29.7778 30.9961 29.9177C30.7205 29.9685 30.3095 29.924 30.1265 30.1265Z" fill="#423A32"/>
<path d="M260.024 20.8031C259.957 22.1002 259.21 23.2222 259.014 24.4912C259.29 24.5216 259.563 24.5495 259.838 24.5752C265.208 16.0925 259.886 10.5212 259.829 6.37665C259.78 5.32928 260.552 4.32615 261.543 4.02747C262.385 3.90615 263.16 4.36797 263.944 4.59897C263.981 -1.18129 256.022 -0.395847 255.193 4.02034C253.875 10.6218 260.987 12.9988 260.024 20.8031Z" fill="#423A32"/>
<path d="M20.8031 39.9756C22.1002 40.0433 23.2222 40.7897 24.4912 40.9857C24.5216 40.7104 24.5495 40.4374 24.5752 40.1622C16.0925 34.7922 10.5212 40.1142 6.37665 40.1715C5.32928 40.2205 4.32615 39.4483 4.02747 38.4568C3.90615 37.6148 4.36797 36.8402 4.59897 36.0563C-1.18129 36.0192 -0.395847 43.9776 4.02034 44.8067C10.6218 46.1248 12.9988 39.013 20.8031 39.9756Z" fill="#423A32"/>
<path d="M39.9756 279.197C40.0433 277.9 40.7897 276.778 40.9857 275.509C40.7104 275.478 40.4374 275.45 40.1622 275.425C34.7922 283.907 40.1142 289.479 40.1715 293.623C40.2205 294.67 39.4483 295.674 38.4568 295.972C37.6148 296.094 36.8402 295.632 36.0563 295.401C36.0192 301.181 43.9776 300.396 44.8067 295.979C46.1248 289.378 39.013 287.001 39.9756 279.197Z" fill="#423A32"/>
<path d="M279.197 260.024C277.9 259.957 276.778 259.21 275.509 259.014C275.478 259.29 275.45 259.563 275.425 259.838C283.907 265.208 289.479 259.886 293.623 259.829C294.67 259.78 295.674 260.552 295.972 261.543C296.094 262.385 295.632 263.16 295.401 263.944C301.181 263.981 300.396 256.022 295.979 255.193C289.378 253.875 287.001 260.987 279.197 260.024Z" fill="#423A32"/>
<path d="M279.197 39.9756C277.9 40.0433 276.778 40.7897 275.509 40.9857C275.478 40.7104 275.45 40.4374 275.425 40.1622C283.907 34.7922 289.479 40.1142 293.623 40.1715C294.67 40.2205 295.674 39.4483 295.972 38.4568C296.094 37.6148 295.632 36.8402 295.401 36.0563C301.181 36.0192 300.396 43.9776 295.979 44.8067C289.378 46.1248 287.001 39.013 279.197 39.9756Z" fill="#423A32"/>
<path d="M39.9756 20.8031C40.0433 22.1002 40.7897 23.2222 40.9857 24.4912C40.7104 24.5216 40.4374 24.5495 40.1622 24.5752C34.7922 16.0925 40.1142 10.5212 40.1715 6.37665C40.2205 5.32928 39.4483 4.32615 38.4568 4.02747C37.6148 3.90615 36.8402 4.36797 36.0563 4.59897C36.0192 -1.18129 43.9776 -0.395847 44.8067 4.02034C46.1248 10.6218 39.013 12.9988 39.9756 20.8031Z" fill="#423A32"/>
<path d="M20.8031 260.024C22.1002 259.957 23.2222 259.21 24.4912 259.014C24.5216 259.29 24.5495 259.563 24.5752 259.838C16.0925 265.208 10.5212 259.886 6.37665 259.829C5.32928 259.78 4.32615 260.552 4.02747 261.543C3.90615 262.385 4.36797 263.16 4.59897 263.944C-1.18129 263.981 -0.395847 256.022 4.02034 255.193C10.6218 253.875 12.9988 260.987 20.8031 260.024Z" fill="#423A32"/>
<path d="M260.024 279.197C259.957 277.9 259.21 276.778 259.014 275.509C259.29 275.478 259.563 275.45 259.838 275.425C265.208 283.907 259.886 289.479 259.829 293.623C259.78 294.67 260.552 295.674 261.543 295.972C262.385 296.094 263.16 295.632 263.944 295.401C263.981 301.181 256.022 300.396 255.193 295.979C253.875 289.378 260.987 287.001 260.024 279.197Z" fill="#423A32"/>
<path d="M245.034 8.42492C249.357 12.2537 252.481 12.3639 255.179 15.0665C256.073 15.8947 256.665 16.9655 257.321 17.9732C257.596 17.8425 257.869 17.7049 258.142 17.5672C257.534 14.6786 253.743 11.2382 251.61 9.31835C249.95 7.85004 247.353 6.2546 248.687 4.26785C249.095 3.88291 249.772 3.4421 250.308 3.84316C250.721 4.07173 251.113 4.33779 251.519 4.57573C251.803 1.25735 249.535 -0.336774 246.828 0.0594132C245.227 0.248413 244.096 1.65035 243.48 3.03373C242.934 4.91866 243.541 7.12798 245.034 8.42492Z" fill="#423A32"/>
<path d="M8.42492 54.9664C12.2537 50.6432 12.3639 47.5193 15.0665 44.8208C15.8947 43.9273 16.9655 43.3348 17.9732 42.6792C17.8425 42.4039 17.7049 42.1309 17.5672 41.8579C14.6786 42.4656 11.2382 46.2567 9.31835 48.3899C7.85004 50.0498 6.2546 52.6472 4.26785 51.313C3.88291 50.9048 3.4421 50.2281 3.84316 49.6917C4.07173 49.2788 4.33779 48.8867 4.57573 48.4808C1.25735 48.1971 -0.336774 50.4651 0.0594132 53.1722C0.248413 54.7725 1.65035 55.9039 3.03373 56.5198C4.91866 57.066 7.12798 56.4595 8.42492 54.9664Z" fill="#423A32"/>
<path d="M54.9663 291.575C50.6431 287.746 47.5192 287.636 44.8207 284.933C43.9272 284.105 43.3347 283.034 42.679 282.027C42.4038 282.157 42.1308 282.295 41.8578 282.433C42.4655 285.321 46.2565 288.762 48.3897 290.682C50.0497 292.15 52.6471 293.745 51.3129 295.732C50.9047 296.117 50.228 296.558 49.6915 296.157C49.2787 295.928 48.8866 295.662 48.4807 295.424C48.197 298.743 50.465 300.337 53.1721 299.941C54.7724 299.752 55.9038 298.35 56.5197 296.966C57.0659 295.081 56.4594 292.872 54.9663 291.575Z" fill="#423A32"/>
<path d="M291.575 245.034C287.746 249.357 287.636 252.481 284.934 255.179C284.105 256.073 283.035 256.665 282.027 257.321C282.157 257.596 282.295 257.869 282.433 258.142C285.321 257.534 288.762 253.743 290.682 251.61C292.15 249.95 293.745 247.353 295.732 248.687C296.117 249.095 296.558 249.772 296.157 250.308C295.928 250.721 295.662 251.113 295.424 251.519C298.743 251.803 300.337 249.535 299.941 246.828C299.752 245.227 298.35 244.096 296.966 243.48C295.081 242.934 292.872 243.541 291.575 245.034Z" fill="#423A32"/>
<path d="M291.575 54.9664C287.746 50.6432 287.636 47.5193 284.934 44.8208C284.105 43.9273 283.035 43.3348 282.027 42.6792C282.157 42.4039 282.295 42.1309 282.433 41.8579C285.321 42.4656 288.762 46.2567 290.682 48.3899C292.15 50.0498 293.745 52.6472 295.732 51.313C296.117 50.9048 296.558 50.2281 296.157 49.6917C295.928 49.2788 295.662 48.8867 295.424 48.4808C298.743 48.1971 300.337 50.4651 299.941 53.1722C299.752 54.7725 298.35 55.9039 296.966 56.5198C295.081 57.066 292.872 56.4595 291.575 54.9664Z" fill="#423A32"/>
<path d="M54.9663 8.42492C50.6431 12.2537 47.5192 12.3639 44.8207 15.0665C43.9272 15.8947 43.3347 16.9655 42.679 17.9732C42.4038 17.8425 42.1308 17.7049 41.8578 17.5672C42.4655 14.6786 46.2565 11.2382 48.3897 9.31835C50.0497 7.85004 52.6471 6.2546 51.3129 4.26785C50.9047 3.88291 50.228 3.4421 49.6915 3.84316C49.2787 4.07173 48.8866 4.33779 48.4807 4.57573C48.197 1.25735 50.465 -0.336774 53.1721 0.0594132C54.7724 0.248413 55.9038 1.65035 56.5197 3.03373C57.0659 4.91866 56.4594 7.12798 54.9663 8.42492Z" fill="#423A32"/>
<path d="M8.42492 245.034C12.2537 249.357 12.3639 252.481 15.0665 255.179C15.8947 256.073 16.9655 256.665 17.9732 257.321C17.8425 257.596 17.7049 257.869 17.5672 258.142C14.6786 257.534 11.2382 253.743 9.31835 251.61C7.85004 249.95 6.2546 247.353 4.26785 248.687C3.88291 249.095 3.4421 249.772 3.84316 250.308C4.07173 250.721 4.33779 251.113 4.57573 251.519C1.25735 251.803 -0.336774 249.535 0.0594132 246.828C0.248413 245.227 1.65035 244.096 3.03373 243.48C4.91866 242.934 7.12798 243.541 8.42492 245.034Z" fill="#423A32"/>
<path d="M245.034 291.575C249.357 287.746 252.481 287.636 255.179 284.933C256.073 284.105 256.665 283.034 257.321 282.027C257.596 282.157 257.869 282.295 258.142 282.433C257.534 285.321 253.743 288.762 251.61 290.682C249.95 292.15 247.353 293.745 248.687 295.732C249.095 296.117 249.772 296.558 250.308 296.157C250.721 295.928 251.113 295.662 251.519 295.424C251.803 298.743 249.535 300.337 246.828 299.941C245.227 299.752 244.096 298.35 243.48 296.966C242.934 295.081 243.541 292.872 245.034 291.575Z" fill="#423A32"/>
<path d="M252.342 47.6581C250.919 46.1694 249.342 44.8284 247.92 43.3359C246.372 41.7086 241.911 37.0872 239.836 35.4065C239.052 36.0294 238.343 36.7503 237.788 37.5854C240.954 40.5644 243.886 43.7861 247.084 46.7302C248.729 48.3346 249.616 49.2918 250.142 49.8582C250.708 50.3838 251.665 51.2714 253.27 52.9156C256.214 56.114 259.436 59.0463 262.415 62.2121C263.25 61.6569 263.971 60.9477 264.594 60.1638C262.913 58.0889 258.291 53.6277 256.664 52.0805C255.172 50.6576 253.83 49.0816 252.342 47.6581Z" fill="#423A32"/>
<path d="M252.342 252.342C253.831 250.919 255.172 249.342 256.664 247.92C258.291 246.372 262.913 241.911 264.594 239.836C263.971 239.052 263.25 238.343 262.415 237.788C259.436 240.954 256.214 243.886 253.27 247.084C251.665 248.729 250.708 249.616 250.142 250.142C249.616 250.708 248.729 251.665 247.084 253.27C243.886 256.214 240.954 259.436 237.788 262.415C238.343 263.25 239.052 263.971 239.836 264.594C241.911 262.913 246.372 258.291 247.92 256.664C249.342 255.172 250.918 253.83 252.342 252.342Z" fill="#423A32"/>
<path d="M47.6582 252.342C49.0817 253.831 50.6577 255.172 52.0806 256.664C53.6279 258.291 58.0891 262.913 60.1639 264.594C60.9479 263.971 61.657 263.25 62.2122 262.415C59.0464 259.436 56.1141 256.214 52.9157 253.27C51.2716 251.665 50.3839 250.708 49.8584 250.142C49.2917 249.616 48.3347 248.729 46.7303 247.084C43.7862 243.886 40.5646 240.954 37.5856 237.788C36.7504 238.343 36.0295 239.052 35.4066 239.836C37.0874 241.911 41.7087 246.372 43.336 247.92C44.8285 249.342 46.1695 250.918 47.6582 252.342Z" fill="#423A32"/>
<path d="M47.6582 47.6581C46.1695 49.0816 44.8285 50.6576 43.336 52.0805C41.7087 53.6277 37.0874 58.0889 35.4066 60.1638C36.0295 60.9477 36.7504 61.6569 37.5856 62.2121C40.5646 59.0463 43.7862 56.114 46.7303 52.9156C48.3347 51.2714 49.2919 50.3838 49.8584 49.8582C50.3839 49.2916 51.2716 48.3346 52.9157 46.7302C56.1141 43.7861 59.0464 40.5644 62.2122 37.5854C61.657 36.7503 60.9479 36.0294 60.1639 35.4065C58.0891 37.0872 53.6279 41.7086 52.0806 43.3359C50.6577 44.8284 49.0817 46.1694 47.6582 47.6581Z" fill="#423A32"/>
<path d="M243.248 56.7522C242.197 55.7338 241.288 54.583 240.363 53.452C240.071 53.0749 239.786 52.708 239.505 52.3482C239.786 51.9883 240.071 51.6212 240.363 51.2443C241.411 49.9635 242.437 48.6572 243.674 47.5468C243.998 47.1852 244.52 46.8726 244.523 46.329C243.872 45.4752 243.142 44.6423 242.222 44.0638C240.223 45.7785 238.385 47.6867 236.26 49.2522C234.878 50.2656 233.607 51.2862 232.162 52.3483C233.607 53.4103 234.878 54.4311 236.26 55.4445C237.841 56.6095 239.264 57.9643 240.712 59.2879C242.036 60.7363 243.391 62.1589 244.556 63.7405C245.569 65.1218 246.59 66.3936 247.652 67.8387C248.714 66.3934 249.735 65.1218 250.748 63.7405C252.313 61.6152 254.222 59.7769 255.936 57.7778C255.358 56.8587 254.525 56.1285 253.671 55.4775C253.128 55.4798 252.815 56.0023 252.453 56.3267C251.343 57.5631 250.037 58.5897 248.756 59.637C248.379 59.9288 248.012 60.2145 247.652 60.4952C247.292 60.2147 246.925 59.9288 246.548 59.637C245.417 58.7119 244.266 57.8033 243.248 56.7522Z" fill="#423A32"/>
<path d="M243.248 243.248C244.266 242.197 245.417 241.288 246.548 240.363C246.925 240.071 247.292 239.786 247.652 239.505C248.012 239.786 248.379 240.071 248.756 240.363C250.036 241.411 251.343 242.437 252.453 243.674C252.815 243.998 253.127 244.52 253.671 244.523C254.525 243.872 255.358 243.142 255.936 242.222C254.221 240.223 252.313 238.385 250.748 236.26C249.734 234.878 248.714 233.607 247.652 232.162C246.59 233.607 245.569 234.878 244.555 236.26C243.39 237.841 242.036 239.264 240.712 240.712C239.264 242.036 237.841 243.391 236.259 244.556C234.878 245.569 233.606 246.59 232.161 247.652C233.607 248.714 234.878 249.735 236.259 250.748C238.385 252.313 240.223 254.222 242.222 255.936C243.141 255.358 243.872 254.525 244.522 253.671C244.52 253.128 243.998 252.815 243.673 252.453C242.437 251.343 241.41 250.037 240.363 248.756C240.071 248.379 239.785 248.012 239.505 247.652C239.785 247.292 240.071 246.925 240.363 246.548C241.288 245.417 242.197 244.266 243.248 243.248Z" fill="#423A32"/>
<path d="M56.7522 243.248C57.8033 244.266 58.7119 245.417 59.6367 246.548C59.9284 246.925 60.2142 247.292 60.4949 247.652C60.2144 248.012 59.9284 248.379 59.6367 248.756C58.5893 250.036 57.5627 251.343 56.3264 252.453C56.002 252.815 55.4794 253.127 55.4772 253.671C56.128 254.525 56.8583 255.358 57.7774 255.936C59.7767 254.221 61.615 252.313 63.7401 250.748C65.1214 249.734 66.3932 248.714 67.8383 247.652C66.393 246.59 65.1214 245.569 63.7401 244.555C62.1585 243.39 60.7358 242.036 59.2875 240.712C57.964 239.264 56.6091 237.841 55.4442 236.259C54.4307 234.878 53.4102 233.606 52.348 232.161C51.286 233.607 50.2652 234.878 49.2518 236.259C47.6865 238.385 45.7782 240.223 44.0635 242.222C44.6421 243.141 45.4748 243.872 46.3287 244.522C46.8722 244.52 47.1848 243.998 47.5465 243.673C48.6569 242.437 49.9634 241.41 51.244 240.363C51.621 240.071 51.988 239.785 52.3478 239.505C52.7076 239.785 53.0747 240.071 53.4516 240.363C54.583 241.288 55.7339 242.197 56.7522 243.248Z" fill="#423A32"/>
<path d="M56.7522 56.7522C55.7338 57.8033 54.583 58.7119 53.452 59.6367C53.0749 59.9284 52.708 60.2142 52.3482 60.4949C51.9883 60.2144 51.6212 59.9284 51.2443 59.6367C49.9635 58.5893 48.6572 57.5627 47.5468 56.3264C47.1852 56.002 46.8726 55.4794 46.329 55.4772C45.4752 56.128 44.6423 56.8583 44.0638 57.7774C45.7785 59.7767 47.6867 61.615 49.2522 63.7401C50.2656 65.1214 51.2862 66.3932 52.3483 67.8383C53.4103 66.393 54.4311 65.1214 55.4445 63.7401C56.6095 62.1585 57.9643 60.7358 59.2879 59.2875C60.7363 57.964 62.1589 56.6091 63.7405 55.4442C65.1218 54.4307 66.3936 53.4102 67.8387 52.348C66.3934 51.286 65.1218 50.2652 63.7405 49.2518C61.6152 47.6865 59.7769 45.7782 57.7778 44.0635C56.8587 44.6421 56.1285 45.4748 55.4775 46.3287C55.4798 46.8722 56.0023 47.1848 56.3267 47.5465C57.5631 48.6569 58.5897 49.9634 59.637 51.244C59.9288 51.621 60.2145 51.988 60.4952 52.3478C60.2147 52.7076 59.9288 53.0747 59.637 53.4516C58.7119 54.583 57.8033 55.7339 56.7522 56.7522Z" fill="#423A32"/>
<path d="M197.38 16.4196C193.242 12.3105 184.97 9.2627 178.613 10.9466C175.557 11.8191 172.545 13.4824 170.858 16.2726C169.165 18.4211 168.411 21.1785 168.451 23.8869C168.341 30.4851 173.782 35.3485 178.948 35.7891C186.416 37.0093 193.855 28.3375 188.788 21.0454C186.073 17.4934 180.668 16.6284 177.577 19.7134C173.63 24.3257 177.346 29.3042 181.027 28.9888C182.306 28.9073 183.5 28.0045 183.971 26.824C184.174 25.8488 184.097 24.4095 182.966 24.0525C182.737 24.6381 182.604 25.2726 182.254 25.8021C180.328 27.5663 177.913 24.6602 179.063 22.6178C180.673 19.587 185.952 20.2136 187.3 24.3977C188.278 27.8387 186.006 31.7719 182.544 32.656C180.197 33.4024 177.57 33.0409 175.457 31.8021C174.465 31.1815 173.768 30.2065 173.065 29.2896C171.789 27.6332 171.414 25.452 171.563 23.4038C171.718 18.2503 176.225 13.2525 182.357 13.4634C184.993 13.5497 187.667 13.965 190.058 15.1292C193.543 16.8765 196.552 19.4846 199.044 22.4636C201.302 25.3796 203.486 28.368 205.298 31.5851C207.86 35.6606 210.503 39.8458 214.399 42.7851C216.774 44.4111 219.34 45.8621 222.2 46.401C228.436 48.0293 235.348 46.324 240.3 42.265C239.743 41.3948 239.001 40.66 238.173 40.0487C235.261 42.1785 231.83 43.7719 228.172 43.8838C225.333 44.0751 222.564 43.2026 219.979 42.1133C215.917 40.512 211.86 34.9541 211.305 30.687C210.043 24.2799 214.046 17.331 220.49 15.5001C226.159 13.9879 230.934 16.1964 233.747 20.6348C236.783 25.8473 234.115 32.3256 229.009 33.8153C227.654 34.1839 226.156 34.3541 224.831 33.7826C218.721 31.4933 219.941 24.7367 223.966 24.0803C225.44 23.7304 227.444 24.9225 227.145 26.595C227.115 27.3671 226.403 27.7941 225.899 28.2677C226.849 28.9185 228.251 28.5874 228.888 27.6495C231.881 23.4915 224.617 17.7823 219.514 23.4038C216.831 26.3246 216.891 31.564 220.954 34.83C225.031 38.4075 231.87 37.5531 235.707 32.8238C238.673 29.4619 238.722 22.8006 236.57 19.221C232.115 10.6071 219.367 8.8367 211.87 17.385C207.2 23.2716 207.752 27.0707 207.694 29.0796C205.752 26.8172 203.802 22.1486 197.38 16.4196Z" fill="#423A32"/>
<path d="M16.4196 102.62C12.3105 106.759 9.2627 115.03 10.9466 121.387C11.8191 124.443 13.4824 127.455 16.2726 129.142C18.4211 130.835 21.1785 131.589 23.8869 131.549C30.4851 131.659 35.3485 126.218 35.7891 121.052C37.0093 113.584 28.3375 106.145 21.0454 111.212C17.4934 113.927 16.6284 119.332 19.7134 122.423C24.3257 126.37 29.3042 122.654 28.9888 118.973C28.9073 117.695 28.0045 116.5 26.824 116.029C25.8488 115.826 24.4095 115.903 24.0525 117.034C24.6381 117.263 25.2726 117.396 25.8021 117.746C27.5663 119.672 24.6602 122.088 22.6178 120.937C19.587 119.328 20.2136 114.048 24.3977 112.7C27.8387 111.722 31.7719 113.995 32.656 117.457C33.4024 119.804 33.0409 122.43 31.8021 124.544C31.1815 125.535 30.2065 126.233 29.2896 126.935C27.6332 128.211 25.452 128.587 23.4038 128.437C18.2503 128.282 13.2525 123.775 13.4634 117.643C13.5497 115.007 13.965 112.334 15.1292 109.943C16.8765 106.457 19.4846 103.448 22.4636 100.956C25.3796 98.6981 28.368 96.5147 31.5851 94.702C35.6606 92.1405 39.8458 89.4973 42.7851 85.6015C44.4111 83.2266 45.8621 80.6605 46.401 77.8003C48.0293 71.5646 46.324 64.6525 42.265 59.6998C41.3948 60.2575 40.66 60.9992 40.0487 61.8274C42.1785 64.7387 43.7719 68.1703 43.8838 71.8283C44.0751 74.6674 43.2026 77.4364 42.1133 80.0213C40.512 84.0827 34.9541 88.1406 30.687 88.6948C24.2799 89.9576 17.331 85.9543 15.5001 79.5103C13.9879 73.8413 16.1964 69.0664 20.6348 66.2528C25.8473 63.217 32.3256 65.8849 33.8153 70.9907C34.1839 72.3461 34.3541 73.8437 33.7826 75.169C31.4933 81.279 24.7367 80.0591 24.0803 76.0345C23.7304 74.5601 24.9225 72.5561 26.595 72.8548C27.3671 72.8852 27.7941 73.5968 28.2677 74.1006C28.9185 73.1511 28.5874 71.7491 27.6495 71.1122C23.4915 68.1193 17.7823 75.3833 23.4038 80.4855C26.3246 83.1688 31.564 83.1086 34.83 79.0461C38.4075 74.9693 37.5531 68.1298 32.8238 64.2932C29.4619 61.3273 22.8006 61.2784 19.221 63.4301C10.6071 67.8848 8.8367 80.6331 17.385 88.1303C23.2716 92.8005 27.0707 92.2478 29.0796 92.3061C26.8172 94.2478 22.1486 96.1982 16.4196 102.62Z" fill="#423A32"/>
<path d="M102.62 283.58C106.759 287.689 115.03 290.737 121.387 289.053C124.443 288.181 127.455 286.517 129.142 283.727C130.835 281.579 131.589 278.821 131.549 276.113C131.659 269.515 126.218 264.651 121.052 264.211C113.584 262.99 106.145 271.662 111.212 278.954C113.927 282.506 119.332 283.371 122.423 280.286C126.37 275.674 122.654 270.695 118.973 271.011C117.695 271.092 116.5 271.995 116.029 273.176C115.826 274.151 115.903 275.59 117.034 275.947C117.263 275.362 117.396 274.727 117.746 274.198C119.672 272.433 122.088 275.339 120.937 277.382C119.328 280.413 114.048 279.786 112.7 275.602C111.722 272.161 113.995 268.228 117.457 267.344C119.804 266.597 122.43 266.959 124.544 268.198C125.535 268.818 126.233 269.793 126.935 270.71C128.211 272.366 128.587 274.548 128.437 276.596C128.282 281.749 123.775 286.747 117.643 286.536C115.007 286.45 112.334 286.035 109.943 284.87C106.457 283.123 103.448 280.515 100.956 277.536C98.6981 274.62 96.5147 271.632 94.702 268.415C92.1405 264.339 89.4973 260.154 85.6015 257.215C83.2266 255.589 80.6605 254.138 77.8003 253.599C71.5646 251.97 64.6525 253.676 59.6998 257.735C60.2575 258.605 60.9992 259.34 61.8274 259.951C64.7387 257.821 68.1703 256.228 71.8283 256.116C74.6674 255.925 77.4364 256.797 80.0213 257.886C84.0827 259.488 88.1406 265.046 88.6948 269.313C89.9576 275.72 85.9543 282.668 79.5103 284.499C73.8413 286.012 69.0664 283.803 66.2528 279.365C63.217 274.152 65.8849 267.674 70.9907 266.184C72.3461 265.816 73.8437 265.645 75.169 266.217C81.279 268.506 80.0591 275.263 76.0345 275.919C74.5601 276.269 72.5561 275.077 72.8548 273.404C72.8852 272.632 73.5968 272.205 74.1006 271.732C73.1511 271.081 71.7491 271.412 71.1122 272.35C68.1193 276.508 75.3833 282.217 80.4855 276.596C83.1688 273.675 83.1086 268.436 79.0461 265.169C74.9693 261.592 68.1298 262.446 64.2932 267.176C61.3273 270.538 61.2784 277.199 63.4301 280.778C67.8848 289.392 80.6331 291.163 88.1303 282.614C92.8005 276.728 92.2478 272.929 92.3061 270.92C94.2478 273.183 96.1982 277.851 102.62 283.58Z" fill="#423A32"/>
<path d="M283.58 197.38C287.689 193.242 290.737 184.97 289.053 178.613C288.181 175.557 286.517 172.545 283.727 170.858C281.579 169.165 278.821 168.411 276.113 168.451C269.515 168.341 264.651 173.782 264.211 178.948C262.99 186.416 271.662 193.855 278.954 188.788C282.506 186.073 283.371 180.668 280.286 177.577C275.674 173.63 270.695 177.346 271.011 181.027C271.092 182.306 271.995 183.5 273.176 183.971C274.151 184.174 275.59 184.097 275.947 182.966C275.362 182.737 274.727 182.604 274.198 182.254C272.433 180.328 275.339 177.913 277.382 179.063C280.413 180.673 279.786 185.952 275.602 187.3C272.161 188.278 268.228 186.006 267.344 182.544C266.597 180.197 266.959 177.57 268.198 175.457C268.818 174.465 269.793 173.768 270.71 173.065C272.366 171.789 274.548 171.414 276.596 171.563C281.749 171.718 286.747 176.225 286.536 182.357C286.45 184.993 286.035 187.667 284.87 190.058C283.123 193.543 280.515 196.552 277.536 199.044C274.62 201.302 271.632 203.486 268.415 205.298C264.339 207.86 260.154 210.503 257.215 214.399C255.589 216.774 254.138 219.34 253.599 222.2C251.97 228.436 253.676 235.348 257.735 240.3C258.605 239.743 259.34 239.001 259.951 238.173C257.821 235.261 256.228 231.83 256.116 228.172C255.925 225.333 256.797 222.564 257.886 219.979C259.488 215.917 265.046 211.86 269.313 211.305C275.72 210.043 282.668 214.046 284.499 220.49C286.012 226.159 283.803 230.934 279.365 233.747C274.152 236.783 267.674 234.115 266.184 229.009C265.816 227.654 265.645 226.156 266.217 224.831C268.506 218.721 275.263 219.941 275.919 223.966C276.269 225.44 275.077 227.444 273.404 227.145C272.632 227.115 272.205 226.403 271.732 225.899C271.081 226.849 271.412 228.251 272.35 228.888C276.508 231.881 282.217 224.617 276.596 219.514C273.675 216.831 268.436 216.891 265.169 220.954C261.592 225.031 262.446 231.87 267.176 235.707C270.538 238.673 277.199 238.722 280.778 236.57C289.392 232.115 291.163 219.367 282.614 211.87C276.728 207.2 272.929 207.752 270.92 207.694C273.183 205.752 277.851 203.802 283.58 197.38Z" fill="#423A32"/>
<path d="M283.58 102.62C287.689 106.759 290.737 115.03 289.053 121.387C288.181 124.443 286.517 127.455 283.727 129.142C281.579 130.835 278.821 131.589 276.113 131.549C269.515 131.659 264.651 126.218 264.211 121.052C262.99 113.584 271.662 106.145 278.954 111.212C282.506 113.927 283.371 119.332 280.286 122.423C275.674 126.37 270.695 122.654 271.011 118.973C271.092 117.695 271.995 116.5 273.176 116.029C274.151 115.826 275.59 115.903 275.947 117.034C275.362 117.263 274.727 117.396 274.198 117.746C272.433 119.672 275.339 122.088 277.382 120.937C280.413 119.328 279.786 114.048 275.602 112.7C272.161 111.722 268.228 113.995 267.344 117.457C266.597 119.804 266.959 122.43 268.198 124.544C268.818 125.535 269.793 126.233 270.71 126.935C272.366 128.211 274.548 128.587 276.596 128.437C281.749 128.282 286.747 123.775 286.536 117.643C286.45 115.007 286.035 112.334 284.87 109.943C283.123 106.457 280.515 103.448 277.536 100.956C274.62 98.6981 271.632 96.5147 268.415 94.702C264.339 92.1405 260.154 89.4973 257.215 85.6015C255.589 83.2266 254.138 80.6605 253.599 77.8003C251.97 71.5646 253.676 64.6525 257.735 59.6998C258.605 60.2575 259.34 60.9992 259.951 61.8274C257.821 64.7387 256.228 68.1703 256.116 71.8283C255.925 74.6674 256.797 77.4364 257.886 80.0213C259.488 84.0827 265.046 88.1406 269.313 88.6948C275.72 89.9576 282.668 85.9543 284.499 79.5103C286.012 73.8413 283.803 69.0664 279.365 66.2528C274.152 63.217 267.674 65.8849 266.184 70.9907C265.816 72.3461 265.645 73.8437 266.217 75.169C268.506 81.279 275.263 80.0591 275.919 76.0345C276.269 74.5601 275.077 72.5561 273.404 72.8548C272.632 72.8852 272.205 73.5968 271.732 74.1006C271.081 73.1511 271.412 71.7491 272.35 71.1122C276.508 68.1193 282.217 75.3833 276.596 80.4855C273.675 83.1688 268.436 83.1086 265.169 79.0461C261.592 74.9693 262.446 68.1298 267.176 64.2932C270.538 61.3273 277.199 61.2784 280.778 63.4301C289.392 67.8848 291.163 80.6331 282.614 88.1303C276.728 92.8005 272.929 92.2478 270.92 92.3061C273.183 94.2478 277.851 96.1982 283.58 102.62Z" fill="#423A32"/>
<path d="M102.62 16.4196C106.759 12.3105 115.03 9.2627 121.387 10.9466C124.443 11.8191 127.455 13.4824 129.142 16.2726C130.835 18.4211 131.589 21.1785 131.549 23.8869C131.659 30.4851 126.218 35.3485 121.052 35.7891C113.584 37.0093 106.145 28.3375 111.212 21.0454C113.927 17.4934 119.332 16.6284 122.423 19.7134C126.37 24.3257 122.654 29.3042 118.973 28.9888C117.695 28.9073 116.5 28.0045 116.029 26.824C115.826 25.8488 115.903 24.4095 117.034 24.0525C117.263 24.6381 117.396 25.2726 117.746 25.8021C119.672 27.5663 122.088 24.6602 120.937 22.6178C119.328 19.587 114.048 20.2136 112.7 24.3977C111.722 27.8387 113.995 31.7719 117.457 32.656C119.804 33.4024 122.43 33.0409 124.544 31.8021C125.535 31.1815 126.233 30.2065 126.935 29.2896C128.211 27.6332 128.587 25.452 128.437 23.4038C128.282 18.2503 123.775 13.2525 117.643 13.4634C115.007 13.5497 112.334 13.965 109.943 15.1292C106.457 16.8765 103.448 19.4846 100.956 22.4636C98.6981 25.3796 96.5147 28.368 94.702 31.5851C92.1405 35.6606 89.4973 39.8458 85.6015 42.7851C83.2266 44.4111 80.6605 45.8621 77.8003 46.401C71.5646 48.0293 64.6525 46.324 59.6998 42.265C60.2575 41.3948 60.9992 40.66 61.8274 40.0487C64.7387 42.1785 68.1703 43.7719 71.8283 43.8838C74.6674 44.0751 77.4364 43.2026 80.0213 42.1133C84.0827 40.512 88.1406 34.9541 88.6948 30.687C89.9576 24.2799 85.9543 17.331 79.5103 15.5001C73.8413 13.9879 69.0664 16.1964 66.2528 20.6348C63.217 25.8473 65.8849 32.3256 70.9907 33.8153C72.3461 34.1839 73.8437 34.3541 75.169 33.7826C81.279 31.4933 80.0591 24.7367 76.0345 24.0803C74.5601 23.7304 72.5561 24.9225 72.8548 26.595C72.8852 27.3671 73.5968 27.7941 74.1006 28.2677C73.1511 28.9185 71.7491 28.5874 71.1122 27.6495C68.1193 23.4915 75.3833 17.7823 80.4855 23.4038C83.1688 26.3246 83.1086 31.564 79.0461 34.83C74.9693 38.4075 68.1298 37.5531 64.2932 32.8238C61.3273 29.4619 61.2784 22.8006 63.4301 19.221C67.8848 10.6071 80.6331 8.8367 88.1303 17.385C92.8005 23.2716 92.2478 27.0707 92.3061 29.0796C94.2478 26.8172 96.1982 22.1486 102.62 16.4196Z" fill="#423A32"/>
<path d="M16.4196 197.38C12.3105 193.242 9.2627 184.97 10.9466 178.613C11.8191 175.557 13.4824 172.545 16.2726 170.858C18.4211 169.165 21.1785 168.411 23.8869 168.451C30.4851 168.341 35.3485 173.782 35.7891 178.948C37.0093 186.416 28.3375 193.855 21.0454 188.788C17.4934 186.073 16.6284 180.668 19.7134 177.577C24.3257 173.63 29.3042 177.346 28.9888 181.027C28.9073 182.306 28.0045 183.5 26.824 183.971C25.8488 184.174 24.4095 184.097 24.0525 182.966C24.6381 182.737 25.2726 182.604 25.8021 182.254C27.5663 180.328 24.6602 177.913 22.6178 179.063C19.587 180.673 20.2136 185.952 24.3977 187.3C27.8387 188.278 31.7719 186.006 32.656 182.544C33.4024 180.197 33.0409 177.57 31.8021 175.457C31.1815 174.465 30.2065 173.768 29.2896 173.065C27.6332 171.789 25.452 171.414 23.4038 171.563C18.2503 171.718 13.2525 176.225 13.4634 182.357C13.5497 184.993 13.965 187.667 15.1292 190.058C16.8765 193.543 19.4846 196.552 22.4636 199.044C25.3796 201.302 28.368 203.486 31.5851 205.298C35.6606 207.86 39.8458 210.503 42.7851 214.399C44.4111 216.774 45.8621 219.34 46.401 222.2C48.0293 228.436 46.324 235.348 42.265 240.3C41.3948 239.743 40.66 239.001 40.0487 238.173C42.1785 235.261 43.7719 231.83 43.8838 228.172C44.0751 225.333 43.2026 222.564 42.1133 219.979C40.512 215.917 34.9541 211.86 30.687 211.305C24.2799 210.043 17.331 214.046 15.5001 220.49C13.9879 226.159 16.1964 230.934 20.6348 233.747C25.8473 236.783 32.3256 234.115 33.8153 229.009C34.1839 227.654 34.3541 226.156 33.7826 224.831C31.4933 218.721 24.7367 219.941 24.0803 223.966C23.7304 225.44 24.9225 227.444 26.595 227.145C27.3671 227.115 27.7941 226.403 28.2677 225.899C28.9185 226.849 28.5874 228.251 27.6495 228.888C23.4915 231.881 17.7823 224.617 23.4038 219.514C26.3246 216.831 31.564 216.891 34.83 220.954C38.4075 225.031 37.5531 231.87 32.8238 235.707C29.4619 238.673 22.8006 238.722 19.221 236.57C10.6071 232.115 8.8367 219.367 17.385 211.87C23.2716 207.2 27.0707 207.752 29.0796 207.694C26.8172 205.752 22.1486 203.802 16.4196 197.38Z" fill="#423A32"/>
<path d="M197.38 283.58C193.242 287.689 184.97 290.737 178.613 289.053C175.557 288.181 172.545 286.517 170.858 283.727C169.165 281.579 168.411 278.821 168.451 276.113C168.341 269.515 173.782 264.651 178.948 264.211C186.416 262.99 193.855 271.662 188.788 278.954C186.073 282.506 180.668 283.371 177.577 280.286C173.63 275.674 177.346 270.695 181.027 271.011C182.306 271.092 183.5 271.995 183.971 273.176C184.174 274.151 184.097 275.59 182.966 275.947C182.737 275.362 182.604 274.727 182.254 274.198C180.328 272.433 177.913 275.339 179.063 277.382C180.673 280.413 185.952 279.786 187.3 275.602C188.278 272.161 186.006 268.228 182.544 267.344C180.197 266.597 177.57 266.959 175.457 268.198C174.465 268.818 173.768 269.793 173.065 270.71C171.789 272.366 171.414 274.548 171.563 276.596C171.718 281.749 176.225 286.747 182.357 286.536C184.993 286.45 187.667 286.035 190.058 284.87C193.543 283.123 196.552 280.515 199.044 277.536C201.302 274.62 203.486 271.632 205.298 268.415C207.86 264.339 210.503 260.154 214.399 257.215C216.774 255.589 219.34 254.138 222.2 253.599C228.436 251.97 235.348 253.676 240.3 257.735C239.743 258.605 239.001 259.34 238.173 259.951C235.261 257.821 231.83 256.228 228.172 256.116C225.333 255.925 222.564 256.797 219.979 257.886C215.917 259.488 211.86 265.046 211.305 269.313C210.043 275.72 214.046 282.668 220.49 284.499C226.159 286.012 230.934 283.803 233.747 279.365C236.783 274.152 234.115 267.674 229.009 266.184C227.654 265.816 226.156 265.645 224.831 266.217C218.721 268.506 219.941 275.263 223.966 275.919C225.44 276.269 227.444 275.077 227.145 273.404C227.115 272.632 226.403 272.205 225.899 271.732C226.849 271.081 228.251 271.412 228.888 272.35C231.881 276.508 224.617 282.217 219.514 276.596C216.831 273.675 216.891 268.436 220.954 265.169C225.031 261.592 231.87 262.446 235.707 267.176C238.673 270.538 238.722 277.199 236.57 280.778C232.115 289.392 219.367 291.163 211.87 282.614C207.2 276.728 207.752 272.929 207.694 270.92C205.752 273.183 203.802 277.851 197.38 283.58Z" fill="#423A32"/>
<path d="M150 17.9909C153.723 16.553 157.059 14.7688 159.584 13.8581C163.72 12.3393 167.833 10.4428 172.279 10.0976C169.606 11.7095 166.634 12.9296 164.385 15.1621C162.619 16.9584 160.932 18.974 160.186 21.4258C159.081 25.5076 161.523 28.6934 164.709 28.2633C165.008 28.2749 165.225 28.0696 165.439 27.8971C164.795 27.2602 164.035 26.6677 163.732 25.7789C162.434 22.3473 165.038 17.0309 168.003 14.579C173.466 9.69406 176.155 9.76269 177.626 8.80288C175.278 8.55763 162.915 10.7859 159.036 11.9289C156.873 12.578 153.465 13.5562 150 14.3298C146.535 13.5564 143.127 12.578 140.965 11.9289C137.085 10.7857 124.722 8.55763 122.374 8.80288C123.845 9.76269 126.535 9.69406 131.997 14.579C134.962 17.0309 137.567 22.3473 136.269 25.7789C135.966 26.6677 135.205 27.2604 134.561 27.8971C134.776 28.0698 134.993 28.2749 135.291 28.2633C138.478 28.6934 140.919 25.5076 139.815 21.4258C139.068 18.974 137.382 16.9584 135.616 15.1621C133.367 12.9296 130.395 11.7095 127.722 10.0976C132.168 10.4428 136.281 12.3395 140.417 13.8581C142.941 14.7688 146.277 16.553 150 17.9909Z" fill="#423A32"/>
<path d="M282.009 150C283.447 153.723 285.231 157.059 286.142 159.584C287.66 163.72 289.557 167.833 289.902 172.279C288.29 169.606 287.07 166.633 284.838 164.385C283.041 162.619 281.026 160.932 278.574 160.186C274.492 159.081 271.306 161.522 271.736 164.709C271.725 165.008 271.93 165.225 272.103 165.439C272.74 164.795 273.332 164.035 274.221 163.732C277.652 162.433 282.969 165.038 285.421 168.003C290.306 173.466 290.237 176.155 291.197 177.626C291.442 175.278 289.214 162.915 288.071 159.036C287.422 156.873 286.444 153.465 285.67 150C286.443 146.535 287.422 143.127 288.071 140.965C289.214 137.085 291.442 124.722 291.197 122.374C290.237 123.845 290.306 126.535 285.421 131.997C282.969 134.962 277.652 137.567 274.221 136.269C273.332 135.966 272.739 135.205 272.103 134.561C271.93 134.776 271.725 134.993 271.736 135.291C271.306 138.478 274.492 140.919 278.574 139.815C281.026 139.068 283.041 137.382 284.838 135.616C287.07 133.367 288.29 130.395 289.902 127.721C289.557 132.168 287.66 136.281 286.142 140.417C285.231 142.941 283.447 146.277 282.009 150Z" fill="#423A32"/>
<path d="M150 282.009C146.277 283.447 142.941 285.231 140.416 286.142C136.28 287.66 132.167 289.557 127.721 289.902C130.394 288.29 133.366 287.07 135.615 284.838C137.381 283.041 139.068 281.026 139.814 278.574C140.919 274.492 138.478 271.306 135.291 271.736C134.992 271.725 134.775 271.93 134.561 272.103C135.205 272.74 135.965 273.332 136.268 274.221C137.566 277.652 134.962 282.969 131.997 285.421C126.534 290.306 123.845 290.237 122.374 291.197C124.722 291.442 137.085 289.214 140.964 288.071C143.127 287.422 146.535 286.444 150 285.67C153.465 286.443 156.873 287.422 159.035 288.071C162.915 289.214 175.278 291.442 177.626 291.197C176.155 290.237 173.465 290.306 168.003 285.421C165.038 282.969 162.433 277.652 163.731 274.221C164.034 273.332 164.795 272.739 165.439 272.103C165.224 271.93 165.007 271.725 164.709 271.736C161.522 271.306 159.081 274.492 160.185 278.574C160.932 281.026 162.618 283.041 164.384 284.838C166.633 287.07 169.605 288.29 172.279 289.902C167.832 289.557 163.719 287.66 159.583 286.142C157.059 285.231 153.723 283.447 150 282.009Z" fill="#423A32"/>
<path d="M17.9909 150C16.553 146.277 14.7688 142.941 13.8581 140.416C12.3393 136.28 10.4428 132.167 10.0976 127.721C11.7095 130.394 12.9296 133.366 15.1621 135.615C16.9584 137.381 18.974 139.068 21.4258 139.814C25.5076 140.919 28.6934 138.478 28.2633 135.291C28.2749 134.992 28.0696 134.775 27.8971 134.561C27.2602 135.205 26.6677 135.965 25.7789 136.268C22.3473 137.566 17.0309 134.962 14.579 131.997C9.69406 126.534 9.76269 123.845 8.80288 122.374C8.55763 124.722 10.7859 137.085 11.9289 140.964C12.578 143.127 13.5562 146.535 14.3298 150C13.5564 153.465 12.578 156.873 11.9289 159.035C10.7857 162.915 8.55763 175.278 8.80288 177.626C9.76269 176.155 9.69406 173.465 14.579 168.003C17.0309 165.038 22.3473 162.433 25.7789 163.731C26.6677 164.034 27.2604 164.795 27.8971 165.439C28.0698 165.224 28.2749 165.007 28.2633 164.709C28.6934 161.522 25.5076 159.081 21.4258 160.185C18.974 160.932 16.9584 162.618 15.1621 164.384C12.9296 166.633 11.7095 169.605 10.0976 172.279C10.4428 167.832 12.3395 163.719 13.8581 159.583C14.7688 157.059 16.553 153.723 17.9909 150Z" fill="#423A32"/>
<path d="M165.446 12.8596C163.424 13.1816 161.781 14.5392 159.971 15.4072C158.403 16.4266 156.801 17.3994 155.249 18.4422C156.152 19.0861 156.817 19.9679 157.447 20.8614C157.923 20.2197 158.352 19.5457 158.774 18.8645C161.077 15.2673 164.397 14.3116 165.446 12.8596Z" fill="#423A32"/>
<path d="M12.8597 134.554C13.1817 136.576 14.5394 138.219 15.4073 140.029C16.4267 141.597 17.3995 143.199 18.4424 144.751C19.0862 143.848 19.9681 143.183 20.8615 142.553C20.2199 142.077 19.5458 141.648 18.8646 141.226C15.2674 138.923 14.3117 135.603 12.8597 134.554Z" fill="#423A32"/>
<path d="M134.554 287.14C136.576 286.818 138.219 285.461 140.029 284.593C141.597 283.573 143.199 282.601 144.751 281.558C143.848 280.914 143.183 280.032 142.553 279.139C142.077 279.78 141.648 280.454 141.226 281.136C138.923 284.733 135.603 285.688 134.554 287.14Z" fill="#423A32"/>
<path d="M287.14 165.446C286.818 163.424 285.461 161.781 284.593 159.971C283.573 158.403 282.601 156.801 281.558 155.249C280.914 156.152 280.032 156.817 279.139 157.447C279.78 157.923 280.454 158.352 281.135 158.774C284.732 161.077 285.688 164.397 287.14 165.446Z" fill="#423A32"/>
<path d="M287.14 134.554C286.818 136.576 285.461 138.219 284.593 140.029C283.573 141.597 282.601 143.199 281.558 144.751C280.914 143.848 280.032 143.183 279.139 142.553C279.78 142.077 280.454 141.648 281.135 141.226C284.732 138.923 285.688 135.603 287.14 134.554Z" fill="#423A32"/>
<path d="M134.554 12.8596C136.576 13.1816 138.219 14.5392 140.029 15.4072C141.597 16.4266 143.199 17.3994 144.751 18.4422C143.848 19.0861 143.183 19.9679 142.553 20.8614C142.077 20.2197 141.648 19.5457 141.226 18.8645C138.923 15.2673 135.603 14.3116 134.554 12.8596Z" fill="#423A32"/>
<path d="M12.8597 165.446C13.1817 163.424 14.5394 161.781 15.4073 159.971C16.4267 158.403 17.3995 156.801 18.4424 155.249C19.0862 156.152 19.9681 156.817 20.8615 157.447C20.2199 157.923 19.5458 158.352 18.8646 158.774C15.2674 161.077 14.3117 164.397 12.8597 165.446Z" fill="#423A32"/>
<path d="M165.446 287.14C163.424 286.818 161.781 285.461 159.971 284.593C158.403 283.573 156.801 282.601 155.249 281.558C156.152 280.914 156.817 280.032 157.447 279.139C157.923 279.78 158.352 280.454 158.774 281.136C161.077 284.733 164.397 285.688 165.446 287.14Z" fill="#423A32"/>
<path d="M153.516 24.9906C154.706 24.9602 155.739 23.9944 155.968 22.8467C156.393 20.3222 154.018 18.8934 151.862 19.905C149.764 21.2413 150.167 25.0926 153.516 24.9906Z" fill="#423A32"/>
<path d="M24.9906 146.484C24.9602 145.294 23.9944 144.261 22.8467 144.032C20.3222 143.607 18.8934 145.982 19.905 148.138C21.2413 150.236 25.0926 149.833 24.9906 146.484Z" fill="#423A32"/>
<path d="M146.484 275.01C145.294 275.04 144.261 276.006 144.032 277.153C143.607 279.678 145.982 281.107 148.138 280.095C150.236 278.759 149.833 274.908 146.484 275.01Z" fill="#423A32"/>
<path d="M275.009 153.516C275.04 154.706 276.006 155.739 277.153 155.968C279.678 156.393 281.107 154.018 280.095 151.862C278.759 149.764 274.907 150.167 275.009 153.516Z" fill="#423A32"/>
<path d="M275.009 146.484C275.04 145.294 276.006 144.261 277.153 144.032C279.678 143.607 281.107 145.982 280.095 148.138C278.759 150.236 274.907 149.833 275.009 146.484Z" fill="#423A32"/>
<path d="M146.484 24.9906C145.294 24.9602 144.261 23.9944 144.032 22.8467C143.607 20.3222 145.982 18.8934 148.138 19.905C150.236 21.2413 149.833 25.0926 146.484 24.9906Z" fill="#423A32"/>
<path d="M24.9906 153.516C24.9602 154.706 23.9944 155.739 22.8467 155.968C20.3222 156.393 18.8934 154.018 19.905 151.862C21.2413 149.764 25.0926 150.167 24.9906 153.516Z" fill="#423A32"/>
<path d="M153.516 275.01C154.706 275.04 155.739 276.006 155.968 277.153C156.393 279.678 154.018 281.107 151.862 280.095C149.764 278.759 150.167 274.908 153.516 275.01Z" fill="#423A32"/>
<path d="M150 28.199C150.414 27.9558 150.746 27.5808 150.913 27.0712C151.346 26.0415 150.915 24.7087 150 24.1162C149.085 24.7087 148.654 26.0413 149.087 27.0712C149.254 27.5808 149.586 27.956 150 28.199Z" fill="#423A32"/>
<path d="M271.801 150C272.044 150.414 272.419 150.746 272.929 150.913C273.958 151.346 275.291 150.915 275.884 150C275.291 149.085 273.959 148.654 272.929 149.087C272.419 149.254 272.044 149.586 271.801 150Z" fill="#423A32"/>
<path d="M150 271.801C149.586 272.044 149.254 272.419 149.087 272.929C148.654 273.958 149.085 275.291 150 275.884C150.915 275.291 151.346 273.959 150.913 272.929C150.746 272.419 150.414 272.044 150 271.801Z" fill="#423A32"/>
<path d="M28.1991 150C27.956 149.586 27.581 149.254 27.0713 149.087C26.0416 148.654 24.7088 149.085 24.1163 150C24.7088 150.915 26.0414 151.346 27.0713 150.913C27.581 150.746 27.9561 150.414 28.1991 150Z" fill="#423A32"/>
</svg>
