<svg width="300" height="300" viewBox="0 0 300 300" fill="none" xmlns="http://www.w3.org/2000/svg">
<g clip-path="url(#clip0_275_205)">
<rect width="300" height="300" rx="5" fill="url(#paint0_radial_275_205)"/>
<circle cx="149.5" cy="150.5" r="164" stroke="black" stroke-width="3"/>
<path d="M129.604 285.928L126.933 281.48V284.239H127.714V285.923H124.56V284.239H125.341V279.834H124.56V278.15H128.051L130.731 282.598V279.834H129.95V278.15H133.104V279.834H132.323V285.923L129.604 285.928ZM137.631 286.065C136.827 286.065 136.132 285.904 135.546 285.581C134.963 285.256 134.514 284.792 134.198 284.19C133.882 283.587 133.725 282.873 133.725 282.046C133.725 281.213 133.882 280.495 134.198 279.893C134.514 279.287 134.963 278.822 135.546 278.496C136.132 278.171 136.827 278.008 137.631 278.008C138.438 278.008 139.133 278.171 139.716 278.496C140.299 278.822 140.748 279.287 141.063 279.893C141.379 280.495 141.537 281.213 141.537 282.046C141.537 282.873 141.379 283.587 141.063 284.19C140.748 284.792 140.299 285.256 139.716 285.581C139.133 285.904 138.438 286.065 137.631 286.065ZM137.631 284.38C137.995 284.38 138.275 284.182 138.471 283.784C138.666 283.387 138.764 282.803 138.764 282.031C138.764 281.26 138.666 280.676 138.471 280.279C138.275 279.881 137.995 279.683 137.631 279.683C137.266 279.683 136.986 279.881 136.791 280.279C136.596 280.676 136.498 281.26 136.498 282.031C136.498 282.803 136.596 283.387 136.791 283.784C136.986 284.182 137.266 284.38 137.631 284.38ZM144.369 285.923L142.445 279.834H141.737V278.15H146.127V279.834H145.321L146.566 284.195L147.812 279.834H147.006V278.15H150.253V279.834H149.545L147.626 285.923H144.369ZM152.855 285.923V284.531C153.809 284.16 154.543 283.724 155.058 283.223C155.575 282.722 155.834 282.196 155.834 281.646C155.834 281.337 155.769 281.089 155.639 280.904C155.508 280.718 155.313 280.625 155.053 280.625C154.783 280.625 154.576 280.716 154.433 280.899C154.293 281.078 154.223 281.31 154.223 281.597C154.223 281.756 154.242 281.903 154.281 282.036C154.324 282.17 154.389 282.318 154.477 282.481L153.231 282.974C153.072 282.814 152.943 282.603 152.846 282.339C152.748 282.075 152.699 281.797 152.699 281.504C152.699 281.009 152.821 280.593 153.065 280.254C153.313 279.916 153.645 279.66 154.062 279.488C154.481 279.312 154.952 279.224 155.473 279.224C156.01 279.224 156.479 279.31 156.879 279.483C157.283 279.652 157.595 279.901 157.816 280.23C158.041 280.559 158.153 280.957 158.153 281.426C158.153 281.999 157.947 282.53 157.533 283.018C157.123 283.506 156.505 283.913 155.678 284.239H158.314L158.339 285.923H152.855ZM161.933 286.05C161.311 286.05 160.774 285.913 160.321 285.64C159.869 285.363 159.521 284.971 159.276 284.463C159.032 283.955 158.91 283.35 158.91 282.647C158.91 281.94 159.032 281.332 159.276 280.821C159.521 280.309 159.867 279.916 160.316 279.639C160.769 279.362 161.308 279.224 161.933 279.224C162.558 279.224 163.096 279.362 163.549 279.639C164.001 279.916 164.348 280.309 164.589 280.821C164.833 281.332 164.955 281.94 164.955 282.647C164.955 283.35 164.833 283.955 164.589 284.463C164.345 284.971 163.996 285.363 163.544 285.64C163.095 285.913 162.558 286.05 161.933 286.05ZM161.933 284.488C162.47 284.488 162.738 283.869 162.738 282.632C162.738 281.395 162.47 280.777 161.933 280.777C161.396 280.777 161.127 281.395 161.127 282.632C161.127 283.869 161.396 284.488 161.933 284.488ZM165.785 285.923V284.531C166.739 284.16 167.473 283.724 167.987 283.223C168.505 282.722 168.764 282.196 168.764 281.646C168.764 281.337 168.699 281.089 168.568 280.904C168.438 280.718 168.243 280.625 167.982 280.625C167.712 280.625 167.506 280.716 167.362 280.899C167.222 281.078 167.152 281.31 167.152 281.597C167.152 281.756 167.172 281.903 167.211 282.036C167.253 282.17 167.318 282.318 167.406 282.481L166.161 282.974C166.002 282.814 165.873 282.603 165.775 282.339C165.678 282.075 165.629 281.797 165.629 281.504C165.629 281.009 165.751 280.593 165.995 280.254C166.243 279.916 166.575 279.66 166.991 279.488C167.411 279.312 167.882 279.224 168.402 279.224C168.939 279.224 169.408 279.31 169.809 279.483C170.212 279.652 170.525 279.901 170.746 280.23C170.971 280.559 171.083 280.957 171.083 281.426C171.083 281.999 170.876 282.53 170.463 283.018C170.053 283.506 169.434 283.913 168.607 284.239H171.244L171.269 285.923H165.785ZM174.276 286.06C173.99 286.06 173.699 286.037 173.402 285.991C173.106 285.946 172.831 285.882 172.577 285.801C172.323 285.716 172.113 285.62 171.947 285.513V284.048L172.079 283.99C172.287 284.146 172.543 284.276 172.846 284.38C173.148 284.484 173.511 284.536 173.935 284.536C174.26 284.536 174.538 284.484 174.77 284.38C175.001 284.273 175.116 284.09 175.116 283.833C175.116 283.573 175.001 283.389 174.77 283.281C174.542 283.174 174.273 283.12 173.964 283.12C173.85 283.12 173.72 283.128 173.573 283.145C173.427 283.158 173.284 283.182 173.144 283.218L173.012 283.159V282.407L174.857 281.006H171.942V279.322H177.172V280.664L175.399 281.997C176.031 282.082 176.527 282.282 176.889 282.598C177.253 282.91 177.436 283.337 177.436 283.877C177.436 284.545 177.165 285.075 176.625 285.469C176.088 285.863 175.305 286.06 174.276 286.06Z" fill="black"/>
<path d="M113.527 240L115.605 235.988H114.355L114.258 236.887L113.203 236.883V234.719H117.785V235.832L115.754 240H113.527ZM118.715 240.105C118.384 240.105 118.118 240.016 117.918 239.836C117.717 239.656 117.617 239.414 117.617 239.109C117.617 238.807 117.717 238.569 117.918 238.395C118.118 238.22 118.384 238.133 118.715 238.133C119.048 238.133 119.314 238.22 119.512 238.395C119.712 238.569 119.812 238.807 119.812 239.109C119.812 239.414 119.712 239.656 119.512 239.836C119.311 240.016 119.046 240.105 118.715 240.105ZM122.633 240.109C121.859 240.109 121.258 239.969 120.828 239.688C120.398 239.404 120.184 239.02 120.184 238.535C120.184 238.246 120.255 238.001 120.398 237.801C120.542 237.598 120.746 237.436 121.012 237.316C120.616 237.069 120.418 236.702 120.418 236.215C120.418 235.895 120.508 235.617 120.688 235.383C120.87 235.146 121.126 234.964 121.457 234.836C121.79 234.706 122.182 234.641 122.633 234.641C123.083 234.641 123.474 234.706 123.805 234.836C124.138 234.964 124.395 235.146 124.574 235.383C124.757 235.617 124.848 235.895 124.848 236.215C124.848 236.702 124.65 237.069 124.254 237.316C124.52 237.436 124.724 237.598 124.867 237.801C125.01 238.001 125.082 238.246 125.082 238.535C125.082 239.02 124.867 239.404 124.438 239.688C124.008 239.969 123.406 240.109 122.633 240.109ZM122.633 236.961C122.81 236.961 122.953 236.904 123.062 236.789C123.172 236.674 123.227 236.523 123.227 236.336C123.227 236.148 123.172 235.997 123.062 235.883C122.953 235.768 122.81 235.711 122.633 235.711C122.456 235.711 122.312 235.768 122.203 235.883C122.094 235.997 122.039 236.148 122.039 236.336C122.039 236.523 122.094 236.674 122.203 236.789C122.312 236.904 122.456 236.961 122.633 236.961ZM122.633 239.039C122.872 239.039 123.064 238.983 123.207 238.871C123.35 238.757 123.422 238.604 123.422 238.414C123.422 238.227 123.349 238.076 123.203 237.961C123.06 237.846 122.87 237.789 122.633 237.789C122.396 237.789 122.204 237.846 122.059 237.961C121.915 238.076 121.844 238.227 121.844 238.414C121.844 238.604 121.915 238.757 122.059 238.871C122.204 238.983 122.396 239.039 122.633 239.039ZM128.637 237.625C128.335 237.625 128.072 237.561 127.848 237.434C127.626 237.306 127.454 237.13 127.332 236.906C127.212 236.68 127.152 236.423 127.152 236.137C127.152 235.848 127.212 235.591 127.332 235.367C127.454 235.141 127.626 234.964 127.848 234.836C128.072 234.706 128.335 234.641 128.637 234.641C128.939 234.641 129.201 234.706 129.422 234.836C129.646 234.964 129.818 235.141 129.938 235.367C130.06 235.591 130.121 235.848 130.121 236.137C130.121 236.423 130.06 236.68 129.938 236.906C129.818 237.13 129.646 237.306 129.422 237.434C129.201 237.561 128.939 237.625 128.637 237.625ZM128.375 240L131.555 234.719H132.805L129.625 240H128.375ZM128.637 236.797C128.733 236.797 128.809 236.74 128.863 236.625C128.921 236.508 128.949 236.342 128.949 236.129C128.949 235.915 128.921 235.753 128.863 235.641C128.809 235.526 128.733 235.469 128.637 235.469C128.54 235.469 128.464 235.526 128.406 235.641C128.352 235.753 128.324 235.915 128.324 236.129C128.324 236.342 128.352 236.508 128.406 236.625C128.464 236.74 128.54 236.797 128.637 236.797ZM132.543 240.102C132.241 240.102 131.978 240.038 131.754 239.91C131.533 239.783 131.361 239.607 131.238 239.383C131.118 239.159 131.059 238.902 131.059 238.613C131.059 238.324 131.118 238.068 131.238 237.844C131.361 237.617 131.533 237.44 131.754 237.312C131.978 237.182 132.241 237.117 132.543 237.117C132.845 237.117 133.107 237.182 133.328 237.312C133.552 237.44 133.724 237.617 133.844 237.844C133.966 238.068 134.027 238.324 134.027 238.613C134.027 238.902 133.966 239.159 133.844 239.383C133.724 239.607 133.552 239.783 133.328 239.91C133.107 240.038 132.845 240.102 132.543 240.102ZM132.543 239.273C132.639 239.273 132.715 239.216 132.77 239.102C132.827 238.984 132.855 238.819 132.855 238.605C132.855 238.392 132.827 238.229 132.77 238.117C132.715 238.003 132.639 237.945 132.543 237.945C132.447 237.945 132.37 238.003 132.312 238.117C132.258 238.229 132.23 238.392 132.23 238.605C132.23 238.819 132.258 238.984 132.312 239.102C132.37 239.216 132.447 239.273 132.543 239.273ZM135.898 240V238.652H136.465L137.633 235.129H136.793V233.781H140.652L142.113 238.652H142.68V240H139.176V238.652H139.82L139.641 237.969H138.031L137.828 238.652H138.473V240H135.898ZM138.32 236.992H139.383L138.887 235.094L138.32 236.992ZM143.016 240V238.652H143.641V235.129H143.016V233.781H146.531V235.129H145.672V238.672H146.945L147.102 237.215H148.391V240H143.016ZM152.27 240.113C151.564 240.113 150.952 239.978 150.434 239.707C149.918 239.436 149.52 239.049 149.238 238.547C148.957 238.044 148.816 237.447 148.816 236.754C148.816 236.257 148.889 235.816 149.035 235.434C149.184 235.051 149.387 234.728 149.645 234.465C149.905 234.202 150.203 234.004 150.539 233.871C150.875 233.736 151.232 233.668 151.609 233.668C152.005 233.668 152.348 233.73 152.637 233.855C152.926 233.98 153.164 234.163 153.352 234.402L153.551 233.781H154.625V236.367H153.199C153.178 235.867 153.079 235.522 152.902 235.332C152.728 235.142 152.499 235.047 152.215 235.047C152.007 235.047 151.811 235.105 151.629 235.223C151.449 235.34 151.303 235.52 151.191 235.762C151.082 236.004 151.027 236.314 151.027 236.691C151.027 237.249 151.172 237.676 151.461 237.973C151.753 238.267 152.161 238.414 152.688 238.414C152.997 238.414 153.301 238.362 153.598 238.258C153.895 238.154 154.171 237.993 154.426 237.777L154.531 237.824V239.473C154.229 239.694 153.872 239.857 153.461 239.961C153.052 240.062 152.655 240.113 152.27 240.113ZM156.199 240.105C155.868 240.105 155.603 240.016 155.402 239.836C155.202 239.656 155.102 239.414 155.102 239.109C155.102 238.807 155.202 238.569 155.402 238.395C155.603 238.22 155.868 238.133 156.199 238.133C156.533 238.133 156.798 238.22 156.996 238.395C157.197 238.569 157.297 238.807 157.297 239.109C157.297 239.414 157.197 239.656 156.996 239.836C156.796 240.016 156.53 240.105 156.199 240.105ZM159.141 240L160.473 233.781H162.387L161.055 240H159.141ZM166.277 240L164.738 235.129H164.172V233.781H167.684V235.129H167.039L168.035 238.617L169.031 235.129H168.387V233.781H170.984V235.129H170.418L168.883 240H166.277ZM174.27 240.113C173.626 240.113 173.07 239.984 172.602 239.727C172.135 239.466 171.776 239.095 171.523 238.613C171.271 238.132 171.145 237.56 171.145 236.898C171.145 236.232 171.271 235.658 171.523 235.176C171.776 234.691 172.135 234.319 172.602 234.059C173.07 233.798 173.626 233.668 174.27 233.668C174.915 233.668 175.471 233.798 175.938 234.059C176.404 234.319 176.763 234.691 177.016 235.176C177.268 235.658 177.395 236.232 177.395 236.898C177.395 237.56 177.268 238.132 177.016 238.613C176.763 239.095 176.404 239.466 175.938 239.727C175.471 239.984 174.915 240.113 174.27 240.113ZM174.27 238.766C174.561 238.766 174.785 238.607 174.941 238.289C175.098 237.971 175.176 237.504 175.176 236.887C175.176 236.27 175.098 235.802 174.941 235.484C174.785 235.167 174.561 235.008 174.27 235.008C173.978 235.008 173.754 235.167 173.598 235.484C173.441 235.802 173.363 236.27 173.363 236.887C173.363 237.504 173.441 237.971 173.598 238.289C173.754 238.607 173.978 238.766 174.27 238.766ZM177.93 240V238.652H178.555V235.129H177.93V233.781H181.445V235.129H180.586V238.672H181.859L182.016 237.215H183.305V240H177.93ZM184.777 240.105C184.447 240.105 184.181 240.016 183.98 239.836C183.78 239.656 183.68 239.414 183.68 239.109C183.68 238.807 183.78 238.569 183.98 238.395C184.181 238.22 184.447 238.133 184.777 238.133C185.111 238.133 185.376 238.22 185.574 238.395C185.775 238.569 185.875 238.807 185.875 239.109C185.875 239.414 185.775 239.656 185.574 239.836C185.374 240.016 185.108 240.105 184.777 240.105ZM119.941 253V251.75H120.684V249.445H119.863V248.301L122.539 247.641V251.75H123.145V253H119.941ZM123.73 253V251.887C124.493 251.59 125.081 251.241 125.492 250.84C125.906 250.439 126.113 250.018 126.113 249.578C126.113 249.331 126.061 249.133 125.957 248.984C125.853 248.836 125.697 248.762 125.488 248.762C125.272 248.762 125.107 248.835 124.992 248.98C124.88 249.124 124.824 249.31 124.824 249.539C124.824 249.667 124.84 249.784 124.871 249.891C124.905 249.997 124.957 250.116 125.027 250.246L124.031 250.641C123.904 250.513 123.801 250.344 123.723 250.133C123.645 249.922 123.605 249.699 123.605 249.465C123.605 249.069 123.703 248.736 123.898 248.465C124.096 248.194 124.362 247.99 124.695 247.852C125.031 247.711 125.408 247.641 125.824 247.641C126.254 247.641 126.629 247.71 126.949 247.848C127.272 247.983 127.522 248.182 127.699 248.445C127.879 248.708 127.969 249.027 127.969 249.402C127.969 249.861 127.803 250.285 127.473 250.676C127.145 251.066 126.65 251.392 125.988 251.652H128.098L128.117 253H123.73ZM130.188 253V251.652H130.812V248.129H130.188V246.781H135.641V249.367H134.352L134.215 248.109H132.797V249.164H133.812V250.492H132.797V251.652H133.93V253H130.188ZM136.031 253V251.652H136.656V248.129H136.031V246.781H139.547V248.129H138.688V251.672H139.961L140.117 250.215H141.406V253H136.031ZM142.879 253.105C142.548 253.105 142.283 253.016 142.082 252.836C141.882 252.656 141.781 252.414 141.781 252.109C141.781 251.807 141.882 251.569 142.082 251.395C142.283 251.22 142.548 251.133 142.879 251.133C143.212 251.133 143.478 251.22 143.676 251.395C143.876 251.569 143.977 251.807 143.977 252.109C143.977 252.414 143.876 252.656 143.676 252.836C143.475 253.016 143.21 253.105 142.879 253.105ZM149.152 253.113C148.509 253.113 147.953 252.984 147.484 252.727C147.018 252.466 146.659 252.095 146.406 251.613C146.154 251.132 146.027 250.56 146.027 249.898C146.027 249.232 146.154 248.658 146.406 248.176C146.659 247.691 147.018 247.319 147.484 247.059C147.953 246.798 148.509 246.668 149.152 246.668C149.798 246.668 150.354 246.798 150.82 247.059C151.286 247.319 151.646 247.691 151.898 248.176C152.151 248.658 152.277 249.232 152.277 249.898C152.277 250.56 152.151 251.132 151.898 251.613C151.646 252.095 151.286 252.466 150.82 252.727C150.354 252.984 149.798 253.113 149.152 253.113ZM149.152 251.766C149.444 251.766 149.668 251.607 149.824 251.289C149.98 250.971 150.059 250.504 150.059 249.887C150.059 249.27 149.98 248.802 149.824 248.484C149.668 248.167 149.444 248.008 149.152 248.008C148.861 248.008 148.637 248.167 148.48 248.484C148.324 248.802 148.246 249.27 148.246 249.887C148.246 250.504 148.324 250.971 148.48 251.289C148.637 251.607 148.861 251.766 149.152 251.766ZM156.062 253.113C155.185 253.113 154.504 252.892 154.02 252.449C153.538 252.007 153.297 251.298 153.297 250.324V248.129H152.672V246.781H155.973V248.129H155.328V250.328C155.328 251.151 155.669 251.562 156.352 251.562C156.677 251.562 156.919 251.456 157.078 251.242C157.24 251.029 157.32 250.724 157.32 250.328V248.129H156.676V246.781H159.25V248.129H158.625V250.48C158.625 252.236 157.771 253.113 156.062 253.113ZM163.723 253.004L161.586 249.445V251.652H162.211V253H159.688V251.652H160.312V248.129H159.688V246.781H162.48L164.625 250.34V248.129H164V246.781H166.523V248.129H165.898V253L163.723 253.004ZM170.473 253.113C169.767 253.113 169.155 252.978 168.637 252.707C168.121 252.436 167.723 252.049 167.441 251.547C167.16 251.044 167.02 250.447 167.02 249.754C167.02 249.257 167.092 248.816 167.238 248.434C167.387 248.051 167.59 247.728 167.848 247.465C168.108 247.202 168.406 247.004 168.742 246.871C169.078 246.736 169.435 246.668 169.812 246.668C170.208 246.668 170.551 246.73 170.84 246.855C171.129 246.98 171.367 247.163 171.555 247.402L171.754 246.781H172.828V249.367H171.402C171.382 248.867 171.283 248.522 171.105 248.332C170.931 248.142 170.702 248.047 170.418 248.047C170.21 248.047 170.014 248.105 169.832 248.223C169.652 248.34 169.507 248.52 169.395 248.762C169.285 249.004 169.23 249.314 169.23 249.691C169.23 250.249 169.375 250.676 169.664 250.973C169.956 251.267 170.365 251.414 170.891 251.414C171.201 251.414 171.504 251.362 171.801 251.258C172.098 251.154 172.374 250.993 172.629 250.777L172.734 250.824V252.473C172.432 252.694 172.076 252.857 171.664 252.961C171.255 253.062 170.858 253.113 170.473 253.113ZM173.438 253V251.652H174.062V248.129H173.438V246.781H178.969V249.254H177.68L177.543 248.109H176.047V249.164H177.102V250.492H176.047V251.672H177.543L177.68 250.355H178.969V253H173.438Z" fill="black"/>
<rect x="46" y="180" width="216" height="16" fill="#3E7A39"/>
<circle cx="150.5" cy="149.5" r="66.5" fill="black"/>
<rect x="46" y="116" width="216" height="8" fill="#F2C50B"/>
<rect x="46" y="137" width="216" height="16" fill="#F2C50B"/>
<rect x="46" y="159" width="216" height="4" fill="#F2C50B"/>
<path d="M80.9453 37.2549C79.2402 37.2549 77.7666 36.9473 76.5244 36.332C75.2881 35.7168 74.333 34.8438 73.6592 33.7129C72.9854 32.582 72.6484 31.2432 72.6484 29.6963C72.6484 28.3076 72.918 27.0947 73.457 26.0576C74.002 25.0146 74.7607 24.2031 75.7334 23.623C76.7119 23.043 77.8516 22.7529 79.1523 22.7529C80.1309 22.7529 80.957 22.8906 81.6309 23.166C82.3105 23.4414 82.8643 23.8486 83.292 24.3877L83.7402 23.0078H86.1572V28.0967H82.9053C82.7939 27.3115 82.5537 26.7432 82.1846 26.3916C81.8154 26.0342 81.2881 25.8555 80.6025 25.8555C80.0576 25.8555 79.5596 25.9932 79.1084 26.2686C78.6572 26.5381 78.2969 26.957 78.0273 27.5254C77.7578 28.0879 77.623 28.8086 77.623 29.6875C77.623 30.9941 77.9336 31.9932 78.5547 32.6846C79.1816 33.376 80.0723 33.7217 81.2266 33.7217C81.707 33.7217 82.1318 33.6602 82.501 33.5371V32.1133H80.8311V29.4766H86.4561V36.0156C86.0107 36.2559 85.4834 36.4697 84.874 36.6572C84.2646 36.8447 83.623 36.9912 82.9492 37.0967C82.2754 37.2021 81.6074 37.2549 80.9453 37.2549ZM95.0957 37.2549C93.6484 37.2549 92.3975 36.9648 91.3428 36.3848C90.2939 35.7988 89.4854 34.9639 88.917 33.8799C88.3486 32.7959 88.0645 31.5098 88.0645 30.0215C88.0645 28.5215 88.3486 27.2295 88.917 26.1455C89.4854 25.0557 90.2939 24.2178 91.3428 23.6318C92.3975 23.0459 93.6484 22.7529 95.0957 22.7529C96.5488 22.7529 97.7998 23.0459 98.8486 23.6318C99.8975 24.2178 100.706 25.0557 101.274 26.1455C101.843 27.2295 102.127 28.5215 102.127 30.0215C102.127 31.5098 101.843 32.7959 101.274 33.8799C100.706 34.9639 99.8975 35.7988 98.8486 36.3848C97.7998 36.9648 96.5488 37.2549 95.0957 37.2549ZM95.0957 34.2227C95.752 34.2227 96.2559 33.8652 96.6074 33.1504C96.959 32.4355 97.1348 31.3838 97.1348 29.9951C97.1348 28.6064 96.959 27.5547 96.6074 26.8398C96.2559 26.125 95.752 25.7676 95.0957 25.7676C94.4395 25.7676 93.9355 26.125 93.584 26.8398C93.2324 27.5547 93.0566 28.6064 93.0566 29.9951C93.0566 31.3838 93.2324 32.4355 93.584 33.1504C93.9355 33.8652 94.4395 34.2227 95.0957 34.2227ZM103.331 37V33.9678H104.737V26.04H103.331V23.0078H111.241V26.04H109.308V34.0117H112.173L112.524 30.7334H115.425V37H103.331ZM116.304 37V33.9678H117.71V26.04H116.304V23.0078H122.685C125.28 23.0078 127.255 23.6055 128.608 24.8008C129.962 25.9902 130.639 27.7305 130.639 30.0215C130.639 32.3066 129.965 34.041 128.617 35.2246C127.27 36.4082 125.289 37 122.676 37H116.304ZM122.28 34.0557H122.764C123.795 34.0557 124.533 33.7451 124.979 33.124C125.424 32.4971 125.646 31.4541 125.646 29.9951C125.646 28.542 125.424 27.5049 124.979 26.8838C124.533 26.2627 123.795 25.9521 122.764 25.9521H122.28V34.0557ZM131.843 37V33.9678H133.249V26.04H131.843V23.0078H144.288V28.5713H141.388L141.08 25.9961H137.714V28.3691H140.087V31.3574H137.714V34.0117H141.08L141.388 31.0498H144.288V37H131.843ZM155.002 37.0088L150.194 29.002V33.9678H151.601V37H145.923V33.9678H147.329V26.04H145.923V23.0078H152.207L157.032 31.0146V26.04H155.626V23.0078H161.304V26.04H159.897V37L155.002 37.0088ZM166.138 37V33.9678H167.544V26.04H166.138V23.0078H174.215C175.961 23.0078 177.303 23.3359 178.24 23.9922C179.178 24.6426 179.646 25.5977 179.646 26.8574C179.646 27.6719 179.444 28.3486 179.04 28.8877C178.636 29.4268 178.088 29.8105 177.396 30.0391C177.947 30.2207 178.354 30.5049 178.618 30.8916C178.888 31.2783 179.028 31.75 179.04 32.3066L179.058 33.0361C179.069 33.3467 179.137 33.5811 179.26 33.7393C179.389 33.8916 179.605 33.9678 179.91 33.9678H180.842V37H177.783C176.664 37 175.835 36.7422 175.296 36.2266C174.763 35.7051 174.49 34.9434 174.479 33.9414L174.461 32.7725C174.443 31.835 174.01 31.3662 173.16 31.3662H172.009V33.9678H173.195V37H166.138ZM173.371 25.9521H172.009V28.9229H173.371C174.496 28.9229 175.059 28.4277 175.059 27.4375C175.059 26.4473 174.496 25.9521 173.371 25.9521ZM188.559 37.2549C187.111 37.2549 185.86 36.9648 184.806 36.3848C183.757 35.7988 182.948 34.9639 182.38 33.8799C181.812 32.7959 181.527 31.5098 181.527 30.0215C181.527 28.5215 181.812 27.2295 182.38 26.1455C182.948 25.0557 183.757 24.2178 184.806 23.6318C185.86 23.0459 187.111 22.7529 188.559 22.7529C190.012 22.7529 191.263 23.0459 192.312 23.6318C193.36 24.2178 194.169 25.0557 194.737 26.1455C195.306 27.2295 195.59 28.5215 195.59 30.0215C195.59 31.5098 195.306 32.7959 194.737 33.8799C194.169 34.9639 193.36 35.7988 192.312 36.3848C191.263 36.9648 190.012 37.2549 188.559 37.2549ZM188.559 34.2227C189.215 34.2227 189.719 33.8652 190.07 33.1504C190.422 32.4355 190.598 31.3838 190.598 29.9951C190.598 28.6064 190.422 27.5547 190.07 26.8398C189.719 26.125 189.215 25.7676 188.559 25.7676C187.902 25.7676 187.398 26.125 187.047 26.8398C186.695 27.5547 186.52 28.6064 186.52 29.9951C186.52 31.3838 186.695 32.4355 187.047 33.1504C187.398 33.8652 187.902 34.2227 188.559 34.2227ZM196.091 37V33.9678H197.365L199.993 26.04H198.104V23.0078H206.787L210.074 33.9678H211.349V37H203.465V33.9678H204.915L204.511 32.4297H200.89L200.433 33.9678H201.883V37H196.091ZM201.54 30.2324H203.931L202.814 25.9609L201.54 30.2324ZM212.017 37V33.9678H213.423V26.04H212.017V23.0078H218.397C220.993 23.0078 222.968 23.6055 224.321 24.8008C225.675 25.9902 226.352 27.7305 226.352 30.0215C226.352 32.3066 225.678 34.041 224.33 35.2246C222.982 36.4082 221.002 37 218.389 37H212.017ZM217.993 34.0557H218.477C219.508 34.0557 220.246 33.7451 220.691 33.124C221.137 32.4971 221.359 31.4541 221.359 29.9951C221.359 28.542 221.137 27.5049 220.691 26.8838C220.246 26.2627 219.508 25.9521 218.477 25.9521H217.993V34.0557Z" fill="#3E7A39"/>
<rect x="59.5" y="12.5" width="181" height="38" stroke="#3E7A39"/>
<path d="M116.436 67.1416C115.817 67.1416 115.306 67.0602 114.902 66.8975C114.499 66.7314 114.176 66.5101 113.936 66.2334L113.687 67H112.344V64.3828H114.165C114.227 64.7604 114.416 65.0713 114.731 65.3154C115.047 65.5563 115.446 65.6768 115.928 65.6768C116.191 65.6768 116.395 65.6247 116.538 65.5205C116.681 65.4131 116.753 65.2666 116.753 65.0811C116.753 64.8792 116.673 64.7262 116.514 64.6221C116.354 64.5179 116.143 64.4365 115.879 64.3779C115.615 64.3193 115.326 64.2624 115.01 64.207C114.694 64.1517 114.378 64.0752 114.062 63.9775C113.747 63.8799 113.457 63.7367 113.193 63.5479C112.93 63.359 112.718 63.1035 112.559 62.7812C112.399 62.4557 112.319 62.0391 112.319 61.5312C112.319 61.0397 112.437 60.61 112.671 60.2422C112.909 59.8743 113.249 59.5879 113.691 59.3828C114.134 59.1777 114.665 59.0752 115.283 59.0752C115.837 59.0752 116.299 59.1549 116.67 59.3145C117.041 59.474 117.344 59.7002 117.578 59.9932L117.827 59.2266H119.17V61.7461H117.31C117.215 61.3587 117.026 61.0609 116.743 60.8525C116.463 60.6442 116.138 60.54 115.767 60.54C115.503 60.54 115.293 60.5905 115.137 60.6914C114.98 60.7891 114.902 60.9339 114.902 61.126C114.902 61.305 114.982 61.4417 115.142 61.5361C115.301 61.6305 115.513 61.707 115.776 61.7656C116.04 61.8242 116.33 61.8844 116.646 61.9463C116.961 62.0081 117.277 62.0928 117.593 62.2002C117.909 62.3076 118.198 62.459 118.462 62.6543C118.726 62.8464 118.937 63.1035 119.097 63.4258C119.256 63.748 119.336 64.1566 119.336 64.6514C119.336 65.4261 119.079 66.0348 118.564 66.4775C118.05 66.9202 117.34 67.1416 116.436 67.1416ZM119.956 67V65.3154H120.737V60.9111H119.956V59.2266H126.87V62.3174H125.259L125.088 60.8867H123.218V62.2051H124.536V63.8652H123.218V65.3398H125.088L125.259 63.6943H126.87V67H119.956ZM131.885 67.1416C131.266 67.1416 130.755 67.0602 130.352 66.8975C129.948 66.7314 129.626 66.5101 129.385 66.2334L129.136 67H127.793V64.3828H129.614C129.676 64.7604 129.865 65.0713 130.181 65.3154C130.496 65.5563 130.895 65.6768 131.377 65.6768C131.641 65.6768 131.844 65.6247 131.987 65.5205C132.131 65.4131 132.202 65.2666 132.202 65.0811C132.202 64.8792 132.122 64.7262 131.963 64.6221C131.803 64.5179 131.592 64.4365 131.328 64.3779C131.064 64.3193 130.775 64.2624 130.459 64.207C130.143 64.1517 129.827 64.0752 129.512 63.9775C129.196 63.8799 128.906 63.7367 128.643 63.5479C128.379 63.359 128.167 63.1035 128.008 62.7812C127.848 62.4557 127.769 62.0391 127.769 61.5312C127.769 61.0397 127.886 60.61 128.12 60.2422C128.358 59.8743 128.698 59.5879 129.141 59.3828C129.583 59.1777 130.114 59.0752 130.732 59.0752C131.286 59.0752 131.748 59.1549 132.119 59.3145C132.49 59.474 132.793 59.7002 133.027 59.9932L133.276 59.2266H134.619V61.7461H132.759C132.664 61.3587 132.476 61.0609 132.192 60.8525C131.912 60.6442 131.587 60.54 131.216 60.54C130.952 60.54 130.742 60.5905 130.586 60.6914C130.43 60.7891 130.352 60.9339 130.352 61.126C130.352 61.305 130.431 61.4417 130.591 61.5361C130.75 61.6305 130.962 61.707 131.226 61.7656C131.489 61.8242 131.779 61.8844 132.095 61.9463C132.41 62.0081 132.726 62.0928 133.042 62.2002C133.358 62.3076 133.647 62.459 133.911 62.6543C134.175 62.8464 134.386 63.1035 134.546 63.4258C134.705 63.748 134.785 64.1566 134.785 64.6514C134.785 65.4261 134.528 66.0348 134.014 66.4775C133.499 66.9202 132.79 67.1416 131.885 67.1416ZM139.512 67.1416C138.893 67.1416 138.382 67.0602 137.979 66.8975C137.575 66.7314 137.253 66.5101 137.012 66.2334L136.763 67H135.42V64.3828H137.241C137.303 64.7604 137.492 65.0713 137.808 65.3154C138.123 65.5563 138.522 65.6768 139.004 65.6768C139.268 65.6768 139.471 65.6247 139.614 65.5205C139.757 65.4131 139.829 65.2666 139.829 65.0811C139.829 64.8792 139.749 64.7262 139.59 64.6221C139.43 64.5179 139.219 64.4365 138.955 64.3779C138.691 64.3193 138.402 64.2624 138.086 64.207C137.77 64.1517 137.454 64.0752 137.139 63.9775C136.823 63.8799 136.533 63.7367 136.27 63.5479C136.006 63.359 135.794 63.1035 135.635 62.7812C135.475 62.4557 135.396 62.0391 135.396 61.5312C135.396 61.0397 135.513 60.61 135.747 60.2422C135.985 59.8743 136.325 59.5879 136.768 59.3828C137.21 59.1777 137.741 59.0752 138.359 59.0752C138.913 59.0752 139.375 59.1549 139.746 59.3145C140.117 59.474 140.42 59.7002 140.654 59.9932L140.903 59.2266H142.246V61.7461H140.386C140.291 61.3587 140.103 61.0609 139.819 60.8525C139.539 60.6442 139.214 60.54 138.843 60.54C138.579 60.54 138.369 60.5905 138.213 60.6914C138.057 60.7891 137.979 60.9339 137.979 61.126C137.979 61.305 138.058 61.4417 138.218 61.5361C138.377 61.6305 138.589 61.707 138.853 61.7656C139.116 61.8242 139.406 61.8844 139.722 61.9463C140.037 62.0081 140.353 62.0928 140.669 62.2002C140.985 62.3076 141.274 62.459 141.538 62.6543C141.802 62.8464 142.013 63.1035 142.173 63.4258C142.332 63.748 142.412 64.1566 142.412 64.6514C142.412 65.4261 142.155 66.0348 141.641 66.4775C141.126 66.9202 140.417 67.1416 139.512 67.1416ZM142.983 67V65.3154H143.813V60.9111H142.983V59.2266H147.183V60.9111H146.353V65.3154H147.183V67H142.983ZM151.709 67.1416C150.905 67.1416 150.21 66.9805 149.624 66.6582C149.041 66.3327 148.592 65.8688 148.276 65.2666C147.961 64.6644 147.803 63.9499 147.803 63.123C147.803 62.2897 147.961 61.5719 148.276 60.9697C148.592 60.3643 149.041 59.8988 149.624 59.5732C150.21 59.2477 150.905 59.085 151.709 59.085C152.516 59.085 153.211 59.2477 153.794 59.5732C154.377 59.8988 154.826 60.3643 155.142 60.9697C155.457 61.5719 155.615 62.2897 155.615 63.123C155.615 63.9499 155.457 64.6644 155.142 65.2666C154.826 65.8688 154.377 66.3327 153.794 66.6582C153.211 66.9805 152.516 67.1416 151.709 67.1416ZM151.709 65.457C152.074 65.457 152.354 65.2585 152.549 64.8613C152.744 64.4642 152.842 63.8799 152.842 63.1084C152.842 62.3369 152.744 61.7526 152.549 61.3555C152.354 60.9583 152.074 60.7598 151.709 60.7598C151.344 60.7598 151.064 60.9583 150.869 61.3555C150.674 61.7526 150.576 62.3369 150.576 63.1084C150.576 63.8799 150.674 64.4642 150.869 64.8613C151.064 65.2585 151.344 65.457 151.709 65.457ZM161.328 67.0049L158.657 62.5566V65.3154H159.438V67H156.284V65.3154H157.065V60.9111H156.284V59.2266H159.775L162.456 63.6748V60.9111H161.675V59.2266H164.829V60.9111H164.048V67L161.328 67.0049ZM167.466 67V65.3154H168.296V60.9111H167.466V59.2266H171.665V60.9111H170.835V65.3154H171.665V67H167.466ZM172.241 67V65.3154H173.022V60.9111H172.241V59.2266H176.436C177.497 59.2266 178.298 59.4333 178.838 59.8467C179.378 60.2568 179.648 60.8721 179.648 61.6924C179.648 62.4867 179.38 63.0889 178.843 63.499C178.306 63.9059 177.52 64.1094 176.484 64.1094H175.503V65.3154H176.919V67H172.241ZM176.152 60.8623H175.503V62.6201H176.104C176.436 62.6201 176.685 62.5501 176.851 62.4102C177.017 62.2702 177.1 62.0472 177.1 61.7412C177.1 61.432 177.018 61.209 176.855 61.0723C176.696 60.9323 176.462 60.8623 176.152 60.8623ZM179.399 67V65.3154H180.107L181.567 60.9111H180.518V59.2266H185.342L187.168 65.3154H187.876V67H183.496V65.3154H184.302L184.077 64.4609H182.065L181.812 65.3154H182.617V67H179.399ZM182.427 63.2402H183.755L183.135 60.8672L182.427 63.2402Z" fill="black"/>
</g>
<defs>
<radialGradient id="paint0_radial_275_205" cx="0" cy="0" r="1" gradientUnits="userSpaceOnUse" gradientTransform="translate(150 150) rotate(90) scale(150)">
<stop stop-color="white"/>
<stop offset="1" stop-color="#D2258D" stop-opacity="0"/>
</radialGradient>
<clipPath id="clip0_275_205">
<rect width="300" height="300" rx="5" fill="white"/>
</clipPath>
</defs>
</svg>
