<svg width="300" height="300" viewBox="0 0 300 300" fill="none" xmlns="http://www.w3.org/2000/svg">
<rect x="1.5" y="1.5" width="297" height="297" rx="18.5" fill="black"/>
<path d="M131.243 279.004L128.839 275.001V277.484H129.542V279H126.704V277.484H127.407V273.52H126.704V272.004H129.846L132.258 276.007V273.52H131.555V272.004H134.394V273.52H133.691V279L131.243 279.004ZM138.468 279.127C137.744 279.127 137.119 278.982 136.591 278.692C136.067 278.399 135.663 277.982 135.378 277.44C135.094 276.898 134.952 276.255 134.952 275.511C134.952 274.761 135.094 274.115 135.378 273.573C135.663 273.028 136.067 272.609 136.591 272.316C137.119 272.023 137.744 271.876 138.468 271.876C139.194 271.876 139.82 272.023 140.344 272.316C140.869 272.609 141.273 273.028 141.557 273.573C141.841 274.115 141.983 274.761 141.983 275.511C141.983 276.255 141.841 276.898 141.557 277.44C141.273 277.982 140.869 278.399 140.344 278.692C139.82 278.982 139.194 279.127 138.468 279.127ZM138.468 277.611C138.796 277.611 139.048 277.433 139.224 277.075C139.399 276.718 139.487 276.192 139.487 275.498C139.487 274.803 139.399 274.277 139.224 273.92C139.048 273.562 138.796 273.384 138.468 273.384C138.14 273.384 137.888 273.562 137.712 273.92C137.536 274.277 137.448 274.803 137.448 275.498C137.448 276.192 137.536 276.718 137.712 277.075C137.888 277.433 138.14 277.611 138.468 277.611ZM144.532 279L142.801 273.52H142.164V272.004H146.114V273.52H145.389L146.51 277.444L147.63 273.52H146.905V272.004H149.828V273.52H149.19L147.463 279H144.532ZM152.17 279V277.748C153.028 277.414 153.689 277.021 154.152 276.57C154.618 276.119 154.851 275.646 154.851 275.15C154.851 274.872 154.792 274.649 154.675 274.482C154.558 274.315 154.382 274.232 154.147 274.232C153.904 274.232 153.718 274.314 153.589 274.478C153.463 274.639 153.4 274.849 153.4 275.106C153.4 275.25 153.418 275.382 153.453 275.502C153.491 275.622 153.55 275.755 153.629 275.902L152.508 276.346C152.365 276.202 152.249 276.012 152.161 275.774C152.073 275.537 152.029 275.287 152.029 275.023C152.029 274.578 152.139 274.203 152.359 273.898C152.582 273.593 152.88 273.363 153.255 273.208C153.633 273.05 154.057 272.971 154.525 272.971C155.009 272.971 155.431 273.048 155.791 273.204C156.154 273.356 156.436 273.58 156.635 273.876C156.837 274.172 156.938 274.531 156.938 274.953C156.938 275.468 156.752 275.946 156.38 276.385C156.011 276.825 155.454 277.191 154.71 277.484H157.083L157.105 279H152.17ZM160.339 279.114C159.78 279.114 159.296 278.991 158.889 278.745C158.482 278.496 158.168 278.143 157.949 277.686C157.729 277.229 157.619 276.684 157.619 276.051C157.619 275.416 157.729 274.868 157.949 274.408C158.168 273.948 158.48 273.593 158.885 273.344C159.292 273.095 159.777 272.971 160.339 272.971C160.902 272.971 161.387 273.095 161.794 273.344C162.201 273.593 162.513 273.948 162.73 274.408C162.95 274.868 163.06 275.416 163.06 276.051C163.06 276.684 162.95 277.229 162.73 277.686C162.51 278.143 162.197 278.496 161.79 278.745C161.385 278.991 160.902 279.114 160.339 279.114ZM160.339 277.708C160.823 277.708 161.064 277.151 161.064 276.038C161.064 274.925 160.823 274.368 160.339 274.368C159.856 274.368 159.614 274.925 159.614 276.038C159.614 277.151 159.856 277.708 160.339 277.708ZM163.807 279V277.748C164.665 277.414 165.326 277.021 165.789 276.57C166.254 276.119 166.487 275.646 166.487 275.15C166.487 274.872 166.429 274.649 166.312 274.482C166.194 274.315 166.019 274.232 165.784 274.232C165.541 274.232 165.355 274.314 165.226 274.478C165.1 274.639 165.037 274.849 165.037 275.106C165.037 275.25 165.055 275.382 165.09 275.502C165.128 275.622 165.187 275.755 165.266 275.902L164.145 276.346C164.001 276.202 163.886 276.012 163.798 275.774C163.71 275.537 163.666 275.287 163.666 275.023C163.666 274.578 163.776 274.203 163.996 273.898C164.218 273.593 164.517 273.363 164.892 273.208C165.27 273.05 165.693 272.971 166.162 272.971C166.646 272.971 167.067 273.048 167.428 273.204C167.791 273.356 168.072 273.58 168.271 273.876C168.474 274.172 168.575 274.531 168.575 274.953C168.575 275.468 168.389 275.946 168.017 276.385C167.647 276.825 167.091 277.191 166.347 277.484H168.72L168.742 279H163.807ZM171.449 279.123C171.191 279.123 170.929 279.103 170.662 279.062C170.396 279.021 170.148 278.963 169.919 278.89C169.691 278.814 169.502 278.728 169.353 278.631V277.312L169.471 277.26C169.659 277.4 169.889 277.518 170.161 277.611C170.434 277.705 170.76 277.752 171.141 277.752C171.434 277.752 171.685 277.705 171.893 277.611C172.101 277.515 172.205 277.351 172.205 277.119C172.205 276.885 172.101 276.719 171.893 276.623C171.688 276.526 171.446 276.478 171.167 276.478C171.065 276.478 170.948 276.485 170.816 276.5C170.684 276.511 170.555 276.533 170.429 276.565L170.311 276.513V275.836L171.972 274.575H169.348V273.059H174.055V274.267L172.459 275.467C173.028 275.543 173.475 275.723 173.8 276.007C174.128 276.289 174.292 276.672 174.292 277.159C174.292 277.759 174.049 278.237 173.562 278.591C173.079 278.946 172.375 279.123 171.449 279.123Z" fill="white"/>
<line x1="60.5" y1="10" x2="60.5" y2="290" stroke="white"/>
<line x1="240.5" y1="4" x2="240.5" y2="284" stroke="white"/>
<path d="M106.97 162L103.833 151.649H102.629V148.785H110.05V151.649H108.68L110.357 157.924L112.997 148.785H116.259L118.799 158.016L120.542 151.649H119.164V148.785H124.659V151.649H123.456L120.318 162H115.553L113.702 155.783L111.818 162H106.97ZM125.265 162V159.136H126.676V151.649H125.265V148.785H132.404V151.649H130.993V159.136H132.404V162H125.265ZM135.384 162V159.136H137.791V151.483H136.305L135.973 154.28H133.234V148.785H146.665V154.28H143.925L143.593 151.483H142.107V159.136H144.515V162H135.384ZM154.857 162.241C153.358 162.241 152.057 161.953 150.956 161.377C149.86 160.802 149.014 159.98 148.416 158.912C147.818 157.844 147.52 156.574 147.52 155.102C147.52 154.045 147.674 153.11 147.984 152.296C148.3 151.483 148.731 150.797 149.279 150.238C149.833 149.679 150.466 149.258 151.18 148.976C151.894 148.688 152.652 148.544 153.455 148.544C154.296 148.544 155.023 148.677 155.638 148.943C156.252 149.208 156.758 149.596 157.157 150.105L157.58 148.785H159.863V154.28H156.833C156.789 153.218 156.578 152.485 156.202 152.081C155.831 151.677 155.344 151.475 154.741 151.475C154.299 151.475 153.883 151.599 153.496 151.848C153.114 152.097 152.804 152.479 152.566 152.994C152.334 153.508 152.218 154.167 152.218 154.969C152.218 156.153 152.525 157.061 153.139 157.692C153.759 158.317 154.628 158.63 155.746 158.63C156.404 158.63 157.049 158.519 157.68 158.298C158.311 158.076 158.897 157.736 159.439 157.277L159.664 157.376V160.879C159.022 161.35 158.264 161.696 157.389 161.917C156.52 162.133 155.676 162.241 154.857 162.241ZM161.158 162V159.136H162.486V151.649H161.158V148.785H167.823V151.649H166.703V153.973H170.189V151.649H169.068V148.785H175.734V151.649H174.406V159.136H175.734V162H169.068V159.136H170.189V156.696H166.703V159.136H167.823V162H161.158ZM176.796 162V159.136H178.125V151.649H176.796V148.785H188.55V154.04H185.811L185.521 151.607H182.341V153.849H184.583V156.671H182.341V159.178H185.521L185.811 156.38H188.55V162H176.796ZM197.075 162.241C196.024 162.241 195.155 162.102 194.469 161.826C193.783 161.543 193.235 161.167 192.825 160.697L192.402 162H190.119V157.551H193.215C193.32 158.193 193.641 158.721 194.178 159.136C194.715 159.546 195.393 159.75 196.212 159.75C196.66 159.75 197.006 159.662 197.25 159.485C197.493 159.302 197.615 159.053 197.615 158.738C197.615 158.395 197.479 158.135 197.208 157.958C196.937 157.78 196.577 157.642 196.129 157.542C195.681 157.443 195.188 157.346 194.651 157.252C194.115 157.158 193.578 157.028 193.041 156.862C192.504 156.696 192.012 156.452 191.563 156.131C191.115 155.81 190.756 155.376 190.484 154.828C190.213 154.275 190.078 153.566 190.078 152.703C190.078 151.868 190.277 151.137 190.675 150.512C191.079 149.886 191.658 149.399 192.41 149.051C193.163 148.702 194.065 148.528 195.116 148.528C196.057 148.528 196.843 148.663 197.474 148.935C198.104 149.206 198.619 149.59 199.018 150.088L199.441 148.785H201.724V153.068H198.561C198.401 152.41 198.08 151.903 197.598 151.549C197.122 151.195 196.569 151.018 195.938 151.018C195.49 151.018 195.133 151.104 194.867 151.275C194.602 151.441 194.469 151.688 194.469 152.014C194.469 152.319 194.604 152.551 194.875 152.711C195.147 152.872 195.506 153.002 195.955 153.102C196.403 153.201 196.895 153.304 197.432 153.409C197.969 153.514 198.506 153.658 199.042 153.84C199.579 154.023 200.072 154.28 200.52 154.612C200.968 154.939 201.328 155.376 201.599 155.924C201.87 156.472 202.006 157.166 202.006 158.007C202.006 159.324 201.569 160.359 200.694 161.112C199.82 161.864 198.614 162.241 197.075 162.241ZM120.999 189V186.136H122.327V178.649H120.999V175.785H128.162C129.933 175.785 131.269 176.09 132.171 176.698C133.079 177.307 133.533 178.215 133.533 179.421C133.533 180.057 133.375 180.622 133.06 181.114C132.75 181.607 132.299 181.983 131.707 182.243C132.343 182.498 132.844 182.882 133.209 183.397C133.574 183.906 133.757 184.518 133.757 185.231C133.757 186.443 133.314 187.376 132.429 188.029C131.543 188.676 130.276 189 128.627 189H120.999ZM127.656 178.566H126.543V181.106H127.656C128.685 181.106 129.2 180.683 129.2 179.836C129.2 178.989 128.685 178.566 127.656 178.566ZM126.543 186.219H127.83C128.893 186.219 129.424 185.752 129.424 184.816C129.424 183.881 128.893 183.414 127.83 183.414H126.543V186.219ZM134.877 189V186.136H136.206V178.649H134.877V175.785H142.506C144.155 175.785 145.422 176.095 146.308 176.715C147.193 177.329 147.636 178.231 147.636 179.421C147.636 180.19 147.445 180.829 147.063 181.338C146.681 181.847 146.164 182.21 145.511 182.426C146.031 182.597 146.416 182.866 146.665 183.231C146.919 183.596 147.052 184.042 147.063 184.567L147.08 185.256C147.091 185.55 147.154 185.771 147.271 185.92C147.392 186.064 147.597 186.136 147.885 186.136H148.765V189H145.876C144.819 189 144.036 188.757 143.527 188.27C143.023 187.777 142.766 187.058 142.755 186.111L142.738 185.007C142.722 184.122 142.312 183.679 141.51 183.679H140.422V186.136H141.543V189H134.877ZM141.709 178.566H140.422V181.372H141.709C142.771 181.372 143.303 180.904 143.303 179.969C143.303 179.034 142.771 178.566 141.709 178.566ZM149.42 189V186.136H150.749V178.649H149.42V175.785H161.174V181.04H158.435L158.145 178.607H154.965V180.849H157.207V183.671H154.965V186.178H158.145L158.435 183.38H161.174V189H149.42ZM166.686 189L163.548 178.649H162.345V175.785H169.766V178.649H168.396L170.073 184.924L172.712 175.785H175.975L178.515 185.016L180.258 178.649H178.88V175.785H184.375V178.649H183.171L180.034 189H175.269L173.418 182.783L171.534 189H166.686Z" fill="white"/>
<path d="M76.7676 217V215.315H77.5488V210.911H76.7676V209.227H81.2549C82.2249 209.227 82.9704 209.409 83.4912 209.773C84.012 210.135 84.2725 210.665 84.2725 211.365C84.2725 211.818 84.1602 212.194 83.9355 212.493C83.7109 212.793 83.4066 213.006 83.0225 213.133C83.3285 213.234 83.5547 213.392 83.7012 213.606C83.8509 213.821 83.929 214.083 83.9355 214.393L83.9453 214.798C83.9518 214.97 83.9893 215.101 84.0576 215.188C84.1292 215.273 84.2497 215.315 84.4189 215.315H84.9365V217H83.2373C82.6156 217 82.1549 216.857 81.8555 216.57C81.5592 216.281 81.4079 215.857 81.4014 215.301L81.3916 214.651C81.3818 214.131 81.141 213.87 80.6689 213.87H80.0293V215.315H80.6885V217H76.7676ZM80.7861 210.862H80.0293V212.513H80.7861C81.4111 212.513 81.7236 212.238 81.7236 211.688C81.7236 211.137 81.4111 210.862 80.7861 210.862ZM89.2236 217.142C88.4196 217.142 87.7246 216.98 87.1387 216.658C86.556 216.333 86.1068 215.869 85.791 215.267C85.4753 214.664 85.3174 213.95 85.3174 213.123C85.3174 212.29 85.4753 211.572 85.791 210.97C86.1068 210.364 86.556 209.899 87.1387 209.573C87.7246 209.248 88.4196 209.085 89.2236 209.085C90.0309 209.085 90.7259 209.248 91.3086 209.573C91.8913 209.899 92.3405 210.364 92.6562 210.97C92.972 211.572 93.1299 212.29 93.1299 213.123C93.1299 213.95 92.972 214.664 92.6562 215.267C92.3405 215.869 91.8913 216.333 91.3086 216.658C90.7259 216.98 90.0309 217.142 89.2236 217.142ZM89.2236 215.457C89.5882 215.457 89.8682 215.258 90.0635 214.861C90.2588 214.464 90.3564 213.88 90.3564 213.108C90.3564 212.337 90.2588 211.753 90.0635 211.355C89.8682 210.958 89.5882 210.76 89.2236 210.76C88.859 210.76 88.5791 210.958 88.3838 211.355C88.1885 211.753 88.0908 212.337 88.0908 213.108C88.0908 213.88 88.1885 214.464 88.3838 214.861C88.5791 215.258 88.859 215.457 89.2236 215.457ZM93.4082 217V215.315H94.1162L95.5762 210.911H94.5264V209.227H99.3506L101.177 215.315H101.885V217H97.5049V215.315H98.3105L98.0859 214.461H96.0742L95.8203 215.315H96.626V217H93.4082ZM96.4355 213.24H97.7637L97.1436 210.867L96.4355 213.24ZM106.411 217.142C105.793 217.142 105.282 217.06 104.878 216.897C104.474 216.731 104.152 216.51 103.911 216.233L103.662 217H102.319V214.383H104.141C104.202 214.76 104.391 215.071 104.707 215.315C105.023 215.556 105.422 215.677 105.903 215.677C106.167 215.677 106.37 215.625 106.514 215.521C106.657 215.413 106.729 215.267 106.729 215.081C106.729 214.879 106.649 214.726 106.489 214.622C106.33 214.518 106.118 214.437 105.854 214.378C105.591 214.319 105.301 214.262 104.985 214.207C104.67 214.152 104.354 214.075 104.038 213.978C103.722 213.88 103.433 213.737 103.169 213.548C102.905 213.359 102.694 213.104 102.534 212.781C102.375 212.456 102.295 212.039 102.295 211.531C102.295 211.04 102.412 210.61 102.646 210.242C102.884 209.874 103.224 209.588 103.667 209.383C104.11 209.178 104.64 209.075 105.259 209.075C105.812 209.075 106.274 209.155 106.646 209.314C107.017 209.474 107.319 209.7 107.554 209.993L107.803 209.227H109.146V211.746H107.285C107.191 211.359 107.002 211.061 106.719 210.853C106.439 210.644 106.113 210.54 105.742 210.54C105.479 210.54 105.269 210.59 105.112 210.691C104.956 210.789 104.878 210.934 104.878 211.126C104.878 211.305 104.958 211.442 105.117 211.536C105.277 211.631 105.488 211.707 105.752 211.766C106.016 211.824 106.305 211.884 106.621 211.946C106.937 212.008 107.253 212.093 107.568 212.2C107.884 212.308 108.174 212.459 108.438 212.654C108.701 212.846 108.913 213.104 109.072 213.426C109.232 213.748 109.312 214.157 109.312 214.651C109.312 215.426 109.054 216.035 108.54 216.478C108.026 216.92 107.316 217.142 106.411 217.142ZM111.108 217V215.315H112.524V210.813H111.65L111.455 212.459H109.844V209.227H117.744V212.459H116.133L115.938 210.813H115.063V215.315H116.479V217H111.108ZM118.281 217V215.315H119.062V210.911H118.281V209.227H125.195V212.317H123.584L123.413 210.887H121.543V212.205H122.861V213.865H121.543V215.34H123.413L123.584 213.694H125.195V217H118.281ZM126.055 217V215.315H126.836V210.911H126.055V209.227H129.6C131.042 209.227 132.139 209.559 132.891 210.223C133.643 210.883 134.019 211.85 134.019 213.123C134.019 214.393 133.644 215.356 132.896 216.014C132.147 216.671 131.047 217 129.595 217H126.055ZM129.375 215.364H129.644C130.216 215.364 130.627 215.192 130.874 214.847C131.121 214.498 131.245 213.919 131.245 213.108C131.245 212.301 131.121 211.725 130.874 211.38C130.627 211.035 130.216 210.862 129.644 210.862H129.375V215.364ZM136.748 217V215.315H137.529V210.911H136.748V209.227H140.962C142.004 209.227 142.79 209.406 143.32 209.764C143.854 210.122 144.121 210.656 144.121 211.365C144.121 211.74 144.028 212.072 143.843 212.361C143.66 212.651 143.395 212.872 143.047 213.025C143.421 213.175 143.716 213.401 143.931 213.704C144.146 214.004 144.253 214.363 144.253 214.783C144.253 215.496 143.993 216.045 143.472 216.429C142.951 216.81 142.205 217 141.235 217H136.748ZM140.664 210.862H140.01V212.356H140.664C141.27 212.356 141.572 212.107 141.572 211.609C141.572 211.111 141.27 210.862 140.664 210.862ZM140.01 215.364H140.767C141.392 215.364 141.704 215.089 141.704 214.539C141.704 213.989 141.392 213.714 140.767 213.714H140.01V215.364ZM144.912 217V215.315H145.693V210.911H144.912V209.227H149.307V210.911H148.232V215.34H149.824L150.02 213.519H151.631V217H144.912ZM151.973 217V215.315H152.681L154.141 210.911H153.091V209.227H157.915L159.741 215.315H160.449V217H156.069V215.315H156.875L156.65 214.461H154.639L154.385 215.315H155.19V217H151.973ZM155 213.24H156.328L155.708 210.867L155 213.24ZM165.083 217.142C164.201 217.142 163.436 216.972 162.788 216.634C162.144 216.295 161.646 215.812 161.294 215.184C160.942 214.555 160.767 213.808 160.767 212.942C160.767 212.321 160.858 211.771 161.04 211.292C161.226 210.813 161.479 210.41 161.802 210.081C162.127 209.752 162.5 209.505 162.92 209.339C163.34 209.17 163.786 209.085 164.258 209.085C164.753 209.085 165.181 209.163 165.542 209.319C165.903 209.476 166.201 209.703 166.436 210.003L166.685 209.227H168.027V212.459H166.245C166.219 211.834 166.095 211.403 165.874 211.165C165.656 210.927 165.369 210.809 165.015 210.809C164.754 210.809 164.51 210.882 164.282 211.028C164.058 211.175 163.875 211.399 163.735 211.702C163.599 212.005 163.53 212.392 163.53 212.864C163.53 213.561 163.711 214.095 164.072 214.466C164.437 214.834 164.948 215.018 165.605 215.018C165.993 215.018 166.372 214.952 166.743 214.822C167.114 214.692 167.459 214.492 167.778 214.222L167.91 214.28V216.341C167.533 216.618 167.087 216.821 166.572 216.951C166.061 217.078 165.565 217.142 165.083 217.142ZM168.789 217V215.315H169.57V210.911H168.789V209.227H172.642V210.911H172.051V212.737L173.965 210.911H173.374V209.227H176.587V210.911H175.928L173.994 212.693H174.18C174.772 212.693 175.213 212.838 175.503 213.128C175.793 213.414 175.944 213.836 175.957 214.393L175.967 214.798C175.973 214.97 176.011 215.101 176.079 215.188C176.151 215.273 176.271 215.315 176.44 215.315H176.958V217H175.259C174.637 217 174.176 216.857 173.877 216.57C173.581 216.281 173.429 215.857 173.423 215.301L173.413 214.651C173.403 214.131 173.162 213.87 172.69 213.87H172.051V215.315H172.71V217H168.789ZM179.404 217V215.315H180.186V210.911H179.404V209.227H183.599C184.66 209.227 185.461 209.433 186.001 209.847C186.541 210.257 186.812 210.872 186.812 211.692C186.812 212.487 186.543 213.089 186.006 213.499C185.469 213.906 184.683 214.109 183.647 214.109H182.666V215.315H184.082V217H179.404ZM183.315 210.862H182.666V212.62H183.267C183.599 212.62 183.848 212.55 184.014 212.41C184.18 212.27 184.263 212.047 184.263 211.741C184.263 211.432 184.181 211.209 184.019 211.072C183.859 210.932 183.625 210.862 183.315 210.862ZM191.294 217.142C190.49 217.142 189.795 216.98 189.209 216.658C188.626 216.333 188.177 215.869 187.861 215.267C187.546 214.664 187.388 213.95 187.388 213.123C187.388 212.29 187.546 211.572 187.861 210.97C188.177 210.364 188.626 209.899 189.209 209.573C189.795 209.248 190.49 209.085 191.294 209.085C192.101 209.085 192.796 209.248 193.379 209.573C193.962 209.899 194.411 210.364 194.727 210.97C195.042 211.572 195.2 212.29 195.2 213.123C195.2 213.95 195.042 214.664 194.727 215.267C194.411 215.869 193.962 216.333 193.379 216.658C192.796 216.98 192.101 217.142 191.294 217.142ZM191.294 215.457C191.659 215.457 191.938 215.258 192.134 214.861C192.329 214.464 192.427 213.88 192.427 213.108C192.427 212.337 192.329 211.753 192.134 211.355C191.938 210.958 191.659 210.76 191.294 210.76C190.929 210.76 190.649 210.958 190.454 211.355C190.259 211.753 190.161 212.337 190.161 213.108C190.161 213.88 190.259 214.464 190.454 214.861C190.649 215.258 190.929 215.457 191.294 215.457ZM195.869 217V215.315H196.65V210.911H195.869V209.227H200.356C201.326 209.227 202.072 209.409 202.593 209.773C203.114 210.135 203.374 210.665 203.374 211.365C203.374 211.818 203.262 212.194 203.037 212.493C202.812 212.793 202.508 213.006 202.124 213.133C202.43 213.234 202.656 213.392 202.803 213.606C202.952 213.821 203.031 214.083 203.037 214.393L203.047 214.798C203.053 214.97 203.091 215.101 203.159 215.188C203.231 215.273 203.351 215.315 203.521 215.315H204.038V217H202.339C201.717 217 201.257 216.857 200.957 216.57C200.661 216.281 200.509 215.857 200.503 215.301L200.493 214.651C200.483 214.131 200.243 213.87 199.771 213.87H199.131V215.315H199.79V217H195.869ZM199.888 210.862H199.131V212.513H199.888C200.513 212.513 200.825 212.238 200.825 211.688C200.825 211.137 200.513 210.862 199.888 210.862ZM205.308 217V215.315H206.724V210.813H205.85L205.654 212.459H204.043V209.227H211.943V212.459H210.332L210.137 210.813H209.263V215.315H210.679V217H205.308ZM212.48 217V215.315H213.262V210.911H212.48V209.227H219.395V212.317H217.783L217.612 210.887H215.742V212.205H217.061V213.865H215.742V215.34H217.612L217.783 213.694H219.395V217H212.48ZM220.303 217V215.315H221.084V210.911H220.303V209.227H224.79C225.76 209.227 226.506 209.409 227.026 209.773C227.547 210.135 227.808 210.665 227.808 211.365C227.808 211.818 227.695 212.194 227.471 212.493C227.246 212.793 226.942 213.006 226.558 213.133C226.864 213.234 227.09 213.392 227.236 213.606C227.386 213.821 227.464 214.083 227.471 214.393L227.48 214.798C227.487 214.97 227.524 215.101 227.593 215.188C227.664 215.273 227.785 215.315 227.954 215.315H228.472V217H226.772C226.151 217 225.69 216.857 225.391 216.57C225.094 216.281 224.943 215.857 224.937 215.301L224.927 214.651C224.917 214.131 224.676 213.87 224.204 213.87H223.564V215.315H224.224V217H220.303ZM224.321 210.862H223.564V212.513H224.321C224.946 212.513 225.259 212.238 225.259 211.688C225.259 211.137 224.946 210.862 224.321 210.862Z" fill="white"/>
<path d="M114.527 242L116.605 237.988H115.355L115.258 238.887L114.203 238.883V236.719H118.785V237.832L116.754 242H114.527ZM119.715 242.105C119.384 242.105 119.118 242.016 118.918 241.836C118.717 241.656 118.617 241.414 118.617 241.109C118.617 240.807 118.717 240.569 118.918 240.395C119.118 240.22 119.384 240.133 119.715 240.133C120.048 240.133 120.314 240.22 120.512 240.395C120.712 240.569 120.812 240.807 120.812 241.109C120.812 241.414 120.712 241.656 120.512 241.836C120.311 242.016 120.046 242.105 119.715 242.105ZM123.633 242.109C122.859 242.109 122.258 241.969 121.828 241.688C121.398 241.404 121.184 241.02 121.184 240.535C121.184 240.246 121.255 240.001 121.398 239.801C121.542 239.598 121.746 239.436 122.012 239.316C121.616 239.069 121.418 238.702 121.418 238.215C121.418 237.895 121.508 237.617 121.688 237.383C121.87 237.146 122.126 236.964 122.457 236.836C122.79 236.706 123.182 236.641 123.633 236.641C124.083 236.641 124.474 236.706 124.805 236.836C125.138 236.964 125.395 237.146 125.574 237.383C125.757 237.617 125.848 237.895 125.848 238.215C125.848 238.702 125.65 239.069 125.254 239.316C125.52 239.436 125.724 239.598 125.867 239.801C126.01 240.001 126.082 240.246 126.082 240.535C126.082 241.02 125.867 241.404 125.438 241.688C125.008 241.969 124.406 242.109 123.633 242.109ZM123.633 238.961C123.81 238.961 123.953 238.904 124.062 238.789C124.172 238.674 124.227 238.523 124.227 238.336C124.227 238.148 124.172 237.997 124.062 237.883C123.953 237.768 123.81 237.711 123.633 237.711C123.456 237.711 123.312 237.768 123.203 237.883C123.094 237.997 123.039 238.148 123.039 238.336C123.039 238.523 123.094 238.674 123.203 238.789C123.312 238.904 123.456 238.961 123.633 238.961ZM123.633 241.039C123.872 241.039 124.064 240.983 124.207 240.871C124.35 240.757 124.422 240.604 124.422 240.414C124.422 240.227 124.349 240.076 124.203 239.961C124.06 239.846 123.87 239.789 123.633 239.789C123.396 239.789 123.204 239.846 123.059 239.961C122.915 240.076 122.844 240.227 122.844 240.414C122.844 240.604 122.915 240.757 123.059 240.871C123.204 240.983 123.396 241.039 123.633 241.039ZM129.637 239.625C129.335 239.625 129.072 239.561 128.848 239.434C128.626 239.306 128.454 239.13 128.332 238.906C128.212 238.68 128.152 238.423 128.152 238.137C128.152 237.848 128.212 237.591 128.332 237.367C128.454 237.141 128.626 236.964 128.848 236.836C129.072 236.706 129.335 236.641 129.637 236.641C129.939 236.641 130.201 236.706 130.422 236.836C130.646 236.964 130.818 237.141 130.938 237.367C131.06 237.591 131.121 237.848 131.121 238.137C131.121 238.423 131.06 238.68 130.938 238.906C130.818 239.13 130.646 239.306 130.422 239.434C130.201 239.561 129.939 239.625 129.637 239.625ZM129.375 242L132.555 236.719H133.805L130.625 242H129.375ZM129.637 238.797C129.733 238.797 129.809 238.74 129.863 238.625C129.921 238.508 129.949 238.342 129.949 238.129C129.949 237.915 129.921 237.753 129.863 237.641C129.809 237.526 129.733 237.469 129.637 237.469C129.54 237.469 129.464 237.526 129.406 237.641C129.352 237.753 129.324 237.915 129.324 238.129C129.324 238.342 129.352 238.508 129.406 238.625C129.464 238.74 129.54 238.797 129.637 238.797ZM133.543 242.102C133.241 242.102 132.978 242.038 132.754 241.91C132.533 241.783 132.361 241.607 132.238 241.383C132.118 241.159 132.059 240.902 132.059 240.613C132.059 240.324 132.118 240.068 132.238 239.844C132.361 239.617 132.533 239.44 132.754 239.312C132.978 239.182 133.241 239.117 133.543 239.117C133.845 239.117 134.107 239.182 134.328 239.312C134.552 239.44 134.724 239.617 134.844 239.844C134.966 240.068 135.027 240.324 135.027 240.613C135.027 240.902 134.966 241.159 134.844 241.383C134.724 241.607 134.552 241.783 134.328 241.91C134.107 242.038 133.845 242.102 133.543 242.102ZM133.543 241.273C133.639 241.273 133.715 241.216 133.77 241.102C133.827 240.984 133.855 240.819 133.855 240.605C133.855 240.392 133.827 240.229 133.77 240.117C133.715 240.003 133.639 239.945 133.543 239.945C133.447 239.945 133.37 240.003 133.312 240.117C133.258 240.229 133.23 240.392 133.23 240.605C133.23 240.819 133.258 240.984 133.312 241.102C133.37 241.216 133.447 241.273 133.543 241.273ZM136.898 242V240.652H137.465L138.633 237.129H137.793V235.781H141.652L143.113 240.652H143.68V242H140.176V240.652H140.82L140.641 239.969H139.031L138.828 240.652H139.473V242H136.898ZM139.32 238.992H140.383L139.887 237.094L139.32 238.992ZM144.016 242V240.652H144.641V237.129H144.016V235.781H147.531V237.129H146.672V240.672H147.945L148.102 239.215H149.391V242H144.016ZM153.27 242.113C152.564 242.113 151.952 241.978 151.434 241.707C150.918 241.436 150.52 241.049 150.238 240.547C149.957 240.044 149.816 239.447 149.816 238.754C149.816 238.257 149.889 237.816 150.035 237.434C150.184 237.051 150.387 236.728 150.645 236.465C150.905 236.202 151.203 236.004 151.539 235.871C151.875 235.736 152.232 235.668 152.609 235.668C153.005 235.668 153.348 235.73 153.637 235.855C153.926 235.98 154.164 236.163 154.352 236.402L154.551 235.781H155.625V238.367H154.199C154.178 237.867 154.079 237.522 153.902 237.332C153.728 237.142 153.499 237.047 153.215 237.047C153.007 237.047 152.811 237.105 152.629 237.223C152.449 237.34 152.303 237.52 152.191 237.762C152.082 238.004 152.027 238.314 152.027 238.691C152.027 239.249 152.172 239.676 152.461 239.973C152.753 240.267 153.161 240.414 153.688 240.414C153.997 240.414 154.301 240.362 154.598 240.258C154.895 240.154 155.171 239.993 155.426 239.777L155.531 239.824V241.473C155.229 241.694 154.872 241.857 154.461 241.961C154.052 242.062 153.655 242.113 153.27 242.113ZM157.199 242.105C156.868 242.105 156.603 242.016 156.402 241.836C156.202 241.656 156.102 241.414 156.102 241.109C156.102 240.807 156.202 240.569 156.402 240.395C156.603 240.22 156.868 240.133 157.199 240.133C157.533 240.133 157.798 240.22 157.996 240.395C158.197 240.569 158.297 240.807 158.297 241.109C158.297 241.414 158.197 241.656 157.996 241.836C157.796 242.016 157.53 242.105 157.199 242.105ZM160.141 242L161.473 235.781H163.387L162.055 242H160.141ZM167.277 242L165.738 237.129H165.172V235.781H168.684V237.129H168.039L169.035 240.617L170.031 237.129H169.387V235.781H171.984V237.129H171.418L169.883 242H167.277ZM175.27 242.113C174.626 242.113 174.07 241.984 173.602 241.727C173.135 241.466 172.776 241.095 172.523 240.613C172.271 240.132 172.145 239.56 172.145 238.898C172.145 238.232 172.271 237.658 172.523 237.176C172.776 236.691 173.135 236.319 173.602 236.059C174.07 235.798 174.626 235.668 175.27 235.668C175.915 235.668 176.471 235.798 176.938 236.059C177.404 236.319 177.763 236.691 178.016 237.176C178.268 237.658 178.395 238.232 178.395 238.898C178.395 239.56 178.268 240.132 178.016 240.613C177.763 241.095 177.404 241.466 176.938 241.727C176.471 241.984 175.915 242.113 175.27 242.113ZM175.27 240.766C175.561 240.766 175.785 240.607 175.941 240.289C176.098 239.971 176.176 239.504 176.176 238.887C176.176 238.27 176.098 237.802 175.941 237.484C175.785 237.167 175.561 237.008 175.27 237.008C174.978 237.008 174.754 237.167 174.598 237.484C174.441 237.802 174.363 238.27 174.363 238.887C174.363 239.504 174.441 239.971 174.598 240.289C174.754 240.607 174.978 240.766 175.27 240.766ZM178.93 242V240.652H179.555V237.129H178.93V235.781H182.445V237.129H181.586V240.672H182.859L183.016 239.215H184.305V242H178.93ZM185.777 242.105C185.447 242.105 185.181 242.016 184.98 241.836C184.78 241.656 184.68 241.414 184.68 241.109C184.68 240.807 184.78 240.569 184.98 240.395C185.181 240.22 185.447 240.133 185.777 240.133C186.111 240.133 186.376 240.22 186.574 240.395C186.775 240.569 186.875 240.807 186.875 241.109C186.875 241.414 186.775 241.656 186.574 241.836C186.374 242.016 186.108 242.105 185.777 242.105ZM120.941 255V253.75H121.684V251.445H120.863V250.301L123.539 249.641V253.75H124.145V255H120.941ZM124.73 255V253.887C125.493 253.59 126.081 253.241 126.492 252.84C126.906 252.439 127.113 252.018 127.113 251.578C127.113 251.331 127.061 251.133 126.957 250.984C126.853 250.836 126.697 250.762 126.488 250.762C126.272 250.762 126.107 250.835 125.992 250.98C125.88 251.124 125.824 251.31 125.824 251.539C125.824 251.667 125.84 251.784 125.871 251.891C125.905 251.997 125.957 252.116 126.027 252.246L125.031 252.641C124.904 252.513 124.801 252.344 124.723 252.133C124.645 251.922 124.605 251.699 124.605 251.465C124.605 251.069 124.703 250.736 124.898 250.465C125.096 250.194 125.362 249.99 125.695 249.852C126.031 249.711 126.408 249.641 126.824 249.641C127.254 249.641 127.629 249.71 127.949 249.848C128.272 249.983 128.522 250.182 128.699 250.445C128.879 250.708 128.969 251.027 128.969 251.402C128.969 251.861 128.803 252.285 128.473 252.676C128.145 253.066 127.65 253.392 126.988 253.652H129.098L129.117 255H124.73ZM131.188 255V253.652H131.812V250.129H131.188V248.781H136.641V251.367H135.352L135.215 250.109H133.797V251.164H134.812V252.492H133.797V253.652H134.93V255H131.188ZM137.031 255V253.652H137.656V250.129H137.031V248.781H140.547V250.129H139.688V253.672H140.961L141.117 252.215H142.406V255H137.031ZM143.879 255.105C143.548 255.105 143.283 255.016 143.082 254.836C142.882 254.656 142.781 254.414 142.781 254.109C142.781 253.807 142.882 253.569 143.082 253.395C143.283 253.22 143.548 253.133 143.879 253.133C144.212 253.133 144.478 253.22 144.676 253.395C144.876 253.569 144.977 253.807 144.977 254.109C144.977 254.414 144.876 254.656 144.676 254.836C144.475 255.016 144.21 255.105 143.879 255.105ZM150.152 255.113C149.509 255.113 148.953 254.984 148.484 254.727C148.018 254.466 147.659 254.095 147.406 253.613C147.154 253.132 147.027 252.56 147.027 251.898C147.027 251.232 147.154 250.658 147.406 250.176C147.659 249.691 148.018 249.319 148.484 249.059C148.953 248.798 149.509 248.668 150.152 248.668C150.798 248.668 151.354 248.798 151.82 249.059C152.286 249.319 152.646 249.691 152.898 250.176C153.151 250.658 153.277 251.232 153.277 251.898C153.277 252.56 153.151 253.132 152.898 253.613C152.646 254.095 152.286 254.466 151.82 254.727C151.354 254.984 150.798 255.113 150.152 255.113ZM150.152 253.766C150.444 253.766 150.668 253.607 150.824 253.289C150.98 252.971 151.059 252.504 151.059 251.887C151.059 251.27 150.98 250.802 150.824 250.484C150.668 250.167 150.444 250.008 150.152 250.008C149.861 250.008 149.637 250.167 149.48 250.484C149.324 250.802 149.246 251.27 149.246 251.887C149.246 252.504 149.324 252.971 149.48 253.289C149.637 253.607 149.861 253.766 150.152 253.766ZM157.062 255.113C156.185 255.113 155.504 254.892 155.02 254.449C154.538 254.007 154.297 253.298 154.297 252.324V250.129H153.672V248.781H156.973V250.129H156.328V252.328C156.328 253.151 156.669 253.562 157.352 253.562C157.677 253.562 157.919 253.456 158.078 253.242C158.24 253.029 158.32 252.724 158.32 252.328V250.129H157.676V248.781H160.25V250.129H159.625V252.48C159.625 254.236 158.771 255.113 157.062 255.113ZM164.723 255.004L162.586 251.445V253.652H163.211V255H160.688V253.652H161.312V250.129H160.688V248.781H163.48L165.625 252.34V250.129H165V248.781H167.523V250.129H166.898V255L164.723 255.004ZM171.473 255.113C170.767 255.113 170.155 254.978 169.637 254.707C169.121 254.436 168.723 254.049 168.441 253.547C168.16 253.044 168.02 252.447 168.02 251.754C168.02 251.257 168.092 250.816 168.238 250.434C168.387 250.051 168.59 249.728 168.848 249.465C169.108 249.202 169.406 249.004 169.742 248.871C170.078 248.736 170.435 248.668 170.812 248.668C171.208 248.668 171.551 248.73 171.84 248.855C172.129 248.98 172.367 249.163 172.555 249.402L172.754 248.781H173.828V251.367H172.402C172.382 250.867 172.283 250.522 172.105 250.332C171.931 250.142 171.702 250.047 171.418 250.047C171.21 250.047 171.014 250.105 170.832 250.223C170.652 250.34 170.507 250.52 170.395 250.762C170.285 251.004 170.23 251.314 170.23 251.691C170.23 252.249 170.375 252.676 170.664 252.973C170.956 253.267 171.365 253.414 171.891 253.414C172.201 253.414 172.504 253.362 172.801 253.258C173.098 253.154 173.374 252.993 173.629 252.777L173.734 252.824V254.473C173.432 254.694 173.076 254.857 172.664 254.961C172.255 255.062 171.858 255.113 171.473 255.113ZM174.438 255V253.652H175.062V250.129H174.438V248.781H179.969V251.254H178.68L178.543 250.109H177.047V251.164H178.102V252.492H177.047V253.672H178.543L178.68 252.355H179.969V255H174.438Z" fill="white"/>
<path d="M120.16 45.3846C133.935 56.4203 132.982 55.6325 133.166 55.8225C133.11 55.8741 117.666 70.1394 117.463 70.3002C117.186 69.9357 113.562 65.1296 113.296 64.7586C114.247 63.933 115.237 63.1529 116.185 62.3245C115.923 61.9331 110.184 53.4139 110 53.1886V53.1361C110.178 52.8259 113.363 46.0895 113.514 45.7661C113.741 45.7391 120.105 45.3846 120.16 45.3846Z" fill="white"/>
<path d="M180.919 45.4597C181.987 45.5267 186.288 45.7454 187.247 45.8246C190.676 53.0012 190.569 52.8516 190.769 53.185V53.2406C190.641 53.4084 191.053 52.8063 184.584 62.3752C184.76 62.5676 186.387 63.8827 187.471 64.8111C187.279 65.1038 183.533 70.06 183.308 70.3563C183.08 70.1825 167.812 56.0697 167.6 55.8721C167.828 55.6637 168.08 55.4837 168.318 55.2872C181.804 44.4829 180.458 45.4612 180.919 45.4597Z" fill="white"/>
<path d="M150.423 48.314C150.788 48.4209 168.948 52.6225 169.003 52.6355C168.94 52.7655 165.282 57.0135 165.235 57.0688C174.002 64.4731 183.04 72.0655 183.554 72.5277C183.559 72.5829 184.787 87.7029 184.807 88.2954C183.962 87.9061 170.812 81.2889 170.149 80.9825C169.871 81.0531 162.733 83.516 162.529 83.597C160.365 93.4679 160.621 92.1485 160.6 92.8609C160.175 106.222 160.084 110.321 160.037 110.578C159.026 110.044 158.019 109.503 157.01 108.964C156.567 108.762 157.205 108.695 154.062 109.654C153.196 109.944 152.31 110.177 151.453 110.494C151.086 110.634 150.736 110.816 150.363 110.937C148.679 110.329 151.776 111.171 144.127 108.785C143.951 108.708 141.094 110.39 140.715 110.509C140.036 88.8932 140.62 94.4612 138.278 83.701C138.178 83.4363 139.02 83.8031 131.345 81.1555C131.102 81.0864 130.873 80.9663 130.623 80.9235C130.255 81.0836 117.155 87.663 115.963 88.2415C115.964 87.7907 116.915 76.3658 117.205 72.4678C123.312 67.3147 129.425 62.168 135.532 57.0153C133.644 54.7805 131.876 52.7707 131.763 52.5816C151.481 48.0147 150.258 48.2431 150.423 48.314Z" fill="white"/>
<path d="M130.007 82.7571C130.408 83.8642 131.07 85.8119 131.156 85.9911C131.223 86.0701 131.05 85.9207 133.354 87.7049C133.527 87.8392 133.399 87.7221 137.79 88.0188C138.212 91.1423 138.622 94.2677 139.044 97.3912C139.084 97.5348 139.574 96.7766 130.818 109.05C130.688 109.222 131.774 117.262 131.894 118.75C131.756 118.642 117.961 105.473 117.902 105.375C117.896 105.319 116.306 90.2331 116.237 89.5163C116.295 89.4879 129.86 82.8086 130.007 82.7571Z" fill="white"/>
<path d="M170.762 82.81C175.356 85.0499 179.937 87.3206 184.528 89.5679C184.51 89.7742 182.918 105.353 182.796 105.526C178.155 109.963 173.513 114.398 168.87 118.833C168.923 118.26 169.993 109.378 169.997 109.183C168.757 107.414 161.889 97.8345 161.727 97.568C161.739 97.278 162.968 88.1489 162.982 88.068C163.038 88.0655 167.281 87.8667 167.425 87.7592C169.713 85.98 169.615 86.1074 169.661 85.9482C170.023 84.9003 170.395 83.8561 170.762 82.81Z" fill="white"/>
<path d="M139.16 98.5368C139.973 110.815 139.765 109.254 140.01 110.82C142.553 112.391 141.668 112.003 145.521 112.953C145.709 113.01 145.911 113.029 146.089 113.117C146.103 113.21 146.577 116.123 146.592 116.205C146.711 116.674 146.246 116.144 148.454 118.259C148.86 118.655 149.284 119.035 149.68 119.442C149.704 119.616 149.594 121.686 149.555 122.723C144.212 126.058 144.995 125.533 144.377 125.653C135.825 127.013 136.341 126.957 136.312 126.862C132.331 118.189 132.567 118.762 132.546 118.607C131.717 110.025 131.487 109.673 131.638 109.454C139.063 98.6663 138.712 99.1468 139.16 98.5368Z" fill="white"/>
<path d="M161.627 98.6067C161.666 98.6625 169.062 109.39 169.172 109.594C169.173 109.828 169.251 109.048 168.225 118.653C168.204 118.821 164.455 126.917 164.43 126.973C161.718 126.562 159.01 126.117 156.3 125.695C155.832 125.62 156.442 126.038 151.211 122.779C151.181 121.694 151.103 120.611 151.081 119.528C151.317 119.186 154.13 116.725 154.148 116.46C154.745 112.805 154.632 113.185 154.812 113.122C159.161 112.07 158.399 112.312 160.507 111.036C160.59 110.979 160.695 110.943 160.756 110.861C160.916 110.013 161.62 98.6279 161.627 98.6067Z" fill="white"/>
<path d="M144.743 109.727C149.834 111.543 149.906 111.574 150.501 111.685C152.555 111.149 155.956 109.635 156.392 109.812C157.225 110.184 158.067 110.536 158.895 110.916C158.851 110.972 157.978 112.064 157.808 112.096C157.285 112.228 154.44 112.957 154.256 113.018C154.147 113.394 153.758 116.535 153.651 116.649C151.72 118.687 150.939 119.574 150.398 119.969C150.341 119.951 147.146 116.691 147.076 116.516C146.882 115.332 146.717 114.143 146.527 112.958C142.419 111.878 142.913 112.079 142.691 111.824C142.423 111.502 142.144 111.188 141.876 110.865C142.174 110.704 142.493 110.587 142.801 110.447C144.77 109.579 144.516 109.656 144.743 109.727Z" fill="white"/>
<path d="M150.357 122.93C150.607 123.095 150.839 123.284 151.094 123.443C156.435 126.71 155.693 126.307 156.186 126.374C158.891 126.741 161.602 127.076 164.307 127.448C164.118 127.736 162.994 129.242 161.662 131.058C161.231 131.613 162.106 131.063 156.367 133.748C156.367 133.748 151.45 133.638 150.224 133.618C148.768 133.493 144.59 133.788 144.271 133.625C138.244 130.808 139.692 131.663 138.86 130.661C136.696 127.72 136.737 127.795 136.46 127.379C136.515 127.373 144.695 126.411 145.269 126.077C145.269 126.077 150.357 122.93 150.357 122.93Z" fill="white"/>
<rect x="1.5" y="1.5" width="297" height="297" rx="18.5" stroke="white" stroke-width="3"/>
</svg>
