<svg width="300" height="300" viewBox="0 0 300 300" fill="none" xmlns="http://www.w3.org/2000/svg">
<rect width="300" height="300" rx="50" fill="white"/>
<path d="M150 3.8554C223.123 4.25965 223.796 3.1789 230.696 5.47634C234.258 6.69884 237.706 8.52303 240.347 11.2478C242.539 13.4241 245.326 18.5503 245.575 22.1119C246.039 25.1517 245.706 28.3056 244.521 31.147C244.047 32.766 243.039 34.1213 242.22 35.5701C242.883 36.4332 243.597 37.2777 244.5 37.9005C248.649 33.2104 251.188 23.2592 246.417 13.7905C244.464 9.43015 240.581 6.29703 236.323 4.08584C233.418 2.85134 228.96 0.406714 217.907 0.537589C216.526 0.617839 179.886 0.526339 150 0.467651C120.114 0.526151 83.4742 0.617839 82.0929 0.537589C71.0405 0.406714 66.5827 2.85134 63.6774 4.08584C59.4189 6.29703 55.5359 9.43015 53.5831 13.7905C48.8127 23.2592 51.3515 33.2102 55.5007 37.9005C56.4035 37.2777 57.1173 36.4332 57.7799 35.5701C56.9611 34.1215 55.9533 32.766 55.4797 31.147C54.2947 28.3056 53.9609 25.1515 54.4254 22.1119C54.674 18.5505 57.4608 13.4243 59.6532 11.2478C62.294 8.52303 65.7419 6.69865 69.3043 5.47634C76.2039 3.1789 76.8768 4.25965 150 3.8554Z" fill="#423A32"/>
<path d="M296.145 150C295.74 223.123 296.821 223.796 294.524 230.696C293.302 234.258 291.477 237.706 288.752 240.347C286.576 242.539 281.45 245.326 277.888 245.575C274.848 246.039 271.695 245.705 268.853 244.52C267.234 244.047 265.879 243.039 264.43 242.22C263.567 242.883 262.722 243.597 262.1 244.499C266.79 248.649 276.741 251.187 286.21 246.417C290.57 244.464 293.703 240.581 295.914 236.323C297.149 233.417 299.593 228.96 299.463 217.907C299.382 216.526 299.474 179.886 299.532 150C299.474 120.114 299.382 83.4739 299.463 82.0926C299.593 71.0403 297.149 66.5824 295.914 63.6771C293.703 59.4186 290.57 55.5357 286.21 53.5829C276.741 48.8125 266.79 51.3512 262.1 55.5004C262.722 56.4032 263.567 57.1171 264.43 57.7797C265.879 56.9609 267.234 55.9531 268.853 55.4794C271.695 54.2944 274.849 53.9607 277.888 54.4251C281.45 54.6738 286.576 57.4606 288.752 59.653C291.477 62.2938 293.302 65.7417 294.524 69.304C296.821 76.2036 295.74 76.8766 296.145 150Z" fill="#423A32"/>
<path d="M150 296.145C76.8768 295.74 76.2039 296.821 69.3043 294.524C65.7419 293.302 62.2942 291.477 59.6532 288.752C57.4608 286.576 54.674 281.45 54.4254 277.888C53.9611 274.848 54.2947 271.695 55.4797 268.853C55.9533 267.234 56.9611 265.879 57.7799 264.43C57.1173 263.567 56.4035 262.722 55.5007 262.1C51.3515 266.79 48.8127 276.741 53.5831 286.21C55.5359 290.57 59.4189 293.703 63.6774 295.914C66.5827 297.149 71.0405 299.593 82.0929 299.463C83.4742 299.382 120.114 299.474 150 299.532C179.886 299.474 216.526 299.382 217.907 299.463C228.96 299.593 233.418 297.149 236.323 295.914C240.581 293.703 244.464 290.57 246.417 286.21C251.188 276.741 248.649 266.79 244.5 262.1C243.597 262.722 242.883 263.567 242.22 264.43C243.039 265.879 244.047 267.234 244.521 268.853C245.706 271.695 246.039 274.849 245.575 277.888C245.326 281.45 242.539 286.576 240.347 288.752C237.706 291.477 234.258 293.302 230.696 294.524C223.796 296.821 223.123 295.74 150 296.145Z" fill="#423A32"/>
<path d="M3.85528 150C4.25953 76.8766 3.17878 76.2036 5.47622 69.304C6.69872 65.7417 8.52291 62.2939 11.2477 59.653C13.424 57.4606 18.5502 54.6738 22.1118 54.4251C25.1515 53.9609 28.3055 54.2944 31.1468 55.4794C32.7659 55.9531 34.1212 56.9609 35.57 57.7797C36.433 57.1171 37.2775 56.4032 37.9004 55.5004C33.2103 51.3512 23.2591 48.8125 13.7903 53.5829C9.43003 55.5357 6.29709 59.4188 4.08572 63.6771C2.85122 66.5824 0.406592 71.0403 0.537467 82.0926C0.617717 83.4739 0.526217 120.114 0.467529 150C0.526029 179.886 0.617717 216.526 0.537467 217.907C0.406592 228.96 2.85122 233.417 4.08572 236.323C6.29691 240.581 9.43003 244.464 13.7903 246.417C23.2591 251.187 33.2101 248.649 37.9004 244.499C37.2775 243.597 36.433 242.883 35.57 242.22C34.1213 243.039 32.7659 244.047 31.1468 244.52C28.3055 245.705 25.1513 246.039 22.1118 245.575C18.5504 245.326 13.4242 242.539 11.2477 240.347C8.52291 237.706 6.69853 234.258 5.47622 230.696C3.17878 223.796 4.25953 223.123 3.85528 150Z" fill="#423A32"/>
<path d="M260.047 39.9531C256.464 40.6201 253.234 42.0623 250.973 44.0313C251.433 44.983 252.254 45.6736 253.119 46.2451C253.635 45.9717 254.134 45.6663 254.635 45.3651C254.334 45.8659 254.028 46.3647 253.755 46.8809C254.327 47.7464 255.017 48.5674 255.969 49.027C257.938 46.7665 259.38 43.5361 260.047 39.9531Z" fill="#423A32"/>
<path d="M260.047 260.047C259.38 256.464 257.938 253.234 255.969 250.973C255.017 251.433 254.327 252.254 253.755 253.119C254.028 253.635 254.334 254.134 254.635 254.635C254.134 254.334 253.635 254.028 253.119 253.755C252.254 254.327 251.433 255.017 250.973 255.969C253.234 257.938 256.464 259.38 260.047 260.047Z" fill="#423A32"/>
<path d="M39.9531 260.047C43.5361 259.38 46.7665 257.938 49.027 255.969C48.5674 255.017 47.7462 254.327 46.8809 253.755C46.3649 254.028 45.8659 254.334 45.3651 254.635C45.6664 254.134 45.9719 253.635 46.2451 253.119C45.6736 252.254 44.983 251.433 44.0313 250.973C42.0623 253.234 40.6203 256.464 39.9531 260.047Z" fill="#423A32"/>
<path d="M39.9531 39.9531C40.6201 43.5361 42.0623 46.7665 44.0313 49.027C44.983 48.5674 45.6736 47.7462 46.2451 46.8809C45.9717 46.3649 45.6663 45.8659 45.3651 45.3651C45.8659 45.6664 46.3647 45.9719 46.8809 46.2451C47.7464 45.6736 48.5674 44.983 49.027 44.0313C46.7665 42.0623 43.5361 40.6203 39.9531 39.9531Z" fill="#423A32"/>
<path d="M282.276 282.276C281.121 280.271 280.507 277.205 279.682 274.973C278.362 270.72 275.59 267.172 273.019 263.615C272.725 263.629 272.434 263.643 272.145 263.659C272.427 264.597 273.038 265.371 273.528 266.204C275.8 270.001 276.296 273.425 276.58 276.58C273.425 276.296 270.001 275.8 266.204 273.528C265.371 273.038 264.596 272.427 263.659 272.145C263.642 272.434 263.628 272.726 263.615 273.02C267.172 275.591 270.72 278.362 274.973 279.682C277.205 280.507 280.271 281.121 282.276 282.276Z" fill="#423A32"/>
<path d="M17.7239 282.276C19.7288 281.121 22.795 280.507 25.0266 279.682C29.2793 278.362 32.8276 275.59 36.3852 273.019C36.3711 272.725 36.3573 272.434 36.3409 272.145C35.4031 272.427 34.6287 273.038 33.7958 273.528C29.9986 275.8 26.5744 276.296 23.4199 276.58C23.704 273.425 24.1998 270.001 26.4719 266.204C26.9618 265.371 27.5731 264.596 27.8553 263.659C27.5659 263.642 27.2744 263.628 26.9804 263.615C24.4096 267.172 21.6381 270.72 20.3178 274.973C19.4929 277.205 18.8789 280.271 17.7239 282.276Z" fill="#423A32"/>
<path d="M17.7239 17.7238C18.8787 19.7287 19.4929 22.7949 20.3178 25.0265C21.6381 29.2792 24.4096 32.8274 26.9804 36.3851C27.2744 36.371 27.5659 36.3571 27.8553 36.3408C27.5729 35.4029 26.9618 34.6286 26.4719 33.7957C24.1998 29.9984 23.704 26.5743 23.4199 23.4198C26.5744 23.7039 29.9988 24.1996 33.7958 26.4718C34.6287 26.9617 35.4033 27.5729 36.3409 27.8551C36.3573 27.5658 36.3713 27.2743 36.3852 26.9803C32.8276 24.4094 29.2793 21.638 25.0266 20.3176C22.795 19.4928 19.729 18.8788 17.7239 17.7238Z" fill="#423A32"/>
<path d="M282.276 17.7238C280.271 18.8786 277.205 19.4928 274.973 20.3176C270.72 21.638 267.172 24.4094 263.615 26.9803C263.629 27.2743 263.643 27.5658 263.659 27.8551C264.597 27.5728 265.371 26.9617 266.204 26.4718C270.001 24.1996 273.425 23.7039 276.58 23.4198C276.296 26.5743 275.8 29.9986 273.528 33.7957C273.038 34.6286 272.427 35.4031 272.145 36.3408C272.434 36.3571 272.726 36.3712 273.02 36.3851C275.591 32.8274 278.362 29.2792 279.682 25.0265C280.507 22.7949 281.121 19.7289 282.276 17.7238Z" fill="#423A32"/>
<path d="M273.622 26.3776C271.912 26.1369 270.016 26.2051 267.863 26.9501C266.522 27.4119 265.201 27.9811 264.025 28.7836C264.053 28.9586 264.109 29.3109 264.137 29.4858C266.007 29.2314 267.902 27.7503 271.434 28.5665C272.25 32.0984 270.769 33.9933 270.514 35.8627C270.689 35.8906 271.041 35.9467 271.216 35.9746C272.019 34.7988 272.588 33.4784 273.05 32.1371C273.795 29.9836 273.863 28.0878 273.622 26.3776Z" fill="#423A32"/>
<path d="M273.622 273.622C273.863 271.912 273.795 270.016 273.05 267.863C272.588 266.522 272.019 265.201 271.216 264.025C271.041 264.053 270.689 264.109 270.514 264.137C270.769 266.007 272.25 267.902 271.434 271.434C267.902 272.25 266.007 270.769 264.137 270.514C264.109 270.689 264.053 271.041 264.025 271.216C265.201 272.019 266.522 272.588 267.863 273.05C270.016 273.795 271.912 273.863 273.622 273.622Z" fill="#423A32"/>
<path d="M26.3776 273.622C28.0878 273.863 29.9836 273.795 32.137 273.05C33.4784 272.588 34.7988 272.019 35.9746 271.216C35.9466 271.041 35.8906 270.689 35.8626 270.514C33.9931 270.769 32.0984 272.25 28.5665 271.434C27.7503 267.902 29.2313 266.007 29.4858 264.137C29.3108 264.109 28.9585 264.053 28.7836 264.025C27.9811 265.201 27.4118 266.522 26.95 267.863C26.2053 270.016 26.1368 271.912 26.3776 273.622Z" fill="#423A32"/>
<path d="M26.3776 26.3777C26.1369 28.0879 26.2051 29.9837 26.9501 32.1371C27.4119 33.4785 27.9811 34.7989 28.7836 35.9747C28.9586 35.9468 29.3109 35.8907 29.4858 35.8628C29.2314 33.9932 27.7503 32.0985 28.5665 28.5666C32.0984 27.7504 33.9933 29.2314 35.8627 29.4859C35.8906 29.3109 35.9467 28.9586 35.9746 28.7837C34.7988 27.9812 33.4784 27.4119 32.1371 26.9501C29.9836 26.2054 28.0878 26.1369 26.3776 26.3777Z" fill="#423A32"/>
<path d="M266.673 20.6398C265.339 22.2681 263.757 23.6772 262.43 25.3103C262.665 25.5507 262.906 25.7861 263.148 26.0125C265.392 24.3025 267.308 22.1843 269.592 20.5138C271.624 19.0581 273.562 17.4694 275.643 16.0791C279.385 13.6226 282.856 10.6202 285.336 6.86196C286.654 4.93971 288.103 2.81908 288.049 0.393021C286.036 0.170646 278.718 3.71477 273.578 11.2174C271.444 14.4763 269.111 17.6001 266.673 20.6398Z" fill="#423A32"/>
<path d="M20.6397 33.327C22.268 34.6614 23.677 36.243 25.3102 37.5705C25.5505 37.3348 25.786 37.0946 26.0123 36.852C24.3023 34.6078 22.1842 32.6925 20.5137 30.4085C19.058 28.3766 17.4693 26.438 16.079 24.3572C13.6225 20.6152 10.6201 17.144 6.86184 14.6642C4.93959 13.346 2.81896 11.8974 0.392899 11.951C0.170523 13.964 3.71465 21.2818 11.2173 26.4217C14.4762 28.5562 17.6 30.8891 20.6397 33.327Z" fill="#423A32"/>
<path d="M33.3268 279.36C34.6613 277.732 36.2429 276.323 37.5704 274.69C37.3347 274.45 37.0945 274.214 36.8519 273.988C34.6077 275.698 32.6923 277.816 30.4084 279.486C28.3765 280.942 26.4379 282.53 24.357 283.921C20.6151 286.377 17.1439 289.38 14.664 293.138C13.3459 295.06 11.8973 297.181 11.9509 299.607C13.9639 299.829 21.2817 296.285 26.4216 288.783C28.5561 285.523 30.889 282.4 33.3268 279.36Z" fill="#423A32"/>
<path d="M279.36 266.673C277.732 265.338 276.323 263.757 274.69 262.429C274.45 262.665 274.214 262.905 273.988 263.148C275.698 265.392 277.816 267.307 279.486 269.591C280.942 271.623 282.53 273.562 283.921 275.643C286.377 279.385 289.38 282.856 293.138 285.336C295.06 286.654 297.181 288.103 299.607 288.049C299.829 286.036 296.285 278.718 288.783 273.578C285.523 271.444 282.4 269.111 279.36 266.673Z" fill="#423A32"/>
<path d="M279.36 33.327C277.732 34.6614 276.323 36.243 274.69 37.5705C274.45 37.3348 274.214 37.0946 273.988 36.852C275.698 34.6078 277.816 32.6925 279.486 30.4085C280.942 28.3766 282.53 26.438 283.921 24.3572C286.377 20.6152 289.38 17.144 293.138 14.6642C295.06 13.346 297.181 11.8974 299.607 11.951C299.829 13.964 296.285 21.2818 288.783 26.4217C285.523 28.5562 282.4 30.8891 279.36 33.327Z" fill="#423A32"/>
<path d="M33.3268 20.6398C34.6613 22.2681 36.2429 23.6772 37.5704 25.3103C37.3347 25.5507 37.0945 25.7861 36.8519 26.0125C34.6077 24.3025 32.6923 22.1843 30.4084 20.5138C28.3765 19.0581 26.4379 17.4694 24.357 16.0791C20.6151 13.6226 17.1439 10.6202 14.664 6.86196C13.3459 4.93971 11.8973 2.81908 11.9509 0.393021C13.9639 0.170646 21.2817 3.71477 26.4216 11.2174C28.5561 14.4763 30.889 17.6001 33.3268 20.6398Z" fill="#423A32"/>
<path d="M20.6397 266.673C22.268 265.338 23.677 263.757 25.3102 262.429C25.5505 262.665 25.786 262.905 26.0123 263.148C24.3023 265.392 22.1842 267.307 20.5137 269.591C19.058 271.623 17.4693 273.562 16.079 275.643C13.6225 279.385 10.6201 282.856 6.86184 285.336C4.93959 286.654 2.81896 288.103 0.392899 288.049C0.170523 286.036 3.71465 278.718 11.2173 273.578C14.4762 271.444 17.6 269.111 20.6397 266.673Z" fill="#423A32"/>
<path d="M266.673 279.36C265.339 277.732 263.757 276.323 262.43 274.69C262.665 274.45 262.906 274.214 263.148 273.988C265.392 275.698 267.308 277.816 269.592 279.486C271.624 280.942 273.562 282.53 275.643 283.921C279.385 286.377 282.856 289.38 285.336 293.138C286.654 295.06 288.103 297.181 288.049 299.607C286.036 299.829 278.718 296.285 273.578 288.783C271.444 285.523 269.111 282.4 266.673 279.36Z" fill="#423A32"/>
<path d="M247.403 52.5968C247.345 52.5147 247.288 52.4318 247.231 52.3484C247.686 51.6722 248.228 51.0509 248.617 50.3324C247.931 49.6302 247.273 48.8766 246.417 48.3704C245.404 49.5473 244.526 50.8881 243.814 52.3484C244.23 53.2009 244.702 54.0128 245.225 54.7752C245.988 55.2977 246.799 55.77 247.652 56.1859C249.112 55.4738 250.453 54.5959 251.63 53.5834C251.124 52.7273 250.37 52.0694 249.668 51.3835C248.949 51.772 248.328 52.3148 247.652 52.7691C247.568 52.7127 247.486 52.6551 247.403 52.5968Z" fill="#423A32"/>
<path d="M247.403 247.403C247.485 247.345 247.568 247.288 247.652 247.231C248.328 247.686 248.949 248.228 249.668 248.617C250.37 247.931 251.124 247.273 251.63 246.417C250.453 245.404 249.112 244.526 247.652 243.814C246.799 244.23 245.988 244.702 245.225 245.225C244.703 245.988 244.23 246.799 243.814 247.652C244.527 249.112 245.404 250.453 246.417 251.63C247.273 251.124 247.931 250.37 248.617 249.668C248.228 248.949 247.686 248.328 247.231 247.652C247.287 247.568 247.345 247.486 247.403 247.403Z" fill="#423A32"/>
<path d="M52.5967 247.403C52.6552 247.485 52.7126 247.568 52.7689 247.652C52.3146 248.328 51.7717 248.949 51.3832 249.668C52.0691 250.37 52.7269 251.124 53.5832 251.63C54.5957 250.453 55.4737 249.112 56.1857 247.652C55.77 246.799 55.2977 245.988 54.7749 245.225C54.0126 244.703 53.2007 244.23 52.3481 243.814C50.8881 244.527 49.5472 245.404 48.3701 246.417C48.8764 247.273 49.6297 247.931 50.3321 248.617C51.0506 248.228 51.672 247.686 52.3481 247.231C52.4317 247.287 52.5146 247.345 52.5967 247.403Z" fill="#423A32"/>
<path d="M52.5968 52.5967C52.5147 52.6552 52.4318 52.7126 52.3484 52.7689C51.6722 52.3146 51.0509 51.7717 50.3324 51.3832C49.6302 52.0691 48.8766 52.7269 48.3704 53.5832C49.5473 54.5957 50.8881 55.4737 52.3484 56.1857C53.2009 55.77 54.0128 55.2977 54.7752 54.7749C55.2977 54.0126 55.77 53.2007 56.1859 52.3481C55.4738 50.8881 54.5959 49.5472 53.5834 48.3701C52.7273 48.8764 52.0694 49.6297 51.3835 50.3321C51.772 51.0506 52.3148 51.672 52.7691 52.3481C52.7127 52.4317 52.6551 52.5146 52.5968 52.5967Z" fill="#423A32"/>
<path d="M260.57 24.8016C260.946 24.9859 261.483 25.3778 261.758 24.832C263.577 22.3894 265.273 19.8467 266.717 17.164C269.323 12.1238 269.42 7.14921 271.773 4.97009C272.498 4.4149 273.562 4.02996 274.439 4.44284C274.943 4.82309 275.305 5.35502 275.748 5.79584C276.889 3.59833 275.099 0.95046 272.883 0.390585C271.14 -0.00372784 269.081 0.367335 267.9 1.80658C263.494 6.85521 266.633 14.1988 262.63 21.2485C262.038 22.4875 261.203 23.5862 260.57 24.8016Z" fill="#423A32"/>
<path d="M24.8015 39.4296C24.9858 39.054 25.3777 38.5174 24.8318 38.2422C22.3893 36.4225 19.8466 34.7265 17.1638 33.2826C12.1237 30.6767 7.14909 30.5794 4.96996 28.2272C4.41478 27.5018 4.02984 26.4379 4.44271 25.5608C4.82296 25.057 5.3549 24.6953 5.79571 24.252C3.59821 23.1113 0.950338 24.9006 0.390463 27.1169C-0.00384991 28.8595 0.367213 30.9194 1.80646 32.0999C6.85509 36.5059 14.1987 33.3674 21.2483 37.3697C22.4873 37.9624 23.5861 38.7975 24.8015 39.4296Z" fill="#423A32"/>
<path d="M39.4296 275.198C39.054 275.014 38.5174 274.622 38.2422 275.168C36.4225 277.611 34.7265 280.153 33.2826 282.836C30.6767 287.876 30.5794 292.851 28.2272 295.03C27.5018 295.585 26.4379 295.97 25.5608 295.557C25.057 295.177 24.6953 294.645 24.252 294.204C23.1113 296.402 24.9006 299.05 27.1169 299.609C28.8595 300.004 30.9194 299.633 32.0999 298.193C36.5059 293.145 33.3674 285.801 37.3697 278.752C37.9624 277.513 38.7975 276.414 39.4296 275.198Z" fill="#423A32"/>
<path d="M275.198 260.57C275.014 260.946 274.622 261.483 275.168 261.758C277.611 263.577 280.153 265.273 282.836 266.717C287.876 269.323 292.851 269.42 295.03 271.773C295.585 272.498 295.97 273.562 295.557 274.439C295.177 274.943 294.645 275.305 294.204 275.748C296.402 276.889 299.05 275.099 299.609 272.883C300.004 271.14 299.633 269.081 298.193 267.9C293.145 263.494 285.801 266.633 278.752 262.63C277.513 262.038 276.414 261.203 275.198 260.57Z" fill="#423A32"/>
<path d="M275.198 39.4296C275.014 39.054 274.622 38.5174 275.168 38.2422C277.611 36.4225 280.153 34.7265 282.836 33.2826C287.876 30.6767 292.851 30.5794 295.03 28.2272C295.585 27.5018 295.97 26.4379 295.557 25.5608C295.177 25.057 294.645 24.6953 294.204 24.252C296.402 23.1113 299.05 24.9006 299.609 27.1169C300.004 28.8595 299.633 30.9194 298.193 32.0999C293.145 36.5059 285.801 33.3674 278.752 37.3697C277.513 37.9624 276.414 38.7975 275.198 39.4296Z" fill="#423A32"/>
<path d="M39.4296 24.8016C39.054 24.9859 38.5174 25.3778 38.2422 24.832C36.4225 22.3894 34.7265 19.8467 33.2826 17.164C30.6767 12.1238 30.5794 7.14921 28.2272 4.97009C27.5018 4.4149 26.4379 4.02996 25.5608 4.44284C25.057 4.82309 24.6953 5.35502 24.252 5.79584C23.1113 3.59833 24.9006 0.95046 27.1169 0.390585C28.8595 -0.00372784 30.9194 0.367335 32.0999 1.80658C36.5059 6.85521 33.3674 14.1988 37.3697 21.2485C37.9624 22.4875 38.7975 23.5862 39.4296 24.8016Z" fill="#423A32"/>
<path d="M24.8015 260.57C24.9858 260.946 25.3777 261.483 24.8318 261.758C22.3893 263.577 19.8466 265.273 17.1638 266.717C12.1237 269.323 7.14909 269.42 4.96996 271.773C4.41478 272.498 4.02984 273.562 4.44271 274.439C4.82296 274.943 5.3549 275.305 5.79571 275.748C3.59821 276.889 0.950338 275.099 0.390463 272.883C-0.00384991 271.14 0.367213 269.081 1.80646 267.9C6.85509 263.494 14.1987 266.633 21.2483 262.63C22.4873 262.038 23.5861 261.203 24.8015 260.57Z" fill="#423A32"/>
<path d="M260.57 275.198C260.946 275.014 261.483 274.622 261.758 275.168C263.577 277.611 265.273 280.153 266.717 282.836C269.323 287.876 269.42 292.851 271.773 295.03C272.498 295.585 273.562 295.97 274.439 295.557C274.943 295.177 275.305 294.645 275.748 294.204C276.889 296.402 275.099 299.05 272.883 299.609C271.14 300.004 269.081 299.633 267.9 298.193C263.494 293.145 266.633 285.801 262.63 278.752C262.038 277.513 261.203 276.414 260.57 275.198Z" fill="#423A32"/>
<path d="M269.873 30.1266C269.69 29.9241 269.279 29.9685 269.004 29.9175C267.023 29.7777 265.126 30.4332 263.281 31.056C262.931 29.8382 262.754 28.5366 262.052 27.4517C258.884 30.3741 254.598 37.2928 253.187 35.9805C252.506 35.5442 252.268 34.5366 252.935 33.972C255.51 31.231 258.681 29.1313 261.328 26.4649C260.16 25.8351 258.828 25.674 257.577 25.2705C258.139 23.0847 259.005 20.7822 258.31 18.5192C257.698 18.8481 257.083 19.1678 256.446 19.4408C255.856 18.3934 255.536 17.1662 254.629 16.3217C253.824 15.5728 252.842 14.9104 251.726 14.7728C250.644 14.7471 249.51 15.1041 248.743 15.8925C250.852 16.5715 252.851 18.1577 253.282 20.4323C253.856 23.7752 253.171 27.2022 252.153 30.3912C250.98 33.1253 249.793 35.9269 247.879 38.2388C247.471 38.808 246.715 39.2187 246.622 39.951C247.236 40.7511 248.04 41.3787 248.766 42.0717C250.527 41.0383 249.793 40.5559 255.76 37.4736C258.501 36.1043 261.52 35.395 264.555 35.0777C264.692 35.0637 264.826 35.0515 264.959 35.0412C264.948 35.1733 264.936 35.308 264.922 35.445C264.605 38.4801 263.896 41.4988 262.526 44.2399C259.444 50.2063 258.961 49.4728 257.928 51.2338C258.621 51.9595 259.249 52.7642 260.049 53.3777C260.781 53.2843 261.192 52.5285 261.761 52.1203C264.073 50.2075 266.875 49.02 269.609 47.8465C272.798 46.8295 276.225 46.1436 279.568 46.7173C281.842 47.149 283.428 49.1481 284.107 51.2571C284.896 50.4897 285.253 49.3558 285.227 48.2734C285.089 47.1583 284.427 46.1762 283.678 45.3713C282.834 44.4638 281.606 44.1443 280.559 43.554C280.832 42.9171 281.152 42.3013 281.481 41.6901C279.218 40.9948 276.915 41.8603 274.729 42.4227C274.326 41.1722 274.165 39.8402 273.535 38.6713C270.868 41.3192 268.769 44.4895 266.028 47.065C265.463 47.7323 264.455 47.4942 264.019 46.813C262.707 45.4018 269.626 41.1156 272.548 37.9482C271.463 37.246 270.162 37.0686 268.944 36.7187C269.567 34.8735 270.222 32.9768 270.082 30.9962C270.031 30.7206 270.076 30.3096 269.873 30.1266Z" fill="#423A32"/>
<path d="M269.873 269.873C270.076 269.69 270.032 269.279 270.083 269.004C270.222 267.023 269.567 265.126 268.944 263.281C270.162 262.931 271.463 262.754 272.548 262.052C269.626 258.884 262.707 254.598 264.019 253.187C264.456 252.506 265.463 252.268 266.028 252.935C268.769 255.51 270.869 258.681 273.535 261.328C274.165 260.16 274.326 258.828 274.729 257.577C276.915 258.139 279.218 259.005 281.481 258.31C281.152 257.698 280.832 257.083 280.559 256.446C281.607 255.856 282.834 255.536 283.678 254.629C284.427 253.824 285.09 252.842 285.227 251.726C285.253 250.644 284.896 249.51 284.107 248.743C283.429 250.852 281.842 252.851 279.568 253.282C276.225 253.856 272.798 253.171 269.609 252.153C266.875 250.98 264.073 249.793 261.761 247.879C261.192 247.471 260.782 246.715 260.049 246.622C259.249 247.236 258.621 248.04 257.928 248.766C258.962 250.527 259.444 249.793 262.526 255.76C263.896 258.501 264.605 261.52 264.922 264.555C264.936 264.692 264.949 264.826 264.959 264.959C264.827 264.948 264.692 264.936 264.555 264.922C261.52 264.605 258.501 263.896 255.76 262.526C249.794 259.444 250.527 258.961 248.766 257.928C248.041 258.621 247.236 259.249 246.622 260.049C246.716 260.781 247.471 261.192 247.88 261.761C249.793 264.073 250.98 266.875 252.154 269.609C253.171 272.798 253.856 276.225 253.283 279.568C252.851 281.842 250.852 283.428 248.743 284.107C249.511 284.896 250.644 285.253 251.727 285.227C252.842 285.089 253.824 284.427 254.629 283.678C255.536 282.834 255.856 281.606 256.446 280.559C257.083 280.832 257.699 281.152 258.31 281.481C259.005 279.218 258.14 276.915 257.577 274.729C258.828 274.326 260.16 274.165 261.329 273.535C258.681 270.868 255.511 268.769 252.935 266.028C252.268 265.463 252.506 264.455 253.187 264.019C254.598 262.707 258.884 269.626 262.052 272.548C262.754 271.463 262.931 270.162 263.281 268.944C265.126 269.567 267.023 270.222 269.004 270.082C269.279 270.031 269.69 270.076 269.873 269.873Z" fill="#423A32"/>
<path d="M30.1266 269.873C30.3096 270.076 30.7207 270.032 30.9965 270.083C32.977 270.222 34.8736 269.567 36.719 268.944C37.0688 270.162 37.2462 271.463 37.9484 272.548C41.1158 269.626 45.4021 262.707 46.8132 264.019C47.4944 264.456 47.7323 265.463 47.0652 266.028C44.4897 268.769 41.3195 270.869 38.6716 273.535C39.8405 274.165 41.1725 274.326 42.4229 274.729C41.8608 276.915 40.9953 279.218 41.6903 281.481C42.3016 281.152 42.9173 280.832 43.5543 280.559C44.1445 281.607 44.464 282.834 45.3715 283.678C46.1763 284.427 47.1584 285.09 48.2737 285.227C49.3561 285.253 50.4899 284.896 51.2573 284.107C49.1485 283.429 47.1492 281.842 46.7176 279.568C46.1437 276.225 46.8295 272.798 47.8467 269.609C49.0201 266.875 50.2075 264.073 52.1206 261.761C52.5288 261.192 53.2846 260.782 53.378 260.049C52.7645 259.249 51.9597 258.621 51.2341 257.928C49.4733 258.962 50.2066 259.444 44.2402 262.526C41.4991 263.896 38.4803 264.605 35.4453 264.922C35.3082 264.936 35.1736 264.949 35.0414 264.959C35.0517 264.827 35.0639 264.692 35.078 264.555C35.3952 261.52 36.1043 258.501 37.4738 255.76C40.5562 249.794 41.0386 250.527 42.0719 248.766C41.3791 248.041 40.7515 247.236 39.9513 246.622C39.2187 246.716 38.8083 247.471 38.239 247.88C35.9272 249.793 33.1253 250.98 30.3914 252.154C27.2024 253.171 23.7755 253.856 20.4325 253.283C18.158 252.851 16.5717 250.852 15.8928 248.743C15.1043 249.511 14.7473 250.644 14.773 251.727C14.9106 252.842 15.5731 253.824 16.322 254.629C17.1665 255.536 18.3936 255.856 19.441 256.446C19.168 257.083 18.8485 257.699 18.5195 258.31C20.7824 259.005 23.0849 258.14 25.2708 257.577C25.6743 258.828 25.8353 260.16 26.4651 261.329C29.1316 258.681 31.2312 255.511 33.9723 252.935C34.5368 252.268 35.5447 252.506 35.9808 253.187C37.2929 254.598 30.3743 258.884 27.452 262.052C28.5366 262.754 29.8385 262.931 31.0563 263.281C30.4334 265.126 29.7779 267.023 29.9178 269.004C29.9686 269.279 29.9241 269.69 30.1266 269.873Z" fill="#423A32"/>
<path d="M30.1266 30.1265C29.9241 30.3095 29.9685 30.7205 29.9175 30.9963C29.7777 32.9769 30.4332 34.8735 31.056 36.7188C29.8382 37.0687 28.5366 37.2461 27.4517 37.9483C30.3741 41.1157 37.2928 45.402 35.9805 46.8131C35.5442 47.4943 34.5366 47.7322 33.972 47.0651C31.231 44.4896 29.1313 41.3193 26.4649 38.6715C25.8351 39.8403 25.674 41.1723 25.2705 42.4228C23.0847 41.8607 20.7822 40.9952 18.5192 41.6902C18.8481 42.3015 19.1678 42.9172 19.4408 43.5542C18.3934 44.1444 17.1662 44.4639 16.3217 45.3714C15.5728 46.1762 14.9104 47.1583 14.7728 48.2735C14.7471 49.356 15.1041 50.4898 15.8925 51.2572C16.5715 49.1484 18.1577 47.1491 20.4323 46.7175C23.7752 46.1435 27.2022 46.8294 30.3912 47.8466C33.1253 49.02 35.9269 50.2074 38.2388 52.1205C38.808 52.5287 39.2187 53.2845 39.951 53.3778C40.7511 52.7643 41.3787 51.9596 42.0717 51.234C41.0383 49.4732 40.5559 50.2065 37.4736 44.24C36.1043 41.499 35.395 38.4802 35.0777 35.4452C35.0637 35.3081 35.0515 35.1735 35.0412 35.0413C35.1733 35.0516 35.308 35.0638 35.445 35.0778C38.4801 35.3951 41.4988 36.1042 44.2399 37.4737C50.2063 40.556 49.4728 41.0385 51.2338 42.0718C51.9595 41.379 52.7642 40.7514 53.3777 39.9512C53.2843 39.2186 52.5285 38.8082 52.1203 38.2389C50.2075 35.927 49.02 33.1252 47.8465 30.3913C46.8295 27.2023 46.1436 23.7753 46.7173 20.4324C47.149 18.1578 49.1481 16.5716 51.2571 15.8926C50.4897 15.1042 49.3558 14.7472 48.2734 14.7729C47.1583 14.9105 46.1762 15.573 45.3713 16.3218C44.4638 17.1663 44.1443 18.3935 43.554 19.4409C42.9171 19.1679 42.3013 18.8484 41.6901 18.5193C40.9948 20.7823 41.8603 23.0848 42.4227 25.2707C41.1722 25.6742 39.8402 25.8352 38.6713 26.465C41.3192 29.1315 44.4895 31.2311 47.065 33.9722C47.7323 34.5367 47.4942 35.5445 46.813 35.9807C45.4018 37.2928 41.1156 30.3742 37.9482 27.4518C37.246 28.5365 37.0686 29.8383 36.7187 31.0562C34.8735 30.4333 32.9768 29.7778 30.9962 29.9177C30.7206 29.9685 30.3096 29.924 30.1266 30.1265Z" fill="#423A32"/>
<path d="M260.024 20.8031C259.957 22.1002 259.21 23.2222 259.014 24.4912C259.29 24.5216 259.563 24.5495 259.838 24.5752C265.208 16.0925 259.886 10.5212 259.829 6.37665C259.78 5.32928 260.552 4.32615 261.543 4.02747C262.385 3.90615 263.16 4.36797 263.944 4.59897C263.981 -1.18129 256.022 -0.395847 255.193 4.02034C253.875 10.6218 260.987 12.9988 260.024 20.8031Z" fill="#423A32"/>
<path d="M20.8031 39.9756C22.1002 40.0433 23.2222 40.7897 24.4912 40.9857C24.5216 40.7104 24.5495 40.4374 24.5752 40.1622C16.0925 34.7922 10.5212 40.1142 6.37665 40.1715C5.32928 40.2205 4.32615 39.4483 4.02747 38.4568C3.90615 37.6148 4.36797 36.8402 4.59897 36.0563C-1.18129 36.0192 -0.395847 43.9776 4.02034 44.8067C10.6218 46.1248 12.9988 39.013 20.8031 39.9756Z" fill="#423A32"/>
<path d="M39.9756 279.197C40.0433 277.9 40.7897 276.778 40.9857 275.509C40.7104 275.478 40.4374 275.45 40.1622 275.425C34.7922 283.907 40.1142 289.479 40.1715 293.623C40.2205 294.67 39.4483 295.674 38.4568 295.972C37.6148 296.094 36.8402 295.632 36.0563 295.401C36.0192 301.181 43.9776 300.396 44.8067 295.979C46.1248 289.378 39.013 287.001 39.9756 279.197Z" fill="#423A32"/>
<path d="M279.197 260.024C277.9 259.957 276.778 259.21 275.509 259.014C275.478 259.29 275.45 259.563 275.425 259.838C283.907 265.208 289.479 259.886 293.623 259.829C294.67 259.78 295.674 260.552 295.972 261.543C296.094 262.385 295.632 263.16 295.401 263.944C301.181 263.981 300.396 256.022 295.979 255.193C289.378 253.875 287.001 260.987 279.197 260.024Z" fill="#423A32"/>
<path d="M279.197 39.9756C277.9 40.0433 276.778 40.7897 275.509 40.9857C275.478 40.7104 275.45 40.4374 275.425 40.1622C283.907 34.7922 289.479 40.1142 293.623 40.1715C294.67 40.2205 295.674 39.4483 295.972 38.4568C296.094 37.6148 295.632 36.8402 295.401 36.0563C301.181 36.0192 300.396 43.9776 295.979 44.8067C289.378 46.1248 287.001 39.013 279.197 39.9756Z" fill="#423A32"/>
<path d="M39.9756 20.8031C40.0433 22.1002 40.7897 23.2222 40.9857 24.4912C40.7104 24.5216 40.4374 24.5495 40.1622 24.5752C34.7922 16.0925 40.1142 10.5212 40.1715 6.37665C40.2205 5.32928 39.4483 4.32615 38.4568 4.02747C37.6148 3.90615 36.8402 4.36797 36.0563 4.59897C36.0192 -1.18129 43.9776 -0.395847 44.8067 4.02034C46.1248 10.6218 39.013 12.9988 39.9756 20.8031Z" fill="#423A32"/>
<path d="M20.8031 260.024C22.1002 259.957 23.2222 259.21 24.4912 259.014C24.5216 259.29 24.5495 259.563 24.5752 259.838C16.0925 265.208 10.5212 259.886 6.37665 259.829C5.32928 259.78 4.32615 260.552 4.02747 261.543C3.90615 262.385 4.36797 263.16 4.59897 263.944C-1.18129 263.981 -0.395847 256.022 4.02034 255.193C10.6218 253.875 12.9988 260.987 20.8031 260.024Z" fill="#423A32"/>
<path d="M260.024 279.197C259.957 277.9 259.21 276.778 259.014 275.509C259.29 275.478 259.563 275.45 259.838 275.425C265.208 283.907 259.886 289.479 259.829 293.623C259.78 294.67 260.552 295.674 261.543 295.972C262.385 296.094 263.16 295.632 263.944 295.401C263.981 301.181 256.022 300.396 255.193 295.979C253.875 289.378 260.987 287.001 260.024 279.197Z" fill="#423A32"/>
<path d="M245.034 8.42492C249.357 12.2537 252.481 12.3639 255.179 15.0665C256.073 15.8947 256.665 16.9655 257.321 17.9732C257.596 17.8425 257.869 17.7049 258.142 17.5672C257.534 14.6786 253.743 11.2382 251.61 9.31835C249.95 7.85004 247.353 6.2546 248.687 4.26785C249.095 3.88291 249.772 3.4421 250.308 3.84316C250.721 4.07173 251.113 4.33779 251.519 4.57573C251.803 1.25735 249.535 -0.336774 246.828 0.0594132C245.227 0.248413 244.096 1.65035 243.48 3.03373C242.934 4.91866 243.541 7.12798 245.034 8.42492Z" fill="#423A32"/>
<path d="M8.42492 54.9664C12.2537 50.6432 12.3639 47.5193 15.0665 44.8208C15.8947 43.9273 16.9655 43.3348 17.9732 42.6792C17.8425 42.4039 17.7049 42.1309 17.5672 41.8579C14.6786 42.4656 11.2382 46.2567 9.31835 48.3899C7.85004 50.0498 6.2546 52.6472 4.26785 51.313C3.88291 50.9048 3.4421 50.2281 3.84316 49.6917C4.07173 49.2788 4.33779 48.8867 4.57573 48.4808C1.25735 48.1971 -0.336774 50.4651 0.0594132 53.1722C0.248413 54.7725 1.65035 55.9039 3.03373 56.5198C4.91866 57.066 7.12798 56.4595 8.42492 54.9664Z" fill="#423A32"/>
<path d="M54.9664 291.575C50.6432 287.746 47.5193 287.636 44.8208 284.933C43.9273 284.105 43.3348 283.034 42.6792 282.027C42.4039 282.157 42.1309 282.295 41.8579 282.433C42.4656 285.321 46.2567 288.762 48.3899 290.682C50.0498 292.15 52.6472 293.745 51.313 295.732C50.9048 296.117 50.2281 296.558 49.6917 296.157C49.2788 295.928 48.8867 295.662 48.4808 295.424C48.1971 298.743 50.4651 300.337 53.1722 299.941C54.7725 299.752 55.9039 298.35 56.5198 296.966C57.066 295.081 56.4595 292.872 54.9664 291.575Z" fill="#423A32"/>
<path d="M291.575 245.034C287.746 249.357 287.636 252.481 284.933 255.179C284.105 256.073 283.034 256.665 282.027 257.321C282.157 257.596 282.295 257.869 282.433 258.142C285.321 257.534 288.762 253.743 290.682 251.61C292.15 249.95 293.745 247.353 295.732 248.687C296.117 249.095 296.558 249.772 296.157 250.308C295.928 250.721 295.662 251.113 295.424 251.519C298.743 251.803 300.337 249.535 299.941 246.828C299.752 245.227 298.35 244.096 296.966 243.48C295.081 242.934 292.872 243.541 291.575 245.034Z" fill="#423A32"/>
<path d="M291.575 54.9664C287.746 50.6432 287.636 47.5193 284.933 44.8208C284.105 43.9273 283.034 43.3348 282.027 42.6792C282.157 42.4039 282.295 42.1309 282.433 41.8579C285.321 42.4656 288.762 46.2567 290.682 48.3899C292.15 50.0498 293.745 52.6472 295.732 51.313C296.117 50.9048 296.558 50.2281 296.157 49.6917C295.928 49.2788 295.662 48.8867 295.424 48.4808C298.743 48.1971 300.337 50.4651 299.941 53.1722C299.752 54.7725 298.35 55.9039 296.966 56.5198C295.081 57.066 292.872 56.4595 291.575 54.9664Z" fill="#423A32"/>
<path d="M54.9664 8.42492C50.6432 12.2537 47.5193 12.3639 44.8208 15.0665C43.9273 15.8947 43.3348 16.9655 42.6792 17.9732C42.4039 17.8425 42.1309 17.7049 41.8579 17.5672C42.4656 14.6786 46.2567 11.2382 48.3899 9.31835C50.0498 7.85004 52.6472 6.2546 51.313 4.26785C50.9048 3.88291 50.2281 3.4421 49.6917 3.84316C49.2788 4.07173 48.8867 4.33779 48.4808 4.57573C48.1971 1.25735 50.4651 -0.336774 53.1722 0.0594132C54.7725 0.248413 55.9039 1.65035 56.5198 3.03373C57.066 4.91866 56.4595 7.12798 54.9664 8.42492Z" fill="#423A32"/>
<path d="M8.42492 245.034C12.2537 249.357 12.3639 252.481 15.0665 255.179C15.8947 256.073 16.9655 256.665 17.9732 257.321C17.8425 257.596 17.7049 257.869 17.5672 258.142C14.6786 257.534 11.2382 253.743 9.31835 251.61C7.85004 249.95 6.2546 247.353 4.26785 248.687C3.88291 249.095 3.4421 249.772 3.84316 250.308C4.07173 250.721 4.33779 251.113 4.57573 251.519C1.25735 251.803 -0.336774 249.535 0.0594132 246.828C0.248413 245.227 1.65035 244.096 3.03373 243.48C4.91866 242.934 7.12798 243.541 8.42492 245.034Z" fill="#423A32"/>
<path d="M245.034 291.575C249.357 287.746 252.481 287.636 255.179 284.933C256.073 284.105 256.665 283.034 257.321 282.027C257.596 282.157 257.869 282.295 258.142 282.433C257.534 285.321 253.743 288.762 251.61 290.682C249.95 292.15 247.353 293.745 248.687 295.732C249.095 296.117 249.772 296.558 250.308 296.157C250.721 295.928 251.113 295.662 251.519 295.424C251.803 298.743 249.535 300.337 246.828 299.941C245.227 299.752 244.096 298.35 243.48 296.966C242.934 295.081 243.541 292.872 245.034 291.575Z" fill="#423A32"/>
<path d="M252.342 47.6581C250.919 46.1694 249.343 44.8284 247.92 43.3359C246.372 41.7086 241.911 37.0872 239.836 35.4065C239.052 36.0294 238.343 36.7503 237.788 37.5854C240.954 40.5644 243.886 43.7861 247.085 46.7302C248.729 48.3346 249.616 49.2918 250.142 49.8582C250.708 50.3838 251.666 51.2714 253.27 52.9156C256.214 56.114 259.436 59.0463 262.415 62.2121C263.25 61.6569 263.971 60.9477 264.594 60.1638C262.913 58.0889 258.292 53.6277 256.664 52.0805C255.172 50.6576 253.831 49.0816 252.342 47.6581Z" fill="#423A32"/>
<path d="M252.342 252.342C253.831 250.918 255.172 249.342 256.664 247.919C258.292 246.372 262.913 241.911 264.594 239.836C263.971 239.052 263.25 238.343 262.415 237.788C259.436 240.954 256.214 243.886 253.27 247.084C251.666 248.728 250.708 249.616 250.142 250.142C249.616 250.708 248.729 251.665 247.085 253.27C243.886 256.214 240.954 259.435 237.788 262.414C238.343 263.25 239.052 263.971 239.836 264.593C241.911 262.913 246.372 258.291 247.92 256.664C249.343 255.172 250.919 253.83 252.342 252.342Z" fill="#423A32"/>
<path d="M47.6581 252.342C49.0816 253.831 50.6576 255.172 52.0805 256.664C53.6277 258.291 58.0889 262.913 60.1638 264.593C60.9477 263.971 61.6569 263.25 62.2121 262.414C59.0463 259.435 56.114 256.214 52.9156 253.27C51.2714 251.665 50.3838 250.708 49.8582 250.142C49.2916 249.616 48.3346 248.728 46.7302 247.084C43.7861 243.886 40.5644 240.954 37.5854 237.788C36.7503 238.343 36.0294 239.052 35.4065 239.836C37.0872 241.911 41.7086 246.372 43.3359 247.919C44.8284 249.342 46.1694 250.918 47.6581 252.342Z" fill="#423A32"/>
<path d="M47.6581 47.6581C46.1694 49.0816 44.8284 50.6576 43.3359 52.0805C41.7086 53.6277 37.0872 58.0889 35.4065 60.1638C36.0294 60.9477 36.7503 61.6569 37.5854 62.2121C40.5644 59.0463 43.7861 56.114 46.7302 52.9156C48.3346 51.2714 49.2918 50.3838 49.8582 49.8582C50.3838 49.2916 51.2714 48.3346 52.9156 46.7302C56.114 43.7861 59.0463 40.5644 62.2121 37.5854C61.6569 36.7503 60.9477 36.0294 60.1638 35.4065C58.0889 37.0872 53.6277 41.7086 52.0805 43.3359C50.6576 44.8284 49.0816 46.1694 47.6581 47.6581Z" fill="#423A32"/>
<path d="M243.248 56.752C242.197 55.7337 241.288 54.5828 240.363 53.4518C240.071 53.0748 239.786 52.7078 239.505 52.348C239.786 51.9882 240.071 51.6211 240.363 51.2442C241.411 49.9634 242.437 48.6571 243.674 47.5467C243.998 47.185 244.52 46.8725 244.523 46.3289C243.872 45.475 243.142 44.6422 242.222 44.0637C240.223 45.7784 238.385 47.6866 236.26 49.252C234.878 50.2655 233.607 51.286 232.162 52.3482C233.607 53.4102 234.878 54.431 236.26 55.4444C237.841 56.6094 239.264 57.9642 240.712 59.2878C242.036 60.7362 243.391 62.1588 244.556 63.7404C245.569 65.1217 246.59 66.3935 247.652 67.8385C248.714 66.3933 249.735 65.1217 250.748 63.7404C252.313 61.615 254.222 59.7768 255.936 57.7777C255.358 56.8585 254.525 56.1284 253.671 55.4774C253.128 55.4797 252.815 56.0022 252.453 56.3266C251.343 57.563 250.037 58.5895 248.756 59.6369C248.379 59.9287 248.012 60.2144 247.652 60.4951C247.292 60.2146 246.925 59.9287 246.548 59.6369C245.417 58.7118 244.266 57.8032 243.248 56.752Z" fill="#423A32"/>
<path d="M243.248 243.248C244.266 242.197 245.417 241.288 246.548 240.363C246.925 240.071 247.292 239.786 247.652 239.505C248.011 239.786 248.379 240.071 248.755 240.363C250.036 241.411 251.343 242.437 252.453 243.674C252.814 243.998 253.127 244.52 253.671 244.523C254.525 243.872 255.358 243.142 255.936 242.222C254.221 240.223 252.313 238.385 250.748 236.26C249.734 234.878 248.714 233.607 247.651 232.162C246.589 233.607 245.569 234.878 244.555 236.26C243.39 237.841 242.035 239.264 240.712 240.712C239.264 242.036 237.841 243.391 236.259 244.556C234.878 245.569 233.606 246.59 232.161 247.652C233.606 248.714 234.878 249.735 236.259 250.748C238.385 252.313 240.223 254.222 242.222 255.936C243.141 255.358 243.871 254.525 244.522 253.671C244.52 253.128 243.997 252.815 243.673 252.453C242.437 251.343 241.41 250.037 240.363 248.756C240.071 248.379 239.785 248.012 239.505 247.652C239.785 247.292 240.071 246.925 240.363 246.548C241.288 245.417 242.197 244.266 243.248 243.248Z" fill="#423A32"/>
<path d="M56.7522 243.248C57.8033 244.266 58.7119 245.417 59.6367 246.548C59.9284 246.925 60.2142 247.292 60.4949 247.652C60.2144 248.011 59.9284 248.379 59.6367 248.755C58.5893 250.036 57.5627 251.343 56.3264 252.453C56.002 252.814 55.4794 253.127 55.4772 253.671C56.128 254.525 56.8583 255.358 57.7774 255.936C59.7767 254.221 61.615 252.313 63.7401 250.748C65.1214 249.734 66.3932 248.714 67.8383 247.651C66.393 246.589 65.1214 245.569 63.7401 244.555C62.1585 243.39 60.7358 242.035 59.2875 240.712C57.964 239.264 56.6091 237.841 55.4442 236.259C54.4307 234.878 53.4102 233.606 52.348 232.161C51.286 233.606 50.2652 234.878 49.2518 236.259C47.6865 238.385 45.7782 240.223 44.0635 242.222C44.6421 243.141 45.4748 243.871 46.3287 244.522C46.8722 244.52 47.1848 243.997 47.5465 243.673C48.6569 242.437 49.9634 241.41 51.244 240.363C51.621 240.071 51.988 239.785 52.3478 239.505C52.7076 239.785 53.0747 240.071 53.4516 240.363C54.583 241.288 55.7339 242.197 56.7522 243.248Z" fill="#423A32"/>
<path d="M56.752 56.7522C55.7337 57.8033 54.5828 58.7119 53.4518 59.6367C53.0748 59.9284 52.7078 60.2142 52.348 60.4949C51.9882 60.2144 51.6211 59.9284 51.2442 59.6367C49.9634 58.5893 48.6571 57.5627 47.5467 56.3264C47.185 56.002 46.8725 55.4794 46.3289 55.4772C45.475 56.128 44.6422 56.8583 44.0637 57.7774C45.7784 59.7767 47.6866 61.615 49.252 63.7401C50.2655 65.1214 51.286 66.3932 52.3482 67.8383C53.4102 66.393 54.431 65.1214 55.4444 63.7401C56.6094 62.1585 57.9642 60.7358 59.2878 59.2875C60.7362 57.964 62.1588 56.6091 63.7404 55.4442C65.1217 54.4307 66.3935 53.4102 67.8385 52.348C66.3933 51.286 65.1217 50.2652 63.7404 49.2518C61.615 47.6865 59.7768 45.7782 57.7777 44.0635C56.8585 44.6421 56.1284 45.4748 55.4774 46.3287C55.4797 46.8722 56.0022 47.1848 56.3266 47.5465C57.563 48.6569 58.5895 49.9634 59.6369 51.244C59.9287 51.621 60.2144 51.988 60.4951 52.3478C60.2146 52.7076 59.9287 53.0747 59.6369 53.4516C58.7118 54.583 57.8032 55.7339 56.752 56.7522Z" fill="#423A32"/>
<path d="M197.381 16.4196C193.242 12.3105 184.97 9.2627 178.613 10.9466C175.557 11.8191 172.545 13.4824 170.858 16.2726C169.165 18.4211 168.411 21.1785 168.451 23.8869C168.342 30.4851 173.782 35.3485 178.949 35.7891C186.416 37.0093 193.855 28.3375 188.789 21.0454C186.073 17.4934 180.668 16.6284 177.577 19.7134C173.631 24.3257 177.346 29.3042 181.027 28.9888C182.306 28.9073 183.5 28.0045 183.972 26.824C184.174 25.8488 184.098 24.4095 182.966 24.0525C182.738 24.6381 182.604 25.2726 182.255 25.8021C180.328 27.5663 177.913 24.6602 179.063 22.6178C180.673 19.587 185.952 20.2136 187.301 24.3977C188.278 27.8387 186.006 31.7719 182.544 32.656C180.197 33.4024 177.57 33.0409 175.457 31.8021C174.465 31.1815 173.768 30.2065 173.066 29.2896C171.789 27.6332 171.414 25.452 171.563 23.4038C171.719 18.2503 176.226 13.2525 182.357 13.4634C184.993 13.5497 187.667 13.965 190.058 15.1292C193.543 16.8765 196.553 19.4846 199.044 22.4636C201.302 25.3796 203.486 28.368 205.298 31.5851C207.86 35.6606 210.503 39.8458 214.399 42.7851C216.774 44.4111 219.34 45.8621 222.2 46.401C228.436 48.0293 235.348 46.324 240.3 42.265C239.743 41.3948 239.001 40.66 238.173 40.0487C235.262 42.1785 231.83 43.7719 228.172 43.8838C225.333 44.0751 222.564 43.2026 219.979 42.1133C215.918 40.512 211.86 34.9541 211.305 30.687C210.043 24.2799 214.046 17.331 220.49 15.5001C226.159 13.9879 230.934 16.1964 233.748 20.6348C236.783 25.8473 234.115 32.3256 229.009 33.8153C227.654 34.1839 226.156 34.3541 224.831 33.7826C218.721 31.4933 219.941 24.7367 223.966 24.0803C225.44 23.7304 227.444 24.9225 227.145 26.595C227.115 27.3671 226.403 27.7941 225.9 28.2677C226.849 28.9185 228.251 28.5874 228.888 27.6495C231.881 23.4915 224.617 17.7823 219.515 23.4038C216.831 26.3246 216.891 31.564 220.954 34.83C225.031 38.4075 231.87 37.5531 235.707 32.8238C238.673 29.4619 238.722 22.8006 236.57 19.221C232.116 10.6071 219.367 8.8367 211.87 17.385C207.2 23.2716 207.753 27.0707 207.694 29.0796C205.752 26.8172 203.802 22.1486 197.381 16.4196Z" fill="#423A32"/>
<path d="M16.4197 102.619C12.3106 106.758 9.26282 115.03 10.9468 121.387C11.8192 124.443 13.4825 127.455 16.2727 129.142C18.4213 130.835 21.1786 131.589 23.8871 131.549C30.4852 131.659 35.3486 126.218 35.7892 121.051C37.0094 113.584 28.3376 106.145 21.0455 111.211C17.4935 113.927 16.6286 119.332 19.7135 122.423C24.3258 126.369 29.3043 122.654 28.9889 118.973C28.9074 117.694 28.0046 116.5 26.8241 116.029C25.8489 115.826 24.4096 115.903 24.0526 117.034C24.6382 117.263 25.2727 117.396 25.8022 117.746C27.5664 119.672 24.6603 122.088 22.6179 120.937C19.5871 119.328 20.2138 114.048 24.3978 112.7C27.8388 111.722 31.772 113.994 32.6561 117.456C33.4025 119.803 33.041 122.43 31.8022 124.544C31.1816 125.535 30.2066 126.233 29.2897 126.935C27.6333 128.211 25.4521 128.586 23.4039 128.437C18.2504 128.282 13.2526 123.775 13.4636 117.643C13.5498 115.007 13.9651 112.334 15.1293 109.942C16.8766 106.457 19.4848 103.448 22.4638 100.956C25.3798 98.698 28.3681 96.5146 31.5853 94.7018C35.6608 92.1404 39.846 89.4972 42.7852 85.6013C44.4112 83.2265 45.8623 80.6603 46.4011 77.8002C48.0294 71.5645 46.3241 64.6523 42.2651 59.6997C41.3949 60.2573 40.6601 60.9991 40.0488 61.8273C42.1786 64.7386 43.772 68.1702 43.8839 71.8281C44.0752 74.6673 43.2028 77.4363 42.1134 80.0211C40.5121 84.0826 34.9543 88.1405 30.6871 88.6947C24.2801 89.9575 17.3311 85.9542 15.5002 79.5102C13.988 73.8411 16.1966 69.0663 20.6349 66.2526C25.8474 63.2168 32.3257 65.8848 33.8154 70.9906C34.184 72.346 34.3543 73.8436 33.7828 75.1688C31.4934 81.2789 24.7368 80.059 24.0804 76.0343C23.7305 74.56 24.9226 72.556 26.5951 72.8547C27.3673 72.8851 27.7942 73.5966 28.2678 74.1005C28.9186 73.151 28.5875 71.749 27.6496 71.1121C23.4916 68.1192 17.7824 75.3831 23.4039 80.4854C26.3248 83.1687 31.5641 83.1085 34.8301 79.046C38.4076 74.9691 37.5532 68.1297 32.8239 64.2931C29.462 61.3272 22.8007 61.2783 19.2211 63.43C10.6072 67.8846 8.83682 80.633 17.3851 88.1302C23.2717 92.8004 27.0708 92.2477 29.0797 92.306C26.8173 94.2477 22.1488 96.1981 16.4197 102.619Z" fill="#423A32"/>
<path d="M102.619 283.58C106.758 287.689 115.03 290.737 121.387 289.053C124.443 288.181 127.455 286.517 129.142 283.727C130.835 281.579 131.589 278.821 131.549 276.113C131.659 269.515 126.218 264.651 121.051 264.211C113.584 262.99 106.145 271.662 111.211 278.954C113.927 282.506 119.332 283.371 122.423 280.286C126.369 275.674 122.654 270.695 118.973 271.011C117.694 271.092 116.5 271.995 116.029 273.176C115.826 274.151 115.903 275.59 117.034 275.947C117.263 275.362 117.396 274.727 117.746 274.198C119.672 272.433 122.088 275.339 120.937 277.382C119.328 280.413 114.048 279.786 112.7 275.602C111.722 272.161 113.994 268.228 117.456 267.344C119.803 266.597 122.43 266.959 124.544 268.198C125.535 268.818 126.233 269.793 126.935 270.71C128.211 272.366 128.586 274.548 128.437 276.596C128.282 281.749 123.775 286.747 117.643 286.536C115.007 286.45 112.334 286.035 109.942 284.87C106.457 283.123 103.448 280.515 100.956 277.536C98.698 274.62 96.5146 271.632 94.7018 268.415C92.1404 264.339 89.4972 260.154 85.6013 257.215C83.2265 255.589 80.6603 254.138 77.8002 253.599C71.5645 251.97 64.6523 253.676 59.6997 257.735C60.2573 258.605 60.9991 259.34 61.8273 259.951C64.7386 257.821 68.1702 256.228 71.8281 256.116C74.6673 255.925 77.4363 256.797 80.0211 257.886C84.0826 259.488 88.1405 265.046 88.6947 269.313C89.9575 275.72 85.9542 282.668 79.5102 284.499C73.8411 286.012 69.0663 283.803 66.2526 279.365C63.2168 274.152 65.8848 267.674 70.9906 266.184C72.346 265.816 73.8436 265.645 75.1688 266.217C81.2789 268.506 80.059 275.263 76.0343 275.919C74.56 276.269 72.556 275.077 72.8547 273.404C72.8851 272.632 73.5966 272.205 74.1005 271.732C73.151 271.081 71.749 271.412 71.1121 272.35C68.1192 276.508 75.3831 282.217 80.4854 276.596C83.1687 273.675 83.1085 268.436 79.046 265.169C74.9691 261.592 68.1297 262.446 64.2931 267.176C61.3272 270.538 61.2783 277.199 63.43 280.778C67.8846 289.392 80.633 291.163 88.1302 282.614C92.8004 276.728 92.2477 272.929 92.306 270.92C94.2477 273.183 96.1981 277.851 102.619 283.58Z" fill="#423A32"/>
<path d="M283.58 197.381C287.689 193.242 290.737 184.97 289.053 178.613C288.181 175.557 286.517 172.545 283.727 170.858C281.579 169.165 278.821 168.411 276.113 168.451C269.515 168.342 264.651 173.782 264.211 178.949C262.99 186.416 271.662 193.855 278.954 188.789C282.506 186.073 283.371 180.668 280.286 177.577C275.674 173.631 270.695 177.346 271.011 181.027C271.092 182.306 271.995 183.5 273.176 183.972C274.151 184.174 275.59 184.098 275.947 182.966C275.362 182.738 274.727 182.604 274.198 182.255C272.433 180.328 275.339 177.913 277.382 179.063C280.413 180.673 279.786 185.952 275.602 187.301C272.161 188.278 268.228 186.006 267.344 182.544C266.597 180.197 266.959 177.57 268.198 175.457C268.818 174.465 269.793 173.768 270.71 173.066C272.366 171.789 274.548 171.414 276.596 171.563C281.749 171.719 286.747 176.226 286.536 182.357C286.45 184.993 286.035 187.667 284.87 190.058C283.123 193.543 280.515 196.553 277.536 199.044C274.62 201.302 271.632 203.486 268.415 205.298C264.339 207.86 260.154 210.503 257.215 214.399C255.589 216.774 254.138 219.34 253.599 222.2C251.97 228.436 253.676 235.348 257.735 240.3C258.605 239.743 259.34 239.001 259.951 238.173C257.821 235.262 256.228 231.83 256.116 228.172C255.925 225.333 256.797 222.564 257.886 219.979C259.488 215.918 265.046 211.86 269.313 211.305C275.72 210.043 282.668 214.046 284.499 220.49C286.012 226.159 283.803 230.934 279.365 233.748C274.152 236.783 267.674 234.115 266.184 229.009C265.816 227.654 265.645 226.156 266.217 224.831C268.506 218.721 275.263 219.941 275.919 223.966C276.269 225.44 275.077 227.444 273.404 227.145C272.632 227.115 272.205 226.403 271.732 225.9C271.081 226.849 271.412 228.251 272.35 228.888C276.508 231.881 282.217 224.617 276.596 219.515C273.675 216.831 268.436 216.891 265.169 220.954C261.592 225.031 262.446 231.87 267.176 235.707C270.538 238.673 277.199 238.722 280.778 236.57C289.392 232.116 291.163 219.367 282.614 211.87C276.728 207.2 272.929 207.753 270.92 207.694C273.183 205.752 277.851 203.802 283.58 197.381Z" fill="#423A32"/>
<path d="M283.58 102.619C287.689 106.758 290.737 115.03 289.053 121.387C288.181 124.443 286.517 127.455 283.727 129.142C281.579 130.835 278.821 131.589 276.113 131.549C269.515 131.659 264.651 126.218 264.211 121.051C262.99 113.584 271.662 106.145 278.954 111.211C282.506 113.927 283.371 119.332 280.286 122.423C275.674 126.369 270.695 122.654 271.011 118.973C271.092 117.694 271.995 116.5 273.176 116.029C274.151 115.826 275.59 115.903 275.947 117.034C275.362 117.263 274.727 117.396 274.198 117.746C272.433 119.672 275.339 122.088 277.382 120.937C280.413 119.328 279.786 114.048 275.602 112.7C272.161 111.722 268.228 113.994 267.344 117.456C266.597 119.803 266.959 122.43 268.198 124.544C268.818 125.535 269.793 126.233 270.71 126.935C272.366 128.211 274.548 128.586 276.596 128.437C281.749 128.282 286.747 123.775 286.536 117.643C286.45 115.007 286.035 112.334 284.87 109.942C283.123 106.457 280.515 103.448 277.536 100.956C274.62 98.698 271.632 96.5146 268.415 94.7018C264.339 92.1404 260.154 89.4972 257.215 85.6013C255.589 83.2265 254.138 80.6603 253.599 77.8002C251.97 71.5645 253.676 64.6523 257.735 59.6997C258.605 60.2573 259.34 60.9991 259.951 61.8273C257.821 64.7386 256.228 68.1702 256.116 71.8281C255.925 74.6673 256.797 77.4363 257.886 80.0211C259.488 84.0826 265.046 88.1405 269.313 88.6947C275.72 89.9575 282.668 85.9542 284.499 79.5102C286.012 73.8411 283.803 69.0663 279.365 66.2526C274.152 63.2168 267.674 65.8848 266.184 70.9906C265.816 72.346 265.645 73.8436 266.217 75.1688C268.506 81.2789 275.263 80.059 275.919 76.0343C276.269 74.56 275.077 72.556 273.404 72.8547C272.632 72.8851 272.205 73.5966 271.732 74.1005C271.081 73.151 271.412 71.749 272.35 71.1121C276.508 68.1192 282.217 75.3831 276.596 80.4854C273.675 83.1687 268.436 83.1085 265.169 79.046C261.592 74.9691 262.446 68.1297 267.176 64.2931C270.538 61.3272 277.199 61.2783 280.778 63.43C289.392 67.8846 291.163 80.633 282.614 88.1302C276.728 92.8004 272.929 92.2477 270.92 92.306C273.183 94.2477 277.851 96.1981 283.58 102.619Z" fill="#423A32"/>
<path d="M102.619 16.4196C106.758 12.3105 115.03 9.2627 121.387 10.9466C124.443 11.8191 127.455 13.4824 129.142 16.2726C130.835 18.4211 131.589 21.1785 131.549 23.8869C131.659 30.4851 126.218 35.3485 121.051 35.7891C113.584 37.0093 106.145 28.3375 111.211 21.0454C113.927 17.4934 119.332 16.6284 122.423 19.7134C126.369 24.3257 122.654 29.3042 118.973 28.9888C117.694 28.9073 116.5 28.0045 116.029 26.824C115.826 25.8488 115.903 24.4095 117.034 24.0525C117.263 24.6381 117.396 25.2726 117.746 25.8021C119.672 27.5663 122.088 24.6602 120.937 22.6178C119.328 19.587 114.048 20.2136 112.7 24.3977C111.722 27.8387 113.994 31.7719 117.456 32.656C119.803 33.4024 122.43 33.0409 124.544 31.8021C125.535 31.1815 126.233 30.2065 126.935 29.2896C128.211 27.6332 128.586 25.452 128.437 23.4038C128.282 18.2503 123.775 13.2525 117.643 13.4634C115.007 13.5497 112.334 13.965 109.942 15.1292C106.457 16.8765 103.448 19.4846 100.956 22.4636C98.698 25.3796 96.5146 28.368 94.7018 31.5851C92.1404 35.6606 89.4972 39.8458 85.6013 42.7851C83.2265 44.4111 80.6603 45.8621 77.8002 46.401C71.5645 48.0293 64.6523 46.324 59.6997 42.265C60.2573 41.3948 60.9991 40.66 61.8273 40.0487C64.7386 42.1785 68.1702 43.7719 71.8281 43.8838C74.6673 44.0751 77.4363 43.2026 80.0211 42.1133C84.0826 40.512 88.1405 34.9541 88.6947 30.687C89.9575 24.2799 85.9542 17.331 79.5102 15.5001C73.8411 13.9879 69.0663 16.1964 66.2526 20.6348C63.2168 25.8473 65.8848 32.3256 70.9906 33.8153C72.346 34.1839 73.8436 34.3541 75.1688 33.7826C81.2789 31.4933 80.059 24.7367 76.0343 24.0803C74.56 23.7304 72.556 24.9225 72.8547 26.595C72.8851 27.3671 73.5966 27.7941 74.1005 28.2677C73.151 28.9185 71.749 28.5874 71.1121 27.6495C68.1192 23.4915 75.3831 17.7823 80.4854 23.4038C83.1687 26.3246 83.1085 31.564 79.046 34.83C74.9691 38.4075 68.1297 37.5531 64.2931 32.8238C61.3272 29.4619 61.2783 22.8006 63.43 19.221C67.8846 10.6071 80.633 8.8367 88.1302 17.385C92.8004 23.2716 92.2477 27.0707 92.306 29.0796C94.2477 26.8172 96.1981 22.1486 102.619 16.4196Z" fill="#423A32"/>
<path d="M16.4197 197.381C12.3106 193.242 9.26282 184.97 10.9468 178.613C11.8192 175.557 13.4825 172.545 16.2727 170.858C18.4213 169.165 21.1786 168.411 23.8871 168.451C30.4852 168.342 35.3486 173.782 35.7892 178.949C37.0094 186.416 28.3376 193.855 21.0455 188.789C17.4935 186.073 16.6286 180.668 19.7135 177.577C24.3258 173.631 29.3043 177.346 28.9889 181.027C28.9074 182.306 28.0046 183.5 26.8241 183.972C25.8489 184.174 24.4096 184.098 24.0526 182.966C24.6382 182.738 25.2727 182.604 25.8022 182.255C27.5664 180.328 24.6603 177.913 22.6179 179.063C19.5871 180.673 20.2138 185.952 24.3978 187.301C27.8388 188.278 31.772 186.006 32.6561 182.544C33.4025 180.197 33.041 177.57 31.8022 175.457C31.1816 174.465 30.2066 173.768 29.2897 173.066C27.6333 171.789 25.4521 171.414 23.4039 171.563C18.2504 171.719 13.2526 176.226 13.4636 182.357C13.5498 184.993 13.9651 187.667 15.1293 190.058C16.8766 193.543 19.4848 196.553 22.4638 199.044C25.3798 201.302 28.3681 203.486 31.5853 205.298C35.6608 207.86 39.846 210.503 42.7852 214.399C44.4112 216.774 45.8623 219.34 46.4011 222.2C48.0294 228.436 46.3241 235.348 42.2651 240.3C41.3949 239.743 40.6601 239.001 40.0488 238.173C42.1786 235.262 43.772 231.83 43.8839 228.172C44.0752 225.333 43.2028 222.564 42.1134 219.979C40.5121 215.918 34.9543 211.86 30.6871 211.305C24.2801 210.043 17.3311 214.046 15.5002 220.49C13.988 226.159 16.1966 230.934 20.6349 233.748C25.8474 236.783 32.3257 234.115 33.8154 229.009C34.184 227.654 34.3543 226.156 33.7828 224.831C31.4934 218.721 24.7368 219.941 24.0804 223.966C23.7305 225.44 24.9226 227.444 26.5951 227.145C27.3673 227.115 27.7942 226.403 28.2678 225.9C28.9186 226.849 28.5875 228.251 27.6496 228.888C23.4916 231.881 17.7824 224.617 23.4039 219.515C26.3248 216.831 31.5641 216.891 34.8301 220.954C38.4076 225.031 37.5532 231.87 32.8239 235.707C29.462 238.673 22.8007 238.722 19.2211 236.57C10.6072 232.116 8.83682 219.367 17.3851 211.87C23.2717 207.2 27.0708 207.753 29.0797 207.694C26.8173 205.752 22.1488 203.802 16.4197 197.381Z" fill="#423A32"/>
<path d="M197.381 283.58C193.242 287.689 184.97 290.737 178.613 289.053C175.557 288.181 172.545 286.517 170.858 283.727C169.165 281.579 168.411 278.821 168.451 276.113C168.342 269.515 173.782 264.651 178.949 264.211C186.416 262.99 193.855 271.662 188.789 278.954C186.073 282.506 180.668 283.371 177.577 280.286C173.631 275.674 177.346 270.695 181.027 271.011C182.306 271.092 183.5 271.995 183.972 273.176C184.174 274.151 184.098 275.59 182.966 275.947C182.738 275.362 182.604 274.727 182.255 274.198C180.328 272.433 177.913 275.339 179.063 277.382C180.673 280.413 185.952 279.786 187.301 275.602C188.278 272.161 186.006 268.228 182.544 267.344C180.197 266.597 177.57 266.959 175.457 268.198C174.465 268.818 173.768 269.793 173.066 270.71C171.789 272.366 171.414 274.548 171.563 276.596C171.719 281.749 176.226 286.747 182.357 286.536C184.993 286.45 187.667 286.035 190.058 284.87C193.543 283.123 196.553 280.515 199.044 277.536C201.302 274.62 203.486 271.632 205.298 268.415C207.86 264.339 210.503 260.154 214.399 257.215C216.774 255.589 219.34 254.138 222.2 253.599C228.436 251.97 235.348 253.676 240.3 257.735C239.743 258.605 239.001 259.34 238.173 259.951C235.262 257.821 231.83 256.228 228.172 256.116C225.333 255.925 222.564 256.797 219.979 257.886C215.918 259.488 211.86 265.046 211.305 269.313C210.043 275.72 214.046 282.668 220.49 284.499C226.159 286.012 230.934 283.803 233.748 279.365C236.783 274.152 234.115 267.674 229.009 266.184C227.654 265.816 226.156 265.645 224.831 266.217C218.721 268.506 219.941 275.263 223.966 275.919C225.44 276.269 227.444 275.077 227.145 273.404C227.115 272.632 226.403 272.205 225.9 271.732C226.849 271.081 228.251 271.412 228.888 272.35C231.881 276.508 224.617 282.217 219.515 276.596C216.831 273.675 216.891 268.436 220.954 265.169C225.031 261.592 231.87 262.446 235.707 267.176C238.673 270.538 238.722 277.199 236.57 280.778C232.116 289.392 219.367 291.163 211.87 282.614C207.2 276.728 207.753 272.929 207.694 270.92C205.752 273.183 203.802 277.851 197.381 283.58Z" fill="#423A32"/>
<path d="M150 17.9909C153.723 16.553 157.059 14.7688 159.584 13.8581C163.72 12.3393 167.833 10.4428 172.279 10.0976C169.606 11.7095 166.633 12.9296 164.385 15.1621C162.619 16.9584 160.932 18.974 160.186 21.4258C159.081 25.5076 161.522 28.6934 164.709 28.2633C165.008 28.2749 165.225 28.0696 165.439 27.8971C164.795 27.2602 164.035 26.6677 163.732 25.7789C162.433 22.3473 165.038 17.0309 168.003 14.579C173.466 9.69406 176.155 9.76269 177.626 8.80288C175.278 8.55763 162.915 10.7859 159.036 11.9289C156.873 12.578 153.465 13.5562 150 14.3298C146.535 13.5564 143.127 12.578 140.965 11.9289C137.085 10.7857 124.722 8.55763 122.374 8.80288C123.845 9.76269 126.535 9.69406 131.997 14.579C134.962 17.0309 137.567 22.3473 136.269 25.7789C135.966 26.6677 135.205 27.2604 134.561 27.8971C134.776 28.0698 134.993 28.2749 135.291 28.2633C138.478 28.6934 140.919 25.5076 139.815 21.4258C139.068 18.974 137.382 16.9584 135.616 15.1621C133.367 12.9296 130.395 11.7095 127.721 10.0976C132.168 10.4428 136.281 12.3395 140.417 13.8581C142.941 14.7688 146.277 16.553 150 17.9909Z" fill="#423A32"/>
<path d="M282.009 150C283.447 153.723 285.231 157.059 286.142 159.584C287.66 163.72 289.557 167.833 289.902 172.279C288.29 169.606 287.07 166.633 284.838 164.385C283.041 162.619 281.026 160.932 278.574 160.186C274.492 159.081 271.306 161.522 271.736 164.709C271.725 165.008 271.93 165.225 272.103 165.439C272.74 164.795 273.332 164.035 274.221 163.732C277.652 162.433 282.969 165.038 285.421 168.003C290.306 173.466 290.237 176.155 291.197 177.626C291.442 175.278 289.214 162.915 288.071 159.036C287.422 156.873 286.444 153.465 285.67 150C286.443 146.535 287.422 143.127 288.071 140.965C289.214 137.085 291.442 124.722 291.197 122.374C290.237 123.845 290.306 126.535 285.421 131.997C282.969 134.962 277.652 137.567 274.221 136.269C273.332 135.966 272.739 135.205 272.103 134.561C271.93 134.776 271.725 134.993 271.736 135.291C271.306 138.478 274.492 140.919 278.574 139.815C281.026 139.068 283.041 137.382 284.838 135.616C287.07 133.367 288.29 130.395 289.902 127.721C289.557 132.168 287.66 136.281 286.142 140.417C285.231 142.941 283.447 146.277 282.009 150Z" fill="#423A32"/>
<path d="M150 282.009C146.277 283.447 142.941 285.231 140.416 286.142C136.28 287.66 132.168 289.557 127.721 289.902C130.395 288.29 133.367 287.07 135.615 284.838C137.382 283.041 139.068 281.026 139.815 278.574C140.919 274.492 138.478 271.306 135.291 271.736C134.992 271.725 134.775 271.93 134.561 272.103C135.205 272.74 135.965 273.332 136.269 274.221C137.567 277.652 134.962 282.969 131.997 285.421C126.534 290.306 123.845 290.237 122.374 291.197C124.722 291.442 137.085 289.214 140.964 288.071C143.127 287.422 146.535 286.444 150 285.67C153.465 286.443 156.873 287.422 159.035 288.071C162.915 289.214 175.278 291.442 177.626 291.197C176.155 290.237 173.466 290.306 168.003 285.421C165.038 282.969 162.433 277.652 163.731 274.221C164.034 273.332 164.795 272.739 165.439 272.103C165.224 271.93 165.007 271.725 164.709 271.736C161.522 271.306 159.081 274.492 160.185 278.574C160.932 281.026 162.618 283.041 164.384 284.838C166.633 287.07 169.605 288.29 172.279 289.902C167.832 289.557 163.719 287.66 159.583 286.142C157.059 285.231 153.723 283.447 150 282.009Z" fill="#423A32"/>
<path d="M17.9909 150C16.553 146.277 14.7688 142.941 13.8581 140.416C12.3393 136.28 10.4428 132.168 10.0976 127.721C11.7095 130.395 12.9296 133.367 15.1621 135.615C16.9584 137.382 18.974 139.068 21.4258 139.815C25.5076 140.919 28.6934 138.478 28.2633 135.291C28.2749 134.992 28.0696 134.775 27.8971 134.561C27.2602 135.205 26.6677 135.965 25.7789 136.269C22.3473 137.567 17.0309 134.962 14.579 131.997C9.69406 126.534 9.76269 123.845 8.80288 122.374C8.55763 124.722 10.7859 137.085 11.9289 140.964C12.578 143.127 13.5562 146.535 14.3298 150C13.5564 153.465 12.578 156.873 11.9289 159.035C10.7857 162.915 8.55763 175.278 8.80288 177.626C9.76269 176.155 9.69406 173.466 14.579 168.003C17.0309 165.038 22.3473 162.433 25.7789 163.731C26.6677 164.034 27.2604 164.795 27.8971 165.439C28.0698 165.224 28.2749 165.007 28.2633 164.709C28.6934 161.522 25.5076 159.081 21.4258 160.185C18.974 160.932 16.9584 162.618 15.1621 164.384C12.9296 166.633 11.7095 169.605 10.0976 172.279C10.4428 167.832 12.3395 163.719 13.8581 159.583C14.7688 157.059 16.553 153.723 17.9909 150Z" fill="#423A32"/>
<path d="M165.446 12.8596C163.424 13.1816 161.781 14.5392 159.971 15.4072C158.403 16.4266 156.801 17.3994 155.249 18.4422C156.152 19.0861 156.817 19.9679 157.447 20.8614C157.923 20.2197 158.352 19.5457 158.774 18.8645C161.077 15.2673 164.397 14.3116 165.446 12.8596Z" fill="#423A32"/>
<path d="M12.8596 134.554C13.1816 136.576 14.5392 138.219 15.4072 140.029C16.4266 141.597 17.3994 143.199 18.4422 144.751C19.0861 143.848 19.9679 143.183 20.8614 142.553C20.2197 142.077 19.5457 141.648 18.8645 141.226C15.2673 138.923 14.3116 135.603 12.8596 134.554Z" fill="#423A32"/>
<path d="M134.554 287.14C136.576 286.818 138.219 285.461 140.029 284.593C141.597 283.573 143.199 282.601 144.751 281.558C143.848 280.914 143.183 280.032 142.553 279.139C142.077 279.78 141.648 280.454 141.226 281.136C138.923 284.733 135.603 285.688 134.554 287.14Z" fill="#423A32"/>
<path d="M287.14 165.446C286.818 163.424 285.461 161.781 284.593 159.971C283.573 158.403 282.601 156.801 281.558 155.249C280.914 156.152 280.032 156.817 279.139 157.447C279.78 157.923 280.454 158.352 281.136 158.774C284.733 161.077 285.688 164.397 287.14 165.446Z" fill="#423A32"/>
<path d="M287.14 134.554C286.818 136.576 285.461 138.219 284.593 140.029C283.573 141.597 282.601 143.199 281.558 144.751C280.914 143.848 280.032 143.183 279.139 142.553C279.78 142.077 280.454 141.648 281.136 141.226C284.733 138.923 285.688 135.603 287.14 134.554Z" fill="#423A32"/>
<path d="M134.554 12.8596C136.576 13.1816 138.219 14.5392 140.029 15.4072C141.597 16.4266 143.199 17.3994 144.751 18.4422C143.848 19.0861 143.183 19.9679 142.553 20.8614C142.077 20.2197 141.648 19.5457 141.226 18.8645C138.923 15.2673 135.603 14.3116 134.554 12.8596Z" fill="#423A32"/>
<path d="M12.8596 165.446C13.1816 163.424 14.5392 161.781 15.4072 159.971C16.4266 158.403 17.3994 156.801 18.4422 155.249C19.0861 156.152 19.9679 156.817 20.8614 157.447C20.2197 157.923 19.5457 158.352 18.8645 158.774C15.2673 161.077 14.3116 164.397 12.8596 165.446Z" fill="#423A32"/>
<path d="M165.446 287.14C163.424 286.818 161.781 285.461 159.971 284.593C158.403 283.573 156.801 282.601 155.249 281.558C156.152 280.914 156.817 280.032 157.447 279.139C157.923 279.78 158.352 280.454 158.774 281.136C161.077 284.733 164.397 285.688 165.446 287.14Z" fill="#423A32"/>
<path d="M153.516 24.9906C154.706 24.9602 155.739 23.9944 155.968 22.8467C156.393 20.3222 154.018 18.8934 151.862 19.905C149.764 21.2413 150.167 25.0926 153.516 24.9906Z" fill="#423A32"/>
<path d="M24.9906 146.484C24.9602 145.294 23.9944 144.261 22.8467 144.032C20.3222 143.607 18.8934 145.982 19.905 148.138C21.2413 150.236 25.0926 149.833 24.9906 146.484Z" fill="#423A32"/>
<path d="M146.484 275.01C145.294 275.04 144.261 276.006 144.032 277.153C143.607 279.678 145.982 281.107 148.138 280.095C150.236 278.759 149.833 274.908 146.484 275.01Z" fill="#423A32"/>
<path d="M275.009 153.516C275.04 154.706 276.005 155.739 277.153 155.968C279.678 156.393 281.106 154.018 280.095 151.862C278.758 149.764 274.907 150.167 275.009 153.516Z" fill="#423A32"/>
<path d="M275.009 146.484C275.04 145.294 276.005 144.261 277.153 144.032C279.678 143.607 281.106 145.982 280.095 148.138C278.758 150.236 274.907 149.833 275.009 146.484Z" fill="#423A32"/>
<path d="M146.484 24.9906C145.294 24.9602 144.261 23.9944 144.032 22.8467C143.607 20.3222 145.982 18.8934 148.138 19.905C150.236 21.2413 149.833 25.0926 146.484 24.9906Z" fill="#423A32"/>
<path d="M24.9906 153.516C24.9602 154.706 23.9944 155.739 22.8467 155.968C20.3222 156.393 18.8934 154.018 19.905 151.862C21.2413 149.764 25.0926 150.167 24.9906 153.516Z" fill="#423A32"/>
<path d="M153.516 275.01C154.706 275.04 155.739 276.006 155.968 277.153C156.393 279.678 154.018 281.107 151.862 280.095C149.764 278.759 150.167 274.908 153.516 275.01Z" fill="#423A32"/>
<path d="M150 28.199C150.414 27.9558 150.746 27.5808 150.913 27.0712C151.346 26.0415 150.915 24.7087 150 24.1162C149.085 24.7087 148.654 26.0413 149.087 27.0712C149.254 27.5808 149.586 27.956 150 28.199Z" fill="#423A32"/>
<path d="M271.801 150C272.044 150.414 272.419 150.746 272.929 150.913C273.958 151.346 275.291 150.915 275.884 150C275.291 149.085 273.959 148.654 272.929 149.087C272.419 149.254 272.044 149.586 271.801 150Z" fill="#423A32"/>
<path d="M150 271.801C149.586 272.044 149.254 272.419 149.087 272.929C148.654 273.958 149.085 275.291 150 275.884C150.915 275.291 151.346 273.959 150.913 272.929C150.746 272.419 150.414 272.044 150 271.801Z" fill="#423A32"/>
<path d="M28.199 150C27.9558 149.586 27.5808 149.254 27.0712 149.087C26.0415 148.654 24.7087 149.085 24.1162 150C24.7087 150.915 26.0413 151.346 27.0712 150.913C27.5808 150.746 27.956 150.414 28.199 150Z" fill="#423A32"/>
</svg>
