<svg width="300" height="300" viewBox="0 0 300 300" fill="none" xmlns="http://www.w3.org/2000/svg">
<rect x="1.5" y="1.5" width="297" height="297" rx="18.5" fill="black"/>
<line x1="60.5" y1="10" x2="60.5" y2="290" stroke="white"/>
<line x1="240.5" y1="4" x2="240.5" y2="284" stroke="white"/>
<path d="M120.16 45.3846C133.935 56.4203 132.982 55.6324 133.166 55.8225C133.11 55.8741 117.666 70.1394 117.463 70.3002C117.186 69.9356 113.562 65.1296 113.296 64.7586C114.247 63.933 115.237 63.1529 116.185 62.3245C115.923 61.9331 110.184 53.4139 110 53.1886V53.1361C110.178 52.8259 113.363 46.0895 113.514 45.7661C113.741 45.7391 120.105 45.3846 120.16 45.3846Z" fill="white"/>
<path d="M180.919 45.4597C181.987 45.5267 186.288 45.7454 187.247 45.8246C190.676 53.0012 190.569 52.8516 190.769 53.185V53.2406C190.641 53.4084 191.053 52.8063 184.584 62.3752C184.76 62.5676 186.387 63.8827 187.471 64.8111C187.279 65.1038 183.533 70.06 183.308 70.3563C183.08 70.1825 167.812 56.0697 167.6 55.8721C167.828 55.6637 168.08 55.4837 168.318 55.2872C181.804 44.4829 180.458 45.4612 180.919 45.4597Z" fill="white"/>
<path d="M150.423 48.314C150.788 48.4209 168.948 52.6225 169.003 52.6355C168.94 52.7655 165.282 57.0135 165.235 57.0688C174.002 64.4731 183.04 72.0655 183.554 72.5277C183.559 72.5829 184.787 87.7029 184.807 88.2954C183.962 87.9061 170.812 81.2889 170.149 80.9825C169.871 81.0531 162.733 83.516 162.529 83.597C160.365 93.4679 160.621 92.1485 160.6 92.8609C160.175 106.222 160.084 110.321 160.037 110.578C159.026 110.044 158.019 109.503 157.01 108.964C156.567 108.762 157.205 108.695 154.062 109.654C153.196 109.944 152.31 110.177 151.453 110.494C151.086 110.634 150.736 110.816 150.363 110.937C148.679 110.329 151.776 111.171 144.127 108.785C143.951 108.708 141.094 110.39 140.715 110.509C140.036 88.8932 140.62 94.4612 138.278 83.701C138.178 83.4363 139.02 83.8031 131.345 81.1555C131.102 81.0864 130.873 80.9663 130.623 80.9235C130.255 81.0836 117.155 87.663 115.963 88.2415C115.964 87.7907 116.915 76.3658 117.205 72.4678C123.312 67.3147 129.425 62.168 135.532 57.0153C133.644 54.7805 131.876 52.7707 131.763 52.5816C151.481 48.0147 150.258 48.2431 150.423 48.314Z" fill="white"/>
<path d="M130.007 82.7571C130.408 83.8642 131.071 85.8119 131.156 85.9911C131.223 86.0701 131.05 85.9207 133.354 87.7049C133.527 87.8392 133.399 87.7221 137.79 88.0188C138.212 91.1423 138.622 94.2677 139.044 97.3912C139.084 97.5348 139.574 96.7766 130.818 109.05C130.689 109.222 131.774 117.262 131.894 118.75C131.756 118.642 117.961 105.473 117.902 105.375C117.896 105.319 116.307 90.2331 116.237 89.5163C116.295 89.4879 129.86 82.8086 130.007 82.7571Z" fill="white"/>
<path d="M170.761 82.81C175.356 85.0499 179.936 87.3206 184.528 89.5679C184.51 89.7742 182.918 105.353 182.796 105.526C178.155 109.963 173.513 114.398 168.87 118.833C168.923 118.26 169.993 109.378 169.997 109.183C168.757 107.414 161.889 97.8345 161.727 97.568C161.739 97.278 162.968 88.1489 162.982 88.068C163.038 88.0655 167.281 87.8667 167.425 87.7592C169.713 85.98 169.614 86.1074 169.661 85.9482C170.023 84.9003 170.395 83.8561 170.761 82.81Z" fill="white"/>
<path d="M139.16 98.5368C139.973 110.815 139.765 109.254 140.01 110.82C142.553 112.391 141.668 112.003 145.521 112.953C145.709 113.01 145.911 113.029 146.089 113.117C146.103 113.21 146.577 116.123 146.592 116.205C146.711 116.674 146.246 116.144 148.454 118.259C148.86 118.655 149.284 119.035 149.681 119.442C149.704 119.616 149.594 121.686 149.555 122.723C144.212 126.058 144.995 125.533 144.377 125.653C135.825 127.013 136.341 126.956 136.312 126.862C132.331 118.189 132.567 118.762 132.546 118.607C131.717 110.025 131.487 109.673 131.638 109.454C139.063 98.6663 138.712 99.1468 139.16 98.5368Z" fill="white"/>
<path d="M161.627 98.6067C161.665 98.6625 169.061 109.39 169.172 109.594C169.173 109.828 169.25 109.048 168.225 118.653C168.204 118.821 164.455 126.917 164.43 126.973C161.718 126.562 159.01 126.117 156.3 125.695C155.832 125.62 156.442 126.038 151.211 122.779C151.181 121.694 151.103 120.611 151.081 119.527C151.317 119.186 154.13 116.725 154.148 116.46C154.745 112.805 154.632 113.185 154.812 113.122C159.161 112.07 158.398 112.312 160.507 111.036C160.59 110.979 160.694 110.943 160.756 110.861C160.916 110.013 161.62 98.6278 161.627 98.6067Z" fill="white"/>
<path d="M144.743 109.727C149.834 111.543 149.906 111.574 150.501 111.685C152.555 111.149 155.956 109.635 156.392 109.812C157.225 110.184 158.067 110.536 158.895 110.916C158.851 110.972 157.978 112.064 157.808 112.096C157.285 112.228 154.44 112.957 154.257 113.018C154.147 113.394 153.758 116.535 153.651 116.649C151.72 118.687 150.939 119.574 150.398 119.969C150.342 119.951 147.146 116.691 147.076 116.516C146.882 115.332 146.717 114.143 146.527 112.957C142.419 111.878 142.914 112.079 142.692 111.824C142.423 111.502 142.144 111.188 141.876 110.865C142.174 110.704 142.493 110.587 142.801 110.447C144.77 109.579 144.516 109.656 144.743 109.727Z" fill="white"/>
<path d="M150.357 122.93C150.607 123.095 150.839 123.284 151.094 123.443C156.435 126.71 155.693 126.307 156.186 126.374C158.891 126.741 161.602 127.076 164.307 127.448C164.118 127.736 162.994 129.242 161.662 131.058C161.231 131.613 162.105 131.063 156.367 133.748C156.367 133.748 151.45 133.638 150.224 133.618C148.768 133.493 144.59 133.788 144.271 133.625C138.244 130.808 139.692 131.663 138.86 130.661C136.695 127.72 136.737 127.795 136.459 127.379C136.515 127.373 144.695 126.411 145.269 126.077C145.269 126.077 150.357 122.93 150.357 122.93Z" fill="white"/>
<rect x="1.5" y="1.5" width="297" height="297" rx="18.5" stroke="white" stroke-width="3"/>
</svg>
