<svg width="304" height="304" viewBox="0 0 304 304" fill="none" xmlns="http://www.w3.org/2000/svg">
<rect x="1" y="1" width="302" height="302" rx="51" fill="url(#paint0_radial_415_443)"/>
<path d="M89 232.476V71L152 106.476L215 71V232.476L152 200.67L89 232.476Z" fill="#D397B1"/>
<g opacity="0.46154" filter="url(#filter0_f_415_443)">
<path d="M152.647 92.0844C122.645 92.0844 98.3049 115.617 98.3049 144.62C98.3049 159.196 104.452 172.384 114.379 181.905L115.286 209.517C115.286 211.321 123.024 213.551 124.828 213.551L119.241 196.898L130.642 201.894L130.583 213.35L139.092 213.267L140.371 202.992C140.371 202.992 145.598 201.8 147.288 201.784C147.788 201.779 149.083 213.169 149.083 213.169L155.717 214.911C155.717 214.911 157.366 203.368 158.787 203.354C160.208 203.342 164.679 204.57 164.679 204.57L167.499 214.796L176.085 214.713L176.979 204.835L186.843 200.045L184.15 214.634L188.024 214.598C189.828 214.598 191.273 213.137 191.273 211.332L190.91 181.907C200.838 172.386 207 159.198 207 144.622C207 115.621 182.644 92.0871 152.642 92.0871L152.647 92.0844Z" fill="black"/>
<path d="M152.647 92.0844C122.645 92.0844 98.3049 115.617 98.3049 144.62C98.3049 159.196 104.452 172.384 114.379 181.905L115.286 209.517C115.286 211.321 123.024 213.551 124.828 213.551L119.241 196.898L130.642 201.894L130.583 213.35L139.092 213.267L140.371 202.992C140.371 202.992 145.598 201.8 147.288 201.784C147.788 201.779 149.083 213.169 149.083 213.169L155.717 214.911C155.717 214.911 157.366 203.368 158.787 203.354C160.208 203.342 164.679 204.57 164.679 204.57L167.499 214.796L176.085 214.713L176.979 204.835L186.843 200.045L184.15 214.634L188.024 214.598C189.828 214.598 191.273 213.137 191.273 211.332L190.91 181.907C200.838 172.386 207 159.198 207 144.622C207 115.621 182.644 92.0871 152.642 92.0871L152.647 92.0844Z" stroke="black" stroke-width="4.74322"/>
</g>
<path d="M151.342 89C121.341 89 97 112.533 97 141.535C97 156.111 103.147 169.299 113.074 178.82L113.981 206.433C113.981 208.237 121.719 210.467 123.524 210.467L117.936 193.814L129.337 198.81L129.278 210.266L137.787 210.183L139.066 199.908C139.066 199.908 144.293 198.716 145.983 198.7C146.483 198.695 147.778 210.085 147.778 210.085L154.412 211.827C154.412 211.827 156.061 200.283 157.482 200.269C158.904 200.257 163.374 201.485 163.374 201.485L166.194 211.711L174.78 211.628L175.674 201.75L185.538 196.96L182.845 211.549L186.719 211.514C188.523 211.514 189.968 210.052 189.968 208.248L189.605 178.823C199.533 169.302 205.695 156.114 205.695 141.538C205.695 112.536 181.339 89.0027 151.337 89.0027L151.342 89Z" fill="#CECECE" stroke="black" stroke-width="4.74322"/>
<g filter="url(#filter1_f_415_443)">
<path d="M109.347 161.008C123.312 167.011 137.312 171.518 151.816 154.275L136.695 185.137L163.112 190.001L154.206 156.444C171.443 165.531 185.032 160.026 197.912 151.685C195.633 159.371 193.076 166.699 187.01 169.515L185.252 178.934L171.298 186.9L187.55 189.493L187.76 209.069L184.964 208.656L186.92 195.191L184.766 193.833L172.016 198.298V207.621L167.872 207.102L165.794 197.78L155.96 197.261L153.059 208.341L149.952 207.508L148.706 195.704L136.272 197.156L136.279 207.102L130.582 207.62L131.618 195.19L116.609 192.496L118.992 206.178L115.664 206.072L114.634 191.461L128.618 191.045L117.641 185.452L119.705 174.475L109.347 161.008Z" fill="white"/>
</g>
<path d="M193.76 134.797C193.76 146.604 184.838 156.175 173.832 156.175C162.825 156.175 153.903 146.604 153.903 134.797C153.903 122.991 162.825 113.419 173.832 113.419C184.838 113.419 193.76 122.991 193.76 134.797Z" fill="black" stroke="black" stroke-width="4.74305"/>
<path fill-rule="evenodd" clip-rule="evenodd" d="M151.817 165.872L142.081 182.27L160.271 185.729L151.816 165.873L151.817 165.872Z" fill="black" stroke="black" stroke-width="1.18576"/>
<path fill-rule="evenodd" clip-rule="evenodd" d="M110.533 174.651L112.199 190.536L126.035 191.049L113.48 186.821L110.534 174.651L110.533 174.651Z" fill="black" stroke="black" stroke-width="1.18576"/>
<path fill-rule="evenodd" clip-rule="evenodd" d="M188.473 170.499L186.808 186.384L172.972 186.897L185.527 182.669L188.473 170.499V170.499Z" fill="black" stroke="black" stroke-width="1.18576"/>
<path opacity="0.61154" d="M124.769 119.251C114.213 119.251 105.651 129.15 105.651 141.349C105.651 153.547 114.213 163.447 124.769 163.447C125.099 163.447 125.426 163.435 125.752 163.412C115.683 162.783 107.68 153.14 107.68 141.348C107.68 129.555 115.683 119.912 125.752 119.284C125.426 119.26 125.1 119.248 124.769 119.248V119.251Z" fill="black" fill-opacity="0.5339"/>
<path opacity="0.71538" d="M170.204 112.489C159.648 112.489 151.086 122.389 151.086 134.587C151.086 146.785 159.648 156.685 170.204 156.685C170.534 156.685 170.861 156.674 171.186 156.65C161.117 156.021 153.114 146.378 153.114 134.586C153.114 122.793 161.117 113.151 171.186 112.522C170.86 112.498 170.534 112.486 170.204 112.486V112.489Z" fill="black" fill-opacity="0.53333"/>
<g filter="url(#filter2_f_415_443)">
<path fill-rule="evenodd" clip-rule="evenodd" d="M150.867 165.16L140.141 182.921L159.646 186.484L159.61 185.683L141.547 182.322L151.282 166.135L150.864 165.161L150.867 165.16Z" fill="black" fill-opacity="0.53333"/>
</g>
<path d="M148.207 141.678C148.207 153.485 139.284 163.056 128.278 163.056C117.272 163.056 108.349 153.485 108.349 141.678C108.349 129.871 117.272 120.3 128.278 120.3C139.284 120.3 148.207 129.871 148.207 141.678Z" fill="black" stroke="black" stroke-width="4.74305"/>
<g filter="url(#filter3_f_415_443)">
<path d="M111.957 142.027C118.793 157.547 129.226 163.045 145.201 153.108C130.306 167.401 114.964 162.692 111.957 142.027Z" fill="white" fill-opacity="0.41525"/>
</g>
<g opacity="0.66538" filter="url(#filter4_f_415_443)">
<path d="M189.422 188.53L173.058 187.173C178.653 186.843 185.971 185.901 185.971 185.901C185.971 185.901 187.829 177.888 187.9 175.138C196.864 163.429 205.655 158.741 203.732 131.078C206.558 143.658 205.8 163.45 189.509 178.796L189.422 188.53Z" fill="black"/>
</g>
<g filter="url(#filter5_f_415_443)">
<path d="M157.629 135.384C164.466 150.903 174.898 156.402 190.873 146.465C175.978 160.758 160.637 156.049 157.629 135.384Z" fill="white" fill-opacity="0.41525"/>
</g>
<g opacity="0.71923" filter="url(#filter6_f_415_443)">
<path d="M97.8401 144.875C101.521 157.525 108.812 169.897 115.215 178.834C108.353 176.151 97.1164 160.289 97.8401 144.875Z" fill="black"/>
</g>
<g opacity="0.32308" filter="url(#filter7_f_415_443)">
<path d="M146.597 90.4236C117.435 98.51 107.894 115.64 99.8971 127.199C104.997 104.454 128.931 88.1293 146.597 90.4236Z" fill="white"/>
</g>
<g opacity="0.6" filter="url(#filter8_f_415_443)">
<path d="M123.346 210.24L118.465 193.8L117.074 194.089L120.308 207.714C118.984 206.948 117.59 205.891 115.718 205.632L115.1 190.72L113.287 190.575C113.429 195.776 114.239 201.68 114.424 206.88C115.88 208.826 121.964 209.758 123.346 210.237L123.346 210.24Z" fill="black"/>
</g>
<g opacity="0.6" filter="url(#filter9_f_415_443)">
<path d="M129.514 198.377H130.84L130.935 208.224C133.035 207.683 134.35 207.773 135.998 208.141L137.278 199.136L139.172 199.42L137.562 210.025L129.23 209.835L129.514 198.377Z" fill="black"/>
</g>
<g opacity="0.6" filter="url(#filter10_f_415_443)">
<path d="M145.885 198.021L147.681 209.657L154.013 211.539L157.521 200.16L156.666 198.876C152.815 202.543 153.574 205.507 152.73 208.716C151.84 208.087 150.546 207.936 149.307 207.86L147.596 196.823L145.885 198.021Z" fill="black"/>
</g>
<g opacity="0.6" filter="url(#filter11_f_415_443)">
<path d="M163.442 200.868L166.266 211.648L174.736 211.392L175.934 201.553L173.453 200.783L172.854 209.339L167.72 209.595L164.897 200.354L163.442 200.868Z" fill="black"/>
</g>
<g opacity="0.6" filter="url(#filter12_f_415_443)">
<path d="M185.982 195.767L187.351 195.168L184.784 209.371L188.121 209.2L188.377 187.639L189.661 187.556L189.404 210.658L183.329 211.513L185.982 195.767Z" fill="black"/>
</g>
<g filter="url(#filter13_f_415_443)">
<path d="M130.107 113.912C137.351 116.232 143.764 117.49 149.788 126.342C160.637 98.9624 186.918 110.375 200.027 126.342C185.048 97.4191 168.702 94.4735 152.378 91.1234C143.245 93.1391 133.871 99.9134 130.107 113.912Z" fill="white"/>
</g>
<rect x="1" y="1" width="302" height="302" rx="51" stroke="black" stroke-width="2"/>
<defs>
<filter id="filter0_f_415_443" x="92.8584" y="86.6378" width="119.588" height="134.317" filterUnits="userSpaceOnUse" color-interpolation-filters="sRGB">
<feFlood flood-opacity="0" result="BackgroundImageFix"/>
<feBlend mode="normal" in="SourceGraphic" in2="BackgroundImageFix" result="shape"/>
<feGaussianBlur stdDeviation="1.53746" result="effect1_foregroundBlur_415_443"/>
</filter>
<filter id="filter1_f_415_443" x="93.1935" y="135.532" width="120.872" height="89.6908" filterUnits="userSpaceOnUse" color-interpolation-filters="sRGB">
<feFlood flood-opacity="0" result="BackgroundImageFix"/>
<feBlend mode="normal" in="SourceGraphic" in2="BackgroundImageFix" result="shape"/>
<feGaussianBlur stdDeviation="8.0767" result="effect1_foregroundBlur_415_443"/>
</filter>
<filter id="filter2_f_415_443" x="137.61" y="162.63" width="24.5662" height="26.3847" filterUnits="userSpaceOnUse" color-interpolation-filters="sRGB">
<feFlood flood-opacity="0" result="BackgroundImageFix"/>
<feBlend mode="normal" in="SourceGraphic" in2="BackgroundImageFix" result="shape"/>
<feGaussianBlur stdDeviation="1.2653" result="effect1_foregroundBlur_415_443"/>
</filter>
<filter id="filter3_f_415_443" x="110.328" y="140.399" width="36.5011" height="22.5711" filterUnits="userSpaceOnUse" color-interpolation-filters="sRGB">
<feFlood flood-opacity="0" result="BackgroundImageFix"/>
<feBlend mode="normal" in="SourceGraphic" in2="BackgroundImageFix" result="shape"/>
<feGaussianBlur stdDeviation="0.814364" result="effect1_foregroundBlur_415_443"/>
</filter>
<filter id="filter4_f_415_443" x="169.489" y="127.508" width="39.0821" height="64.591" filterUnits="userSpaceOnUse" color-interpolation-filters="sRGB">
<feFlood flood-opacity="0" result="BackgroundImageFix"/>
<feBlend mode="normal" in="SourceGraphic" in2="BackgroundImageFix" result="shape"/>
<feGaussianBlur stdDeviation="1.78457" result="effect1_foregroundBlur_415_443"/>
</filter>
<filter id="filter5_f_415_443" x="155.971" y="133.726" width="36.5605" height="22.6307" filterUnits="userSpaceOnUse" color-interpolation-filters="sRGB">
<feFlood flood-opacity="0" result="BackgroundImageFix"/>
<feBlend mode="normal" in="SourceGraphic" in2="BackgroundImageFix" result="shape"/>
<feGaussianBlur stdDeviation="0.829255" result="effect1_foregroundBlur_415_443"/>
</filter>
<filter id="filter6_f_415_443" x="93.6053" y="140.673" width="25.8108" height="42.3618" filterUnits="userSpaceOnUse" color-interpolation-filters="sRGB">
<feFlood flood-opacity="0" result="BackgroundImageFix"/>
<feBlend mode="normal" in="SourceGraphic" in2="BackgroundImageFix" result="shape"/>
<feGaussianBlur stdDeviation="2.10074" result="effect1_foregroundBlur_415_443"/>
</filter>
<filter id="filter7_f_415_443" x="92.8575" y="83.169" width="60.7789" height="51.0694" filterUnits="userSpaceOnUse" color-interpolation-filters="sRGB">
<feFlood flood-opacity="0" result="BackgroundImageFix"/>
<feBlend mode="normal" in="SourceGraphic" in2="BackgroundImageFix" result="shape"/>
<feGaussianBlur stdDeviation="3.51981" result="effect1_foregroundBlur_415_443"/>
</filter>
<filter id="filter8_f_415_443" x="107.059" y="184.347" width="22.5146" height="32.1205" filterUnits="userSpaceOnUse" color-interpolation-filters="sRGB">
<feFlood flood-opacity="0" result="BackgroundImageFix"/>
<feBlend mode="normal" in="SourceGraphic" in2="BackgroundImageFix" result="shape"/>
<feGaussianBlur stdDeviation="3.11399" result="effect1_foregroundBlur_415_443"/>
</filter>
<filter id="filter9_f_415_443" x="123.002" y="192.149" width="22.3976" height="24.1039" filterUnits="userSpaceOnUse" color-interpolation-filters="sRGB">
<feFlood flood-opacity="0" result="BackgroundImageFix"/>
<feBlend mode="normal" in="SourceGraphic" in2="BackgroundImageFix" result="shape"/>
<feGaussianBlur stdDeviation="3.11399" result="effect1_foregroundBlur_415_443"/>
</filter>
<filter id="filter10_f_415_443" x="139.657" y="190.595" width="24.0917" height="27.1721" filterUnits="userSpaceOnUse" color-interpolation-filters="sRGB">
<feFlood flood-opacity="0" result="BackgroundImageFix"/>
<feBlend mode="normal" in="SourceGraphic" in2="BackgroundImageFix" result="shape"/>
<feGaussianBlur stdDeviation="3.11399" result="effect1_foregroundBlur_415_443"/>
</filter>
<filter id="filter11_f_415_443" x="157.214" y="194.126" width="24.9478" height="23.7498" filterUnits="userSpaceOnUse" color-interpolation-filters="sRGB">
<feFlood flood-opacity="0" result="BackgroundImageFix"/>
<feBlend mode="normal" in="SourceGraphic" in2="BackgroundImageFix" result="shape"/>
<feGaussianBlur stdDeviation="3.11399" result="effect1_foregroundBlur_415_443"/>
</filter>
<filter id="filter12_f_415_443" x="177.101" y="181.328" width="18.7871" height="36.4131" filterUnits="userSpaceOnUse" color-interpolation-filters="sRGB">
<feFlood flood-opacity="0" result="BackgroundImageFix"/>
<feBlend mode="normal" in="SourceGraphic" in2="BackgroundImageFix" result="shape"/>
<feGaussianBlur stdDeviation="3.11399" result="effect1_foregroundBlur_415_443"/>
</filter>
<filter id="filter13_f_415_443" x="116.143" y="77.1596" width="97.8469" height="63.1464" filterUnits="userSpaceOnUse" color-interpolation-filters="sRGB">
<feFlood flood-opacity="0" result="BackgroundImageFix"/>
<feBlend mode="normal" in="SourceGraphic" in2="BackgroundImageFix" result="shape"/>
<feGaussianBlur stdDeviation="6.98192" result="effect1_foregroundBlur_415_443"/>
</filter>
<radialGradient id="paint0_radial_415_443" cx="0" cy="0" r="1" gradientUnits="userSpaceOnUse" gradientTransform="translate(152 152) rotate(90) scale(150)">
<stop stop-color="#2978BF" stop-opacity="0"/>
<stop offset="1" stop-color="#2978BF"/>
</radialGradient>
</defs>
</svg>
