<svg width="300" height="300" viewBox="0 0 300 300" fill="none" xmlns="http://www.w3.org/2000/svg">
<rect width="300" height="300" fill="url(#paint0_linear_415_764)"/>
<g clip-path="url(#clip0_415_764)">
<path d="M114.094 178.873V230.083H122.96V229.865L151.997 230.083L133.378 180.67L122.96 179.727V178.873H114.094ZM257.729 207.622L253.073 207.847L244.65 213.686L246.646 216.607L249.527 222.222L250.857 233.676L266.595 231.431L266.373 219.976L263.27 212.115L257.729 207.622Z" fill="#EED93A"/>
<path fill-rule="evenodd" clip-rule="evenodd" d="M113.778 232.022L116.66 221.914L120.871 205.518L127.078 190.919L133.506 179.913L139.934 180.138L145.697 175.196L149.687 174.073L161.878 188.897L164.095 201.026L168.306 205.069L176.951 208.887L188.034 212.256L192.689 212.481L195.127 217.422L198.674 222.139L198.009 224.834L199.56 227.754L205.545 232.92L113.778 232.022Z" fill="#E19B40"/>
<path fill-rule="evenodd" clip-rule="evenodd" d="M192.467 212.705L187.812 212.481L176.951 209.112L160.548 198.106L161.213 187.55L153.234 178.79L149.466 173.849L142.372 155.206L141.486 143.302L143.037 138.361L145.919 133.644L147.692 132.97L146.141 124.66L148.136 118.596L154.785 112.981L158.775 110.735L172.961 98.6058L187.369 92.9907L202.664 91.4185L212.195 92.7661L225.051 96.1352L242.562 106.242L255.862 120.842L262.29 138.136L266.723 145.324L268.496 151.163L265.393 155.88L260.517 159.474L260.073 163.292L259.852 167.56L257.192 173.399L252.537 181.036L240.567 193.389L230.149 199.229L200.004 201.924L192.467 212.705Z" fill="#D2B5AB"/>
<path fill-rule="evenodd" clip-rule="evenodd" d="M203.772 232.246L200.89 228.428L198.452 226.856L197.787 223.486L198.895 222.139L196.457 221.016L196.235 218.096L200.447 213.379L201.112 203.272L227.933 199.903L233.696 206.416L246.552 217.422L248.99 231.797L203.772 232.246Z" fill="#BC944D"/>
<path fill-rule="evenodd" clip-rule="evenodd" d="M196.457 219.444L192.911 213.604L192.024 208.438L193.576 203.721L197.344 194.962L200.89 191.592L204.659 188.223L209.978 185.977L216.185 185.753L220.84 187.999L226.159 192.716L227.711 199.678L215.963 201.7L209.535 202.149L199.56 204.395L198.452 213.155L197.344 216.973L196.457 219.444Z" fill="#BCA989"/>
<path fill-rule="evenodd" clip-rule="evenodd" d="M173.183 186.202L178.724 189.571L185.596 192.94L192.024 195.635L196.679 196.534L198.895 193.165L203.107 189.796L207.983 187.1L214.411 185.977L219.953 186.427L229.041 178.341L229.263 171.153L233.252 163.966L237.464 158.575L229.263 148.693L213.081 147.121L182.049 146.896L177.173 148.019L174.07 145.998L173.183 143.302L170.301 143.752L168.75 145.998L168.528 150.714L168.971 160.597L169.858 168.683L172.518 173.399L173.183 186.202Z" fill="#E7C290"/>
<path d="M197.034 91.0033C196.979 91.0177 196.911 91.0801 196.832 91.1899C196.644 91.4505 195.679 91.6446 194.687 91.6221C190.716 91.532 180.423 94.2811 175.092 96.8554C170.018 99.3061 162.394 105.027 159.008 108.926C157.234 110.97 155.75 112.136 153.742 113.062C147.789 115.808 144.906 121.859 146.335 128.612C147.17 132.563 147.168 133.008 146.317 132.677C145.934 132.528 145.613 132.452 145.603 132.509C145.089 135.525 145.176 136.338 146.277 138.775C146.935 140.23 147.337 141.643 147.171 141.914C147.003 142.19 147.092 142.269 147.373 142.093C147.65 141.919 147.999 142.169 148.148 142.646C148.372 143.359 153.427 148.719 155.555 150.5C156.639 151.407 160.022 153.114 160.015 152.75C160.005 152.258 159.109 150.871 159.1 151.335C159.085 152.119 155.597 149.466 153.052 146.734C148.701 142.063 147.062 139.168 146.227 134.679C145.857 132.687 147.244 132.586 148.422 134.518C148.967 135.411 149.605 136.142 149.84 136.142C150.455 136.142 150.365 135.705 149.588 134.918C148.748 134.066 147.198 129.209 147.628 128.773C148.006 128.39 148.43 128.76 148.605 129.626C148.724 130.216 148.853 130.603 149.643 132.729C149.811 133.182 149.907 133.738 149.856 133.964C149.805 134.19 150.086 134.25 150.479 134.096C150.924 133.924 151.195 134.08 151.195 134.509C151.195 135.453 152.446 135.38 153.462 134.377C154.769 133.085 157 129.419 157.141 128.33C157.293 127.159 156.137 126.041 155.165 126.419C154.787 126.566 154.346 126.47 154.185 126.207C153.825 125.617 151.598 124.65 150.963 124.808C150.708 124.871 150.653 124.766 150.842 124.574C151.032 124.382 150.954 123.941 150.67 123.594C150.385 123.246 150.282 122.961 150.441 122.961C150.6 122.961 150.365 122.572 149.918 122.096C149.361 121.504 148.921 121.373 148.524 121.682C148.101 122.013 147.943 121.859 147.943 121.113C147.943 118.706 150.384 115.882 154.161 113.921C156.082 112.923 156.878 112.718 160.192 112.368L161.987 112.177L161.676 116.04C161.301 120.697 160.839 122.711 159.223 126.727C157.853 130.131 156.477 132.222 153.874 134.848C151.822 136.917 151.703 137.258 153.286 136.527C153.925 136.232 154.447 135.778 154.447 135.518C154.447 135.257 154.577 135.176 154.735 135.336C155.077 135.682 156.306 134.529 156.306 133.862C156.306 133.606 156.466 133.326 156.662 133.24C157.673 132.794 160.629 127.84 161.439 125.233C161.948 123.595 162.552 121.917 162.78 121.503C163.007 121.09 163.33 119.607 163.496 118.208C163.663 116.809 163.89 115.095 164.003 114.399C164.246 112.885 162.837 111.664 160.848 111.664C160.138 111.664 159.557 111.484 159.557 111.265C159.557 110.883 163.149 107.184 165.597 105.043C172.041 99.4075 177.517 96.6198 186.502 94.4005C192.495 92.9203 205.606 92.3265 210.934 93.2945C212.699 93.6152 214.876 93.9826 215.77 94.1109C216.664 94.2392 217.605 94.5011 217.861 94.6929C218.116 94.8847 219.37 95.3071 220.648 95.6316C221.926 95.9562 223.598 96.4998 224.364 96.8388C225.131 97.1778 226.699 97.8345 227.849 98.2989C229.845 99.1051 233.705 101.211 235.951 102.719C238.569 104.478 239.729 105.334 240.16 105.825C240.415 106.116 241.565 106.996 242.715 107.78C244.479 108.983 248.33 112.865 251.469 116.606C253.28 118.765 256.676 124.324 256.932 125.55C256.986 125.809 257.491 127.059 258.055 128.327C258.618 129.595 259.257 132.031 259.476 133.741C259.694 135.45 260.09 138.543 260.357 140.614C261.001 145.63 260.864 156.984 260.124 159.881C259.799 161.158 259.612 162.429 259.711 162.706C259.865 163.143 255.22 166.909 254.397 167.014C254.232 167.035 253.123 167.497 251.933 168.039C250.743 168.581 248.757 169.183 247.519 169.378C245.591 169.682 245.436 169.78 246.431 170.068C247.07 170.252 247.906 170.33 248.29 170.242C248.673 170.153 249.614 169.934 250.38 169.755C252.37 169.29 257.048 166.86 259.09 165.229C260.466 164.13 260.775 163.61 260.563 162.754C260.388 162.047 260.567 161.447 261.078 161.028C263.352 159.164 266.016 156.073 267.419 153.674L269 150.97L268.261 148.146C267.476 145.15 266.705 143.693 264.234 140.541C263.303 139.354 262.493 137.606 262.174 136.099C261.678 133.753 259.709 127.902 258.546 125.315C255.328 118.156 248.944 110.648 240.983 104.658C239.252 103.356 237.585 102.07 237.276 101.799C236.968 101.529 236.581 101.307 236.417 101.307C236.253 101.307 234.937 100.569 233.493 99.6679C228.578 96.5985 216.512 92.4051 214.29 92.9938C213.826 93.1168 213.547 93.0519 213.67 92.8495C213.794 92.6471 213.081 92.3487 212.086 92.1875C211.091 92.0263 209.893 91.7682 209.423 91.6138C208.714 91.3805 208.687 91.4189 209.266 91.8409C209.846 92.2633 209.787 92.3507 208.918 92.3567C208.343 92.3606 207.856 92.0983 207.836 91.7747C207.807 91.3039 207.752 91.3039 207.565 91.7747C207.436 92.0983 207.126 92.3631 206.877 92.3631C206.628 92.3631 206.552 92.1532 206.709 91.896C206.867 91.6368 206.517 91.4345 205.923 91.4428C205.334 91.451 203.494 91.374 201.833 91.2708C200.172 91.1677 198.448 91.2726 198 91.5044C197.433 91.7986 197.185 91.743 197.18 91.3205C197.175 91.0866 197.125 90.9793 197.034 91.0033H197.034ZM147.785 124.951C147.89 124.918 147.943 125.405 147.943 126.414C147.943 127.363 147.74 128.14 147.491 128.14C147.23 128.14 147.159 127.489 147.324 126.61C147.526 125.537 147.681 124.984 147.785 124.951ZM143.714 135.952C143.474 135.922 143.238 136.222 142.794 136.942C140.994 139.857 140.707 148.282 142.169 155.268C143.068 159.561 145.511 166.619 147.4 170.376C148.21 171.987 148.872 173.388 148.872 173.491C148.872 173.593 148.071 173.787 147.091 173.92C145.35 174.157 140.88 176.982 140.146 178.309C139.581 179.333 130.041 179.581 123.721 178.736C118.74 178.07 115.403 177.88 114 178.16V180.102C114.095 179.933 114.208 179.885 114.344 179.878C114.624 179.863 114.918 179.855 115.227 179.852C117.386 179.833 120.222 180.1 123.554 180.638C125.853 181.01 128.597 181.372 129.651 181.442L131.568 181.569L129.056 185.782C127.674 188.1 126.411 190.534 126.248 191.191C126.085 191.849 125.674 192.669 125.334 193.014C124.994 193.358 124.715 194.007 124.715 194.454C124.715 194.902 124.524 195.469 124.29 195.715C123.516 196.53 120.498 204.563 119.171 209.343C116.084 220.458 114.861 225.411 114.621 227.773C114.521 228.753 114.371 229.585 114.236 230H115.913C115.95 229.667 116.518 226.504 117.045 223.7C117.359 222.031 117.716 220.358 118.05 218.993C118.209 218.345 118.362 217.254 118.391 216.566C118.419 215.879 118.579 215.402 118.745 215.506C118.912 215.61 119.306 214.584 119.62 213.225C119.935 211.867 120.366 210.414 120.577 209.996C120.789 209.579 121.086 208.528 121.236 207.662C121.387 206.795 121.681 205.865 121.889 205.596C122.098 205.326 122.697 203.941 123.221 202.517C123.746 201.093 124.545 199.08 124.997 198.045C125.449 197.009 125.833 196.046 125.848 195.904C125.952 194.959 131.996 183.616 133.095 182.304C133.861 181.39 134.385 180.968 134.604 180.975C134.886 180.983 134.662 181.7 133.797 182.992C133.145 183.965 132.613 184.929 132.613 185.135C132.613 185.341 132.371 186.105 132.075 186.834C131.78 187.563 131.51 188.371 131.474 188.63C130.762 193.81 130.479 194.946 129.598 196.162C128.376 197.849 125.088 205.855 123.991 209.813C123.56 211.367 122.717 214.121 122.116 215.933C121.516 217.745 120.804 220.181 120.534 221.346C120.264 222.512 119.919 223.888 119.767 224.406C119.615 224.924 119.262 226.46 118.983 227.819C118.726 229.072 118.565 229.693 118.272 230H120.298C119.939 229.607 120.073 228.715 120.559 226.76C121.382 223.451 121.571 222.539 121.58 221.817C121.585 221.429 121.743 220.899 121.93 220.64C122.118 220.381 122.42 219.322 122.602 218.287C122.783 217.251 123.399 215.133 123.97 213.579C125.665 208.97 126.642 206.093 126.767 205.341C126.832 204.953 127.195 203.894 127.575 202.987C127.954 202.081 128.668 200.335 129.161 199.106C129.717 197.718 130.232 196.984 130.607 196.919C130.983 196.855 131.219 197.46 131.219 198.751C131.219 199.861 131.439 200.634 131.755 200.634C132.095 200.634 132.032 200.936 131.583 201.458C130.518 202.695 129.879 204.095 128.338 208.569C125.191 217.706 122.462 227.707 122.694 229.253C122.748 229.609 122.742 229.843 122.643 230H123.92C123.831 229.797 123.893 229.454 124.02 228.87C124.189 228.088 124.394 226.659 124.474 225.693C124.554 224.727 124.743 223.618 124.896 223.229C125.048 222.841 125.594 220.841 126.11 218.783C126.625 216.726 127.202 214.925 127.391 214.782C127.58 214.639 127.735 214.309 127.739 214.05C127.748 213.253 129.763 206.997 130.68 204.921L131.548 202.957L132.555 205.754L133.561 208.551L132.576 210.241C132.035 211.171 131.742 211.932 131.927 211.932C132.111 211.932 132.047 212.196 131.784 212.52C131.522 212.844 130.944 214.377 130.501 215.927C130.058 217.478 129.535 219.066 129.34 219.458C128.582 220.974 127.23 226.747 126.941 229.702C126.93 229.814 126.844 229.914 126.709 230H128.895V228.792C128.895 227.838 129.087 226.547 129.321 225.924C129.554 225.301 129.876 224.07 130.036 223.187C130.432 220.992 130.506 220.711 130.829 220.17C130.983 219.911 131.266 218.961 131.458 218.058C131.884 216.046 134.013 210.99 134.434 210.99C134.602 210.99 135.357 212.208 136.112 213.697C136.868 215.186 137.614 216.51 137.772 216.639C137.929 216.768 138.4 217.552 138.818 218.379C139.236 219.207 140.08 220.478 140.693 221.204C144.762 226.029 147.417 228.773 148.524 229.296C148.923 229.484 149.277 229.745 149.512 230H153.651C153.481 229.636 153.195 229.349 152.973 229.349C152.448 229.349 149.622 227.226 148.083 225.676C147.491 225.079 146.794 224.724 146.534 224.887C146.274 225.05 146.119 224.99 146.189 224.755C146.26 224.519 145.481 223.361 144.459 222.18C143.437 221 142.183 219.447 141.672 218.73C141.161 218.012 140.533 217.186 140.278 216.895C138.935 215.361 135.315 208.181 133.978 204.4C132.562 200.395 132.388 192.113 133.654 188.983C134.249 187.514 134.31 186.981 133.887 186.976C133.482 186.971 133.463 186.865 133.825 186.623C134.109 186.433 134.664 185.641 135.059 184.864C135.915 183.178 137.443 181.349 137.907 181.406C137.938 181.41 137.964 181.422 137.985 181.443C138.126 181.586 137.942 182.838 137.576 184.225C136.555 188.087 136.399 190.82 136.978 194.641C137.165 195.876 137.461 196.798 137.637 196.689C137.812 196.58 137.975 197.052 138 197.739C138.024 198.425 138.7 200.363 139.502 202.046C140.304 203.729 140.911 205.248 140.851 205.421C140.792 205.594 141.172 206.23 141.696 206.833C142.22 207.437 143.052 208.725 143.544 209.696C144.035 210.666 144.55 211.461 144.687 211.461C144.824 211.461 145.445 212.295 146.067 213.314C146.689 214.334 147.365 215.063 147.57 214.934C147.775 214.806 147.943 214.948 147.943 215.251C147.943 215.825 149.277 217.478 151.109 219.175C156.777 224.423 156.852 224.486 158.379 225.19C159.027 225.49 159.557 225.913 159.557 226.13C159.557 226.348 159.714 226.482 159.906 226.43C160.097 226.378 161.195 226.851 162.345 227.483C163.495 228.114 165.272 228.991 166.294 229.434C166.782 229.645 167.146 229.843 167.362 230H174.512C172.217 229.728 171.172 229.343 171.172 228.824C171.172 228.595 170.9 228.408 170.568 228.408C170.237 228.408 168.252 227.557 166.158 226.517C164.065 225.477 162.284 224.683 162.201 224.752C162.119 224.821 161.542 224.326 160.92 223.652C160.298 222.979 159.189 222.112 158.455 221.726C156.774 220.842 148.984 213.031 148.617 211.862C148.467 211.383 148.174 210.99 147.966 210.99C147.757 210.99 147.464 210.619 147.314 210.166C147.041 209.344 146.07 207.67 145.608 207.224C144.988 206.627 142.368 203.057 142.368 202.809C142.368 202.656 141.724 201.47 140.937 200.173C139.503 197.812 138.058 191.705 138.449 189.651C138.548 189.128 138.374 188.379 138.06 187.986C137.677 187.506 137.666 187.379 138.028 187.599C138.392 187.821 138.669 187.157 138.889 185.537C139.072 184.186 139.493 183.04 139.859 182.898C140.214 182.76 140.378 182.439 140.223 182.185C139.906 181.665 143.118 178.519 145.659 176.859C146.574 176.262 147.973 175.704 148.767 175.619C148.922 175.603 149.064 175.592 149.196 175.59C150.12 175.575 150.564 175.961 151.632 177.454C152.414 178.548 153.054 179.647 153.054 179.896C153.054 180.146 152.317 180.489 151.417 180.66C149.799 180.968 146.792 183.885 147.276 184.677C147.396 184.874 147.283 185.167 147.025 185.328C146.381 185.731 146.9 192.655 147.758 195.12C148.975 198.615 150.776 201.27 154.61 205.224C156.681 207.359 158.554 209.107 158.772 209.107C158.99 209.107 160.04 209.796 161.106 210.637C164.218 213.096 165.175 213.547 165.703 212.8C166.049 212.31 166.095 212.339 165.91 212.931C165.628 213.834 167.501 215.367 170.097 216.359C176.369 218.756 181.289 220.523 182.089 220.665C182.6 220.756 183.578 220.948 184.261 221.092C185.193 221.287 185.557 221.146 185.717 220.526C185.879 219.896 185.943 219.948 185.984 220.75C186.019 221.43 186.406 221.883 187.083 222.036C192.858 223.343 194.149 223.58 194.804 223.451C195.22 223.369 195.694 223.286 195.855 223.266C196.017 223.246 196.262 222.794 196.4 222.261C196.617 221.421 196.773 221.37 197.579 221.881C198.385 222.39 198.427 222.588 197.892 223.361C197.032 224.606 197.743 226.842 199.524 228.49C200.306 229.214 201.093 229.756 201.273 229.696C201.439 229.64 201.572 229.777 201.593 230H204.164C204.113 229.749 204.356 229.599 204.858 229.603C204.962 229.603 205.077 229.61 205.201 229.624C205.776 229.689 206.403 229.76 206.595 229.781C206.715 229.795 206.816 229.883 206.879 230H208.536C208.536 229.999 208.531 229.998 208.531 229.997C208.296 229.638 206.327 228.896 204.155 228.35C198.819 227.006 198.531 226.822 198.663 224.839L198.772 223.201L200.883 223.537C202.044 223.722 203.359 223.88 203.806 223.888C204.254 223.896 204.619 224.026 204.619 224.178C204.619 224.33 205.09 224.466 205.665 224.481C206.617 224.505 208.599 224.78 212.246 225.395C212.991 225.521 213.74 225.711 213.911 225.818C214.082 225.925 214.927 226.139 215.789 226.293C216.651 226.447 217.575 226.753 217.841 226.973C218.793 227.761 224.124 229.742 224.339 229.388C224.627 228.916 222.469 227.347 220.415 226.537C219.52 226.185 218.58 225.745 218.324 225.559C217.784 225.167 214.771 224.421 214.259 224.552C214.068 224.602 213.911 224.417 213.911 224.143C213.911 223.869 213.754 223.743 213.562 223.862C213.371 223.981 211.541 223.78 209.497 223.416C207.453 223.052 204.84 222.653 203.69 222.531C197.447 221.864 197.539 221.914 197.108 218.993C196.897 217.559 197.707 216.231 198.949 215.976C200.939 215.567 217.455 216.044 218.4 216.538C218.87 216.783 219.515 216.888 219.834 216.772C220.698 216.458 220.532 217.627 219.486 219.228C218.978 220.005 218.578 221.064 218.596 221.582C218.615 222.116 218.734 222.26 218.87 221.915C219.036 221.498 219.287 221.456 219.671 221.778C220.383 222.377 222.131 221.93 222.458 221.065C222.768 220.246 222.191 220.207 221.407 220.993C220.935 221.467 220.917 221.323 221.315 220.256C221.767 219.042 221.73 218.955 220.875 219.23C220.019 219.505 219.986 219.428 220.485 218.321C220.784 217.655 221.293 217.11 221.615 217.11C222.319 217.11 226.13 220.003 227.726 221.748C228.353 222.434 229.025 222.994 229.218 222.994C229.411 222.994 230.463 223.788 231.556 224.759C232.649 225.73 233.883 226.522 234.296 226.518C235.43 226.507 236.371 225.757 236.005 225.157C235.827 224.865 235.511 224.733 235.302 224.864C235.093 224.995 234.663 224.787 234.347 224.402C234.031 224.016 233.908 223.7 234.072 223.7C234.236 223.7 233.765 222.626 233.025 221.313C231.353 218.346 226.716 213.429 225.236 213.052C224.071 212.756 223.725 211.974 224.712 211.872C225.031 211.839 225.8 211.76 226.42 211.697C227.804 211.556 232.17 214.596 231.722 215.389C231.553 215.689 231.588 215.775 231.798 215.582C232.262 215.156 234.898 218.038 234.673 218.723C234.585 218.99 234.879 219.607 235.327 220.094C235.775 220.581 236.024 221.327 235.881 221.752C235.684 222.335 235.789 222.304 236.309 221.628C236.688 221.135 237.217 220.869 237.485 221.036C237.752 221.204 238.096 221.011 238.249 220.608C238.402 220.205 238.705 219.986 238.924 220.124C239.143 220.261 239.597 219.851 239.935 219.212C240.272 218.574 240.721 218.051 240.934 218.051C241.146 218.051 241.337 217.68 241.356 217.227C241.376 216.774 241.495 216.657 241.62 216.966C241.744 217.276 241.648 217.911 241.406 218.378C241.119 218.935 241.169 220.02 241.551 221.52C241.871 222.78 242.054 224.846 241.956 226.11C241.823 227.84 241.938 228.407 242.422 228.407C243.273 228.407 244.191 227.254 243.755 226.732C243.565 226.506 243.75 226.582 244.166 226.902C244.581 227.222 244.921 228.033 244.921 228.705C244.921 229.166 245.057 229.657 245.255 230H256.553C256.493 229.928 256.431 229.838 256.357 229.71C256.135 229.329 255.64 228.896 255.257 228.749C254.847 228.592 255.074 228.467 255.811 228.445C256.498 228.425 257.164 228.577 257.29 228.784C257.416 228.99 257.348 229.439 257.139 229.781C257.079 229.88 257.029 229.941 256.979 230H258.728L258.733 226.884C258.74 223.168 258.646 222.805 256.882 219.713C255.479 217.253 254.263 215.873 251.918 214.082C249.046 211.888 248.871 211.655 249.595 210.975C250.714 209.926 254.103 208.636 255.746 208.636C259.538 208.636 262.501 211.469 264.296 216.81C265.396 220.083 265.522 221.091 265.392 225.519L265.259 230H266.661C267.424 229.403 267.578 228.678 267.631 225.48C267.666 223.374 267.533 221.106 267.336 220.44C267.139 219.774 266.713 218.275 266.388 217.11C265.114 212.547 262.783 209.518 259.138 207.686C255.42 205.817 252.013 206.264 248.936 209.024C248.019 209.847 247.054 210.519 246.791 210.519C246.283 210.519 236.471 205.589 232.957 203.568C230.942 202.409 228.509 200.267 228.845 199.947C228.935 199.862 230.289 199.249 231.854 198.584C235.113 197.201 237.896 195.62 239.2 194.409C239.695 193.949 240.244 193.573 240.419 193.573C240.593 193.573 242.018 192.535 243.585 191.266C246.966 188.527 252.343 182.631 254.597 179.19C257.733 174.403 261.252 166.27 260.188 166.27C260.026 166.27 258.902 166.958 257.691 167.799C254.149 170.261 249.175 172.503 246.042 173.052L244.492 173.323L244.881 169.679C245.094 167.674 245.243 164.291 245.212 162.161C245.166 158.952 244.94 157.852 243.896 155.762C242.164 152.294 240.258 150.283 236.442 147.899C234.653 146.781 232.824 145.553 232.377 145.169C231.929 144.785 231.564 144.595 231.564 144.748C231.564 144.901 230.048 144.321 228.195 143.461C224.941 141.948 216.069 139.136 213.213 138.711C210.998 138.381 204.446 137.554 204.05 137.554C203.851 137.554 203.69 137.869 203.69 138.254C203.69 138.838 203.253 138.788 201.054 137.954C198.606 137.026 197.818 136.975 190.02 137.228C181.854 137.493 177.686 138.161 173.261 139.912C172.494 140.215 171.479 140.542 171.004 140.639C168.066 141.239 161.405 148.832 162.879 149.9C163.367 150.254 163.339 150.3 162.756 150.114C162.213 149.939 161.726 150.507 160.977 152.188C160.409 153.46 159.732 154.501 159.473 154.501C158.858 154.501 156.117 152.957 155.916 152.498C155.83 152.302 155.597 152.244 155.397 152.369C155.198 152.494 154.66 152.177 154.203 151.665C153.746 151.154 153.056 150.735 152.669 150.735C151.842 150.735 147.013 145.62 147.013 144.744C147.013 144.415 146.826 144.145 146.598 144.145C145.938 144.145 144.782 140.761 144.782 138.827C144.782 137.854 144.518 136.735 144.194 136.341C144.002 136.106 143.856 135.969 143.712 135.952L143.714 135.952ZM205.085 138.025C205.601 138.025 206.014 138.339 206.014 138.731C206.014 139.12 205.962 139.413 205.898 139.383C205.834 139.353 205.416 139.231 204.969 139.113C203.856 138.818 203.941 138.025 205.085 138.025ZM177.8 139.965C178.72 139.962 178.848 140.415 178.094 141.18C177.722 141.556 178.134 141.584 179.604 141.284C186.181 139.937 198.935 139.86 207.392 141.116C212.565 141.885 214.472 142.539 210.195 142.078C199.432 140.917 188.088 140.902 181.048 142.039C175.259 142.975 175.366 142.987 175.772 141.438C176.019 140.494 176.449 140.103 177.358 139.994C177.521 139.975 177.668 139.966 177.8 139.965ZM262.81 140.013C262.887 139.985 263.03 140.078 263.247 140.261C264.367 141.203 266.531 146.119 266.77 148.261C266.951 149.891 266.852 150.264 266.235 150.264C265.819 150.264 265.475 150.529 265.475 150.853C265.475 151.176 264.976 151.674 264.372 151.958L263.272 152.475V147.701C263.272 145.076 263.114 142.2 262.921 141.31C262.733 140.444 262.681 140.06 262.81 140.013ZM143.181 141.322C143.373 141.323 143.912 142.267 144.38 143.42C145.485 146.142 150.699 151.547 154.531 153.94C155.471 154.528 156.307 155.209 156.389 155.456C156.471 155.703 157.113 155.954 157.815 156.013C159.303 156.137 159.29 156.038 158.425 160.621C157.664 164.65 158.13 170.51 159.413 173.047C160.617 175.427 162.878 178.596 163.165 178.306C163.499 177.968 165.132 179.431 165.132 180.067C165.132 180.326 164.662 180.138 164.087 179.649C163.512 179.16 163.661 179.45 164.417 180.294C165.174 181.138 166.056 181.727 166.377 181.602C166.698 181.477 167.084 181.578 167.235 181.825C167.387 182.073 167.262 182.275 166.961 182.275C166.559 182.275 166.572 182.471 167.009 183.004C167.485 183.586 167.682 183.609 167.988 183.122C168.351 182.541 168.423 182.611 168.558 183.672C168.64 184.308 169.871 185.634 171.414 186.747C172.132 187.265 172.95 187.9 173.232 188.159C174.488 189.31 179.624 192.607 180.353 192.73C180.797 192.806 181.404 193.184 181.703 193.573C182.002 193.961 182.42 194.296 182.632 194.317C182.845 194.339 184.449 195.027 186.197 195.847C187.946 196.668 189.655 197.339 189.997 197.339C190.338 197.339 190.893 197.603 191.231 197.927C191.568 198.251 192.354 198.573 192.977 198.643C193.6 198.714 194.197 198.86 194.304 198.968C194.41 199.076 194.006 200.448 193.405 202.018C192.805 203.587 192.16 204.87 191.973 204.87C191.785 204.87 191.864 204.355 192.148 203.724C192.91 202.03 192.388 201.276 190.209 200.922C189.137 200.749 187.081 200.174 185.639 199.645C184.198 199.117 182.809 198.641 182.553 198.589C181.247 198.322 178.687 197.042 177.524 196.076C176.802 195.476 175.913 194.985 175.55 194.985C175.186 194.985 174.888 194.691 174.888 194.33C174.888 193.97 174.398 193.55 173.799 193.398C173.201 193.246 172.208 192.636 171.593 192.042C170.978 191.448 169.538 190.331 168.393 189.56C165.651 187.715 164.203 186.446 164.203 185.889C164.203 185.64 163.552 184.807 162.757 184.036C161.674 182.988 161.278 182.152 161.182 180.708C161.107 179.594 160.786 178.692 160.421 178.572C159.315 178.211 156.708 175.115 156.956 174.459C157.088 174.112 156.764 173.521 156.236 173.146C155.708 172.771 155.414 172.237 155.584 171.958C155.755 171.677 155.347 171.2 154.668 170.886L153.442 170.321L154.525 169.894L155.609 169.468L154.447 168.953C152.84 168.241 152.852 168.26 153.509 167.458C153.832 167.064 153.903 166.74 153.667 166.74C153.279 166.74 152.263 163.234 151.963 160.856C151.665 158.501 150.544 154.501 150.182 154.501C149.961 154.501 148.873 153.654 147.765 152.618C146.656 151.582 145.639 150.735 145.506 150.735C145.041 150.735 144.791 153.265 145.184 153.998C145.401 154.405 145.912 156.007 146.317 157.561C147.259 161.167 147.972 163.008 148.345 162.793C148.507 162.7 149.058 163.051 149.569 163.573L150.498 164.521L149.453 164.263C148.744 164.087 148.408 164.217 148.408 164.666C148.408 165.03 148.591 165.328 148.814 165.328C149.038 165.328 149.35 165.982 149.508 166.782C149.909 168.816 152.571 173.064 154.097 174.107C155.354 174.965 155.927 176.043 154.796 175.421C154.476 175.245 155.037 175.868 156.041 176.805C157.046 177.742 157.687 178.509 157.465 178.509C157.243 178.509 156.579 178.049 155.989 177.487C154.303 175.883 154.249 176.786 155.923 178.562C156.75 179.439 157.382 180.322 157.326 180.523C157.271 180.725 157.541 181.011 157.927 181.161C158.313 181.311 158.628 181.69 158.628 182.002C158.628 182.654 159.435 183.525 162.888 186.595C164.25 187.806 166.09 189.448 166.978 190.243C167.865 191.039 168.32 191.69 167.989 191.69C167.659 191.69 167.108 191.425 166.765 191.101C166.423 190.778 165.46 189.983 164.626 189.336C160.762 186.336 156.237 181.392 152.61 176.202C152.104 175.479 151.83 175.381 151.521 175.813C151.238 176.209 151.188 176.137 151.363 175.583C151.51 175.117 150.861 173.462 149.827 171.669C148.842 169.961 147.891 167.783 147.715 166.83C147.538 165.876 147.25 164.989 147.074 164.859C146.373 164.341 143.782 155.457 143.322 151.996C142.756 147.736 142.672 141.32 143.181 141.322ZM173.304 141.791C173.488 141.791 173.26 142.215 172.798 142.733C171.897 143.741 171.172 143.958 171.172 143.22C171.172 142.775 172.641 141.791 173.304 141.791ZM170.249 142.339C170.366 142.32 170.468 142.347 170.549 142.431C170.764 142.653 170.469 143.156 169.894 143.548C169.13 144.069 168.849 144.721 168.849 145.974C168.849 146.918 168.424 148.491 167.906 149.471C167.388 150.451 167.106 151.487 167.281 151.773C167.466 152.077 167.387 152.161 167.09 151.975C166.811 151.801 166.393 152.003 166.159 152.425C165.783 153.106 165.704 153.111 165.46 152.465C165.308 152.065 165.35 151.671 165.552 151.589C166.376 151.258 168.272 147.059 168.084 145.985C167.887 144.867 169.428 142.471 170.249 142.339ZM221.188 142.522C221.383 142.522 221.662 142.586 221.994 142.714C222.606 142.95 223.267 142.998 223.462 142.821C223.657 142.643 223.666 142.762 223.482 143.086C223.299 143.409 223.108 143.646 223.06 143.611C223.011 143.575 222.5 143.454 221.925 143.342C221.351 143.23 220.88 142.946 220.88 142.711C220.88 142.584 220.992 142.521 221.188 142.522ZM214.08 143.367C214.123 143.373 214.174 143.445 214.229 143.586C214.363 143.926 214.346 144.332 214.192 144.489C214.038 144.645 213.928 144.367 213.948 143.871C213.962 143.528 214.01 143.356 214.081 143.367H214.08ZM177.238 143.674C178.197 143.674 178.476 144.821 177.644 145.342C177.371 145.513 177.252 145.927 177.379 146.262C177.519 146.633 177.158 146.96 176.457 147.096C175.382 147.304 175.326 147.22 175.616 145.849C176.032 143.881 176.186 143.674 177.238 143.674ZM171.047 144.215C172.484 144.157 172.961 145.116 173.563 148.885C174.19 152.806 175.029 154.002 176.32 152.819C176.76 152.415 177.065 151.729 176.999 151.293C176.932 150.857 177.109 150.323 177.392 150.106C177.95 149.68 176.616 149.921 175.237 150.497C174.551 150.783 174.424 150.571 174.424 149.138C174.424 147.234 174.527 147.141 175.521 148.149C176.284 148.922 177.602 149.085 179.766 148.674C184.711 147.734 189.663 147.381 190.006 147.944C190.154 148.185 190.627 148.367 191.059 148.348C191.702 148.321 191.677 148.24 190.916 147.897C190.337 147.636 192.918 147.515 197.768 147.577C202.708 147.64 205.552 147.503 205.557 147.205C205.561 146.946 205.72 146.983 205.912 147.288C206.297 147.903 212.971 148.265 213.844 147.719C214.137 147.535 214.376 147.636 214.376 147.944C214.376 148.331 214.94 148.411 216.206 148.206C217.275 148.033 218.158 148.109 218.329 148.389C218.49 148.652 218.816 148.746 219.054 148.597C219.292 148.449 219.732 148.48 220.033 148.668C220.333 148.856 221.436 149.076 222.483 149.156C223.53 149.236 225.598 149.706 227.078 150.201C230.04 151.191 231.961 151.08 231.053 149.972C230.423 149.203 230.638 149.168 232.232 149.783C233.515 150.277 233.778 149.891 232.843 148.889C232.363 148.375 232.448 148.364 233.335 148.826C233.926 149.135 234.291 149.637 234.148 149.944C234.005 150.25 233.76 150.87 233.602 151.324C233.445 151.777 233.108 152.147 232.855 152.147C232.602 152.147 232.515 151.83 232.662 151.441C232.809 151.053 232.727 150.735 232.48 150.735C232.232 150.735 232.03 151.066 232.03 151.47C232.03 151.873 231.839 152.084 231.605 151.938C231.372 151.792 230.908 152.298 230.573 153.063C230.237 153.833 229.831 154.233 229.663 153.959C229.497 153.686 229.21 154.896 229.025 156.648C228.639 160.3 227.678 164.317 226.592 166.823C226.005 168.177 225.379 168.731 223.709 169.371C222.536 169.82 221.142 170.472 220.611 170.82C220.079 171.167 219.493 171.298 219.309 171.111C219.124 170.924 219.113 171.14 219.284 171.592C219.526 172.231 219.738 172.294 220.238 171.873C220.591 171.576 220.88 171.537 220.88 171.786C220.88 172.035 220.333 172.491 219.663 172.8C218.688 173.251 218.492 173.242 218.676 172.756C218.802 172.423 218.653 171.911 218.345 171.619C217.923 171.22 217.651 171.303 217.251 171.953C216.854 172.596 216.853 172.901 217.245 173.147C217.568 173.349 217.643 173.266 217.44 172.933C217.258 172.634 217.33 172.389 217.601 172.389C218.725 172.389 217.973 173.685 216.409 174.441C214.533 175.347 214.504 175.97 216.371 175.251C217.197 174.932 217.618 174.949 217.735 175.305C217.856 175.672 218.193 175.663 218.91 175.274C219.463 174.974 219.814 174.461 219.69 174.133C219.553 173.77 220.466 173.04 222.03 172.262C224.597 170.987 225.313 170.984 223.784 172.255C223.327 172.635 223.276 172.768 223.667 172.56C224.21 172.272 224.181 172.476 223.532 173.481C223.074 174.19 222.811 174.953 222.948 175.177C223.436 175.977 221.797 178.934 220.403 179.769C218.904 180.666 218.123 182.496 218.903 183.285C219.45 183.84 218.601 186.031 217.837 186.037C216.765 186.045 216.351 185.017 216.733 183.298C217.158 181.391 216.78 180.688 215.47 180.944C214.53 181.127 214.237 183.424 215.014 184.523C215.605 185.359 215.463 185.415 211.974 185.748C210.27 185.91 207.923 186.457 206.757 186.963C204.794 187.816 204.511 187.83 202.932 187.162C201.994 186.765 200.84 186.542 200.367 186.667C199.895 186.792 199.625 186.703 199.769 186.468C199.912 186.234 199.633 186.041 199.15 186.041C198.666 186.041 198.121 185.889 197.938 185.704C197.329 185.086 193.267 184.2 190.915 184.172C189.239 184.151 188.787 184.016 189.289 183.687C190.319 183.013 193.549 183.121 195.735 183.902C196.834 184.295 197.652 184.391 197.652 184.127C197.652 183.873 198.139 183.989 198.734 184.384C199.329 184.779 199.926 184.993 200.059 184.858C200.379 184.533 202.41 185.617 203.444 186.665C203.896 187.123 204.395 187.368 204.552 187.208C205.276 186.475 199.736 183.262 197.652 183.206C197.013 183.189 195.714 182.894 194.764 182.551C193.478 182.085 192.532 182.048 191.048 182.402C188.587 182.989 185.468 184.195 186.734 184.07C187.245 184.019 188.155 184.145 188.755 184.35C189.355 184.555 190.296 184.781 190.846 184.853C194.182 185.291 201.232 187.892 200.111 188.27C199.841 188.361 197.36 187.686 194.597 186.768C189.179 184.969 188.36 184.819 188.36 185.621C188.36 187.273 194.876 190.399 198.462 190.467C201.098 190.517 201.367 190.699 200.045 191.536C199.385 191.954 198.093 191.897 194.441 191.292C190.458 190.631 189.545 190.317 188.764 189.332C187.962 188.321 187.902 188.302 188.332 189.194C188.607 189.764 189.247 190.524 189.755 190.884C190.262 191.244 190.567 191.65 190.433 191.786C189.964 192.261 192.804 193.126 195.179 193.232C197.756 193.346 197.969 193.542 197.078 194.987C196.356 196.158 196.32 196.155 190.48 194.431C187.334 193.503 181.148 190.625 176.541 187.948C174.346 186.672 174.217 186.483 173.596 183.621C172.792 179.918 172.573 173.224 173.24 172.75C173.576 172.511 173.572 172.402 173.229 172.397C172.888 172.392 172.848 171.407 173.102 169.268C173.497 165.947 173.372 165.328 172.306 165.328C171.938 165.328 171.661 165.169 171.691 164.975C171.722 164.781 171.722 164.212 171.691 163.709C171.638 162.822 171.618 162.821 171.004 163.671C170.343 164.588 170.486 166.048 171.347 167.156C171.757 167.684 171.915 167.596 172.186 166.685L172.52 165.564L172.426 166.736C172.371 167.428 172.001 167.973 171.521 168.065C170.493 168.264 169.401 167.189 169.693 166.266C169.859 165.737 169.678 165.776 168.958 166.422C168.433 166.894 167.874 167.803 167.715 168.442C167.557 169.081 167.226 169.477 166.979 169.322C166.396 168.957 167.46 166.869 169.179 165.004C170.384 163.697 170.45 163.453 169.928 162.214C169.567 161.359 169.347 158.354 169.334 154.091C169.316 148.129 169.396 147.394 170.01 147.911C170.399 148.238 170.707 148.289 170.707 148.027C170.707 147.768 170.383 147.284 169.987 146.951C168.878 146.018 169.33 144.406 170.747 144.239C170.852 144.227 170.951 144.218 171.047 144.215L171.047 144.215ZM209.963 144.615C210.346 144.615 210.66 144.827 210.66 145.086C210.66 145.345 210.346 145.557 209.963 145.557C209.58 145.557 209.266 145.345 209.266 145.086C209.266 144.827 209.58 144.615 209.963 144.615ZM212.291 145.145C212.671 145.146 213.213 145.179 213.912 145.25C215.317 145.393 217.094 145.564 217.861 145.629C219.14 145.737 219.926 146.27 219.944 147.041C219.948 147.209 219.219 147.326 218.325 147.3C217.431 147.274 216.699 147.107 216.699 146.927C216.699 146.493 215.529 146.058 213.487 145.733C211.484 145.414 211.153 145.141 212.291 145.145ZM227.134 146.969C227.527 146.969 227.849 147.287 227.849 147.675C227.849 148.534 227.779 148.533 227.018 147.658C226.523 147.089 226.543 146.969 227.134 146.969ZM192.979 148.381C192.449 148.381 192.152 148.596 192.314 148.86C192.474 149.124 192.786 149.225 193.006 149.088C193.226 148.95 193.538 149.052 193.699 149.316C193.859 149.579 194.343 149.769 194.776 149.739C195.484 149.69 195.481 149.663 194.748 149.469C194.301 149.351 193.935 149.058 193.935 148.818C193.935 148.578 193.505 148.381 192.979 148.381H192.979ZM235.667 148.903C235.704 148.919 235.649 149.148 235.529 149.601C235.339 150.313 235.548 150.712 236.291 151.048C236.854 151.303 237.12 151.628 236.88 151.769C236.64 151.911 236.058 151.647 235.587 151.183C234.901 150.506 234.836 150.167 235.261 149.477C235.505 149.082 235.631 148.886 235.667 148.903ZM198.542 148.911C198.381 148.904 198.197 148.934 198.029 149.002C197.659 149.152 197.768 149.264 198.31 149.286C198.799 149.307 199.074 149.195 198.919 149.039C198.842 148.961 198.703 148.918 198.542 148.911ZM170.253 149.021C169.848 149.031 169.815 149.368 170.042 150.42C170.451 152.322 171.103 153.974 171.142 153.207C171.158 152.883 171.405 152.618 171.691 152.618C172.193 152.618 172.106 153.369 171.405 155.095C171.149 155.725 171.243 155.856 171.799 155.64C172.823 155.242 173.069 154.096 172.587 151.973C172.134 149.978 171.569 149.202 170.45 149.036C170.377 149.025 170.311 149.02 170.253 149.021ZM200.471 149.35C200.07 149.366 201.624 149.931 203.924 150.606C206.223 151.282 208.157 151.958 208.221 152.109C208.285 152.26 208.833 152.383 209.439 152.383C210.162 152.383 210.46 152.169 210.306 151.761C210.123 151.279 210.476 151.214 211.875 151.47C212.867 151.651 213.922 151.994 214.218 152.232C214.549 152.497 214.866 152.487 215.038 152.205C215.216 151.914 215.865 151.905 216.818 152.182C217.643 152.422 218.948 152.595 219.716 152.565C221.079 152.512 221.072 152.502 219.47 152.184C218.567 152.005 217.626 151.732 217.38 151.577C216.544 151.055 208.511 150.665 209.266 151.184C210.067 151.734 209.537 151.8 207.897 151.356C206.835 151.068 206.819 151.022 207.665 150.65C208.341 150.351 208.244 150.315 207.275 150.506C206.563 150.647 204.905 150.438 203.591 150.043C202.276 149.647 200.872 149.335 200.471 149.35ZM196.023 149.947C195.973 149.95 195.938 149.961 195.921 149.979C195.835 150.066 196.869 150.565 198.218 151.089C199.567 151.613 200.724 152.066 200.788 152.095C200.852 152.124 200.904 151.976 200.904 151.767C200.904 151.403 196.773 149.898 196.023 149.947ZM184.653 150.083C183.72 150.119 182.809 150.392 183.024 150.745C183.15 150.95 182.856 151.014 182.374 150.886C181.891 150.758 181.337 150.915 181.142 151.235C180.868 151.683 181.339 151.743 183.188 151.495C185.142 151.232 185.641 151.31 185.87 151.913C186.142 152.63 189.242 154.236 189.618 153.855C189.721 153.751 191.075 154.29 192.628 155.052C194.18 155.814 195.738 156.326 196.088 156.19C196.437 156.054 196.723 156.163 196.723 156.431C196.723 157.165 199.583 156.727 200.891 155.793L202.04 154.972H200.748C199.974 154.972 199.575 155.168 199.753 155.46C199.917 155.729 199.113 155.278 197.967 154.46C196.82 153.641 195.343 152.971 194.685 152.971C194.026 152.971 193.587 152.809 193.709 152.61C193.956 152.205 191.635 151.497 191.27 151.867C191.142 151.997 190.733 151.795 190.362 151.419C189.991 151.043 189.062 150.735 188.297 150.735C187.532 150.735 186.552 150.543 186.118 150.309C185.782 150.126 185.213 150.062 184.653 150.083ZM238.572 150.735C238.835 150.735 238.68 151.371 238.227 152.147C237.774 152.924 237.234 153.56 237.027 153.56C236.821 153.56 236.976 152.924 237.372 152.147C237.769 151.371 238.308 150.735 238.572 150.735ZM266.707 151.929C266.804 151.918 266.854 152.012 266.858 152.208C266.866 152.629 266.559 153.237 266.175 153.56C265.792 153.882 265.478 154.385 265.478 154.677C265.478 154.969 264.895 155.896 264.186 156.737C263.476 157.579 262.744 158.267 262.561 158.267C261.817 158.267 262.301 156.915 263.504 155.63C264.207 154.88 265.246 153.63 265.812 152.853C266.251 152.252 266.545 151.946 266.707 151.929ZM180.144 152.193C180.11 152.187 180.092 152.427 180.062 152.908C180.027 153.455 180.431 154.462 180.961 155.144C181.491 155.826 182.238 156.384 182.622 156.384C183.06 156.384 182.798 155.939 181.922 155.192C181.152 154.535 180.434 153.529 180.324 152.956C180.228 152.452 180.177 152.199 180.144 152.193ZM221.925 152.625C221.231 152.632 221.214 152.699 221.809 153.089C222.686 153.663 222.738 153.663 222.738 153.089C222.738 152.83 222.373 152.622 221.925 152.625ZM191.613 152.748C192.124 152.709 192.542 152.863 192.542 153.091C192.542 153.667 191.954 153.944 191.264 153.693C190.374 153.369 190.574 152.827 191.613 152.748ZM231.696 152.912C231.75 152.911 231.811 152.925 231.878 152.951C232.217 153.083 232.492 153.326 232.487 153.492C232.478 153.898 231.592 155.272 231.533 154.972C231.265 153.593 231.317 152.919 231.696 152.912V152.912ZM168.553 153.252C168.595 153.259 168.646 153.33 168.702 153.471C168.836 153.811 168.819 154.218 168.665 154.374C168.51 154.531 168.401 154.253 168.421 153.756C168.434 153.414 168.483 153.242 168.553 153.252H168.553ZM165.238 153.563C165.425 153.561 165.339 154.089 165.048 154.736C164.757 155.384 164.363 155.913 164.172 155.913C163.982 155.913 164.067 155.385 164.363 154.74C164.658 154.095 165.052 153.565 165.238 153.563ZM210.025 153.841C210.002 153.828 209.954 153.887 209.889 154.019C209.759 154.285 209.369 154.501 209.022 154.501C208.675 154.501 208.264 154.711 208.108 154.966C207.929 155.261 208.207 155.287 208.87 155.039C209.445 154.823 209.962 154.397 210.02 154.092C210.049 153.939 210.049 153.854 210.026 153.841H210.025ZM204.814 154.245C204.778 154.237 204.732 154.237 204.678 154.245C204.605 154.257 204.515 154.282 204.412 154.322C204.015 154.476 203.691 154.685 203.691 154.787C203.691 155.168 204.576 154.954 204.849 154.507C204.941 154.356 204.921 154.266 204.814 154.245L204.814 154.245ZM221.591 154.331C221.174 154.312 220.88 154.399 220.88 154.566C220.88 154.789 221.403 154.972 222.042 154.972C222.68 154.972 223.203 154.891 223.203 154.792C223.203 154.692 222.68 154.51 222.042 154.386C221.882 154.355 221.729 154.337 221.591 154.331ZM167.595 155.199C167.762 155.228 167.668 155.562 167.387 156.38C166.827 158.009 166.291 158.222 166.189 156.856C166.151 156.338 166.514 155.702 166.997 155.44C167.301 155.275 167.495 155.182 167.595 155.199ZM185.514 155.525C184.932 155.517 184.607 155.552 184.681 155.629C184.83 155.784 185.509 155.958 186.191 156.015C188.058 156.172 187.681 156.855 185.728 156.855C183.511 156.855 184.091 157.45 186.37 157.513C187.691 157.55 188.156 157.778 188.284 158.454C188.458 159.365 188.481 159.366 186.073 158.375C185.677 158.213 185.771 158.485 186.305 159.052C186.797 159.574 187.304 159.951 187.431 159.891C187.559 159.83 188.5 159.946 189.522 160.147C192.197 160.674 192.256 160.673 193.89 160.096C197.262 158.904 193.607 156.207 187.896 155.672C186.938 155.583 186.097 155.533 185.514 155.525ZM219.448 156.091C217.565 156.151 214.324 156.858 212.866 157.717C211.01 158.812 211.3 159.357 213.563 159.027C214.649 158.869 215.846 158.94 216.224 159.185C216.692 159.49 217.151 159.412 217.667 158.938C218.717 157.975 223.392 158.02 224.427 159.003C224.717 159.279 225.722 159.412 226.662 159.301L228.37 159.099L226.673 157.93C225.604 157.195 224.561 156.842 223.857 156.979C223.242 157.098 222.738 156.999 222.738 156.758C222.738 156.518 222.32 156.455 221.809 156.619C221.298 156.784 220.88 156.71 220.88 156.456C220.88 156.169 220.304 156.063 219.448 156.091ZM165.169 156.142C165.337 156.111 165.384 156.401 165.267 156.855C164.983 157.954 164.668 158.093 164.668 157.119C164.668 156.746 164.857 156.321 165.089 156.176C165.117 156.158 165.144 156.147 165.169 156.142ZM232.483 156.179C232.755 156.001 234.353 159.61 234.353 160.505C234.353 160.902 232.873 162.679 231.064 164.455C229.256 166.23 227.666 167.682 227.53 167.682C227.121 167.682 227.851 165.219 228.892 163.092C229.431 161.992 230.029 161.091 230.222 161.091C230.583 161.091 231.116 159.771 231.055 159.026C231.037 158.796 231.3 158.433 231.641 158.219C231.983 158.006 232.288 157.611 232.32 157.343C232.352 157.075 232.409 156.59 232.446 156.266C232.452 156.219 232.464 156.191 232.482 156.179H232.483ZM170.183 156.389C170.132 156.395 170.082 156.419 170.036 156.462C169.694 156.783 170.433 158.48 171.345 159.47C171.735 159.893 171.983 159.85 172.39 159.286C173.119 158.276 172.228 156.162 171.376 156.879C170.967 157.222 170.735 157.186 170.584 156.757C170.495 156.506 170.335 156.369 170.183 156.389ZM189.754 156.439C190.133 156.439 190.512 156.467 190.8 156.523C191.374 156.635 190.904 156.727 189.754 156.727C188.604 156.727 188.134 156.635 188.709 156.523C188.996 156.467 189.375 156.439 189.754 156.439ZM167.92 156.855C168.175 156.855 168.384 157.49 168.384 158.267C168.384 159.044 168.175 159.679 167.92 159.679C167.664 159.679 167.455 159.044 167.455 158.267C167.455 157.49 167.664 156.855 167.92 156.855ZM176.078 156.855C175.947 156.855 175.535 157.455 175.161 158.188C174.467 159.548 174.343 163.445 174.993 163.445C175.191 163.445 175.353 164.074 175.353 164.842C175.353 166.347 176.678 169.565 177.297 169.565C177.505 169.565 177.676 169.988 177.676 170.506C177.676 171.693 177.903 171.688 179.105 170.47C179.635 169.933 180.378 169.612 180.755 169.759C181.14 169.909 181.316 169.822 181.156 169.56C180.862 169.078 180.926 169.048 182.684 168.862C183.92 168.732 184.415 168.356 183.83 167.99C183.604 167.848 182.301 168.258 180.933 168.9C178.208 170.179 178.363 170.243 176.74 167.135C175.751 165.24 175.209 159.089 175.907 157.679C176.131 157.225 176.208 156.855 176.078 156.855V156.855ZM210.104 157.588C209.16 157.516 206.629 158.581 206.014 159.411C204.799 161.051 203.763 164.541 203.769 166.976L203.776 169.329L204.44 166.853C205.08 164.467 205.645 163.715 209.217 160.499C210.574 159.278 210.991 158.289 210.401 157.691C210.341 157.631 210.239 157.598 210.105 157.588H210.104ZM193.316 158.752C193.372 158.749 193.428 158.751 193.483 158.758C193.75 158.79 194.002 158.937 194.168 159.208C194.326 159.467 194.25 159.679 194.001 159.679C193.751 159.679 193.214 159.809 192.807 159.967C192.265 160.178 192.144 160.051 192.354 159.496C192.529 159.034 192.922 158.774 193.316 158.752ZM198.64 159.381C197.872 159.382 196.723 160.183 196.723 160.823C196.723 161.248 197.325 161.111 198.581 160.403C199.59 159.833 199.637 159.707 198.941 159.433C198.852 159.398 198.75 159.381 198.64 159.381ZM168.92 160.385L168.695 161.445C168.572 162.028 168.662 162.386 168.895 162.24C169.624 161.783 169.93 163.46 169.226 164.057C168.859 164.368 167.753 165.84 166.768 167.329C165.783 168.818 164.922 170.036 164.854 170.036C164.786 170.036 165.445 168.623 166.317 166.897C167.421 164.712 167.762 163.585 167.44 163.191C167.117 162.798 167.272 162.285 167.948 161.506L168.92 160.385ZM227.745 160.762C227.656 160.77 227.509 160.928 227.345 161.213C227.084 161.668 226.044 162.466 225.036 162.987C223.308 163.881 222.689 165.122 223.541 165.986C223.728 166.174 223.964 166.076 224.065 165.768C224.167 165.459 225.06 164.362 226.049 163.328C227.039 162.295 227.842 161.21 227.834 160.918C227.83 160.808 227.799 160.758 227.745 160.762ZM215.19 161.199C214.952 161.184 214.904 161.286 215.038 161.505C215.25 161.853 214.912 161.93 213.991 161.743C213.095 161.562 212.207 161.747 211.397 162.285C210.045 163.183 210.072 163.787 211.433 163.076C212.494 162.522 213.447 162.834 213.447 163.735C213.447 164.11 213.761 164.538 214.144 164.687C214.527 164.836 214.841 165.359 214.841 165.849C214.841 166.826 216.039 166.967 218.093 166.231C219.017 165.9 218.851 165.852 217.28 165.997C216.194 166.098 215.305 165.989 215.305 165.755C215.305 165.52 215.723 165.328 216.234 165.328C216.745 165.328 217.164 165.116 217.164 164.857C217.164 164.165 218.653 164.313 219.691 165.108C220.695 165.878 221.809 166.022 221.809 165.383C221.809 165.155 221.348 164.845 220.784 164.696C220.22 164.546 219.905 164.277 220.083 164.096C220.669 163.503 219.474 162.596 218.462 162.864C217.717 163.062 217.537 162.952 217.738 162.423C217.884 162.036 217.763 161.717 217.468 161.715C217.172 161.712 216.435 161.549 215.828 161.351C215.545 161.259 215.333 161.208 215.19 161.199H215.19ZM193.759 161.475C192.818 161.496 190.683 162.206 190.683 162.62C190.683 163.105 191.215 163.067 192.936 162.459C193.741 162.174 194.301 161.78 194.18 161.582C194.131 161.502 193.977 161.47 193.759 161.475ZM160.061 162.744C160.308 162.733 160.476 162.868 160.469 163.107C160.461 163.422 160.155 164.21 159.79 164.857L159.126 166.034L159.109 164.555C159.1 163.662 159.369 162.968 159.79 162.804C159.886 162.767 159.978 162.747 160.06 162.744H160.061ZM211.401 163.927C211.121 163.933 211.415 164.351 212.053 164.857C213.55 166.043 213.81 166.043 212.75 164.857C212.288 164.34 211.681 163.921 211.401 163.927ZM232.541 164.151L231.808 165.681C231.088 167.187 230.636 167.616 230.636 166.793C230.636 166.563 231.064 165.874 231.588 165.263L232.541 164.151ZM237.521 165.411C237.576 165.409 237.623 165.413 237.658 165.425C237.942 165.521 236.927 166.38 235.402 167.333C232.348 169.244 230.059 171.437 232.843 169.786C233.673 169.294 234.353 168.69 234.353 168.444C234.353 168.198 234.479 168.124 234.634 168.281C234.789 168.438 235.351 168.156 235.883 167.654C236.922 166.674 237.605 166.48 237.605 167.167C237.605 167.401 235.966 168.566 233.963 169.756C231.961 170.946 230.206 171.919 230.064 171.919C229.799 171.919 229.237 170.675 229.25 170.116C229.254 169.943 229.435 170.085 229.653 170.434C229.945 170.901 230.128 170.748 230.351 169.845C230.518 169.173 230.842 168.623 231.073 168.623C231.303 168.623 231.629 167.99 231.797 167.217C232.125 165.704 232.959 164.816 232.959 165.979C232.959 167.21 233.854 167.309 235.523 166.264C236.302 165.776 237.135 165.427 237.521 165.411ZM210.753 165.592C210.622 165.625 210.635 165.848 210.873 166.238C211.041 166.514 211.384 166.74 211.634 166.74C211.885 166.74 211.82 166.444 211.491 166.082C211.157 165.715 210.884 165.559 210.753 165.592ZM186.255 166.795C186.018 166.795 185.515 166.933 184.876 167.211C184.264 167.478 184.185 167.625 184.644 167.642C185.027 167.657 185.654 167.462 186.038 167.211C186.462 166.933 186.491 166.795 186.255 166.795ZM229.351 167.065C229.552 167.059 229.759 167.197 230.015 167.457C230.389 167.836 230.567 168.356 230.41 168.613C230.03 169.237 227.839 169.033 228.187 168.406C228.697 167.488 229.016 167.075 229.351 167.065ZM232.986 167.211C232.746 167.211 232.42 167.423 232.262 167.682C232.104 167.941 232.301 168.153 232.699 168.153C233.098 168.153 233.423 167.941 233.423 167.682C233.423 167.423 233.227 167.211 232.986 167.211ZM187.199 168.781C186.838 168.781 186.651 168.957 186.783 169.173C186.914 169.389 187.102 169.565 187.199 169.565C187.297 169.565 187.484 169.389 187.616 169.173C187.747 168.957 187.56 168.781 187.199 168.781ZM185.358 169.217C185.003 169.25 184.517 169.434 183.758 169.781C182.742 170.245 181.789 170.946 181.641 171.338C181.429 171.896 181.509 171.936 182.005 171.519C182.353 171.225 182.776 171.125 182.945 171.295C183.113 171.466 183.25 171.392 183.25 171.131C183.25 170.469 185.526 169.487 186.188 169.864C186.574 170.083 186.569 169.993 186.169 169.556C185.937 169.301 185.713 169.184 185.358 169.217ZM225.22 169.631C225.262 169.633 225.293 169.643 225.31 169.66C225.417 169.769 224.57 170.319 223.425 170.882C222.281 171.446 221.35 171.751 221.357 171.56C221.37 171.166 224.59 169.595 225.22 169.631ZM197.777 169.829C197.708 169.824 197.631 169.825 197.548 169.833C197.436 169.844 197.315 169.866 197.187 169.899C196.676 170.035 196.258 170.313 196.258 170.517C196.258 170.722 196.676 170.779 197.187 170.643C197.698 170.508 198.116 170.23 198.116 170.025C198.116 169.91 197.984 169.842 197.777 169.829V169.829ZM166.254 169.922C166.359 169.946 166.367 170.275 166.343 170.979C166.286 172.607 166.319 172.565 165.692 171.8C165.353 171.386 165.386 170.966 165.801 170.39C166.031 170.072 166.172 169.904 166.254 169.922ZM243.913 170.094C244.085 170.091 244.109 170.231 244.109 170.471C244.109 170.711 243.22 171.432 242.134 172.075C238.13 174.443 232.762 177.116 233.888 176.18C235.881 174.523 235.969 174.457 236.332 174.372C236.526 174.325 237.153 174.004 237.725 173.658C238.297 173.312 239.877 172.355 241.236 171.532C242.926 170.508 243.626 170.1 243.913 170.094ZM163.854 170.416C163.931 170.449 163.658 170.997 163.135 171.999L161.987 174.197L163.068 174.08C163.662 174.016 164.527 173.666 164.989 173.302C165.687 172.753 165.672 172.839 164.9 173.81C164.389 174.453 163.762 175.135 163.506 175.325C162.123 176.355 160.513 174.354 161.623 172.984C163.08 171.185 163.755 170.374 163.854 170.416ZM257.891 170.506C258.023 170.506 257.363 171.921 256.425 173.651C254.285 177.595 250.685 182.376 250.121 182.023C249.886 181.876 249.805 182.048 249.94 182.406C250.175 183.026 242.622 190.748 241.782 190.748C241.578 190.748 240.657 191.425 239.735 192.251C238.814 193.078 237.717 193.805 237.298 193.868C236.879 193.93 236.411 194.172 236.257 194.404C236.104 194.636 234.463 195.603 232.61 196.553C230.757 197.503 229.066 198.28 228.851 198.28C228.637 198.28 228.231 197.767 227.949 197.14C227.484 196.105 227.564 195.955 228.814 195.514C231.597 194.53 236.365 190.251 238.534 186.789C239.684 184.954 240.596 183.195 240.563 182.882C240.529 182.568 240.709 182.356 240.963 182.411C241.216 182.465 242.046 180.551 242.806 178.156C243.567 175.761 244.392 173.801 244.64 173.801C244.889 173.801 244.967 174.007 244.814 174.258C244.341 175.033 246.662 175.313 248.808 174.741C249.928 174.442 252.376 173.368 254.248 172.352C256.12 171.337 257.76 170.506 257.891 170.506ZM160.191 171.141C160.233 171.147 160.284 171.219 160.34 171.36C160.474 171.699 160.457 172.106 160.302 172.262C160.148 172.419 160.038 172.141 160.058 171.645C160.072 171.302 160.12 171.13 160.191 171.141H160.191ZM179.855 171.455C179.523 171.459 179.58 171.644 179.998 171.919C180.891 172.503 181.052 172.503 180.695 171.919C180.537 171.66 180.159 171.451 179.855 171.455ZM189.244 171.824C189.038 171.761 188.145 172.305 187.083 173.158C183.729 175.852 182.319 177.222 182.336 177.773C182.344 178.049 182.621 177.914 182.952 177.473C183.282 177.032 184.844 175.708 186.422 174.532C187.999 173.355 189.29 172.165 189.29 171.888C189.29 171.854 189.274 171.833 189.244 171.824H189.244ZM228.903 171.873L228.608 173.368C228.446 174.189 228.313 175.152 228.313 175.507C228.313 175.862 227.579 176.977 226.681 177.984C224.872 180.013 223.405 180.662 223.006 179.609C222.865 179.236 222.926 179.042 223.142 179.177C223.64 179.489 225.92 175.22 225.763 174.272C225.696 173.87 226.347 173.202 227.273 172.72L228.903 171.873ZM192.542 171.919C192.286 171.919 192.077 172.448 192.077 173.095C192.077 173.743 192.286 174.272 192.542 174.272C192.797 174.272 193.006 173.743 193.006 173.095C193.006 172.448 192.797 171.919 192.542 171.919ZM225.99 171.919C226.246 171.919 226.455 172.13 226.455 172.389C226.455 172.648 226.246 172.86 225.99 172.86C225.735 172.86 225.526 172.648 225.526 172.389C225.526 172.13 225.735 171.919 225.99 171.919ZM204.463 171.938C204.28 171.974 204.156 172.279 204.156 172.888C204.156 173.422 204.362 173.729 204.614 173.571C204.905 173.388 204.931 173.677 204.684 174.366C204.2 175.713 201.587 177.567 200.173 177.567C199.042 177.567 198.523 178.71 199.104 179.921C199.29 180.309 199.555 180.998 199.693 181.451C200.012 182.495 202.174 182.546 203.588 181.542C204.302 181.035 204.62 180.328 204.62 179.246C204.62 178.386 204.934 177.419 205.317 177.097C206.141 176.404 206.165 176.018 205.525 173.684C205.233 172.618 204.836 171.996 204.545 171.939C204.517 171.933 204.49 171.933 204.463 171.938V171.938ZM178.837 171.952C178.581 171.952 177.85 172.255 177.211 172.625C176.572 172.995 176.259 173.298 176.514 173.298C176.77 173.298 177.501 172.995 178.14 172.625C178.779 172.255 179.092 171.952 178.837 171.952ZM230.475 172.455C230.86 172.429 231.064 172.611 230.996 172.941C230.926 173.285 231.116 173.518 231.419 173.459C231.722 173.399 231.943 173.717 231.908 174.165C231.864 174.741 231.396 175.004 230.305 175.064C229.222 175.123 228.865 174.983 229.106 174.593C229.295 174.288 229.455 173.723 229.462 173.339C229.468 172.955 229.846 172.568 230.299 172.478C230.362 172.466 230.421 172.458 230.475 172.454V172.455ZM215.25 173.279C214.98 173.3 214.537 173.456 213.839 173.753C212.862 174.168 212.063 174.673 212.058 174.873C212.053 175.074 212.687 174.907 213.461 174.501C214.235 174.096 215.036 173.869 215.242 173.997C215.447 174.126 215.615 173.953 215.615 173.614C215.615 173.372 215.52 173.258 215.25 173.279ZM175.451 173.366C175.27 173.36 175 173.502 174.764 173.744C174.308 174.208 174.362 174.262 175.024 174.006C175.482 173.83 175.74 173.567 175.597 173.422C175.561 173.385 175.511 173.367 175.451 173.366ZM221.443 173.366C221.262 173.36 220.992 173.502 220.756 173.744C220.301 174.208 220.354 174.262 221.016 174.006C221.474 173.83 221.732 173.567 221.589 173.422C221.553 173.385 221.503 173.367 221.443 173.366ZM178.07 173.469C178.036 173.446 177.759 173.576 177.211 173.84C176.572 174.148 175.963 174.478 175.856 174.572C175.219 175.137 176.73 174.612 177.47 174.011C177.896 173.666 178.105 173.491 178.07 173.469ZM179.79 173.801C179.522 173.801 178.14 176.411 178.14 176.916C178.14 177.408 178.392 177.05 179.254 175.331C179.677 174.49 179.917 173.801 179.79 173.801ZM171.137 173.906C171.387 173.891 171.452 174.177 171.313 174.716C171.176 175.249 170.863 175.684 170.619 175.684C170.002 175.684 170.351 174.157 171.019 173.932C171.062 173.917 171.101 173.908 171.137 173.906V173.906ZM195.03 174.36C194.949 174.359 194.87 174.363 194.794 174.376C193.794 174.542 193.849 174.632 195.445 175.444C196.403 175.931 197.204 176.555 197.224 176.831C197.244 177.111 197.362 177.079 197.489 176.76C197.844 175.874 196.235 174.377 195.03 174.36V174.36ZM174.522 175.249C174.341 175.243 174.071 175.385 173.835 175.626C173.379 176.091 173.433 176.145 174.095 175.889C174.553 175.713 174.811 175.45 174.668 175.305C174.632 175.268 174.582 175.25 174.522 175.249ZM208.912 175.283C208.722 175.264 209.024 176.018 209.817 177.523C210.375 178.583 211.129 179.45 211.493 179.45C211.976 179.45 212.074 179.798 211.857 180.745C211.637 181.705 211.682 181.857 212.032 181.333C212.418 180.755 212.505 180.819 212.511 181.686C212.515 182.269 212.717 182.746 212.96 182.746C213.212 182.746 213.132 181.836 212.773 180.627C212.247 178.857 212.247 178.509 212.768 178.509C213.111 178.509 213.494 178.343 213.618 178.14C213.741 177.937 213.12 177.796 212.237 177.826C211.219 177.86 210.793 177.716 211.073 177.431C211.567 176.931 211.247 175.684 210.624 175.684C210.404 175.684 210.342 176.055 210.485 176.508C210.656 177.048 210.414 176.926 209.784 176.155C209.316 175.583 209.026 175.294 208.912 175.283H208.912ZM220.175 176.171C219.924 176.179 219.313 176.497 218.817 176.877C218.321 177.257 217.569 177.567 217.146 177.567C216.724 177.567 215.984 178.009 215.502 178.548L214.627 179.529L216.011 178.92C217.751 178.154 220.786 176.151 220.175 176.171ZM168.143 178.687C168.259 178.708 168.295 178.934 168.262 179.38C168.176 180.532 168.099 180.597 167.662 179.881C167.49 179.599 167.572 179.143 167.843 178.868C167.974 178.736 168.073 178.675 168.143 178.687ZM196.811 179.043C196.587 179.07 196.23 179.301 195.899 179.652C195.132 180.465 195.145 180.478 196.182 179.939C196.779 179.628 197.14 179.245 196.984 179.087C196.945 179.048 196.885 179.034 196.811 179.043V179.043ZM166.81 180.083C166.865 180.092 166.927 180.116 166.991 180.156C167.246 180.316 167.455 180.542 167.455 180.656C167.455 180.77 167.246 180.863 166.991 180.863C166.735 180.863 166.526 180.638 166.526 180.364C166.526 180.159 166.643 180.055 166.81 180.083ZM170.411 180.085C170.454 180.091 170.504 180.163 170.56 180.304C170.694 180.643 170.677 181.05 170.523 181.207C170.369 181.363 170.259 181.085 170.279 180.589C170.293 180.246 170.341 180.074 170.411 180.085H170.411ZM165.57 180.392C165.84 180.392 166.061 180.604 166.061 180.863C166.061 181.122 165.969 181.333 165.856 181.333C165.744 181.333 165.522 181.122 165.365 180.863C165.207 180.604 165.299 180.392 165.57 180.392ZM216.029 181.333C216.428 181.333 216.625 181.545 216.467 181.804C216.309 182.063 215.983 182.275 215.743 182.275C215.502 182.275 215.305 182.063 215.305 181.804C215.305 181.545 215.631 181.333 216.029 181.333ZM154.087 181.341C154.322 181.354 154.447 181.476 154.447 181.709C154.447 181.916 155.283 182.967 156.305 184.045C158.087 185.923 158.613 186.982 157.766 186.982C157.548 186.982 157.057 187.977 156.675 189.191C155.8 191.967 156.226 194.115 158.259 197.191C160.225 200.167 160.833 200.764 161.484 200.356C161.798 200.159 161.899 200.222 161.725 200.508C161.299 201.206 170.809 207.613 172.348 207.665C172.474 207.669 173.523 208.207 174.679 208.861C175.834 209.514 177.085 210.049 177.46 210.049C177.834 210.049 178.14 210.296 178.14 210.598C178.14 210.9 178.262 211.023 178.412 210.872C178.562 210.72 179.75 210.915 181.051 211.306C182.352 211.698 183.849 212.098 184.378 212.195C184.907 212.291 186.218 212.614 187.291 212.912C188.363 213.209 189.984 213.365 190.891 213.257C191.971 213.13 192.542 213.258 192.542 213.627C192.542 213.937 193.24 215.242 194.093 216.528C194.947 217.813 195.774 219.204 195.932 219.62C196.242 220.441 195.558 221.161 195.131 220.462C194.911 220.1 192.379 219.533 185.109 218.214C182.499 217.741 178.208 216.498 175.585 215.457C174.052 214.848 172.379 214.282 171.868 214.2C171.357 214.117 170.8 213.854 170.629 213.614C170.458 213.374 169.867 213.108 169.315 213.023C168.464 212.891 164.466 210.444 163.739 209.609C163.258 209.058 160.51 207.224 160.157 207.22C159.955 207.217 158.872 206.476 157.75 205.572C156.628 204.668 155.531 203.929 155.311 203.929C155.091 203.929 154.897 203.558 154.879 203.105C154.851 202.401 154.789 202.418 154.447 203.223C154.063 204.129 154.047 204.126 154.015 203.13C153.98 202.004 151.822 199.377 151.105 199.587C150.861 199.658 150.789 199.507 150.945 199.251C151.101 198.995 150.733 197.984 150.128 197.003C148.574 194.486 148.113 192.78 148.183 189.807C148.287 185.397 148.717 184.351 151.075 182.769C152.515 181.802 153.569 181.311 154.087 181.341ZM170.27 181.804C170.54 181.804 170.642 182.001 170.497 182.24C170.351 182.479 170.6 182.772 171.05 182.891C171.673 183.056 171.619 183.121 170.823 183.162C170.18 183.196 169.778 182.945 169.778 182.51C169.778 182.122 169.999 181.804 170.27 181.804ZM187.664 181.822L186.191 182.316C185.381 182.589 184.604 183.115 184.463 183.485C184.089 184.472 184.694 184.306 186.27 182.987L187.664 181.822ZM215.731 183.746C215.892 183.753 216.031 183.796 216.108 183.874C216.263 184.03 215.988 184.141 215.499 184.121C214.957 184.098 214.848 183.987 215.218 183.837C215.386 183.769 215.57 183.739 215.731 183.746ZM169.723 184.158C169.978 184.158 170.317 184.37 170.475 184.629C170.633 184.887 170.552 185.099 170.297 185.099C170.041 185.099 169.704 184.887 169.546 184.629C169.388 184.37 169.467 184.158 169.723 184.158ZM224.792 186.072C225.017 186.096 224.873 186.39 224.176 186.933C222.696 188.085 223.139 189.573 224.834 189.142C226.077 188.826 226.333 189.271 225.432 190.184C225.126 190.494 224.747 190.748 224.59 190.748C224.178 190.748 221.607 187.964 221.843 187.773C221.952 187.684 222.559 187.259 223.19 186.827C223.971 186.293 224.566 186.048 224.792 186.072ZM171.943 186.08C172.151 186.119 172.731 186.472 173.641 187.162C177.768 190.292 191.386 196.428 194.516 196.566C195.219 196.597 195.794 196.758 195.794 196.923C195.794 197.088 195.532 197.44 195.213 197.705C194.804 198.043 193.738 197.828 191.613 196.979C185.642 194.596 177.597 190.683 176.246 189.505C175.842 189.154 175.32 188.862 175.084 188.858C174.849 188.854 173.948 188.218 173.083 187.446C172.025 186.501 171.676 186.031 171.943 186.08ZM216.665 186.155C216.838 186.178 217.074 186.346 217.302 186.629C217.665 187.082 218.241 187.453 218.58 187.453C219.49 187.453 222.266 189.48 222.27 190.146C222.27 190.49 221.603 190.26 220.601 189.57C218.203 187.921 215.244 187.445 210.892 188.008C208.977 188.256 205.376 189.891 204.852 190.749C204.689 191.016 204.401 191.138 204.212 191.019C203.658 190.673 199.683 195.675 198.255 198.515C196.437 202.134 195.772 204.139 195.13 207.936C194.875 209.444 195.906 214.117 196.663 214.884C196.956 215.181 196.939 215.735 196.612 216.462C195.883 218.084 195.417 217.858 194.312 215.345C192.405 211.01 192.906 205.5 195.712 199.928C196.625 198.115 197.326 196.465 197.272 196.258C197.113 195.658 203.717 189.297 204.191 189.593C204.427 189.741 204.62 189.603 204.62 189.285C204.62 188.968 204.736 188.827 204.878 188.97C205.02 189.114 206.416 188.602 207.981 187.834C210.342 186.675 211.288 186.464 213.532 186.592C215.044 186.679 216.326 186.539 216.439 186.276C216.48 186.179 216.561 186.141 216.665 186.155ZM159.351 187.453C160.333 187.453 160.66 189.302 159.841 190.22C159.439 190.67 158.93 192.191 158.709 193.6C158.409 195.515 158.222 195.924 157.966 195.22C157.778 194.702 157.426 193.78 157.185 193.17C156.5 191.44 158.01 187.453 159.351 187.453ZM203.124 188.168C203.147 188.169 203.166 188.177 203.181 188.192C203.304 188.316 203.027 188.783 202.566 189.23C201.766 190.007 201.756 189.997 202.344 189.005C202.64 188.506 202.966 188.163 203.124 188.168V188.168ZM222.888 190.374C222.984 190.386 223.122 190.477 223.288 190.646C223.591 190.953 223.73 191.313 223.598 191.447C223.288 191.761 222.738 191.205 222.738 190.576C222.738 190.429 222.792 190.362 222.888 190.374ZM210.195 191.281C210.406 191.281 210.616 191.313 210.776 191.378C211.095 191.509 210.834 191.616 210.195 191.616C209.556 191.616 209.295 191.509 209.614 191.378C209.774 191.313 209.985 191.281 210.195 191.281ZM163.277 191.347C163.489 191.362 163.751 191.443 163.995 191.582C164.431 191.829 164.593 192.152 164.356 192.3C163.818 192.637 162.495 191.851 162.904 191.437C162.945 191.395 163.007 191.368 163.083 191.354C163.14 191.344 163.206 191.342 163.277 191.347V191.347ZM166.061 193.15C166.232 193.15 166.402 193.259 166.618 193.479C167.052 193.918 166.929 194.043 166.061 194.043C165.194 194.043 165.07 193.918 165.503 193.479C165.72 193.259 165.891 193.15 166.061 193.15ZM229.547 193.808C229.648 193.819 229.707 193.867 229.707 193.951C229.707 194.566 227.46 195.491 227.161 195C227.02 194.768 227.117 194.447 227.377 194.284C227.637 194.122 227.849 194.114 227.849 194.268C227.849 194.422 228.267 194.321 228.778 194.043C229.097 193.87 229.38 193.789 229.547 193.808V193.808ZM167.339 195.041C168.169 195.01 168.849 195.197 168.849 195.456C168.849 195.715 168.797 195.902 168.733 195.871C168.669 195.841 167.989 195.653 167.223 195.456L165.829 195.097L167.339 195.041ZM166.061 195.988C166.272 195.988 166.482 196.02 166.642 196.085C166.961 196.216 166.7 196.324 166.061 196.324C165.423 196.324 165.161 196.216 165.481 196.085C165.64 196.02 165.851 195.988 166.061 195.988ZM168.616 196.451C169.128 196.43 169.859 196.617 170.242 196.868C171.056 197.401 170.491 197.401 168.849 196.868C167.892 196.557 167.851 196.484 168.616 196.451ZM225.726 196.535C225.862 196.523 226.07 196.851 226.223 197.339C226.397 197.895 226.435 198.458 226.307 198.587C226.179 198.717 225.933 198.366 225.758 197.809C225.584 197.253 225.545 196.691 225.673 196.562C225.689 196.546 225.707 196.537 225.726 196.535V196.535ZM226.423 200.163C226.696 200.163 226.92 200.375 226.92 200.634C226.92 200.893 227.338 201.105 227.849 201.105C228.383 201.105 228.778 201.419 228.778 201.843C228.778 202.381 228.495 202.501 227.733 202.287C226.949 202.067 227.145 202.384 228.515 203.55C232.352 206.818 237.514 212.626 237.271 213.402C237.215 213.58 237.499 213.854 237.903 214.011C238.416 214.211 238.559 214.089 238.377 213.609C238.201 213.146 238.338 213.008 238.793 213.185C239.569 213.486 240.15 215.373 239.773 216.367C239.633 216.736 239.053 217.107 238.483 217.192C237.729 217.304 237.396 217.729 237.263 218.749C237.024 220.576 236.85 220.704 236.504 219.305C236.348 218.676 235.591 217.479 234.822 216.645C234.053 215.81 233.423 214.978 233.423 214.796C233.423 214.361 230.805 212.402 230.223 212.402C229.976 212.402 229.436 212.06 229.023 211.642C227.917 210.522 225.385 210.326 223.664 211.227C221.956 212.122 221.273 211.802 222.417 210.643C223.045 210.006 223.203 209.983 223.203 210.524C223.203 210.943 223.488 210.787 223.953 210.114C224.96 208.657 224.14 207.799 222.981 209.096C222.13 210.049 221.052 210.438 221.557 209.611C221.704 209.37 221.589 209.025 221.3 208.844C220.731 208.488 219.871 209.536 220.239 210.139C220.363 210.343 218.885 210.459 216.955 210.397C215.025 210.335 213.447 210.39 213.447 210.519C213.447 210.649 211.306 210.641 208.686 210.502C202.702 210.184 201.737 209.667 202.147 207.001C202.307 205.959 202.668 204.946 202.949 204.749C204.977 203.329 214.258 201.899 221.691 201.861C226.036 201.839 226.429 201.764 226.19 201.001C226.046 200.54 226.151 200.163 226.423 200.163ZM212.687 200.327C212.729 200.333 212.78 200.405 212.836 200.546C212.97 200.885 212.953 201.292 212.798 201.448C212.644 201.605 212.534 201.327 212.554 200.831C212.568 200.488 212.616 200.316 212.687 200.327H212.687ZM176.077 200.743C176.215 200.743 176.592 200.798 177.196 200.887C178.083 201.016 179.013 201.33 179.263 201.584C179.819 202.147 179.766 202.139 177.443 201.312C176.282 200.899 175.847 200.744 176.077 200.743ZM225.451 202.516C225.305 202.535 224.802 203.004 224.104 203.811C223.488 204.523 223.285 204.841 223.651 204.517C224.425 203.835 225.239 203.729 224.854 204.36C224.709 204.597 224.854 204.897 225.175 205.029C225.496 205.16 225.079 205.284 224.248 205.304C223.131 205.332 222.741 205.555 222.746 206.165C222.751 206.824 222.834 206.858 223.163 206.332C223.389 205.971 223.865 205.789 224.221 205.927C224.577 206.065 225.234 205.907 225.68 205.577C226.425 205.025 226.43 204.913 225.746 204.22C225.337 203.805 225.132 203.252 225.291 202.991C225.496 202.654 225.538 202.504 225.451 202.516ZM181.819 202.988C182.622 202.988 183.715 203.559 183.715 203.98C183.715 204.419 183.543 204.43 182.205 204.075C181.367 203.853 181.059 202.988 181.819 202.988ZM168.503 204.148C168.733 204.153 169.271 204.277 169.894 204.475C174.123 205.819 177.177 206.385 184.179 207.124L191.845 207.932V210.011C191.845 211.833 191.286 212.857 190.646 212.208C190.53 212.091 189.588 211.891 188.552 211.764C187.516 211.638 184.175 210.667 181.127 209.608C178.079 208.549 175.376 207.627 175.12 207.56C174.301 207.344 168.384 204.379 168.384 204.184C168.384 204.158 168.426 204.146 168.503 204.148V204.148ZM202.912 207.357C202.814 207.37 202.762 207.461 202.762 207.629C202.762 208.112 203.541 208.4 205.753 208.737C206.937 208.917 211.152 208.795 214.486 208.484C215.952 208.347 217.254 208.403 217.379 208.608C217.688 209.115 219.95 208.826 220.567 208.201C220.923 207.84 220.605 207.677 219.463 207.631C217.07 207.536 209.881 207.645 206.711 207.826C205.178 207.914 203.662 207.789 203.343 207.548C203.155 207.406 203.01 207.343 202.912 207.357ZM225.927 208.727C225.674 208.699 225.645 208.874 225.803 209.29C226.123 210.136 227.174 210.303 227.616 209.578C227.774 209.319 227.699 209.107 227.449 209.107C227.2 209.107 226.662 208.978 226.255 208.819C226.12 208.767 226.011 208.736 225.927 208.727ZM237.492 211.07C237.517 211.066 237.545 211.066 237.576 211.07C237.61 211.074 237.649 211.084 237.692 211.099C237.995 211.201 238.326 211.536 238.428 211.843C238.706 212.691 237.745 212.513 237.421 211.658C237.288 211.307 237.318 211.097 237.492 211.07V211.07ZM247.388 212.402C247.658 212.402 247.751 212.614 247.593 212.873C247.435 213.132 247.214 213.344 247.101 213.344C246.988 213.344 246.896 213.132 246.896 212.873C246.896 212.614 247.117 212.402 247.388 212.402ZM240.561 213.037C240.603 213.043 240.654 213.115 240.71 213.256C240.844 213.595 240.827 214.002 240.672 214.158C240.518 214.315 240.408 214.037 240.428 213.541C240.442 213.198 240.49 213.026 240.561 213.037H240.561ZM167.739 213.506C167.795 213.515 167.856 213.539 167.92 213.579C168.175 213.739 168.384 213.964 168.384 214.078C168.384 214.193 168.175 214.285 167.92 214.285C167.664 214.285 167.455 214.061 167.455 213.787C167.455 213.581 167.572 213.477 167.739 213.506ZM224.513 213.94C224.548 213.95 224.567 213.985 224.567 214.05C224.567 214.309 224.26 214.932 223.885 215.435C223.51 215.937 223.203 216.137 223.203 215.878C223.203 215.619 223.51 214.996 223.885 214.493C224.167 214.116 224.409 213.91 224.513 213.94ZM225.553 214.285C225.824 214.285 225.916 214.497 225.758 214.756C225.6 215.015 225.379 215.227 225.266 215.227C225.154 215.227 225.061 215.015 225.061 214.756C225.061 214.497 225.282 214.285 225.553 214.285ZM250.85 215.227C250.952 215.23 251.096 215.253 251.286 215.29C251.767 215.385 252.248 215.727 252.355 216.051C252.63 216.89 251.769 216.778 251.033 215.879C250.628 215.385 250.546 215.217 250.85 215.227ZM244.158 218.112C244.422 218.086 244.573 218.619 244.573 219.699C244.573 221.39 244.206 221.729 243.332 220.843C242.978 220.484 242.984 220.009 243.355 219.199C243.678 218.492 243.952 218.132 244.158 218.112H244.158ZM197.42 218.955L198.352 219.907C199.354 220.928 201.909 221.539 207.334 222.054C209.21 222.233 211.353 222.556 212.096 222.772C212.839 222.987 213.447 223.084 213.447 222.987C213.447 222.672 218.611 224.6 221.182 225.875C222.557 226.556 224.149 227.612 224.72 228.223C225.891 229.474 226.706 229.649 227.057 228.722C227.188 228.377 227.041 228.094 226.729 228.094C226.003 228.094 223.203 226.008 223.203 225.467C223.203 225.242 223.019 225.173 222.794 225.314C222.569 225.455 221.664 225.075 220.783 224.47C219.254 223.418 215.458 222.028 212.983 221.612C212.344 221.505 211.821 221.381 211.821 221.338C211.821 221.295 210.88 221.193 209.731 221.113C203.06 220.646 200.053 220.239 198.813 219.634L197.42 218.955ZM223.619 220.457C223.568 220.427 223.388 220.654 223.033 221.111C222.632 221.629 222.303 222.476 222.303 222.994C222.303 223.751 222.38 223.797 222.697 223.229C222.914 222.841 223.242 221.994 223.427 221.346C223.591 220.775 223.669 220.488 223.619 220.457ZM242.802 221.471C242.865 221.489 243.05 221.722 243.387 222.179C243.82 222.767 244.098 223.614 244.006 224.062C243.861 224.769 243.802 224.752 243.561 223.936C243.409 223.418 243.131 222.57 242.943 222.053C242.796 221.649 242.738 221.452 242.802 221.471ZM238.552 224.281C238.51 224.282 238.465 224.291 238.418 224.309C238.098 224.427 237.889 224.762 237.953 225.054C238.017 225.345 237.848 225.583 237.577 225.583C237.307 225.583 237.214 225.795 237.372 226.054C237.53 226.313 237.423 226.525 237.135 226.525C236.421 226.525 235.255 227.753 235.618 228.122C235.963 228.471 237.588 228.023 238.418 227.351C238.737 227.092 238.998 226.253 238.998 225.487C238.998 224.685 238.846 224.276 238.552 224.281V224.281ZM239.725 227.199C239.692 227.209 239.656 227.257 239.62 227.348C239.491 227.672 239.089 227.937 238.727 227.937C238.365 227.937 238.069 228.149 238.069 228.408C238.069 228.667 238.487 228.878 238.998 228.878C239.663 228.878 239.917 228.577 239.89 227.819C239.878 227.455 239.826 227.236 239.757 227.202C239.747 227.197 239.736 227.196 239.725 227.199L239.725 227.199ZM114 229.278V230H114.041C114.027 229.821 114.014 229.572 114 229.278ZM231.666 229.859C231.63 229.869 231.607 229.924 231.592 230H231.859C231.78 229.904 231.712 229.847 231.666 229.859Z" fill="black"/>
</g>
<rect x="33" y="27" width="146" height="23" fill="#F74E9C"/>
<defs>
<linearGradient id="paint0_linear_415_764" x1="150" y1="0" x2="150" y2="300" gradientUnits="userSpaceOnUse">
<stop stop-color="#1D1A2F"/>
<stop offset="1" stop-color="#4833C7" stop-opacity="0.7"/>
</linearGradient>
<clipPath id="clip0_415_764">
<rect width="155" height="139" fill="white" transform="translate(114 91)"/>
</clipPath>
</defs>
</svg>
