<svg width="300" height="310" viewBox="0 0 300 310" fill="none" xmlns="http://www.w3.org/2000/svg">
<path d="M67.3999 35.9519L67.4077 35.9504C81.1784 33.2754 94.3649 29.6008 107.437 24.8093C118.839 20.5971 136.901 12.5933 148.67 6.53445C148.933 6.39847 149.188 6.2663 149.435 6.13849C150.551 5.56018 151.493 5.0715 152.294 4.72592C153.309 4.28738 154.307 3.98029 155.427 4.00098C156.527 4.0213 157.543 4.35547 158.598 4.81253C159.434 5.17471 160.432 5.67838 161.633 6.28403C161.92 6.42886 162.219 6.57953 162.53 6.7355C171.534 11.2377 183.607 16.7487 192.774 20.5507L192.775 20.5511C207.622 26.7179 222.084 31.2978 236.96 34.5522C242.134 35.6659 252.17 37.4639 262.52 39.1265C266.333 39.7267 270.769 40.4846 274.425 41.1426C278.011 41.7876 281.018 42.3658 281.835 42.6013L281.891 42.6176L281.947 42.6371C282.081 42.6844 282.39 42.8006 282.701 43.0619C283.031 43.3395 283.236 43.67 283.362 43.9756C283.565 44.4674 283.603 45.0146 283.622 45.4101C283.664 46.3069 283.631 47.9069 283.562 50.7361L283.562 50.7376C282.788 81.3695 280.912 115.517 279.281 128.193C277.762 140.075 272.176 163.899 268.128 175.807L268.127 175.81C262.803 191.405 257.129 204.448 251.184 214.72L251.182 214.724C244.151 226.81 240.529 232.494 234.151 241.305C226.249 252.228 224.667 254.126 215.765 263.429C208.964 270.538 207.86 271.591 198.935 279.245L198.934 279.245C185.701 290.581 181.622 293.781 175.622 297.371C173.23 298.812 170.235 300.668 168.955 301.483C166.462 303.126 162.707 305.006 158.359 306.849L158.352 306.852L158.345 306.855L158.258 306.891C157.282 307.296 156.506 307.618 155.851 307.756C154.952 307.945 154.29 307.8 153.701 307.652C153.113 307.509 152.252 307.157 151.393 306.777C150.474 306.37 149.387 305.853 148.279 305.3C146.095 304.209 143.713 302.92 142.35 302.017C141.176 301.258 138.328 299.498 135.972 298.075C129.109 293.995 126.924 292.269 111.776 279.368C98.308 267.929 88.9634 258.26 80.6048 247.147L80.6026 247.144C74.0502 238.4 70.1236 232.605 64.7454 223.783L64.7426 223.778C57.4773 211.787 54.3278 205.88 50.9691 197.901C44.5073 182.548 40.8192 171.483 36.6934 155.097L36.6933 155.097C34.8371 147.72 32.007 134.363 31.3798 129.863C31.1249 128.141 29.86 112.475 29.4655 106.626H29.4655L29.4651 106.621C28.4099 90.2532 27 57.9266 27 49.609V44.8747V43.6574L28.0812 43.0982L28.7385 42.7584C28.7438 42.7556 28.7491 42.7528 28.7544 42.75C28.9966 42.6235 29.2571 42.5471 29.3638 42.5158L29.3672 42.5148C29.5322 42.4665 29.7249 42.4167 29.9306 42.3671C30.345 42.2672 30.8802 42.1517 31.4926 42.0289C32.72 41.7829 34.3107 41.497 35.975 41.2354C49.6365 39.0054 64.6076 36.5058 67.3999 35.9519Z" fill="url(#paint0_linear_220_357)" stroke="#17760E" stroke-width="4"/>
<path d="M154.993 34C159.332 39.1799 165.732 42.6255 172.834 43.6049C179.653 44.523 192.23 44.8408 201.697 44.9408C204.987 44.9734 208.13 46.178 210.445 48.2935C212.759 50.4089 214.058 53.2645 214.059 56.2407V66.0162C214.059 68.647 216.264 72.3488 220 74.3557C216.264 76.3567 214.059 80.0645 214.059 82.6894V92.4708C214.058 95.4464 212.759 98.3013 210.444 100.416C208.13 102.53 204.987 103.734 201.697 103.765C192.23 103.865 179.653 104.182 172.834 105.101C165.732 106.084 159.332 109.531 154.993 114.711C150.654 109.531 144.255 106.084 137.153 105.101C130.334 104.182 117.757 103.865 108.283 103.765C104.993 103.736 101.849 102.532 99.5341 100.418C97.2192 98.3027 95.9208 95.4469 95.9209 92.4708V82.6894C95.9404 80.0645 93.7282 76.3744 90 74.3557C93.7282 72.3488 95.9404 68.647 95.9404 66.0162V56.2407C95.9403 53.264 97.2385 50.4076 99.5533 48.2918C101.868 46.1761 105.012 44.9719 108.303 44.9408C117.776 44.8408 130.353 44.523 137.172 43.6049C144.267 42.6212 150.66 39.176 154.993 34Z" fill="url(#paint1_linear_220_357)"/>
<path d="M154.993 113.017C150.49 108.205 144.212 105.032 137.322 104.083C130.418 103.153 117.731 102.835 108.303 102.735C105.32 102.693 102.474 101.595 100.376 99.6756C98.2786 97.7563 97.0972 95.1694 97.0856 92.4708V82.6894C97.0856 80.1823 95.3483 76.7099 92.0171 74.3557C95.3483 72.0016 97.0856 68.5293 97.0856 66.0163V56.2407C97.0955 53.5416 98.2763 50.9538 100.374 49.0343C102.472 47.1147 105.319 46.0167 108.303 45.9766C117.731 45.8766 130.425 45.5588 137.322 44.629C144.214 43.6806 150.492 40.5044 154.993 35.6891C159.492 40.5073 165.771 43.6842 172.665 44.629C179.556 45.5588 192.25 45.8766 201.684 45.9766C204.668 46.0167 207.515 47.1147 209.612 49.0343C211.71 50.9538 212.891 53.5416 212.901 56.2407V66.0163C212.901 68.5293 214.631 71.9957 217.964 74.3557C214.631 76.7099 212.901 80.1823 212.901 82.6894V92.4708C212.89 95.1694 211.708 97.7563 209.61 99.6756C207.513 101.595 204.667 102.693 201.684 102.735C192.256 102.835 179.562 103.153 172.665 104.083C165.773 105.028 159.495 108.203 154.993 113.017Z" fill="url(#paint2_linear_220_357)"/>
<path d="M154.993 111.457C150.376 106.952 144.21 103.992 137.497 103.059C130.529 102.123 117.783 101.805 108.322 101.699C105.638 101.665 103.075 100.679 101.187 98.953C99.298 97.227 98.2341 94.8992 98.2242 92.4708V82.6894C98.2242 80.3352 96.8383 76.9688 93.7672 74.3557C96.8383 71.7427 98.2242 68.3821 98.2242 66.0163V56.2407C98.2358 53.8132 99.2991 51.4864 101.186 49.76C103.073 48.0337 105.632 47.045 108.316 47.0066C117.783 46.9065 130.529 46.5887 137.491 45.647C144.206 44.7191 150.375 41.7609 154.993 37.2545C159.611 41.7609 165.781 44.7191 172.496 45.647C179.451 46.5887 192.203 46.9065 201.671 47.0066C204.354 47.045 206.914 48.0337 208.801 49.76C210.687 51.4864 211.751 53.8132 211.762 56.2407V66.0163C211.762 68.3703 213.148 71.7427 216.213 74.3557C213.148 76.9629 211.762 80.3293 211.762 82.6894V92.4708C211.746 94.8947 210.68 97.2163 208.793 98.938C206.907 100.66 204.35 101.644 201.671 101.681C192.203 101.787 179.464 102.105 172.496 103.041C165.778 103.978 159.609 106.944 154.993 111.457Z" fill="url(#paint3_radial_220_357)"/>
<path d="M154.993 111.457C150.376 106.952 144.21 103.992 137.497 103.059C130.529 102.123 117.783 101.805 108.322 101.699C105.638 101.665 103.075 100.679 101.187 98.953C99.298 97.227 98.2341 94.8992 98.2242 92.4708V82.6894C98.2242 80.3352 96.8383 76.9688 93.7672 74.3557C96.8383 71.7427 98.2242 68.3821 98.2242 66.0163V56.2407C98.2358 53.8132 99.2991 51.4864 101.186 49.76C103.073 48.0337 105.632 47.045 108.316 47.0066C117.783 46.9065 130.529 46.5887 137.491 45.647C144.206 44.7191 150.375 41.7609 154.993 37.2545C159.611 41.7609 165.781 44.7191 172.496 45.647C179.451 46.5887 192.203 46.9065 201.671 47.0066C204.354 47.045 206.914 48.0337 208.801 49.76C210.687 51.4864 211.751 53.8132 211.762 56.2407V66.0163C211.762 68.3703 213.148 71.7427 216.213 74.3557C213.148 76.9629 211.762 80.3293 211.762 82.6894V92.4708C211.746 94.8947 210.68 97.2163 208.793 98.938C206.907 100.66 204.35 101.644 201.671 101.681C192.203 101.787 179.464 102.105 172.496 103.041C165.778 103.978 159.609 106.944 154.993 111.457Z" fill="url(#paint4_radial_220_357)"/>
<path style="mix-blend-mode:multiply" d="M154.993 106.743C150.64 102.763 144.961 100.189 138.831 99.4155C132.396 98.5974 120.613 98.3149 111.881 98.2384C106.748 98.1854 102.564 94.5719 102.564 90.1814V81.63C102.564 79.5702 101.263 76.6334 98.4519 74.3557C101.282 72.0723 102.564 69.1413 102.564 67.0756V58.5359C102.564 54.1455 106.748 50.5319 111.881 50.4789C120.626 50.3906 132.403 50.114 138.831 49.3019C144.963 48.5255 150.642 45.9467 154.993 41.9628C159.343 45.9481 165.023 48.5272 171.155 49.3019C177.584 50.12 189.374 50.3965 198.098 50.4789C203.239 50.5319 207.416 54.1455 207.416 58.5359V67.0756C207.416 69.1413 208.717 72.0781 211.534 74.3557C208.697 76.6334 207.416 79.5702 207.416 81.63V90.1696C207.416 94.5601 203.239 98.1737 198.098 98.2266C189.36 98.3149 177.59 98.5974 171.155 99.4037C165.023 100.179 159.344 102.758 154.993 106.743Z" fill="url(#paint5_radial_220_357)"/>
<path d="M211.762 66.0162V59.8954H198.098V74.6088H215.953L216.207 74.3793C213.148 71.7427 211.762 68.3821 211.762 66.0162Z" fill="url(#paint6_linear_220_357)"/>
<path d="M108.413 59.8954H98.2242V66.0162C98.2242 68.3703 96.8383 71.7426 93.7672 74.3557L94.0275 74.5853H108.413V59.8954Z" fill="url(#paint7_linear_220_357)"/>
<path d="M189.205 59.8954H118.401V74.5853H189.205V59.8954Z" fill="url(#paint8_linear_220_357)"/>
<path d="M215.53 73.7319H198.105V74.6088H215.959L216.213 74.3793C215.979 74.1497 215.751 73.9437 215.53 73.7319Z" fill="url(#paint9_linear_220_357)"/>
<path d="M211.762 59.8954H198.105V60.4546H211.762V59.8954Z" fill="url(#paint10_linear_220_357)"/>
<path d="M108.413 59.8954H98.2242V60.4546H108.413V59.8954Z" fill="url(#paint11_linear_220_357)"/>
<path d="M94.4504 73.7319C94.2357 73.9437 94.008 74.1497 93.7998 74.3557L94.06 74.5853H108.413V73.7319H94.4504Z" fill="url(#paint12_linear_220_357)"/>
<path d="M189.205 59.8954H118.401V60.4546H189.205V59.8954Z" fill="url(#paint13_linear_220_357)"/>
<path d="M189.205 73.7319H118.401V74.5853H189.205V73.7319Z" fill="url(#paint14_linear_220_357)"/>
<path style="mix-blend-mode:screen" opacity="0.6" d="M154.746 62.5321C162.125 55.8681 170.707 50.3908 180.121 46.3356C177.226 46.1591 174.604 45.9296 172.509 45.647C165.789 44.7217 159.615 41.7632 154.993 37.2545C150.377 41.7597 144.21 44.7179 137.497 45.647C130.535 46.5887 117.789 46.9065 108.322 47.0066C105.638 47.0435 103.076 48.0314 101.188 49.758C99.3 51.4846 98.2358 53.8121 98.2242 56.2407V66.0163C98.2242 68.3703 96.8383 71.7427 93.7672 74.3557C96.8383 76.9688 98.2242 80.3293 98.2242 82.6894V92.4708C98.2392 94.8952 99.3045 97.2176 101.191 98.9396C103.078 100.662 105.636 101.646 108.316 101.681C115.056 101.758 123.469 101.94 130.269 102.376C134.179 87.2963 142.655 73.4997 154.746 62.5321Z" fill="url(#paint15_radial_220_357)"/>
<path d="M156.639 99.6921L154.909 98.7622L153.171 99.698L153.614 97.9148L152.098 96.7082L154.108 96.5376L154.902 94.8661L155.703 96.5376L157.713 96.7082L156.197 97.9148L156.639 99.6921Z" fill="url(#paint16_linear_220_357)"/>
<path d="M163.237 99.1388L161.897 98.4267L160.563 99.1388L160.901 97.7676L159.737 96.8436L161.285 96.7082L161.897 95.4194L162.515 96.7082L164.063 96.8377L162.899 97.7676L163.237 99.1388Z" fill="url(#paint17_linear_220_357)"/>
<path d="M148.981 99.1388L147.647 98.4267L146.307 99.1388L146.645 97.7676L145.481 96.8436L147.029 96.7082L147.641 95.4194L148.259 96.7082L149.808 96.8377L148.643 97.7676L148.981 99.1388Z" fill="url(#paint18_linear_220_357)"/>
<path d="M168.019 98.6269L167.05 98.1089L166.087 98.6269L166.328 97.6323L165.488 96.9613L166.607 96.8671L167.05 95.9314L167.499 96.8671L168.618 96.9613L167.772 97.6323L168.019 98.6269Z" fill="url(#paint19_linear_220_357)"/>
<path d="M143.639 98.6269L142.67 98.1089L141.707 98.6269L141.954 97.6323L141.108 96.9613L142.228 96.8671L142.67 95.9314L143.119 96.8671L144.238 96.9613L143.392 97.6323L143.639 98.6269Z" fill="url(#paint20_linear_220_357)"/>
<path d="M190.766 92.153H120.541V92.8887H190.766V92.153Z" fill="url(#paint21_linear_220_357)"/>
<path d="M212.309 159.856V134.056H183.846C175.04 130.066 165.329 127.992 155.484 128H154.516C144.671 127.992 134.96 130.066 126.155 134.056H97.6828V159.856C93.2799 167.835 90.9917 176.636 91 185.557C91 185.78 91 186.003 91 186.226C91 186.449 91 186.665 91 186.888C90.9917 195.809 93.2799 204.609 97.6828 212.588V238.381H126.155C134.958 242.377 144.67 244.453 154.516 244.444H155.484C165.33 244.453 175.042 242.377 183.846 238.381H212.309V212.588C216.718 204.611 219.01 195.81 219 186.888C219 186.665 219 186.441 219 186.226C219 186.011 219 185.78 219 185.557C219.01 176.635 216.718 167.834 212.309 159.856Z" fill="url(#paint22_linear_220_357)"/>
<path d="M154.516 243.167C144.889 243.193 135.39 241.172 126.783 237.265L126.486 237.127H99.0924V212.288L98.9396 212.019C94.6171 204.222 92.3775 195.613 92.4012 186.888V185.557C92.3765 176.831 94.6162 168.222 98.9396 160.425L99.0924 160.156V135.333H126.486L126.783 135.194C135.387 131.277 144.887 129.247 154.516 129.27H155.484C165.113 129.247 174.613 131.277 183.217 135.194L183.514 135.333H210.907V160.156L211.052 160.425C215.375 168.222 217.615 176.831 217.59 185.557V186.888C217.615 195.613 215.375 204.222 211.052 212.019L210.907 212.288V237.111H183.556L183.259 237.25C174.654 241.161 165.154 243.189 155.526 243.167H154.516Z" fill="url(#paint23_linear_220_357)"/>
<path d="M154.516 237.85C145.796 237.861 137.196 236.016 129.407 232.464L127.87 231.763H104.943V210.988L104.17 209.595C100.251 202.537 98.2153 194.744 98.2262 186.842V185.557C98.2145 177.655 100.25 169.862 104.17 162.803L104.943 161.411V140.635H127.87L129.407 139.935C137.196 136.382 145.796 134.537 154.516 134.548H155.484C164.201 134.537 172.799 136.382 180.585 139.935L182.122 140.635H205.049V161.411L205.813 162.803C209.735 169.861 211.772 177.655 211.757 185.557V186.888C211.772 194.79 209.735 202.584 205.813 209.641L205.049 211.034V231.809H182.122L180.585 232.51C172.799 236.062 164.201 237.907 155.484 237.897L154.516 237.85Z" fill="url(#paint24_linear_220_357)"/>
<path d="M154.516 236.573C146.025 236.591 137.648 234.801 130.061 231.348L128.226 230.517H106.37V210.734L105.435 209.071C101.622 202.189 99.6466 194.59 99.6698 186.888V185.549C99.6515 177.857 101.626 170.269 105.435 163.396L106.353 161.734V141.927H128.201L130.061 141.081C137.65 137.634 146.027 135.85 154.516 135.871H155.484C163.979 135.846 172.362 137.63 179.956 141.081L181.79 141.913H203.63V161.711L204.547 163.396C208.361 170.279 210.335 177.878 210.313 185.58V186.918C210.334 194.618 208.36 202.214 204.547 209.095L203.63 210.757V230.54H181.79L179.956 231.371C172.364 234.827 163.981 236.617 155.484 236.596L154.516 236.573Z" fill="white"/>
<path d="M154.567 231.286C146.96 231.305 139.456 229.703 132.659 226.608L131.02 225.838H111.49V208.141L110.641 206.656C107.226 200.496 105.457 193.696 105.478 186.804V185.618C105.458 178.728 107.227 171.93 110.641 165.773L111.49 164.288V146.59H131.02L132.659 145.821C139.456 142.727 146.96 141.123 154.567 141.143H155.416C163.023 141.123 170.527 142.727 177.324 145.821L178.963 146.59H198.493V164.288L199.342 165.773C202.757 171.933 204.525 178.733 204.505 185.626V186.826C204.525 193.716 202.756 200.514 199.342 206.671L198.493 208.156V225.854H178.963L177.324 226.623C170.527 229.718 163.023 231.321 155.416 231.302L154.567 231.286Z" fill="url(#paint25_radial_220_357)"/>
<path style="mix-blend-mode:multiply" d="M154.626 224.754C148.123 224.768 141.706 223.398 135.894 220.752L134.493 220.121H117.782V204.947L117.086 203.678C114.167 198.411 112.654 192.596 112.67 186.703V185.71C112.662 179.833 114.174 174.035 117.086 168.782L117.782 167.513V152.323H134.493L135.894 151.684C141.708 149.045 148.124 147.677 154.626 147.69H155.374C161.859 147.683 168.257 149.05 174.055 151.684L175.465 152.323H192.167V167.466L192.872 168.736C195.805 173.999 197.333 179.814 197.33 185.71V186.742C197.338 192.62 195.825 198.418 192.915 203.67L192.21 204.939V220.083H175.507L174.097 220.714C168.301 223.354 161.903 224.724 155.416 224.715L154.626 224.754Z" fill="url(#paint26_radial_220_357)"/>
<path d="M102.379 155.578V138.296H123.862L124.218 137.88H101.929V155.924L102.379 155.578Z" fill="url(#paint27_radial_220_357)"/>
<path d="M102.379 215.105L101.929 214.781V234.564H124.218L123.862 234.149H102.379V215.105Z" fill="url(#paint28_radial_220_357)"/>
<path d="M207.613 155.578L208.071 155.924V137.88H185.001L185.34 138.296H207.613V155.578Z" fill="url(#paint29_radial_220_357)"/>
<path d="M207.613 215.105V234.149H185.34L185.001 234.564H208.071V214.781L207.613 215.105Z" fill="url(#paint30_radial_220_357)"/>
<path style="mix-blend-mode:screen" opacity="0.6" d="M123.352 225.862C131.907 198.484 148.035 173.54 170.208 153.393C172.88 150.961 175.631 148.617 178.462 146.36L177.316 145.836C170.519 142.742 163.014 141.139 155.408 141.158H154.558C146.952 141.139 139.447 142.742 132.651 145.836L131.012 146.606H111.481V164.304L110.632 165.789C107.218 171.946 105.45 178.744 105.469 185.634V186.834C105.449 193.727 107.217 200.527 110.632 206.686L111.481 208.171V225.869L123.352 225.862Z" fill="url(#paint31_radial_220_357)"/>
<defs>
<linearGradient id="paint0_linear_220_357" x1="155.32" y1="305.846" x2="155.32" y2="6" gradientUnits="userSpaceOnUse">
<stop stop-color="#40E224"/>
<stop offset="1" stop-color="#9CE68F" stop-opacity="0.83"/>
</linearGradient>
<linearGradient id="paint1_linear_220_357" x1="110.495" y1="34.106" x2="186.879" y2="118.551" gradientUnits="userSpaceOnUse">
<stop stop-color="#79DB1A"/>
<stop offset="0.08" stop-color="#70D41A"/>
<stop offset="0.21" stop-color="#58C21B"/>
<stop offset="0.37" stop-color="#30A51C"/>
<stop offset="0.53" stop-color="#00821E"/>
<stop offset="1" stop-color="#79DB1A"/>
</linearGradient>
<linearGradient id="paint2_linear_220_357" x1="96.591" y1="74.3557" x2="213.031" y2="74.3557" gradientUnits="userSpaceOnUse">
<stop stop-color="#79DB1A"/>
<stop offset="0.08" stop-color="#70D41A"/>
<stop offset="0.21" stop-color="#58C21B"/>
<stop offset="0.37" stop-color="#30A51C"/>
<stop offset="0.53" stop-color="#00821E"/>
<stop offset="1" stop-color="#79DB1A"/>
</linearGradient>
<radialGradient id="paint3_radial_220_357" cx="0" cy="0" r="1" gradientUnits="userSpaceOnUse" gradientTransform="translate(154.993 74.3557) scale(52.1105 47.1357)">
<stop offset="0.39" stop-color="#046A38"/>
<stop offset="0.57" stop-color="#046435"/>
<stop offset="0.82" stop-color="#03522C"/>
<stop offset="1" stop-color="#034223"/>
</radialGradient>
<radialGradient id="paint4_radial_220_357" cx="0" cy="0" r="1" gradientUnits="userSpaceOnUse" gradientTransform="translate(154.993 74.3557) scale(52.1105 47.1357)">
<stop offset="0.39" stop-color="#046A38"/>
<stop offset="0.57" stop-color="#046435"/>
<stop offset="0.82" stop-color="#03522C"/>
<stop offset="1" stop-color="#034223"/>
</radialGradient>
<radialGradient id="paint5_radial_220_357" cx="0" cy="0" r="1" gradientUnits="userSpaceOnUse" gradientTransform="translate(154.993 74.3557) scale(47.3217 42.804)">
<stop offset="0.39" stop-color="#046A38"/>
<stop offset="0.57" stop-color="#046435"/>
<stop offset="0.82" stop-color="#03522C"/>
<stop offset="1" stop-color="#034223"/>
</radialGradient>
<linearGradient id="paint6_linear_220_357" x1="141.115" y1="9.51701" x2="214.553" y2="90.7058" gradientUnits="userSpaceOnUse">
<stop stop-color="#79DB1A"/>
<stop offset="0.08" stop-color="#70D41A"/>
<stop offset="0.21" stop-color="#58C21B"/>
<stop offset="0.37" stop-color="#30A51C"/>
<stop offset="0.53" stop-color="#00821E"/>
<stop offset="1" stop-color="#79DB1A"/>
</linearGradient>
<linearGradient id="paint7_linear_220_357" x1="89.2583" y1="56.4231" x2="162.696" y2="137.612" gradientUnits="userSpaceOnUse">
<stop stop-color="#79DB1A"/>
<stop offset="0.08" stop-color="#70D41A"/>
<stop offset="0.21" stop-color="#58C21B"/>
<stop offset="0.37" stop-color="#30A51C"/>
<stop offset="0.53" stop-color="#00821E"/>
<stop offset="1" stop-color="#79DB1A"/>
</linearGradient>
<linearGradient id="paint8_linear_220_357" x1="115.18" y1="32.3051" x2="190.258" y2="115.312" gradientUnits="userSpaceOnUse">
<stop stop-color="#79DB1A"/>
<stop offset="0.08" stop-color="#70D41A"/>
<stop offset="0.21" stop-color="#58C21B"/>
<stop offset="0.37" stop-color="#30A51C"/>
<stop offset="0.53" stop-color="#00821E"/>
<stop offset="1" stop-color="#79DB1A"/>
</linearGradient>
<linearGradient id="paint9_linear_220_357" x1="97.3784" y1="74.1616" x2="215.276" y2="74.1616" gradientUnits="userSpaceOnUse">
<stop stop-color="#79DB1A"/>
<stop offset="0.08" stop-color="#70D41A"/>
<stop offset="0.21" stop-color="#58C21B"/>
<stop offset="0.37" stop-color="#30A51C"/>
<stop offset="0.53" stop-color="#00821E"/>
<stop offset="1" stop-color="#79DB1A"/>
</linearGradient>
<linearGradient id="paint10_linear_220_357" x1="97.3784" y1="60.1779" x2="215.276" y2="60.1779" gradientUnits="userSpaceOnUse">
<stop stop-color="#79DB1A"/>
<stop offset="0.08" stop-color="#70D41A"/>
<stop offset="0.21" stop-color="#58C21B"/>
<stop offset="0.37" stop-color="#30A51C"/>
<stop offset="0.53" stop-color="#00821E"/>
<stop offset="1" stop-color="#79DB1A"/>
</linearGradient>
<linearGradient id="paint11_linear_220_357" x1="97.3784" y1="60.1779" x2="215.276" y2="60.1779" gradientUnits="userSpaceOnUse">
<stop stop-color="#79DB1A"/>
<stop offset="0.08" stop-color="#70D41A"/>
<stop offset="0.21" stop-color="#58C21B"/>
<stop offset="0.37" stop-color="#30A51C"/>
<stop offset="0.53" stop-color="#00821E"/>
<stop offset="1" stop-color="#79DB1A"/>
</linearGradient>
<linearGradient id="paint12_linear_220_357" x1="97.3784" y1="74.1616" x2="215.276" y2="74.1616" gradientUnits="userSpaceOnUse">
<stop stop-color="#79DB1A"/>
<stop offset="0.08" stop-color="#70D41A"/>
<stop offset="0.21" stop-color="#58C21B"/>
<stop offset="0.37" stop-color="#30A51C"/>
<stop offset="0.53" stop-color="#00821E"/>
<stop offset="1" stop-color="#79DB1A"/>
</linearGradient>
<linearGradient id="paint13_linear_220_357" x1="97.3784" y1="60.1779" x2="215.276" y2="60.1779" gradientUnits="userSpaceOnUse">
<stop stop-color="#79DB1A"/>
<stop offset="0.08" stop-color="#70D41A"/>
<stop offset="0.21" stop-color="#58C21B"/>
<stop offset="0.37" stop-color="#30A51C"/>
<stop offset="0.53" stop-color="#00821E"/>
<stop offset="1" stop-color="#79DB1A"/>
</linearGradient>
<linearGradient id="paint14_linear_220_357" x1="97.3784" y1="74.1616" x2="215.276" y2="74.1616" gradientUnits="userSpaceOnUse">
<stop stop-color="#79DB1A"/>
<stop offset="0.08" stop-color="#70D41A"/>
<stop offset="0.21" stop-color="#58C21B"/>
<stop offset="0.37" stop-color="#30A51C"/>
<stop offset="0.53" stop-color="#00821E"/>
<stop offset="1" stop-color="#79DB1A"/>
</linearGradient>
<radialGradient id="paint15_radial_220_357" cx="0" cy="0" r="1" gradientUnits="userSpaceOnUse" gradientTransform="translate(164.265 68.5646) scale(80.7325 73.0252)">
<stop offset="0.14" stop-color="#7ABD39"/>
<stop offset="0.18" stop-color="#71B035"/>
<stop offset="0.4" stop-color="#497222"/>
<stop offset="0.59" stop-color="#2A4114"/>
<stop offset="0.77" stop-color="#131D09"/>
<stop offset="0.91" stop-color="#050802"/>
<stop offset="1"/>
</radialGradient>
<linearGradient id="paint16_linear_220_357" x1="142.182" y1="86.203" x2="182.675" y2="130.97" gradientUnits="userSpaceOnUse">
<stop stop-color="#79DB1A"/>
<stop offset="0.08" stop-color="#70D41A"/>
<stop offset="0.21" stop-color="#58C21B"/>
<stop offset="0.37" stop-color="#30A51C"/>
<stop offset="0.53" stop-color="#00821E"/>
<stop offset="1" stop-color="#79DB1A"/>
</linearGradient>
<linearGradient id="paint17_linear_220_357" x1="145.735" y1="82.9954" x2="186.216" y2="127.749" gradientUnits="userSpaceOnUse">
<stop stop-color="#79DB1A"/>
<stop offset="0.08" stop-color="#70D41A"/>
<stop offset="0.21" stop-color="#58C21B"/>
<stop offset="0.37" stop-color="#30A51C"/>
<stop offset="0.53" stop-color="#00821E"/>
<stop offset="1" stop-color="#79DB1A"/>
</linearGradient>
<linearGradient id="paint18_linear_220_357" x1="138.603" y1="89.4399" x2="179.097" y2="134.201" gradientUnits="userSpaceOnUse">
<stop stop-color="#79DB1A"/>
<stop offset="0.08" stop-color="#70D41A"/>
<stop offset="0.21" stop-color="#58C21B"/>
<stop offset="0.37" stop-color="#30A51C"/>
<stop offset="0.53" stop-color="#00821E"/>
<stop offset="1" stop-color="#79DB1A"/>
</linearGradient>
<linearGradient id="paint19_linear_220_357" x1="148.357" y1="80.6177" x2="188.85" y2="125.379" gradientUnits="userSpaceOnUse">
<stop stop-color="#79DB1A"/>
<stop offset="0.08" stop-color="#70D41A"/>
<stop offset="0.21" stop-color="#58C21B"/>
<stop offset="0.37" stop-color="#30A51C"/>
<stop offset="0.53" stop-color="#00821E"/>
<stop offset="1" stop-color="#79DB1A"/>
</linearGradient>
<linearGradient id="paint20_linear_220_357" x1="136.17" y1="91.6409" x2="176.663" y2="136.408" gradientUnits="userSpaceOnUse">
<stop stop-color="#79DB1A"/>
<stop offset="0.08" stop-color="#70D41A"/>
<stop offset="0.21" stop-color="#58C21B"/>
<stop offset="0.37" stop-color="#30A51C"/>
<stop offset="0.53" stop-color="#00821E"/>
<stop offset="1" stop-color="#79DB1A"/>
</linearGradient>
<linearGradient id="paint21_linear_220_357" x1="137.894" y1="76.4568" x2="169.861" y2="111.798" gradientUnits="userSpaceOnUse">
<stop stop-color="#79DB1A"/>
<stop offset="0.08" stop-color="#70D41A"/>
<stop offset="0.21" stop-color="#58C21B"/>
<stop offset="0.37" stop-color="#30A51C"/>
<stop offset="0.53" stop-color="#00821E"/>
<stop offset="1" stop-color="#79DB1A"/>
</linearGradient>
<linearGradient id="paint22_linear_220_357" x1="92.087" y1="186.219" x2="214.848" y2="186.219" gradientUnits="userSpaceOnUse">
<stop stop-color="#79DB1A"/>
<stop offset="0.08" stop-color="#70D41A"/>
<stop offset="0.21" stop-color="#58C21B"/>
<stop offset="0.37" stop-color="#30A51C"/>
<stop offset="0.53" stop-color="#00821E"/>
<stop offset="1" stop-color="#79DB1A"/>
</linearGradient>
<linearGradient id="paint23_linear_220_357" x1="99.9161" y1="136.31" x2="196.845" y2="243.275" gradientUnits="userSpaceOnUse">
<stop stop-color="#79DB1A"/>
<stop offset="0.08" stop-color="#70D41A"/>
<stop offset="0.21" stop-color="#58C21B"/>
<stop offset="0.37" stop-color="#30A51C"/>
<stop offset="0.53" stop-color="#00821E"/>
<stop offset="1" stop-color="#79DB1A"/>
</linearGradient>
<linearGradient id="paint24_linear_220_357" x1="99.2452" y1="186.219" x2="208.038" y2="186.219" gradientUnits="userSpaceOnUse">
<stop stop-color="#79DB1A"/>
<stop offset="0.08" stop-color="#70D41A"/>
<stop offset="0.21" stop-color="#58C21B"/>
<stop offset="0.37" stop-color="#30A51C"/>
<stop offset="0.53" stop-color="#00821E"/>
<stop offset="1" stop-color="#79DB1A"/>
</linearGradient>
<radialGradient id="paint25_radial_220_357" cx="0" cy="0" r="1" gradientUnits="userSpaceOnUse" gradientTransform="translate(155 186.219) scale(49.6155 44.9603)">
<stop offset="0.39" stop-color="#046A38"/>
<stop offset="0.57" stop-color="#046435"/>
<stop offset="0.82" stop-color="#03522C"/>
<stop offset="1" stop-color="#034223"/>
</radialGradient>
<radialGradient id="paint26_radial_220_357" cx="0" cy="0" r="1" gradientUnits="userSpaceOnUse" gradientTransform="translate(155 186.219) scale(42.4317 38.4505)">
<stop offset="0.39" stop-color="#046A38"/>
<stop offset="0.57" stop-color="#046435"/>
<stop offset="0.82" stop-color="#03522C"/>
<stop offset="1" stop-color="#034223"/>
</radialGradient>
<radialGradient id="paint27_radial_220_357" cx="0" cy="0" r="1" gradientUnits="userSpaceOnUse" gradientTransform="translate(113.069 146.898) scale(10.5633 9.57225)">
<stop offset="0.39" stop-color="#046A38"/>
<stop offset="0.57" stop-color="#046435"/>
<stop offset="0.82" stop-color="#03522C"/>
<stop offset="1" stop-color="#034223"/>
</radialGradient>
<radialGradient id="paint28_radial_220_357" cx="0" cy="0" r="1" gradientUnits="userSpaceOnUse" gradientTransform="translate(113.069 224.669) scale(11.0303 9.99545)">
<stop offset="0.39" stop-color="#046A38"/>
<stop offset="0.57" stop-color="#046435"/>
<stop offset="0.82" stop-color="#03522C"/>
<stop offset="1" stop-color="#034223"/>
</radialGradient>
<radialGradient id="paint29_radial_220_357" cx="0" cy="0" r="1" gradientUnits="userSpaceOnUse" gradientTransform="translate(196.531 146.898) scale(10.7756 9.76465)">
<stop offset="0.39" stop-color="#046A38"/>
<stop offset="0.57" stop-color="#046435"/>
<stop offset="0.82" stop-color="#03522C"/>
<stop offset="1" stop-color="#034223"/>
</radialGradient>
<radialGradient id="paint30_radial_220_357" cx="0" cy="0" r="1" gradientUnits="userSpaceOnUse" gradientTransform="translate(196.531 224.669) scale(11.2257 10.1725)">
<stop offset="0.39" stop-color="#046A38"/>
<stop offset="0.57" stop-color="#046435"/>
<stop offset="0.82" stop-color="#03522C"/>
<stop offset="1" stop-color="#034223"/>
</radialGradient>
<radialGradient id="paint31_radial_220_357" cx="0" cy="0" r="1" gradientUnits="userSpaceOnUse" gradientTransform="translate(183.285 164.743) scale(104.504 94.6988)">
<stop offset="0.14" stop-color="#7ABD39"/>
<stop offset="0.18" stop-color="#71B035"/>
<stop offset="0.4" stop-color="#497222"/>
<stop offset="0.59" stop-color="#2A4114"/>
<stop offset="0.77" stop-color="#131D09"/>
<stop offset="0.91" stop-color="#050802"/>
<stop offset="1"/>
</radialGradient>
</defs>
</svg>
