<svg width="300" height="300" viewBox="0 0 300 300" fill="none" xmlns="http://www.w3.org/2000/svg">
<path d="M106.182 0.0803728C105.052 0.406863 103.419 1.91374 102.766 3.2197C102.038 4.67635 102.038 6.08277 102.741 7.28827C103.017 7.76545 103.193 8.3682 103.118 8.59423C102.992 9.0463 103.846 9.62393 104.675 9.62393C105.026 9.62393 106.684 10.5029 107.01 10.8546C107.211 11.0806 108.291 11.5578 109.396 11.9345C109.949 12.1103 110.753 12.5121 111.18 12.8135C112.033 13.4414 113.138 13.5669 113.44 13.0898C113.741 12.6126 113.817 4.90238 113.54 4.72658C113.39 4.65124 113.289 4.32475 113.289 3.99826C113.289 3.3955 112.059 1.91374 111.029 1.28588C109.472 0.356633 107.211 -0.221004 106.182 0.0803728Z" fill="#253B2D"/>
<path d="M121.929 1.56214C120.547 1.78817 119.769 2.34069 118.588 3.92291C117.207 5.73117 116.077 8.94584 115.876 11.5578C115.7 13.8683 115.876 14.245 116.981 14.3455C117.358 14.3706 118.212 14.5213 118.839 14.672C120.12 14.9482 120.522 14.8729 123.435 13.793C127.127 12.4368 128.609 11.0555 128.483 9.07141C128.458 8.69469 128.433 7.91614 128.408 7.36362C128.383 6.73575 128.157 6.15812 127.856 5.85674C127.579 5.58048 127.353 5.25399 127.353 5.1033C127.353 4.97773 127.127 4.72658 126.851 4.55078C126.575 4.37498 126.349 4.02337 126.349 3.77223C126.349 3.19459 125.018 2.06443 123.862 1.6626C123.36 1.48679 122.958 1.36122 122.958 1.36122C122.958 1.38634 122.481 1.48679 121.929 1.56214Z" fill="#253B2D"/>
<path d="M200.01 5.88187C199.407 5.98233 198.578 6.23348 198.126 6.43439C197.674 6.63531 197.097 6.86134 196.871 6.93669C196.444 7.08737 195.163 8.89563 195.163 9.37281C195.163 9.49838 195.464 10.2267 195.816 10.9801C196.469 12.3866 197.725 13.5921 199.206 14.2199C200.437 14.7473 203.878 18.2383 204.079 19.1675C204.179 19.5693 204.38 19.9963 204.531 20.0968C204.983 20.373 206.54 20.1721 206.967 19.7954C207.293 19.494 207.394 19.5442 207.695 20.1721C207.971 20.8251 208.147 20.9255 208.926 20.9255C209.453 20.9004 210.307 20.7246 210.859 20.5237C211.412 20.2977 212.542 19.9461 213.371 19.6949C215.857 18.9666 216.912 18.4894 218.896 17.2588C220.554 16.204 220.956 15.7268 221.408 14.245C221.759 13.0647 221.759 12.9893 221.131 12.1103C219.449 9.64907 217.967 9.07143 214.602 9.54861C212.768 9.79976 211.487 11.2564 209.353 15.5008C208.423 17.4095 207.62 18.9164 207.595 18.8661C207.444 18.6652 207.996 15.2999 208.222 15.0236C208.373 14.8478 208.398 14.6218 208.298 14.5715C208.172 14.4962 208.172 13.3409 208.298 12.035C208.524 9.74953 208.499 9.57372 207.896 8.29288C207.569 7.56455 207.017 6.83623 206.69 6.66043C204.706 5.65584 202.471 5.37958 200.01 5.88187Z" fill="#253B2D"/>
<path d="M100.355 12.6879C98.4966 13.793 97.4167 17.3341 98.2204 19.7954C98.6975 21.3274 98.8231 21.5032 99.8779 22.2315C101.51 23.3365 104.298 23.6379 105.026 22.784C105.177 22.5831 105.504 22.4324 105.73 22.4324C106.182 22.4324 110.426 18.4643 111.129 17.3592C111.38 16.9825 111.807 16.656 112.109 16.6058C113.214 16.4551 112.711 14.9231 111.355 14.1697C111.054 14.019 110.326 13.8934 109.748 13.8934C109.17 13.8934 107.965 13.6172 107.036 13.2907C105.052 12.5875 101.134 12.2107 100.355 12.6879Z" fill="#253B2D"/>
<path d="M189.587 12.8135C188.256 13.2153 187.277 14.2701 186.599 16.0533C186.172 17.1332 186.172 17.2839 186.624 18.9415C186.875 19.8958 187.252 20.9506 187.478 21.3022C188.03 22.131 189.713 23.1858 190.517 23.1858C190.893 23.1858 191.421 23.3114 191.697 23.4621C193.154 24.2406 200.311 23.3868 202.747 22.1561C202.999 22.0306 203.4 21.9301 203.677 21.9301C203.928 21.9301 204.279 21.7543 204.455 21.5534C204.681 21.2771 204.606 21.026 204.079 20.3479C203.702 19.8958 203.099 19.3182 202.747 19.0419C202.371 18.7908 201.492 17.8866 200.814 17.0579C199.96 16.0533 199.03 15.2496 198.076 14.7473C197.272 14.3204 196.343 13.6172 196.017 13.1902C195.414 12.4368 195.389 12.4368 193.103 12.4619C191.823 12.4619 190.24 12.6126 189.587 12.8135Z" fill="#253B2D"/>
<path d="M119.442 15.5761C117.734 15.7519 116.68 17.3341 117.684 18.1629C117.885 18.3387 118.061 18.7405 118.061 19.067C118.061 20.2223 119.091 22.3319 120.371 23.7886C122.029 25.6722 123.335 26.2749 125.821 26.3C127.429 26.3 127.705 26.2498 128.107 25.7475C128.358 25.4462 128.81 25.195 129.111 25.195C129.438 25.195 130.066 24.7681 130.643 24.1402C131.799 22.8845 131.949 21.6538 131.121 20.599C130.844 20.2474 130.618 19.8456 130.618 19.72C130.618 19.3935 129.111 18.2634 128.182 17.8866C127.805 17.7108 126.751 17.2337 125.846 16.8318C123.461 15.7268 121.527 15.3501 119.442 15.5761Z" fill="#253B2D"/>
<path d="M143.301 15.777C143.176 15.8021 142.573 15.9779 141.97 16.1537C140.639 16.5807 139.71 17.761 139.157 19.7702C138.554 21.9301 138.856 22.9095 140.413 24.0397C143.025 25.8982 145.16 26.6265 145.888 25.8982C146.114 25.6721 146.466 25.8479 147.37 26.6767C148.048 27.2544 149.329 28.3092 150.283 29.0124C151.212 29.7156 151.966 30.2932 151.966 30.3183C151.966 30.3686 150.333 30.243 145.059 29.8663C142.573 29.6654 140.137 29.5649 139.659 29.59C139.182 29.6403 137.776 29.7407 136.52 29.7909C133.858 29.9416 129.413 30.5193 124.34 31.3481C122.33 31.6745 120.145 32.001 119.442 32.1015C118.212 32.2522 115.349 32.9303 112.912 33.6335C112.234 33.8093 111.079 34.0855 110.376 34.2111C109.698 34.3367 108.517 34.6883 107.789 34.9897C107.036 35.2659 105.403 35.7682 104.147 36.0947C102.892 36.4212 101.586 36.823 101.234 36.9737C100.456 37.3002 97.5925 38.0285 96.5879 38.1541C94.7043 38.355 93.549 38.556 93.323 38.7066C93.1974 38.8071 92.7956 38.9076 92.444 38.9327C92.0924 38.9829 91.364 39.0582 90.8115 39.1085C88.2749 39.3596 83.2771 39.4601 82.8753 39.2592C82.6493 39.1336 81.8456 38.9829 81.0922 38.9327C80.3638 38.8824 79.535 38.7318 79.2588 38.6313C78.9825 38.5308 78.6058 38.4053 78.4551 38.355C78.2542 38.3048 78.1286 37.8527 78.1286 37.3253C78.1286 36.7979 77.9026 35.9691 77.6515 35.492C77.3752 35.0148 76.9734 34.186 76.7473 33.6837C76.5213 33.1563 76.1446 32.6791 75.9185 32.6038C75.6674 32.5284 75.0395 32.0764 74.487 31.5992C72.9048 30.2179 71.0212 30.3937 68.9116 32.1266C68.3088 32.6289 67.8316 33.2316 67.8316 33.4828C67.8316 33.7339 67.7312 34.0102 67.6056 34.0855C67.3042 34.2865 67.4298 36.371 67.8316 37.7021C68.2586 39.0834 71.0714 41.9967 72.0509 42.0469C72.2769 42.072 72.955 42.1222 73.5578 42.1725C74.261 42.2227 74.8386 42.1222 75.2404 41.8711C75.6674 41.5948 76.0943 41.5195 76.672 41.6451C77.0989 41.7455 77.9277 41.846 78.4802 41.8962C79.0579 41.9213 80.188 42.1222 81.0168 42.3734C81.8205 42.5994 83.3525 42.7752 84.4073 42.7752C86.5923 42.7501 93.8002 42.1222 94.6541 41.8711C94.9554 41.7957 95.2066 41.8208 95.2066 41.9715C95.2066 42.1976 94.4531 42.5743 93.2979 42.9008C92.9965 42.9761 92.5947 43.378 92.3686 43.8049C92.1677 44.2319 91.9668 44.5332 91.9166 44.5081C91.7156 44.3825 91.0376 44.91 90.3846 45.7387C90.0079 46.1908 88.8777 47.1954 87.8731 47.9488C86.8685 48.7023 84.1813 51.1133 81.8958 53.2982C79.6104 55.4832 77.325 57.6431 76.8227 58.0951C76.2953 58.5221 75.9437 58.9993 76.019 59.1248C76.0943 59.2504 75.9185 59.3509 75.6423 59.3509C75.3409 59.3509 75.1149 59.4513 75.1149 59.5769C75.1149 59.7025 74.4368 60.2299 73.608 60.7573C72.7792 61.3098 72.1011 61.8121 72.1011 61.9126C72.1011 62.0381 71.9504 62.1135 71.7746 62.1135C71.5988 62.1135 70.8956 62.7413 70.2175 63.5199C68.8613 65.0268 62.5576 71.431 60.8749 72.9881C60.3224 73.5155 59.6694 74.3192 59.4182 74.7713C59.1671 75.2233 58.715 75.7005 58.4136 75.826C58.1123 75.9516 57.3086 76.6799 56.6556 77.4334C55.425 78.8398 53.1396 80.6732 52.587 80.6983C52.4112 80.6983 51.909 81.1001 51.482 81.5773C51.0299 82.0545 50.5528 82.4563 50.4272 82.4563C50.2765 82.4563 49.7742 82.8833 49.2719 83.4107C48.2924 84.4404 45.7308 86.2235 45.2536 86.2235C44.902 86.2235 40.6576 88.308 39.8539 88.8857C39.5777 89.0866 39.1507 89.2373 38.9498 89.2373C38.7238 89.2373 38.0457 89.4633 37.468 89.7647C36.0616 90.4428 35.3584 90.2419 34.6803 89.0112C34.3789 88.4838 33.7762 87.856 33.3241 87.6299C32.8972 87.4039 32.2191 87.0272 31.7921 86.8011C31.3903 86.5751 30.3857 86.324 29.6072 86.2737C28.3263 86.1733 28.0752 86.2486 27.0455 86.9769C26.292 87.5295 25.7897 88.1071 25.6139 88.7099C25.2372 89.8149 25.3126 91.7236 25.7395 92.251C25.9153 92.4519 26.2167 93.0045 26.3925 93.4565C26.719 94.3104 28.2761 95.7671 28.8286 95.7671C29.0044 95.7671 29.1551 95.8424 29.1551 95.968C29.1551 96.3698 31.0638 96.7465 31.9931 96.5205C33.3241 96.2442 34.1027 95.6666 34.6552 94.5616C35.1575 93.5821 35.7602 93.1552 37.0662 92.8789C38.1713 92.6277 40.8585 91.5729 42.5412 90.719C43.3449 90.3172 44.0983 89.9907 44.1988 89.9907C44.5504 89.9907 49.3221 87.2532 49.9249 86.6756C50.2765 86.3742 50.5276 86.2235 50.4774 86.3993C50.4021 86.6254 47.5892 92.2761 46.9363 93.5068C46.0824 95.1643 44.8769 97.726 44.1988 99.4087C43.7718 100.514 43.2444 101.769 43.0686 102.196C41.9133 104.884 40.0046 111.614 39.7786 113.85C39.653 114.955 38.9749 117.667 38.7238 117.994C38.4726 118.32 37.7694 120.756 37.5685 122.012C37.3927 122.991 37.1416 123.544 36.1872 125.026C35.9109 125.427 35.5844 126.03 35.4589 126.306C35.3333 126.608 35.1324 126.884 35.0068 126.934C34.3538 127.236 32.2944 130.651 29.582 135.95C28.5021 138.085 27.4975 139.969 27.372 140.12C27.2464 140.27 26.8697 140.346 26.5432 140.295C25.7897 140.145 23.7052 140.848 22.7258 141.601C21.2189 142.757 21.1435 145.444 22.5499 147.202C23.2532 148.056 23.4038 148.131 24.4838 148.056C25.3628 147.98 25.6642 148.056 25.7897 148.357C26.0158 148.935 26.3925 148.834 27.3217 148.056C28.7281 146.85 29.2556 144.866 28.6026 143.083C28.3012 142.229 28.3263 142.179 29.356 140.446C30.1346 139.14 30.5866 138.487 32.2191 136.403C32.8721 135.574 33.5502 134.544 33.726 134.167C33.9018 133.766 34.178 133.439 34.3538 133.439C34.5296 133.439 34.7808 133.238 34.9063 132.987C35.1324 132.61 35.1575 132.61 35.1826 133.113C35.1826 133.414 34.9817 133.766 34.7557 133.916C34.3538 134.117 34.3538 134.268 34.6301 135.021C34.9315 135.875 34.8561 138.462 34.5296 139.014C34.2534 139.441 33.9771 153.832 34.2283 154.636C34.3538 155.063 34.4543 155.917 34.4543 156.544C34.4543 157.172 34.605 158.378 34.7808 159.232C34.9817 160.086 35.0822 160.839 35.0319 160.889C34.6552 161.241 36.0114 171.739 36.4635 171.99C36.5639 172.065 36.589 172.316 36.5137 172.517C36.3881 172.844 36.9155 174.351 37.6941 175.908C37.8196 176.134 37.9954 176.762 38.0708 177.289C38.1713 177.842 38.5731 179.223 38.9749 180.403C39.9293 183.191 40.6827 186.13 40.7078 186.983C40.7078 187.36 40.8585 187.812 41.0594 188.013C41.3106 188.239 41.411 189.043 41.4362 190.575C41.4613 191.78 41.5868 193.212 41.7124 193.739C41.9887 194.769 42.491 201.65 42.5663 205.895C42.5914 207.276 42.6919 208.682 42.7923 209.034C43.0435 210.014 43.2444 215.062 43.0435 215.062C42.9179 215.062 42.4659 215.413 42.0138 215.84C41.0594 216.719 40.8083 217.849 41.3357 218.929C41.5366 219.331 41.7124 219.909 41.7124 220.235C41.7124 220.562 41.838 220.888 41.9887 220.964C42.1394 221.064 42.1896 221.29 42.1394 221.441C41.9887 221.817 42.1142 222.018 43.0184 222.822C43.5207 223.249 44.0983 223.45 45.0527 223.525C46.2833 223.601 46.5093 223.55 47.4385 222.797C48.7696 221.717 49.3221 220.562 49.3221 218.804C49.3221 217.096 48.6943 216.066 47.2125 215.313C46.6851 215.036 46.233 214.66 46.233 214.484C46.233 213.781 45.7056 208.858 45.5801 208.281C45.5047 207.929 45.3792 206.397 45.3289 204.865C45.2285 202.379 45.2787 202.052 45.7056 201.65C46.1326 201.274 46.1828 201.249 46.3335 201.625C46.4088 201.851 46.434 202.153 46.3586 202.253C46.2833 202.379 46.4591 202.605 46.7353 202.755C47.1121 202.956 47.2125 203.182 47.1121 203.534C47.0116 203.835 47.0869 204.061 47.313 204.162C47.539 204.237 47.8404 204.639 47.9911 205.041C48.1669 205.443 48.3929 205.694 48.5185 205.618C48.6441 205.543 48.7445 205.644 48.7445 205.845C48.7445 206.071 49.2468 206.849 49.8747 207.603C50.5025 208.381 51.0048 209.084 51.0048 209.21C51.0048 209.31 51.2309 209.561 51.5322 209.737C51.8336 209.913 51.9843 210.139 51.909 210.214C51.8336 210.29 52.2103 210.893 52.7126 211.52C53.24 212.148 53.9432 213.078 54.2697 213.555C55.0483 214.71 57.5597 218.126 57.9114 218.477C58.0369 218.628 58.6648 219.457 59.2927 220.336C60.8749 222.571 63.085 225.158 65.2951 227.418C66.3499 228.473 67.7814 229.955 68.4846 230.683C69.1878 231.436 70.4184 232.592 71.197 233.27C72.0007 233.948 73.0555 234.902 73.5829 235.354C75.6172 237.288 80.0122 240.653 84.3319 243.617C85.8891 244.697 87.421 246.229 87.421 246.706C87.421 246.907 87.6973 247.51 88.0489 248.012C88.4005 248.514 88.6768 249.092 88.6768 249.268C88.7019 249.845 89.7818 251.829 90.5101 252.608C91.4645 253.638 91.9417 254.14 93.2728 255.672C94.6792 257.279 98.1701 260.544 99.9281 261.875L101.209 262.88L101.058 264.06C100.983 264.713 101.008 265.467 101.109 265.718C101.209 265.969 101.36 266.371 101.41 266.622C101.561 267.4 103.469 269.736 104.524 270.439C105.453 271.042 105.679 271.092 107.086 270.942C109.421 270.69 110.049 270.138 110.577 267.978C111.004 266.27 111.004 266.17 110.527 265.115C110.074 264.085 109.07 263.005 107.915 262.352C107.613 262.177 106.659 262.026 105.755 262.026H104.122L102.163 260.067C101.083 259.012 100.079 257.957 99.903 257.756C98.6724 256.325 97.718 255.019 97.718 254.768C97.718 254.617 97.6176 254.492 97.4669 254.492C97.3413 254.492 97.2158 254.341 97.2158 254.165C97.2158 253.989 96.8641 253.286 96.4372 252.633C95.8847 251.729 95.7591 251.327 95.96 251.126C96.1609 250.925 96.2865 250.925 96.4121 251.151C96.5125 251.327 97.4418 251.804 98.4715 252.256C99.5012 252.683 100.556 253.186 100.857 253.361C101.134 253.537 101.937 253.889 102.615 254.14C103.319 254.391 104.248 254.868 104.725 255.17C105.202 255.496 105.73 255.747 105.905 255.747C106.081 255.747 107.111 256.124 108.191 256.576C109.271 257.053 110.501 257.505 110.903 257.606C111.33 257.706 111.832 257.932 112.033 258.133C112.234 258.309 112.862 258.535 113.415 258.635C113.967 258.736 114.469 258.887 114.545 258.987C114.721 259.288 117.935 260.519 118.488 260.519C118.764 260.519 119.065 260.62 119.191 260.745C119.618 261.122 123.988 262.528 127.931 263.558C130.041 264.11 132.175 264.663 132.728 264.814C133.858 265.09 134.586 265.216 137.022 265.442C138.002 265.517 139.057 265.768 139.408 265.994C141.041 267.024 147.696 270.063 148.324 270.063C148.525 270.063 149.178 270.289 149.756 270.54C150.358 270.816 152.242 271.544 153.975 272.172C159.776 274.257 161.886 275.086 163.97 276.14C165.754 277.019 166.105 277.296 166.507 278.2C167.411 280.209 169.094 281.289 170.777 280.987C171.982 280.761 173.866 279.029 174.242 277.798C174.845 275.839 174.117 273.152 172.761 272.323C171.078 271.293 168.968 271.444 167.612 272.649C167.11 273.076 166.833 273.127 165.251 272.976C163.317 272.775 161.811 272.273 158.37 270.69C156.536 269.837 154.176 268.807 154.05 268.807C153.975 268.807 153.573 268.631 153.146 268.43C152.694 268.229 151.564 267.727 150.584 267.325C149.63 266.898 149.052 266.547 149.329 266.521C149.605 266.521 152.041 266.521 154.728 266.521C162.438 266.572 168.692 266.17 171.932 265.416C173.439 265.065 174.971 264.789 175.322 264.789C175.674 264.789 176.302 264.613 176.704 264.387C177.13 264.161 178.06 263.884 178.788 263.784C180.194 263.533 180.395 263.457 185.368 261.097C187.101 260.268 189.135 259.389 189.889 259.138C190.642 258.887 191.396 258.61 191.521 258.51C191.923 258.259 193.656 257.782 195.163 257.53C195.916 257.43 199.834 257.355 203.878 257.43C207.896 257.48 211.839 257.405 212.643 257.279L214.124 257.053L215.054 258.133C217.666 261.097 223.04 260.368 224.572 256.852C224.848 256.25 225.175 255.697 225.3 255.622C225.652 255.421 225.627 252.809 225.275 252.583C225.125 252.508 224.873 252.106 224.698 251.704C224.547 251.327 223.919 250.498 223.341 249.87C222.362 248.841 222.186 248.74 220.629 248.59C216.535 248.138 213.949 249.971 213.346 253.713C213.17 254.868 212.869 255.019 211.06 255.019C209.654 255.019 204.003 253.889 203.626 253.512C203.4 253.286 205.133 251.98 205.711 251.98C205.837 251.98 205.962 251.88 205.962 251.754C205.962 251.628 206.213 251.478 206.54 251.402C206.841 251.302 208.222 250.523 209.604 249.644C210.985 248.765 212.844 247.66 213.748 247.208C215.581 246.229 217.64 244.848 218.394 244.069C218.67 243.793 219.398 243.24 220.026 242.889C220.654 242.512 221.659 241.733 222.287 241.181C222.914 240.603 223.844 239.774 224.396 239.347C228.641 235.856 233.613 231.034 235.974 228.096C237.406 226.313 240.118 223.349 241.349 222.244C242.378 221.34 247.225 215.664 248.155 214.333C250.289 211.194 251.445 209.838 252.223 209.436C252.675 209.21 253.73 208.582 254.559 208.029C256.719 206.623 258.929 205.618 262.068 204.589C264.63 203.76 264.856 203.735 265.459 204.086C267.116 205.066 270.155 204.664 271.536 203.308C273.42 201.399 273.621 198.511 271.988 196.477C271.335 195.673 271.009 195.472 269.979 195.347C269.301 195.246 268.673 195.07 268.598 194.92C268.272 194.417 265.735 195.372 264.052 196.653C263.023 197.431 262.42 198.963 262.621 200.219C262.746 201.048 262.696 201.249 262.269 201.475C261.993 201.625 261.491 201.751 261.139 201.751C260.486 201.751 257.347 202.63 256.643 203.032C256.392 203.157 255.965 203.383 255.689 203.559C254.986 204.011 254.76 203.609 255.262 202.781C255.915 201.675 256.543 200.395 258.075 197.105C258.854 195.447 259.833 193.438 260.235 192.659C260.637 191.856 261.189 190.625 261.44 189.897C261.691 189.168 262.144 187.938 262.445 187.184C262.746 186.431 263.223 185.125 263.5 184.296C263.776 183.467 264.278 182.111 264.605 181.282C265.484 178.997 267.242 173.422 267.242 172.944C267.242 172.693 267.619 171.262 268.096 169.73C269.151 166.339 269.678 163.878 270.004 160.94C270.331 158.051 270.934 155.439 271.587 154.159C272.039 153.28 272.717 150.743 272.867 149.462C272.893 149.211 272.993 148.935 273.094 148.859C273.194 148.759 273.269 148.458 273.269 148.181C273.269 147.88 273.495 146.926 273.746 146.021C274.877 142.204 275.505 137.734 275.63 132.686C275.756 127.286 275.881 126.859 277.137 126.608C279.171 126.181 280.151 124.9 280.452 122.389C280.603 121.032 280.553 120.857 279.799 119.676C278.594 117.843 277.89 117.516 275.705 117.742C273.395 117.968 272.541 118.32 271.662 119.475C271.135 120.178 270.934 120.781 270.833 121.886C270.708 123.293 270.733 123.443 271.612 124.649L272.541 125.93V129.747C272.541 134.645 271.562 142.179 271.009 141.551C270.657 141.149 269.402 134.519 269.1 131.43C268.975 129.898 268.899 129.396 268.397 126.784C268.02 124.825 267.719 123.569 266.714 120.279C266.589 119.877 266.488 119.274 266.488 118.948C266.488 118.621 266.262 117.642 266.011 116.788C265.735 115.934 265.358 114.603 265.157 113.85C264.655 112.041 264.329 110.961 263.876 109.58C263.676 108.952 263.098 107.094 262.596 105.436C262.068 103.779 261.114 100.966 260.436 99.2078C259.758 97.4246 259.205 95.8424 259.205 95.6917C259.205 95.541 258.803 94.5616 258.301 93.5068C257.799 92.4771 256.844 90.493 256.166 89.1117C255.513 87.7304 254.609 85.8719 254.207 84.9678C253.78 84.0637 252.424 81.8536 251.168 80.0704C248.104 75.7005 247.15 74.2187 247.15 73.842C247.15 73.6913 246.924 73.189 246.648 72.7872C246.372 72.3602 246.146 71.8328 246.146 71.6068C246.146 71.3808 246.07 71.1547 245.97 71.1045C245.844 71.0543 245.317 70.3762 244.764 69.5474C244.212 68.7437 243.584 67.9652 243.383 67.7894C243.182 67.6387 242.805 67.1113 242.554 66.6341C242.303 66.1569 241.826 65.303 241.499 64.7505C241.148 64.198 240.871 63.4194 240.871 63.0176C240.871 62.5655 240.545 61.8875 239.992 61.2094C239.515 60.6317 239.113 60.0541 239.113 59.9536C239.113 59.8532 238.611 59.0244 237.983 58.0951C236.451 55.7595 236.351 55.2321 237.305 54.7298C238.511 54.1019 238.913 52.9466 238.737 50.3849C238.561 47.3461 238.46 47.0447 237.28 46.0401L236.275 45.1611H233.538H230.775L230.173 45.9145C228.816 47.5972 228.54 48.4511 228.816 50.1338C228.942 50.9877 229.268 51.9672 229.52 52.3188C230.198 53.2229 232.332 54.78 233.136 54.9809C233.638 55.0814 233.99 55.433 234.367 56.1613C235.12 57.7184 236.602 61.4856 236.602 61.8875C236.602 62.0884 236.878 62.7916 237.23 63.4948C237.556 64.1729 237.858 64.851 237.858 64.9514C237.858 65.077 238.134 65.7802 238.486 66.5588C238.837 67.3122 239.088 68.0154 239.013 68.0656C238.737 68.367 236.501 66.4583 233.99 63.7962C232.483 62.1888 230.976 60.8326 230.65 60.7322C230.323 60.6568 229.921 60.3052 229.771 59.9787C229.62 59.6271 229.369 59.3509 229.218 59.3509C228.816 59.3509 227.058 57.7686 227.058 57.417C227.058 57.2412 226.757 57.0152 226.38 56.9399C225.602 56.7389 224.798 56.1111 224.798 55.6841C224.798 55.5334 224.572 55.3325 224.296 55.2572C224.02 55.1818 223.793 54.9307 223.793 54.7047C223.793 54.4786 223.668 54.3782 223.517 54.4786C223.367 54.554 222.94 54.3279 222.563 53.9763C222.211 53.5996 221.483 52.9718 220.981 52.5448C220.453 52.1179 220.026 51.6156 220.026 51.4649C220.026 51.1635 219.298 50.7114 218.645 50.5859C218.519 50.5607 218.218 50.3849 218.017 50.184C217.339 49.5813 215.003 48.0744 214.476 47.9237C214.2 47.8233 213.622 47.3963 213.17 46.9442C212.165 45.9648 209.453 44.2821 208.825 44.2821C208.549 44.2821 208.072 44.1314 207.72 43.9556C207.369 43.7547 206.69 43.5286 206.213 43.4533C205.736 43.3528 204.556 42.6496 203.551 41.8962C202.572 41.1428 201.642 40.5149 201.467 40.5149C201.316 40.5149 200.763 40.0879 200.236 39.5605C199.709 39.0582 198.955 38.4555 198.553 38.2546C196.871 37.4258 194.46 35.7431 193.254 34.5125C192.526 33.8093 191.848 33.2316 191.722 33.2316C191.597 33.2316 190.969 32.7545 190.366 32.1517C189.738 31.5741 188.834 30.7453 188.307 30.2932C187.428 29.5147 187.402 29.4393 187.603 28.3594C187.93 26.6014 186.523 23.1858 185.318 22.784C184.991 22.6835 184.866 22.4826 184.941 22.1812C185.092 21.5785 184.489 21.0511 183.334 20.7245C182.405 20.4734 181.827 20.6743 179.617 22.0556C178.688 22.6333 177.331 25.2452 177.331 26.4758C177.331 27.9073 178.537 29.5649 180.672 30.9964C181.927 31.8503 183.208 31.9257 184.112 31.2225C184.464 30.9462 184.841 30.7202 184.966 30.7202C185.067 30.7202 185.921 31.4485 186.85 32.3275C188.457 33.9097 193.129 37.5011 193.555 37.5011C193.807 37.5262 195.163 38.6564 195.163 38.8573C195.163 39.0331 193.48 38.4304 192.526 37.903C190.592 36.8733 184.364 34.7636 181.601 34.186C180.973 34.0604 179.994 33.8595 179.391 33.7339C178.813 33.5833 178.01 33.4828 177.633 33.4828C177.256 33.4828 175.875 33.2568 174.569 32.9554C171.203 32.2271 167.738 31.7248 163.644 31.4485C161.308 31.2727 159.927 31.0718 159.55 30.8206C159.224 30.5946 158.495 30.2932 157.918 30.1174C157.34 29.9416 155.884 29.1631 154.678 28.3845C153.473 27.5809 152.367 26.953 152.217 26.953C152.091 26.953 151.966 26.8525 151.966 26.7018C151.966 26.5763 151.689 26.4005 151.338 26.3C150.986 26.2247 150.484 25.8228 150.182 25.421C149.906 25.0192 149.53 24.6927 149.354 24.6927C149.178 24.6927 148.826 24.4918 148.6 24.2155C148.198 23.7885 148.224 23.6881 148.826 22.5328C149.504 21.2771 149.58 20.7748 149.354 19.0419C149.228 18.0373 148.299 16.9071 147.596 16.9071C147.395 16.9071 147.119 16.7313 146.943 16.5304C146.767 16.3295 146.365 16.1537 146.039 16.1537C145.737 16.1537 145.386 16.0281 145.31 15.9026C145.16 15.6765 143.904 15.576 143.301 15.777ZM196.293 39.5103C196.368 39.661 196.268 39.6861 196.067 39.6108C195.615 39.435 195.54 39.2592 195.891 39.2592C196.042 39.2592 196.218 39.3596 196.293 39.5103ZM265.007 147.378C265.007 147.93 264.931 149.563 264.831 151.019C264.73 152.476 264.655 153.732 264.68 153.832C264.705 153.958 264.605 154.033 264.454 154.033C264.253 154.033 264.203 153.581 264.329 152.501C264.404 151.647 264.504 149.236 264.504 147.152C264.529 143.836 264.58 143.56 264.781 144.866C264.906 145.695 265.007 146.825 265.007 147.378Z" fill="url(#paint0_linear_415_512)"/>
<path d="M112.988 17.8615C112.586 18.0876 112.285 18.414 112.285 18.5898C112.285 18.7656 111.908 19.3433 111.431 19.8456C110.1 21.3525 107.036 25.5968 106.759 26.3503C106.408 27.2544 106.684 28.5855 107.412 29.2887C107.714 29.6152 108.568 30.1928 109.296 30.5695C110.501 31.2476 110.702 31.2727 112.636 31.122C113.741 31.0216 115.097 30.9462 115.6 30.9211C116.855 30.9211 118.036 29.6403 118.111 28.259C118.212 25.6722 118.161 24.9438 117.659 23.5374C117.358 22.6835 117.056 21.5534 116.956 21.026C116.705 19.7451 116.253 19.067 114.997 18.1629C113.791 17.2839 113.867 17.309 112.988 17.8615Z" fill="#253B2D"/>
<path d="M204.279 22.2566C203.827 22.558 202.923 23.1356 202.27 23.5374C200.387 24.6927 198.779 26.0991 197.75 27.5056C196.871 28.7362 196.795 28.912 196.795 30.6951C196.795 31.7499 196.921 32.9303 197.097 33.3573C197.247 33.7591 197.448 34.4121 197.524 34.7637C197.624 35.266 197.925 35.492 198.729 35.7432C199.332 35.9441 199.935 36.1701 200.06 36.2706C200.311 36.4464 202.145 36.0445 203.451 35.5422C204.38 35.1906 205.761 33.5582 206.59 31.8504L207.318 30.4189L207.042 26.3754C206.841 22.9347 206.741 22.3068 206.339 22.0306C205.711 21.5534 205.234 21.6287 204.279 22.2566Z" fill="#253B2D"/>
<path d="M209.955 22.4073C208.122 22.6082 207.67 22.9849 207.871 24.1653C207.946 24.6676 208.172 25.195 208.373 25.3457C208.549 25.4964 208.875 26.4507 209.101 27.4804C210.006 31.5992 211.563 34.0354 213.572 34.387C215.355 34.6883 215.857 34.6632 216.636 34.186C217.063 33.9349 217.565 33.734 217.766 33.734C218.695 33.734 220.529 30.8207 220.529 29.3891C220.529 28.033 220.026 25.6973 219.574 24.969C219.022 24.0397 217.766 23.01 216.661 22.558C215.757 22.1812 212.768 22.1059 209.955 22.4073Z" fill="#253B2D"/>
<path d="M87.2452 25.195C85.5877 25.622 84.8342 26.1494 84.2566 27.2795C83.6539 28.4348 83.3776 30.4942 83.6287 31.8504C83.8297 32.9303 84.0808 33.307 85.3868 34.5377C86.6927 35.7683 87.0694 35.9943 87.8731 35.9943C88.3754 35.9943 89.2042 36.0948 89.6814 36.2455C90.259 36.4213 90.7864 36.3961 91.3138 36.2203C91.791 36.0445 92.6951 36.0194 93.8253 36.1701C96.2865 36.4464 96.8642 36.3459 97.492 35.4669C97.9943 34.7637 97.9943 34.6632 97.6427 33.9098C97.2158 33.0559 96.6381 32.2522 95.8345 31.3732C95.0559 30.5695 92.1928 26.6517 92.1928 26.4256C92.1928 26.3252 91.7659 26.0991 91.2636 25.9233C90.7362 25.7475 89.9827 25.4462 89.5558 25.2201C88.8777 24.8434 88.6768 24.8434 87.2452 25.195Z" fill="#253B2D"/>
<path d="M35.8356 42.0218C34.9566 42.298 33.726 43.4282 33.3744 44.2821C32.6209 46.1657 32.5205 47.1703 32.9223 48.3507C33.525 50.0836 34.4292 51.2389 35.6849 51.8667C36.3128 52.1932 36.9909 52.5699 37.1918 52.7206C37.3927 52.8964 37.9703 53.0722 38.4475 53.1225C38.9247 53.1978 40.2809 53.4489 41.411 53.7001C43.4202 54.1019 43.5709 54.1019 44.475 53.7001C45.0024 53.4489 45.555 53.3485 45.6805 53.4238C46.1828 53.7252 47.1874 53.022 47.3381 52.2937C47.5139 51.4147 46.9111 49.5311 46.0824 48.3004C45.7559 47.8233 45.4796 47.2205 45.4796 46.9694C45.4796 46.241 44.475 44.2068 43.8974 43.7045C42.0138 42.1474 41.4362 41.9213 38.9498 41.8711C37.6438 41.8209 36.2374 41.8962 35.8356 42.0218Z" fill="#253B2D"/>
<path d="M57.2333 42.3985C57.1579 42.4738 56.6557 42.5743 56.1282 42.6245C54.2447 42.8003 52.7127 43.5789 51.7081 44.9099C51.1807 45.6132 50.7537 46.4168 50.7537 46.7182C50.7537 47.0196 50.5528 47.8232 50.3017 48.4762C50.0254 49.1292 49.6989 50.4101 49.5231 51.3142C49.3473 52.2183 49.0962 53.3485 48.9455 53.8508C48.4934 55.433 49.6236 56.5883 51.7081 56.5883C52.2104 56.6134 52.9136 56.7641 53.2652 56.9399C53.8428 57.2663 53.9684 57.2412 55.0232 56.4627C55.852 55.8599 56.5552 55.5586 57.5598 55.4581C59.3429 55.2321 61.8042 54.0768 63.1855 52.7959C63.7882 52.2183 64.2905 51.6909 64.2654 51.6156C64.2403 51.5151 64.3658 50.837 64.5165 50.1087C65.0691 47.6223 64.8681 47.0949 62.3818 44.4077C60.7493 42.6496 60.0964 42.2729 58.7151 42.2729C57.9616 42.2729 57.3086 42.3231 57.2333 42.3985Z" fill="#253B2D"/>
<path d="M261.968 47.5219C260.988 47.7731 259.381 48.6772 258.803 49.3553C257.146 51.1635 256.819 53.9764 258 56.2116C258.653 57.4673 260.963 60.0039 261.39 59.9537C261.491 59.9285 262.018 60.1295 262.52 60.3806C263.048 60.6318 263.575 60.8578 263.726 60.8578C264.052 60.8578 265.785 59.15 266.765 57.8189C268.121 56.0107 269.377 52.9216 268.975 52.2937C268.874 52.1179 268.698 51.4147 268.623 50.7366C268.472 49.732 268.322 49.4809 267.769 49.2297C267.418 49.079 267.066 48.8781 266.991 48.7776C266.915 48.6772 266.413 48.3256 265.886 47.9489C264.906 47.2959 263.5 47.1201 261.968 47.5219Z" fill="#253B2D"/>
<path d="M32.6711 54.328C30.9884 54.5289 29.7076 55.1065 28.7532 56.1111C28.1505 56.739 28.05 57.0404 28.1003 57.9947C28.1756 59.9034 28.6026 61.0336 29.7829 62.3144C31.1643 63.8464 33.7511 65.2277 34.8812 65.0519C36.9657 64.7254 38.121 64.0976 39.9795 62.2893C41.0092 61.3098 42.3905 60.0039 43.0184 59.4262C44.902 57.7185 44.8517 56.2116 42.8677 55.6088C42.4407 55.4833 41.2101 55.3075 40.1553 55.2321C39.1005 55.1568 37.7443 54.9056 37.1415 54.6796C35.8858 54.2024 34.5798 54.1019 32.6711 54.328Z" fill="#253B2D"/>
<path d="M246.748 54.6545C245.719 55.5084 245.367 56.739 245.693 58.271C246.02 59.8281 246.874 60.9332 248.531 62.0131C251.043 63.5953 253.077 63.7962 256.493 62.7917C257.648 62.44 258.929 62.0884 259.381 61.988C260.737 61.7117 261.139 60.6067 260.034 60.1546C259.356 59.8784 256.443 57.5427 256.443 57.2915C256.443 57.166 256.066 56.8897 255.639 56.6888C255.187 56.4879 254.358 56.0358 253.805 55.7093C253.253 55.3577 252.575 55.0815 252.324 55.0815C252.047 55.0815 251.646 54.9308 251.445 54.7299C251.219 54.5289 250.239 54.3029 249.285 54.2024C247.627 54.0266 247.451 54.0518 246.748 54.6545Z" fill="#253B2D"/>
<path d="M273.395 54.9558C271.361 55.3828 270.03 56.1111 268.899 57.392C268.372 57.9947 267.669 58.7733 267.367 59.1249C266.714 59.8532 265.484 61.9377 265.484 62.3395C265.484 62.8669 266.589 63.5953 267.845 63.8966C268.548 64.0473 269.628 64.4492 270.256 64.7757C273.546 66.4583 273.596 66.4835 275.555 66.157C277.79 65.8054 279.121 64.9515 280.176 63.2688C281.13 61.6866 281.206 59.602 280.377 57.8189C279.874 56.7641 279.623 56.5381 277.715 55.6088C275.404 54.4787 275.53 54.5038 273.395 54.9558Z" fill="#253B2D"/>
<path d="M49.4226 58.1454C48.9706 58.4719 48.9706 58.5724 49.3724 59.9286C49.5984 60.7071 49.8747 61.4103 50.0003 61.4857C50.1007 61.5359 50.2765 61.988 50.3519 62.4651C50.4523 62.9423 50.7286 63.5953 50.9797 63.8967C51.2309 64.2232 51.7834 65.4035 52.2355 66.5086C53.2401 69.0452 53.9433 69.7735 55.9524 70.4014C60.0461 71.6571 63.1854 70.4516 64.9686 66.9104C65.6216 65.6045 65.722 65.1273 65.6216 64.1729C65.4458 62.5154 64.4914 60.5062 63.5873 59.8783C62.3567 58.9742 59.7196 58.4217 56.1534 58.2459C54.3702 58.1705 52.2104 58.045 51.3816 57.9445C50.2765 57.844 49.7491 57.8943 49.4226 58.1454Z" fill="#253B2D"/>
<path d="M45.781 58.6225C45.4796 58.7481 45.1531 58.9993 45.0778 59.2002C45.0024 59.4262 44.4499 60.0792 43.8974 60.6819C39.7033 65.0519 37.6941 67.7643 37.6941 69.0702C37.6941 69.9492 38.6736 71.8831 39.3014 72.1844C39.5777 72.3351 40.306 72.9128 40.8837 73.4653C41.8631 74.4448 41.9887 74.4699 43.5207 74.495C46.6851 74.495 48.418 73.0132 48.9706 69.8488C49.2971 67.9401 49.3222 66.5839 49.0459 66.2323C48.845 66.0314 48.5185 64.7505 48.0915 62.6158C47.9911 62.1386 47.8906 61.2345 47.8655 60.6317C47.8404 59.7276 47.6897 59.4011 47.087 58.949C46.5344 58.5221 46.2331 58.4467 45.781 58.6225Z" fill="#253B2D"/>
<path d="M257.698 64.4743C257.07 64.8008 255.89 65.278 255.061 65.504C252.198 66.3328 251.42 66.6844 250.34 67.5634C249.009 68.6684 248.858 68.9447 248.858 70.2255C248.808 72.0589 249.385 73.9174 250.038 74.1685C250.365 74.2941 250.716 74.5453 250.842 74.7462C251.194 75.3992 252.926 76.2531 253.881 76.2531C254.383 76.2279 255.413 76.0521 256.141 75.801C257.899 75.2234 258.929 73.9927 259.682 71.6068C260.009 70.6023 260.461 69.5474 260.712 69.2712C261.415 68.4926 262.47 66.2072 262.47 65.5291C262.47 64.0473 259.682 63.4446 257.698 64.4743Z" fill="#253B2D"/>
<path d="M264.906 64.2985C264.806 64.3738 264.73 64.6752 264.73 64.9515C264.73 65.2277 264.303 66.4081 263.751 67.6136C263.224 68.794 262.646 70.552 262.47 71.4813C262.144 73.2644 262.244 76.3786 262.646 76.6549C262.771 76.7302 263.123 77.1823 263.45 77.6343C263.751 78.0864 264.379 78.6138 264.806 78.8398C265.258 79.0659 265.936 79.5431 266.313 79.9198C266.966 80.5225 267.192 80.5728 269.125 80.5728C271.009 80.5728 271.285 80.4974 271.863 79.97C272.24 79.6184 272.842 78.7143 273.194 77.9608C273.747 76.8307 273.872 76.2279 273.897 74.6708C273.897 72.9379 273.822 72.6616 272.968 71.2552C272.315 70.2004 271.612 69.447 270.657 68.8191C268.799 67.5885 266.991 65.8807 266.991 65.3533C266.991 64.6501 265.383 63.8213 264.906 64.2985Z" fill="#253B2D"/>
<path d="M15.2165 95.6164C13.5589 96.395 12.9561 96.9726 12.4287 98.2535C12.1274 99.032 12.052 99.6599 12.1776 100.74C12.4036 102.699 13.0315 104.758 13.6845 105.813C14.011 106.29 14.5384 107.169 14.9151 107.747C15.4676 108.626 16.8489 111.69 16.8489 112.041C16.8489 112.117 16.422 111.614 15.9197 110.936C15.3923 110.258 14.2119 108.977 13.2826 108.098C12.3534 107.219 11.2483 105.964 10.8214 105.311C10.1182 104.206 9.9675 104.105 8.73688 103.954C6.72771 103.728 4.74365 104.206 3.53815 105.235C2.33265 106.265 1.0518 108.726 1.00157 110.032C0.951345 112.619 2.10662 115.156 3.9651 116.436C4.86923 117.064 5.1706 117.14 7.45604 117.165C10.5954 117.215 13.9607 116.939 14.5886 116.612C14.8397 116.487 15.4425 116.361 15.9448 116.361C16.422 116.361 16.8991 116.236 16.9745 116.11C17.0498 115.959 17.4014 115.859 17.7279 115.859C18.8832 115.859 18.7827 114.578 17.5521 113.649C17.0749 113.297 16.9494 112.594 17.3512 112.594C17.5019 112.594 17.6023 112.694 17.6023 112.82C17.6023 113.172 19.6366 113.398 20.0134 113.071C20.2143 112.895 20.365 112.318 20.365 111.665C20.365 110.936 20.5408 110.334 20.8924 109.856C21.8969 108.475 22.9518 104.432 23.1025 101.167C23.3285 97.1484 22.9015 96.3699 20.2645 95.8927C19.7873 95.7922 19.2599 95.5662 19.0841 95.3653C18.632 94.8128 16.648 94.9383 15.2165 95.6164Z" fill="#253B2D"/>
<path d="M27.9746 101.142C27.0956 101.468 26.5431 102.096 25.5385 103.929C25.1367 104.607 24.6846 105.361 24.5339 105.562C24.3581 105.763 23.9061 107.069 23.5042 108.45C22.7508 111.162 22.3238 112.167 21.5955 112.996C21.1937 113.423 21.1686 113.573 21.4448 113.95C21.9974 114.704 23.9061 114.628 27.1961 113.674C28.8034 113.222 30.4108 112.845 30.7624 112.845C31.7669 112.845 32.4953 112.468 33.7259 111.288C34.7054 110.309 34.9063 109.957 35.1323 108.601C35.4086 107.069 35.4086 107.019 34.404 104.934C33.098 102.196 32.1939 101.468 29.4062 100.966C29.0546 100.916 28.4267 100.991 27.9746 101.142Z" fill="#253B2D"/>
<path d="M272.39 101.317C270.959 101.468 269.502 101.945 269.502 102.272C269.502 102.372 269.251 102.699 268.924 103.05C267.694 104.432 267.468 105.034 267.392 107.119C267.342 108.4 267.443 109.404 267.644 109.806C267.819 110.158 268.02 111.464 268.096 112.72C268.221 114.754 268.297 115.03 268.874 115.532C269.226 115.859 269.703 116.11 269.929 116.11C270.406 116.11 272.993 114.101 273.018 113.699C273.018 113.548 274.098 112.393 275.404 111.112C277.062 109.505 277.79 108.626 277.79 108.224C277.79 107.898 277.966 107.194 278.192 106.667C278.568 105.788 278.568 105.662 278.066 104.683C277.765 104.105 277.539 103.452 277.539 103.226C277.539 102.875 276.208 101.543 275.831 101.543C275.73 101.543 275.253 101.443 274.776 101.343C274.299 101.242 273.219 101.217 272.39 101.317Z" fill="#253B2D"/>
<path d="M31.0387 115.884C29.3811 116.436 25.8902 116.889 23.7303 116.863C19.8627 116.838 19.2599 117.466 21.244 119.551C21.8467 120.204 22.3742 120.857 22.3742 121.007C22.3742 121.133 22.8011 121.535 23.3034 121.886C24.5842 122.765 26.6185 124.875 26.3172 124.975C25.8149 125.126 26.3423 125.829 27.3217 126.307C28.5272 126.909 31.8424 126.909 33.1986 126.332C34.379 125.804 37.1918 123.042 37.1918 122.414C37.1918 122.137 37.0913 121.66 36.9658 121.334C36.8402 121.007 36.6644 120.48 36.589 120.128C36.5137 119.777 35.8356 118.847 35.057 118.069C34.3036 117.315 33.6757 116.562 33.6757 116.411C33.6757 116.16 33.2237 115.959 32.1689 115.733C31.9679 115.683 31.4657 115.758 31.0387 115.884Z" fill="#253B2D"/>
<path d="M16.7234 118.421C15.8192 118.747 15.1411 119.048 14.463 119.45C12.4036 120.681 11.8762 121.058 11.2233 121.736C9.84196 123.217 9.69127 123.619 9.71638 125.628C9.71638 127.135 9.84196 127.763 10.3191 128.617C10.6205 129.22 11.0726 129.772 11.2986 129.848C11.5246 129.923 12.2027 130.224 12.8306 130.526C13.4585 130.802 14.237 131.078 14.5886 131.129C15.995 131.304 17.1001 131.254 17.6526 131.003C17.9791 130.852 18.607 130.576 19.0841 130.4C21.5956 129.446 22.8011 126.985 22.123 124.071C21.7714 122.64 21.1687 121.384 20.6915 121.058C20.5157 120.957 20.365 120.706 20.365 120.555C20.365 120.028 18.4312 118.119 17.9289 118.144C17.6777 118.169 17.1503 118.295 16.7234 118.421Z" fill="#253B2D"/>
<path d="M28.477 149.738C27.6733 150.065 26.6938 150.467 26.2669 150.643C25.0614 151.145 23.1527 151.773 22.7508 151.773C22.2485 151.773 20.4152 153.43 19.9882 154.284C19.8124 154.636 19.6115 155.59 19.5362 156.369C19.4357 157.65 19.511 157.951 20.2645 159.207C20.7417 159.985 21.1184 160.714 21.1184 160.789C21.1184 161.065 22.3992 162.145 23.2531 162.597C23.6801 162.823 24.5591 163.099 25.2372 163.2C26.945 163.426 28.1254 162.873 28.8286 161.492C30.1848 158.805 30.6619 157.524 30.9382 155.791C31.3149 153.33 31.8926 151.296 32.4451 150.492C33.0981 149.563 32.6962 149.136 31.1894 149.136C30.4359 149.136 29.3309 149.387 28.477 149.738Z" fill="#253B2D"/>
<path d="M275.153 161.241C272.817 161.844 270.532 168.424 272.189 169.78C273.294 170.659 274.826 171.136 277.463 171.362C278.945 171.488 280.753 171.739 281.457 171.89C282.185 172.04 283.164 172.116 283.642 172.015C284.521 171.839 284.546 171.814 284.521 170.709C284.521 170.081 284.571 169.529 284.646 169.428C284.872 169.227 285.324 170.508 285.324 171.362C285.324 171.789 285.55 172.317 285.877 172.618C286.48 173.17 286.655 174.075 286.279 174.552C286.103 174.753 286.203 175.104 286.555 175.607C286.856 176.008 287.082 176.561 287.082 176.837C287.082 177.139 287.183 177.415 287.308 177.49C287.409 177.565 287.585 177.967 287.66 178.369C287.986 180.027 290.623 181.684 292.783 181.609C293.436 181.584 294.34 181.659 294.742 181.76C295.395 181.885 295.621 181.81 296.174 181.232C297.078 180.253 298.032 178.294 298.509 176.435C299.288 173.447 298.987 172.643 296.751 171.488C295.546 170.885 295.144 170.81 293.788 170.91C292.934 170.985 291.829 171.211 291.352 171.438C289.016 172.442 288.313 172.693 288.137 172.517C287.911 172.291 289.594 170.885 290.096 170.86C290.799 170.86 292.959 169.604 293.386 168.951C294.064 167.921 294.19 166.465 293.713 165.51C292.909 164.004 292.231 163.275 290.975 162.647C289.594 161.944 288.489 161.844 286.932 162.271C285.199 162.773 284.646 163.376 284.445 165.008C284.32 165.812 284.269 166.766 284.295 167.143C284.395 168.223 283.993 167.972 283.19 166.465C282.763 165.711 282.361 165.084 282.26 165.084C282.135 165.084 282.059 164.933 282.059 164.732C282.059 164.23 279.849 162.346 278.669 161.819C277.489 161.316 275.906 161.04 275.153 161.241Z" fill="#253B2D"/>
<path d="M274.274 172.643C271.536 172.844 269.427 174.075 269.452 175.431C269.477 176.787 270.004 179.198 270.431 179.75C270.682 180.102 271.361 180.629 271.913 180.931C272.943 181.508 272.968 181.508 274.173 181.031C275.555 180.529 276.861 179.625 277.74 178.595C278.041 178.218 279.021 177.415 279.874 176.812C280.728 176.184 281.683 175.406 282.009 175.054C282.587 174.451 282.587 174.401 282.21 173.648C281.984 173.221 281.557 172.819 281.231 172.769C280.276 172.568 276.258 172.492 274.274 172.643Z" fill="#253B2D"/>
<path d="M283.19 174.627C282.637 175.029 281.683 175.883 281.055 176.511C280.427 177.164 279.171 178.445 278.242 179.374L276.584 181.031L276.559 182.513C276.509 186.356 278.518 189.143 280.829 188.415C282.813 187.787 284.32 186.858 284.696 186.079C285.375 184.598 285.601 183.141 285.55 180.705C285.525 179.374 285.525 177.867 285.55 177.39C285.601 176.034 285.349 175.004 284.847 174.401C284.295 173.773 284.42 173.748 283.19 174.627Z" fill="#253B2D"/>
<path d="M22.349 182.915C20.817 183.166 19.285 184.171 18.4311 185.477C17.8032 186.406 17.7279 186.732 17.7279 188.666C17.7279 190.726 17.7781 190.926 18.9334 193.287C19.9631 195.397 20.2645 195.774 21.043 196.1C22.6253 196.778 22.9769 196.627 25.1618 194.392C26.292 193.262 27.3719 191.956 27.5477 191.529C27.7738 191.027 27.8993 189.922 27.8742 188.716C27.8491 187.009 27.7486 186.582 27.2464 185.904C26.9199 185.451 26.6436 184.899 26.6436 184.673C26.6436 184.171 26.066 183.643 24.9609 183.066C24.0819 182.639 24.0568 182.639 22.349 182.915Z" fill="#253B2D"/>
<path d="M32.5455 190.273C31.2898 190.776 28.7281 192.835 27.0957 194.643C26.2418 195.573 25.4632 196.376 25.3376 196.427C24.6093 196.728 25.8902 198.36 27.3468 198.988C31.3149 200.771 33.952 201.299 35.9611 200.746C38.9749 199.918 41.0343 196.376 40.1804 193.513C39.8288 192.308 38.121 190.525 37.0411 190.248C35.9109 189.922 33.3743 189.947 32.5455 190.273Z" fill="#253B2D"/>
<path d="M8.03366 192.609C7.38068 193.312 6.95374 195.096 6.95374 197.155C6.95374 199.641 8.18435 201.073 11.0977 201.977C12.0018 202.253 14.3626 201.977 14.9653 201.5C15.116 201.399 15.6183 201.223 16.0955 201.123C16.5726 201.023 17.8033 200.52 18.8078 200.043C20.6914 199.114 21.3946 198.436 20.7919 198.059C20.6161 197.959 20.2645 197.532 20.0133 197.13C19.7622 196.753 19.1594 196.075 18.6572 195.623C18.18 195.196 17.6275 194.694 17.4517 194.518C17.2758 194.367 16.9745 194.216 16.7736 194.216C16.5726 194.216 15.9448 193.84 15.3671 193.363C14.1616 192.358 12.6296 191.956 10.2689 192.006C8.86245 192.032 8.48573 192.132 8.03366 192.609Z" fill="#253B2D"/>
<path d="M24.2075 200.169C23.3787 200.319 23.4792 200.997 24.6094 203.207C25.1368 204.287 25.7646 205.769 25.9656 206.548C26.6939 209.034 29.1551 211.546 31.2647 211.922C33.1232 212.274 35.9863 211.244 37.4178 209.712C37.9452 209.135 37.9955 208.883 37.8699 207.803C37.5434 205.041 36.0616 203.408 33.4497 202.981C32.5958 202.856 31.6917 202.63 31.4657 202.529C29.3811 201.449 25.3628 199.917 24.8856 200.018C24.8103 200.043 24.5089 200.118 24.2075 200.169Z" fill="#253B2D"/>
<path d="M18.6069 201.525C17.0247 202.605 16.1708 203.434 15.2415 204.89C14.1114 206.648 13.8351 207.577 14.0109 209.109C14.1867 210.817 15.342 213.304 15.9448 213.304C16.0201 213.304 16.648 213.655 17.3512 214.082C18.8832 215.036 21.2942 215.388 21.6709 214.735C21.7965 214.484 22.0476 214.308 22.1983 214.308C22.8513 214.308 24.107 212.852 24.3833 211.772C24.7851 210.34 24.534 207.954 23.881 206.899C23.5294 206.322 23.3536 205.593 23.3285 204.589C23.3033 202.906 23.1275 202.479 22.0476 201.475C20.9928 200.545 20.0384 200.545 18.6069 201.525Z" fill="#253B2D"/>
<path d="M254.358 210.014C253.102 210.29 250.013 213.253 248.531 215.589C247.175 217.724 245.593 219.582 245.141 219.582C244.789 219.582 244.84 220.436 245.191 220.788C245.367 220.964 245.719 221.089 246.02 221.089C246.321 221.089 246.648 221.19 246.798 221.34C246.924 221.466 248.33 221.591 249.913 221.617C251.495 221.617 253.404 221.742 254.107 221.893C256.392 222.32 258.502 221.19 259.632 218.98C260.185 217.925 260.235 217.548 260.084 216.468C259.984 215.765 259.883 214.911 259.833 214.559C259.808 214.208 259.758 213.806 259.733 213.655C259.632 212.801 258.075 211.018 256.895 210.441C255.538 209.762 255.488 209.762 254.358 210.014Z" fill="#253B2D"/>
<path d="M53.5665 221.441C53.2651 222.043 52.9135 223.023 52.7879 223.626C52.6623 224.228 52.1349 225.861 51.6326 227.242C50.5778 230.13 50.6281 229.804 51.0048 231.863C51.2057 233.094 51.4317 233.596 51.9089 233.973C52.2605 234.249 52.813 234.751 53.1144 235.078C54.0185 236.032 55.4249 236.108 57.4341 235.304C59.5437 234.45 60.6739 233.295 61.0255 231.587C61.352 230.08 61.3771 228.448 61.0757 228.247C60.9502 228.171 60.6488 227.569 60.3976 226.916C60.1465 226.263 59.5186 225.308 58.9912 224.806C58.4638 224.279 58.0369 223.651 58.0369 223.4C58.0369 223.123 57.8108 222.722 57.5346 222.47C57.2583 222.219 57.0323 221.893 57.0323 221.717C57.0323 221.064 56.0026 220.336 55.0482 220.336C54.1943 220.336 54.0688 220.436 53.5665 221.441Z" fill="#253B2D"/>
<path d="M242.378 234.099C240.771 235.204 240.721 235.354 240.821 238.117C240.871 239.523 240.846 240.679 240.796 240.679C240.721 240.679 240.394 240.151 240.068 239.473C239.766 238.82 239.214 237.841 238.862 237.288C238.511 236.736 238.109 236.057 237.958 235.781C237.581 235.103 235.974 234.35 234.543 234.199C233.664 234.124 233.086 234.224 232.232 234.651C230.75 235.354 229.972 236.309 229.444 238.092C229.193 238.895 228.917 239.649 228.816 239.749C228.44 240.176 228.917 241.231 229.947 242.286C231.479 243.868 233.488 244.496 237.23 244.496C239.691 244.521 240.193 244.446 240.62 244.069C240.897 243.818 241.123 243.466 241.123 243.265C241.123 242.638 241.876 242.939 242.027 243.617C242.278 244.822 242.328 244.923 243.107 245.3C243.835 245.702 243.86 245.676 246.698 243.843C249.863 241.759 250.189 241.482 251.093 240.076C252.223 238.268 251.847 236.911 249.662 235.254C248.908 234.676 247.878 234.073 247.376 233.923C245.97 233.496 243.107 233.596 242.378 234.099Z" fill="#253B2D"/>
<path d="M250.39 243.466C249.511 243.893 248.381 244.446 247.904 244.722C247.426 244.998 246.648 245.4 246.221 245.601C244.965 246.154 245.141 246.781 246.999 248.489C250.842 252.03 252.525 252.934 254.433 252.508C254.961 252.382 255.639 252.106 255.965 251.88C256.292 251.654 256.744 251.478 256.945 251.478C257.824 251.478 258.502 250.323 258.628 248.615C258.803 246.505 258.502 245.752 256.819 244.345C254.71 242.512 252.876 242.261 250.39 243.466Z" fill="#253B2D"/>
<path d="M233.136 246.204C231.604 246.43 229.721 247.786 229.193 249.067C228.716 250.197 228.49 251.654 228.691 252.156C228.816 252.407 228.917 252.784 228.967 252.985C229.068 253.562 231.278 255.471 232.483 255.998C234.392 256.877 235.296 256.702 237.406 255.044C239.088 253.713 239.616 253.11 240.545 251.603C241.198 250.523 241.449 249.795 241.55 248.59C241.65 247.485 241.6 247.259 241.022 246.731C240.394 246.154 240.168 246.103 237.406 246.053C235.798 246.053 233.864 246.103 233.136 246.204Z" fill="#253B2D"/>
<path d="M243.383 248.313C243.383 248.489 243.232 248.791 243.031 248.941C242.83 249.117 242.604 249.644 242.504 250.172C242.403 250.674 242.077 251.88 241.776 252.859C240.645 256.35 241.474 258.61 244.639 260.695C246.171 261.7 247.527 262.051 249.184 261.875C250.641 261.725 251.922 260.846 251.922 259.992C251.922 259.741 252.022 259.489 252.148 259.389C252.274 259.314 252.525 258.61 252.675 257.832C252.952 256.501 252.952 256.325 252.399 255.295C252.022 254.592 251.018 253.537 249.662 252.457C248.481 251.503 247.05 250.323 246.472 249.845C245.894 249.368 245.342 248.966 245.216 248.966C245.116 248.966 244.865 248.74 244.689 248.464C244.337 247.886 243.383 247.786 243.383 248.313Z" fill="#253B2D"/>
<path d="M119.442 266.521C117.107 267.576 116.278 268.857 116.403 271.193C116.428 271.871 116.479 272.976 116.504 273.604C116.554 274.935 117.709 276.643 118.639 276.768C118.94 276.818 119.317 277.019 119.467 277.22C119.618 277.421 119.919 277.597 120.145 277.597C120.371 277.597 120.597 277.697 120.698 277.823C120.773 277.949 121.15 278.124 121.552 278.225C121.954 278.3 123.134 278.928 124.189 279.631C125.244 280.309 126.248 280.862 126.449 280.862C126.65 280.862 127.178 280.385 127.63 279.832C128.383 278.878 128.458 278.652 128.408 277.12C128.358 274.86 127.78 272.348 126.876 270.464C126.474 269.611 125.972 268.43 125.796 267.827C125.394 266.496 124.917 266.27 122.33 266.145C120.899 266.069 120.221 266.17 119.442 266.521Z" fill="#253B2D"/>
<path d="M174.067 267.752C173.288 268.556 173.137 268.933 173.564 269.184C173.715 269.259 173.815 269.485 173.815 269.686C173.815 269.887 174.192 270.565 174.644 271.193C175.071 271.846 175.573 272.549 175.699 272.8C175.85 273.026 176.402 273.955 176.955 274.86C177.507 275.739 178.085 276.693 178.236 276.969C178.386 277.22 178.713 277.547 178.989 277.698C179.24 277.848 179.918 278.25 180.471 278.627C181.4 279.255 181.576 279.28 182.857 279.054C183.61 278.928 184.615 278.627 185.092 278.401C186.323 277.798 187.176 275.99 187.327 273.654C187.428 271.921 187.402 271.821 186.599 270.766C185.268 269.033 184.389 268.305 183.635 268.305C183.233 268.305 182.505 268.129 182.028 267.928C181.425 267.677 180.747 267.601 179.994 267.702C179.366 267.802 178.537 267.752 178.16 267.601C177.758 267.451 176.854 267.25 176.151 267.174C174.92 267.024 174.77 267.049 174.067 267.752Z" fill="#253B2D"/>
<path d="M132.351 268.305C131.849 268.556 131.146 269.184 130.744 269.711C130.041 270.615 130.041 270.691 129.965 274.558C129.94 276.718 130.015 278.828 130.141 279.28C130.442 280.259 131.321 280.862 132.175 280.686C133.381 280.46 133.105 281.013 131.799 281.465C129.915 282.143 129.362 282.545 129.362 283.273C129.362 284.127 130.041 285.383 130.493 285.383C130.694 285.383 131.02 285.684 131.221 286.086C131.422 286.463 132.477 287.568 133.607 288.547C135.767 290.456 136.269 290.657 138.78 290.657C139.634 290.657 140.363 290.456 141.041 290.079C142.322 289.351 143.427 288.396 143.427 288.02C143.427 287.869 143.778 287.442 144.18 287.09C144.933 286.437 144.933 286.387 144.582 285.684C144.381 285.282 144.029 284.83 143.828 284.654C143.602 284.453 143.427 284.001 143.427 283.625C143.427 282.62 142.447 281.791 140.011 280.736C138.454 280.083 137.65 279.857 137.173 279.983C136.821 280.083 136.244 280.209 135.917 280.259C135.566 280.335 135.139 280.485 134.938 280.586C134.486 280.837 133.582 280.636 133.783 280.335C133.858 280.209 134.084 280.109 134.31 280.109C134.787 280.109 137.851 278.124 138.429 277.446C139.685 276.015 140.589 273.127 139.936 272.725C139.835 272.649 139.659 272.147 139.584 271.645C139.408 270.565 138.052 268.757 137.55 268.958C137.374 269.033 136.847 268.857 136.369 268.606C135.063 267.853 133.431 267.727 132.351 268.305Z" fill="#253B2D"/>
<path d="M116.68 280.636C116.403 280.736 115.6 280.837 114.871 280.837C113.641 280.862 113.515 280.937 112.611 281.992C111.23 283.65 111.23 283.7 112.134 288.271C112.209 288.547 112.259 288.848 112.259 288.924C112.285 288.999 112.536 289.326 112.862 289.652C113.164 290.004 113.44 290.355 113.44 290.456C113.465 290.581 113.49 290.807 113.515 290.958C113.54 291.31 115.349 292.515 116.278 292.791C116.654 292.892 117.232 292.791 117.885 292.515C119.116 291.963 120.698 290.556 120.497 290.23C120.296 289.903 120.949 288.07 121.728 286.814C122.104 286.236 123.059 285.131 123.862 284.353C124.817 283.449 125.394 282.645 125.495 282.168C125.646 281.414 125.62 281.389 124.314 281.013C122.782 280.611 117.458 280.335 116.68 280.636ZM113.666 284.855C113.741 284.981 113.691 285.157 113.54 285.257C113.415 285.332 113.289 285.232 113.289 285.031C113.289 284.579 113.44 284.504 113.666 284.855Z" fill="#253B2D"/>
<path d="M124.892 285.609C124.591 286.287 124.289 287.166 124.189 287.568C124.013 288.396 122.933 291.661 122.406 292.942C122.129 293.67 122.104 294.223 122.305 295.654C122.531 297.312 122.632 297.513 123.687 298.568C125.018 299.849 126.047 300.2 127.479 299.899C130.844 299.171 132.577 297.111 132.678 293.771C132.703 292.716 131.221 289.702 130.191 288.748C129.739 288.321 129.362 287.743 129.362 287.467C129.362 287.191 129.136 286.764 128.86 286.513C128.584 286.262 128.358 285.935 128.358 285.759C128.358 285.157 127.203 284.378 126.324 284.378C125.495 284.378 125.394 284.478 124.892 285.609Z" fill="#253B2D"/>
<line x1="88" y1="165.5" x2="211" y2="165.5" stroke="#A37F4D"/>
<defs>
<linearGradient id="paint0_linear_415_512" x1="151.032" y1="281.037" x2="151.032" y2="15.6688" gradientUnits="userSpaceOnUse">
<stop stop-color="#253B2D"/>
<stop offset="1" stop-color="#253B2D" stop-opacity="0.6"/>
</linearGradient>
</defs>
</svg>
