<svg width="300" height="300" viewBox="0 0 300 300" fill="none" xmlns="http://www.w3.org/2000/svg">
<rect width="300" height="300" fill="black"/>
<line x1="91" y1="205.5" x2="208" y2="205.5" stroke="white"/>
<path d="M142.661 159.705C142.189 159.542 141.537 159.195 141.214 158.933C140.716 158.53 140.554 158.335 140.243 157.764C140.225 157.731 139.974 157.787 139.685 157.887C139.375 157.996 139.1 158.011 139.014 157.925C138.649 157.56 140.088 155.911 141.256 155.354C141.564 155.207 141.817 155.027 141.817 154.954C141.817 154.79 141.886 154.781 140.924 155.064C140.178 155.284 140.139 155.282 140.437 155.044C141.097 154.519 143.169 153.634 143.907 153.563C144.325 153.523 144.937 153.564 145.266 153.655C146.177 153.906 147.126 153.372 147.658 152.308C148.025 151.575 148.061 151.324 148.036 149.7C148.016 148.471 147.927 147.728 147.754 147.348L147.501 146.793L147.598 147.685C147.742 149.009 147.533 148.592 147.308 147.107C147.164 146.157 147.085 145.926 147.008 146.225C146.908 146.61 146.896 146.602 146.777 146.063C146.6 145.262 144.773 141.131 144.28 140.414C143.994 140 143.847 139.533 143.797 138.883C143.739 138.136 143.672 137.956 143.463 137.991C143.28 138.021 142.96 137.58 142.407 136.533C141.606 135.022 141.213 134.62 141.41 135.516C141.512 135.978 141.489 136.003 140.858 136.104C140.496 136.162 140.117 136.309 140.015 136.432C139.913 136.555 139.667 136.655 139.468 136.655C139.129 136.655 138.794 136.854 137.617 137.752L137.137 138.118L137.03 137.63C136.876 136.93 136.624 137.028 136.624 137.787C136.624 138.593 136.247 138.874 134.867 139.096C134.325 139.183 133.535 139.404 133.11 139.586L132.338 139.916L132.072 139.564C131.843 139.261 131.792 139.248 131.706 139.471C131.643 139.635 131.505 139.693 131.335 139.628C131.158 139.56 130.962 139.659 130.765 139.914L130.465 140.305L130.461 139.785C130.459 139.5 130.538 138.893 130.636 138.436C130.868 137.352 130.728 137.237 130.379 138.227C129.762 139.98 129.71 140.046 128.564 140.56C127.97 140.827 127.394 141.168 127.284 141.318C127.096 141.574 127.028 141.574 126.201 141.313C125.715 141.16 125.076 141.035 124.781 141.035C123.823 141.035 121.976 141.687 121.121 142.327C120.214 143.007 119.238 143.531 118.592 143.686C118.359 143.742 117.897 144.118 117.566 144.522C117.235 144.925 116.901 145.217 116.825 145.17C116.749 145.123 116.577 145.24 116.444 145.43C116.311 145.62 115.98 145.911 115.708 146.076C115.437 146.241 115.031 146.74 114.805 147.185C114.467 147.851 114.287 148.023 113.785 148.163C113.45 148.256 113.091 148.332 112.987 148.333C112.883 148.333 112.616 148.551 112.393 148.816C111.758 149.57 111.553 149.515 111.553 148.593C111.553 148.113 111.474 147.77 111.355 147.729C111.247 147.692 110.789 148.006 110.339 148.428C109.888 148.849 109.468 149.142 109.404 149.079C109.341 149.016 109.404 148.647 109.544 148.259C109.817 147.498 109.704 147.036 109.243 147.036C109.097 147.036 108.631 147.328 108.207 147.685C107.784 148.042 107.386 148.334 107.324 148.334C107.261 148.334 107.259 147.987 107.319 147.563C107.379 147.14 107.449 146.574 107.474 146.306C107.498 146.039 107.574 145.582 107.642 145.292C107.739 144.875 107.714 144.765 107.518 144.765C107.383 144.765 107.226 144.838 107.171 144.928C107.073 145.087 106.441 145.162 106.441 145.015C106.441 144.973 106.587 144.569 106.766 144.116C106.944 143.664 107.09 143.084 107.09 142.829C107.09 141.795 110.37 138.329 112.851 136.741C113.654 136.227 114.749 135.39 115.285 134.879C116.356 133.86 117.081 133.364 120.009 131.655C122.348 130.29 122.829 129.904 123.75 128.653C124.59 127.513 124.926 126.567 124.621 126.2C124.509 126.064 124.352 125.993 124.273 126.042C124.077 126.163 124.089 125.996 124.377 124.627C124.666 123.258 124.577 122.632 124.045 122.283C123.446 121.891 122.666 122.202 121.656 123.237C120.625 124.293 119.675 124.814 118.782 124.814C118.189 124.814 118.074 124.887 117.561 125.585C117.249 126.008 116.573 127.202 116.058 128.238L115.123 130.121L113.987 130.236C113.362 130.299 112.514 130.458 112.103 130.589C111.108 130.905 110.067 131.809 109.924 132.48C109.531 134.313 107.767 137.55 106.742 138.318C105.909 138.942 105.553 138.995 104.846 138.597C104.234 138.254 104.197 138.252 102.845 138.506C100.849 138.879 99.616 138.849 99.0618 138.414C98.6344 138.078 98.6213 138.024 98.7364 137.075C99.0824 134.223 98.524 130.335 96.9739 124.801C95.6884 120.212 95.4804 118.313 95.9173 115.155C96.1313 113.609 95.9574 113.111 94.9509 112.388C93.6679 111.466 92.851 109.723 93.0227 108.273C93.2577 106.29 94.3377 106.125 96.1277 107.798C97.089 108.697 97.1593 108.734 97.2512 108.392C97.3051 108.19 97.3506 107.807 97.3523 107.539C97.3578 106.684 97.67 105.883 98.199 105.366C98.6231 104.951 98.8443 104.863 99.4579 104.863C100.255 104.863 100.655 105.067 101.585 105.947C102.307 106.629 102.552 106.554 103.183 105.455C103.446 104.995 103.928 104.364 104.254 104.052C104.58 103.74 105.033 103.12 105.26 102.676C105.488 102.231 105.999 101.465 106.398 100.973C107.627 99.4539 110.395 96.6817 111.155 96.2086C117.269 92.4023 119.101 91.328 119.957 91.0472C121.303 90.6056 122.48 89.9953 124.634 88.6232C125.63 87.9888 127.001 87.2173 127.68 86.9088C128.36 86.6002 129.296 86.1729 129.761 85.9592C130.528 85.6063 132.568 85.0408 132.855 85.1014C132.92 85.115 133.178 85.0414 133.429 84.9378C133.99 84.7064 134.19 84.6999 134.19 84.913C134.19 85.0201 134.288 85.0227 134.474 84.9204C134.845 84.7161 136.634 84.4393 136.534 84.6016C136.42 84.7852 137.658 84.6963 137.791 84.5113C137.853 84.4244 139.12 84.3325 140.631 84.3052C142.932 84.2638 143.827 84.1674 146.36 83.6878C148.011 83.3753 150.024 82.9023 150.832 82.6368C152.358 82.1357 152.941 82.0391 152.77 82.3158C152.643 82.5214 153.144 82.3339 154.501 81.6681C155.21 81.3203 155.403 81.266 155.123 81.4931C154.532 81.9728 154.988 81.9025 156.097 81.3431C157.134 80.8195 157.307 80.7662 157.151 81.0187C156.991 81.2779 157.415 81.21 158.705 80.7698C160.626 80.1145 162.234 79.7591 163.805 79.6429C164.608 79.5835 165.995 79.4196 166.888 79.2787C173.325 78.2622 181.084 80.0588 187.878 84.1392C190.502 85.7154 194.515 88.9139 195.772 90.4321C196.129 90.863 197.188 91.8663 198.125 92.6616C200.859 94.9817 201.132 95.3382 202.618 98.5412C203.344 100.105 204.201 102.143 204.524 103.07C205.859 106.903 206.406 112.249 205.671 114.271C205.405 115.001 205.346 115.574 205.343 117.434C205.34 119.366 205.276 119.946 204.91 121.327C204.674 122.219 204.257 124.08 203.984 125.463C203.367 128.583 202.871 130.337 202.527 130.622C202.382 130.742 202.356 130.792 202.47 130.735C202.689 130.623 202.63 131.424 202.333 132.593C202.254 132.901 202.251 133.193 202.325 133.242C202.608 133.426 203.152 137.807 203.154 139.914C203.156 141.54 203.513 143.083 204.37 145.173C205.819 148.703 205.959 149.404 205.446 150.533C205.081 151.336 204.361 151.919 202.344 153.043C201.497 153.515 200.547 154.099 200.235 154.34C199.462 154.936 197.043 155.874 195.367 156.226C193.286 156.664 188.165 156.596 187.797 156.125C187.676 155.97 187.366 155.899 186.905 155.92C186.109 155.957 185.192 155.554 185.049 155.105C184.868 154.534 185.187 153.79 185.933 153.045C187.209 151.77 188.941 151.165 191.188 151.206C192.017 151.222 192.284 151.173 192.284 151.004C192.284 150.483 191.806 149.804 190.689 148.739C189.729 147.824 189.44 147.431 189.198 146.712C188.978 146.06 188.868 145.896 188.788 146.103C188.629 146.517 188.455 146.453 188.224 145.895C187.966 145.271 187.715 145.35 187.452 146.141C187.338 146.483 187.001 147.033 186.703 147.363C186.381 147.719 185.914 148.598 185.554 149.528C185.22 150.39 184.847 151.15 184.725 151.219C184.603 151.287 184.21 152.46 183.852 153.825C183.493 155.19 183.056 156.489 182.881 156.712C182.706 156.934 182.238 157.365 181.84 157.668C181.442 157.972 181.091 158.293 181.061 158.381C181.03 158.469 180.129 158.621 179.058 158.717C176.636 158.935 172.442 159.614 171.974 159.864C171.728 159.996 170.586 160.029 168.12 159.976C165.053 159.911 164.507 159.859 163.746 159.56C162.732 159.162 162.263 158.785 162.263 158.365C162.263 158.165 162.145 158.066 161.906 158.066C161.58 158.066 161.602 158.01 162.152 157.448C162.764 156.822 162.805 156.478 162.233 156.785C161.611 157.117 161.6 156.826 162.209 156.156C162.985 155.303 164.092 154.984 166.279 154.984C168.61 154.984 170.133 154.385 170.937 153.152C171.406 152.431 171.491 150.982 171.247 147.847C170.831 142.508 170.796 140.446 171.1 139.169C171.249 138.545 171.444 136.866 171.534 135.438C171.67 133.293 171.781 132.593 172.176 131.396C172.82 129.442 172.764 129.309 171.354 129.448C170.453 129.536 170.159 129.504 169.765 129.271C169.362 129.033 169.193 129.016 168.75 129.171C168.03 129.422 166.766 129.4 165.59 129.116C165.054 128.986 164.31 128.878 163.936 128.875C163.561 128.872 163.014 128.731 162.719 128.563C162.423 128.395 161.744 128.219 161.208 128.173C160.673 128.127 159.88 127.936 159.446 127.747C158.805 127.47 158.675 127.452 158.752 127.654C158.914 128.075 159.961 132.477 160.079 133.232C160.14 133.625 160.291 134.188 160.415 134.484C160.554 134.816 160.642 135.631 160.644 136.609C160.647 137.809 160.722 138.359 160.952 138.866C161.253 139.528 161.252 139.54 160.926 139.866C160.707 140.085 160.568 140.489 160.514 141.062C160.469 141.537 160.362 141.972 160.276 142.028C160.19 142.083 160.052 142.74 159.97 143.488C159.686 146.064 159.528 146.904 159.271 147.188C159.037 147.446 159.036 147.527 159.266 148.077C159.565 148.792 159.498 149.07 158.827 149.901C158.551 150.243 158.19 150.824 158.024 151.192C157.859 151.559 157.601 151.96 157.452 152.084C157.302 152.207 156.875 152.782 156.502 153.362C156.13 153.942 155.703 154.517 155.555 154.639C155.407 154.762 155.285 154.954 155.285 155.066C155.285 155.179 154.993 155.535 154.636 155.857C154.279 156.18 153.996 156.498 154.006 156.565C154.066 156.94 153.962 157.25 153.789 157.215C153.66 157.188 153.608 157.351 153.638 157.688C153.679 158.142 153.603 158.249 152.984 158.607C151.798 159.292 150.632 159.533 147.334 159.773C143.425 160.058 143.693 160.062 142.661 159.705L142.661 159.705Z" fill="#B38A56" stroke="black" stroke-width="1.06667"/>
</svg>
