<svg width="300" height="300" viewBox="0 0 300 300" fill="none" xmlns="http://www.w3.org/2000/svg">
<rect width="300" height="300" fill="#EEEEEE"/>
<path d="M107.434 25.6208C106.767 25.9093 105.775 27.009 105.613 27.6401C105.27 29.0103 105.919 30.6689 107.037 31.2639C107.867 31.6965 109.381 31.6605 109.994 31.2098C110.661 30.705 111.04 30.0199 110.877 29.5872C110.751 29.2627 110.733 29.2627 110.553 29.6052C110.102 30.4165 108.876 30.7771 107.813 30.4165C106.803 30.092 106.262 29.2987 106.262 28.199C106.262 26.8648 106.947 25.9273 108.209 25.5487C108.57 25.4405 108.606 25.4045 108.335 25.3865C108.137 25.3865 107.722 25.4946 107.434 25.6208Z" fill="#E38F58"/>
<path d="M110.95 25.5667C112.085 26.0174 112.969 27.3335 113.275 29.0823C113.888 32.4537 111.472 35.4826 108.173 35.4645C106.226 35.4465 104.189 34.5992 101.556 32.7061C100.727 32.1112 99.3389 31.1917 98.4736 30.6689C91.4603 26.5042 84.1046 26.1436 78.6959 29.7133C76.8389 30.9393 75.5769 32.2374 74.1526 34.4369L73.125 36.0234L72.3858 34.509C71.0877 31.8047 68.8341 30.0379 65.9675 29.4249C64.363 29.0823 63.5517 29.0823 61.7849 29.4249C58.4495 30.0559 55.1863 32.5078 53.6719 35.5547C53.2933 36.348 52.9147 37.1773 52.8606 37.3936C52.7885 37.6641 52.3918 37.9525 51.6166 38.3131C45.9555 40.9093 43.2332 47.8143 45.7933 53.1508C46.6226 54.8636 48.2091 56.4501 49.994 57.3335C50.7151 57.6941 51.4724 58.0006 51.6526 58.0006C52.2296 58.0006 52.0312 58.253 50.8053 58.9922C44.369 62.9405 42.0072 70.0799 44.5312 78.0307C45.4147 80.8071 46.6587 83.1509 49.0385 86.5403C51.9772 90.6869 52.5 93.5715 50.7692 96.0595C49.7957 97.4477 48.2993 98.2049 46.5325 98.2049C45.8113 98.2049 44.9459 98.1148 44.6034 98.0246C43.5938 97.7542 42.3498 96.8708 42.0252 96.2037C41.863 95.8612 41.7188 95.717 41.7188 95.8612C41.7188 96.0234 41.9351 96.4742 42.1875 96.8888C43.8462 99.4309 48.2452 99.5932 50.643 97.2134C51.5625 96.2759 52.2115 94.8876 52.3197 93.5896C52.5 91.3179 51.6707 89.3888 48.8942 85.4946C46.2981 81.8708 44.7476 78.5535 44.1346 75.3083C43.8101 73.6857 43.7921 70.6929 44.0625 69.1605C44.7296 65.4646 46.9291 62.0571 49.976 60.0198C51.4904 58.9922 52.8606 58.271 53.0048 58.3972C53.0589 58.4694 52.7524 58.9922 52.3197 59.5691C50.9315 61.372 50.012 62.8504 49.3269 64.2746C48.9663 65.0319 48.6238 65.6989 48.5697 65.753C48.4976 65.8071 48.2632 66.4561 48.0108 67.1953C47.6683 68.2951 47.5781 68.9261 47.5781 70.5307C47.5781 72.3335 47.6322 72.604 48.0649 73.5054C48.3353 74.0463 49.0565 75.0559 49.6695 75.759C51.0036 77.2915 51.4543 78.2109 51.6526 79.8876L51.7969 81.1677L51.7428 79.6352C51.6707 77.8323 51.3462 77.0571 49.7596 74.9838C49.1827 74.2085 48.6418 73.2891 48.4796 72.7482C48.0829 71.396 48.155 71.1256 48.6418 72.1533C50.03 75.128 54.1406 76.1016 56.1779 73.9381C57.1695 72.8744 57.512 71.1617 56.9531 70.098C56.6106 69.4129 55.655 68.6376 55.1863 68.6376C54.8978 68.6376 55.006 68.7458 55.5469 68.9802C55.9615 69.1785 56.4303 69.5391 56.5925 69.7915C57.2416 70.765 57.0974 72.3876 56.2861 73.5595C55.3486 74.8936 52.9327 75.2722 51.1659 74.3528C47.9567 72.7121 47.47 68.4573 49.9399 63.7698C50.9495 61.8768 51.7248 60.8311 50.9315 62.4537C49.6875 64.9778 49.0565 68.3492 49.4531 70.2963C50.0841 73.2891 53.3654 74.9477 54.8798 73.0006C55.2945 72.4958 55.3486 71.4862 55.006 71.1977C54.8257 71.0535 54.7897 71.1436 54.8438 71.6845C54.8978 72.2614 54.8257 72.4417 54.3389 72.8383C53.3654 73.6677 52.1394 73.4513 50.9675 72.2073C48.9123 70.0799 49.6154 65.4105 52.7704 60.128C53.2933 59.2626 53.744 58.5415 53.7981 58.5415C53.8522 58.5415 53.9062 58.848 53.9423 59.2266C54.0505 60.9573 54.6815 61.6064 56.268 61.6064L57.1334 61.6244L56.4663 62.2374C55.5829 63.0667 54.6274 63.1028 53.8882 62.3816C53.4555 61.9309 53.4014 61.7867 53.4916 60.9754C53.5457 60.4886 53.6358 59.8756 53.6899 59.6232C53.78 59.2446 53.762 59.2626 53.5457 59.7133C53.095 60.6148 53.1851 61.8408 53.726 62.4898C54.1046 62.9585 54.3209 63.0487 54.9339 63.0487C55.8534 63.0487 56.7368 62.5439 57.1334 61.7867L57.4219 61.2458H56.5925C55.1142 61.2458 54.3389 60.5066 54.3389 59.0823V58.5956L56.8269 58.4874C60.5228 58.3251 63.7861 57.3876 68.0589 55.2422L70.2945 54.1244L70.9615 52.5018C72.9988 47.634 74.0264 42.5859 73.6659 39.2867L73.5216 37.9525L74.3329 38.0787C75.7933 38.2951 76.3341 38.872 76.3882 40.2602C76.4062 40.6929 76.4784 41.0535 76.5325 41.0535C76.7488 41.0535 76.8389 39.7915 76.6767 39.1605C76.3882 38.1148 75.649 37.646 74.5493 37.7903C74.4231 37.8263 74.369 37.7542 74.4231 37.646C74.5853 37.3936 76.3882 37.0511 76.8029 37.1953C78.101 37.6641 78.3534 39.0343 77.3798 40.2422L76.8029 40.9633L77.3798 40.4405C78.155 39.7194 78.4075 38.9081 78.0829 38.1328C77.5601 36.8708 76.5325 36.6364 74.6575 37.3395C73.9904 37.5919 73.4675 37.7362 73.5216 37.646C73.6478 37.4477 76.4243 35.771 77.7224 35.122C79.5974 34.1845 81.7969 33.6256 83.6358 33.5895C85.4928 33.5715 86.3582 33.8059 87.2596 34.6172C88.0709 35.3203 88.4135 35.9874 88.4135 36.9069C88.4135 37.5018 88.3053 37.7722 87.8726 38.2049C87.3858 38.6737 87.2416 38.7278 86.6466 38.6376C86.1599 38.5475 86.0517 38.5655 86.25 38.6917C86.3942 38.7999 86.8089 38.89 87.1695 38.89C88.125 38.89 88.9543 37.9345 88.9543 36.8528C88.9543 35.3924 87.512 33.7518 85.8353 33.2831C83.9062 32.7422 80.7151 33.229 77.9748 34.491C76.0276 35.3564 77.0373 34.6172 79.3089 33.4814C82.4639 31.9129 85.1502 31.6424 87.2596 32.6701C89.8558 33.9321 90.8654 37.4477 89.1887 39.4309C88.4315 40.3504 87.4399 40.747 86.1959 40.6569C85.2224 40.5847 85.0601 40.5126 84.5192 39.9177C84.1587 39.5391 83.8882 39.0523 83.8882 38.7638C83.8522 38.3311 83.8522 38.3131 83.78 38.6737C83.6719 39.2145 84.357 40.2782 85.0421 40.6208C86.1418 41.1977 88.0889 40.8552 89.1166 39.9177C90.1623 38.9441 90.5048 36.9429 89.9099 35.1761C89.5312 34.0763 88.107 32.616 86.9712 32.1653L86.1599 31.8588L86.881 31.9669C87.9447 32.1112 88.9363 32.616 90.4147 33.7158C91.1538 34.2566 92.0012 34.8335 92.3257 34.9958C92.9928 35.3203 95.0841 35.6629 95.0841 35.4285C95.0841 35.3564 94.8498 35.2843 94.5793 35.2843C93.5517 35.2843 92.4339 34.7254 90.9555 33.4633C90.1262 32.7783 89.1526 32.0571 88.7921 31.8768C88.0349 31.4982 86.5024 31.1376 85.601 31.1376C83.113 31.1376 78.5337 33.1208 75.2524 35.6088C74.2067 36.402 73.3413 37.0331 73.3053 36.997C73.1971 36.8888 74.0264 35.3744 75 33.9141C77.6863 29.8395 82.0673 27.5319 87.1695 27.5319C91.3702 27.5319 96.1478 29.3347 100.673 32.6701C104.153 35.2302 105.901 36.0054 108.263 36.0054C109.435 36.0054 109.796 35.9333 110.733 35.4465C113.383 34.1304 114.609 31.2097 113.744 28.2891C113.582 27.7662 113.203 27.0631 112.897 26.7025C112.338 26.0715 111.166 25.3504 110.733 25.3864C110.607 25.3864 110.697 25.4766 110.95 25.5667ZM66.851 30.2722C69.4651 31.1376 71.3942 33.1028 72.3498 35.8612C72.6923 36.8528 72.6923 36.8708 72.3498 37.4297C71.9712 38.0607 71.0517 38.6737 69.1406 39.5751C68.0048 40.116 67.6262 40.2061 66.5264 40.2061C64.2007 40.2061 62.6683 39.1424 62.1995 37.2314C62.0913 36.7807 62.1454 36.7266 62.8486 36.5463C63.2632 36.4201 63.7861 36.366 64.0024 36.4201C64.2548 36.4561 64.381 36.4201 64.3089 36.3119C64.2548 36.2218 63.732 36.1857 63.155 36.2218C62.2356 36.2939 62.0913 36.2578 62.0913 35.9874C62.0913 35.4465 62.4519 34.6713 62.9567 34.1484C63.2091 33.878 63.3353 33.6617 63.2091 33.6617C62.8486 33.6617 62.0553 34.9057 61.9651 35.6448C61.875 36.348 61.6406 36.6905 61.4243 36.4742C61.3702 36.4201 61.4243 36.0234 61.5505 35.5727C61.8029 34.6713 62.7945 33.5895 63.4075 33.5355C63.6238 33.5174 64.1827 33.4093 64.6514 33.2831C66.1478 32.9044 67.518 33.5535 68.2572 34.9778C68.9964 36.4201 68.6178 37.9706 67.3017 38.854C66.0577 39.7013 64.5072 38.9802 64.2368 37.4117C64.1286 36.7085 64.1106 36.6905 64.0925 37.2314C64.0385 38.9982 66.0036 40.0439 67.5 39.0162C68.4195 38.4032 68.8161 37.7542 68.9062 36.6725C69.0144 35.3924 68.3654 34.0583 67.2837 33.3552C66.1659 32.616 64.4171 32.5439 63.0829 33.2109C61.9471 33.7518 61.226 34.7794 61.0637 36.0595C60.9916 36.4922 60.7572 37.0511 60.5048 37.3576C59.351 38.7458 59.1166 40.2061 59.8197 41.7206C60.613 43.3972 62.506 44.3167 64.6695 44.0463C66.869 43.7578 69.8077 41.8468 71.5565 39.521C72.0974 38.7819 72.6382 38.1328 72.7284 38.0787C73.3233 37.7182 73.143 43.3432 72.476 46.0114C71.9171 48.265 71.2861 50.1761 70.4207 52.1953L69.7536 53.7638L68.4916 54.4309C66.5986 55.4405 62.9207 56.8468 60.8113 57.3696C59.4772 57.7121 58.2332 57.8744 56.5204 57.9465L54.1046 58.0547L54.357 57.6761C54.5012 57.4778 55.1142 56.9549 55.7091 56.5042C58.2332 54.6472 60.1262 51.6545 60.2524 49.3287C60.3425 47.6881 60.2163 47.0391 59.5493 46.0475C58.2151 44.0282 55.2043 43.7398 53.6358 45.4525C53.3293 45.777 53.0048 45.9213 52.5901 45.9213C50.2464 45.9213 48.4976 48.4273 49.1106 50.9513C49.6514 53.1869 52.2115 54.485 54.1587 53.4934C55.4567 52.8263 56.0877 51.366 55.5288 50.2843C55.0962 49.4549 54.393 48.9862 53.6358 49.0042C53.0048 49.0222 53.0048 49.0403 53.78 49.1665C54.8438 49.3287 55.4207 49.9958 55.4207 51.0234C55.4207 53.4393 52.4099 54.3408 50.4087 52.5198C49.7596 51.9429 49.4712 51.2578 49.4712 50.3203C49.4712 48.6617 50.5168 47.2915 51.9231 47.0571L52.5901 46.9489L52.482 47.7422C52.4279 48.1929 52.4459 48.6436 52.518 48.7879C52.6082 48.9321 52.6983 48.7158 52.7524 48.1749C52.8065 47.7061 52.9327 47.2554 53.0228 47.1653C53.2572 46.9309 54.4291 47.3095 55.0601 47.8504C56.0517 48.6797 56.4123 49.5992 56.4123 51.366C56.4123 52.8984 56.3942 52.9525 55.4207 54.8636C53.8882 57.8744 53.0769 58.1809 50.2825 56.8287C48.9483 56.1977 47.4159 54.8095 46.6406 53.5655C45.9014 52.3396 45.4327 50.5006 45.4507 48.8059C45.4688 44.479 47.8486 40.8011 51.905 38.8179L53.1671 38.2049L53.762 36.7807C54.8438 34.1304 56.9531 31.9129 59.4772 30.777C60.4327 30.3444 61.5325 30.0379 62.9928 29.8035C63.8221 29.6773 65.7692 29.9117 66.851 30.2722ZM63.1911 39.4669C64.4531 40.5307 66.9772 40.8371 68.7981 40.152C69.3029 39.9718 69.6454 39.8816 69.5553 39.9718C69.1767 40.3504 67.2837 40.8732 66.274 40.8732C64.6875 40.8732 63.4796 40.4405 62.5601 39.5571C61.6587 38.6917 61.1178 37.3576 61.5505 37.0871C61.7308 36.979 61.893 37.1953 62.2175 37.9525C62.4339 38.5294 62.8666 39.1965 63.1911 39.4669ZM61.244 38.2951C61.4062 39.0523 62.3798 40.098 63.4255 40.6569C64.2548 41.0895 64.5433 41.1436 66.1659 41.1436C67.8786 41.1436 68.0409 41.1076 69.2668 40.4946C69.988 40.152 70.5649 39.8816 70.5649 39.9177C70.5649 40.0799 68.78 41.5944 67.9868 42.0992C64.8317 44.1004 61.5505 43.848 60.3425 41.5042C59.9099 40.6929 59.982 39.2686 60.4688 38.3852C60.9375 37.5739 61.0998 37.5559 61.244 38.2951ZM57.9087 45.3263C58.3053 45.5427 58.7921 46.0295 59.1166 46.5523C59.6034 47.3275 59.6575 47.5799 59.6575 48.878C59.6575 50.14 59.5853 50.5006 59.0805 51.5643C58.5036 52.7903 57.2957 54.485 56.4303 55.2783C56.0337 55.6569 56.0697 55.5307 56.7368 54.2146C57.4579 52.7903 57.494 52.6641 57.494 51.0775C57.476 49.6533 57.4219 49.2927 56.9892 48.4093C56.4303 47.2734 55.7091 46.5703 54.6635 46.1557C54.0685 45.9213 53.9964 45.8311 54.1947 45.6328C54.6094 45.2182 55.8353 44.8395 56.5565 44.9117C56.9171 44.9477 57.53 45.146 57.9087 45.3263ZM52.8606 46.4982C52.8245 46.6064 52.5901 46.7326 52.3377 46.7686C51.3822 46.8948 51.0577 47.0391 50.3185 47.6881L49.5613 48.3552L50.03 47.7242C50.2825 47.3816 50.8413 46.9129 51.274 46.6785C52.1214 46.2458 52.9688 46.1557 52.8606 46.4982ZM55.3305 46.967C56.9171 48.0667 57.5841 50.6268 56.881 52.9165C56.6647 53.6196 56.4123 54.2506 56.3221 54.3047C56.2139 54.3768 56.2861 54.0703 56.4483 53.6376C56.6647 53.1148 56.7728 52.3936 56.7728 51.4201C56.7728 49.1304 55.9255 47.7061 54.1947 47.0751C53.1671 46.6965 53.1851 46.7145 53.3474 46.4621C53.5457 46.1376 54.5012 46.39 55.3305 46.967Z" fill="#E38F58"/>
<path d="M190.727 25.6749C189.934 26.0895 189.213 26.8107 188.78 27.622C188.456 28.2169 188.383 28.6496 188.383 30.146C188.383 31.7506 188.438 32.039 188.87 32.8503C189.934 34.8696 191.809 36.0054 194.081 36.0054C196.37 36.0054 198.173 35.2121 201.635 32.67C206.557 29.0643 211.352 27.3515 215.968 27.5859C221.412 27.8744 225.451 30.4345 228.209 35.3563C228.678 36.2217 229.057 36.9609 229.02 36.9789C228.984 37.015 228.101 36.402 227.055 35.6268C225.974 34.7974 224.333 33.7878 223.233 33.247C221.863 32.5799 221.304 32.2193 221.286 31.9849C221.286 31.8047 220.907 31.2638 220.439 30.759C217.933 28.0727 212.668 27.6761 209.982 29.9657C209.567 30.3083 208.828 31.1556 208.305 31.8587C207.782 32.5619 206.953 33.4994 206.43 33.9681C205.655 34.6712 205.637 34.7253 206.232 34.2926C206.629 34.0042 207.764 32.9405 208.756 31.9309C210.288 30.3804 210.721 30.0378 211.641 29.6953C214.525 28.6316 218.293 29.2446 220.475 31.1556C221.484 32.0571 221.286 32.2193 219.808 31.6965C218.744 31.3359 218.149 31.2458 216.689 31.2458C214.399 31.2458 213.48 31.6244 211.46 33.3732C209.946 34.6893 209.279 35.0499 207.945 35.3023C207.188 35.4465 207.188 35.4465 208.233 35.3924C209.513 35.3203 210.108 35.0499 211.839 33.7337C213.263 32.652 214.345 32.1292 215.427 31.9669L216.148 31.8587L215.337 32.1652C214.201 32.616 212.776 34.0763 212.398 35.1761C211.821 36.8527 212.091 38.7277 213.047 39.7554C214.111 40.9092 216.184 41.2698 217.374 40.5306C218.005 40.134 218.582 39.1965 218.582 38.5835C218.564 38.4032 218.456 38.5835 218.311 38.9621C217.897 40.134 217.32 40.5667 216.094 40.6568C213.047 40.8732 211.352 37.7902 212.885 34.7794C213.407 33.7518 214.165 33.0487 215.337 32.5078C216.526 31.9669 219.123 31.9849 220.835 32.5619C222.169 32.9946 224.495 34.1664 225.252 34.7614C225.685 35.122 225.685 35.122 224.946 34.7614C221.989 33.3191 218.528 32.7061 216.49 33.283C214.435 33.8419 212.993 35.8251 213.426 37.5018C213.606 38.241 214.399 38.89 215.138 38.89C215.499 38.89 215.913 38.7999 216.058 38.6917C216.256 38.5655 216.148 38.5474 215.697 38.6196C214.886 38.7638 214.165 38.241 213.912 37.3215C213.57 36.0775 214.76 34.3828 216.364 33.8239C218.149 33.1929 221.899 33.7878 224.585 35.122C225.883 35.771 228.66 37.4477 228.786 37.646C228.84 37.7361 228.317 37.5919 227.65 37.3395C225.793 36.6364 224.694 36.9068 224.171 38.1688C223.882 38.872 224.171 39.7374 224.928 40.4405L225.505 40.9633L224.928 40.2422C223.954 39.0342 224.207 37.664 225.505 37.1953C225.883 37.0691 227.722 37.3936 227.849 37.6099C227.903 37.6821 227.686 37.7542 227.38 37.7722C226.514 37.7902 226.028 38.1328 225.703 38.9261C225.433 39.6111 225.487 41.0535 225.793 41.0535C225.865 41.0535 225.883 40.8732 225.847 40.6388C225.739 40.0258 226.19 38.872 226.695 38.5114C226.947 38.3311 227.524 38.1328 227.975 38.0787L228.804 37.9525L228.642 39.2866C228.227 42.622 229.417 48.1568 231.635 53.1869C232.085 54.1965 232.103 54.2145 234.032 55.1881C238.323 57.3155 241.821 58.3431 245.499 58.4874C248.275 58.5955 248.185 58.5414 247.77 60.0198C247.554 60.8491 246.887 61.2458 245.715 61.2458C245.264 61.2458 244.904 61.2999 244.904 61.3539C244.904 61.6424 245.715 62.5438 246.166 62.7782C247.536 63.4813 249.051 62.7061 249.051 61.2999C249.051 60.5787 248.726 59.1725 248.582 59.3167C248.546 59.3527 248.6 59.8035 248.708 60.2902C249.087 61.8768 248.51 62.8684 247.212 62.8684C246.671 62.8684 246.364 62.7241 245.841 62.2374L245.174 61.6244L246.04 61.6063C247.626 61.6063 248.329 60.8672 248.383 59.1725C248.383 58.8299 248.456 58.5955 248.528 58.6496C248.78 58.7938 250.511 61.7686 251.142 63.1208C252.296 65.6268 252.764 68.6376 252.278 70.5306C252.061 71.414 251.088 72.658 250.294 73.0547C249.501 73.4693 248.618 73.3972 247.969 72.8383C247.482 72.4417 247.41 72.2614 247.464 71.6845C247.518 71.1436 247.482 71.0535 247.302 71.1977C246.959 71.4862 247.013 72.4958 247.428 73.0006C248.942 74.9477 252.224 73.289 252.855 70.2963C253.251 68.3491 252.728 65.4104 251.466 62.7061C250.709 61.0475 250.889 61.2097 252.007 63.1568C254.279 67.1051 254.549 70.9813 252.71 73.1448C251.322 74.7494 248.816 75.3443 247.121 74.4429C245.895 73.7938 245.138 72.3335 245.319 70.9453C245.445 69.9717 245.877 69.3948 246.761 68.9801C247.338 68.7277 247.428 68.6376 247.103 68.6376C246.869 68.6376 246.364 68.9441 245.95 69.3407C245.264 69.9717 245.192 70.116 245.12 71.0895C244.922 73.9922 247.716 75.8672 250.727 74.8395C251.845 74.4609 253.161 73.271 253.666 72.1532C253.9 71.6664 254.099 71.378 254.099 71.5402C254.099 72.3335 253.468 73.6676 252.35 75.2542C250.763 77.5078 250.637 77.7782 250.565 79.6352L250.511 81.1676L250.655 79.8876C250.853 78.1749 251.304 77.2734 252.62 75.759C253.233 75.0559 253.972 74.0463 254.243 73.5054C254.676 72.6039 254.73 72.3335 254.73 70.5306C254.73 68.9261 254.639 68.295 254.297 67.1953C254.044 66.4561 253.81 65.8071 253.738 65.753C253.684 65.6989 253.341 65.0318 252.981 64.2746C252.26 62.7602 251.286 61.2458 249.916 59.4789C248.852 58.1628 249.069 58.0366 250.727 59.0102C254.387 61.1376 256.496 63.5895 257.74 67.1953C258.317 68.872 258.335 68.9801 258.335 71.9729C258.335 74.6232 258.281 75.2181 257.921 76.4441C256.911 79.9417 255.757 82.2133 253.143 85.8551C250.727 89.2085 249.952 90.9934 249.952 93.247C249.952 95.2662 251.376 97.4657 253.269 98.3672C255.811 99.5571 259.237 98.6737 260.337 96.5643C260.769 95.735 260.625 95.5366 260.138 96.3299C259.868 96.7987 259.381 97.2314 258.75 97.5919C257.867 98.0787 257.65 98.1148 255.992 98.1148C253.918 98.1148 253.215 97.8624 252.061 96.7085C250.98 95.6268 250.583 94.5991 250.601 92.8864C250.619 90.9213 251.178 89.6051 253.468 86.2157C255.721 82.8624 256.046 82.3215 256.983 80.122C258.263 77.0931 258.66 75.2902 258.678 72.1532C258.696 68.908 258.444 67.7902 257.145 65.0859C256.046 62.7962 254.207 60.759 251.881 59.2626C250.294 58.253 250.06 58.0006 250.655 58.0006C251.232 58.0006 253.504 56.7566 254.423 55.9273C259.724 51.1676 257.831 41.8467 250.871 38.4212C250.006 37.9886 249.501 37.628 249.447 37.3756C249.393 37.1773 249.032 36.3479 248.636 35.5547C247.121 32.5258 243.858 30.0559 240.487 29.4249C238.756 29.0823 237.945 29.0823 236.34 29.4249C233.438 30.0378 231.274 31.7325 229.922 34.4729C229.273 35.789 229.111 36.0054 228.948 35.7349C227.416 33.1027 225.919 31.3179 224.279 30.164C221.07 27.8744 217.536 26.9729 213.426 27.3696C209.351 27.7482 205.367 29.4068 200.913 32.5799C198.029 34.6352 196.118 35.4465 194.135 35.4645C190.835 35.4825 188.365 32.3996 189.014 29.1003C189.357 27.3155 190.222 26.0174 191.358 25.5667C191.611 25.4765 191.683 25.3864 191.538 25.3864C191.394 25.3864 191.034 25.5126 190.727 25.6749ZM241.677 30.3443C244.832 31.3359 247.608 34.0042 248.672 37.1051C248.996 38.0426 249.051 38.1148 250.385 38.7999C253.774 40.5847 255.829 43.0907 256.641 46.4621C257.127 48.5715 256.821 51.3299 255.865 53.2049C255.234 54.4489 253.486 56.1075 252.061 56.8107C249.249 58.1809 248.456 57.8924 246.887 54.9176C245.895 53.0426 245.895 53.0426 245.895 51.42C245.895 49.5991 246.238 48.6977 247.248 47.8503C247.861 47.3275 249.051 46.9309 249.285 47.1652C249.357 47.2374 249.501 47.7061 249.573 48.1929L249.736 49.0763L249.754 48.0126L249.772 46.9489L250.403 47.0571C251.791 47.2914 252.837 48.6797 252.837 50.3203C252.837 51.6184 252.224 52.5378 250.907 53.2049C249.682 53.8179 247.879 53.4032 247.23 52.3395C246.4 50.9693 247.031 49.4008 248.528 49.1664L249.321 49.0402L248.636 49.0042C248.095 48.9862 247.825 49.1124 247.284 49.5991C246.689 50.158 246.617 50.3203 246.617 51.0955C246.617 53.295 249.032 54.503 251.214 53.4032C253.161 52.4116 253.828 50.3383 252.891 48.0847C252.386 46.8407 251.07 45.9393 249.754 45.9212C249.285 45.9212 248.978 45.777 248.6 45.3804C247.428 44.1544 245.445 43.9741 243.876 44.9477C241.514 46.408 241.334 50.14 243.48 53.259C244.417 54.6112 245.859 56.0715 246.887 56.7386C247.338 57.027 247.807 57.4237 247.933 57.64C248.149 58.0006 248.113 58.0006 246.472 58.0006C243.047 58.0006 239.081 56.9549 234.808 54.9176L232.554 53.8359L231.869 52.2133C230.048 47.9225 229.219 44.2806 229.219 40.7289C229.219 39.4669 229.291 38.3311 229.381 38.1869C229.489 38.0066 229.832 38.3311 230.625 39.3948C232.464 41.8107 235.096 43.5955 237.422 43.9922C241.641 44.7133 244.417 40.8011 241.947 37.5739C241.587 37.1051 241.316 36.5102 241.262 36.0414C241.082 34.7794 240.361 33.7518 239.225 33.2109C238.377 32.7782 238.071 32.7241 236.989 32.7962C235.439 32.8684 234.429 33.4994 233.798 34.7434C232.752 36.7626 233.762 39.1604 235.763 39.3768C237.151 39.539 238.269 38.6015 238.215 37.3215C238.197 36.9068 238.161 36.9429 238.053 37.5198C237.909 38.295 237.26 38.9982 236.52 39.1785C234.988 39.5571 233.239 37.5018 233.708 35.8972C234.321 33.7698 235.944 32.7602 237.873 33.3191C238.323 33.4453 238.828 33.5715 239.008 33.5895C239.712 33.6436 240.919 35.3203 240.938 36.2398C240.938 36.8708 240.487 36.42 240.361 35.6809C240.216 34.8155 239.784 34.0943 239.243 33.8059C238.936 33.6436 238.954 33.6977 239.351 34.1304C239.856 34.6712 240.216 35.4465 240.216 35.9874C240.216 36.2578 240.072 36.2938 239.153 36.2217C238.432 36.1676 238.053 36.2217 237.963 36.366C237.855 36.5282 237.891 36.5643 238.035 36.4741C238.287 36.3119 239.639 36.4741 240 36.6905C240.18 36.8167 240.162 36.997 239.946 37.646C239.351 39.3227 237.909 40.2061 235.745 40.2061C234.501 40.2061 234.303 40.152 232.536 39.2506C230.409 38.1869 229.525 37.3395 229.688 36.5643C229.904 35.6087 231.022 33.5354 231.743 32.7061C234.141 29.9837 237.764 29.1184 241.677 30.3443ZM240.757 37.9705C240.108 40.2782 236.809 41.5222 234.014 40.5306C233.419 40.3323 232.861 40.0799 232.752 39.9717C232.662 39.8816 233.005 39.9717 233.51 40.152C234.123 40.3864 234.898 40.5126 235.673 40.5126C238.017 40.5126 239.513 39.6111 240.144 37.8624C240.415 37.0871 240.523 36.9609 240.703 37.1412C240.865 37.3035 240.883 37.5378 240.757 37.9705ZM242.163 40.17C242.073 41.991 241.208 42.9465 239.261 43.3972C238.161 43.6316 236.845 43.3792 235.258 42.6039C234.141 42.045 231.923 40.3864 231.779 39.9898C231.761 39.9176 232.32 40.152 233.041 40.4946C234.267 41.1075 234.429 41.1436 236.142 41.1436C237.764 41.1436 238.053 41.0895 238.882 40.6568C239.712 40.2241 240.938 39.0342 240.938 38.6736C240.938 38.6015 241.028 38.3311 241.136 38.0426L241.316 37.5378L241.767 38.259C242.145 38.872 242.218 39.1604 242.163 40.17ZM247.121 45.128C248.293 45.5246 248.51 45.8311 247.752 46.0835C246.797 46.408 245.859 47.2914 245.337 48.4092C244.904 49.2926 244.832 49.6532 244.814 51.0775C244.814 52.664 244.85 52.7902 245.571 54.2325L246.328 55.747L245.246 54.5751C243.75 52.9525 242.722 50.8792 242.596 49.2025C242.524 48.1208 242.578 47.7962 242.957 46.9669C243.426 45.9573 244.147 45.2902 245.048 45.0198C245.787 44.7854 246.202 44.8215 247.121 45.128ZM248.996 46.5703C249.032 46.6965 248.834 46.8407 248.564 46.8948C248.293 46.9669 247.716 47.2193 247.302 47.4717C245.751 48.3732 245.012 51.1857 245.751 53.3491C246.184 54.6112 246.112 54.7013 245.607 53.5475C244.796 51.6725 245.012 49.3287 246.148 47.7782C246.941 46.6785 248.78 45.9032 248.996 46.5703ZM250.799 46.5523C251.557 46.8768 252.061 47.2734 252.35 47.8143C252.476 48.0667 252.332 47.9946 251.863 47.5979C251.232 47.021 250.907 46.8948 249.97 46.7686C249.718 46.7325 249.483 46.6063 249.447 46.4982C249.357 46.1917 250.024 46.2277 250.799 46.5523Z" fill="#E38F58"/>
<path d="M194.207 25.6028C194.531 25.6929 195.09 26.1076 195.433 26.5042C196.064 27.1893 196.082 27.2615 196.01 28.3071C195.938 29.2446 195.847 29.461 195.361 29.8937C195.054 30.1641 194.513 30.4526 194.171 30.5247C193.287 30.6869 192.061 30.2542 191.773 29.6953C191.575 29.2987 191.538 29.2807 191.43 29.5872C191.268 30.0199 191.647 30.705 192.314 31.2098C192.927 31.6605 194.441 31.6965 195.27 31.2639C196.911 30.3985 197.272 27.9646 195.992 26.5042C195.415 25.8372 194.513 25.3504 193.936 25.3865C193.756 25.4045 193.882 25.4946 194.207 25.6028Z" fill="#E38F58"/>
<path d="M98.7801 27.0992C97.6983 27.4417 96.238 27.8203 95.5349 27.9465L94.2728 28.1809L95.2825 28.6496C96.7428 29.3528 97.7704 29.5691 99.4471 29.497C100.619 29.4429 101.16 29.3167 101.827 28.9742C103.486 28.1268 103.756 27.0992 102.458 26.6484C101.556 26.3419 100.925 26.4141 98.7801 27.0992ZM102.476 27.3516C102.71 27.4958 102.656 27.604 102.206 27.9645C100.907 29.0463 98.2212 29.3347 96.0757 28.6316L94.994 28.2891L95.7152 28.253C96.1118 28.235 97.3377 28.0006 98.4195 27.7121C100.475 27.1893 102.007 27.0451 102.476 27.3516Z" fill="#E38F58"/>
<path d="M199.868 26.5763C199.651 26.6124 199.327 26.8648 199.165 27.0992C198.894 27.5319 198.894 27.5859 199.237 28.0367C199.435 28.3071 200.03 28.7398 200.553 29.0102C201.382 29.4609 201.689 29.515 203.149 29.515C204.826 29.515 206.629 29.0463 207.566 28.3972C207.945 28.1268 207.909 28.1088 207.007 28.0006C206.484 27.9285 205.006 27.5499 203.744 27.1533C201.563 26.4862 200.859 26.396 199.868 26.5763ZM203.834 27.7121C205.042 28.0006 206.322 28.253 206.683 28.271C207.278 28.2891 207.242 28.3071 206.232 28.6316C204.105 29.3347 201.382 29.0463 200.102 27.9826C199.651 27.604 199.597 27.5138 199.832 27.3516C200.301 27.0451 201.545 27.1533 203.834 27.7121Z" fill="#E38F58"/>
<path d="M85.3486 28.7398C84.6995 28.9201 83.7981 29.2807 83.3474 29.5511C82.518 30.0379 81.0216 31.5162 81.0216 31.8588C81.0216 31.9669 81.274 31.7686 81.5805 31.4261C82.2476 30.6508 84.2668 29.6232 85.6551 29.3167C87.0793 29.0282 89.3329 29.2085 90.6671 29.6953C91.5865 30.0559 92.0373 30.3984 93.732 32.1112C95.4447 33.86 97.1575 35.2843 97.518 35.2843C97.5721 35.2843 97.1214 34.9057 96.4904 34.4189C95.8774 33.9501 94.9579 33.0487 94.4531 32.3996C92.9026 30.3984 91.8209 29.4249 90.649 28.9742C89.1707 28.4333 86.899 28.3251 85.3486 28.7398Z" fill="#E38F58"/>
<path d="M115.619 28.6496C115.331 28.7398 115.042 29.0463 114.916 29.3528C114.285 30.8672 116.43 31.8227 117.242 30.3984C117.8 29.4068 116.737 28.271 115.619 28.6496ZM116.701 29.479C116.917 29.8756 116.502 30.5967 116.088 30.5967C115.944 30.5967 115.709 30.4165 115.565 30.2001C115.204 29.6953 115.493 29.1544 116.088 29.1544C116.322 29.1544 116.611 29.2987 116.701 29.479Z" fill="#E38F58"/>
<path d="M185.625 28.7218C184.165 29.3347 185.12 31.5523 186.635 31.0294C187.356 30.777 187.698 30.0559 187.41 29.3708C187.103 28.6496 186.4 28.3972 185.625 28.7218ZM186.815 29.7133C186.887 30.2722 186.454 30.6689 185.968 30.5066C185.156 30.2542 185.427 29.0823 186.274 29.1905C186.653 29.2266 186.779 29.3528 186.815 29.7133Z" fill="#E38F58"/>
<path d="M118.413 29.6052C118.341 29.7494 118.395 30.0018 118.522 30.146C118.72 30.3804 122.722 30.4165 151.424 30.4165C186.094 30.4165 184.724 30.4525 184.399 29.6232C184.291 29.3528 181.605 29.3347 151.406 29.3347C122.2 29.3347 118.504 29.3708 118.413 29.6052Z" fill="#E38F58"/>
<path d="M204.988 35.0138C204.79 35.1581 204.718 35.2843 204.826 35.2843C204.934 35.2843 205.114 35.1581 205.24 35.0138C205.529 34.6713 205.439 34.6713 204.988 35.0138Z" fill="#E38F58"/>
<path d="M96.1298 35.4105C96.256 35.4645 96.4183 35.4465 96.4724 35.3924C96.5445 35.3383 96.4363 35.2843 96.238 35.3023C96.0397 35.3023 95.9856 35.3564 96.1298 35.4105Z" fill="#E38F58"/>
<path d="M84.5914 36.2398C84.0865 36.6545 83.726 37.2674 83.726 37.6641C83.726 37.7903 83.8882 37.5739 84.0865 37.1773C84.2849 36.7807 84.6635 36.3119 84.9339 36.1496C85.2224 35.9694 85.3666 35.8251 85.2584 35.8251C85.1683 35.8251 84.8618 36.0054 84.5914 36.2398Z" fill="#E38F58"/>
<path d="M217.374 36.1496C217.644 36.3119 218.023 36.7807 218.221 37.1773C218.42 37.5739 218.582 37.7722 218.582 37.628C218.582 37.0691 217.518 35.8432 217.049 35.8432C216.959 35.8432 217.085 35.9694 217.374 36.1496Z" fill="#E38F58"/>
<path d="M86.1779 42.3516C86.0156 42.5679 85.8894 42.8924 85.8894 43.0727C85.8894 43.5054 86.5204 44.1184 86.9712 44.1184C87.4579 44.1184 88.0529 43.4874 88.0529 42.9826C88.0529 42.0271 86.7007 41.5944 86.1779 42.3516ZM87.3317 42.7843C87.5301 43.0006 87.512 43.1088 87.2776 43.3612C86.9892 43.6316 86.9531 43.6316 86.6647 43.3612C86.4303 43.1088 86.4123 43.0006 86.6106 42.7843C86.7368 42.622 86.899 42.4958 86.9712 42.4958C87.0433 42.4958 87.2055 42.622 87.3317 42.7843Z" fill="#E38F58"/>
<path d="M214.561 42.2795C214.093 42.7843 214.183 43.5235 214.724 43.866C215.715 44.5331 216.833 43.4153 216.166 42.4237C215.805 41.8648 214.994 41.7927 214.561 42.2795ZM215.697 42.7843C215.895 43.0006 215.877 43.1088 215.643 43.3612C215.355 43.6316 215.319 43.6316 215.03 43.3612C214.796 43.1088 214.778 43.0006 214.976 42.7843C215.102 42.622 215.264 42.4958 215.337 42.4958C215.409 42.4958 215.571 42.622 215.697 42.7843Z" fill="#E38F58"/>
<path d="M72.4579 54.5391C71.4844 54.8636 70.9255 55.6208 70.9255 56.6124C70.9255 57.1713 71.0517 57.4417 71.5385 57.9285C72.0613 58.4513 72.2776 58.5415 72.9627 58.5415C75.3425 58.5415 75.8293 55.4405 73.5757 54.5932C73.0168 54.3768 72.9808 54.3768 72.4579 54.5391ZM73.72 55.2242C74.0264 55.3504 74.5312 56.1977 74.5312 56.6304C74.5312 56.7746 74.3149 57.1352 74.0625 57.4417C73.3594 58.2891 72.2236 58.1989 71.7368 57.2614C71.3582 56.5403 71.3942 56.0715 71.9171 55.5667C72.3498 55.116 73.0889 54.9898 73.72 55.2242Z" fill="#E38F58"/>
<path d="M228.57 54.6472C227.127 55.2783 226.803 57.0271 227.939 58.0367C228.371 58.4333 228.678 58.5415 229.309 58.5415C230.445 58.5415 231.202 57.8564 231.328 56.7025C231.418 55.9453 231.364 55.8191 230.823 55.2422C230.12 54.503 229.363 54.3047 228.57 54.6472ZM230.391 55.5667C230.913 56.0715 230.949 56.5403 230.571 57.2614C229.976 58.4333 228.191 58.1629 227.849 56.8468C227.74 56.378 228.155 55.3864 228.534 55.2422C229.147 54.9898 229.976 55.134 230.391 55.5667Z" fill="#E38F58"/>
<path d="M47.2897 66.4201C46.4062 67.1593 45.4147 68.836 45.0541 70.1521C44.5853 71.8828 44.7296 74.3348 45.3966 75.759C45.9736 77.0391 46.5685 77.6881 48.4075 79.1124C49.1647 79.6893 50.0481 80.5006 50.3906 80.9333C51.1659 81.9429 51.274 82.0691 51.274 81.9249C51.274 81.6905 49.6695 79.8516 48.1731 78.4093C47.0373 77.3095 46.4964 76.6244 46.1538 75.8672C45.3606 74.0824 45.2344 71.8107 45.8474 69.6292C46.0998 68.6737 47.1995 66.8528 47.8125 66.348C48.0829 66.1136 48.2091 65.9333 48.0829 65.9333C47.9748 65.9333 47.6142 66.1497 47.2897 66.4201Z" fill="#E38F58"/>
<path d="M254.513 66.366C255.27 67.0691 256.064 68.4573 256.478 69.7734C256.767 70.765 256.821 71.342 256.767 72.8383C256.659 75.5246 256.262 76.3179 253.684 78.878C252.566 79.9597 251.502 81.1316 251.322 81.4742C250.926 82.1593 251.088 82.015 251.917 80.9333C252.26 80.5006 253.143 79.6893 253.9 79.1124C254.657 78.5174 255.523 77.7783 255.847 77.4537C257.831 75.3624 258.101 70.9633 256.388 68.1328C255.793 67.1412 254.621 65.9333 254.261 65.9333C254.135 65.9333 254.261 66.1316 254.513 66.366Z" fill="#E38F58"/>
<path d="M54.3029 68.5836C54.4291 68.6376 54.5913 68.6196 54.6454 68.5655C54.7175 68.5114 54.6094 68.4574 54.4111 68.4754C54.2127 68.4754 54.1587 68.5295 54.3029 68.5836Z" fill="#E38F58"/>
<path d="M247.752 68.5836C247.879 68.6376 248.041 68.6196 248.095 68.5655C248.167 68.5114 248.059 68.4574 247.861 68.4754C247.662 68.4754 247.608 68.5295 247.752 68.5836Z" fill="#E38F58"/>
<path d="M52.6983 69.3408C52.3017 69.7194 51.9952 70.1341 51.9952 70.2603C51.9952 70.3865 52.1755 70.2242 52.4099 69.8816C52.6262 69.5391 53.095 69.1244 53.4375 68.9622C53.8522 68.7458 53.9423 68.6377 53.726 68.6377C53.5457 68.6377 53.0769 68.9441 52.6983 69.3408Z" fill="#E38F58"/>
<path d="M248.69 68.836C248.942 68.9441 249.303 69.1605 249.501 69.3227C249.718 69.485 249.645 69.4129 249.375 69.1244C249.087 68.854 248.726 68.6376 248.546 68.6557C248.329 68.6557 248.383 68.7098 248.69 68.836Z" fill="#E38F58"/>
<path d="M250.06 70.134C250.114 70.3143 250.222 70.4044 250.276 70.3504C250.331 70.2963 250.276 70.152 250.15 70.0258C249.97 69.8636 249.952 69.8816 250.06 70.134Z" fill="#E38F58"/>
<path d="M58.738 70.9453C58.6298 71.0175 58.4315 71.2699 58.3053 71.5042C58.125 71.8648 58.143 71.991 58.4315 72.4057C58.6298 72.6581 58.9724 72.8925 59.1887 72.9285C60.0721 73.0727 60.6671 71.7386 60 71.0896C59.7115 70.7831 59.0805 70.711 58.738 70.9453ZM59.7115 71.8107C59.7656 72.2074 59.3329 72.5138 59.0084 72.3155C58.8101 72.2074 58.7921 71.6304 58.9724 71.4501C59.2067 71.2158 59.6574 71.4321 59.7115 71.8107Z" fill="#E38F58"/>
<path d="M242.308 71.0896C241.677 71.7025 242.163 72.9646 243.047 72.9646C243.858 72.9646 244.327 71.6845 243.714 71.0896C243.57 70.9273 243.245 70.8011 243.011 70.8011C242.776 70.8011 242.452 70.9273 242.308 71.0896ZM243.426 71.8107C243.48 72.2073 243.047 72.5138 242.722 72.3155C242.524 72.2073 242.506 71.6304 242.686 71.4501C242.921 71.2158 243.371 71.4321 243.426 71.8107Z" fill="#E38F58"/>
<path d="M44.2608 80.0679C44.2428 80.5006 43.9002 81.8888 43.5216 83.1508C42.7464 85.6388 42.6022 87.027 43.0889 87.7121C44.0445 89.0823 45.8654 86.7025 45.8654 84.0883C45.8654 83.4754 45.7572 82.5559 45.613 82.0691C45.3245 80.9694 44.6034 79.2746 44.4411 79.2746C44.369 79.2746 44.2969 79.6352 44.2608 80.0679ZM45.0361 81.366C45.3966 82.7542 45.3966 84.3588 45.0721 85.4766C44.7837 86.396 43.9543 87.64 43.7019 87.4778C43.2873 87.2254 43.3594 85.9633 43.8822 83.7819C44.1887 82.5379 44.4591 81.1857 44.4591 80.753C44.4772 79.7614 44.6755 79.9778 45.0361 81.366Z" fill="#E38F58"/>
<path d="M257.29 80.3023C256.677 81.6544 256.46 82.7001 256.442 84.0883C256.442 86.7025 258.263 89.0823 259.219 87.7121C259.706 87.0451 259.561 85.6749 258.786 83.2049C258.407 81.9429 258.065 80.5367 258.029 80.0859C257.993 79.6352 257.921 79.2746 257.867 79.2746C257.794 79.2746 257.542 79.7434 257.29 80.3023ZM257.831 80.771C257.849 81.2037 258.119 82.5919 258.425 83.872C258.948 86.0715 259.002 87.2254 258.606 87.4778C258.371 87.622 257.578 86.4862 257.254 85.6028C256.911 84.5932 256.911 82.7182 257.254 81.366C257.506 80.4105 257.668 79.9958 257.758 79.9958C257.776 79.9958 257.813 80.3383 257.831 80.771Z" fill="#E38F58"/>
<path d="M51.3642 82.3396C51.4183 82.4297 51.5084 82.5199 51.5625 82.5199C51.5986 82.5199 51.6346 82.4297 51.6346 82.3396C51.6346 82.2314 51.5445 82.1593 51.4363 82.1593C51.3462 82.1593 51.3101 82.2314 51.3642 82.3396Z" fill="#E38F58"/>
<path d="M250.673 82.3576C250.673 82.4477 250.763 82.4838 250.853 82.4297C250.962 82.3756 251.034 82.2855 251.034 82.2314C251.034 82.1953 250.962 82.1593 250.853 82.1593C250.763 82.1593 250.673 82.2494 250.673 82.3576Z" fill="#E38F58"/>
<path d="M43.3413 90.7951C42.53 91.2097 41.7728 92.3275 41.6286 93.247L41.5385 93.9681L41.8089 93.1388C42.3498 91.4621 43.9183 90.6689 45.3966 91.3359C46.5325 91.8227 46.8209 92.3636 46.7308 93.7338C46.6587 94.6532 46.5685 94.9056 46.1538 95.2662C45.7572 95.5907 45.7212 95.6989 45.9375 95.7891C46.3882 95.9694 47.1995 95.4465 47.524 94.7794C48.2272 93.3912 47.6863 91.4621 46.4062 90.7951C45.595 90.3444 44.1526 90.3444 43.3413 90.7951Z" fill="#E38F58"/>
<path d="M255.938 90.741C255.018 91.2098 254.567 91.985 254.495 93.247C254.423 94.491 254.856 95.3925 255.667 95.6989C256.46 95.9874 256.731 95.753 256.154 95.2482C255.721 94.8876 255.649 94.6713 255.577 93.6617C255.505 92.616 255.541 92.4538 255.992 91.9309C257.362 90.2903 259.994 91.1557 260.589 93.4453L260.769 94.1485L260.697 93.4814C260.571 92.5078 260.084 91.5703 259.363 91.0295C258.57 90.4165 256.857 90.2723 255.938 90.741Z" fill="#E38F58"/>
<path d="M45.2344 100.098C44.5132 100.801 44.7115 101.847 45.631 102.189C46.7488 102.604 47.7764 101.468 47.2356 100.404C46.7849 99.5211 45.9375 99.3949 45.2344 100.098ZM46.4784 100.422C46.9471 100.765 46.8029 101.522 46.262 101.594C45.4688 101.721 45.0541 101.017 45.613 100.477C45.9555 100.134 46.0637 100.116 46.4784 100.422Z" fill="#E38F58"/>
<path d="M255.487 99.8456C254.621 100.35 254.766 101.775 255.703 102.171C257.055 102.73 258.119 101.126 257.073 100.098C256.623 99.6292 256.028 99.5391 255.487 99.8456ZM256.731 100.567C257.163 101.053 256.875 101.54 256.154 101.54C255.739 101.54 255.613 101.45 255.577 101.108C255.523 100.837 255.631 100.567 255.829 100.422C256.262 100.116 256.334 100.116 256.731 100.567Z" fill="#E38F58"/>
<path d="M45.7212 102.928C45.5589 103.091 45.5048 109.942 45.5048 134.515C45.5048 151.787 45.5769 166.011 45.6671 166.138C45.7572 166.282 45.9736 166.354 46.1538 166.318C46.4964 166.264 46.4964 165.435 46.4964 134.533C46.4964 106.282 46.4603 102.802 46.226 102.748C46.0637 102.73 45.8474 102.802 45.7212 102.928Z" fill="#E38F58"/>
<path d="M255.811 103.469C255.757 103.596 255.739 117.784 255.757 134.984C255.811 165.435 255.811 166.264 256.154 166.318C256.334 166.354 256.55 166.282 256.641 166.138C256.731 166.011 256.803 151.913 256.803 134.785C256.803 110.843 256.749 103.632 256.587 103.469C256.298 103.181 255.919 103.199 255.811 103.469Z" fill="#E38F58"/>
<path d="M255.775 167.454C254.82 167.814 254.603 169.112 255.415 169.689C256.569 170.501 258.011 169.221 257.344 167.977C257.109 167.544 256.28 167.273 255.775 167.454ZM256.803 168.319C256.893 168.517 256.929 168.788 256.875 168.95C256.731 169.329 256.118 169.491 255.811 169.239C255.541 169.004 255.451 168.319 255.667 168.103C255.901 167.85 256.623 167.995 256.803 168.319Z" fill="#E38F58"/>
<path d="M45.1442 167.832C44.6575 168.355 44.6935 169.076 45.1983 169.563C46.0637 170.374 47.3618 169.852 47.3618 168.698C47.3618 167.544 45.9375 166.985 45.1442 167.832ZM46.6587 168.373C46.8029 168.608 46.8029 168.788 46.6587 169.004C46.1538 169.816 45.0541 169.166 45.5048 168.319C45.7392 167.886 46.3702 167.922 46.6587 168.373Z" fill="#E38F58"/>
<path d="M45.1803 170.861C44.7476 170.951 44.0625 171.204 43.6478 171.438C42.8546 171.889 41.7188 173.223 41.7188 173.71C41.7188 173.908 41.845 173.8 42.0613 173.457C43.0889 171.763 46.0457 170.933 48.2632 171.691C49.363 172.069 50.643 173.205 51.2019 174.341C52.4639 176.811 51.7248 179.371 48.4796 183.968C44.4411 189.629 42.8005 195.705 43.8642 200.897C44.7115 205.008 46.8389 208.091 50.4447 210.435L52.0312 211.462L51.0397 211.877C45.8834 213.968 43.6659 218.854 45.3966 224.335C46.4062 227.49 48.8762 230.194 51.9952 231.564C52.7163 231.889 52.8425 232.033 53.149 232.898C54.5913 237.099 58.774 240.182 63.3534 240.416C67.7885 240.633 71.3582 238.253 72.9087 234.07L73.107 233.547L74.0264 235.062C74.6214 236.035 75.5409 237.171 76.5865 238.199C78.4615 240.056 80.1022 241.029 82.7344 241.823C84.1947 242.273 84.6274 242.31 87.1514 242.31C89.5673 242.31 90.1803 242.255 91.6767 241.859C95.1022 240.939 97.8245 239.605 101.376 237.081C105.451 234.197 108.029 233.566 110.535 234.791C112.32 235.657 113.347 237.388 113.347 239.461C113.329 241.552 112.59 243.211 111.346 243.878C110.986 244.058 110.805 244.221 110.968 244.239C111.581 244.257 112.843 243.211 113.383 242.237C113.87 241.354 113.924 241.12 113.924 239.551C113.924 237.514 113.582 236.576 112.356 235.368C110.319 233.313 107.524 233.061 104.369 234.629C103.684 234.972 102.007 236.035 100.673 237.009C97.7704 239.082 95.643 240.218 93.0829 241.066C90.4688 241.949 89.1346 242.129 86.4663 242.021C83.744 241.913 82.5901 241.642 80.3005 240.507C78.0108 239.389 75.7752 237.225 74.2608 234.629C73.7019 233.656 73.2692 232.808 73.3233 232.772C73.3774 232.718 74.2969 233.331 75.3606 234.142C76.4423 234.936 78.155 235.999 79.1827 236.504C80.5889 237.207 81.0216 237.496 81.0216 237.766C81.0216 238.289 82.5901 239.731 83.762 240.308C85.1683 240.993 86.3942 241.228 88.2151 241.138C89.4231 241.084 90.018 240.957 90.8474 240.561C92.1094 239.984 92.6142 239.551 93.9483 237.838C94.4892 237.135 95.3185 236.216 95.7873 235.783C96.238 235.35 96.4543 235.098 96.256 235.224C96.0577 235.368 95.012 236.342 93.9123 237.406C91.3702 239.912 90.5589 240.326 87.9447 240.416C85.9255 240.507 84.6454 240.236 83.149 239.425C82.3017 238.956 81.0577 237.82 81.22 237.658C81.274 237.622 81.7969 237.748 82.3918 237.965C83.2572 238.289 83.8522 238.361 85.5288 238.379C87.4038 238.379 87.6923 238.343 88.5938 237.892C89.1346 237.64 90.1623 236.919 90.8474 236.306C92.3618 234.954 93.2812 234.503 94.976 234.305L96.256 234.16L94.7236 234.215C92.9207 234.287 92.1454 234.611 90.0721 236.198C89.2969 236.775 88.3774 237.316 87.8365 237.478C86.5385 237.856 86.1959 237.802 87.1514 237.37C88.143 236.919 89.2248 235.909 89.7115 234.972C90.1803 234.034 90.3245 232.394 90.0361 231.312C89.2788 228.626 85.4567 227.796 84.0865 230.032C83.8882 230.356 83.726 230.789 83.726 230.987C83.744 231.204 83.8341 231.06 83.9784 230.663C84.3209 229.743 84.7356 229.311 85.5469 229.076C87.0072 228.626 88.9183 229.437 89.5493 230.771C90.4147 232.574 90.018 234.539 88.5216 236.035C87.3858 237.171 86.3221 237.568 84.393 237.568C82.7344 237.568 81.274 237.171 79.3089 236.198C77.2536 235.188 76.244 234.449 77.9567 235.206C80.0481 236.126 81.851 236.558 83.726 236.558C85.9075 236.576 86.8269 236.252 87.9267 235.062C89.1887 233.71 89.2969 232.105 88.2151 231.186C87.6202 230.681 86.6106 230.555 86.2861 230.951C86.1418 231.132 86.25 231.168 86.7909 231.114C87.3678 231.06 87.5661 231.132 87.9627 231.528C89.1887 232.88 87.8185 235.404 85.5288 235.945C82.7524 236.612 78.8221 235.477 74.5673 232.754L73.4315 232.033H74.1346C75.9014 232.033 76.7668 231.258 76.7488 229.725L76.7308 228.842L77.3438 229.509C77.7945 229.996 77.9567 230.338 77.9567 230.825C77.9567 232.358 77.1094 232.736 74.7115 232.249C74.4411 232.195 74.4952 232.249 74.8918 232.412C75.9195 232.844 76.9471 232.772 77.5601 232.249C78.2452 231.672 78.4255 230.951 78.0649 230.122C77.8305 229.527 77.0012 228.734 76.6226 228.734C76.5325 228.734 76.4423 229.058 76.4062 229.455C76.262 230.951 75.5228 231.618 73.9724 231.618H73.5216L73.6659 230.302C74.0445 226.823 72.8546 221.414 70.619 216.438L70.1502 215.356L68.149 214.401C63.6959 212.273 60.2524 211.3 56.6106 211.12L54.3029 211.011L54.4111 210.2C54.5733 208.956 55.0781 208.541 56.5925 208.361L57.494 208.271L56.6647 207.406C55.9255 206.666 55.7452 206.558 55.0781 206.558C54.4651 206.558 54.1947 206.666 53.78 207.081C53.3474 207.532 53.2572 207.748 53.2752 208.487C53.2752 208.956 53.4014 209.641 53.5457 209.984C53.6899 210.344 53.762 210.416 53.7079 210.164C53.6538 209.912 53.5637 209.299 53.4916 208.776C53.4014 207.91 53.4195 207.802 53.9423 207.297C54.5192 206.703 55.1502 206.594 55.8353 206.937C56.2861 207.171 57.0433 207.838 57.0433 207.983C57.0433 208.037 56.5925 208.091 56.0517 208.091C55.2404 208.091 54.988 208.163 54.6094 208.541C54.1587 209.01 53.744 210.507 53.9243 211.047C54.1406 211.66 53.5998 210.921 52.4639 209.01C49.3269 203.782 48.9483 198.986 51.5084 196.931C52.4459 196.192 53.7079 196.138 54.4291 196.823C54.8438 197.219 54.8978 197.382 54.8257 198.085C54.7356 198.806 54.7536 198.86 54.988 198.535C55.5469 197.778 55.0962 196.516 54.0865 196.029C53.3474 195.669 52.8786 195.669 52.1214 195.975C48.9123 197.328 48.4255 201.979 50.9495 207.189C51.7428 208.83 50.9135 207.712 49.9399 205.837C48.8401 203.71 48.3894 202.141 48.3894 200.41C48.3894 197.021 50.3365 194.84 53.3834 194.84C56.7007 194.84 58.3954 198.986 55.7452 200.609C55.4207 200.807 55.2404 200.969 55.3305 200.969C55.7632 200.969 56.6466 200.248 56.9171 199.653C57.8726 197.67 56.5204 195.146 54.2668 194.641C51.9231 194.118 49.3269 195.543 48.4976 197.832C48.3173 198.301 48.2272 198.409 48.2272 198.157C48.1911 197.31 48.8401 195.885 49.8678 194.551C51.3462 192.622 51.6526 191.865 51.7428 190.08L51.7969 188.62L51.6346 189.918C51.4183 191.558 50.9856 192.406 49.5072 194.1C47.7764 196.084 47.5781 196.624 47.5962 199.257C47.5962 201.023 47.6683 201.618 47.9928 202.484C48.2091 203.079 48.3714 203.584 48.3353 203.602C48.1731 203.764 47.3978 202.989 46.875 202.159C45.6851 200.284 45.2524 198.301 45.5228 196.011C45.7752 194.028 46.4784 192.784 48.3534 191.072C49.2368 190.278 50.2103 189.233 50.5529 188.764C51.1478 187.916 51.1478 187.935 50.012 189.07C49.363 189.719 48.2272 190.729 47.488 191.324C46.4062 192.189 46.0096 192.658 45.5228 193.614C45 194.659 44.9099 195.038 44.8197 196.516C44.7296 198.517 44.9459 199.707 45.7392 201.186C46.3161 202.322 47.8305 203.854 48.3353 203.854C48.5517 203.854 48.768 204.142 49.0024 204.719C49.5252 206.017 50.643 207.856 51.9231 209.569C52.5721 210.416 53.0409 211.156 53.0048 211.21C52.7163 211.48 49.6154 209.569 48.1731 208.217C44.0445 204.359 42.7644 198.139 44.8017 191.775C45.4688 189.683 47.0913 186.709 48.9483 184.112C52.1935 179.587 52.9507 177.171 51.9591 174.521C51.4363 173.115 49.9219 171.582 48.6599 171.168C47.47 170.789 46.1358 170.663 45.1803 170.861ZM60.4688 212.219C62.8305 212.76 64.8137 213.499 67.6082 214.834L69.7716 215.879L70.5108 217.664C72.2596 221.901 72.9087 224.641 73.0349 228.301C73.1611 231.889 73.0709 232.033 71.7909 230.429C69.2668 227.273 66.5625 225.633 63.8942 225.615C61.4423 225.615 59.7115 227.039 59.4411 229.257C59.3329 230.23 59.8017 231.546 60.5409 232.34C60.8113 232.628 60.9916 233.097 61.0637 233.656C61.2981 235.909 63.5697 237.37 66.0397 236.829C67.1935 236.594 68.4014 235.513 68.762 234.413C69.3029 232.754 68.5096 230.897 67.0132 230.374C66.0938 230.05 65.4447 230.212 64.6695 230.987C64.1827 231.474 64.0745 231.709 64.0925 232.285L64.1286 232.971L64.2548 232.177C64.4171 231.096 65.0841 230.537 66.1659 230.537C68.4195 230.537 69.4111 233.205 67.9147 235.188C67.2476 236.09 66.4724 236.486 65.4447 236.486C63.75 236.486 62.3978 235.441 62.1635 233.926L62.0553 233.331L63.2993 233.367L64.5252 233.385L63.4796 233.241C62.9026 233.169 62.3438 233.025 62.2536 232.935C62.0192 232.7 62.524 231.294 63.0469 230.753C63.8762 229.852 64.7596 229.545 66.5084 229.545C68.131 229.545 68.131 229.545 70.006 230.537C71.3762 231.258 71.9892 231.691 72.3137 232.177C72.7103 232.79 72.7284 232.844 72.4579 233.584C70.9976 237.748 67.482 240.128 63.2632 239.858C58.8642 239.551 54.8077 236.36 53.4555 232.141C53.2752 231.564 53.0589 231.402 51.6707 230.717C48.8401 229.311 46.6947 226.733 45.7572 223.578C45.0361 221.162 45.4688 217.971 46.8029 215.879C47.8846 214.203 50.3546 212.472 52.3017 212.057C53.3113 211.841 54.1587 212.49 55.1322 214.203C56.1779 216.078 56.5024 217.015 56.5024 218.169C56.5024 220.098 55.7272 221.612 54.4111 222.225C53.0589 222.874 52.7344 222.676 52.7163 221.288C52.7163 220.999 52.6442 220.819 52.5541 220.891C52.4459 220.945 52.4279 221.396 52.482 221.901C52.5721 222.604 52.5361 222.784 52.3377 222.712C52.1935 222.676 51.869 222.586 51.5986 222.532C51.3462 222.478 50.8774 222.207 50.5709 221.955C50.2644 221.703 50.012 221.576 50.012 221.685C50.012 221.991 51.3281 222.784 52.0493 222.91C52.6803 223.001 53.0409 223.235 52.8606 223.433C52.8065 223.469 52.3738 223.379 51.869 223.235C51.238 223.037 50.7512 222.748 50.3005 222.243C49.6695 221.54 49.4712 221.216 49.8317 221.432C50.0661 221.576 50.0661 221.504 49.7416 220.747C49.2909 219.665 49.381 218.439 49.994 217.61C50.5889 216.799 51.8149 216.114 52.6803 216.114C54.8438 216.114 56.2139 218.385 54.9519 219.882C54.6995 220.188 54.357 220.441 54.1947 220.459C53.9964 220.459 53.9603 220.495 54.1226 220.567C54.5012 220.711 55.2584 220.098 55.5469 219.413C55.9075 218.529 55.7272 217.682 54.9519 216.853C52.5361 214.166 48.2812 216.979 49.1106 220.711C49.4892 222.388 50.4447 223.325 52.1755 223.722C52.7524 223.848 53.5096 224.191 53.9603 224.533C54.8438 225.2 55.601 225.398 56.881 225.272C58.143 225.146 59.1526 224.407 59.8017 223.145C60.2704 222.243 60.3065 222.027 60.2524 220.585C60.1803 219.233 60.0901 218.854 59.5312 217.7C58.7019 216.06 57.2055 214.239 55.9435 213.319C54.4111 212.219 54.1226 211.931 54.375 211.751C54.7716 211.462 58.4856 211.751 60.4688 212.219ZM58.3053 216.709C59.8558 219.052 60.1623 221.666 59.0805 223.217C58.107 224.605 56.5565 225.092 55.1142 224.497C53.9243 223.992 53.8882 223.866 54.8438 223.415C55.8173 222.965 56.5745 222.153 57.1154 220.981C57.4038 220.35 57.476 219.81 57.476 218.547C57.494 217.051 57.4399 216.817 56.863 215.663C56.5204 214.96 56.2139 214.311 56.1779 214.221C56.0697 213.86 57.6382 215.699 58.3053 216.709ZM57.1334 218.547C57.1334 219.791 57.0613 220.134 56.5925 221.072C55.9255 222.388 54.988 223.181 54.0505 223.217C53.113 223.235 53.095 222.892 54.0505 222.64C55.1142 222.37 55.8353 221.721 56.3221 220.585C56.881 219.287 56.9892 217.862 56.6106 216.636C56.4303 216.096 56.268 215.537 56.2139 215.392C56.1779 215.248 56.3582 215.573 56.6286 216.114C57.0433 216.943 57.1334 217.34 57.1334 218.547ZM65.9315 226.588C67.2115 227.021 69.0865 228.211 70.0781 229.239L70.7632 229.924L69.2849 229.203C67.8966 228.517 67.6983 228.463 66.256 228.463C63.8041 228.463 62.1274 229.365 61.3882 231.078C61.1719 231.564 60.9555 231.979 60.9195 231.979C60.7933 231.979 60.1803 230.681 60.0361 230.122C59.8918 229.509 60.1983 228.283 60.6671 227.616C60.8654 227.364 61.4243 226.931 61.9471 226.679C63.119 226.102 64.381 226.066 65.9315 226.588ZM68.8161 229.329C69.375 229.581 69.8438 229.834 69.8438 229.888C69.8438 229.942 69.4651 229.816 68.9964 229.599C66.274 228.391 62.9748 229.473 62.1454 231.817C61.8029 232.736 61.4423 232.898 61.4964 232.105C61.6767 229.401 65.6791 227.886 68.8161 229.329ZM61.875 233.62C61.9832 234.557 62.1094 234.882 62.6863 235.513C63.155 236.072 63.1911 236.144 62.8486 235.963C62.2897 235.657 61.5505 234.503 61.4243 233.692C61.3341 233.151 61.3702 233.025 61.5685 233.097C61.7127 233.133 61.8389 233.367 61.875 233.62Z" fill="#E38F58"/>
<path d="M254.405 170.879C252.8 171.258 251.376 172.412 250.529 174.016C250.096 174.81 250.042 175.116 250.042 176.63C250.042 178.163 250.114 178.487 250.637 179.695C250.962 180.435 251.629 181.606 252.115 182.31C255.541 187.159 256.695 189.215 257.578 192.045C258.263 194.263 258.48 196.011 258.389 198.481C258.155 203.8 255.703 207.766 250.907 210.525C249.159 211.516 248.816 211.48 249.736 210.38C250.889 209.01 252.368 206.685 253.017 205.26C253.522 204.142 253.72 203.89 254.351 203.584C255.288 203.133 256.46 201.672 257.001 200.302C257.362 199.419 257.416 198.914 257.434 197.093C257.434 195.128 257.398 194.84 256.965 193.938C256.352 192.622 255.757 191.955 254.099 190.693C253.323 190.098 252.35 189.233 251.935 188.764C251.358 188.115 251.286 188.061 251.593 188.529C251.827 188.872 252.837 189.972 253.864 190.963C256.208 193.253 256.659 194.136 256.767 196.624C256.857 198.608 256.623 199.906 255.883 201.366C255.397 202.34 254.153 203.8 253.99 203.62C253.936 203.566 254.081 203.025 254.315 202.394C254.639 201.456 254.712 200.843 254.73 199.166C254.73 196.642 254.531 196.12 252.764 194.046C251.214 192.207 250.871 191.522 250.673 189.828L250.511 188.439L250.565 190.008C250.637 191.865 250.907 192.514 252.476 194.587C253.107 195.398 253.684 196.39 253.828 196.895C254.189 198.067 254.153 198.788 253.81 197.796C252.999 195.525 250.15 194.028 247.825 194.641C245.715 195.218 244.435 197.886 245.427 199.707C245.805 200.447 247.049 201.168 247.861 201.132C248.329 201.114 248.311 201.096 247.626 200.951C245.463 200.537 244.669 198.716 245.769 196.624C246.436 195.344 247.374 194.84 249.05 194.84C253.792 194.84 255.379 200.122 252.368 205.837C251.358 207.73 250.583 208.776 251.376 207.153C252.728 204.413 253.287 201.078 252.746 199.076C251.989 196.264 249.141 194.822 247.572 196.498C247.085 197.021 246.941 197.706 247.175 198.337C247.374 198.86 247.536 198.644 247.464 197.941C247.41 197.346 247.482 197.183 247.969 196.769C249.213 195.723 251.034 196.462 252.043 198.445C252.8 199.942 252.512 203.187 251.34 206.017C250.817 207.297 248.708 211.066 248.51 211.066C248.456 211.066 248.401 210.759 248.365 210.38C248.257 208.686 247.59 208.001 246.058 208.001H245.174L245.733 207.442C246.112 207.081 246.526 206.865 247.031 206.793C247.68 206.703 247.843 206.757 248.347 207.261C248.87 207.784 248.906 207.91 248.816 208.686C248.762 209.154 248.672 209.731 248.6 209.984C248.492 210.38 248.51 210.398 248.69 210.11C248.816 209.912 248.942 209.299 248.996 208.722C249.087 207.73 249.069 207.622 248.546 207.117C248.131 206.685 247.825 206.558 247.32 206.558C246.526 206.558 245.643 207.063 245.228 207.784L244.904 208.325L245.913 208.397C247.175 208.505 247.734 209.01 247.897 210.182L248.005 211.011L245.607 211.12C243.786 211.21 242.668 211.354 241.064 211.769C238.81 212.346 235.367 213.698 233.293 214.816C232.049 215.483 232.031 215.501 231.418 216.925C229.363 221.739 228.227 227.219 228.642 230.428L228.804 231.654L227.903 231.546C227.416 231.474 226.875 231.33 226.677 231.204C226.244 230.933 225.901 230.086 225.883 229.239C225.883 228.86 225.829 228.553 225.757 228.553C225.451 228.553 224.459 229.581 224.225 230.14C223.882 230.951 224.063 231.672 224.748 232.249C225.343 232.754 225.919 232.808 227.163 232.502C228.263 232.213 228.047 232.105 226.893 232.358C226.37 232.466 225.757 232.502 225.523 232.448C224.369 232.159 223.99 230.753 224.766 229.635C225.288 228.86 225.703 228.698 225.541 229.329C225.397 229.924 225.559 230.717 225.956 231.222C226.334 231.727 228.047 232.231 228.534 231.961C228.714 231.871 228.858 231.853 228.858 231.925C228.84 232.159 224.91 234.449 223.666 234.954C218.924 236.883 215.156 236.342 214.002 233.584C213.389 232.123 214.688 230.447 215.913 231.096C216.292 231.294 216.31 231.294 216.076 231.023C215.643 230.483 214.669 230.627 213.966 231.33C213.425 231.871 213.353 232.069 213.353 232.826C213.353 234.431 214.76 235.891 216.779 236.414C218.708 236.901 221.989 236.324 224.531 235.044C225.775 234.413 225.956 234.467 224.874 235.152C221.232 237.442 217.716 238.127 215.192 237.027C212.488 235.855 211.388 232.213 213.119 230.158C214.327 228.734 216.851 228.499 217.843 229.707C217.969 229.87 218.203 230.302 218.347 230.663L218.6 231.348L218.492 230.717C218.438 230.338 218.149 229.834 217.77 229.455C217.157 228.842 217.085 228.824 215.805 228.824C214.615 228.824 214.381 228.878 213.696 229.365C213.281 229.653 212.74 230.266 212.488 230.717C211.893 231.835 211.983 233.89 212.668 235.062C213.335 236.18 214.237 236.973 215.264 237.388C215.769 237.586 215.986 237.73 215.769 237.748C214.886 237.766 213.606 237.153 211.911 235.945C209.856 234.467 208.954 234.124 207.151 234.16L205.871 234.197L207.314 234.323C209.026 234.467 209.838 234.846 211.316 236.144C211.893 236.666 212.704 237.297 213.137 237.568C214.651 238.56 217.41 238.704 219.844 237.947C220.475 237.748 221.052 237.622 221.106 237.676C221.25 237.856 219.7 239.136 218.834 239.551C216.31 240.777 212.903 240.759 210.775 239.497C210.361 239.245 209.189 238.199 208.197 237.171C207.188 236.144 206.088 235.152 205.763 234.972C205.06 234.575 205.186 234.737 206.286 235.567C206.701 235.891 207.422 236.666 207.891 237.261C209.117 238.902 210.108 239.894 210.919 240.308C213.894 241.859 218.041 241.264 220.403 238.974C220.799 238.596 221.16 238.055 221.214 237.784C221.304 237.37 221.502 237.207 222.386 236.847C223.558 236.396 226.172 234.755 227.776 233.493C228.335 233.061 228.84 232.7 228.912 232.7C229.093 232.7 228.407 234.016 227.47 235.477C224.838 239.569 220.962 241.787 216.058 242.021C213.696 242.129 212.001 241.913 209.748 241.246C206.791 240.344 205.313 239.515 199.958 235.819C197.758 234.287 196.352 233.746 194.369 233.638C192.873 233.566 192.728 233.584 191.629 234.124C189.483 235.188 188.293 237.135 188.293 239.515C188.311 241.841 189.465 243.68 191.178 244.148C191.484 244.221 191.376 244.112 190.871 243.788C189.718 243.085 188.96 241.426 188.942 239.587C188.924 238.415 189.014 238.037 189.429 237.171C190.601 234.773 193.089 233.692 195.829 234.395C197.362 234.773 198.444 235.35 201.274 237.297C207.079 241.282 212.163 242.868 217.103 242.273C221.755 241.697 225.307 239.479 227.975 235.441C229.219 233.566 229.219 233.566 229.399 234.07C230.589 237.261 233.005 239.443 236.106 240.182C241.316 241.408 246.995 238.253 249.141 232.935C249.537 231.943 249.645 231.853 250.799 231.258C252.44 230.428 253.738 229.455 254.603 228.409C258.317 223.974 258.425 217.79 254.838 214.148C253.756 213.049 252.332 212.147 251.088 211.769C250.655 211.642 250.313 211.498 250.313 211.444C250.313 211.372 250.619 211.174 250.98 210.975C251.358 210.777 252.26 210.164 253.017 209.605C258.101 205.783 259.958 199.203 257.957 192.171C257.344 189.99 255.487 186.294 253.828 183.932C250.619 179.371 249.862 176.811 251.016 174.395C251.881 172.628 253.468 171.564 255.469 171.438C257.65 171.294 259.381 172.033 260.246 173.475C260.445 173.8 260.589 173.908 260.589 173.728C260.589 173.277 259.579 171.997 258.84 171.51C257.704 170.753 255.956 170.519 254.405 170.879ZM248.041 211.877C247.987 212.021 247.428 212.508 246.797 212.959C243.606 215.23 241.532 219.088 242.037 221.775C242.398 223.758 243.768 225.128 245.517 225.272C246.689 225.362 247.626 225.092 248.383 224.407C248.726 224.118 249.285 223.848 249.772 223.776C251.989 223.415 253.233 221.973 253.269 219.719C253.269 218.8 253.179 218.367 252.837 217.736C251.845 215.969 249.429 215.266 247.861 216.312C246.959 216.907 246.436 217.989 246.599 218.89C246.743 219.647 247.662 220.621 248.203 220.621C248.528 220.603 248.51 220.567 248.041 220.368C247.284 220.026 246.887 219.431 246.887 218.584C246.887 217.682 247.32 216.961 248.149 216.492C250.024 215.447 252.584 216.817 252.8 218.98C252.837 219.467 252.764 220.17 252.638 220.549C252.512 220.945 252.386 221.396 252.368 221.558C252.314 222.225 251.268 223.055 250.15 223.307C249.05 223.541 249.285 223.127 250.403 222.856C250.962 222.712 251.466 222.424 251.827 222.027C252.206 221.648 252.242 221.576 251.935 221.829C251.286 222.37 250.763 222.604 250.24 222.604C249.79 222.604 249.772 222.55 249.754 221.558L249.736 220.531L249.573 221.414C249.375 222.622 249.231 222.73 248.257 222.352C246.725 221.757 245.95 220.549 245.841 218.547C245.769 217.051 246.094 216.041 247.32 213.95C248.618 211.751 249.357 211.552 251.899 212.778C256.677 215.068 258.281 220.747 255.577 225.939C254.585 227.832 252.602 229.743 250.655 230.699L249.123 231.438L248.528 232.88C245.679 239.876 236.665 242.201 232.013 237.171C231.076 236.18 230.03 234.341 229.688 233.151C229.435 232.285 231.076 230.897 233.528 229.87C235.493 229.076 238.089 229.455 239.261 230.735C239.748 231.276 240.288 232.7 240.072 232.916C239.982 233.007 239.441 233.133 238.846 233.223L237.782 233.403L239.008 233.367C240.036 233.331 240.216 233.385 240.216 233.638C240.216 234.16 239.856 234.936 239.351 235.441C239.099 235.729 238.972 235.945 239.099 235.945C239.459 235.945 240.216 234.737 240.361 233.944C240.433 233.529 240.595 233.151 240.739 233.097C241.082 232.989 240.847 234.215 240.379 234.972C240 235.603 239.207 236.198 238.972 236.035C238.882 235.999 238.504 236.072 238.125 236.234C237.26 236.594 235.853 236.486 235.204 235.999C234.573 235.531 233.96 234.611 233.726 233.8C233.221 231.961 235.006 229.978 236.683 230.537C237.494 230.807 237.909 231.294 238.071 232.213C238.179 232.916 238.197 232.935 238.215 232.376C238.269 230.663 236.25 229.599 234.808 230.573C233.744 231.312 233.456 231.871 233.456 233.241C233.456 234.323 233.528 234.575 233.996 235.26C234.808 236.396 235.709 236.847 237.188 236.847C239.081 236.847 240.198 236.216 240.865 234.791C241.1 234.287 241.298 233.62 241.298 233.313C241.298 232.971 241.442 232.628 241.677 232.412C242.903 231.294 243.209 229.094 242.326 227.598C241.01 225.344 237.909 224.93 234.826 226.57C233.041 227.526 231.977 228.517 230.048 230.987C229.345 231.907 229.219 231.636 229.219 228.986C229.219 225.272 230.012 221.811 231.905 217.376L232.554 215.843L234.627 214.816C236.971 213.662 241.028 212.273 243.191 211.895C243.984 211.751 245.427 211.624 246.382 211.624C247.861 211.606 248.113 211.642 248.041 211.877ZM245.499 215.519C243.966 218.602 244.832 222.081 247.41 223.343L248.401 223.83L247.77 224.209C245.463 225.615 242.831 224.136 242.614 221.288C242.488 219.864 242.849 218.584 243.768 217.051C244.435 215.969 245.968 214.058 246.076 214.166C246.112 214.203 245.859 214.816 245.499 215.519ZM245.769 216.24C244.796 219.016 246.148 222.243 248.474 222.712C248.798 222.784 249.032 222.928 248.996 223.037C248.888 223.379 248.203 223.361 247.482 223.001C245.246 221.847 244.489 218.746 245.715 215.807C246.13 214.834 246.166 215.14 245.769 216.24ZM240.343 226.588C241.532 227.165 242.073 227.995 242.163 229.365C242.218 230.248 242.163 230.627 241.857 231.222C241.641 231.636 241.442 231.979 241.406 231.979C241.352 231.979 241.118 231.546 240.883 231.005C239.712 228.463 236.106 227.616 232.987 229.148L231.653 229.797L232.68 228.842C233.78 227.796 235.331 226.841 236.502 226.462C237.692 226.102 239.441 226.156 240.343 226.588ZM238.666 229.347C239.784 229.888 240.505 230.699 240.775 231.727C240.919 232.231 240.919 232.43 240.721 232.538C240.559 232.646 240.433 232.502 240.27 232.051C239.621 230.176 238.305 229.257 236.07 229.13C235.168 229.076 234.483 229.148 233.996 229.329C232.644 229.816 232.554 229.834 233.095 229.527C234.718 228.59 236.971 228.517 238.666 229.347Z" fill="#E38F58"/>
<path d="M255.523 174.016C254.82 174.395 254.405 175.404 254.495 176.54C254.639 178.217 255.739 179.227 257.434 179.227C259.075 179.227 260.481 177.947 260.679 176.27L260.769 175.459L260.535 176.324C259.886 178.578 257.38 179.317 255.992 177.676C255.541 177.153 255.505 176.991 255.577 175.945C255.631 174.954 255.721 174.719 256.136 174.377C256.514 174.034 256.55 173.944 256.334 173.854C255.992 173.728 256.1 173.71 255.523 174.016Z" fill="#E38F58"/>
<path d="M45.9736 174.251C46.5505 174.719 46.7668 175.242 46.7668 176.234C46.7668 178.145 44.8017 179.227 43.1611 178.235C42.3678 177.748 42.1514 177.46 41.8089 176.45L41.5385 175.639L41.6466 176.36C41.7909 177.297 42.1334 177.928 42.8005 178.505C44.8558 180.218 47.8486 178.92 47.8486 176.306C47.8486 175.008 47.0733 173.926 46.1538 173.926C45.595 173.926 45.595 173.926 45.9736 174.251Z" fill="#E38F58"/>
<path d="M43.143 181.787C42.6202 182.436 42.7284 183.896 43.4856 186.402C43.9002 187.718 44.2428 189.142 44.2608 189.557C44.2969 189.99 44.369 190.332 44.4411 190.332C44.6394 190.332 45.4868 188.295 45.7031 187.267C45.8113 186.745 45.8654 185.771 45.8293 185.122C45.649 182.742 44.0264 180.723 43.143 181.787ZM44.6575 183.283C45.3606 184.527 45.5228 186.42 45.0721 188.169C44.6935 189.629 44.5312 189.809 44.4772 188.836C44.4411 188.421 44.1887 187.087 43.8822 185.861C43.2692 183.355 43.2692 183.337 43.5216 182.67C43.774 182.021 44.0264 182.165 44.6575 183.283Z" fill="#E38F58"/>
<path d="M257.542 182.147C257.236 182.526 256.875 183.193 256.713 183.644C256.406 184.581 256.352 186.492 256.641 187.538C256.875 188.439 257.722 190.332 257.867 190.332C257.921 190.332 257.993 189.972 258.029 189.539C258.047 189.106 258.389 187.718 258.786 186.456C259.778 183.283 259.706 181.66 258.57 181.534C258.209 181.498 257.975 181.642 257.542 182.147ZM258.858 182.85C258.948 183.283 258.804 184.221 258.407 185.843C258.101 187.123 257.831 188.511 257.813 188.89C257.794 189.791 257.614 189.593 257.272 188.259C256.731 186.24 256.983 184.022 257.867 182.778C258.389 182.039 258.714 182.075 258.858 182.85Z" fill="#E38F58"/>
<path d="M51.274 187.484C51.0577 187.88 51.0577 187.88 51.3822 187.592C51.5625 187.412 51.6526 187.231 51.5986 187.159C51.5264 187.105 51.3822 187.249 51.274 187.484Z" fill="#E38F58"/>
<path d="M250.673 187.249C250.673 187.34 250.799 187.52 250.98 187.646C251.25 187.88 251.25 187.862 251.052 187.484C250.835 187.069 250.673 186.979 250.673 187.249Z" fill="#E38F58"/>
<path d="M58.8462 196.877C57.8906 197.364 58.125 198.662 59.1707 198.77C59.9459 198.842 60.2885 198.554 60.2885 197.814C60.2885 196.967 59.5853 196.516 58.8462 196.877ZM59.7115 197.778C59.7837 198.139 59.2608 198.391 58.9904 198.121C58.72 197.85 58.9724 197.328 59.3329 197.4C59.5132 197.436 59.6755 197.598 59.7115 197.778Z" fill="#E38F58"/>
<path d="M242.416 196.931C241.893 197.291 241.857 198.355 242.362 198.626C243.606 199.275 244.724 197.832 243.642 196.967C243.155 196.57 242.939 196.57 242.416 196.931ZM243.426 197.796C243.389 198.031 243.245 198.175 243.011 198.175C242.596 198.175 242.416 197.562 242.758 197.364C243.119 197.129 243.48 197.382 243.426 197.796Z" fill="#E38F58"/>
<path d="M249.916 199.707C249.754 199.996 249.339 200.41 249.014 200.609C248.69 200.807 248.51 200.969 248.636 200.969C248.906 200.969 249.916 200.122 250.15 199.671C250.457 199.094 250.24 199.13 249.916 199.707Z" fill="#E38F58"/>
<path d="M52.4279 200.104C52.8065 200.699 53.762 201.15 54.5553 201.132C55.0601 201.114 55.006 201.078 54.2668 200.951C53.6538 200.861 53.2031 200.645 52.7524 200.212C52.1935 199.689 52.1575 199.671 52.4279 200.104Z" fill="#E38F58"/>
<path d="M71.9712 211.354C70.601 212.093 70.637 214.221 72.0072 214.942C73.0349 215.483 74.2969 215.122 74.8017 214.13C75.7572 212.273 73.8101 210.344 71.9712 211.354ZM73.9183 212.039C74.8918 212.868 74.4591 214.329 73.143 214.599C72.6563 214.689 72.476 214.617 72.0072 214.166C71.3041 213.463 71.3041 212.832 71.9892 212.129C72.6382 211.498 73.2512 211.462 73.9183 212.039Z" fill="#E38F58"/>
<path d="M228.371 211.246C227.849 211.462 227.236 212.454 227.236 213.103C227.236 213.824 227.74 214.617 228.425 214.942C229.147 215.284 229.435 215.284 230.21 214.96C232.103 214.166 231.49 211.047 229.435 211.084C229.075 211.084 228.588 211.156 228.371 211.246ZM230.319 212.129C230.95 212.778 230.986 213.391 230.409 214.058C229.579 215.032 228.119 214.599 227.849 213.283C227.758 212.796 227.831 212.616 228.281 212.147C228.984 211.444 229.615 211.444 230.319 212.129Z" fill="#E38F58"/>
<path d="M214.633 225.831C213.912 226.552 214.363 227.652 215.391 227.652C215.877 227.652 216.418 227.075 216.418 226.57C216.418 225.705 215.228 225.236 214.633 225.831ZM215.787 226.552C215.787 226.697 215.643 226.895 215.481 227.003C215.084 227.237 214.688 226.913 214.868 226.48C214.994 226.12 215.787 226.192 215.787 226.552Z" fill="#E38F58"/>
<path d="M86.1959 225.993C85.7993 226.426 85.8173 226.985 86.2139 227.346C86.899 227.977 88.0529 227.508 88.0529 226.606C88.0529 225.741 86.7909 225.326 86.1959 225.993ZM87.4219 226.66C87.4219 227.111 86.7007 227.255 86.5385 226.841C86.3762 226.408 86.5745 226.174 87.0252 226.246C87.2776 226.282 87.4219 226.426 87.4219 226.66Z" fill="#E38F58"/>
<path d="M218.329 232.231C218.257 232.52 217.933 233.007 217.626 233.313C217.176 233.746 217.157 233.8 217.5 233.584C218.023 233.241 218.654 232.267 218.546 231.943C218.492 231.817 218.401 231.943 218.329 232.231Z" fill="#E38F58"/>
<path d="M83.726 232.159C83.726 232.322 83.9423 232.682 84.2308 232.989C84.5012 233.295 84.6274 233.403 84.5012 233.259C84.393 233.097 84.1587 232.718 84.0144 232.43C83.8522 232.123 83.726 232.015 83.726 232.159Z" fill="#E38F58"/>
<path d="M97.2476 234.521C97.2476 234.611 97.3377 234.647 97.4279 234.593C97.5361 234.539 97.6082 234.449 97.6082 234.395C97.6082 234.359 97.5361 234.323 97.4279 234.323C97.3377 234.323 97.2476 234.413 97.2476 234.521Z" fill="#E38F58"/>
<path d="M204.79 234.503C204.844 234.593 204.934 234.683 204.988 234.683C205.024 234.683 205.06 234.593 205.06 234.503C205.06 234.395 204.97 234.323 204.862 234.323C204.772 234.323 204.736 234.395 204.79 234.503Z" fill="#E38F58"/>
<path d="M193.035 238.145C192.169 238.325 191.358 239.136 191.358 239.84C191.358 240.344 191.647 240.416 191.809 239.948C192.007 239.281 193.594 238.884 194.603 239.245C195.451 239.533 196.046 240.471 196.046 241.48C196.046 242.868 195.397 243.644 193.792 244.185L193.071 244.419L193.792 244.311C195.559 244.04 196.767 242.76 196.767 241.12C196.767 239.01 195.162 237.73 193.035 238.145Z" fill="#E38F58"/>
<path d="M107.001 238.451C105.613 239.191 105.126 241.21 105.956 242.706C106.388 243.499 107.939 244.437 108.768 244.401C109.219 244.383 109.201 244.383 108.696 244.257C107.127 243.878 106.262 242.904 106.262 241.57C106.262 239.966 107.055 239.191 108.66 239.191C109.597 239.191 109.778 239.245 110.264 239.731C110.553 240.02 110.823 240.272 110.877 240.272C111.058 240.272 110.913 239.407 110.661 239.046C110.012 238.109 108.191 237.82 107.001 238.451Z" fill="#E38F58"/>
<path d="M115.511 238.686C114.573 239.136 114.573 240.579 115.529 241.011C117.025 241.697 118.179 239.497 116.719 238.74C116.124 238.433 116.052 238.433 115.511 238.686ZM116.701 239.515C116.917 239.912 116.502 240.633 116.088 240.633C115.944 240.633 115.709 240.453 115.565 240.236C115.204 239.731 115.493 239.191 116.088 239.191C116.322 239.191 116.611 239.335 116.701 239.515Z" fill="#E38F58"/>
<path d="M185.319 238.92C184.453 239.767 184.976 241.066 186.202 241.066C187.049 241.066 187.464 240.651 187.464 239.804C187.464 238.578 186.166 238.055 185.319 238.92ZM186.869 239.569C187.121 240.074 186.454 240.723 185.932 240.453C185.373 240.146 185.3 239.713 185.751 239.353C186.202 238.992 186.599 239.064 186.869 239.569Z" fill="#E38F58"/>
<path d="M118.45 239.479C118.089 239.822 118.089 239.984 118.413 240.254C118.594 240.398 127.302 240.435 151.244 240.416C182.47 240.362 183.84 240.344 184.038 240.038C184.579 239.154 185.913 239.191 151.136 239.191C121.911 239.191 118.702 239.227 118.45 239.479Z" fill="#E38F58"/>
<path d="M97.0673 240.344C96.0036 240.651 94.363 241.354 94.363 241.534C94.363 241.606 94.7055 241.66 95.1382 241.679C95.5529 241.697 96.9952 242.039 98.3113 242.436C101.196 243.301 102.278 243.373 102.945 242.706C103.323 242.328 103.359 242.201 103.179 241.859C102.404 240.398 99.4651 239.677 97.0673 240.344ZM100.907 240.993C101.845 241.354 102.837 242.129 102.53 242.31C101.953 242.634 101.178 242.58 99.0325 242.075C97.7344 241.769 96.3101 241.498 95.8954 241.48C94.9219 241.444 95.0481 241.282 96.3462 240.939C97.8245 240.543 99.7536 240.561 100.907 240.993Z" fill="#E38F58"/>
<path d="M201.184 240.326C200.337 240.651 199.309 241.354 199.111 241.733C198.858 242.183 199.165 242.76 199.76 242.977C200.571 243.301 201.563 243.175 203.906 242.454C205.186 242.057 206.629 241.697 207.133 241.624L208.035 241.498L207.404 241.156C205.601 240.182 202.59 239.785 201.184 240.326ZM206.142 240.975C207.025 241.246 207.188 241.336 206.773 241.336C206.484 241.354 205.222 241.606 203.978 241.895C201.743 242.436 199.94 242.58 199.742 242.273C199.561 241.949 200.679 241.138 201.815 240.795C202.698 240.525 204.934 240.633 206.142 240.975Z" fill="#E38F58"/>
<g clip-path="url(#clip0_330_486)">
<path d="M97.9425 63.5483C99.2176 60.7605 101.71 58.7622 104.379 57.35C103.912 58.5343 103.186 59.7308 103.436 61.0535C103.662 62.1198 104.285 63.0395 104.81 63.9756C102.588 64.2442 99.8408 65.1151 97.9425 63.5483Z" fill="#062452" stroke="#062452" stroke-width="0.125"/>
<path d="M108.123 63.1372C110.173 61.0901 113.002 60.0035 115.806 59.4337C114.945 60.2884 113.859 61.1064 113.637 62.3762C113.363 63.5849 113.748 64.7977 114.035 65.9657C112.063 65.8477 110.021 65.5587 108.283 64.5698C107.643 64.35 107.573 63.4994 108.123 63.1372Z" fill="#062452" stroke="#062452" stroke-width="0.125"/>
<path d="M90.4149 65.5343C90.1853 63.7802 90.9356 62.1198 91.8294 60.6587C91.8663 61.5988 91.8089 62.5552 92.0098 63.4831C92.3911 64.7 93.2849 65.6523 94.0557 66.6372C91.7843 68.3628 89.6523 70.7029 89.4473 73.6738C89.0209 77.3733 91.485 80.6372 91.2554 84.3163C90.3862 81.6547 89.1439 79.1477 88 76.6V73.4704C88.4838 71.7244 89.353 70.1291 90.3165 68.6029C90.9643 67.6913 90.3862 66.5477 90.4149 65.5343Z" fill="#062452" stroke="#062452" stroke-width="0.125"/>
<path d="M94.7937 64.0081C97.2619 65.2576 100.107 64.8221 102.768 65.0663C107.643 65.3675 112.85 66.7634 116.11 70.6175C119.873 75.2204 120.394 81.4634 123.572 86.3919C124.113 87.2058 124.765 87.9384 125.318 88.7483C123.699 88.1866 122.637 86.7378 121.78 85.3419C119.492 81.2192 118.598 76.4047 115.79 72.5547C113.133 69.0709 108.68 67.4919 104.429 67.1134C101.878 66.9384 99.3447 66.5965 96.7986 66.4052C95.8761 69.7302 92.3788 71.7814 91.9483 75.3099C91.8376 76.9785 93.2726 78.0651 93.9655 79.4204C93.9204 80.1814 92.6494 80.1651 92.3747 79.5424C91.3005 78.2727 90.7798 76.5268 91.1898 74.8948C92.0098 71.8831 94.6338 69.7262 95.4333 66.7064C95.7244 65.7541 95.2324 64.8262 94.7937 64.0081Z" fill="#062452" stroke="#062452" stroke-width="0.125"/>
<path d="M115.946 66.5029C118.73 65.689 121.727 65.9576 124.465 66.8081C123.399 67.1337 122.231 67.382 121.415 68.1919C120.562 68.9895 120.394 70.1983 120.111 71.2686C118.68 70.7558 117.618 69.5878 116.589 68.5174C116.036 67.9802 115.823 67.2518 115.946 66.5029Z" fill="#062452" stroke="#062452" stroke-width="0.125"/>
<path d="M121.444 71.932C124.379 71.7489 126.954 73.2954 129.377 74.7239C128.119 74.6791 126.679 74.3535 125.601 75.1919C124.859 75.8023 124.326 76.6122 123.715 77.3407C122.682 75.6884 121.251 73.9994 121.444 71.932Z" fill="#062452" stroke="#062452" stroke-width="0.125"/>
<path d="M186.818 75.375C189.627 74.4268 192.825 75.4157 194.78 77.5768C198.2 81.1419 199.188 86.1518 201.631 90.307C202.492 91.7151 203.841 93.2454 205.67 93.0989C207.802 92.9483 209.573 91.4872 211 90.018V90.7547C209.676 92.2605 208.573 94.157 206.597 94.9018C204.948 95.5082 203.12 94.8773 201.857 93.7582C198.803 91.1372 197.544 87.1896 195.289 83.9785C193.858 82.0291 192.005 80.0552 189.496 79.6198C187.253 79.2291 185.067 80.2832 183.386 81.6791C180.385 84.2064 178.188 87.5273 176.306 90.9215C175.359 92.5739 174.776 94.4459 173.522 95.9111C174.424 91.2593 176.199 86.7541 178.663 82.6965C180.631 79.5994 183.231 76.6 186.818 75.375Z" fill="#062452" stroke="#062452" stroke-width="0.125"/>
<path d="M99.5087 77.2675C101.001 77.6337 102.071 78.8547 102.764 80.157C104.322 83.1768 104.974 86.6401 106.987 89.432C107.799 90.6041 109.103 91.2675 110.312 91.9471C106.962 93.2861 103.81 95.6669 102.575 99.1547C101.55 101.312 101.632 103.717 101.522 106.037C100.53 104.852 100.353 103.257 100.206 101.784C100.12 95.3616 103.404 89.2651 102.51 82.7983C102.235 80.6372 100.911 78.8587 99.5087 77.2675Z" fill="#062452" stroke="#062452" stroke-width="0.125"/>
<path d="M125.331 78.5087C127.811 78.2768 129.947 79.8558 131.841 81.2355C130.915 81.1988 129.935 80.9506 129.045 81.3209C128.229 81.7442 127.635 82.4564 126.991 83.0872C126.155 81.6831 125.265 80.2058 125.331 78.5087Z" fill="#062452" stroke="#062452" stroke-width="0.125"/>
<path d="M99.6481 79.7012C100.636 81.3942 100.796 83.4413 100.419 85.3337C99.8162 87.8041 98.0327 89.7454 97.102 92.0773C96.5157 93.3878 97.1594 94.8 97.1225 96.1634C95.7244 95.8866 95.0192 94.4419 93.6703 94.0552C92.6699 93.5628 90.9192 93.4122 90.9315 91.9797C90.8987 90.1523 91.6531 88.4105 91.6326 86.5791C91.7146 86.5058 91.8745 86.3593 91.9524 86.2861C92.0713 87.8733 91.9524 89.4768 92.3132 91.0355C93.7072 91.3448 94.929 90.5227 96.036 89.7983C97.84 88.6221 99.2012 86.7622 99.6522 84.6541C99.9351 83.014 99.6563 81.3494 99.6481 79.7012Z" fill="#062452" stroke="#062452" stroke-width="0.125"/>
<path d="M127.745 84.3204C129.767 84.3448 131.464 85.5087 133.112 86.5262C131.464 86.3145 130.062 87.1082 129.037 88.3291C128.401 87.0919 127.426 85.7855 127.745 84.3204Z" fill="#062452" stroke="#062452" stroke-width="0.125"/>
<path d="M142.534 97.8849C149.525 98.1413 156.13 95.439 163.018 94.8448C166.585 94.564 170.271 95.6425 173.001 97.9704C176.007 100.522 178.077 103.977 179.803 107.465C177.429 104.445 175.117 101.271 171.898 99.0651C169.787 97.6082 167.286 96.5134 164.666 96.6436C161.685 96.7047 158.922 98.8291 158.003 101.629C157.245 103.485 157.487 105.52 157.639 107.465C156.302 104.999 153.887 103.342 151.341 102.276C147.491 100.669 143.362 99.8913 139.336 98.8494C137.003 98.1494 134.174 97.7465 132.612 95.6994C135.818 96.7983 139.098 97.8849 142.534 97.8849Z" fill="#062452" stroke="#062452" stroke-width="0.125"/>
<path d="M163.305 98.8413C165.453 98.2349 167.798 98.593 169.783 99.5698C173.247 101.218 175.978 104.197 177.671 107.591C179.996 112.919 180.603 119.08 184.387 123.716C185.728 125.478 187.728 126.52 189.729 127.383C186.88 132.099 184.858 137.826 186.404 143.324C187.183 146.494 189.295 149.148 191.919 151.04C189.561 152.208 186.74 153.25 184.12 152.379C182.681 151.919 182.751 150.198 182.792 148.985C183.091 142.807 185.223 136.735 184.436 130.512C184.239 128.738 182.603 127.724 181.23 126.841C175.781 123.459 169.717 120.92 164.957 116.537C161.792 113.537 159.196 109.492 159.287 105.007C159.385 102.451 160.775 99.7529 163.305 98.8413ZM164.83 99.993C163.481 100.339 162.546 101.527 162.099 102.781C161.529 105.141 162.075 107.636 163.186 109.756C164.764 112.772 167.265 115.385 170.41 116.789C172.095 117.481 174.149 117.798 175.801 116.846C177.224 116.032 177.81 114.319 177.901 112.772C177.835 108.653 175.445 104.881 172.333 102.301C170.287 100.587 167.54 99.3419 164.83 99.993Z" fill="#062452" stroke="#062452" stroke-width="0.125"/>
<path d="M119.107 101.82C120.058 108.381 122.678 115.169 128.131 119.316C129.439 120.427 131.128 120.965 132.44 122.063C131.189 122.124 129.939 121.929 128.787 121.441C124.72 119.837 120.689 117.941 116.302 117.383C113.391 116.895 110.411 117.017 107.512 117.554C104.429 118.258 101.079 118.38 98.3812 120.216C96.6018 121.343 95.1381 123.003 94.4083 124.99C94.5559 126.031 95.2857 126.898 95.7859 127.806C96.9216 129.519 98.168 131.509 100.312 132.034C102.124 132.413 103.149 130.557 104.63 129.959C104.478 131.656 103.33 133.015 102.325 134.313C101.169 135.628 99.9843 137.077 98.2582 137.642C98.0163 134.851 96.979 132.177 95.3021 129.922C94.2115 128.225 92.633 126.821 91.8089 124.965C92.223 123.87 93.1578 123.073 93.7318 122.063C94.5395 120.863 94.8716 119.442 95.3267 118.091C96.2738 117.477 97.5366 117.538 98.6067 117.204C104.552 115.727 110.599 113.44 114.945 108.983C116.909 106.981 118.254 104.47 119.107 101.82Z" fill="#062452" stroke="#062452" stroke-width="0.125"/>
<path d="M122.083 106.651C124.953 110.998 128.356 115.218 133.075 117.68C138.717 120.806 145.56 121.054 151.734 119.565C153.907 119.109 155.953 118.209 158.11 117.692C152.813 120.818 146.691 122.93 140.464 122.548C135.359 122.181 130.538 119.573 127.323 115.641C125.039 112.996 123.362 109.879 122.083 106.651Z" fill="#062452" stroke="#062452" stroke-width="0.125"/>
<path d="M109.775 118.604C112.457 118.616 115.117 118.999 117.795 119.072C118.549 121.315 119.402 123.528 120.542 125.612C121.12 126.373 120.361 127.155 120.05 127.855C117.553 132.352 117.044 137.732 117.992 142.726C118.816 146.25 120.283 150.12 123.732 151.866C121.185 152.969 118.254 153.755 115.495 153.055C115.605 150.592 116.085 148.159 116.093 145.692C116.45 136.32 114.334 126.837 109.775 118.604Z" fill="#062452" stroke="#062452" stroke-width="0.125"/>
<path d="M145.781 124.285C149.93 124.794 154.182 123.854 157.655 121.522C159.397 125.873 162.841 129.336 166.72 131.888C167.868 132.665 169.164 133.215 170.275 134.053C170.283 134.208 170.299 134.513 170.307 134.667C166.408 135.709 162.267 136.405 158.885 138.766C158.016 139.397 157.167 140.141 156.823 141.191C157.934 141.887 159.114 142.465 160.217 143.173C157.925 143.275 155.613 142.994 153.42 142.319C152.743 142.131 152.132 141.765 151.644 141.269C152.62 139.82 153.994 138.672 155.589 137.956C158.877 136.226 162.583 135.595 166.023 134.26C165.687 133.886 165.318 133.528 164.846 133.328C161.017 131.513 157.06 129.975 153.227 128.16C150.693 126.972 148.065 125.917 145.781 124.285Z" fill="#062452" stroke="#062452" stroke-width="0.125"/>
<path d="M104.351 136.336C104.789 135.888 105.027 135.188 105.65 134.965C106.639 135.197 107.508 135.738 108.295 136.356C107.516 140.186 106.024 144.537 102.297 146.437C101.218 143.869 100.956 141.053 100.845 138.298C102.088 137.813 103.523 137.463 104.351 136.336Z" fill="#062452" stroke="#062452" stroke-width="0.125"/>
<path d="M146.503 148.045C147.831 146.201 149.361 144.5 151.079 143.01C152.608 144.329 154.617 144.606 156.564 144.305C157.065 145.249 157.241 146.303 157.36 147.349C153.953 149.388 149.787 150.772 145.826 149.648C145.978 149.087 146.138 148.513 146.503 148.045Z" fill="#062452" stroke="#062452" stroke-width="0.125"/>
<path d="M182.423 154.3C184.108 155.35 186.011 156.021 188.024 155.562C188.569 156.506 188.786 157.572 188.819 158.651C185.42 160.62 181.324 161.992 177.396 160.942C177.429 160.046 177.954 159.298 178.483 158.606C179.701 157.088 181 155.635 182.423 154.3Z" fill="#062452" stroke="#062452" stroke-width="0.125"/>
<path d="M110.952 161.503C112.083 158.911 114.17 156.88 116.245 155.008C117.901 156.241 119.951 156.347 121.94 156.339C122.223 157.275 122.46 158.227 122.674 159.188C120.529 160.555 118.098 161.385 115.638 162H112.772C112.161 161.849 111.554 161.678 110.952 161.503Z" fill="#062452" stroke="#062452" stroke-width="0.125"/>
</g>
<defs>
<clipPath id="clip0_330_486">
<rect width="123" height="105" fill="white" transform="translate(88 57)"/>
</clipPath>
</defs>
</svg>
