<svg width="30" height="35" viewBox="0 0 30 35" fill="none" xmlns="http://www.w3.org/2000/svg">
<g clip-path="url(#clip0_77_97)">
<path d="M25.1686 2.72429C23.5537 0.883666 20.6346 0.0945435 16.9001 0.0945435H6.06171C5.69222 0.0945571 5.33485 0.226378 5.05386 0.466305C4.77287 0.706232 4.58668 1.03853 4.52878 1.40345L0.0158615 30.0254C-0.0738405 30.5899 0.363196 31.1009 0.935249 31.1009H7.62651L9.30697 20.4421L9.25482 20.7758C9.37454 20.0224 10.0189 19.4667 10.782 19.4667H13.9616C20.2081 19.4667 25.0992 16.9295 26.5279 9.59009C26.5703 9.37302 26.6071 9.16175 26.6388 8.95534C26.4585 8.85984 26.4585 8.85984 26.6388 8.95534C27.0643 6.24261 26.6359 4.39607 25.1686 2.72429Z" fill="#27346A"/>
<path d="M11.8673 7.97812C12.0502 7.89102 12.2503 7.84588 12.4529 7.846H20.95C21.9562 7.846 22.8947 7.91148 23.7524 8.04951C23.9923 8.08777 24.2311 8.13346 24.4682 8.1865C24.8044 8.26067 25.1366 8.35145 25.4638 8.4585C25.8854 8.59931 26.278 8.7633 26.6389 8.95534C27.0643 6.24156 26.6359 4.39607 25.1686 2.7243C23.5528 0.883666 20.6346 0.0945435 16.9001 0.0945435H6.06078C5.29762 0.0945435 4.64838 0.650139 4.52878 1.40345L0.0158621 30.0244C-0.0738399 30.5897 0.363197 31.1001 0.934322 31.1001H7.62651L11.1129 8.99103C11.1472 8.77372 11.2338 8.56799 11.3652 8.39154C11.4966 8.2151 11.6689 8.07322 11.8673 7.97812Z" fill="#27346A"/>
<path d="M26.5278 9.59013C25.0991 16.9285 20.2081 19.4667 13.9615 19.4667H10.7809C10.0179 19.4667 9.37339 20.0225 9.25483 20.7759L7.16422 34.0289C7.08611 34.5229 7.46809 34.9705 7.96783 34.9705H13.6084C13.9315 34.9704 14.244 34.855 14.4896 34.6451C14.7353 34.4352 14.898 34.1446 14.9485 33.8254L15.0034 33.538L16.0665 26.8004L16.135 26.428C16.1855 26.1089 16.3482 25.8183 16.5938 25.6084C16.8394 25.3985 17.1519 25.2831 17.475 25.283H18.3191C23.7832 25.283 28.0617 23.0632 29.3119 16.6431C29.8338 13.9602 29.5638 11.7202 28.1832 10.1468C27.7645 9.67022 27.2445 9.27664 26.6387 8.95538C26.6059 9.16283 26.5703 9.37307 26.5278 9.59013Z" fill="#2790C3"/>
<path d="M25.1434 8.35918C24.9206 8.29413 24.6958 8.23654 24.4691 8.1865C24.2319 8.13433 23.9931 8.08896 23.7533 8.05044C22.8947 7.91149 21.9569 7.84589 20.9498 7.84589H12.4537C12.2509 7.84543 12.0507 7.89096 11.8681 7.97905C11.6695 8.07386 11.497 8.21565 11.3655 8.39215C11.2341 8.56865 11.1476 8.77453 11.1136 8.99197L9.30777 20.4421L9.25562 20.7758C9.37441 20.0224 10.0188 19.4667 10.7819 19.4667H13.9625C20.209 19.4667 25.1 16.9295 26.5287 9.5901C26.5712 9.37303 26.6069 9.16268 26.6397 8.95534C26.2779 8.76435 25.8863 8.59932 25.4646 8.45943C25.3581 8.42415 25.2511 8.39073 25.1435 8.35918" fill="#1F264F"/>
</g>
<defs>
<clipPath id="clip0_77_97">
<rect width="29.6689" height="35" fill="white"/>
</clipPath>
</defs>
</svg>
