<svg width="78" height="54" viewBox="0 0 78 54" fill="none" xmlns="http://www.w3.org/2000/svg">
<g clip-path="url(#clip0_77_87)">
<path d="M26.0899 46.674V44.1016C26.0899 43.1152 25.4896 42.4723 24.4604 42.4723C23.946 42.4723 23.3886 42.6437 23.0026 43.2012C22.7026 42.7295 22.2739 42.4723 21.6308 42.4723C21.2019 42.4723 20.7733 42.6008 20.4302 43.0725V42.558H19.5298V46.674H20.4302V44.4016C20.4302 43.6729 20.8161 43.3297 21.4165 43.3297C22.0165 43.3297 22.3169 43.7156 22.3169 44.4016V46.674H23.2173V44.4016C23.2173 43.6729 23.6458 43.3297 24.2032 43.3297C24.8036 43.3297 25.1036 43.7156 25.1036 44.4016V46.674H26.0899ZM39.4241 42.558H37.9665V41.3146H37.0661V42.558H36.2515V43.3725H37.0659V45.2592C37.0659 46.2025 37.4519 46.7598 38.481 46.7598C38.8669 46.7598 39.2954 46.6312 39.5958 46.4598L39.3384 45.6879C39.0812 45.8594 38.7812 45.9023 38.5667 45.9023C38.138 45.9023 37.9665 45.6451 37.9665 45.2162V43.3725H39.4241V42.558ZM47.0562 42.4721C46.5417 42.4721 46.1987 42.7295 45.9843 43.0725V42.558H45.0839V46.674H45.9843V44.3588C45.9843 43.6729 46.2843 43.2869 46.8417 43.2869C47.0132 43.2869 47.2276 43.3299 47.3991 43.3727L47.6563 42.5152C47.4849 42.4723 47.2276 42.4723 47.0562 42.4723V42.4721ZM35.5226 42.901C35.0937 42.6008 34.4935 42.4723 33.8503 42.4723C32.8214 42.4723 32.1354 42.9867 32.1354 43.8014C32.1354 44.4875 32.6499 44.8732 33.5503 45.002L33.979 45.0449C34.4507 45.1305 34.7079 45.2592 34.7079 45.4736C34.7079 45.7736 34.3649 45.9881 33.7646 45.9881C33.1644 45.9881 32.6927 45.7736 32.3925 45.5594L31.9638 46.2453C32.4354 46.5883 33.0786 46.7598 33.7216 46.7598C34.9222 46.7598 35.6083 46.2025 35.6083 45.4307C35.6083 44.7018 35.0509 44.3158 34.1933 44.1873L33.7646 44.1443C33.3786 44.1014 33.0786 44.0158 33.0786 43.7586C33.0786 43.4584 33.3786 43.2869 33.8503 43.2869C34.3649 43.2869 34.8794 43.5012 35.1366 43.6299L35.5226 42.901ZM59.4474 42.4723C58.9327 42.4723 58.5897 42.7295 58.3753 43.0725V42.558H57.4749V46.674H58.3753V44.3588C58.3753 43.6729 58.6755 43.2869 59.2327 43.2869C59.4044 43.2869 59.6188 43.3299 59.7903 43.3727L60.0476 42.5152C59.8761 42.4723 59.6189 42.4723 59.4474 42.4723ZM47.9565 44.616C47.9565 45.8594 48.814 46.7598 50.1433 46.7598C50.7435 46.7598 51.1722 46.6312 51.6009 46.2883L51.1722 45.5594C50.8292 45.8166 50.4862 45.9451 50.1003 45.9451C49.3714 45.9451 48.8569 45.4307 48.8569 44.616C48.8569 43.8443 49.3714 43.3297 50.1003 43.2869C50.4862 43.2869 50.8292 43.4154 51.1722 43.6729L51.6009 42.9439C51.1722 42.6008 50.7435 42.4723 50.1433 42.4723C48.814 42.4723 47.9565 43.3727 47.9565 44.616ZM56.2745 44.616V42.558H55.3741V43.0725C55.0739 42.6867 54.6452 42.4723 54.0878 42.4723C52.9302 42.4723 52.0298 43.3727 52.0298 44.616C52.0298 45.8594 52.9302 46.7598 54.0878 46.7598C54.688 46.7598 55.1169 46.5455 55.3741 46.1596V46.674H56.2745V44.616ZM52.9729 44.616C52.9729 43.8871 53.4446 43.2869 54.2163 43.2869C54.9452 43.2869 55.4599 43.8443 55.4599 44.616C55.4599 45.3449 54.9452 45.9451 54.2163 45.9451C53.4446 45.9021 52.9729 45.3449 52.9729 44.616ZM42.2112 42.4723C41.0106 42.4723 40.153 43.3297 40.153 44.616C40.153 45.9023 41.0105 46.7598 42.254 46.7598C42.8542 46.7598 43.4546 46.5883 43.9263 46.2025L43.4974 45.5594C43.1544 45.8166 42.7257 45.9881 42.297 45.9881C41.7396 45.9881 41.1821 45.7309 41.0534 45.0018H44.0978V44.659C44.1407 43.3297 43.3688 42.4723 42.211 42.4723H42.2112ZM42.2112 43.2439C42.7685 43.2439 43.1546 43.5871 43.2401 44.2303H41.0964C41.1821 43.6728 41.5681 43.2439 42.2112 43.2439ZM64.5495 44.616V40.9287H63.6491V43.0725C63.3489 42.6867 62.9202 42.4723 62.3628 42.4723C61.2052 42.4723 60.3048 43.3727 60.3048 44.616C60.3048 45.8594 61.2052 46.7598 62.3628 46.7598C62.9632 46.7598 63.3919 46.5455 63.6491 46.1596V46.674H64.5495V44.616ZM61.2481 44.616C61.2481 43.8871 61.7196 43.2869 62.4915 43.2869C63.2204 43.2869 63.7349 43.8443 63.7349 44.616C63.7349 45.3449 63.2204 45.9451 62.4915 45.9451C61.7196 45.9021 61.2481 45.3449 61.2481 44.616ZM31.1491 44.616V42.558H30.2487V43.0725C29.9485 42.6867 29.5198 42.4723 28.9624 42.4723C27.8048 42.4723 26.9044 43.3727 26.9044 44.616C26.9044 45.8594 27.8048 46.7598 28.9624 46.7598C29.5628 46.7598 29.9915 46.5455 30.2487 46.1596V46.674H31.1491V44.616ZM27.8048 44.616C27.8048 43.8871 28.2765 43.2869 29.0481 43.2869C29.7771 43.2869 30.2917 43.8443 30.2917 44.616C30.2917 45.3449 29.7771 45.9451 29.0481 45.9451C28.2765 45.9021 27.8048 45.3449 27.8048 44.616Z" fill="black"/>
<path d="M35.2222 11.3014H48.728V35.5692H35.2222V11.3014Z" fill="#FF5F00"/>
<path d="M36.0799 23.4354C36.0799 18.5047 38.3951 14.1312 41.9537 11.3014C39.3385 9.24336 36.0371 8 32.4355 8C23.9029 8 17 14.9029 17 23.4354C17 31.9676 23.9029 38.8707 32.4354 38.8707C36.0369 38.8707 39.3383 37.6273 41.9537 35.5691C38.3951 32.7822 36.0799 28.366 36.0799 23.4354Z" fill="#EB001B"/>
<path d="M66.9503 23.4354C66.9503 31.9676 60.0474 38.8707 51.5149 38.8707C47.9134 38.8707 44.612 37.6273 41.9966 35.5691C45.5981 32.7395 47.8706 28.366 47.8706 23.4354C47.8706 18.5047 45.5552 14.1312 41.9966 11.3014C44.6118 9.24336 47.9134 8 51.5149 8C60.0474 8 66.9505 14.9459 66.9505 23.4354H66.9503Z" fill="#F79E1B"/>
</g>
<rect x="0.5" y="0.5" width="77" height="53" stroke="#FEA150"/>
<defs>
<clipPath id="clip0_77_87">
<rect width="50" height="38.8672" fill="white" transform="translate(17 8)"/>
</clipPath>
</defs>
</svg>
